%TF.GenerationSoftware,KiCad,Pcbnew,9.0.6*%
%TF.CreationDate,2025-11-22T19:05:53-06:00*%
%TF.ProjectId,wah,7761682e-6b69-4636-9164-5f7063625858,0.7*%
%TF.SameCoordinates,Original*%
%TF.FileFunction,Legend,Top*%
%TF.FilePolarity,Positive*%
%FSLAX46Y46*%
G04 Gerber Fmt 4.6, Leading zero omitted, Abs format (unit mm)*
G04 Created by KiCad (PCBNEW 9.0.6) date 2025-11-22 19:05:53*
%MOMM*%
%LPD*%
G01*
G04 APERTURE LIST*
G04 Aperture macros list*
%AMRoundRect*
0 Rectangle with rounded corners*
0 $1 Rounding radius*
0 $2 $3 $4 $5 $6 $7 $8 $9 X,Y pos of 4 corners*
0 Add a 4 corners polygon primitive as box body*
4,1,4,$2,$3,$4,$5,$6,$7,$8,$9,$2,$3,0*
0 Add four circle primitives for the rounded corners*
1,1,$1+$1,$2,$3*
1,1,$1+$1,$4,$5*
1,1,$1+$1,$6,$7*
1,1,$1+$1,$8,$9*
0 Add four rect primitives between the rounded corners*
20,1,$1+$1,$2,$3,$4,$5,0*
20,1,$1+$1,$4,$5,$6,$7,0*
20,1,$1+$1,$6,$7,$8,$9,0*
20,1,$1+$1,$8,$9,$2,$3,0*%
G04 Aperture macros list end*
%ADD10C,0.150000*%
%ADD11C,0.100000*%
%ADD12C,0.120000*%
%ADD13C,0.000000*%
%ADD14R,1.800000X1.800000*%
%ADD15O,1.800000X1.800000*%
%ADD16C,1.600000*%
%ADD17R,1.560000X1.560000*%
%ADD18C,1.560000*%
%ADD19RoundRect,0.250000X0.550000X0.550000X-0.550000X0.550000X-0.550000X-0.550000X0.550000X-0.550000X0*%
%ADD20R,1.500000X1.500000*%
%ADD21C,1.500000*%
%ADD22C,3.000000*%
%ADD23O,2.300000X4.500000*%
%ADD24O,4.000000X2.300000*%
%ADD25RoundRect,0.250000X0.550000X-0.550000X0.550000X0.550000X-0.550000X0.550000X-0.550000X-0.550000X0*%
%ADD26R,1.700000X1.700000*%
%ADD27C,1.700000*%
%ADD28R,1.600000X1.600000*%
%ADD29O,1.600000X1.600000*%
%ADD30C,1.800000*%
%ADD31C,9.000000*%
G04 APERTURE END LIST*
D10*
X73034295Y-38316315D02*
X72996200Y-38382982D01*
X72996200Y-38382982D02*
X72958104Y-38416315D01*
X72958104Y-38416315D02*
X72881914Y-38449648D01*
X72881914Y-38449648D02*
X72653342Y-38449648D01*
X72653342Y-38449648D02*
X72577152Y-38416315D01*
X72577152Y-38416315D02*
X72539057Y-38382982D01*
X72539057Y-38382982D02*
X72500961Y-38316315D01*
X72500961Y-38316315D02*
X72500961Y-38216315D01*
X72500961Y-38216315D02*
X72539057Y-38149648D01*
X72539057Y-38149648D02*
X72577152Y-38116315D01*
X72577152Y-38116315D02*
X72653342Y-38082982D01*
X72653342Y-38082982D02*
X72881914Y-38082982D01*
X72881914Y-38082982D02*
X72958104Y-38116315D01*
X72958104Y-38116315D02*
X72996200Y-38149648D01*
X72996200Y-38149648D02*
X73034295Y-38216315D01*
X73034295Y-38216315D02*
X73034295Y-38316315D01*
X72500961Y-37482982D02*
X73034295Y-37482982D01*
X72500961Y-37782982D02*
X72920009Y-37782982D01*
X72920009Y-37782982D02*
X72996200Y-37749649D01*
X72996200Y-37749649D02*
X73034295Y-37682982D01*
X73034295Y-37682982D02*
X73034295Y-37582982D01*
X73034295Y-37582982D02*
X72996200Y-37516315D01*
X72996200Y-37516315D02*
X72958104Y-37482982D01*
X72500961Y-37249649D02*
X72500961Y-36982982D01*
X72234295Y-37149649D02*
X72920009Y-37149649D01*
X72920009Y-37149649D02*
X72996200Y-37116316D01*
X72996200Y-37116316D02*
X73034295Y-37049649D01*
X73034295Y-37049649D02*
X73034295Y-36982982D01*
X88840961Y-38569649D02*
X89488580Y-38569649D01*
X89488580Y-38569649D02*
X89564771Y-38602982D01*
X89564771Y-38602982D02*
X89602866Y-38636316D01*
X89602866Y-38636316D02*
X89640961Y-38702982D01*
X89640961Y-38702982D02*
X89640961Y-38802982D01*
X89640961Y-38802982D02*
X89602866Y-38869649D01*
X89336200Y-38569649D02*
X89374295Y-38636316D01*
X89374295Y-38636316D02*
X89374295Y-38769649D01*
X89374295Y-38769649D02*
X89336200Y-38836316D01*
X89336200Y-38836316D02*
X89298104Y-38869649D01*
X89298104Y-38869649D02*
X89221914Y-38902982D01*
X89221914Y-38902982D02*
X88993342Y-38902982D01*
X88993342Y-38902982D02*
X88917152Y-38869649D01*
X88917152Y-38869649D02*
X88879057Y-38836316D01*
X88879057Y-38836316D02*
X88840961Y-38769649D01*
X88840961Y-38769649D02*
X88840961Y-38636316D01*
X88840961Y-38636316D02*
X88879057Y-38569649D01*
X88840961Y-38236316D02*
X89374295Y-38236316D01*
X88917152Y-38236316D02*
X88879057Y-38202983D01*
X88879057Y-38202983D02*
X88840961Y-38136316D01*
X88840961Y-38136316D02*
X88840961Y-38036316D01*
X88840961Y-38036316D02*
X88879057Y-37969649D01*
X88879057Y-37969649D02*
X88955247Y-37936316D01*
X88955247Y-37936316D02*
X89374295Y-37936316D01*
X89374295Y-37302983D02*
X88574295Y-37302983D01*
X89336200Y-37302983D02*
X89374295Y-37369650D01*
X89374295Y-37369650D02*
X89374295Y-37502983D01*
X89374295Y-37502983D02*
X89336200Y-37569650D01*
X89336200Y-37569650D02*
X89298104Y-37602983D01*
X89298104Y-37602983D02*
X89221914Y-37636316D01*
X89221914Y-37636316D02*
X88993342Y-37636316D01*
X88993342Y-37636316D02*
X88917152Y-37602983D01*
X88917152Y-37602983D02*
X88879057Y-37569650D01*
X88879057Y-37569650D02*
X88840961Y-37502983D01*
X88840961Y-37502983D02*
X88840961Y-37369650D01*
X88840961Y-37369650D02*
X88879057Y-37302983D01*
X70494295Y-37716315D02*
X69960961Y-37716315D01*
X69694295Y-37716315D02*
X69732390Y-37749648D01*
X69732390Y-37749648D02*
X69770485Y-37716315D01*
X69770485Y-37716315D02*
X69732390Y-37682982D01*
X69732390Y-37682982D02*
X69694295Y-37716315D01*
X69694295Y-37716315D02*
X69770485Y-37716315D01*
X69960961Y-37382982D02*
X70494295Y-37382982D01*
X70037152Y-37382982D02*
X69999057Y-37349649D01*
X69999057Y-37349649D02*
X69960961Y-37282982D01*
X69960961Y-37282982D02*
X69960961Y-37182982D01*
X69960961Y-37182982D02*
X69999057Y-37116315D01*
X69999057Y-37116315D02*
X70075247Y-37082982D01*
X70075247Y-37082982D02*
X70494295Y-37082982D01*
X83760961Y-38836316D02*
X84294295Y-38669649D01*
X84294295Y-38669649D02*
X83760961Y-38502982D01*
X84294295Y-37936316D02*
X83494295Y-37936316D01*
X84256200Y-37936316D02*
X84294295Y-38002983D01*
X84294295Y-38002983D02*
X84294295Y-38136316D01*
X84294295Y-38136316D02*
X84256200Y-38202983D01*
X84256200Y-38202983D02*
X84218104Y-38236316D01*
X84218104Y-38236316D02*
X84141914Y-38269649D01*
X84141914Y-38269649D02*
X83913342Y-38269649D01*
X83913342Y-38269649D02*
X83837152Y-38236316D01*
X83837152Y-38236316D02*
X83799057Y-38202983D01*
X83799057Y-38202983D02*
X83760961Y-38136316D01*
X83760961Y-38136316D02*
X83760961Y-38002983D01*
X83760961Y-38002983D02*
X83799057Y-37936316D01*
X84294295Y-37302983D02*
X83494295Y-37302983D01*
X84256200Y-37302983D02*
X84294295Y-37369650D01*
X84294295Y-37369650D02*
X84294295Y-37502983D01*
X84294295Y-37502983D02*
X84256200Y-37569650D01*
X84256200Y-37569650D02*
X84218104Y-37602983D01*
X84218104Y-37602983D02*
X84141914Y-37636316D01*
X84141914Y-37636316D02*
X83913342Y-37636316D01*
X83913342Y-37636316D02*
X83837152Y-37602983D01*
X83837152Y-37602983D02*
X83799057Y-37569650D01*
X83799057Y-37569650D02*
X83760961Y-37502983D01*
X83760961Y-37502983D02*
X83760961Y-37369650D01*
X83760961Y-37369650D02*
X83799057Y-37302983D01*
X67954295Y-37916316D02*
X67954295Y-37782982D01*
X67954295Y-37782982D02*
X67916200Y-37716316D01*
X67916200Y-37716316D02*
X67878104Y-37682982D01*
X67878104Y-37682982D02*
X67763819Y-37616316D01*
X67763819Y-37616316D02*
X67611438Y-37582982D01*
X67611438Y-37582982D02*
X67306676Y-37582982D01*
X67306676Y-37582982D02*
X67230485Y-37616316D01*
X67230485Y-37616316D02*
X67192390Y-37649649D01*
X67192390Y-37649649D02*
X67154295Y-37716316D01*
X67154295Y-37716316D02*
X67154295Y-37849649D01*
X67154295Y-37849649D02*
X67192390Y-37916316D01*
X67192390Y-37916316D02*
X67230485Y-37949649D01*
X67230485Y-37949649D02*
X67306676Y-37982982D01*
X67306676Y-37982982D02*
X67497152Y-37982982D01*
X67497152Y-37982982D02*
X67573342Y-37949649D01*
X67573342Y-37949649D02*
X67611438Y-37916316D01*
X67611438Y-37916316D02*
X67649533Y-37849649D01*
X67649533Y-37849649D02*
X67649533Y-37716316D01*
X67649533Y-37716316D02*
X67611438Y-37649649D01*
X67611438Y-37649649D02*
X67573342Y-37616316D01*
X67573342Y-37616316D02*
X67497152Y-37582982D01*
X67420961Y-37349649D02*
X67954295Y-37182982D01*
X67954295Y-37182982D02*
X67420961Y-37016315D01*
D11*
X102546979Y-34937419D02*
X102737455Y-34937419D01*
X102737455Y-34937419D02*
X102832693Y-34985038D01*
X102832693Y-34985038D02*
X102927931Y-35080276D01*
X102927931Y-35080276D02*
X102975550Y-35270752D01*
X102975550Y-35270752D02*
X102975550Y-35604085D01*
X102975550Y-35604085D02*
X102927931Y-35794561D01*
X102927931Y-35794561D02*
X102832693Y-35889800D01*
X102832693Y-35889800D02*
X102737455Y-35937419D01*
X102737455Y-35937419D02*
X102546979Y-35937419D01*
X102546979Y-35937419D02*
X102451741Y-35889800D01*
X102451741Y-35889800D02*
X102356503Y-35794561D01*
X102356503Y-35794561D02*
X102308884Y-35604085D01*
X102308884Y-35604085D02*
X102308884Y-35270752D01*
X102308884Y-35270752D02*
X102356503Y-35080276D01*
X102356503Y-35080276D02*
X102451741Y-34985038D01*
X102451741Y-34985038D02*
X102546979Y-34937419D01*
X103832693Y-35270752D02*
X103832693Y-35937419D01*
X103404122Y-35270752D02*
X103404122Y-35794561D01*
X103404122Y-35794561D02*
X103451741Y-35889800D01*
X103451741Y-35889800D02*
X103546979Y-35937419D01*
X103546979Y-35937419D02*
X103689836Y-35937419D01*
X103689836Y-35937419D02*
X103785074Y-35889800D01*
X103785074Y-35889800D02*
X103832693Y-35842180D01*
X104166027Y-35270752D02*
X104546979Y-35270752D01*
X104308884Y-34937419D02*
X104308884Y-35794561D01*
X104308884Y-35794561D02*
X104356503Y-35889800D01*
X104356503Y-35889800D02*
X104451741Y-35937419D01*
X104451741Y-35937419D02*
X104546979Y-35937419D01*
X104880313Y-35270752D02*
X104880313Y-36270752D01*
X104880313Y-35318371D02*
X104975551Y-35270752D01*
X104975551Y-35270752D02*
X105166027Y-35270752D01*
X105166027Y-35270752D02*
X105261265Y-35318371D01*
X105261265Y-35318371D02*
X105308884Y-35365990D01*
X105308884Y-35365990D02*
X105356503Y-35461228D01*
X105356503Y-35461228D02*
X105356503Y-35746942D01*
X105356503Y-35746942D02*
X105308884Y-35842180D01*
X105308884Y-35842180D02*
X105261265Y-35889800D01*
X105261265Y-35889800D02*
X105166027Y-35937419D01*
X105166027Y-35937419D02*
X104975551Y-35937419D01*
X104975551Y-35937419D02*
X104880313Y-35889800D01*
X106213646Y-35270752D02*
X106213646Y-35937419D01*
X105785075Y-35270752D02*
X105785075Y-35794561D01*
X105785075Y-35794561D02*
X105832694Y-35889800D01*
X105832694Y-35889800D02*
X105927932Y-35937419D01*
X105927932Y-35937419D02*
X106070789Y-35937419D01*
X106070789Y-35937419D02*
X106166027Y-35889800D01*
X106166027Y-35889800D02*
X106213646Y-35842180D01*
X106546980Y-35270752D02*
X106927932Y-35270752D01*
X106689837Y-34937419D02*
X106689837Y-35794561D01*
X106689837Y-35794561D02*
X106737456Y-35889800D01*
X106737456Y-35889800D02*
X106832694Y-35937419D01*
X106832694Y-35937419D02*
X106927932Y-35937419D01*
D10*
X75040961Y-38216315D02*
X75040961Y-37949648D01*
X75574295Y-38116315D02*
X74888580Y-38116315D01*
X74888580Y-38116315D02*
X74812390Y-38082982D01*
X74812390Y-38082982D02*
X74774295Y-38016315D01*
X74774295Y-38016315D02*
X74774295Y-37949648D01*
X75574295Y-37716315D02*
X75040961Y-37716315D01*
X74774295Y-37716315D02*
X74812390Y-37749648D01*
X74812390Y-37749648D02*
X74850485Y-37716315D01*
X74850485Y-37716315D02*
X74812390Y-37682982D01*
X74812390Y-37682982D02*
X74774295Y-37716315D01*
X74774295Y-37716315D02*
X74850485Y-37716315D01*
X75040961Y-37382982D02*
X75574295Y-37382982D01*
X75117152Y-37382982D02*
X75079057Y-37349649D01*
X75079057Y-37349649D02*
X75040961Y-37282982D01*
X75040961Y-37282982D02*
X75040961Y-37182982D01*
X75040961Y-37182982D02*
X75079057Y-37116315D01*
X75079057Y-37116315D02*
X75155247Y-37082982D01*
X75155247Y-37082982D02*
X75574295Y-37082982D01*
X86300961Y-38636316D02*
X87100961Y-38636316D01*
X86339057Y-38636316D02*
X86300961Y-38569649D01*
X86300961Y-38569649D02*
X86300961Y-38436316D01*
X86300961Y-38436316D02*
X86339057Y-38369649D01*
X86339057Y-38369649D02*
X86377152Y-38336316D01*
X86377152Y-38336316D02*
X86453342Y-38302983D01*
X86453342Y-38302983D02*
X86681914Y-38302983D01*
X86681914Y-38302983D02*
X86758104Y-38336316D01*
X86758104Y-38336316D02*
X86796200Y-38369649D01*
X86796200Y-38369649D02*
X86834295Y-38436316D01*
X86834295Y-38436316D02*
X86834295Y-38569649D01*
X86834295Y-38569649D02*
X86796200Y-38636316D01*
X86834295Y-37902983D02*
X86796200Y-37969650D01*
X86796200Y-37969650D02*
X86758104Y-38002983D01*
X86758104Y-38002983D02*
X86681914Y-38036316D01*
X86681914Y-38036316D02*
X86453342Y-38036316D01*
X86453342Y-38036316D02*
X86377152Y-38002983D01*
X86377152Y-38002983D02*
X86339057Y-37969650D01*
X86339057Y-37969650D02*
X86300961Y-37902983D01*
X86300961Y-37902983D02*
X86300961Y-37802983D01*
X86300961Y-37802983D02*
X86339057Y-37736316D01*
X86339057Y-37736316D02*
X86377152Y-37702983D01*
X86377152Y-37702983D02*
X86453342Y-37669650D01*
X86453342Y-37669650D02*
X86681914Y-37669650D01*
X86681914Y-37669650D02*
X86758104Y-37702983D01*
X86758104Y-37702983D02*
X86796200Y-37736316D01*
X86796200Y-37736316D02*
X86834295Y-37802983D01*
X86834295Y-37802983D02*
X86834295Y-37902983D01*
X86300961Y-37469650D02*
X86300961Y-37202983D01*
X86034295Y-37369650D02*
X86720009Y-37369650D01*
X86720009Y-37369650D02*
X86796200Y-37336317D01*
X86796200Y-37336317D02*
X86834295Y-37269650D01*
X86834295Y-37269650D02*
X86834295Y-37202983D01*
D11*
X51747932Y-35937419D02*
X51747932Y-34937419D01*
X52224122Y-35270752D02*
X52224122Y-35937419D01*
X52224122Y-35365990D02*
X52271741Y-35318371D01*
X52271741Y-35318371D02*
X52366979Y-35270752D01*
X52366979Y-35270752D02*
X52509836Y-35270752D01*
X52509836Y-35270752D02*
X52605074Y-35318371D01*
X52605074Y-35318371D02*
X52652693Y-35413609D01*
X52652693Y-35413609D02*
X52652693Y-35937419D01*
X53128884Y-35270752D02*
X53128884Y-36270752D01*
X53128884Y-35318371D02*
X53224122Y-35270752D01*
X53224122Y-35270752D02*
X53414598Y-35270752D01*
X53414598Y-35270752D02*
X53509836Y-35318371D01*
X53509836Y-35318371D02*
X53557455Y-35365990D01*
X53557455Y-35365990D02*
X53605074Y-35461228D01*
X53605074Y-35461228D02*
X53605074Y-35746942D01*
X53605074Y-35746942D02*
X53557455Y-35842180D01*
X53557455Y-35842180D02*
X53509836Y-35889800D01*
X53509836Y-35889800D02*
X53414598Y-35937419D01*
X53414598Y-35937419D02*
X53224122Y-35937419D01*
X53224122Y-35937419D02*
X53128884Y-35889800D01*
X54462217Y-35270752D02*
X54462217Y-35937419D01*
X54033646Y-35270752D02*
X54033646Y-35794561D01*
X54033646Y-35794561D02*
X54081265Y-35889800D01*
X54081265Y-35889800D02*
X54176503Y-35937419D01*
X54176503Y-35937419D02*
X54319360Y-35937419D01*
X54319360Y-35937419D02*
X54414598Y-35889800D01*
X54414598Y-35889800D02*
X54462217Y-35842180D01*
X54795551Y-35270752D02*
X55176503Y-35270752D01*
X54938408Y-34937419D02*
X54938408Y-35794561D01*
X54938408Y-35794561D02*
X54986027Y-35889800D01*
X54986027Y-35889800D02*
X55081265Y-35937419D01*
X55081265Y-35937419D02*
X55176503Y-35937419D01*
D10*
X77580961Y-38916315D02*
X77580961Y-38649648D01*
X78114295Y-38816315D02*
X77428580Y-38816315D01*
X77428580Y-38816315D02*
X77352390Y-38782982D01*
X77352390Y-38782982D02*
X77314295Y-38716315D01*
X77314295Y-38716315D02*
X77314295Y-38649648D01*
X78114295Y-38316315D02*
X78076200Y-38382982D01*
X78076200Y-38382982D02*
X78038104Y-38416315D01*
X78038104Y-38416315D02*
X77961914Y-38449648D01*
X77961914Y-38449648D02*
X77733342Y-38449648D01*
X77733342Y-38449648D02*
X77657152Y-38416315D01*
X77657152Y-38416315D02*
X77619057Y-38382982D01*
X77619057Y-38382982D02*
X77580961Y-38316315D01*
X77580961Y-38316315D02*
X77580961Y-38216315D01*
X77580961Y-38216315D02*
X77619057Y-38149648D01*
X77619057Y-38149648D02*
X77657152Y-38116315D01*
X77657152Y-38116315D02*
X77733342Y-38082982D01*
X77733342Y-38082982D02*
X77961914Y-38082982D01*
X77961914Y-38082982D02*
X78038104Y-38116315D01*
X78038104Y-38116315D02*
X78076200Y-38149648D01*
X78076200Y-38149648D02*
X78114295Y-38216315D01*
X78114295Y-38216315D02*
X78114295Y-38316315D01*
X77580961Y-37482982D02*
X78114295Y-37482982D01*
X77580961Y-37782982D02*
X78000009Y-37782982D01*
X78000009Y-37782982D02*
X78076200Y-37749649D01*
X78076200Y-37749649D02*
X78114295Y-37682982D01*
X78114295Y-37682982D02*
X78114295Y-37582982D01*
X78114295Y-37582982D02*
X78076200Y-37516315D01*
X78076200Y-37516315D02*
X78038104Y-37482982D01*
X77580961Y-37249649D02*
X77580961Y-36982982D01*
X77314295Y-37149649D02*
X78000009Y-37149649D01*
X78000009Y-37149649D02*
X78076200Y-37116316D01*
X78076200Y-37116316D02*
X78114295Y-37049649D01*
X78114295Y-37049649D02*
X78114295Y-36982982D01*
X115089819Y-69310363D02*
X115089819Y-69119887D01*
X115089819Y-69119887D02*
X115042200Y-69024649D01*
X115042200Y-69024649D02*
X114994580Y-68977030D01*
X114994580Y-68977030D02*
X114851723Y-68881792D01*
X114851723Y-68881792D02*
X114661247Y-68834173D01*
X114661247Y-68834173D02*
X114280295Y-68834173D01*
X114280295Y-68834173D02*
X114185057Y-68881792D01*
X114185057Y-68881792D02*
X114137438Y-68929411D01*
X114137438Y-68929411D02*
X114089819Y-69024649D01*
X114089819Y-69024649D02*
X114089819Y-69215125D01*
X114089819Y-69215125D02*
X114137438Y-69310363D01*
X114137438Y-69310363D02*
X114185057Y-69357982D01*
X114185057Y-69357982D02*
X114280295Y-69405601D01*
X114280295Y-69405601D02*
X114518390Y-69405601D01*
X114518390Y-69405601D02*
X114613628Y-69357982D01*
X114613628Y-69357982D02*
X114661247Y-69310363D01*
X114661247Y-69310363D02*
X114708866Y-69215125D01*
X114708866Y-69215125D02*
X114708866Y-69024649D01*
X114708866Y-69024649D02*
X114661247Y-68929411D01*
X114661247Y-68929411D02*
X114613628Y-68881792D01*
X114613628Y-68881792D02*
X114518390Y-68834173D01*
X114089819Y-68548458D02*
X115089819Y-68215125D01*
X115089819Y-68215125D02*
X114089819Y-67881792D01*
X80654295Y-38316316D02*
X80654295Y-38649649D01*
X80654295Y-38649649D02*
X79854295Y-38649649D01*
X80235247Y-38082982D02*
X80235247Y-37849649D01*
X80654295Y-37749649D02*
X80654295Y-38082982D01*
X80654295Y-38082982D02*
X79854295Y-38082982D01*
X79854295Y-38082982D02*
X79854295Y-37749649D01*
X80654295Y-37449649D02*
X79854295Y-37449649D01*
X79854295Y-37449649D02*
X79854295Y-37282982D01*
X79854295Y-37282982D02*
X79892390Y-37182982D01*
X79892390Y-37182982D02*
X79968580Y-37116316D01*
X79968580Y-37116316D02*
X80044771Y-37082982D01*
X80044771Y-37082982D02*
X80197152Y-37049649D01*
X80197152Y-37049649D02*
X80311438Y-37049649D01*
X80311438Y-37049649D02*
X80463819Y-37082982D01*
X80463819Y-37082982D02*
X80540009Y-37116316D01*
X80540009Y-37116316D02*
X80616200Y-37182982D01*
X80616200Y-37182982D02*
X80654295Y-37282982D01*
X80654295Y-37282982D02*
X80654295Y-37449649D01*
X107041905Y-60699819D02*
X107041905Y-59699819D01*
X107041905Y-59699819D02*
X107280000Y-59699819D01*
X107280000Y-59699819D02*
X107422857Y-59747438D01*
X107422857Y-59747438D02*
X107518095Y-59842676D01*
X107518095Y-59842676D02*
X107565714Y-59937914D01*
X107565714Y-59937914D02*
X107613333Y-60128390D01*
X107613333Y-60128390D02*
X107613333Y-60271247D01*
X107613333Y-60271247D02*
X107565714Y-60461723D01*
X107565714Y-60461723D02*
X107518095Y-60556961D01*
X107518095Y-60556961D02*
X107422857Y-60652200D01*
X107422857Y-60652200D02*
X107280000Y-60699819D01*
X107280000Y-60699819D02*
X107041905Y-60699819D01*
X108565714Y-60699819D02*
X107994286Y-60699819D01*
X108280000Y-60699819D02*
X108280000Y-59699819D01*
X108280000Y-59699819D02*
X108184762Y-59842676D01*
X108184762Y-59842676D02*
X108089524Y-59937914D01*
X108089524Y-59937914D02*
X107994286Y-59985533D01*
X103708095Y-58799819D02*
X103708095Y-57799819D01*
X104279523Y-58799819D02*
X103850952Y-58228390D01*
X104279523Y-57799819D02*
X103708095Y-58371247D01*
X63413333Y-96484580D02*
X63365714Y-96532200D01*
X63365714Y-96532200D02*
X63222857Y-96579819D01*
X63222857Y-96579819D02*
X63127619Y-96579819D01*
X63127619Y-96579819D02*
X62984762Y-96532200D01*
X62984762Y-96532200D02*
X62889524Y-96436961D01*
X62889524Y-96436961D02*
X62841905Y-96341723D01*
X62841905Y-96341723D02*
X62794286Y-96151247D01*
X62794286Y-96151247D02*
X62794286Y-96008390D01*
X62794286Y-96008390D02*
X62841905Y-95817914D01*
X62841905Y-95817914D02*
X62889524Y-95722676D01*
X62889524Y-95722676D02*
X62984762Y-95627438D01*
X62984762Y-95627438D02*
X63127619Y-95579819D01*
X63127619Y-95579819D02*
X63222857Y-95579819D01*
X63222857Y-95579819D02*
X63365714Y-95627438D01*
X63365714Y-95627438D02*
X63413333Y-95675057D01*
X63889524Y-96579819D02*
X64080000Y-96579819D01*
X64080000Y-96579819D02*
X64175238Y-96532200D01*
X64175238Y-96532200D02*
X64222857Y-96484580D01*
X64222857Y-96484580D02*
X64318095Y-96341723D01*
X64318095Y-96341723D02*
X64365714Y-96151247D01*
X64365714Y-96151247D02*
X64365714Y-95770295D01*
X64365714Y-95770295D02*
X64318095Y-95675057D01*
X64318095Y-95675057D02*
X64270476Y-95627438D01*
X64270476Y-95627438D02*
X64175238Y-95579819D01*
X64175238Y-95579819D02*
X63984762Y-95579819D01*
X63984762Y-95579819D02*
X63889524Y-95627438D01*
X63889524Y-95627438D02*
X63841905Y-95675057D01*
X63841905Y-95675057D02*
X63794286Y-95770295D01*
X63794286Y-95770295D02*
X63794286Y-96008390D01*
X63794286Y-96008390D02*
X63841905Y-96103628D01*
X63841905Y-96103628D02*
X63889524Y-96151247D01*
X63889524Y-96151247D02*
X63984762Y-96198866D01*
X63984762Y-96198866D02*
X64175238Y-96198866D01*
X64175238Y-96198866D02*
X64270476Y-96151247D01*
X64270476Y-96151247D02*
X64318095Y-96103628D01*
X64318095Y-96103628D02*
X64365714Y-96008390D01*
X47114819Y-70470238D02*
X46638628Y-70803571D01*
X47114819Y-71041666D02*
X46114819Y-71041666D01*
X46114819Y-71041666D02*
X46114819Y-70660714D01*
X46114819Y-70660714D02*
X46162438Y-70565476D01*
X46162438Y-70565476D02*
X46210057Y-70517857D01*
X46210057Y-70517857D02*
X46305295Y-70470238D01*
X46305295Y-70470238D02*
X46448152Y-70470238D01*
X46448152Y-70470238D02*
X46543390Y-70517857D01*
X46543390Y-70517857D02*
X46591009Y-70565476D01*
X46591009Y-70565476D02*
X46638628Y-70660714D01*
X46638628Y-70660714D02*
X46638628Y-71041666D01*
X46114819Y-70184523D02*
X47114819Y-69851190D01*
X47114819Y-69851190D02*
X46114819Y-69517857D01*
X46210057Y-69232142D02*
X46162438Y-69184523D01*
X46162438Y-69184523D02*
X46114819Y-69089285D01*
X46114819Y-69089285D02*
X46114819Y-68851190D01*
X46114819Y-68851190D02*
X46162438Y-68755952D01*
X46162438Y-68755952D02*
X46210057Y-68708333D01*
X46210057Y-68708333D02*
X46305295Y-68660714D01*
X46305295Y-68660714D02*
X46400533Y-68660714D01*
X46400533Y-68660714D02*
X46543390Y-68708333D01*
X46543390Y-68708333D02*
X47114819Y-69279761D01*
X47114819Y-69279761D02*
X47114819Y-68660714D01*
X63413333Y-60704580D02*
X63365714Y-60752200D01*
X63365714Y-60752200D02*
X63222857Y-60799819D01*
X63222857Y-60799819D02*
X63127619Y-60799819D01*
X63127619Y-60799819D02*
X62984762Y-60752200D01*
X62984762Y-60752200D02*
X62889524Y-60656961D01*
X62889524Y-60656961D02*
X62841905Y-60561723D01*
X62841905Y-60561723D02*
X62794286Y-60371247D01*
X62794286Y-60371247D02*
X62794286Y-60228390D01*
X62794286Y-60228390D02*
X62841905Y-60037914D01*
X62841905Y-60037914D02*
X62889524Y-59942676D01*
X62889524Y-59942676D02*
X62984762Y-59847438D01*
X62984762Y-59847438D02*
X63127619Y-59799819D01*
X63127619Y-59799819D02*
X63222857Y-59799819D01*
X63222857Y-59799819D02*
X63365714Y-59847438D01*
X63365714Y-59847438D02*
X63413333Y-59895057D01*
X64318095Y-59799819D02*
X63841905Y-59799819D01*
X63841905Y-59799819D02*
X63794286Y-60276009D01*
X63794286Y-60276009D02*
X63841905Y-60228390D01*
X63841905Y-60228390D02*
X63937143Y-60180771D01*
X63937143Y-60180771D02*
X64175238Y-60180771D01*
X64175238Y-60180771D02*
X64270476Y-60228390D01*
X64270476Y-60228390D02*
X64318095Y-60276009D01*
X64318095Y-60276009D02*
X64365714Y-60371247D01*
X64365714Y-60371247D02*
X64365714Y-60609342D01*
X64365714Y-60609342D02*
X64318095Y-60704580D01*
X64318095Y-60704580D02*
X64270476Y-60752200D01*
X64270476Y-60752200D02*
X64175238Y-60799819D01*
X64175238Y-60799819D02*
X63937143Y-60799819D01*
X63937143Y-60799819D02*
X63841905Y-60752200D01*
X63841905Y-60752200D02*
X63794286Y-60704580D01*
X110913333Y-81734580D02*
X110865714Y-81782200D01*
X110865714Y-81782200D02*
X110722857Y-81829819D01*
X110722857Y-81829819D02*
X110627619Y-81829819D01*
X110627619Y-81829819D02*
X110484762Y-81782200D01*
X110484762Y-81782200D02*
X110389524Y-81686961D01*
X110389524Y-81686961D02*
X110341905Y-81591723D01*
X110341905Y-81591723D02*
X110294286Y-81401247D01*
X110294286Y-81401247D02*
X110294286Y-81258390D01*
X110294286Y-81258390D02*
X110341905Y-81067914D01*
X110341905Y-81067914D02*
X110389524Y-80972676D01*
X110389524Y-80972676D02*
X110484762Y-80877438D01*
X110484762Y-80877438D02*
X110627619Y-80829819D01*
X110627619Y-80829819D02*
X110722857Y-80829819D01*
X110722857Y-80829819D02*
X110865714Y-80877438D01*
X110865714Y-80877438D02*
X110913333Y-80925057D01*
X111246667Y-80829819D02*
X111913333Y-80829819D01*
X111913333Y-80829819D02*
X111484762Y-81829819D01*
X94663333Y-60719819D02*
X94330000Y-60243628D01*
X94091905Y-60719819D02*
X94091905Y-59719819D01*
X94091905Y-59719819D02*
X94472857Y-59719819D01*
X94472857Y-59719819D02*
X94568095Y-59767438D01*
X94568095Y-59767438D02*
X94615714Y-59815057D01*
X94615714Y-59815057D02*
X94663333Y-59910295D01*
X94663333Y-59910295D02*
X94663333Y-60053152D01*
X94663333Y-60053152D02*
X94615714Y-60148390D01*
X94615714Y-60148390D02*
X94568095Y-60196009D01*
X94568095Y-60196009D02*
X94472857Y-60243628D01*
X94472857Y-60243628D02*
X94091905Y-60243628D01*
X95520476Y-59719819D02*
X95330000Y-59719819D01*
X95330000Y-59719819D02*
X95234762Y-59767438D01*
X95234762Y-59767438D02*
X95187143Y-59815057D01*
X95187143Y-59815057D02*
X95091905Y-59957914D01*
X95091905Y-59957914D02*
X95044286Y-60148390D01*
X95044286Y-60148390D02*
X95044286Y-60529342D01*
X95044286Y-60529342D02*
X95091905Y-60624580D01*
X95091905Y-60624580D02*
X95139524Y-60672200D01*
X95139524Y-60672200D02*
X95234762Y-60719819D01*
X95234762Y-60719819D02*
X95425238Y-60719819D01*
X95425238Y-60719819D02*
X95520476Y-60672200D01*
X95520476Y-60672200D02*
X95568095Y-60624580D01*
X95568095Y-60624580D02*
X95615714Y-60529342D01*
X95615714Y-60529342D02*
X95615714Y-60291247D01*
X95615714Y-60291247D02*
X95568095Y-60196009D01*
X95568095Y-60196009D02*
X95520476Y-60148390D01*
X95520476Y-60148390D02*
X95425238Y-60100771D01*
X95425238Y-60100771D02*
X95234762Y-60100771D01*
X95234762Y-60100771D02*
X95139524Y-60148390D01*
X95139524Y-60148390D02*
X95091905Y-60196009D01*
X95091905Y-60196009D02*
X95044286Y-60291247D01*
X91368095Y-71829819D02*
X91368095Y-72639342D01*
X91368095Y-72639342D02*
X91415714Y-72734580D01*
X91415714Y-72734580D02*
X91463333Y-72782200D01*
X91463333Y-72782200D02*
X91558571Y-72829819D01*
X91558571Y-72829819D02*
X91749047Y-72829819D01*
X91749047Y-72829819D02*
X91844285Y-72782200D01*
X91844285Y-72782200D02*
X91891904Y-72734580D01*
X91891904Y-72734580D02*
X91939523Y-72639342D01*
X91939523Y-72639342D02*
X91939523Y-71829819D01*
X92368095Y-71925057D02*
X92415714Y-71877438D01*
X92415714Y-71877438D02*
X92510952Y-71829819D01*
X92510952Y-71829819D02*
X92749047Y-71829819D01*
X92749047Y-71829819D02*
X92844285Y-71877438D01*
X92844285Y-71877438D02*
X92891904Y-71925057D01*
X92891904Y-71925057D02*
X92939523Y-72020295D01*
X92939523Y-72020295D02*
X92939523Y-72115533D01*
X92939523Y-72115533D02*
X92891904Y-72258390D01*
X92891904Y-72258390D02*
X92320476Y-72829819D01*
X92320476Y-72829819D02*
X92939523Y-72829819D01*
X104221666Y-46639819D02*
X104221666Y-47354104D01*
X104221666Y-47354104D02*
X104174047Y-47496961D01*
X104174047Y-47496961D02*
X104078809Y-47592200D01*
X104078809Y-47592200D02*
X103935952Y-47639819D01*
X103935952Y-47639819D02*
X103840714Y-47639819D01*
X104602619Y-46639819D02*
X105221666Y-46639819D01*
X105221666Y-46639819D02*
X104888333Y-47020771D01*
X104888333Y-47020771D02*
X105031190Y-47020771D01*
X105031190Y-47020771D02*
X105126428Y-47068390D01*
X105126428Y-47068390D02*
X105174047Y-47116009D01*
X105174047Y-47116009D02*
X105221666Y-47211247D01*
X105221666Y-47211247D02*
X105221666Y-47449342D01*
X105221666Y-47449342D02*
X105174047Y-47544580D01*
X105174047Y-47544580D02*
X105126428Y-47592200D01*
X105126428Y-47592200D02*
X105031190Y-47639819D01*
X105031190Y-47639819D02*
X104745476Y-47639819D01*
X104745476Y-47639819D02*
X104650238Y-47592200D01*
X104650238Y-47592200D02*
X104602619Y-47544580D01*
X52604819Y-73631666D02*
X52128628Y-73964999D01*
X52604819Y-74203094D02*
X51604819Y-74203094D01*
X51604819Y-74203094D02*
X51604819Y-73822142D01*
X51604819Y-73822142D02*
X51652438Y-73726904D01*
X51652438Y-73726904D02*
X51700057Y-73679285D01*
X51700057Y-73679285D02*
X51795295Y-73631666D01*
X51795295Y-73631666D02*
X51938152Y-73631666D01*
X51938152Y-73631666D02*
X52033390Y-73679285D01*
X52033390Y-73679285D02*
X52081009Y-73726904D01*
X52081009Y-73726904D02*
X52128628Y-73822142D01*
X52128628Y-73822142D02*
X52128628Y-74203094D01*
X51700057Y-73250713D02*
X51652438Y-73203094D01*
X51652438Y-73203094D02*
X51604819Y-73107856D01*
X51604819Y-73107856D02*
X51604819Y-72869761D01*
X51604819Y-72869761D02*
X51652438Y-72774523D01*
X51652438Y-72774523D02*
X51700057Y-72726904D01*
X51700057Y-72726904D02*
X51795295Y-72679285D01*
X51795295Y-72679285D02*
X51890533Y-72679285D01*
X51890533Y-72679285D02*
X52033390Y-72726904D01*
X52033390Y-72726904D02*
X52604819Y-73298332D01*
X52604819Y-73298332D02*
X52604819Y-72679285D01*
X106636666Y-68219819D02*
X106636666Y-68934104D01*
X106636666Y-68934104D02*
X106589047Y-69076961D01*
X106589047Y-69076961D02*
X106493809Y-69172200D01*
X106493809Y-69172200D02*
X106350952Y-69219819D01*
X106350952Y-69219819D02*
X106255714Y-69219819D01*
X107636666Y-69219819D02*
X107065238Y-69219819D01*
X107350952Y-69219819D02*
X107350952Y-68219819D01*
X107350952Y-68219819D02*
X107255714Y-68362676D01*
X107255714Y-68362676D02*
X107160476Y-68457914D01*
X107160476Y-68457914D02*
X107065238Y-68505533D01*
X47114819Y-61780238D02*
X46638628Y-62113571D01*
X47114819Y-62351666D02*
X46114819Y-62351666D01*
X46114819Y-62351666D02*
X46114819Y-61970714D01*
X46114819Y-61970714D02*
X46162438Y-61875476D01*
X46162438Y-61875476D02*
X46210057Y-61827857D01*
X46210057Y-61827857D02*
X46305295Y-61780238D01*
X46305295Y-61780238D02*
X46448152Y-61780238D01*
X46448152Y-61780238D02*
X46543390Y-61827857D01*
X46543390Y-61827857D02*
X46591009Y-61875476D01*
X46591009Y-61875476D02*
X46638628Y-61970714D01*
X46638628Y-61970714D02*
X46638628Y-62351666D01*
X46114819Y-61494523D02*
X47114819Y-61161190D01*
X47114819Y-61161190D02*
X46114819Y-60827857D01*
X47114819Y-59970714D02*
X47114819Y-60542142D01*
X47114819Y-60256428D02*
X46114819Y-60256428D01*
X46114819Y-60256428D02*
X46257676Y-60351666D01*
X46257676Y-60351666D02*
X46352914Y-60446904D01*
X46352914Y-60446904D02*
X46400533Y-60542142D01*
X56379580Y-83321666D02*
X56427200Y-83369285D01*
X56427200Y-83369285D02*
X56474819Y-83512142D01*
X56474819Y-83512142D02*
X56474819Y-83607380D01*
X56474819Y-83607380D02*
X56427200Y-83750237D01*
X56427200Y-83750237D02*
X56331961Y-83845475D01*
X56331961Y-83845475D02*
X56236723Y-83893094D01*
X56236723Y-83893094D02*
X56046247Y-83940713D01*
X56046247Y-83940713D02*
X55903390Y-83940713D01*
X55903390Y-83940713D02*
X55712914Y-83893094D01*
X55712914Y-83893094D02*
X55617676Y-83845475D01*
X55617676Y-83845475D02*
X55522438Y-83750237D01*
X55522438Y-83750237D02*
X55474819Y-83607380D01*
X55474819Y-83607380D02*
X55474819Y-83512142D01*
X55474819Y-83512142D02*
X55522438Y-83369285D01*
X55522438Y-83369285D02*
X55570057Y-83321666D01*
X55474819Y-82464523D02*
X55474819Y-82654999D01*
X55474819Y-82654999D02*
X55522438Y-82750237D01*
X55522438Y-82750237D02*
X55570057Y-82797856D01*
X55570057Y-82797856D02*
X55712914Y-82893094D01*
X55712914Y-82893094D02*
X55903390Y-82940713D01*
X55903390Y-82940713D02*
X56284342Y-82940713D01*
X56284342Y-82940713D02*
X56379580Y-82893094D01*
X56379580Y-82893094D02*
X56427200Y-82845475D01*
X56427200Y-82845475D02*
X56474819Y-82750237D01*
X56474819Y-82750237D02*
X56474819Y-82559761D01*
X56474819Y-82559761D02*
X56427200Y-82464523D01*
X56427200Y-82464523D02*
X56379580Y-82416904D01*
X56379580Y-82416904D02*
X56284342Y-82369285D01*
X56284342Y-82369285D02*
X56046247Y-82369285D01*
X56046247Y-82369285D02*
X55951009Y-82416904D01*
X55951009Y-82416904D02*
X55903390Y-82464523D01*
X55903390Y-82464523D02*
X55855771Y-82559761D01*
X55855771Y-82559761D02*
X55855771Y-82750237D01*
X55855771Y-82750237D02*
X55903390Y-82845475D01*
X55903390Y-82845475D02*
X55951009Y-82893094D01*
X55951009Y-82893094D02*
X56046247Y-82940713D01*
X94663333Y-75719819D02*
X94330000Y-75243628D01*
X94091905Y-75719819D02*
X94091905Y-74719819D01*
X94091905Y-74719819D02*
X94472857Y-74719819D01*
X94472857Y-74719819D02*
X94568095Y-74767438D01*
X94568095Y-74767438D02*
X94615714Y-74815057D01*
X94615714Y-74815057D02*
X94663333Y-74910295D01*
X94663333Y-74910295D02*
X94663333Y-75053152D01*
X94663333Y-75053152D02*
X94615714Y-75148390D01*
X94615714Y-75148390D02*
X94568095Y-75196009D01*
X94568095Y-75196009D02*
X94472857Y-75243628D01*
X94472857Y-75243628D02*
X94091905Y-75243628D01*
X94996667Y-74719819D02*
X95663333Y-74719819D01*
X95663333Y-74719819D02*
X95234762Y-75719819D01*
X56474819Y-73631666D02*
X55998628Y-73964999D01*
X56474819Y-74203094D02*
X55474819Y-74203094D01*
X55474819Y-74203094D02*
X55474819Y-73822142D01*
X55474819Y-73822142D02*
X55522438Y-73726904D01*
X55522438Y-73726904D02*
X55570057Y-73679285D01*
X55570057Y-73679285D02*
X55665295Y-73631666D01*
X55665295Y-73631666D02*
X55808152Y-73631666D01*
X55808152Y-73631666D02*
X55903390Y-73679285D01*
X55903390Y-73679285D02*
X55951009Y-73726904D01*
X55951009Y-73726904D02*
X55998628Y-73822142D01*
X55998628Y-73822142D02*
X55998628Y-74203094D01*
X56474819Y-72679285D02*
X56474819Y-73250713D01*
X56474819Y-72964999D02*
X55474819Y-72964999D01*
X55474819Y-72964999D02*
X55617676Y-73060237D01*
X55617676Y-73060237D02*
X55712914Y-73155475D01*
X55712914Y-73155475D02*
X55760533Y-73250713D01*
X94663333Y-65139819D02*
X94330000Y-64663628D01*
X94091905Y-65139819D02*
X94091905Y-64139819D01*
X94091905Y-64139819D02*
X94472857Y-64139819D01*
X94472857Y-64139819D02*
X94568095Y-64187438D01*
X94568095Y-64187438D02*
X94615714Y-64235057D01*
X94615714Y-64235057D02*
X94663333Y-64330295D01*
X94663333Y-64330295D02*
X94663333Y-64473152D01*
X94663333Y-64473152D02*
X94615714Y-64568390D01*
X94615714Y-64568390D02*
X94568095Y-64616009D01*
X94568095Y-64616009D02*
X94472857Y-64663628D01*
X94472857Y-64663628D02*
X94091905Y-64663628D01*
X95568095Y-64139819D02*
X95091905Y-64139819D01*
X95091905Y-64139819D02*
X95044286Y-64616009D01*
X95044286Y-64616009D02*
X95091905Y-64568390D01*
X95091905Y-64568390D02*
X95187143Y-64520771D01*
X95187143Y-64520771D02*
X95425238Y-64520771D01*
X95425238Y-64520771D02*
X95520476Y-64568390D01*
X95520476Y-64568390D02*
X95568095Y-64616009D01*
X95568095Y-64616009D02*
X95615714Y-64711247D01*
X95615714Y-64711247D02*
X95615714Y-64949342D01*
X95615714Y-64949342D02*
X95568095Y-65044580D01*
X95568095Y-65044580D02*
X95520476Y-65092200D01*
X95520476Y-65092200D02*
X95425238Y-65139819D01*
X95425238Y-65139819D02*
X95187143Y-65139819D01*
X95187143Y-65139819D02*
X95091905Y-65092200D01*
X95091905Y-65092200D02*
X95044286Y-65044580D01*
X56976667Y-101642200D02*
X57119524Y-101689819D01*
X57119524Y-101689819D02*
X57357619Y-101689819D01*
X57357619Y-101689819D02*
X57452857Y-101642200D01*
X57452857Y-101642200D02*
X57500476Y-101594580D01*
X57500476Y-101594580D02*
X57548095Y-101499342D01*
X57548095Y-101499342D02*
X57548095Y-101404104D01*
X57548095Y-101404104D02*
X57500476Y-101308866D01*
X57500476Y-101308866D02*
X57452857Y-101261247D01*
X57452857Y-101261247D02*
X57357619Y-101213628D01*
X57357619Y-101213628D02*
X57167143Y-101166009D01*
X57167143Y-101166009D02*
X57071905Y-101118390D01*
X57071905Y-101118390D02*
X57024286Y-101070771D01*
X57024286Y-101070771D02*
X56976667Y-100975533D01*
X56976667Y-100975533D02*
X56976667Y-100880295D01*
X56976667Y-100880295D02*
X57024286Y-100785057D01*
X57024286Y-100785057D02*
X57071905Y-100737438D01*
X57071905Y-100737438D02*
X57167143Y-100689819D01*
X57167143Y-100689819D02*
X57405238Y-100689819D01*
X57405238Y-100689819D02*
X57548095Y-100737438D01*
X57881429Y-100689819D02*
X58119524Y-101689819D01*
X58119524Y-101689819D02*
X58310000Y-100975533D01*
X58310000Y-100975533D02*
X58500476Y-101689819D01*
X58500476Y-101689819D02*
X58738572Y-100689819D01*
X59643333Y-101689819D02*
X59071905Y-101689819D01*
X59357619Y-101689819D02*
X59357619Y-100689819D01*
X59357619Y-100689819D02*
X59262381Y-100832676D01*
X59262381Y-100832676D02*
X59167143Y-100927914D01*
X59167143Y-100927914D02*
X59071905Y-100975533D01*
X64376666Y-34749819D02*
X64376666Y-35464104D01*
X64376666Y-35464104D02*
X64329047Y-35606961D01*
X64329047Y-35606961D02*
X64233809Y-35702200D01*
X64233809Y-35702200D02*
X64090952Y-35749819D01*
X64090952Y-35749819D02*
X63995714Y-35749819D01*
X65281428Y-35083152D02*
X65281428Y-35749819D01*
X65043333Y-34702200D02*
X64805238Y-35416485D01*
X64805238Y-35416485D02*
X65424285Y-35416485D01*
X109043333Y-86109819D02*
X108710000Y-85633628D01*
X108471905Y-86109819D02*
X108471905Y-85109819D01*
X108471905Y-85109819D02*
X108852857Y-85109819D01*
X108852857Y-85109819D02*
X108948095Y-85157438D01*
X108948095Y-85157438D02*
X108995714Y-85205057D01*
X108995714Y-85205057D02*
X109043333Y-85300295D01*
X109043333Y-85300295D02*
X109043333Y-85443152D01*
X109043333Y-85443152D02*
X108995714Y-85538390D01*
X108995714Y-85538390D02*
X108948095Y-85586009D01*
X108948095Y-85586009D02*
X108852857Y-85633628D01*
X108852857Y-85633628D02*
X108471905Y-85633628D01*
X109614762Y-85538390D02*
X109519524Y-85490771D01*
X109519524Y-85490771D02*
X109471905Y-85443152D01*
X109471905Y-85443152D02*
X109424286Y-85347914D01*
X109424286Y-85347914D02*
X109424286Y-85300295D01*
X109424286Y-85300295D02*
X109471905Y-85205057D01*
X109471905Y-85205057D02*
X109519524Y-85157438D01*
X109519524Y-85157438D02*
X109614762Y-85109819D01*
X109614762Y-85109819D02*
X109805238Y-85109819D01*
X109805238Y-85109819D02*
X109900476Y-85157438D01*
X109900476Y-85157438D02*
X109948095Y-85205057D01*
X109948095Y-85205057D02*
X109995714Y-85300295D01*
X109995714Y-85300295D02*
X109995714Y-85347914D01*
X109995714Y-85347914D02*
X109948095Y-85443152D01*
X109948095Y-85443152D02*
X109900476Y-85490771D01*
X109900476Y-85490771D02*
X109805238Y-85538390D01*
X109805238Y-85538390D02*
X109614762Y-85538390D01*
X109614762Y-85538390D02*
X109519524Y-85586009D01*
X109519524Y-85586009D02*
X109471905Y-85633628D01*
X109471905Y-85633628D02*
X109424286Y-85728866D01*
X109424286Y-85728866D02*
X109424286Y-85919342D01*
X109424286Y-85919342D02*
X109471905Y-86014580D01*
X109471905Y-86014580D02*
X109519524Y-86062200D01*
X109519524Y-86062200D02*
X109614762Y-86109819D01*
X109614762Y-86109819D02*
X109805238Y-86109819D01*
X109805238Y-86109819D02*
X109900476Y-86062200D01*
X109900476Y-86062200D02*
X109948095Y-86014580D01*
X109948095Y-86014580D02*
X109995714Y-85919342D01*
X109995714Y-85919342D02*
X109995714Y-85728866D01*
X109995714Y-85728866D02*
X109948095Y-85633628D01*
X109948095Y-85633628D02*
X109900476Y-85586009D01*
X109900476Y-85586009D02*
X109805238Y-85538390D01*
X91386666Y-34699819D02*
X91386666Y-35414104D01*
X91386666Y-35414104D02*
X91339047Y-35556961D01*
X91339047Y-35556961D02*
X91243809Y-35652200D01*
X91243809Y-35652200D02*
X91100952Y-35699819D01*
X91100952Y-35699819D02*
X91005714Y-35699819D01*
X92339047Y-34699819D02*
X91862857Y-34699819D01*
X91862857Y-34699819D02*
X91815238Y-35176009D01*
X91815238Y-35176009D02*
X91862857Y-35128390D01*
X91862857Y-35128390D02*
X91958095Y-35080771D01*
X91958095Y-35080771D02*
X92196190Y-35080771D01*
X92196190Y-35080771D02*
X92291428Y-35128390D01*
X92291428Y-35128390D02*
X92339047Y-35176009D01*
X92339047Y-35176009D02*
X92386666Y-35271247D01*
X92386666Y-35271247D02*
X92386666Y-35509342D01*
X92386666Y-35509342D02*
X92339047Y-35604580D01*
X92339047Y-35604580D02*
X92291428Y-35652200D01*
X92291428Y-35652200D02*
X92196190Y-35699819D01*
X92196190Y-35699819D02*
X91958095Y-35699819D01*
X91958095Y-35699819D02*
X91862857Y-35652200D01*
X91862857Y-35652200D02*
X91815238Y-35604580D01*
X47114819Y-87850238D02*
X46638628Y-88183571D01*
X47114819Y-88421666D02*
X46114819Y-88421666D01*
X46114819Y-88421666D02*
X46114819Y-88040714D01*
X46114819Y-88040714D02*
X46162438Y-87945476D01*
X46162438Y-87945476D02*
X46210057Y-87897857D01*
X46210057Y-87897857D02*
X46305295Y-87850238D01*
X46305295Y-87850238D02*
X46448152Y-87850238D01*
X46448152Y-87850238D02*
X46543390Y-87897857D01*
X46543390Y-87897857D02*
X46591009Y-87945476D01*
X46591009Y-87945476D02*
X46638628Y-88040714D01*
X46638628Y-88040714D02*
X46638628Y-88421666D01*
X46114819Y-87564523D02*
X47114819Y-87231190D01*
X47114819Y-87231190D02*
X46114819Y-86897857D01*
X46448152Y-86135952D02*
X47114819Y-86135952D01*
X46067200Y-86374047D02*
X46781485Y-86612142D01*
X46781485Y-86612142D02*
X46781485Y-85993095D01*
X53041666Y-46639819D02*
X53041666Y-47354104D01*
X53041666Y-47354104D02*
X52994047Y-47496961D01*
X52994047Y-47496961D02*
X52898809Y-47592200D01*
X52898809Y-47592200D02*
X52755952Y-47639819D01*
X52755952Y-47639819D02*
X52660714Y-47639819D01*
X53470238Y-46735057D02*
X53517857Y-46687438D01*
X53517857Y-46687438D02*
X53613095Y-46639819D01*
X53613095Y-46639819D02*
X53851190Y-46639819D01*
X53851190Y-46639819D02*
X53946428Y-46687438D01*
X53946428Y-46687438D02*
X53994047Y-46735057D01*
X53994047Y-46735057D02*
X54041666Y-46830295D01*
X54041666Y-46830295D02*
X54041666Y-46925533D01*
X54041666Y-46925533D02*
X53994047Y-47068390D01*
X53994047Y-47068390D02*
X53422619Y-47639819D01*
X53422619Y-47639819D02*
X54041666Y-47639819D01*
X52604819Y-62831666D02*
X52128628Y-63164999D01*
X52604819Y-63403094D02*
X51604819Y-63403094D01*
X51604819Y-63403094D02*
X51604819Y-63022142D01*
X51604819Y-63022142D02*
X51652438Y-62926904D01*
X51652438Y-62926904D02*
X51700057Y-62879285D01*
X51700057Y-62879285D02*
X51795295Y-62831666D01*
X51795295Y-62831666D02*
X51938152Y-62831666D01*
X51938152Y-62831666D02*
X52033390Y-62879285D01*
X52033390Y-62879285D02*
X52081009Y-62926904D01*
X52081009Y-62926904D02*
X52128628Y-63022142D01*
X52128628Y-63022142D02*
X52128628Y-63403094D01*
X51604819Y-62498332D02*
X51604819Y-61879285D01*
X51604819Y-61879285D02*
X51985771Y-62212618D01*
X51985771Y-62212618D02*
X51985771Y-62069761D01*
X51985771Y-62069761D02*
X52033390Y-61974523D01*
X52033390Y-61974523D02*
X52081009Y-61926904D01*
X52081009Y-61926904D02*
X52176247Y-61879285D01*
X52176247Y-61879285D02*
X52414342Y-61879285D01*
X52414342Y-61879285D02*
X52509580Y-61926904D01*
X52509580Y-61926904D02*
X52557200Y-61974523D01*
X52557200Y-61974523D02*
X52604819Y-62069761D01*
X52604819Y-62069761D02*
X52604819Y-62355475D01*
X52604819Y-62355475D02*
X52557200Y-62450713D01*
X52557200Y-62450713D02*
X52509580Y-62498332D01*
X52509580Y-83321666D02*
X52557200Y-83369285D01*
X52557200Y-83369285D02*
X52604819Y-83512142D01*
X52604819Y-83512142D02*
X52604819Y-83607380D01*
X52604819Y-83607380D02*
X52557200Y-83750237D01*
X52557200Y-83750237D02*
X52461961Y-83845475D01*
X52461961Y-83845475D02*
X52366723Y-83893094D01*
X52366723Y-83893094D02*
X52176247Y-83940713D01*
X52176247Y-83940713D02*
X52033390Y-83940713D01*
X52033390Y-83940713D02*
X51842914Y-83893094D01*
X51842914Y-83893094D02*
X51747676Y-83845475D01*
X51747676Y-83845475D02*
X51652438Y-83750237D01*
X51652438Y-83750237D02*
X51604819Y-83607380D01*
X51604819Y-83607380D02*
X51604819Y-83512142D01*
X51604819Y-83512142D02*
X51652438Y-83369285D01*
X51652438Y-83369285D02*
X51700057Y-83321666D01*
X51938152Y-82464523D02*
X52604819Y-82464523D01*
X51557200Y-82702618D02*
X52271485Y-82940713D01*
X52271485Y-82940713D02*
X52271485Y-82321666D01*
X104373333Y-81734580D02*
X104325714Y-81782200D01*
X104325714Y-81782200D02*
X104182857Y-81829819D01*
X104182857Y-81829819D02*
X104087619Y-81829819D01*
X104087619Y-81829819D02*
X103944762Y-81782200D01*
X103944762Y-81782200D02*
X103849524Y-81686961D01*
X103849524Y-81686961D02*
X103801905Y-81591723D01*
X103801905Y-81591723D02*
X103754286Y-81401247D01*
X103754286Y-81401247D02*
X103754286Y-81258390D01*
X103754286Y-81258390D02*
X103801905Y-81067914D01*
X103801905Y-81067914D02*
X103849524Y-80972676D01*
X103849524Y-80972676D02*
X103944762Y-80877438D01*
X103944762Y-80877438D02*
X104087619Y-80829819D01*
X104087619Y-80829819D02*
X104182857Y-80829819D01*
X104182857Y-80829819D02*
X104325714Y-80877438D01*
X104325714Y-80877438D02*
X104373333Y-80925057D01*
X104706667Y-80829819D02*
X105325714Y-80829819D01*
X105325714Y-80829819D02*
X104992381Y-81210771D01*
X104992381Y-81210771D02*
X105135238Y-81210771D01*
X105135238Y-81210771D02*
X105230476Y-81258390D01*
X105230476Y-81258390D02*
X105278095Y-81306009D01*
X105278095Y-81306009D02*
X105325714Y-81401247D01*
X105325714Y-81401247D02*
X105325714Y-81639342D01*
X105325714Y-81639342D02*
X105278095Y-81734580D01*
X105278095Y-81734580D02*
X105230476Y-81782200D01*
X105230476Y-81782200D02*
X105135238Y-81829819D01*
X105135238Y-81829819D02*
X104849524Y-81829819D01*
X104849524Y-81829819D02*
X104754286Y-81782200D01*
X104754286Y-81782200D02*
X104706667Y-81734580D01*
X94663333Y-80139819D02*
X94330000Y-79663628D01*
X94091905Y-80139819D02*
X94091905Y-79139819D01*
X94091905Y-79139819D02*
X94472857Y-79139819D01*
X94472857Y-79139819D02*
X94568095Y-79187438D01*
X94568095Y-79187438D02*
X94615714Y-79235057D01*
X94615714Y-79235057D02*
X94663333Y-79330295D01*
X94663333Y-79330295D02*
X94663333Y-79473152D01*
X94663333Y-79473152D02*
X94615714Y-79568390D01*
X94615714Y-79568390D02*
X94568095Y-79616009D01*
X94568095Y-79616009D02*
X94472857Y-79663628D01*
X94472857Y-79663628D02*
X94091905Y-79663628D01*
X95139524Y-80139819D02*
X95330000Y-80139819D01*
X95330000Y-80139819D02*
X95425238Y-80092200D01*
X95425238Y-80092200D02*
X95472857Y-80044580D01*
X95472857Y-80044580D02*
X95568095Y-79901723D01*
X95568095Y-79901723D02*
X95615714Y-79711247D01*
X95615714Y-79711247D02*
X95615714Y-79330295D01*
X95615714Y-79330295D02*
X95568095Y-79235057D01*
X95568095Y-79235057D02*
X95520476Y-79187438D01*
X95520476Y-79187438D02*
X95425238Y-79139819D01*
X95425238Y-79139819D02*
X95234762Y-79139819D01*
X95234762Y-79139819D02*
X95139524Y-79187438D01*
X95139524Y-79187438D02*
X95091905Y-79235057D01*
X95091905Y-79235057D02*
X95044286Y-79330295D01*
X95044286Y-79330295D02*
X95044286Y-79568390D01*
X95044286Y-79568390D02*
X95091905Y-79663628D01*
X95091905Y-79663628D02*
X95139524Y-79711247D01*
X95139524Y-79711247D02*
X95234762Y-79758866D01*
X95234762Y-79758866D02*
X95425238Y-79758866D01*
X95425238Y-79758866D02*
X95520476Y-79711247D01*
X95520476Y-79711247D02*
X95568095Y-79663628D01*
X95568095Y-79663628D02*
X95615714Y-79568390D01*
X63413333Y-71064580D02*
X63365714Y-71112200D01*
X63365714Y-71112200D02*
X63222857Y-71159819D01*
X63222857Y-71159819D02*
X63127619Y-71159819D01*
X63127619Y-71159819D02*
X62984762Y-71112200D01*
X62984762Y-71112200D02*
X62889524Y-71016961D01*
X62889524Y-71016961D02*
X62841905Y-70921723D01*
X62841905Y-70921723D02*
X62794286Y-70731247D01*
X62794286Y-70731247D02*
X62794286Y-70588390D01*
X62794286Y-70588390D02*
X62841905Y-70397914D01*
X62841905Y-70397914D02*
X62889524Y-70302676D01*
X62889524Y-70302676D02*
X62984762Y-70207438D01*
X62984762Y-70207438D02*
X63127619Y-70159819D01*
X63127619Y-70159819D02*
X63222857Y-70159819D01*
X63222857Y-70159819D02*
X63365714Y-70207438D01*
X63365714Y-70207438D02*
X63413333Y-70255057D01*
X64365714Y-71159819D02*
X63794286Y-71159819D01*
X64080000Y-71159819D02*
X64080000Y-70159819D01*
X64080000Y-70159819D02*
X63984762Y-70302676D01*
X63984762Y-70302676D02*
X63889524Y-70397914D01*
X63889524Y-70397914D02*
X63794286Y-70445533D01*
X63413333Y-66384580D02*
X63365714Y-66432200D01*
X63365714Y-66432200D02*
X63222857Y-66479819D01*
X63222857Y-66479819D02*
X63127619Y-66479819D01*
X63127619Y-66479819D02*
X62984762Y-66432200D01*
X62984762Y-66432200D02*
X62889524Y-66336961D01*
X62889524Y-66336961D02*
X62841905Y-66241723D01*
X62841905Y-66241723D02*
X62794286Y-66051247D01*
X62794286Y-66051247D02*
X62794286Y-65908390D01*
X62794286Y-65908390D02*
X62841905Y-65717914D01*
X62841905Y-65717914D02*
X62889524Y-65622676D01*
X62889524Y-65622676D02*
X62984762Y-65527438D01*
X62984762Y-65527438D02*
X63127619Y-65479819D01*
X63127619Y-65479819D02*
X63222857Y-65479819D01*
X63222857Y-65479819D02*
X63365714Y-65527438D01*
X63365714Y-65527438D02*
X63413333Y-65575057D01*
X63794286Y-65575057D02*
X63841905Y-65527438D01*
X63841905Y-65527438D02*
X63937143Y-65479819D01*
X63937143Y-65479819D02*
X64175238Y-65479819D01*
X64175238Y-65479819D02*
X64270476Y-65527438D01*
X64270476Y-65527438D02*
X64318095Y-65575057D01*
X64318095Y-65575057D02*
X64365714Y-65670295D01*
X64365714Y-65670295D02*
X64365714Y-65765533D01*
X64365714Y-65765533D02*
X64318095Y-65908390D01*
X64318095Y-65908390D02*
X63746667Y-66479819D01*
X63746667Y-66479819D02*
X64365714Y-66479819D01*
X62818095Y-77689819D02*
X62818095Y-78499342D01*
X62818095Y-78499342D02*
X62865714Y-78594580D01*
X62865714Y-78594580D02*
X62913333Y-78642200D01*
X62913333Y-78642200D02*
X63008571Y-78689819D01*
X63008571Y-78689819D02*
X63199047Y-78689819D01*
X63199047Y-78689819D02*
X63294285Y-78642200D01*
X63294285Y-78642200D02*
X63341904Y-78594580D01*
X63341904Y-78594580D02*
X63389523Y-78499342D01*
X63389523Y-78499342D02*
X63389523Y-77689819D01*
X64389523Y-78689819D02*
X63818095Y-78689819D01*
X64103809Y-78689819D02*
X64103809Y-77689819D01*
X64103809Y-77689819D02*
X64008571Y-77832676D01*
X64008571Y-77832676D02*
X63913333Y-77927914D01*
X63913333Y-77927914D02*
X63818095Y-77975533D01*
X108281905Y-95729819D02*
X108281905Y-94729819D01*
X108281905Y-94729819D02*
X108520000Y-94729819D01*
X108520000Y-94729819D02*
X108662857Y-94777438D01*
X108662857Y-94777438D02*
X108758095Y-94872676D01*
X108758095Y-94872676D02*
X108805714Y-94967914D01*
X108805714Y-94967914D02*
X108853333Y-95158390D01*
X108853333Y-95158390D02*
X108853333Y-95301247D01*
X108853333Y-95301247D02*
X108805714Y-95491723D01*
X108805714Y-95491723D02*
X108758095Y-95586961D01*
X108758095Y-95586961D02*
X108662857Y-95682200D01*
X108662857Y-95682200D02*
X108520000Y-95729819D01*
X108520000Y-95729819D02*
X108281905Y-95729819D01*
X109234286Y-94825057D02*
X109281905Y-94777438D01*
X109281905Y-94777438D02*
X109377143Y-94729819D01*
X109377143Y-94729819D02*
X109615238Y-94729819D01*
X109615238Y-94729819D02*
X109710476Y-94777438D01*
X109710476Y-94777438D02*
X109758095Y-94825057D01*
X109758095Y-94825057D02*
X109805714Y-94920295D01*
X109805714Y-94920295D02*
X109805714Y-95015533D01*
X109805714Y-95015533D02*
X109758095Y-95158390D01*
X109758095Y-95158390D02*
X109186667Y-95729819D01*
X109186667Y-95729819D02*
X109805714Y-95729819D01*
X63413333Y-86124580D02*
X63365714Y-86172200D01*
X63365714Y-86172200D02*
X63222857Y-86219819D01*
X63222857Y-86219819D02*
X63127619Y-86219819D01*
X63127619Y-86219819D02*
X62984762Y-86172200D01*
X62984762Y-86172200D02*
X62889524Y-86076961D01*
X62889524Y-86076961D02*
X62841905Y-85981723D01*
X62841905Y-85981723D02*
X62794286Y-85791247D01*
X62794286Y-85791247D02*
X62794286Y-85648390D01*
X62794286Y-85648390D02*
X62841905Y-85457914D01*
X62841905Y-85457914D02*
X62889524Y-85362676D01*
X62889524Y-85362676D02*
X62984762Y-85267438D01*
X62984762Y-85267438D02*
X63127619Y-85219819D01*
X63127619Y-85219819D02*
X63222857Y-85219819D01*
X63222857Y-85219819D02*
X63365714Y-85267438D01*
X63365714Y-85267438D02*
X63413333Y-85315057D01*
X63984762Y-85648390D02*
X63889524Y-85600771D01*
X63889524Y-85600771D02*
X63841905Y-85553152D01*
X63841905Y-85553152D02*
X63794286Y-85457914D01*
X63794286Y-85457914D02*
X63794286Y-85410295D01*
X63794286Y-85410295D02*
X63841905Y-85315057D01*
X63841905Y-85315057D02*
X63889524Y-85267438D01*
X63889524Y-85267438D02*
X63984762Y-85219819D01*
X63984762Y-85219819D02*
X64175238Y-85219819D01*
X64175238Y-85219819D02*
X64270476Y-85267438D01*
X64270476Y-85267438D02*
X64318095Y-85315057D01*
X64318095Y-85315057D02*
X64365714Y-85410295D01*
X64365714Y-85410295D02*
X64365714Y-85457914D01*
X64365714Y-85457914D02*
X64318095Y-85553152D01*
X64318095Y-85553152D02*
X64270476Y-85600771D01*
X64270476Y-85600771D02*
X64175238Y-85648390D01*
X64175238Y-85648390D02*
X63984762Y-85648390D01*
X63984762Y-85648390D02*
X63889524Y-85696009D01*
X63889524Y-85696009D02*
X63841905Y-85743628D01*
X63841905Y-85743628D02*
X63794286Y-85838866D01*
X63794286Y-85838866D02*
X63794286Y-86029342D01*
X63794286Y-86029342D02*
X63841905Y-86124580D01*
X63841905Y-86124580D02*
X63889524Y-86172200D01*
X63889524Y-86172200D02*
X63984762Y-86219819D01*
X63984762Y-86219819D02*
X64175238Y-86219819D01*
X64175238Y-86219819D02*
X64270476Y-86172200D01*
X64270476Y-86172200D02*
X64318095Y-86124580D01*
X64318095Y-86124580D02*
X64365714Y-86029342D01*
X64365714Y-86029342D02*
X64365714Y-85838866D01*
X64365714Y-85838866D02*
X64318095Y-85743628D01*
X64318095Y-85743628D02*
X64270476Y-85696009D01*
X64270476Y-85696009D02*
X64175238Y-85648390D01*
X56474819Y-62831666D02*
X55998628Y-63164999D01*
X56474819Y-63403094D02*
X55474819Y-63403094D01*
X55474819Y-63403094D02*
X55474819Y-63022142D01*
X55474819Y-63022142D02*
X55522438Y-62926904D01*
X55522438Y-62926904D02*
X55570057Y-62879285D01*
X55570057Y-62879285D02*
X55665295Y-62831666D01*
X55665295Y-62831666D02*
X55808152Y-62831666D01*
X55808152Y-62831666D02*
X55903390Y-62879285D01*
X55903390Y-62879285D02*
X55951009Y-62926904D01*
X55951009Y-62926904D02*
X55998628Y-63022142D01*
X55998628Y-63022142D02*
X55998628Y-63403094D01*
X55808152Y-61974523D02*
X56474819Y-61974523D01*
X55427200Y-62212618D02*
X56141485Y-62450713D01*
X56141485Y-62450713D02*
X56141485Y-61831666D01*
X83799104Y-90709285D02*
X83799104Y-90233095D01*
X84084819Y-90804523D02*
X83084819Y-90471190D01*
X83084819Y-90471190D02*
X84084819Y-90137857D01*
X84084819Y-89280714D02*
X84084819Y-89852142D01*
X84084819Y-89566428D02*
X83084819Y-89566428D01*
X83084819Y-89566428D02*
X83227676Y-89661666D01*
X83227676Y-89661666D02*
X83322914Y-89756904D01*
X83322914Y-89756904D02*
X83370533Y-89852142D01*
X62937142Y-90804580D02*
X62889523Y-90852200D01*
X62889523Y-90852200D02*
X62746666Y-90899819D01*
X62746666Y-90899819D02*
X62651428Y-90899819D01*
X62651428Y-90899819D02*
X62508571Y-90852200D01*
X62508571Y-90852200D02*
X62413333Y-90756961D01*
X62413333Y-90756961D02*
X62365714Y-90661723D01*
X62365714Y-90661723D02*
X62318095Y-90471247D01*
X62318095Y-90471247D02*
X62318095Y-90328390D01*
X62318095Y-90328390D02*
X62365714Y-90137914D01*
X62365714Y-90137914D02*
X62413333Y-90042676D01*
X62413333Y-90042676D02*
X62508571Y-89947438D01*
X62508571Y-89947438D02*
X62651428Y-89899819D01*
X62651428Y-89899819D02*
X62746666Y-89899819D01*
X62746666Y-89899819D02*
X62889523Y-89947438D01*
X62889523Y-89947438D02*
X62937142Y-89995057D01*
X63889523Y-90899819D02*
X63318095Y-90899819D01*
X63603809Y-90899819D02*
X63603809Y-89899819D01*
X63603809Y-89899819D02*
X63508571Y-90042676D01*
X63508571Y-90042676D02*
X63413333Y-90137914D01*
X63413333Y-90137914D02*
X63318095Y-90185533D01*
X64508571Y-89899819D02*
X64603809Y-89899819D01*
X64603809Y-89899819D02*
X64699047Y-89947438D01*
X64699047Y-89947438D02*
X64746666Y-89995057D01*
X64746666Y-89995057D02*
X64794285Y-90090295D01*
X64794285Y-90090295D02*
X64841904Y-90280771D01*
X64841904Y-90280771D02*
X64841904Y-90518866D01*
X64841904Y-90518866D02*
X64794285Y-90709342D01*
X64794285Y-90709342D02*
X64746666Y-90804580D01*
X64746666Y-90804580D02*
X64699047Y-90852200D01*
X64699047Y-90852200D02*
X64603809Y-90899819D01*
X64603809Y-90899819D02*
X64508571Y-90899819D01*
X64508571Y-90899819D02*
X64413333Y-90852200D01*
X64413333Y-90852200D02*
X64365714Y-90804580D01*
X64365714Y-90804580D02*
X64318095Y-90709342D01*
X64318095Y-90709342D02*
X64270476Y-90518866D01*
X64270476Y-90518866D02*
X64270476Y-90280771D01*
X64270476Y-90280771D02*
X64318095Y-90090295D01*
X64318095Y-90090295D02*
X64365714Y-89995057D01*
X64365714Y-89995057D02*
X64413333Y-89947438D01*
X64413333Y-89947438D02*
X64508571Y-89899819D01*
X47114819Y-79160238D02*
X46638628Y-79493571D01*
X47114819Y-79731666D02*
X46114819Y-79731666D01*
X46114819Y-79731666D02*
X46114819Y-79350714D01*
X46114819Y-79350714D02*
X46162438Y-79255476D01*
X46162438Y-79255476D02*
X46210057Y-79207857D01*
X46210057Y-79207857D02*
X46305295Y-79160238D01*
X46305295Y-79160238D02*
X46448152Y-79160238D01*
X46448152Y-79160238D02*
X46543390Y-79207857D01*
X46543390Y-79207857D02*
X46591009Y-79255476D01*
X46591009Y-79255476D02*
X46638628Y-79350714D01*
X46638628Y-79350714D02*
X46638628Y-79731666D01*
X46114819Y-78874523D02*
X47114819Y-78541190D01*
X47114819Y-78541190D02*
X46114819Y-78207857D01*
X46114819Y-77969761D02*
X46114819Y-77350714D01*
X46114819Y-77350714D02*
X46495771Y-77684047D01*
X46495771Y-77684047D02*
X46495771Y-77541190D01*
X46495771Y-77541190D02*
X46543390Y-77445952D01*
X46543390Y-77445952D02*
X46591009Y-77398333D01*
X46591009Y-77398333D02*
X46686247Y-77350714D01*
X46686247Y-77350714D02*
X46924342Y-77350714D01*
X46924342Y-77350714D02*
X47019580Y-77398333D01*
X47019580Y-77398333D02*
X47067200Y-77445952D01*
X47067200Y-77445952D02*
X47114819Y-77541190D01*
X47114819Y-77541190D02*
X47114819Y-77826904D01*
X47114819Y-77826904D02*
X47067200Y-77922142D01*
X47067200Y-77922142D02*
X47019580Y-77969761D01*
D12*
%TO.C,D1*%
X105060000Y-58775000D02*
X110500000Y-58775000D01*
X105060000Y-59105000D02*
X105060000Y-58775000D01*
X105060000Y-61385000D02*
X105060000Y-61715000D01*
X105060000Y-61715000D02*
X110500000Y-61715000D01*
X105840000Y-58775000D02*
X105840000Y-61715000D01*
X105960000Y-58775000D02*
X105960000Y-61715000D01*
X106080000Y-58775000D02*
X106080000Y-61715000D01*
X110500000Y-58775000D02*
X110500000Y-59105000D01*
X110500000Y-61715000D02*
X110500000Y-61385000D01*
%TO.C,C9*%
X59960000Y-93755000D02*
X67200000Y-93755000D01*
X59960000Y-98495000D02*
X59960000Y-93755000D01*
X67200000Y-93755000D02*
X67200000Y-98495000D01*
X67200000Y-98495000D02*
X59960000Y-98495000D01*
%TO.C,RV2*%
X43350000Y-71595000D02*
X43350000Y-67615000D01*
X43350000Y-73325000D02*
X43350000Y-72635000D01*
X43450000Y-73325000D02*
X43350000Y-73325000D01*
X43450000Y-73525000D02*
X43450000Y-73325000D01*
X44660000Y-66305000D02*
X46150000Y-66305000D01*
X44870000Y-73325000D02*
X44870000Y-73525000D01*
X44870000Y-73525000D02*
X43450000Y-73525000D01*
X47170000Y-66305000D02*
X48660000Y-66305000D01*
X48450000Y-73325000D02*
X44870000Y-73325000D01*
X48450000Y-73325000D02*
X48450000Y-73525000D01*
X49870000Y-73325000D02*
X49970000Y-73325000D01*
X49870000Y-73525000D02*
X48450000Y-73525000D01*
X49870000Y-73525000D02*
X49870000Y-73325000D01*
X49970000Y-67615000D02*
X49970000Y-71155000D01*
X49970000Y-73325000D02*
X49970000Y-73075000D01*
X43350000Y-67615000D02*
G75*
G02*
X44660000Y-66305000I1310000J0D01*
G01*
X48660000Y-66305000D02*
G75*
G02*
X49970000Y-67615000I0J-1310000D01*
G01*
%TO.C,C5*%
X59960000Y-57975000D02*
X67200000Y-57975000D01*
X59960000Y-62715000D02*
X59960000Y-57975000D01*
X67200000Y-57975000D02*
X67200000Y-62715000D01*
X67200000Y-62715000D02*
X59960000Y-62715000D01*
%TO.C,C7*%
X108480000Y-77908000D02*
X108480000Y-77342000D01*
X108520000Y-78142000D02*
X108520000Y-77108000D01*
X108560000Y-78302000D02*
X108560000Y-76948000D01*
X108600000Y-78430000D02*
X108600000Y-76820000D01*
X108640000Y-78539000D02*
X108640000Y-76711000D01*
X108680000Y-78636000D02*
X108680000Y-76614000D01*
X108720000Y-78723000D02*
X108720000Y-76527000D01*
X108760000Y-78802000D02*
X108760000Y-76448000D01*
X108800000Y-76585000D02*
X108800000Y-76374000D01*
X108800000Y-78876000D02*
X108800000Y-78665000D01*
X108840000Y-76585000D02*
X108840000Y-76306000D01*
X108840000Y-78944000D02*
X108840000Y-78665000D01*
X108880000Y-76585000D02*
X108880000Y-76242000D01*
X108880000Y-79008000D02*
X108880000Y-78665000D01*
X108920000Y-76585000D02*
X108920000Y-76182000D01*
X108920000Y-79068000D02*
X108920000Y-78665000D01*
X108960000Y-76585000D02*
X108960000Y-76126000D01*
X108960000Y-79124000D02*
X108960000Y-78665000D01*
X109000000Y-76585000D02*
X109000000Y-76072000D01*
X109000000Y-79178000D02*
X109000000Y-78665000D01*
X109040000Y-76585000D02*
X109040000Y-76021000D01*
X109040000Y-79229000D02*
X109040000Y-78665000D01*
X109080000Y-76585000D02*
X109080000Y-75973000D01*
X109080000Y-79277000D02*
X109080000Y-78665000D01*
X109120000Y-76585000D02*
X109120000Y-75926000D01*
X109120000Y-79324000D02*
X109120000Y-78665000D01*
X109160000Y-76585000D02*
X109160000Y-75882000D01*
X109160000Y-79368000D02*
X109160000Y-78665000D01*
X109200000Y-76585000D02*
X109200000Y-75840000D01*
X109200000Y-79410000D02*
X109200000Y-78665000D01*
X109240000Y-76585000D02*
X109240000Y-75800000D01*
X109240000Y-79450000D02*
X109240000Y-78665000D01*
X109280000Y-76585000D02*
X109280000Y-75761000D01*
X109280000Y-79489000D02*
X109280000Y-78665000D01*
X109320000Y-76585000D02*
X109320000Y-75724000D01*
X109320000Y-79526000D02*
X109320000Y-78665000D01*
X109360000Y-76585000D02*
X109360000Y-75689000D01*
X109360000Y-79561000D02*
X109360000Y-78665000D01*
X109400000Y-76585000D02*
X109400000Y-75655000D01*
X109400000Y-79595000D02*
X109400000Y-78665000D01*
X109440000Y-76585000D02*
X109440000Y-75622000D01*
X109440000Y-79628000D02*
X109440000Y-78665000D01*
X109480000Y-76585000D02*
X109480000Y-75590000D01*
X109480000Y-79660000D02*
X109480000Y-78665000D01*
X109520000Y-76585000D02*
X109520000Y-75560000D01*
X109520000Y-79690000D02*
X109520000Y-78665000D01*
X109560000Y-76585000D02*
X109560000Y-75531000D01*
X109560000Y-79719000D02*
X109560000Y-78665000D01*
X109600000Y-76585000D02*
X109600000Y-75503000D01*
X109600000Y-79747000D02*
X109600000Y-78665000D01*
X109640000Y-76585000D02*
X109640000Y-75476000D01*
X109640000Y-79774000D02*
X109640000Y-78665000D01*
X109680000Y-76585000D02*
X109680000Y-75450000D01*
X109680000Y-79800000D02*
X109680000Y-78665000D01*
X109720000Y-76585000D02*
X109720000Y-75426000D01*
X109720000Y-79824000D02*
X109720000Y-78665000D01*
X109760000Y-76585000D02*
X109760000Y-75402000D01*
X109760000Y-79848000D02*
X109760000Y-78665000D01*
X109800000Y-76585000D02*
X109800000Y-75379000D01*
X109800000Y-79871000D02*
X109800000Y-78665000D01*
X109840000Y-76585000D02*
X109840000Y-75357000D01*
X109840000Y-79893000D02*
X109840000Y-78665000D01*
X109880000Y-76585000D02*
X109880000Y-75336000D01*
X109880000Y-79914000D02*
X109880000Y-78665000D01*
X109920000Y-76585000D02*
X109920000Y-75316000D01*
X109920000Y-79934000D02*
X109920000Y-78665000D01*
X109960000Y-76585000D02*
X109960000Y-75296000D01*
X109960000Y-79954000D02*
X109960000Y-78665000D01*
X110000000Y-76585000D02*
X110000000Y-75278000D01*
X110000000Y-79972000D02*
X110000000Y-78665000D01*
X110040000Y-76585000D02*
X110040000Y-75260000D01*
X110040000Y-79990000D02*
X110040000Y-78665000D01*
X110080000Y-76585000D02*
X110080000Y-75243000D01*
X110080000Y-80007000D02*
X110080000Y-78665000D01*
X110120000Y-76585000D02*
X110120000Y-75227000D01*
X110120000Y-80023000D02*
X110120000Y-78665000D01*
X110160000Y-76585000D02*
X110160000Y-75212000D01*
X110160000Y-80038000D02*
X110160000Y-78665000D01*
X110200000Y-76585000D02*
X110200000Y-75197000D01*
X110200000Y-80053000D02*
X110200000Y-78665000D01*
X110240000Y-76585000D02*
X110240000Y-75183000D01*
X110240000Y-80067000D02*
X110240000Y-78665000D01*
X110280000Y-76585000D02*
X110280000Y-75170000D01*
X110280000Y-80080000D02*
X110280000Y-78665000D01*
X110320000Y-76585000D02*
X110320000Y-75158000D01*
X110320000Y-80092000D02*
X110320000Y-78665000D01*
X110360000Y-76585000D02*
X110360000Y-75146000D01*
X110360000Y-80104000D02*
X110360000Y-78665000D01*
X110400000Y-76585000D02*
X110400000Y-75135000D01*
X110400000Y-80115000D02*
X110400000Y-78665000D01*
X110440000Y-76585000D02*
X110440000Y-75124000D01*
X110440000Y-80126000D02*
X110440000Y-78665000D01*
X110480000Y-76585000D02*
X110480000Y-75115000D01*
X110480000Y-80135000D02*
X110480000Y-78665000D01*
X110520000Y-76585000D02*
X110520000Y-75106000D01*
X110520000Y-80144000D02*
X110520000Y-78665000D01*
X110560000Y-76585000D02*
X110560000Y-75097000D01*
X110560000Y-80153000D02*
X110560000Y-78665000D01*
X110600000Y-76585000D02*
X110600000Y-75089000D01*
X110600000Y-80161000D02*
X110600000Y-78665000D01*
X110640000Y-76585000D02*
X110640000Y-75082000D01*
X110640000Y-80168000D02*
X110640000Y-78665000D01*
X110680000Y-76585000D02*
X110680000Y-75076000D01*
X110680000Y-80174000D02*
X110680000Y-78665000D01*
X110720000Y-76585000D02*
X110720000Y-75070000D01*
X110720000Y-80180000D02*
X110720000Y-78665000D01*
X110760000Y-76585000D02*
X110760000Y-75065000D01*
X110760000Y-80185000D02*
X110760000Y-78665000D01*
X110800000Y-76585000D02*
X110800000Y-75060000D01*
X110800000Y-80190000D02*
X110800000Y-78665000D01*
X110840000Y-76585000D02*
X110840000Y-75056000D01*
X110840000Y-80194000D02*
X110840000Y-78665000D01*
X110880000Y-80197000D02*
X110880000Y-75053000D01*
X110920000Y-80200000D02*
X110920000Y-75050000D01*
X110960000Y-80202000D02*
X110960000Y-75048000D01*
X111000000Y-80204000D02*
X111000000Y-75046000D01*
X111040000Y-80205000D02*
X111040000Y-75045000D01*
X111080000Y-80205000D02*
X111080000Y-75045000D01*
X113634775Y-79350000D02*
X113634775Y-78850000D01*
X113884775Y-79100000D02*
X113384775Y-79100000D01*
X113700000Y-77625000D02*
G75*
G02*
X108460000Y-77625000I-2620000J0D01*
G01*
X108460000Y-77625000D02*
G75*
G02*
X113700000Y-77625000I2620000J0D01*
G01*
%TO.C,R6*%
X91560000Y-58895000D02*
X98100000Y-58895000D01*
X91560000Y-59225000D02*
X91560000Y-58895000D01*
X91560000Y-61305000D02*
X91560000Y-61635000D01*
X91560000Y-61635000D02*
X98100000Y-61635000D01*
X98100000Y-58895000D02*
X98100000Y-59225000D01*
X98100000Y-61635000D02*
X98100000Y-61305000D01*
%TO.C,U2*%
X96630000Y-67765000D02*
X93030000Y-67765000D01*
X92505816Y-68492205D02*
G75*
G02*
X93030000Y-67765000I2324184J-1122795D01*
G01*
X94830000Y-72215000D02*
G75*
G02*
X92473600Y-70713807I0J2600000D01*
G01*
X96630000Y-67765000D02*
G75*
G02*
X97154184Y-68492205I-1800000J-1850000D01*
G01*
X97186400Y-70713807D02*
G75*
G02*
X94830000Y-72215000I-2356400J1098807D01*
G01*
%TO.C,J3*%
X91170000Y-42715000D02*
X94090000Y-42715000D01*
X91170000Y-51615000D02*
X91170000Y-42715000D01*
X91170000Y-51655000D02*
X94090000Y-51655000D01*
X94090000Y-37965000D02*
X96720000Y-37965000D01*
X94090000Y-42715000D02*
X94090000Y-37965000D01*
X94090000Y-56405000D02*
X94090000Y-51655000D01*
X96720000Y-56405000D02*
X94090000Y-56405000D01*
X99520000Y-37965000D02*
X109420000Y-37965000D01*
X109420000Y-56405000D02*
X99520000Y-56405000D01*
X114940000Y-37965000D02*
X112220000Y-37965000D01*
X114940000Y-41365000D02*
X114940000Y-37965000D01*
X114940000Y-41365000D02*
X117940000Y-41365000D01*
X114940000Y-53005000D02*
X117940000Y-53005000D01*
X114940000Y-56405000D02*
X112220000Y-56405000D01*
X114940000Y-56405000D02*
X114940000Y-53005000D01*
X117940000Y-53005000D02*
X117940000Y-41365000D01*
%TO.C,R2*%
X50780000Y-70195000D02*
X51110000Y-70195000D01*
X50780000Y-76735000D02*
X50780000Y-70195000D01*
X51110000Y-76735000D02*
X50780000Y-76735000D01*
X53190000Y-76735000D02*
X53520000Y-76735000D01*
X53520000Y-70195000D02*
X53190000Y-70195000D01*
X53520000Y-76735000D02*
X53520000Y-70195000D01*
%TO.C,J1*%
X117970000Y-73165000D02*
X103970000Y-73165000D01*
X103970000Y-64165000D01*
X117970000Y-64165000D01*
X117970000Y-73165000D01*
%TO.C,RV1*%
X43350000Y-62905000D02*
X43350000Y-58925000D01*
X43350000Y-64635000D02*
X43350000Y-63945000D01*
X43450000Y-64635000D02*
X43350000Y-64635000D01*
X43450000Y-64835000D02*
X43450000Y-64635000D01*
X44660000Y-57615000D02*
X46150000Y-57615000D01*
X44870000Y-64635000D02*
X44870000Y-64835000D01*
X44870000Y-64835000D02*
X43450000Y-64835000D01*
X47170000Y-57615000D02*
X48660000Y-57615000D01*
X48450000Y-64635000D02*
X44870000Y-64635000D01*
X48450000Y-64635000D02*
X48450000Y-64835000D01*
X49870000Y-64635000D02*
X49970000Y-64635000D01*
X49870000Y-64835000D02*
X48450000Y-64835000D01*
X49870000Y-64835000D02*
X49870000Y-64635000D01*
X49970000Y-58925000D02*
X49970000Y-62465000D01*
X49970000Y-64635000D02*
X49970000Y-64385000D01*
X43350000Y-58925000D02*
G75*
G02*
X44660000Y-57615000I1310000J0D01*
G01*
X48660000Y-57615000D02*
G75*
G02*
X49970000Y-58925000I0J-1310000D01*
G01*
%TO.C,C6*%
X54650000Y-79535000D02*
X57390000Y-79535000D01*
X54650000Y-86775000D02*
X54650000Y-79535000D01*
X57390000Y-79535000D02*
X57390000Y-86775000D01*
X57390000Y-86775000D02*
X54650000Y-86775000D01*
%TO.C,R7*%
X91560000Y-73895000D02*
X91560000Y-74225000D01*
X91560000Y-76635000D02*
X91560000Y-76305000D01*
X98100000Y-73895000D02*
X91560000Y-73895000D01*
X98100000Y-74225000D02*
X98100000Y-73895000D01*
X98100000Y-76305000D02*
X98100000Y-76635000D01*
X98100000Y-76635000D02*
X91560000Y-76635000D01*
%TO.C,R1*%
X54650000Y-70195000D02*
X54980000Y-70195000D01*
X54650000Y-76735000D02*
X54650000Y-70195000D01*
X54980000Y-76735000D02*
X54650000Y-76735000D01*
X57060000Y-76735000D02*
X57390000Y-76735000D01*
X57390000Y-70195000D02*
X57060000Y-70195000D01*
X57390000Y-76735000D02*
X57390000Y-70195000D01*
%TO.C,R5*%
X91560000Y-63315000D02*
X91560000Y-63645000D01*
X91560000Y-66055000D02*
X91560000Y-65725000D01*
X98100000Y-63315000D02*
X91560000Y-63315000D01*
X98100000Y-63645000D02*
X98100000Y-63315000D01*
X98100000Y-65725000D02*
X98100000Y-66055000D01*
X98100000Y-66055000D02*
X91560000Y-66055000D01*
%TO.C,SW1*%
X43670000Y-102085000D02*
X43670000Y-100702000D01*
X43670000Y-102085000D02*
X45053000Y-102085000D01*
X43910000Y-91945000D02*
X56370000Y-91945000D01*
X43910000Y-101845000D02*
X43910000Y-91945000D01*
X43910000Y-101845000D02*
X56370000Y-101845000D01*
X45695000Y-97571667D02*
X46965000Y-97571667D01*
X48235000Y-97571667D02*
X49505000Y-97571667D01*
X50775000Y-97571667D02*
X52045000Y-97571667D01*
X53315000Y-97571667D02*
X54585000Y-97571667D01*
X56370000Y-101845000D02*
X56370000Y-91945000D01*
X45695000Y-98925000D02*
X46965000Y-98925000D01*
X46965000Y-94865000D01*
X45695000Y-94865000D01*
X45695000Y-98925000D01*
X45695000Y-98925000D02*
X46965000Y-98925000D01*
X46965000Y-97571667D01*
X45695000Y-97571667D01*
X45695000Y-98925000D01*
G36*
X45695000Y-98925000D02*
G01*
X46965000Y-98925000D01*
X46965000Y-97571667D01*
X45695000Y-97571667D01*
X45695000Y-98925000D01*
G37*
X48235000Y-98925000D02*
X49505000Y-98925000D01*
X49505000Y-94865000D01*
X48235000Y-94865000D01*
X48235000Y-98925000D01*
X48235000Y-98925000D02*
X49505000Y-98925000D01*
X49505000Y-97571667D01*
X48235000Y-97571667D01*
X48235000Y-98925000D01*
G36*
X48235000Y-98925000D02*
G01*
X49505000Y-98925000D01*
X49505000Y-97571667D01*
X48235000Y-97571667D01*
X48235000Y-98925000D01*
G37*
X50775000Y-98925000D02*
X52045000Y-98925000D01*
X52045000Y-94865000D01*
X50775000Y-94865000D01*
X50775000Y-98925000D01*
X50775000Y-98925000D02*
X52045000Y-98925000D01*
X52045000Y-97571667D01*
X50775000Y-97571667D01*
X50775000Y-98925000D01*
G36*
X50775000Y-98925000D02*
G01*
X52045000Y-98925000D01*
X52045000Y-97571667D01*
X50775000Y-97571667D01*
X50775000Y-98925000D01*
G37*
X53315000Y-98925000D02*
X54585000Y-98925000D01*
X54585000Y-94865000D01*
X53315000Y-94865000D01*
X53315000Y-98925000D01*
X53315000Y-98925000D02*
X54585000Y-98925000D01*
X54585000Y-97571667D01*
X53315000Y-97571667D01*
X53315000Y-98925000D01*
G36*
X53315000Y-98925000D02*
G01*
X54585000Y-98925000D01*
X54585000Y-97571667D01*
X53315000Y-97571667D01*
X53315000Y-98925000D01*
G37*
%TO.C,J4*%
X66300000Y-36614999D02*
X66300000Y-35234999D01*
X67680000Y-36614999D02*
X66300000Y-36614999D01*
X68950000Y-33854999D02*
X81760000Y-33854999D01*
X68950000Y-36614999D02*
X68950000Y-33854999D01*
X68950000Y-36614999D02*
X81760000Y-36614999D01*
X81760000Y-36614999D02*
X81760000Y-33854999D01*
%TO.C,R8*%
X105940000Y-84285000D02*
X112480000Y-84285000D01*
X105940000Y-84615000D02*
X105940000Y-84285000D01*
X105940000Y-86695000D02*
X105940000Y-87025000D01*
X105940000Y-87025000D02*
X112480000Y-87025000D01*
X112480000Y-84285000D02*
X112480000Y-84615000D01*
X112480000Y-87025000D02*
X112480000Y-86695000D01*
%TO.C,J5*%
X82570000Y-33854999D02*
X82570000Y-36614999D01*
X87760000Y-33854999D02*
X82570000Y-33854999D01*
X87760000Y-33854999D02*
X87760000Y-36614999D01*
X87760000Y-36614999D02*
X82570000Y-36614999D01*
X89030000Y-33854999D02*
X90410000Y-33854999D01*
X90410000Y-33854999D02*
X90410000Y-35234999D01*
%TO.C,RV4*%
X43350000Y-88975000D02*
X43350000Y-84995000D01*
X43350000Y-90705000D02*
X43350000Y-90015000D01*
X43450000Y-90705000D02*
X43350000Y-90705000D01*
X43450000Y-90905000D02*
X43450000Y-90705000D01*
X44660000Y-83685000D02*
X46150000Y-83685000D01*
X44870000Y-90705000D02*
X44870000Y-90905000D01*
X44870000Y-90905000D02*
X43450000Y-90905000D01*
X47170000Y-83685000D02*
X48660000Y-83685000D01*
X48450000Y-90705000D02*
X44870000Y-90705000D01*
X48450000Y-90705000D02*
X48450000Y-90905000D01*
X49870000Y-90705000D02*
X49970000Y-90705000D01*
X49870000Y-90905000D02*
X48450000Y-90905000D01*
X49870000Y-90905000D02*
X49870000Y-90705000D01*
X49970000Y-84995000D02*
X49970000Y-88535000D01*
X49970000Y-90705000D02*
X49970000Y-90455000D01*
X43350000Y-84995000D02*
G75*
G02*
X44660000Y-83685000I1310000J0D01*
G01*
X48660000Y-83685000D02*
G75*
G02*
X49970000Y-84995000I0J-1310000D01*
G01*
D13*
%TO.C,G\u002A\u002A\u002A*%
G36*
X111800000Y-65004964D02*
G01*
X111793333Y-65011631D01*
X111786666Y-65004964D01*
X111793333Y-64998298D01*
X111800000Y-65004964D01*
G37*
G36*
X113066666Y-68031631D02*
G01*
X113060000Y-68038298D01*
X113053333Y-68031631D01*
X113060000Y-68024964D01*
X113066666Y-68031631D01*
G37*
G36*
X112746666Y-65664964D02*
G01*
X112746666Y-66171631D01*
X112640000Y-66171631D01*
X112533333Y-66171631D01*
X112533333Y-65664964D01*
X112533333Y-65158298D01*
X112640000Y-65158298D01*
X112746666Y-65158298D01*
X112746666Y-65664964D01*
G37*
G36*
X112746666Y-71358298D02*
G01*
X112746666Y-71558298D01*
X112946666Y-71558298D01*
X113146666Y-71558298D01*
X113146666Y-71664964D01*
X113146666Y-71771631D01*
X112946666Y-71771631D01*
X112746666Y-71771631D01*
X112746666Y-71971631D01*
X112746666Y-72171631D01*
X112640000Y-72171631D01*
X112533333Y-72171631D01*
X112533333Y-71971631D01*
X112533333Y-71771631D01*
X112333333Y-71771631D01*
X112133333Y-71771631D01*
X112133333Y-71664964D01*
X112133333Y-71558298D01*
X112333333Y-71558298D01*
X112533333Y-71558298D01*
X112533333Y-71358298D01*
X112533333Y-71158298D01*
X112640000Y-71158298D01*
X112746666Y-71158298D01*
X112746666Y-71358298D01*
G37*
G36*
X112760488Y-64669659D02*
G01*
X112861665Y-64684709D01*
X113017751Y-64731819D01*
X113161194Y-64800663D01*
X113289867Y-64889528D01*
X113401647Y-64996704D01*
X113494408Y-65120479D01*
X113561581Y-65248602D01*
X113598350Y-65357491D01*
X113624016Y-65482312D01*
X113637798Y-65614406D01*
X113638913Y-65745116D01*
X113626581Y-65865784D01*
X113620238Y-65898298D01*
X113574160Y-66048646D01*
X113505602Y-66188570D01*
X113416805Y-66315196D01*
X113310007Y-66425651D01*
X113187450Y-66517063D01*
X113100589Y-66564816D01*
X113022838Y-66598744D01*
X112943060Y-66627798D01*
X112868289Y-66649809D01*
X112805559Y-66662607D01*
X112775814Y-66664964D01*
X112746666Y-66664964D01*
X112746666Y-67436631D01*
X112746666Y-68208298D01*
X112790000Y-68216961D01*
X112858413Y-68242456D01*
X112927048Y-68288841D01*
X112990713Y-68350895D01*
X113044215Y-68423396D01*
X113082364Y-68501124D01*
X113087475Y-68516139D01*
X113101906Y-68589590D01*
X113105290Y-68674953D01*
X113098155Y-68761523D01*
X113081026Y-68838595D01*
X113070207Y-68867307D01*
X113016356Y-68956584D01*
X112943535Y-69030147D01*
X112855645Y-69085991D01*
X112756590Y-69122108D01*
X112650274Y-69136492D01*
X112584781Y-69132116D01*
X112558519Y-69130361D01*
X112459169Y-69104699D01*
X112373884Y-69060184D01*
X112308877Y-69006903D01*
X112251196Y-68943087D01*
X112212013Y-68876808D01*
X112188308Y-68800891D01*
X112177063Y-68708161D01*
X112176234Y-68691631D01*
X112177988Y-68588781D01*
X112194345Y-68502945D01*
X112227418Y-68427575D01*
X112279324Y-68356123D01*
X112287679Y-68346655D01*
X112331603Y-68305137D01*
X112383902Y-68266537D01*
X112437286Y-68235294D01*
X112484468Y-68215849D01*
X112509284Y-68211631D01*
X112514364Y-68210590D01*
X112518675Y-68206122D01*
X112522280Y-68196210D01*
X112525241Y-68178838D01*
X112527622Y-68151989D01*
X112529486Y-68113646D01*
X112530895Y-68061792D01*
X112531912Y-67994411D01*
X112532601Y-67909485D01*
X112533024Y-67804998D01*
X112533245Y-67678933D01*
X112533325Y-67529274D01*
X112533333Y-67440898D01*
X112533333Y-66670165D01*
X112430000Y-66653057D01*
X112344577Y-66632676D01*
X112249900Y-66597515D01*
X112187452Y-66569106D01*
X112124248Y-66537560D01*
X112074687Y-66508914D01*
X112031032Y-66477571D01*
X111985547Y-66437939D01*
X111930498Y-66384422D01*
X111926355Y-66380281D01*
X111831367Y-66273811D01*
X111758469Y-66164516D01*
X111703476Y-66045015D01*
X111665073Y-65919619D01*
X111647259Y-65816551D01*
X111640029Y-65699334D01*
X111640416Y-65683839D01*
X111869282Y-65683839D01*
X111881750Y-65811408D01*
X111915237Y-65936081D01*
X111970299Y-66054884D01*
X112047491Y-66164845D01*
X112090212Y-66211269D01*
X112199745Y-66302841D01*
X112320511Y-66371255D01*
X112449770Y-66416065D01*
X112584781Y-66436826D01*
X112722802Y-66433090D01*
X112861093Y-66404412D01*
X112983876Y-66356736D01*
X113101430Y-66285886D01*
X113203459Y-66194908D01*
X113287827Y-66086738D01*
X113352398Y-65964309D01*
X113395036Y-65830558D01*
X113404902Y-65778298D01*
X113409628Y-65706351D01*
X113405614Y-65620125D01*
X113393962Y-65530124D01*
X113375774Y-65446852D01*
X113367146Y-65418464D01*
X113309860Y-65286499D01*
X113232721Y-65172020D01*
X113136347Y-65075744D01*
X113021356Y-64998392D01*
X112993333Y-64983843D01*
X112893897Y-64942176D01*
X112789676Y-64911538D01*
X112690473Y-64894501D01*
X112642771Y-64891863D01*
X112582459Y-64896227D01*
X112508080Y-64908211D01*
X112430334Y-64925544D01*
X112359919Y-64945959D01*
X112323926Y-64959472D01*
X112204799Y-65024077D01*
X112102806Y-65106595D01*
X112018503Y-65204054D01*
X111952444Y-65313480D01*
X111905184Y-65431902D01*
X111877278Y-65556346D01*
X111869282Y-65683839D01*
X111640416Y-65683839D01*
X111643075Y-65577298D01*
X111656089Y-65459776D01*
X111678762Y-65356099D01*
X111684280Y-65338298D01*
X111736512Y-65209082D01*
X111805360Y-65093100D01*
X111895254Y-64983191D01*
X111920000Y-64957380D01*
X112039673Y-64852475D01*
X112170375Y-64770726D01*
X112313333Y-64710506D01*
X112411187Y-64685739D01*
X112524661Y-64670378D01*
X112644260Y-64664869D01*
X112760488Y-64669659D01*
G37*
G36*
X112074011Y-67848667D02*
G01*
X112096891Y-67876026D01*
X112125914Y-67915223D01*
X112135879Y-67929523D01*
X112198424Y-68020613D01*
X112095523Y-68126122D01*
X112001615Y-68237606D01*
X111933380Y-68354056D01*
X111889968Y-68477690D01*
X111870528Y-68610724D01*
X111870784Y-68711631D01*
X111885634Y-68832163D01*
X111917461Y-68940849D01*
X111969307Y-69046642D01*
X112002753Y-69099855D01*
X112092135Y-69210420D01*
X112197737Y-69300596D01*
X112317217Y-69369140D01*
X112448234Y-69414810D01*
X112588446Y-69436364D01*
X112640000Y-69437981D01*
X112783857Y-69425482D01*
X112918187Y-69388092D01*
X113042593Y-69325978D01*
X113156681Y-69239303D01*
X113186890Y-69210488D01*
X113278752Y-69100730D01*
X113347240Y-68980035D01*
X113391927Y-68851049D01*
X113412388Y-68716418D01*
X113408195Y-68578788D01*
X113378922Y-68440807D01*
X113330677Y-68318298D01*
X113281099Y-68237385D01*
X113207222Y-68149199D01*
X113185383Y-68126424D01*
X113082168Y-68021217D01*
X113144417Y-67930326D01*
X113174290Y-67888410D01*
X113199201Y-67856567D01*
X113214957Y-67840053D01*
X113217369Y-67838866D01*
X113230358Y-67847580D01*
X113257985Y-67871759D01*
X113296278Y-67907769D01*
X113341265Y-67951976D01*
X113344244Y-67954964D01*
X113434496Y-68054029D01*
X113504462Y-68151383D01*
X113558892Y-68254501D01*
X113596277Y-68351631D01*
X113610177Y-68395543D01*
X113619940Y-68434370D01*
X113626298Y-68474476D01*
X113629983Y-68522228D01*
X113631724Y-68583989D01*
X113632250Y-68664964D01*
X113632037Y-68746349D01*
X113630579Y-68807390D01*
X113627157Y-68854407D01*
X113621053Y-68893719D01*
X113611551Y-68931645D01*
X113597931Y-68974502D01*
X113596654Y-68978298D01*
X113553323Y-69088126D01*
X113499994Y-69185816D01*
X113431894Y-69278817D01*
X113344252Y-69374580D01*
X113340240Y-69378606D01*
X113232838Y-69474405D01*
X113122413Y-69547819D01*
X113001876Y-69602819D01*
X112870000Y-69641995D01*
X112746666Y-69671273D01*
X112746666Y-70165814D01*
X112746666Y-70660355D01*
X112835800Y-70676779D01*
X112985262Y-70717139D01*
X113127850Y-70780667D01*
X113258662Y-70864647D01*
X113372793Y-70966361D01*
X113387792Y-70982560D01*
X113468432Y-71082822D01*
X113531611Y-71187896D01*
X113583153Y-71307714D01*
X113590442Y-71328148D01*
X113607280Y-71378929D01*
X113618976Y-71422698D01*
X113626623Y-71466868D01*
X113631320Y-71518851D01*
X113634160Y-71586058D01*
X113635316Y-71631631D01*
X113635580Y-71746260D01*
X113630624Y-71836055D01*
X113620892Y-71900112D01*
X113572957Y-72052735D01*
X113502214Y-72193783D01*
X113410749Y-72320957D01*
X113300650Y-72431958D01*
X113174004Y-72524488D01*
X113032897Y-72596248D01*
X112966666Y-72620684D01*
X112866961Y-72645161D01*
X112751560Y-72660080D01*
X112668675Y-72663518D01*
X112629779Y-72665131D01*
X112510934Y-72660007D01*
X112404341Y-72644396D01*
X112385345Y-72639996D01*
X112248179Y-72596793D01*
X112127149Y-72538038D01*
X112015436Y-72459849D01*
X111926227Y-72378737D01*
X111829257Y-72269575D01*
X111754896Y-72156673D01*
X111699261Y-72033213D01*
X111664968Y-71919619D01*
X111647226Y-71816588D01*
X111640033Y-71699445D01*
X111642200Y-71612643D01*
X111870782Y-71612643D01*
X111874099Y-71754388D01*
X111902486Y-71894287D01*
X111955470Y-72028483D01*
X111962649Y-72042484D01*
X112010885Y-72116817D01*
X112076198Y-72193250D01*
X112150871Y-72264065D01*
X112227186Y-72321545D01*
X112262480Y-72342315D01*
X112394674Y-72397634D01*
X112531134Y-72428450D01*
X112668675Y-72435237D01*
X112804114Y-72418468D01*
X112934267Y-72378618D01*
X113055952Y-72316160D01*
X113165984Y-72231568D01*
X113194697Y-72203543D01*
X113280522Y-72096651D01*
X113345134Y-71976315D01*
X113387716Y-71846268D01*
X113407453Y-71710243D01*
X113403527Y-71571973D01*
X113375125Y-71435191D01*
X113367704Y-71412061D01*
X113312029Y-71285901D01*
X113237653Y-71176124D01*
X113147409Y-71083384D01*
X113044129Y-71008333D01*
X112930647Y-70951625D01*
X112809793Y-70913912D01*
X112684401Y-70895847D01*
X112557303Y-70898085D01*
X112431331Y-70921277D01*
X112309319Y-70966077D01*
X112194098Y-71033137D01*
X112093333Y-71118234D01*
X112005960Y-71221326D01*
X111940929Y-71334866D01*
X111895329Y-71464002D01*
X111893005Y-71472911D01*
X111870782Y-71612643D01*
X111642200Y-71612643D01*
X111643077Y-71577506D01*
X111656051Y-71460087D01*
X111678645Y-71356503D01*
X111684280Y-71338298D01*
X111745729Y-71192617D01*
X111829528Y-71058603D01*
X111933013Y-70939746D01*
X112053522Y-70839534D01*
X112077236Y-70823470D01*
X112175785Y-70765784D01*
X112275594Y-70722763D01*
X112387355Y-70690078D01*
X112429999Y-70680545D01*
X112533333Y-70658886D01*
X112533333Y-70162742D01*
X112533333Y-69666598D01*
X112470000Y-69657318D01*
X112325582Y-69622825D01*
X112186382Y-69562986D01*
X112054561Y-69478944D01*
X111933258Y-69372838D01*
X111842079Y-69271763D01*
X111771387Y-69171584D01*
X111716384Y-69064725D01*
X111683433Y-68978298D01*
X111669438Y-68934497D01*
X111659602Y-68895880D01*
X111653187Y-68856093D01*
X111649458Y-68808785D01*
X111647678Y-68747603D01*
X111647110Y-68666195D01*
X111647107Y-68664964D01*
X111647195Y-68585109D01*
X111648390Y-68525583D01*
X111651502Y-68480053D01*
X111657343Y-68442182D01*
X111666720Y-68405637D01*
X111680446Y-68364082D01*
X111688463Y-68341482D01*
X111713288Y-68277824D01*
X111741902Y-68213050D01*
X111769037Y-68158911D01*
X111775129Y-68148148D01*
X111797648Y-68115285D01*
X111831602Y-68072382D01*
X111873109Y-68023640D01*
X111918288Y-67973256D01*
X111963257Y-67925428D01*
X112004134Y-67884356D01*
X112037038Y-67854238D01*
X112058088Y-67839272D01*
X112061531Y-67838365D01*
X112074011Y-67848667D01*
G37*
D12*
%TO.C,J2*%
X39990000Y-41365000D02*
X39990000Y-53005000D01*
X42990000Y-37965000D02*
X42990000Y-41365000D01*
X42990000Y-37965000D02*
X45710000Y-37965000D01*
X42990000Y-41365000D02*
X39990000Y-41365000D01*
X42990000Y-53005000D02*
X39990000Y-53005000D01*
X42990000Y-53005000D02*
X42990000Y-56405000D01*
X42990000Y-56405000D02*
X45710000Y-56405000D01*
X48510000Y-37965000D02*
X58410000Y-37965000D01*
X58410000Y-56405000D02*
X48510000Y-56405000D01*
X61210000Y-37965000D02*
X63840000Y-37965000D01*
X63840000Y-37965000D02*
X63840000Y-42715000D01*
X63840000Y-51655000D02*
X63840000Y-56405000D01*
X63840000Y-56405000D02*
X61210000Y-56405000D01*
X66760000Y-42715000D02*
X63840000Y-42715000D01*
X66760000Y-42755000D02*
X66760000Y-51655000D01*
X66760000Y-51655000D02*
X63840000Y-51655000D01*
%TO.C,R3*%
X50780000Y-59395000D02*
X51110000Y-59395000D01*
X50780000Y-65935000D02*
X50780000Y-59395000D01*
X51110000Y-65935000D02*
X50780000Y-65935000D01*
X53190000Y-65935000D02*
X53520000Y-65935000D01*
X53520000Y-59395000D02*
X53190000Y-59395000D01*
X53520000Y-65935000D02*
X53520000Y-59395000D01*
%TO.C,C4*%
X50780000Y-79535000D02*
X53520000Y-79535000D01*
X50780000Y-86775000D02*
X50780000Y-79535000D01*
X53520000Y-79535000D02*
X53520000Y-86775000D01*
X53520000Y-86775000D02*
X50780000Y-86775000D01*
%TO.C,C3*%
X101940000Y-77908000D02*
X101940000Y-77342000D01*
X101980000Y-78142000D02*
X101980000Y-77108000D01*
X102020000Y-78302000D02*
X102020000Y-76948000D01*
X102060000Y-78430000D02*
X102060000Y-76820000D01*
X102100000Y-78539000D02*
X102100000Y-76711000D01*
X102140000Y-78636000D02*
X102140000Y-76614000D01*
X102180000Y-78723000D02*
X102180000Y-76527000D01*
X102220000Y-78802000D02*
X102220000Y-76448000D01*
X102260000Y-76585000D02*
X102260000Y-76374000D01*
X102260000Y-78876000D02*
X102260000Y-78665000D01*
X102300000Y-76585000D02*
X102300000Y-76306000D01*
X102300000Y-78944000D02*
X102300000Y-78665000D01*
X102340000Y-76585000D02*
X102340000Y-76242000D01*
X102340000Y-79008000D02*
X102340000Y-78665000D01*
X102380000Y-76585000D02*
X102380000Y-76182000D01*
X102380000Y-79068000D02*
X102380000Y-78665000D01*
X102420000Y-76585000D02*
X102420000Y-76126000D01*
X102420000Y-79124000D02*
X102420000Y-78665000D01*
X102460000Y-76585000D02*
X102460000Y-76072000D01*
X102460000Y-79178000D02*
X102460000Y-78665000D01*
X102500000Y-76585000D02*
X102500000Y-76021000D01*
X102500000Y-79229000D02*
X102500000Y-78665000D01*
X102540000Y-76585000D02*
X102540000Y-75973000D01*
X102540000Y-79277000D02*
X102540000Y-78665000D01*
X102580000Y-76585000D02*
X102580000Y-75926000D01*
X102580000Y-79324000D02*
X102580000Y-78665000D01*
X102620000Y-76585000D02*
X102620000Y-75882000D01*
X102620000Y-79368000D02*
X102620000Y-78665000D01*
X102660000Y-76585000D02*
X102660000Y-75840000D01*
X102660000Y-79410000D02*
X102660000Y-78665000D01*
X102700000Y-76585000D02*
X102700000Y-75800000D01*
X102700000Y-79450000D02*
X102700000Y-78665000D01*
X102740000Y-76585000D02*
X102740000Y-75761000D01*
X102740000Y-79489000D02*
X102740000Y-78665000D01*
X102780000Y-76585000D02*
X102780000Y-75724000D01*
X102780000Y-79526000D02*
X102780000Y-78665000D01*
X102820000Y-76585000D02*
X102820000Y-75689000D01*
X102820000Y-79561000D02*
X102820000Y-78665000D01*
X102860000Y-76585000D02*
X102860000Y-75655000D01*
X102860000Y-79595000D02*
X102860000Y-78665000D01*
X102900000Y-76585000D02*
X102900000Y-75622000D01*
X102900000Y-79628000D02*
X102900000Y-78665000D01*
X102940000Y-76585000D02*
X102940000Y-75590000D01*
X102940000Y-79660000D02*
X102940000Y-78665000D01*
X102980000Y-76585000D02*
X102980000Y-75560000D01*
X102980000Y-79690000D02*
X102980000Y-78665000D01*
X103020000Y-76585000D02*
X103020000Y-75531000D01*
X103020000Y-79719000D02*
X103020000Y-78665000D01*
X103060000Y-76585000D02*
X103060000Y-75503000D01*
X103060000Y-79747000D02*
X103060000Y-78665000D01*
X103100000Y-76585000D02*
X103100000Y-75476000D01*
X103100000Y-79774000D02*
X103100000Y-78665000D01*
X103140000Y-76585000D02*
X103140000Y-75450000D01*
X103140000Y-79800000D02*
X103140000Y-78665000D01*
X103180000Y-76585000D02*
X103180000Y-75426000D01*
X103180000Y-79824000D02*
X103180000Y-78665000D01*
X103220000Y-76585000D02*
X103220000Y-75402000D01*
X103220000Y-79848000D02*
X103220000Y-78665000D01*
X103260000Y-76585000D02*
X103260000Y-75379000D01*
X103260000Y-79871000D02*
X103260000Y-78665000D01*
X103300000Y-76585000D02*
X103300000Y-75357000D01*
X103300000Y-79893000D02*
X103300000Y-78665000D01*
X103340000Y-76585000D02*
X103340000Y-75336000D01*
X103340000Y-79914000D02*
X103340000Y-78665000D01*
X103380000Y-76585000D02*
X103380000Y-75316000D01*
X103380000Y-79934000D02*
X103380000Y-78665000D01*
X103420000Y-76585000D02*
X103420000Y-75296000D01*
X103420000Y-79954000D02*
X103420000Y-78665000D01*
X103460000Y-76585000D02*
X103460000Y-75278000D01*
X103460000Y-79972000D02*
X103460000Y-78665000D01*
X103500000Y-76585000D02*
X103500000Y-75260000D01*
X103500000Y-79990000D02*
X103500000Y-78665000D01*
X103540000Y-76585000D02*
X103540000Y-75243000D01*
X103540000Y-80007000D02*
X103540000Y-78665000D01*
X103580000Y-76585000D02*
X103580000Y-75227000D01*
X103580000Y-80023000D02*
X103580000Y-78665000D01*
X103620000Y-76585000D02*
X103620000Y-75212000D01*
X103620000Y-80038000D02*
X103620000Y-78665000D01*
X103660000Y-76585000D02*
X103660000Y-75197000D01*
X103660000Y-80053000D02*
X103660000Y-78665000D01*
X103700000Y-76585000D02*
X103700000Y-75183000D01*
X103700000Y-80067000D02*
X103700000Y-78665000D01*
X103740000Y-76585000D02*
X103740000Y-75170000D01*
X103740000Y-80080000D02*
X103740000Y-78665000D01*
X103780000Y-76585000D02*
X103780000Y-75158000D01*
X103780000Y-80092000D02*
X103780000Y-78665000D01*
X103820000Y-76585000D02*
X103820000Y-75146000D01*
X103820000Y-80104000D02*
X103820000Y-78665000D01*
X103860000Y-76585000D02*
X103860000Y-75135000D01*
X103860000Y-80115000D02*
X103860000Y-78665000D01*
X103900000Y-76585000D02*
X103900000Y-75124000D01*
X103900000Y-80126000D02*
X103900000Y-78665000D01*
X103940000Y-76585000D02*
X103940000Y-75115000D01*
X103940000Y-80135000D02*
X103940000Y-78665000D01*
X103980000Y-76585000D02*
X103980000Y-75106000D01*
X103980000Y-80144000D02*
X103980000Y-78665000D01*
X104020000Y-76585000D02*
X104020000Y-75097000D01*
X104020000Y-80153000D02*
X104020000Y-78665000D01*
X104060000Y-76585000D02*
X104060000Y-75089000D01*
X104060000Y-80161000D02*
X104060000Y-78665000D01*
X104100000Y-76585000D02*
X104100000Y-75082000D01*
X104100000Y-80168000D02*
X104100000Y-78665000D01*
X104140000Y-76585000D02*
X104140000Y-75076000D01*
X104140000Y-80174000D02*
X104140000Y-78665000D01*
X104180000Y-76585000D02*
X104180000Y-75070000D01*
X104180000Y-80180000D02*
X104180000Y-78665000D01*
X104220000Y-76585000D02*
X104220000Y-75065000D01*
X104220000Y-80185000D02*
X104220000Y-78665000D01*
X104260000Y-76585000D02*
X104260000Y-75060000D01*
X104260000Y-80190000D02*
X104260000Y-78665000D01*
X104300000Y-76585000D02*
X104300000Y-75056000D01*
X104300000Y-80194000D02*
X104300000Y-78665000D01*
X104340000Y-80197000D02*
X104340000Y-75053000D01*
X104380000Y-80200000D02*
X104380000Y-75050000D01*
X104420000Y-80202000D02*
X104420000Y-75048000D01*
X104460000Y-80204000D02*
X104460000Y-75046000D01*
X104500000Y-80205000D02*
X104500000Y-75045000D01*
X104540000Y-80205000D02*
X104540000Y-75045000D01*
X107094775Y-79350000D02*
X107094775Y-78850000D01*
X107344775Y-79100000D02*
X106844775Y-79100000D01*
X107160000Y-77625000D02*
G75*
G02*
X101920000Y-77625000I-2620000J0D01*
G01*
X101920000Y-77625000D02*
G75*
G02*
X107160000Y-77625000I2620000J0D01*
G01*
%TO.C,R9*%
X91560000Y-78315000D02*
X91560000Y-78645000D01*
X91560000Y-81055000D02*
X91560000Y-80725000D01*
X98100000Y-78315000D02*
X91560000Y-78315000D01*
X98100000Y-78645000D02*
X98100000Y-78315000D01*
X98100000Y-80725000D02*
X98100000Y-81055000D01*
X98100000Y-81055000D02*
X91560000Y-81055000D01*
%TO.C,C1*%
X59960000Y-69335000D02*
X67200000Y-69335000D01*
X59960000Y-72075000D02*
X59960000Y-69335000D01*
X67200000Y-69335000D02*
X67200000Y-72075000D01*
X67200000Y-72075000D02*
X59960000Y-72075000D01*
%TO.C,C2*%
X59960000Y-63655000D02*
X67200000Y-63655000D01*
X59960000Y-68395000D02*
X59960000Y-63655000D01*
X67200000Y-63655000D02*
X67200000Y-68395000D01*
X67200000Y-68395000D02*
X59960000Y-68395000D01*
%TO.C,U1*%
X60920000Y-73085000D02*
X60920000Y-83365000D01*
X60920000Y-83365000D02*
X62570000Y-83365000D01*
X64570000Y-83365000D02*
X66220000Y-83365000D01*
X66220000Y-73085000D02*
X60920000Y-73085000D01*
X66220000Y-83365000D02*
X66220000Y-73085000D01*
X62570000Y-83365000D02*
G75*
G02*
X64570000Y-83365000I1000000J0D01*
G01*
%TO.C,D2*%
X111660000Y-92270000D02*
X111660000Y-89180000D01*
X106110000Y-90725000D02*
G75*
G02*
X111660000Y-89180170I2990000J0D01*
G01*
X111660000Y-92269830D02*
G75*
G02*
X106110000Y-90725000I-2560000J1544830D01*
G01*
X111600000Y-90725000D02*
G75*
G02*
X106600000Y-90725000I-2500000J0D01*
G01*
X106600000Y-90725000D02*
G75*
G02*
X111600000Y-90725000I2500000J0D01*
G01*
%TO.C,C8*%
X59960000Y-84395000D02*
X67200000Y-84395000D01*
X59960000Y-87135000D02*
X59960000Y-84395000D01*
X67200000Y-84395000D02*
X67200000Y-87135000D01*
X67200000Y-87135000D02*
X59960000Y-87135000D01*
%TO.C,R4*%
X54650000Y-59395000D02*
X54650000Y-65935000D01*
X54650000Y-65935000D02*
X54980000Y-65935000D01*
X54980000Y-59395000D02*
X54650000Y-59395000D01*
X57060000Y-59395000D02*
X57390000Y-59395000D01*
X57390000Y-59395000D02*
X57390000Y-65935000D01*
X57390000Y-65935000D02*
X57060000Y-65935000D01*
%TO.C,A1*%
X70070000Y-41035000D02*
X87870000Y-41035000D01*
X70070000Y-92035000D02*
X70070000Y-41035000D01*
X72590000Y-92035000D02*
X72590000Y-41035000D01*
X74970000Y-93235000D02*
X74970000Y-92035000D01*
X82970000Y-92035000D02*
X82970000Y-93235000D01*
X82970000Y-93235000D02*
X74970000Y-93235000D01*
X85390000Y-92035000D02*
X85390000Y-41035000D01*
X85870000Y-92335000D02*
X88170000Y-92335000D01*
X87870000Y-41035000D02*
X87870000Y-92035000D01*
X87870000Y-92035000D02*
X70070000Y-92035000D01*
X88170000Y-92335000D02*
X88170000Y-89935000D01*
%TO.C,C10*%
X59960000Y-88075000D02*
X67200000Y-88075000D01*
X59960000Y-92815000D02*
X59960000Y-88075000D01*
X67200000Y-88075000D02*
X67200000Y-92815000D01*
X67200000Y-92815000D02*
X59960000Y-92815000D01*
%TO.C,RV3*%
X43350000Y-80285000D02*
X43350000Y-76305000D01*
X43350000Y-82015000D02*
X43350000Y-81325000D01*
X43450000Y-82015000D02*
X43350000Y-82015000D01*
X43450000Y-82215000D02*
X43450000Y-82015000D01*
X44660000Y-74995000D02*
X46150000Y-74995000D01*
X44870000Y-82015000D02*
X44870000Y-82215000D01*
X44870000Y-82215000D02*
X43450000Y-82215000D01*
X47170000Y-74995000D02*
X48660000Y-74995000D01*
X48450000Y-82015000D02*
X44870000Y-82015000D01*
X48450000Y-82015000D02*
X48450000Y-82215000D01*
X49870000Y-82015000D02*
X49970000Y-82015000D01*
X49870000Y-82215000D02*
X48450000Y-82215000D01*
X49870000Y-82215000D02*
X49870000Y-82015000D01*
X49970000Y-76305000D02*
X49970000Y-79845000D01*
X49970000Y-82015000D02*
X49970000Y-81765000D01*
X43350000Y-76305000D02*
G75*
G02*
X44660000Y-74995000I1310000J0D01*
G01*
X48660000Y-74995000D02*
G75*
G02*
X49970000Y-76305000I0J-1310000D01*
G01*
%TD*%
%LPC*%
D14*
%TO.C,D1*%
X103970000Y-60245000D03*
D15*
X111590000Y-60245000D03*
%TD*%
D16*
%TO.C,C9*%
X61080000Y-96125000D03*
X66080000Y-96125000D03*
%TD*%
D17*
%TO.C,RV2*%
X49160000Y-72115000D03*
D18*
X46660000Y-67115000D03*
X44160000Y-72115000D03*
%TD*%
D16*
%TO.C,C5*%
X61080000Y-60345000D03*
X66080000Y-60345000D03*
%TD*%
D19*
%TO.C,C7*%
X112330000Y-77625000D03*
D16*
X109830000Y-77625000D03*
%TD*%
%TO.C,R6*%
X91020000Y-60265000D03*
X98640000Y-60265000D03*
%TD*%
D20*
%TO.C,U2*%
X97370000Y-69615000D03*
D21*
X94830000Y-69615000D03*
X92290000Y-69615000D03*
%TD*%
D22*
%TO.C,J3*%
X110820000Y-39070000D03*
X110820000Y-55300000D03*
X98120000Y-39070000D03*
X98120000Y-55300000D03*
%TD*%
D16*
%TO.C,R2*%
X52150000Y-77275000D03*
X52150000Y-69655000D03*
%TD*%
D23*
%TO.C,J1*%
X103970000Y-68665000D03*
X109970000Y-68665000D03*
D24*
X106470000Y-64015000D03*
%TD*%
D17*
%TO.C,RV1*%
X49160000Y-63425000D03*
D18*
X46660000Y-58425000D03*
X44160000Y-63425000D03*
%TD*%
D16*
%TO.C,C6*%
X56020000Y-80655000D03*
X56020000Y-85655000D03*
%TD*%
%TO.C,R7*%
X98640000Y-75265000D03*
X91020000Y-75265000D03*
%TD*%
%TO.C,R1*%
X56020000Y-77275000D03*
X56020000Y-69655000D03*
%TD*%
%TO.C,R5*%
X98640000Y-64685000D03*
X91020000Y-64685000D03*
%TD*%
D25*
%TO.C,SW1*%
X46330000Y-100705000D03*
D16*
X48870000Y-100705000D03*
X51410000Y-100705000D03*
X53950000Y-100705000D03*
X53950000Y-93085000D03*
X51410000Y-93085000D03*
X48870000Y-93085000D03*
X46330000Y-93085000D03*
%TD*%
D26*
%TO.C,J4*%
X67680000Y-35234999D03*
D27*
X70220000Y-35234999D03*
X72760000Y-35234999D03*
X75300000Y-35234999D03*
X77840000Y-35234999D03*
X80380000Y-35234999D03*
%TD*%
D16*
%TO.C,R8*%
X105400000Y-85655000D03*
X113020000Y-85655000D03*
%TD*%
D26*
%TO.C,J5*%
X89030000Y-35234999D03*
D27*
X86490000Y-35234999D03*
X83950000Y-35234999D03*
%TD*%
D17*
%TO.C,RV4*%
X49160000Y-89495000D03*
D18*
X46660000Y-84495000D03*
X44160000Y-89495000D03*
%TD*%
D22*
%TO.C,J2*%
X47110000Y-55300000D03*
X47110000Y-39070000D03*
X59810000Y-55300000D03*
X59810000Y-39070000D03*
%TD*%
D16*
%TO.C,R3*%
X52150000Y-66475000D03*
X52150000Y-58855000D03*
%TD*%
%TO.C,C4*%
X52150000Y-80655000D03*
X52150000Y-85655000D03*
%TD*%
D19*
%TO.C,C3*%
X105790000Y-77625000D03*
D16*
X103290000Y-77625000D03*
%TD*%
%TO.C,R9*%
X98640000Y-79685000D03*
X91020000Y-79685000D03*
%TD*%
%TO.C,C1*%
X61080000Y-70705000D03*
X66080000Y-70705000D03*
%TD*%
%TO.C,C2*%
X66080000Y-66025000D03*
X61080000Y-66025000D03*
%TD*%
D28*
%TO.C,U1*%
X67380000Y-82035000D03*
D29*
X67380000Y-79495000D03*
X67380000Y-76955000D03*
X67380000Y-74415000D03*
X59760000Y-74415000D03*
X59760000Y-76955000D03*
X59760000Y-79495000D03*
X59760000Y-82035000D03*
%TD*%
D14*
%TO.C,D2*%
X110370000Y-90725000D03*
D30*
X107830000Y-90725000D03*
%TD*%
D16*
%TO.C,C8*%
X66080000Y-85765000D03*
X61080000Y-85765000D03*
%TD*%
%TO.C,R4*%
X56020000Y-58855000D03*
X56020000Y-66475000D03*
%TD*%
D26*
%TO.C,A1*%
X86590000Y-90635000D03*
D27*
X86590000Y-88095000D03*
X86590000Y-85555000D03*
X86590000Y-83015000D03*
X86590000Y-80475000D03*
X86590000Y-77935000D03*
X86590000Y-75395000D03*
X86590000Y-72855000D03*
X86590000Y-70315000D03*
X86590000Y-67775000D03*
X86590000Y-65235000D03*
X86590000Y-62695000D03*
X86590000Y-60155000D03*
X86590000Y-57615000D03*
X86590000Y-55075000D03*
X86590000Y-52535000D03*
X86590000Y-49995000D03*
X86590000Y-47455000D03*
X86590000Y-44915000D03*
X86590000Y-42375000D03*
X71350000Y-42375000D03*
X71350000Y-44915000D03*
X71350000Y-47455000D03*
X71350000Y-49995000D03*
X71350000Y-52535000D03*
X71350000Y-55075000D03*
X71350000Y-57615000D03*
X71350000Y-60155000D03*
X71350000Y-62695000D03*
X71350000Y-65235000D03*
X71350000Y-67775000D03*
X71350000Y-70315000D03*
X71350000Y-72855000D03*
X71350000Y-75395000D03*
X71350000Y-77935000D03*
X71350000Y-80475000D03*
X71350000Y-83015000D03*
X71350000Y-85555000D03*
X71350000Y-88095000D03*
X71350000Y-90635000D03*
%TD*%
D31*
%TO.C,H1*%
X98470000Y-90155000D03*
%TD*%
D16*
%TO.C,C10*%
X66080000Y-90445000D03*
X61080000Y-90445000D03*
%TD*%
D17*
%TO.C,RV3*%
X49160000Y-80805000D03*
D18*
X46660000Y-75805000D03*
X44160000Y-80805000D03*
%TD*%
%LPD*%
M02*
