M48
; DRILL file {KiCad 9.0.6} date 2025-11-22T19:05:53-0600
; FORMAT={-:-/ absolute / inch / decimal}
; #@! TF.CreationDate,2025-11-22T19:05:53-06:00
; #@! TF.GenerationSoftware,Kicad,Pcbnew,9.0.6
; #@! TF.FileFunction,Plated,1,4,PTH
FMAT,2
INCH
; #@! TA.AperFunction,Plated,PTH,ComponentDrill
T1C0.0315
; #@! TA.AperFunction,Plated,PTH,ComponentDrill
T2C0.0354
; #@! TA.AperFunction,Plated,PTH,ComponentDrill
T3C0.0394
; #@! TA.AperFunction,Plated,PTH,ComponentDrill
T4C0.0433
; #@! TA.AperFunction,Plated,PTH,ComponentDrill
T5C0.0551
; #@! TA.AperFunction,Plated,PTH,ComponentDrill
T6C0.1772
%
G90
G05
T1
X1.824Y-3.6648
X1.824Y-3.9648
X1.924Y-3.6648
X1.924Y-3.9648
X2.024Y-3.6648
X2.024Y-3.9648
X2.0531Y-2.3171
X2.0531Y-2.6171
X2.0531Y-2.7423
X2.0531Y-3.0423
X2.0531Y-3.1754
X2.0531Y-3.3722
X2.124Y-3.6648
X2.124Y-3.9648
X2.2055Y-2.3171
X2.2055Y-2.6171
X2.2055Y-2.7423
X2.2055Y-3.0423
X2.2055Y-3.1754
X2.2055Y-3.3722
X2.3528Y-2.9297
X2.3528Y-3.0297
X2.3528Y-3.1297
X2.3528Y-3.2297
X2.4047Y-2.3758
X2.4047Y-2.5994
X2.4047Y-2.7837
X2.4047Y-3.3766
X2.4047Y-3.5608
X2.4047Y-3.7844
X2.6016Y-2.3758
X2.6016Y-2.5994
X2.6016Y-2.7837
X2.6016Y-3.3766
X2.6016Y-3.5608
X2.6016Y-3.7844
X2.6528Y-2.9297
X2.6528Y-3.0297
X2.6528Y-3.1297
X2.6528Y-3.2297
X3.5835Y-2.3726
X3.5835Y-2.5467
X3.5835Y-2.9632
X3.5835Y-3.1372
X3.6335Y-2.7407
X3.7335Y-2.7407
X3.8335Y-2.7407
X3.8835Y-2.3726
X3.8835Y-2.5467
X3.8835Y-2.9632
X3.8835Y-3.1372
X4.0665Y-3.0561
X4.1496Y-3.3722
X4.165Y-3.0561
X4.324Y-3.0561
X4.4224Y-3.0561
X4.4496Y-3.3722
T2
X4.0933Y-2.3719
X4.2453Y-3.5719
X4.3453Y-3.5719
X4.3933Y-2.3719
T3
X1.7386Y-2.497
X1.7386Y-2.8392
X1.7386Y-3.1813
X1.7386Y-3.5234
X1.837Y-2.3002
X1.837Y-2.6423
X1.837Y-2.9844
X1.837Y-3.3266
X1.9354Y-2.497
X1.9354Y-2.8392
X1.9354Y-3.1813
X1.9354Y-3.5234
X2.6646Y-1.3872
X2.7646Y-1.3872
X2.8646Y-1.3872
X2.9646Y-1.3872
X3.0646Y-1.3872
X3.1646Y-1.3872
X3.3051Y-1.3872
X3.4051Y-1.3872
X3.5051Y-1.3872
T4
X2.8091Y-1.6683
X2.8091Y-1.7683
X2.8091Y-1.8683
X2.8091Y-1.9683
X2.8091Y-2.0683
X2.8091Y-2.1683
X2.8091Y-2.2683
X2.8091Y-2.3683
X2.8091Y-2.4683
X2.8091Y-2.5683
X2.8091Y-2.6683
X2.8091Y-2.7683
X2.8091Y-2.8683
X2.8091Y-2.9683
X2.8091Y-3.0683
X2.8091Y-3.1683
X2.8091Y-3.2683
X2.8091Y-3.3683
X2.8091Y-3.4683
X2.8091Y-3.5683
X3.4091Y-1.6683
X3.4091Y-1.7683
X3.4091Y-1.8683
X3.4091Y-1.9683
X3.4091Y-2.0683
X3.4091Y-2.1683
X3.4091Y-2.2683
X3.4091Y-2.3683
X3.4091Y-2.4683
X3.4091Y-2.5683
X3.4091Y-2.6683
X3.4091Y-2.7683
X3.4091Y-2.8683
X3.4091Y-2.9683
X3.4091Y-3.0683
X3.4091Y-3.1683
X3.4091Y-3.2683
X3.4091Y-3.3683
X3.4091Y-3.4683
X3.4091Y-3.5683
T5
X1.8547Y-1.5382
X1.8547Y-2.1772
X2.3547Y-1.5382
X2.3547Y-2.1772
X3.863Y-1.5382
X3.863Y-2.1772
X4.363Y-1.5382
X4.363Y-2.1772
T6
X3.8768Y-3.5494
T1
G00X4.0933Y-2.7467
M15
G01X4.0933Y-2.66
M16
G05
G00X4.2252Y-2.5203
M15
G01X4.1583Y-2.5203
M16
G05
G00X4.3295Y-2.7467
M15
G01X4.3295Y-2.66
M16
G05
M30
