%TF.GenerationSoftware,KiCad,Pcbnew,9.0.6*%
%TF.CreationDate,2025-11-22T19:05:53-06:00*%
%TF.ProjectId,wah,7761682e-6b69-4636-9164-5f7063625858,0.7*%
%TF.SameCoordinates,Original*%
%TF.FileFunction,Soldermask,Bot*%
%TF.FilePolarity,Negative*%
%FSLAX46Y46*%
G04 Gerber Fmt 4.6, Leading zero omitted, Abs format (unit mm)*
G04 Created by KiCad (PCBNEW 9.0.6) date 2025-11-22 19:05:53*
%MOMM*%
%LPD*%
G01*
G04 APERTURE LIST*
G04 Aperture macros list*
%AMRoundRect*
0 Rectangle with rounded corners*
0 $1 Rounding radius*
0 $2 $3 $4 $5 $6 $7 $8 $9 X,Y pos of 4 corners*
0 Add a 4 corners polygon primitive as box body*
4,1,4,$2,$3,$4,$5,$6,$7,$8,$9,$2,$3,0*
0 Add four circle primitives for the rounded corners*
1,1,$1+$1,$2,$3*
1,1,$1+$1,$4,$5*
1,1,$1+$1,$6,$7*
1,1,$1+$1,$8,$9*
0 Add four rect primitives between the rounded corners*
20,1,$1+$1,$2,$3,$4,$5,0*
20,1,$1+$1,$4,$5,$6,$7,0*
20,1,$1+$1,$6,$7,$8,$9,0*
20,1,$1+$1,$8,$9,$2,$3,0*%
G04 Aperture macros list end*
%ADD10R,1.800000X1.800000*%
%ADD11O,1.800000X1.800000*%
%ADD12C,1.600000*%
%ADD13R,1.560000X1.560000*%
%ADD14C,1.560000*%
%ADD15RoundRect,0.250000X0.550000X0.550000X-0.550000X0.550000X-0.550000X-0.550000X0.550000X-0.550000X0*%
%ADD16R,1.500000X1.500000*%
%ADD17C,1.500000*%
%ADD18C,3.000000*%
%ADD19O,2.300000X4.500000*%
%ADD20O,4.000000X2.300000*%
%ADD21RoundRect,0.250000X0.550000X-0.550000X0.550000X0.550000X-0.550000X0.550000X-0.550000X-0.550000X0*%
%ADD22R,1.700000X1.700000*%
%ADD23C,1.700000*%
%ADD24R,1.600000X1.600000*%
%ADD25O,1.600000X1.600000*%
%ADD26C,1.800000*%
%ADD27C,9.000000*%
G04 APERTURE END LIST*
D10*
%TO.C,D1*%
X103970000Y-60245000D03*
D11*
X111590000Y-60245000D03*
%TD*%
D12*
%TO.C,C9*%
X61080000Y-96125000D03*
X66080000Y-96125000D03*
%TD*%
D13*
%TO.C,RV2*%
X49160000Y-72115000D03*
D14*
X46660000Y-67115000D03*
X44160000Y-72115000D03*
%TD*%
D12*
%TO.C,C5*%
X61080000Y-60345000D03*
X66080000Y-60345000D03*
%TD*%
D15*
%TO.C,C7*%
X112330000Y-77625000D03*
D12*
X109830000Y-77625000D03*
%TD*%
%TO.C,R6*%
X91020000Y-60265000D03*
X98640000Y-60265000D03*
%TD*%
D16*
%TO.C,U2*%
X97370000Y-69615000D03*
D17*
X94830000Y-69615000D03*
X92290000Y-69615000D03*
%TD*%
D18*
%TO.C,J3*%
X110820000Y-39070000D03*
X110820000Y-55300000D03*
X98120000Y-39070000D03*
X98120000Y-55300000D03*
%TD*%
D12*
%TO.C,R2*%
X52150000Y-77275000D03*
X52150000Y-69655000D03*
%TD*%
D19*
%TO.C,J1*%
X103970000Y-68665000D03*
X109970000Y-68665000D03*
D20*
X106470000Y-64015000D03*
%TD*%
D13*
%TO.C,RV1*%
X49160000Y-63425000D03*
D14*
X46660000Y-58425000D03*
X44160000Y-63425000D03*
%TD*%
D12*
%TO.C,C6*%
X56020000Y-80655000D03*
X56020000Y-85655000D03*
%TD*%
%TO.C,R7*%
X98640000Y-75265000D03*
X91020000Y-75265000D03*
%TD*%
%TO.C,R1*%
X56020000Y-77275000D03*
X56020000Y-69655000D03*
%TD*%
%TO.C,R5*%
X98640000Y-64685000D03*
X91020000Y-64685000D03*
%TD*%
D21*
%TO.C,SW1*%
X46330000Y-100705000D03*
D12*
X48870000Y-100705000D03*
X51410000Y-100705000D03*
X53950000Y-100705000D03*
X53950000Y-93085000D03*
X51410000Y-93085000D03*
X48870000Y-93085000D03*
X46330000Y-93085000D03*
%TD*%
D22*
%TO.C,J4*%
X67680000Y-35234999D03*
D23*
X70220000Y-35234999D03*
X72760000Y-35234999D03*
X75300000Y-35234999D03*
X77840000Y-35234999D03*
X80380000Y-35234999D03*
%TD*%
D12*
%TO.C,R8*%
X105400000Y-85655000D03*
X113020000Y-85655000D03*
%TD*%
D22*
%TO.C,J5*%
X89030000Y-35234999D03*
D23*
X86490000Y-35234999D03*
X83950000Y-35234999D03*
%TD*%
D13*
%TO.C,RV4*%
X49160000Y-89495000D03*
D14*
X46660000Y-84495000D03*
X44160000Y-89495000D03*
%TD*%
D18*
%TO.C,J2*%
X47110000Y-55300000D03*
X47110000Y-39070000D03*
X59810000Y-55300000D03*
X59810000Y-39070000D03*
%TD*%
D12*
%TO.C,R3*%
X52150000Y-66475000D03*
X52150000Y-58855000D03*
%TD*%
%TO.C,C4*%
X52150000Y-80655000D03*
X52150000Y-85655000D03*
%TD*%
D15*
%TO.C,C3*%
X105790000Y-77625000D03*
D12*
X103290000Y-77625000D03*
%TD*%
%TO.C,R9*%
X98640000Y-79685000D03*
X91020000Y-79685000D03*
%TD*%
%TO.C,C1*%
X61080000Y-70705000D03*
X66080000Y-70705000D03*
%TD*%
%TO.C,C2*%
X66080000Y-66025000D03*
X61080000Y-66025000D03*
%TD*%
D24*
%TO.C,U1*%
X67380000Y-82035000D03*
D25*
X67380000Y-79495000D03*
X67380000Y-76955000D03*
X67380000Y-74415000D03*
X59760000Y-74415000D03*
X59760000Y-76955000D03*
X59760000Y-79495000D03*
X59760000Y-82035000D03*
%TD*%
D10*
%TO.C,D2*%
X110370000Y-90725000D03*
D26*
X107830000Y-90725000D03*
%TD*%
D12*
%TO.C,C8*%
X66080000Y-85765000D03*
X61080000Y-85765000D03*
%TD*%
%TO.C,R4*%
X56020000Y-58855000D03*
X56020000Y-66475000D03*
%TD*%
D22*
%TO.C,A1*%
X86590000Y-90635000D03*
D23*
X86590000Y-88095000D03*
X86590000Y-85555000D03*
X86590000Y-83015000D03*
X86590000Y-80475000D03*
X86590000Y-77935000D03*
X86590000Y-75395000D03*
X86590000Y-72855000D03*
X86590000Y-70315000D03*
X86590000Y-67775000D03*
X86590000Y-65235000D03*
X86590000Y-62695000D03*
X86590000Y-60155000D03*
X86590000Y-57615000D03*
X86590000Y-55075000D03*
X86590000Y-52535000D03*
X86590000Y-49995000D03*
X86590000Y-47455000D03*
X86590000Y-44915000D03*
X86590000Y-42375000D03*
X71350000Y-42375000D03*
X71350000Y-44915000D03*
X71350000Y-47455000D03*
X71350000Y-49995000D03*
X71350000Y-52535000D03*
X71350000Y-55075000D03*
X71350000Y-57615000D03*
X71350000Y-60155000D03*
X71350000Y-62695000D03*
X71350000Y-65235000D03*
X71350000Y-67775000D03*
X71350000Y-70315000D03*
X71350000Y-72855000D03*
X71350000Y-75395000D03*
X71350000Y-77935000D03*
X71350000Y-80475000D03*
X71350000Y-83015000D03*
X71350000Y-85555000D03*
X71350000Y-88095000D03*
X71350000Y-90635000D03*
%TD*%
D27*
%TO.C,H1*%
X98470000Y-90155000D03*
%TD*%
D12*
%TO.C,C10*%
X66080000Y-90445000D03*
X61080000Y-90445000D03*
%TD*%
D13*
%TO.C,RV3*%
X49160000Y-80805000D03*
D14*
X46660000Y-75805000D03*
X44160000Y-80805000D03*
%TD*%
M02*
