M48
; DRILL file {KiCad 9.0.5} date 2025-10-31T17:46:48-0500
; FORMAT={-:-/ absolute / inch / decimal}
; #@! TF.CreationDate,2025-10-31T17:46:48-05:00
; #@! TF.GenerationSoftware,Kicad,Pcbnew,9.0.5
; #@! TF.FileFunction,Plated,1,4,PTH
FMAT,2
INCH
; #@! TA.AperFunction,Plated,PTH,ComponentDrill
T1C0.0276
; #@! TA.AperFunction,Plated,PTH,ComponentDrill
T2C0.0315
; #@! TA.AperFunction,Plated,PTH,ComponentDrill
T3C0.0354
; #@! TA.AperFunction,Plated,PTH,ComponentDrill
T4C0.0394
; #@! TA.AperFunction,Plated,PTH,ComponentDrill
T5C0.0433
; #@! TA.AperFunction,Plated,PTH,ComponentDrill
T6C0.0472
; #@! TA.AperFunction,Plated,PTH,ComponentDrill
T7C0.0551
%
G90
G05
T1
X5.0663Y-3.0854
X5.0663Y-3.2902
X5.2376Y-3.0854
X5.2376Y-3.2902
X5.4089Y-3.0854
X5.4089Y-3.2902
T2
X1.878Y-2.9541
X1.878Y-3.2809
X1.9764Y-2.9541
X1.9764Y-3.2809
X2.3189Y-2.7809
X2.3189Y-2.9568
X2.3189Y-3.1326
X2.3189Y-3.3085
X2.3482Y-2.4343
X2.3537Y-1.4315
X2.3537Y-1.7315
X2.4482Y-2.4343
X2.5152Y-1.4315
X2.5152Y-1.7315
X2.5157Y-2.7809
X2.5157Y-2.9568
X2.5157Y-3.1326
X2.5157Y-3.3085
X2.5482Y-2.4343
X3.4396Y-2.4201
X3.4396Y-2.5201
X3.4396Y-2.6201
X3.4396Y-2.7201
X3.44Y-1.5058
X3.44Y-1.6793
X3.44Y-1.8528
X3.44Y-2.0264
X3.4522Y-2.9004
X3.4522Y-3.111
X3.4522Y-3.3217
X3.4915Y-2.2193
X3.649Y-2.9004
X3.649Y-3.111
X3.649Y-3.3217
X3.6884Y-2.2193
X3.7396Y-2.4201
X3.7396Y-2.5201
X3.7396Y-2.6201
X3.7396Y-2.7201
X3.74Y-1.5058
X3.74Y-1.6793
X3.74Y-1.8528
X3.74Y-2.0264
X3.9325Y-1.4988
X3.9325Y-1.6957
X3.9325Y-1.91
X3.9325Y-2.1068
X3.9325Y-2.4358
X3.9325Y-2.7358
X3.9325Y-2.9035
X3.9325Y-3.2035
X4.9719Y-1.6051
X4.9719Y-1.9051
T3
X2.4364Y-1.9004
X2.4364Y-2.2004
X5.1547Y-1.6051
X5.2547Y-1.6051
T4
X2.2026Y-1.4855
X2.2026Y-1.5839
X2.2026Y-1.6823
X2.2026Y-2.0099
X2.2026Y-2.1083
X2.2026Y-2.2068
T5
X2.6776Y-1.3839
X2.6776Y-1.4839
X2.6776Y-1.5839
X2.6776Y-1.6839
X2.6776Y-1.7839
X2.6776Y-1.8839
X2.6776Y-1.9839
X2.6776Y-2.0839
X2.6776Y-2.1839
X2.6776Y-2.2839
X2.6776Y-2.3839
X2.6776Y-2.4839
X2.6776Y-2.5839
X2.6776Y-2.6839
X2.6776Y-2.7839
X2.6776Y-2.8839
X2.6776Y-2.9839
X2.6776Y-3.0839
X2.6776Y-3.1839
X2.6776Y-3.2839
X3.2776Y-1.3839
X3.2776Y-1.4839
X3.2776Y-1.5839
X3.2776Y-1.6839
X3.2776Y-1.7839
X3.2776Y-1.8839
X3.2776Y-1.9839
X3.2776Y-2.0839
X3.2776Y-2.1839
X3.2776Y-2.2839
X3.2776Y-2.3839
X3.2776Y-2.4839
X3.2776Y-2.5839
X3.2776Y-2.6839
X3.2776Y-2.7839
X3.2776Y-2.8839
X3.2776Y-2.9839
X3.2776Y-3.0839
X3.2776Y-3.1839
X3.2776Y-3.2839
T7
X4.1451Y-1.5933
X4.1451Y-2.0933
X4.1451Y-2.672
X4.1451Y-3.172
X4.7841Y-1.5933
X4.7841Y-2.0933
X4.7841Y-2.672
X4.7841Y-3.172
T2
G00X1.9915Y-2.5264
M15
G01X1.9915Y-2.613
M16
G05
G00X2.0959Y-2.7528
M15
G01X2.1628Y-2.7528
M16
G05
G00X2.2278Y-2.5264
M15
G01X2.2278Y-2.613
M16
G05
T5
G00X1.929Y-1.3949
M15
G01X1.8857Y-1.3949
M16
G05
G00X1.929Y-1.7729
M15
G01X1.8857Y-1.7729
M16
G05
G00X1.929Y-1.9194
M15
G01X1.8857Y-1.9194
M16
G05
G00X1.929Y-2.2973
M15
G01X1.8857Y-2.2973
M16
G05
T6
G00X5.0329Y-2.1949
M15
G01X5.0329Y-2.1398
M16
G05
G00X5.0329Y-2.4035
M15
G01X5.0329Y-2.3484
M16
G05
G00X5.0329Y-2.6122
M15
G01X5.0329Y-2.5571
M16
G05
G00X5.2179Y-2.1949
M15
G01X5.2179Y-2.1398
M16
G05
G00X5.2179Y-2.4035
M15
G01X5.2179Y-2.3484
M16
G05
G00X5.2179Y-2.6122
M15
G01X5.2179Y-2.5571
M16
G05
G00X5.403Y-2.1949
M15
G01X5.403Y-2.1398
M16
G05
G00X5.403Y-2.4035
M15
G01X5.403Y-2.3484
M16
G05
G00X5.403Y-2.6122
M15
G01X5.403Y-2.5571
M16
G05
M30
