%TF.GenerationSoftware,KiCad,Pcbnew,9.0.6*%
%TF.CreationDate,2025-11-23T18:55:42-06:00*%
%TF.ProjectId,wah,7761682e-6b69-4636-9164-5f7063625858,0.8*%
%TF.SameCoordinates,Original*%
%TF.FileFunction,Copper,L2,Inr*%
%TF.FilePolarity,Positive*%
%FSLAX46Y46*%
G04 Gerber Fmt 4.6, Leading zero omitted, Abs format (unit mm)*
G04 Created by KiCad (PCBNEW 9.0.6) date 2025-11-23 18:55:42*
%MOMM*%
%LPD*%
G01*
G04 APERTURE LIST*
G04 Aperture macros list*
%AMRoundRect*
0 Rectangle with rounded corners*
0 $1 Rounding radius*
0 $2 $3 $4 $5 $6 $7 $8 $9 X,Y pos of 4 corners*
0 Add a 4 corners polygon primitive as box body*
4,1,4,$2,$3,$4,$5,$6,$7,$8,$9,$2,$3,0*
0 Add four circle primitives for the rounded corners*
1,1,$1+$1,$2,$3*
1,1,$1+$1,$4,$5*
1,1,$1+$1,$6,$7*
1,1,$1+$1,$8,$9*
0 Add four rect primitives between the rounded corners*
20,1,$1+$1,$2,$3,$4,$5,0*
20,1,$1+$1,$4,$5,$6,$7,0*
20,1,$1+$1,$6,$7,$8,$9,0*
20,1,$1+$1,$8,$9,$2,$3,0*%
G04 Aperture macros list end*
%TA.AperFunction,ComponentPad*%
%ADD10R,1.800000X1.800000*%
%TD*%
%TA.AperFunction,ComponentPad*%
%ADD11O,1.800000X1.800000*%
%TD*%
%TA.AperFunction,ComponentPad*%
%ADD12C,1.600000*%
%TD*%
%TA.AperFunction,ComponentPad*%
%ADD13R,1.400000X1.400000*%
%TD*%
%TA.AperFunction,ComponentPad*%
%ADD14C,1.400000*%
%TD*%
%TA.AperFunction,ComponentPad*%
%ADD15RoundRect,0.250000X0.550000X0.550000X-0.550000X0.550000X-0.550000X-0.550000X0.550000X-0.550000X0*%
%TD*%
%TA.AperFunction,ComponentPad*%
%ADD16R,1.500000X1.500000*%
%TD*%
%TA.AperFunction,ComponentPad*%
%ADD17C,1.500000*%
%TD*%
%TA.AperFunction,ComponentPad*%
%ADD18C,3.000000*%
%TD*%
%TA.AperFunction,ComponentPad*%
%ADD19O,2.300000X4.500000*%
%TD*%
%TA.AperFunction,ComponentPad*%
%ADD20O,4.000000X2.300000*%
%TD*%
%TA.AperFunction,ComponentPad*%
%ADD21RoundRect,0.250000X-0.550000X0.550000X-0.550000X-0.550000X0.550000X-0.550000X0.550000X0.550000X0*%
%TD*%
%TA.AperFunction,ComponentPad*%
%ADD22R,1.700000X1.700000*%
%TD*%
%TA.AperFunction,ComponentPad*%
%ADD23C,1.700000*%
%TD*%
%TA.AperFunction,ComponentPad*%
%ADD24R,1.600000X1.600000*%
%TD*%
%TA.AperFunction,ComponentPad*%
%ADD25O,1.600000X1.600000*%
%TD*%
%TA.AperFunction,ComponentPad*%
%ADD26C,1.800000*%
%TD*%
%TA.AperFunction,ComponentPad*%
%ADD27C,9.000000*%
%TD*%
%TA.AperFunction,Conductor*%
%ADD28C,0.250000*%
%TD*%
%TA.AperFunction,Conductor*%
%ADD29C,1.000000*%
%TD*%
G04 APERTURE END LIST*
D10*
%TO.N,+9V*%
%TO.C,D1*%
X103970000Y-60245000D03*
D11*
%TO.N,Net-(D1-A)*%
X111590000Y-60245000D03*
%TD*%
D12*
%TO.N,/AUDIO_OUT*%
%TO.C,C9*%
X61080000Y-96125000D03*
%TO.N,Net-(C9-Pad2)*%
X66080000Y-96125000D03*
%TD*%
D13*
%TO.N,GND*%
%TO.C,RV2*%
X44230000Y-71995000D03*
D14*
%TO.N,/POT2*%
X46770000Y-69455000D03*
%TO.N,VDD*%
X49310000Y-71995000D03*
%TD*%
D12*
%TO.N,Net-(C5-Pad1)*%
%TO.C,C5*%
X61080000Y-60345000D03*
%TO.N,/AUDIO_IN*%
X66080000Y-60345000D03*
%TD*%
D15*
%TO.N,/VREF*%
%TO.C,C7*%
X112330000Y-77625000D03*
D12*
%TO.N,GND*%
X109830000Y-77625000D03*
%TD*%
%TO.N,GND*%
%TO.C,R6*%
X91020000Y-60265000D03*
%TO.N,/VREF*%
X98640000Y-60265000D03*
%TD*%
D16*
%TO.N,Net-(U1C-V+)*%
%TO.C,U2*%
X97370000Y-69615000D03*
D17*
%TO.N,GND*%
X94830000Y-69615000D03*
%TO.N,+9V*%
X92290000Y-69615000D03*
%TD*%
D18*
%TO.N,GND*%
%TO.C,J3*%
X110820000Y-39070000D03*
%TO.N,N/C*%
X110820000Y-55300000D03*
%TO.N,/J_OUT*%
X98120000Y-39070000D03*
%TO.N,N/C*%
X98120000Y-55300000D03*
%TD*%
D12*
%TO.N,/VREF*%
%TO.C,R2*%
X52150000Y-77275000D03*
%TO.N,Net-(U1B-+)*%
X52150000Y-69655000D03*
%TD*%
D19*
%TO.N,GND*%
%TO.C,J1*%
X103970000Y-68665000D03*
%TO.N,Net-(D1-A)*%
X109970000Y-68665000D03*
D20*
%TO.N,unconnected-(J1-Pad3)*%
X106470000Y-64015000D03*
%TD*%
D13*
%TO.N,GND*%
%TO.C,RV1*%
X44230000Y-81075000D03*
D14*
%TO.N,/POT1*%
X46770000Y-78535000D03*
%TO.N,VDD*%
X49310000Y-81075000D03*
%TD*%
D12*
%TO.N,Net-(U1C-V+)*%
%TO.C,C6*%
X56020000Y-80655000D03*
%TO.N,GND*%
X56020000Y-85655000D03*
%TD*%
%TO.N,Net-(C9-Pad2)*%
%TO.C,R7*%
X98640000Y-75265000D03*
%TO.N,Net-(U1A-+)*%
X91020000Y-75265000D03*
%TD*%
%TO.N,/FX_IN*%
%TO.C,R1*%
X56020000Y-77275000D03*
%TO.N,Net-(C1-Pad1)*%
X56020000Y-69655000D03*
%TD*%
%TO.N,Net-(U1C-V+)*%
%TO.C,R5*%
X98640000Y-64685000D03*
%TO.N,/VREF*%
X91020000Y-64685000D03*
%TD*%
D21*
%TO.N,/SW1*%
%TO.C,SW1*%
X54890000Y-91505000D03*
D12*
%TO.N,/SW2*%
X52350000Y-91505000D03*
%TO.N,/SW3*%
X49810000Y-91505000D03*
%TO.N,/SW4*%
X47270000Y-91505000D03*
%TO.N,GND*%
X47270000Y-99125000D03*
X49810000Y-99125000D03*
X52350000Y-99125000D03*
X54890000Y-99125000D03*
%TD*%
D22*
%TO.N,+9V*%
%TO.C,J4*%
X67680000Y-35234999D03*
D23*
%TO.N,/J_IN*%
X70220000Y-35234999D03*
%TO.N,/J_OUT*%
X72760000Y-35234999D03*
%TO.N,/FX_IN*%
X75300000Y-35234999D03*
%TO.N,/FX_OUT*%
X77840000Y-35234999D03*
%TO.N,/LED*%
X80380000Y-35234999D03*
%TD*%
D12*
%TO.N,/LED*%
%TO.C,R8*%
X105400000Y-85655000D03*
%TO.N,Net-(D2-A)*%
X113020000Y-85655000D03*
%TD*%
D22*
%TO.N,GND*%
%TO.C,J5*%
X89030000Y-35234999D03*
D23*
%TO.N,/WAH_POT*%
X86490000Y-35234999D03*
%TO.N,VDD*%
X83950000Y-35234999D03*
%TD*%
D18*
%TO.N,GND*%
%TO.C,J2*%
X47110000Y-55300000D03*
%TO.N,N/C*%
X47110000Y-39070000D03*
%TO.N,/J_IN*%
X59810000Y-55300000D03*
%TO.N,N/C*%
X59810000Y-39070000D03*
%TD*%
D12*
%TO.N,Net-(U1B--)*%
%TO.C,R3*%
X52150000Y-66475000D03*
%TO.N,Net-(C5-Pad1)*%
X52150000Y-58855000D03*
%TD*%
%TO.N,Net-(U1C-V+)*%
%TO.C,C4*%
X52150000Y-80655000D03*
%TO.N,GND*%
X52150000Y-85655000D03*
%TD*%
D15*
%TO.N,+9V*%
%TO.C,C3*%
X105790000Y-77625000D03*
D12*
%TO.N,GND*%
X103290000Y-77625000D03*
%TD*%
%TO.N,/VREF*%
%TO.C,R9*%
X98640000Y-79685000D03*
%TO.N,Net-(U1A-+)*%
X91020000Y-79685000D03*
%TD*%
%TO.N,Net-(C1-Pad1)*%
%TO.C,C1*%
X61080000Y-70705000D03*
%TO.N,GND*%
X66080000Y-70705000D03*
%TD*%
%TO.N,Net-(C1-Pad1)*%
%TO.C,C2*%
X66080000Y-66025000D03*
%TO.N,Net-(U1B-+)*%
X61080000Y-66025000D03*
%TD*%
D24*
%TO.N,/FX_OUT*%
%TO.C,U1*%
X67380000Y-82035000D03*
D25*
X67380000Y-79495000D03*
%TO.N,Net-(U1A-+)*%
X67380000Y-76955000D03*
%TO.N,GND*%
X67380000Y-74415000D03*
%TO.N,Net-(U1B-+)*%
X59760000Y-74415000D03*
%TO.N,Net-(U1B--)*%
X59760000Y-76955000D03*
X59760000Y-79495000D03*
%TO.N,Net-(U1C-V+)*%
X59760000Y-82035000D03*
%TD*%
D10*
%TO.N,GND*%
%TO.C,D2*%
X110370000Y-90725000D03*
D26*
%TO.N,Net-(D2-A)*%
X107830000Y-90725000D03*
%TD*%
D12*
%TO.N,/AUDIO_OUT*%
%TO.C,C8*%
X66080000Y-85765000D03*
%TO.N,GND*%
X61080000Y-85765000D03*
%TD*%
%TO.N,/AUDIO_IN*%
%TO.C,R4*%
X56020000Y-58855000D03*
%TO.N,GND*%
X56020000Y-66475000D03*
%TD*%
D22*
%TO.N,unconnected-(A1-USB_ID-Pad1)*%
%TO.C,A1*%
X71350000Y-43095000D03*
D23*
%TO.N,unconnected-(A1-SD_DATA_3-Pad2)*%
X71350000Y-45635000D03*
%TO.N,unconnected-(A1-SD_DATA_2-Pad3)*%
X71350000Y-48175000D03*
%TO.N,unconnected-(A1-SD_DATA_1-Pad4)*%
X71350000Y-50715000D03*
%TO.N,unconnected-(A1-SD_DATA_0-Pad5)*%
X71350000Y-53255000D03*
%TO.N,unconnected-(A1-SD_CMD-Pad6)*%
X71350000Y-55795000D03*
%TO.N,unconnected-(A1-SD_CLK-Pad7)*%
X71350000Y-58335000D03*
%TO.N,unconnected-(A1-SPI1_CS-Pad8)*%
X71350000Y-60875000D03*
%TO.N,unconnected-(A1-SPI1_SCK-Pad9)*%
X71350000Y-63415000D03*
%TO.N,unconnected-(A1-SPI1_POCI-Pad10)*%
X71350000Y-65955000D03*
%TO.N,unconnected-(A1-SPI1_PICO-Pad11)*%
X71350000Y-68495000D03*
%TO.N,unconnected-(A1-I2C1_SCL-Pad12)*%
X71350000Y-71035000D03*
%TO.N,unconnected-(A1-I2C1_SDA-Pad13)*%
X71350000Y-73575000D03*
%TO.N,unconnected-(A1-USART1_TX-Pad14)*%
X71350000Y-76115000D03*
%TO.N,unconnected-(A1-USART1_RX-Pad15)*%
X71350000Y-78655000D03*
%TO.N,/AUDIO_IN*%
X71350000Y-81195000D03*
%TO.N,unconnected-(A1-AUDIO_IN_2-Pad17)*%
X71350000Y-83735000D03*
%TO.N,/AUDIO_OUT*%
X71350000Y-86275000D03*
%TO.N,unconnected-(A1-AUDIO_OUT_2-Pad19)*%
X71350000Y-88815000D03*
%TO.N,GND*%
X71350000Y-91355000D03*
%TO.N,VDD*%
X86590000Y-91355000D03*
%TO.N,/POT1*%
X86590000Y-88815000D03*
%TO.N,/POT2*%
X86590000Y-86275000D03*
%TO.N,/POT3*%
X86590000Y-83735000D03*
%TO.N,unconnected-(A1-ADC_3-Pad25)*%
X86590000Y-81195000D03*
%TO.N,/WAH_POT*%
X86590000Y-78655000D03*
%TO.N,/SW1*%
X86590000Y-76115000D03*
%TO.N,/SW2*%
X86590000Y-73575000D03*
%TO.N,/SW3*%
X86590000Y-71035000D03*
%TO.N,/SW4*%
X86590000Y-68495000D03*
%TO.N,unconnected-(A1-SAI2_MCLK-Pad31)*%
X86590000Y-65955000D03*
%TO.N,unconnected-(A1-SAI2_SD_B-Pad32)*%
X86590000Y-63415000D03*
%TO.N,unconnected-(A1-SAI2_SD_A-Pad33)*%
X86590000Y-60875000D03*
%TO.N,unconnected-(A1-SAI2_FS-Pad34)*%
X86590000Y-58335000D03*
%TO.N,unconnected-(A1-SAI2_SCK-Pad35)*%
X86590000Y-55795000D03*
%TO.N,unconnected-(A1-USB_D_--Pad36)*%
X86590000Y-53255000D03*
%TO.N,unconnected-(A1-USB_D_+-Pad37)*%
X86590000Y-50715000D03*
%TO.N,unconnected-(A1-3V3_D-Pad38)*%
X86590000Y-48175000D03*
%TO.N,+9V*%
X86590000Y-45635000D03*
%TO.N,GND*%
X86590000Y-43095000D03*
%TD*%
D27*
%TO.N,GND*%
%TO.C,H1*%
X98470000Y-90155000D03*
%TD*%
D12*
%TO.N,Net-(U1A-+)*%
%TO.C,C10*%
X66080000Y-90445000D03*
%TO.N,GND*%
X61080000Y-90445000D03*
%TD*%
D13*
%TO.N,GND*%
%TO.C,RV3*%
X44230000Y-62915000D03*
D14*
%TO.N,/POT3*%
X46770000Y-60375000D03*
%TO.N,VDD*%
X49310000Y-62915000D03*
%TD*%
D28*
%TO.N,/POT1*%
X68773884Y-72850000D02*
X52455000Y-72850000D01*
X70862884Y-74939000D02*
X68773884Y-72850000D01*
X86590000Y-88815000D02*
X72714000Y-74939000D01*
X52455000Y-72850000D02*
X46770000Y-78535000D01*
X72714000Y-74939000D02*
X70862884Y-74939000D01*
%TO.N,/POT2*%
X72714000Y-72399000D02*
X86590000Y-86275000D01*
X46770000Y-69455000D02*
X48930000Y-69455000D01*
X51874000Y-72399000D02*
X72714000Y-72399000D01*
X48930000Y-69455000D02*
X51874000Y-72399000D01*
%TO.N,/POT3*%
X72570000Y-69715000D02*
X86590000Y-83735000D01*
X52140000Y-60375000D02*
X60190000Y-68425000D01*
X60190000Y-68425000D02*
X68400000Y-68425000D01*
X68400000Y-68425000D02*
X69690000Y-69715000D01*
X46770000Y-60375000D02*
X52140000Y-60375000D01*
X69690000Y-69715000D02*
X72570000Y-69715000D01*
D29*
%TO.N,/AUDIO_OUT*%
X63960000Y-87885000D02*
X63960000Y-93245000D01*
X66080000Y-85765000D02*
X63960000Y-87885000D01*
X63960000Y-93245000D02*
X61080000Y-96125000D01*
%TO.N,Net-(U1A-+)*%
X87210000Y-95215000D02*
X91020000Y-91405000D01*
X66080000Y-90445000D02*
X68795446Y-90445000D01*
X68881000Y-78456000D02*
X68881000Y-90359446D01*
X68795446Y-90445000D02*
X68881000Y-90359446D01*
X71800000Y-95215000D02*
X87210000Y-95215000D01*
X68881000Y-92296000D02*
X71800000Y-95215000D01*
X91020000Y-91405000D02*
X91020000Y-79685000D01*
X68881000Y-90359446D02*
X68881000Y-92296000D01*
X67380000Y-76955000D02*
X68881000Y-78456000D01*
%TO.N,/J_IN*%
X70170000Y-36055000D02*
X70170000Y-35284999D01*
X70170000Y-35284999D02*
X70220000Y-35234999D01*
X65710000Y-49400000D02*
X65710000Y-40515000D01*
X59810000Y-55300000D02*
X65710000Y-49400000D01*
X65710000Y-40515000D02*
X70170000Y-36055000D01*
%TO.N,/J_OUT*%
X72760000Y-35234999D02*
X76595001Y-39070000D01*
X76595001Y-39070000D02*
X98120000Y-39070000D01*
D28*
%TO.N,Net-(D2-A)*%
X113020000Y-85655000D02*
X107950000Y-90725000D01*
X107950000Y-90725000D02*
X107830000Y-90725000D01*
%TD*%
%TA.AperFunction,Conductor*%
%TO.N,+9V*%
G36*
X115162539Y-33425185D02*
G01*
X115208294Y-33477989D01*
X115219500Y-33529500D01*
X115219500Y-102780500D01*
X115199815Y-102847539D01*
X115147011Y-102893294D01*
X115095500Y-102904500D01*
X42844500Y-102904500D01*
X42777461Y-102884815D01*
X42731706Y-102832011D01*
X42720500Y-102780500D01*
X42720500Y-99022648D01*
X45969500Y-99022648D01*
X45969500Y-99227351D01*
X46001522Y-99429534D01*
X46064781Y-99624223D01*
X46157715Y-99806613D01*
X46278028Y-99972213D01*
X46422786Y-100116971D01*
X46577749Y-100229556D01*
X46588390Y-100237287D01*
X46704607Y-100296503D01*
X46770776Y-100330218D01*
X46770778Y-100330218D01*
X46770781Y-100330220D01*
X46875137Y-100364127D01*
X46965465Y-100393477D01*
X47066557Y-100409488D01*
X47167648Y-100425500D01*
X47167649Y-100425500D01*
X47372351Y-100425500D01*
X47372352Y-100425500D01*
X47574534Y-100393477D01*
X47769219Y-100330220D01*
X47951610Y-100237287D01*
X48044590Y-100169732D01*
X48117213Y-100116971D01*
X48117215Y-100116968D01*
X48117219Y-100116966D01*
X48261966Y-99972219D01*
X48261968Y-99972215D01*
X48261971Y-99972213D01*
X48382284Y-99806614D01*
X48382285Y-99806613D01*
X48382287Y-99806610D01*
X48429516Y-99713917D01*
X48477489Y-99663123D01*
X48545310Y-99646328D01*
X48611445Y-99668865D01*
X48650485Y-99713919D01*
X48697715Y-99806614D01*
X48818028Y-99972213D01*
X48962786Y-100116971D01*
X49117749Y-100229556D01*
X49128390Y-100237287D01*
X49244607Y-100296503D01*
X49310776Y-100330218D01*
X49310778Y-100330218D01*
X49310781Y-100330220D01*
X49415137Y-100364127D01*
X49505465Y-100393477D01*
X49606557Y-100409488D01*
X49707648Y-100425500D01*
X49707649Y-100425500D01*
X49912351Y-100425500D01*
X49912352Y-100425500D01*
X50114534Y-100393477D01*
X50309219Y-100330220D01*
X50491610Y-100237287D01*
X50584590Y-100169732D01*
X50657213Y-100116971D01*
X50657215Y-100116968D01*
X50657219Y-100116966D01*
X50801966Y-99972219D01*
X50801968Y-99972215D01*
X50801971Y-99972213D01*
X50922284Y-99806614D01*
X50922285Y-99806613D01*
X50922287Y-99806610D01*
X50969516Y-99713917D01*
X51017489Y-99663123D01*
X51085310Y-99646328D01*
X51151445Y-99668865D01*
X51190485Y-99713919D01*
X51237715Y-99806614D01*
X51358028Y-99972213D01*
X51502786Y-100116971D01*
X51657749Y-100229556D01*
X51668390Y-100237287D01*
X51784607Y-100296503D01*
X51850776Y-100330218D01*
X51850778Y-100330218D01*
X51850781Y-100330220D01*
X51955137Y-100364127D01*
X52045465Y-100393477D01*
X52146557Y-100409488D01*
X52247648Y-100425500D01*
X52247649Y-100425500D01*
X52452351Y-100425500D01*
X52452352Y-100425500D01*
X52654534Y-100393477D01*
X52849219Y-100330220D01*
X53031610Y-100237287D01*
X53124590Y-100169732D01*
X53197213Y-100116971D01*
X53197215Y-100116968D01*
X53197219Y-100116966D01*
X53341966Y-99972219D01*
X53341968Y-99972215D01*
X53341971Y-99972213D01*
X53462284Y-99806614D01*
X53462285Y-99806613D01*
X53462287Y-99806610D01*
X53509516Y-99713917D01*
X53557489Y-99663123D01*
X53625310Y-99646328D01*
X53691445Y-99668865D01*
X53730485Y-99713919D01*
X53777715Y-99806614D01*
X53898028Y-99972213D01*
X54042786Y-100116971D01*
X54197749Y-100229556D01*
X54208390Y-100237287D01*
X54324607Y-100296503D01*
X54390776Y-100330218D01*
X54390778Y-100330218D01*
X54390781Y-100330220D01*
X54495137Y-100364127D01*
X54585465Y-100393477D01*
X54686557Y-100409488D01*
X54787648Y-100425500D01*
X54787649Y-100425500D01*
X54992351Y-100425500D01*
X54992352Y-100425500D01*
X55194534Y-100393477D01*
X55389219Y-100330220D01*
X55571610Y-100237287D01*
X55664590Y-100169732D01*
X55737213Y-100116971D01*
X55737215Y-100116968D01*
X55737219Y-100116966D01*
X55881966Y-99972219D01*
X55881968Y-99972215D01*
X55881971Y-99972213D01*
X55934732Y-99899590D01*
X56002287Y-99806610D01*
X56095220Y-99624219D01*
X56158477Y-99429534D01*
X56190500Y-99227352D01*
X56190500Y-99022648D01*
X56158477Y-98820466D01*
X56095220Y-98625781D01*
X56095218Y-98625778D01*
X56095218Y-98625776D01*
X56049515Y-98536080D01*
X56002287Y-98443390D01*
X55994556Y-98432749D01*
X55881971Y-98277786D01*
X55737213Y-98133028D01*
X55571613Y-98012715D01*
X55571612Y-98012714D01*
X55571610Y-98012713D01*
X55514653Y-97983691D01*
X55389223Y-97919781D01*
X55194534Y-97856522D01*
X55019995Y-97828878D01*
X54992352Y-97824500D01*
X54787648Y-97824500D01*
X54763329Y-97828351D01*
X54585465Y-97856522D01*
X54390776Y-97919781D01*
X54208386Y-98012715D01*
X54042786Y-98133028D01*
X53898028Y-98277786D01*
X53777715Y-98443386D01*
X53730485Y-98536080D01*
X53682510Y-98586876D01*
X53614689Y-98603671D01*
X53548554Y-98581134D01*
X53509515Y-98536080D01*
X53508883Y-98534840D01*
X53462287Y-98443390D01*
X53454556Y-98432749D01*
X53341971Y-98277786D01*
X53197213Y-98133028D01*
X53031613Y-98012715D01*
X53031612Y-98012714D01*
X53031610Y-98012713D01*
X52974653Y-97983691D01*
X52849223Y-97919781D01*
X52654534Y-97856522D01*
X52479995Y-97828878D01*
X52452352Y-97824500D01*
X52247648Y-97824500D01*
X52223329Y-97828351D01*
X52045465Y-97856522D01*
X51850776Y-97919781D01*
X51668386Y-98012715D01*
X51502786Y-98133028D01*
X51358028Y-98277786D01*
X51237715Y-98443386D01*
X51190485Y-98536080D01*
X51142510Y-98586876D01*
X51074689Y-98603671D01*
X51008554Y-98581134D01*
X50969515Y-98536080D01*
X50968883Y-98534840D01*
X50922287Y-98443390D01*
X50914556Y-98432749D01*
X50801971Y-98277786D01*
X50657213Y-98133028D01*
X50491613Y-98012715D01*
X50491612Y-98012714D01*
X50491610Y-98012713D01*
X50434653Y-97983691D01*
X50309223Y-97919781D01*
X50114534Y-97856522D01*
X49939995Y-97828878D01*
X49912352Y-97824500D01*
X49707648Y-97824500D01*
X49683329Y-97828351D01*
X49505465Y-97856522D01*
X49310776Y-97919781D01*
X49128386Y-98012715D01*
X48962786Y-98133028D01*
X48818028Y-98277786D01*
X48697715Y-98443386D01*
X48650485Y-98536080D01*
X48602510Y-98586876D01*
X48534689Y-98603671D01*
X48468554Y-98581134D01*
X48429515Y-98536080D01*
X48428883Y-98534840D01*
X48382287Y-98443390D01*
X48374556Y-98432749D01*
X48261971Y-98277786D01*
X48117213Y-98133028D01*
X47951613Y-98012715D01*
X47951612Y-98012714D01*
X47951610Y-98012713D01*
X47894653Y-97983691D01*
X47769223Y-97919781D01*
X47574534Y-97856522D01*
X47399995Y-97828878D01*
X47372352Y-97824500D01*
X47167648Y-97824500D01*
X47143329Y-97828351D01*
X46965465Y-97856522D01*
X46770776Y-97919781D01*
X46588386Y-98012715D01*
X46422786Y-98133028D01*
X46278028Y-98277786D01*
X46157715Y-98443386D01*
X46064781Y-98625776D01*
X46001522Y-98820465D01*
X45969500Y-99022648D01*
X42720500Y-99022648D01*
X42720500Y-91402648D01*
X45969500Y-91402648D01*
X45969500Y-91607351D01*
X46001522Y-91809534D01*
X46064781Y-92004223D01*
X46157715Y-92186613D01*
X46278028Y-92352213D01*
X46422786Y-92496971D01*
X46573621Y-92606557D01*
X46588390Y-92617287D01*
X46656642Y-92652063D01*
X46770776Y-92710218D01*
X46770778Y-92710218D01*
X46770781Y-92710220D01*
X46839084Y-92732413D01*
X46965465Y-92773477D01*
X47001706Y-92779217D01*
X47167648Y-92805500D01*
X47167649Y-92805500D01*
X47372351Y-92805500D01*
X47372352Y-92805500D01*
X47574534Y-92773477D01*
X47769219Y-92710220D01*
X47951610Y-92617287D01*
X48080482Y-92523657D01*
X48117213Y-92496971D01*
X48117215Y-92496968D01*
X48117219Y-92496966D01*
X48261966Y-92352219D01*
X48261968Y-92352215D01*
X48261971Y-92352213D01*
X48382284Y-92186614D01*
X48382285Y-92186613D01*
X48382287Y-92186610D01*
X48429516Y-92093917D01*
X48477489Y-92043123D01*
X48545310Y-92026328D01*
X48611445Y-92048865D01*
X48650483Y-92093917D01*
X48666576Y-92125500D01*
X48697715Y-92186614D01*
X48818028Y-92352213D01*
X48962786Y-92496971D01*
X49113621Y-92606557D01*
X49128390Y-92617287D01*
X49196642Y-92652063D01*
X49310776Y-92710218D01*
X49310778Y-92710218D01*
X49310781Y-92710220D01*
X49379084Y-92732413D01*
X49505465Y-92773477D01*
X49541706Y-92779217D01*
X49707648Y-92805500D01*
X49707649Y-92805500D01*
X49912351Y-92805500D01*
X49912352Y-92805500D01*
X50114534Y-92773477D01*
X50309219Y-92710220D01*
X50491610Y-92617287D01*
X50620482Y-92523657D01*
X50657213Y-92496971D01*
X50657215Y-92496968D01*
X50657219Y-92496966D01*
X50801966Y-92352219D01*
X50801968Y-92352215D01*
X50801971Y-92352213D01*
X50922284Y-92186614D01*
X50922285Y-92186613D01*
X50922287Y-92186610D01*
X50969516Y-92093917D01*
X51017489Y-92043123D01*
X51085310Y-92026328D01*
X51151445Y-92048865D01*
X51190483Y-92093917D01*
X51206576Y-92125500D01*
X51237715Y-92186614D01*
X51358028Y-92352213D01*
X51502786Y-92496971D01*
X51653621Y-92606557D01*
X51668390Y-92617287D01*
X51736642Y-92652063D01*
X51850776Y-92710218D01*
X51850778Y-92710218D01*
X51850781Y-92710220D01*
X51919084Y-92732413D01*
X52045465Y-92773477D01*
X52081706Y-92779217D01*
X52247648Y-92805500D01*
X52247649Y-92805500D01*
X52452351Y-92805500D01*
X52452352Y-92805500D01*
X52654534Y-92773477D01*
X52849219Y-92710220D01*
X53031610Y-92617287D01*
X53160482Y-92523657D01*
X53197213Y-92496971D01*
X53197215Y-92496968D01*
X53197219Y-92496966D01*
X53341966Y-92352219D01*
X53410021Y-92258547D01*
X53465349Y-92215882D01*
X53534963Y-92209902D01*
X53596758Y-92242507D01*
X53628044Y-92292427D01*
X53647856Y-92352215D01*
X53655186Y-92374333D01*
X53655187Y-92374336D01*
X53690069Y-92430888D01*
X53747288Y-92523656D01*
X53871344Y-92647712D01*
X54020666Y-92739814D01*
X54187203Y-92794999D01*
X54289991Y-92805500D01*
X55490008Y-92805499D01*
X55592797Y-92794999D01*
X55759334Y-92739814D01*
X55908656Y-92647712D01*
X56032712Y-92523656D01*
X56124814Y-92374334D01*
X56179999Y-92207797D01*
X56190500Y-92105009D01*
X56190499Y-90904992D01*
X56183511Y-90836588D01*
X56179999Y-90802203D01*
X56179998Y-90802200D01*
X56161330Y-90745864D01*
X56124814Y-90635666D01*
X56032712Y-90486344D01*
X55908656Y-90362288D01*
X55876814Y-90342648D01*
X59779500Y-90342648D01*
X59779500Y-90547351D01*
X59811522Y-90749534D01*
X59874781Y-90944223D01*
X59967715Y-91126613D01*
X60088028Y-91292213D01*
X60232786Y-91436971D01*
X60373611Y-91539284D01*
X60398390Y-91557287D01*
X60496646Y-91607351D01*
X60580776Y-91650218D01*
X60580778Y-91650218D01*
X60580781Y-91650220D01*
X60650472Y-91672864D01*
X60775465Y-91713477D01*
X60876557Y-91729488D01*
X60977648Y-91745500D01*
X60977649Y-91745500D01*
X61182351Y-91745500D01*
X61182352Y-91745500D01*
X61384534Y-91713477D01*
X61579219Y-91650220D01*
X61761610Y-91557287D01*
X61893744Y-91461287D01*
X61927213Y-91436971D01*
X61927215Y-91436968D01*
X61927219Y-91436966D01*
X62071966Y-91292219D01*
X62071968Y-91292215D01*
X62071971Y-91292213D01*
X62138628Y-91200466D01*
X62192287Y-91126610D01*
X62285220Y-90944219D01*
X62348477Y-90749534D01*
X62380500Y-90547352D01*
X62380500Y-90342648D01*
X62357898Y-90199949D01*
X62348477Y-90140465D01*
X62319127Y-90050137D01*
X62285220Y-89945781D01*
X62285218Y-89945778D01*
X62285218Y-89945776D01*
X62233922Y-89845104D01*
X62192287Y-89763390D01*
X62158958Y-89717516D01*
X62071971Y-89597786D01*
X61927213Y-89453028D01*
X61761613Y-89332715D01*
X61761612Y-89332714D01*
X61761610Y-89332713D01*
X61700149Y-89301397D01*
X61579223Y-89239781D01*
X61384534Y-89176522D01*
X61209995Y-89148878D01*
X61182352Y-89144500D01*
X60977648Y-89144500D01*
X60953329Y-89148351D01*
X60775465Y-89176522D01*
X60580776Y-89239781D01*
X60398386Y-89332715D01*
X60232786Y-89453028D01*
X60088028Y-89597786D01*
X59967715Y-89763386D01*
X59874781Y-89945776D01*
X59811522Y-90140465D01*
X59779500Y-90342648D01*
X55876814Y-90342648D01*
X55759334Y-90270186D01*
X55592797Y-90215001D01*
X55592795Y-90215000D01*
X55490010Y-90204500D01*
X54289998Y-90204500D01*
X54289981Y-90204501D01*
X54187203Y-90215000D01*
X54187200Y-90215001D01*
X54020668Y-90270185D01*
X54020663Y-90270187D01*
X53871342Y-90362289D01*
X53747289Y-90486342D01*
X53655187Y-90635663D01*
X53655186Y-90635666D01*
X53628045Y-90717571D01*
X53588271Y-90775016D01*
X53523755Y-90801838D01*
X53454979Y-90789522D01*
X53410021Y-90751452D01*
X53341966Y-90657781D01*
X53197219Y-90513034D01*
X53197213Y-90513028D01*
X53031613Y-90392715D01*
X53031612Y-90392714D01*
X53031610Y-90392713D01*
X52971898Y-90362288D01*
X52849223Y-90299781D01*
X52654534Y-90236522D01*
X52479995Y-90208878D01*
X52452352Y-90204500D01*
X52247648Y-90204500D01*
X52223329Y-90208351D01*
X52045465Y-90236522D01*
X51850776Y-90299781D01*
X51668386Y-90392715D01*
X51502786Y-90513028D01*
X51358028Y-90657786D01*
X51237715Y-90823386D01*
X51190485Y-90916080D01*
X51142510Y-90966876D01*
X51074689Y-90983671D01*
X51008554Y-90961134D01*
X50969515Y-90916080D01*
X50963860Y-90904981D01*
X50922287Y-90823390D01*
X50845406Y-90717571D01*
X50801971Y-90657786D01*
X50657213Y-90513028D01*
X50491613Y-90392715D01*
X50491612Y-90392714D01*
X50491610Y-90392713D01*
X50431898Y-90362288D01*
X50309223Y-90299781D01*
X50114534Y-90236522D01*
X49939995Y-90208878D01*
X49912352Y-90204500D01*
X49707648Y-90204500D01*
X49683329Y-90208351D01*
X49505465Y-90236522D01*
X49310776Y-90299781D01*
X49128386Y-90392715D01*
X48962786Y-90513028D01*
X48818028Y-90657786D01*
X48697715Y-90823386D01*
X48650485Y-90916080D01*
X48602510Y-90966876D01*
X48534689Y-90983671D01*
X48468554Y-90961134D01*
X48429515Y-90916080D01*
X48423860Y-90904981D01*
X48382287Y-90823390D01*
X48305406Y-90717571D01*
X48261971Y-90657786D01*
X48117213Y-90513028D01*
X47951613Y-90392715D01*
X47951612Y-90392714D01*
X47951610Y-90392713D01*
X47891898Y-90362288D01*
X47769223Y-90299781D01*
X47574534Y-90236522D01*
X47399995Y-90208878D01*
X47372352Y-90204500D01*
X47167648Y-90204500D01*
X47143329Y-90208351D01*
X46965465Y-90236522D01*
X46770776Y-90299781D01*
X46588386Y-90392715D01*
X46422786Y-90513028D01*
X46278028Y-90657786D01*
X46157715Y-90823386D01*
X46064781Y-91005776D01*
X46001522Y-91200465D01*
X45969500Y-91402648D01*
X42720500Y-91402648D01*
X42720500Y-85552648D01*
X50849500Y-85552648D01*
X50849500Y-85757351D01*
X50881522Y-85959534D01*
X50944781Y-86154223D01*
X51037715Y-86336613D01*
X51158028Y-86502213D01*
X51302786Y-86646971D01*
X51454184Y-86756966D01*
X51468390Y-86767287D01*
X51566146Y-86817096D01*
X51650776Y-86860218D01*
X51650778Y-86860218D01*
X51650781Y-86860220D01*
X51686301Y-86871761D01*
X51845465Y-86923477D01*
X51946557Y-86939488D01*
X52047648Y-86955500D01*
X52047649Y-86955500D01*
X52252351Y-86955500D01*
X52252352Y-86955500D01*
X52454534Y-86923477D01*
X52649219Y-86860220D01*
X52831610Y-86767287D01*
X52924590Y-86699732D01*
X52997213Y-86646971D01*
X52997215Y-86646968D01*
X52997219Y-86646966D01*
X53141966Y-86502219D01*
X53141968Y-86502215D01*
X53141971Y-86502213D01*
X53221070Y-86393341D01*
X53262287Y-86336610D01*
X53355220Y-86154219D01*
X53418477Y-85959534D01*
X53450500Y-85757352D01*
X53450500Y-85552648D01*
X54719500Y-85552648D01*
X54719500Y-85757351D01*
X54751522Y-85959534D01*
X54814781Y-86154223D01*
X54907715Y-86336613D01*
X55028028Y-86502213D01*
X55172786Y-86646971D01*
X55324184Y-86756966D01*
X55338390Y-86767287D01*
X55436146Y-86817096D01*
X55520776Y-86860218D01*
X55520778Y-86860218D01*
X55520781Y-86860220D01*
X55556301Y-86871761D01*
X55715465Y-86923477D01*
X55816557Y-86939488D01*
X55917648Y-86955500D01*
X55917649Y-86955500D01*
X56122351Y-86955500D01*
X56122352Y-86955500D01*
X56324534Y-86923477D01*
X56519219Y-86860220D01*
X56701610Y-86767287D01*
X56794590Y-86699732D01*
X56867213Y-86646971D01*
X56867215Y-86646968D01*
X56867219Y-86646966D01*
X57011966Y-86502219D01*
X57011968Y-86502215D01*
X57011971Y-86502213D01*
X57091070Y-86393341D01*
X57132287Y-86336610D01*
X57225220Y-86154219D01*
X57288477Y-85959534D01*
X57320500Y-85757352D01*
X57320500Y-85662648D01*
X59779500Y-85662648D01*
X59779500Y-85867351D01*
X59811522Y-86069534D01*
X59874781Y-86264223D01*
X59967715Y-86446613D01*
X60088028Y-86612213D01*
X60232786Y-86756971D01*
X60330331Y-86827840D01*
X60398390Y-86877287D01*
X60490558Y-86924249D01*
X60580776Y-86970218D01*
X60580778Y-86970218D01*
X60580781Y-86970220D01*
X60685137Y-87004127D01*
X60775465Y-87033477D01*
X60876557Y-87049488D01*
X60977648Y-87065500D01*
X60977649Y-87065500D01*
X61182351Y-87065500D01*
X61182352Y-87065500D01*
X61384534Y-87033477D01*
X61579219Y-86970220D01*
X61761610Y-86877287D01*
X61858325Y-86807020D01*
X61927213Y-86756971D01*
X61927215Y-86756968D01*
X61927219Y-86756966D01*
X62071966Y-86612219D01*
X62071968Y-86612215D01*
X62071971Y-86612213D01*
X62179119Y-86464734D01*
X62192287Y-86446610D01*
X62285220Y-86264219D01*
X62348477Y-86069534D01*
X62380500Y-85867352D01*
X62380500Y-85662648D01*
X62365379Y-85567179D01*
X62348477Y-85460465D01*
X62312736Y-85350466D01*
X62285220Y-85265781D01*
X62285218Y-85265778D01*
X62285218Y-85265776D01*
X62229172Y-85155781D01*
X62192287Y-85083390D01*
X62180751Y-85067512D01*
X62071971Y-84917786D01*
X61927213Y-84773028D01*
X61761613Y-84652715D01*
X61761612Y-84652714D01*
X61761610Y-84652713D01*
X61687174Y-84614786D01*
X61579223Y-84559781D01*
X61384534Y-84496522D01*
X61209995Y-84468878D01*
X61182352Y-84464500D01*
X60977648Y-84464500D01*
X60953329Y-84468351D01*
X60775465Y-84496522D01*
X60580776Y-84559781D01*
X60398386Y-84652715D01*
X60232786Y-84773028D01*
X60088028Y-84917786D01*
X59967715Y-85083386D01*
X59874781Y-85265776D01*
X59811522Y-85460465D01*
X59779500Y-85662648D01*
X57320500Y-85662648D01*
X57320500Y-85552648D01*
X57288477Y-85350466D01*
X57225220Y-85155781D01*
X57225218Y-85155778D01*
X57225218Y-85155776D01*
X57184797Y-85076447D01*
X57132287Y-84973390D01*
X57091885Y-84917781D01*
X57011971Y-84807786D01*
X56867213Y-84663028D01*
X56701613Y-84542715D01*
X56701612Y-84542714D01*
X56701610Y-84542713D01*
X56644653Y-84513691D01*
X56519223Y-84449781D01*
X56324534Y-84386522D01*
X56149995Y-84358878D01*
X56122352Y-84354500D01*
X55917648Y-84354500D01*
X55893329Y-84358351D01*
X55715465Y-84386522D01*
X55520776Y-84449781D01*
X55338386Y-84542715D01*
X55172786Y-84663028D01*
X55028028Y-84807786D01*
X54907715Y-84973386D01*
X54814781Y-85155776D01*
X54751522Y-85350465D01*
X54719500Y-85552648D01*
X53450500Y-85552648D01*
X53418477Y-85350466D01*
X53355220Y-85155781D01*
X53355218Y-85155778D01*
X53355218Y-85155776D01*
X53314797Y-85076447D01*
X53262287Y-84973390D01*
X53221885Y-84917781D01*
X53141971Y-84807786D01*
X52997213Y-84663028D01*
X52831613Y-84542715D01*
X52831612Y-84542714D01*
X52831610Y-84542713D01*
X52774653Y-84513691D01*
X52649223Y-84449781D01*
X52454534Y-84386522D01*
X52279995Y-84358878D01*
X52252352Y-84354500D01*
X52047648Y-84354500D01*
X52023329Y-84358351D01*
X51845465Y-84386522D01*
X51650776Y-84449781D01*
X51468386Y-84542715D01*
X51302786Y-84663028D01*
X51158028Y-84807786D01*
X51037715Y-84973386D01*
X50944781Y-85155776D01*
X50881522Y-85350465D01*
X50849500Y-85552648D01*
X42720500Y-85552648D01*
X42720500Y-80327135D01*
X43029500Y-80327135D01*
X43029500Y-81822870D01*
X43029501Y-81822876D01*
X43035908Y-81882483D01*
X43086202Y-82017328D01*
X43086206Y-82017335D01*
X43172452Y-82132544D01*
X43172455Y-82132547D01*
X43287664Y-82218793D01*
X43287671Y-82218797D01*
X43422517Y-82269091D01*
X43422516Y-82269091D01*
X43429444Y-82269835D01*
X43482127Y-82275500D01*
X44977872Y-82275499D01*
X45037483Y-82269091D01*
X45172331Y-82218796D01*
X45287546Y-82132546D01*
X45373796Y-82017331D01*
X45424091Y-81882483D01*
X45430500Y-81822873D01*
X45430499Y-80980513D01*
X48109500Y-80980513D01*
X48109500Y-81169486D01*
X48139059Y-81356118D01*
X48197454Y-81535836D01*
X48283240Y-81704199D01*
X48394310Y-81857073D01*
X48527927Y-81990690D01*
X48680801Y-82101760D01*
X48760347Y-82142290D01*
X48849163Y-82187545D01*
X48849165Y-82187545D01*
X48849168Y-82187547D01*
X48945333Y-82218793D01*
X49028881Y-82245940D01*
X49215514Y-82275500D01*
X49215519Y-82275500D01*
X49404486Y-82275500D01*
X49591118Y-82245940D01*
X49770832Y-82187547D01*
X49939199Y-82101760D01*
X50092073Y-81990690D01*
X50225690Y-81857073D01*
X50336760Y-81704199D01*
X50422547Y-81535832D01*
X50480940Y-81356118D01*
X50489624Y-81301287D01*
X50510500Y-81169486D01*
X50510500Y-80980513D01*
X50480940Y-80793881D01*
X50461621Y-80734426D01*
X50422547Y-80614168D01*
X50419041Y-80607287D01*
X50417404Y-80604074D01*
X50417403Y-80604073D01*
X50417402Y-80604071D01*
X50399359Y-80568659D01*
X50391201Y-80552648D01*
X50849500Y-80552648D01*
X50849500Y-80757351D01*
X50881522Y-80959534D01*
X50944781Y-81154223D01*
X51002544Y-81267587D01*
X51025857Y-81313342D01*
X51037715Y-81336613D01*
X51158028Y-81502213D01*
X51302786Y-81646971D01*
X51426835Y-81737096D01*
X51468390Y-81767287D01*
X51577503Y-81822883D01*
X51650776Y-81860218D01*
X51650778Y-81860218D01*
X51650781Y-81860220D01*
X51755137Y-81894127D01*
X51845465Y-81923477D01*
X51903368Y-81932648D01*
X52047648Y-81955500D01*
X52047649Y-81955500D01*
X52252351Y-81955500D01*
X52252352Y-81955500D01*
X52454534Y-81923477D01*
X52649219Y-81860220D01*
X52831610Y-81767287D01*
X52936142Y-81691341D01*
X52997213Y-81646971D01*
X52997215Y-81646968D01*
X52997219Y-81646966D01*
X53141966Y-81502219D01*
X53141968Y-81502215D01*
X53141971Y-81502213D01*
X53194732Y-81429590D01*
X53262287Y-81336610D01*
X53355220Y-81154219D01*
X53418477Y-80959534D01*
X53450500Y-80757352D01*
X53450500Y-80552648D01*
X54719500Y-80552648D01*
X54719500Y-80757351D01*
X54751522Y-80959534D01*
X54814781Y-81154223D01*
X54872544Y-81267587D01*
X54895857Y-81313342D01*
X54907715Y-81336613D01*
X55028028Y-81502213D01*
X55172786Y-81646971D01*
X55296835Y-81737096D01*
X55338390Y-81767287D01*
X55447503Y-81822883D01*
X55520776Y-81860218D01*
X55520778Y-81860218D01*
X55520781Y-81860220D01*
X55625137Y-81894127D01*
X55715465Y-81923477D01*
X55773368Y-81932648D01*
X55917648Y-81955500D01*
X55917649Y-81955500D01*
X56122351Y-81955500D01*
X56122352Y-81955500D01*
X56324534Y-81923477D01*
X56519219Y-81860220D01*
X56701610Y-81767287D01*
X56806142Y-81691341D01*
X56867213Y-81646971D01*
X56867215Y-81646968D01*
X56867219Y-81646966D01*
X57011966Y-81502219D01*
X57011968Y-81502215D01*
X57011971Y-81502213D01*
X57064732Y-81429590D01*
X57132287Y-81336610D01*
X57225220Y-81154219D01*
X57288477Y-80959534D01*
X57320500Y-80757352D01*
X57320500Y-80552648D01*
X57303577Y-80445800D01*
X57288477Y-80350465D01*
X57234460Y-80184219D01*
X57225220Y-80155781D01*
X57225218Y-80155778D01*
X57225218Y-80155776D01*
X57170425Y-80048240D01*
X57132287Y-79973390D01*
X57124341Y-79962453D01*
X57011971Y-79807786D01*
X56867213Y-79663028D01*
X56701613Y-79542715D01*
X56701612Y-79542714D01*
X56701610Y-79542713D01*
X56644653Y-79513691D01*
X56519223Y-79449781D01*
X56324534Y-79386522D01*
X56149995Y-79358878D01*
X56122352Y-79354500D01*
X55917648Y-79354500D01*
X55893329Y-79358351D01*
X55715465Y-79386522D01*
X55520776Y-79449781D01*
X55338386Y-79542715D01*
X55172786Y-79663028D01*
X55028028Y-79807786D01*
X54907715Y-79973386D01*
X54814781Y-80155776D01*
X54751522Y-80350465D01*
X54719500Y-80552648D01*
X53450500Y-80552648D01*
X53433577Y-80445800D01*
X53418477Y-80350465D01*
X53364460Y-80184219D01*
X53355220Y-80155781D01*
X53355218Y-80155778D01*
X53355218Y-80155776D01*
X53300425Y-80048240D01*
X53262287Y-79973390D01*
X53254341Y-79962453D01*
X53141971Y-79807786D01*
X52997213Y-79663028D01*
X52831613Y-79542715D01*
X52831612Y-79542714D01*
X52831610Y-79542713D01*
X52774653Y-79513691D01*
X52649223Y-79449781D01*
X52454534Y-79386522D01*
X52279995Y-79358878D01*
X52252352Y-79354500D01*
X52047648Y-79354500D01*
X52023329Y-79358351D01*
X51845465Y-79386522D01*
X51650776Y-79449781D01*
X51468386Y-79542715D01*
X51302786Y-79663028D01*
X51158028Y-79807786D01*
X51037715Y-79973386D01*
X50944781Y-80155776D01*
X50881522Y-80350465D01*
X50849500Y-80552648D01*
X50391201Y-80552648D01*
X50336760Y-80445801D01*
X50225690Y-80292927D01*
X50092073Y-80159310D01*
X49939199Y-80048240D01*
X49914164Y-80035484D01*
X49770836Y-79962454D01*
X49591118Y-79904059D01*
X49404486Y-79874500D01*
X49404481Y-79874500D01*
X49215519Y-79874500D01*
X49215514Y-79874500D01*
X49028881Y-79904059D01*
X48849163Y-79962454D01*
X48680800Y-80048240D01*
X48593579Y-80111610D01*
X48527927Y-80159310D01*
X48527925Y-80159312D01*
X48527924Y-80159312D01*
X48394312Y-80292924D01*
X48394312Y-80292925D01*
X48394310Y-80292927D01*
X48358497Y-80342219D01*
X48283240Y-80445800D01*
X48197454Y-80614163D01*
X48139059Y-80793881D01*
X48109500Y-80980513D01*
X45430499Y-80980513D01*
X45430499Y-80327128D01*
X45424091Y-80267517D01*
X45393024Y-80184223D01*
X45373797Y-80132671D01*
X45373793Y-80132664D01*
X45287547Y-80017455D01*
X45287544Y-80017452D01*
X45172335Y-79931206D01*
X45172328Y-79931202D01*
X45037482Y-79880908D01*
X45037483Y-79880908D01*
X44977883Y-79874501D01*
X44977881Y-79874500D01*
X44977873Y-79874500D01*
X44977864Y-79874500D01*
X43482129Y-79874500D01*
X43482123Y-79874501D01*
X43422516Y-79880908D01*
X43287671Y-79931202D01*
X43287664Y-79931206D01*
X43172455Y-80017452D01*
X43172452Y-80017455D01*
X43086206Y-80132664D01*
X43086202Y-80132671D01*
X43035908Y-80267517D01*
X43030781Y-80315208D01*
X43029501Y-80327123D01*
X43029500Y-80327135D01*
X42720500Y-80327135D01*
X42720500Y-71247135D01*
X43029500Y-71247135D01*
X43029500Y-72742870D01*
X43029501Y-72742876D01*
X43035908Y-72802483D01*
X43086202Y-72937328D01*
X43086206Y-72937335D01*
X43172452Y-73052544D01*
X43172455Y-73052547D01*
X43287664Y-73138793D01*
X43287671Y-73138797D01*
X43422517Y-73189091D01*
X43422516Y-73189091D01*
X43429444Y-73189835D01*
X43482127Y-73195500D01*
X44977872Y-73195499D01*
X45037483Y-73189091D01*
X45172331Y-73138796D01*
X45287546Y-73052546D01*
X45373796Y-72937331D01*
X45424091Y-72802483D01*
X45430500Y-72742873D01*
X45430499Y-71247128D01*
X45424091Y-71187517D01*
X45406848Y-71141287D01*
X45373797Y-71052671D01*
X45373793Y-71052664D01*
X45287547Y-70937455D01*
X45287544Y-70937452D01*
X45172335Y-70851206D01*
X45172328Y-70851202D01*
X45037482Y-70800908D01*
X45037483Y-70800908D01*
X44977883Y-70794501D01*
X44977881Y-70794500D01*
X44977873Y-70794500D01*
X44977864Y-70794500D01*
X43482129Y-70794500D01*
X43482123Y-70794501D01*
X43422516Y-70800908D01*
X43287671Y-70851202D01*
X43287664Y-70851206D01*
X43172455Y-70937452D01*
X43172452Y-70937455D01*
X43086206Y-71052664D01*
X43086202Y-71052671D01*
X43035908Y-71187517D01*
X43029501Y-71247116D01*
X43029501Y-71247123D01*
X43029500Y-71247135D01*
X42720500Y-71247135D01*
X42720500Y-66372648D01*
X50849500Y-66372648D01*
X50849500Y-66577351D01*
X50881522Y-66779534D01*
X50944781Y-66974223D01*
X50966563Y-67016971D01*
X51027867Y-67137287D01*
X51037715Y-67156613D01*
X51158028Y-67322213D01*
X51302786Y-67466971D01*
X51457749Y-67579556D01*
X51468390Y-67587287D01*
X51584607Y-67646503D01*
X51650776Y-67680218D01*
X51650778Y-67680218D01*
X51650781Y-67680220D01*
X51755137Y-67714127D01*
X51845465Y-67743477D01*
X51946557Y-67759488D01*
X52047648Y-67775500D01*
X52047649Y-67775500D01*
X52252351Y-67775500D01*
X52252352Y-67775500D01*
X52454534Y-67743477D01*
X52649219Y-67680220D01*
X52831610Y-67587287D01*
X52924590Y-67519732D01*
X52997213Y-67466971D01*
X52997215Y-67466968D01*
X52997219Y-67466966D01*
X53141966Y-67322219D01*
X53141968Y-67322215D01*
X53141971Y-67322213D01*
X53208740Y-67230312D01*
X53262287Y-67156610D01*
X53355220Y-66974219D01*
X53418477Y-66779534D01*
X53450500Y-66577352D01*
X53450500Y-66372648D01*
X53418477Y-66170466D01*
X53404468Y-66127352D01*
X53383002Y-66061286D01*
X53355220Y-65975781D01*
X53355218Y-65975778D01*
X53355218Y-65975776D01*
X53311623Y-65890218D01*
X53262287Y-65793390D01*
X53254556Y-65782749D01*
X53141971Y-65627786D01*
X52997213Y-65483028D01*
X52831613Y-65362715D01*
X52831612Y-65362714D01*
X52831610Y-65362713D01*
X52774653Y-65333691D01*
X52649223Y-65269781D01*
X52454534Y-65206522D01*
X52279995Y-65178878D01*
X52252352Y-65174500D01*
X52047648Y-65174500D01*
X52026933Y-65177781D01*
X51845465Y-65206522D01*
X51650776Y-65269781D01*
X51468386Y-65362715D01*
X51302786Y-65483028D01*
X51158028Y-65627786D01*
X51037715Y-65793386D01*
X50944781Y-65975776D01*
X50881522Y-66170465D01*
X50849500Y-66372648D01*
X42720500Y-66372648D01*
X42720500Y-62167135D01*
X43029500Y-62167135D01*
X43029500Y-63662870D01*
X43029501Y-63662876D01*
X43035908Y-63722483D01*
X43086202Y-63857328D01*
X43086206Y-63857335D01*
X43172452Y-63972544D01*
X43172455Y-63972547D01*
X43287664Y-64058793D01*
X43287671Y-64058797D01*
X43422517Y-64109091D01*
X43422516Y-64109091D01*
X43429444Y-64109835D01*
X43482127Y-64115500D01*
X44977872Y-64115499D01*
X45037483Y-64109091D01*
X45172331Y-64058796D01*
X45287546Y-63972546D01*
X45373796Y-63857331D01*
X45424091Y-63722483D01*
X45430500Y-63662873D01*
X45430499Y-62820513D01*
X48109500Y-62820513D01*
X48109500Y-63009486D01*
X48139059Y-63196118D01*
X48197454Y-63375836D01*
X48250417Y-63479780D01*
X48283240Y-63544199D01*
X48394310Y-63697073D01*
X48527927Y-63830690D01*
X48680801Y-63941760D01*
X48741218Y-63972544D01*
X48849163Y-64027545D01*
X48849165Y-64027545D01*
X48849168Y-64027547D01*
X48945333Y-64058793D01*
X49028881Y-64085940D01*
X49215514Y-64115500D01*
X49215519Y-64115500D01*
X49404486Y-64115500D01*
X49591118Y-64085940D01*
X49770832Y-64027547D01*
X49939199Y-63941760D01*
X50092073Y-63830690D01*
X50225690Y-63697073D01*
X50336760Y-63544199D01*
X50422547Y-63375832D01*
X50480940Y-63196118D01*
X50510500Y-63009486D01*
X50510500Y-62820513D01*
X50480940Y-62633881D01*
X50422545Y-62454163D01*
X50336759Y-62285800D01*
X50225690Y-62132927D01*
X50092073Y-61999310D01*
X49939199Y-61888240D01*
X49770836Y-61802454D01*
X49591118Y-61744059D01*
X49404486Y-61714500D01*
X49404481Y-61714500D01*
X49215519Y-61714500D01*
X49215514Y-61714500D01*
X49028881Y-61744059D01*
X48849163Y-61802454D01*
X48680800Y-61888240D01*
X48593579Y-61951610D01*
X48527927Y-61999310D01*
X48527925Y-61999312D01*
X48527924Y-61999312D01*
X48394312Y-62132924D01*
X48394312Y-62132925D01*
X48394310Y-62132927D01*
X48346610Y-62198579D01*
X48283240Y-62285800D01*
X48197454Y-62454163D01*
X48139059Y-62633881D01*
X48109500Y-62820513D01*
X45430499Y-62820513D01*
X45430499Y-62167128D01*
X45424091Y-62107517D01*
X45411424Y-62073556D01*
X45373797Y-61972671D01*
X45373793Y-61972664D01*
X45287547Y-61857455D01*
X45287544Y-61857452D01*
X45172335Y-61771206D01*
X45172328Y-61771202D01*
X45037482Y-61720908D01*
X45037483Y-61720908D01*
X44977883Y-61714501D01*
X44977881Y-61714500D01*
X44977873Y-61714500D01*
X44977864Y-61714500D01*
X43482129Y-61714500D01*
X43482123Y-61714501D01*
X43422516Y-61720908D01*
X43287671Y-61771202D01*
X43287664Y-61771206D01*
X43172455Y-61857452D01*
X43172452Y-61857455D01*
X43086206Y-61972664D01*
X43086202Y-61972671D01*
X43035908Y-62107517D01*
X43029896Y-62163443D01*
X43029501Y-62167123D01*
X43029500Y-62167135D01*
X42720500Y-62167135D01*
X42720500Y-60280513D01*
X45569500Y-60280513D01*
X45569500Y-60469486D01*
X45599059Y-60656118D01*
X45657454Y-60835836D01*
X45730412Y-60979022D01*
X45743240Y-61004199D01*
X45854310Y-61157073D01*
X45987927Y-61290690D01*
X46140801Y-61401760D01*
X46220347Y-61442290D01*
X46309163Y-61487545D01*
X46309165Y-61487545D01*
X46309168Y-61487547D01*
X46405497Y-61518846D01*
X46488881Y-61545940D01*
X46675514Y-61575500D01*
X46675519Y-61575500D01*
X46864486Y-61575500D01*
X47051118Y-61545940D01*
X47060489Y-61542895D01*
X47230832Y-61487547D01*
X47399199Y-61401760D01*
X47552073Y-61290690D01*
X47685690Y-61157073D01*
X47762311Y-61051612D01*
X47817640Y-61008949D01*
X47862628Y-61000500D01*
X51829548Y-61000500D01*
X51896587Y-61020185D01*
X51917229Y-61036819D01*
X55864058Y-64983648D01*
X55897543Y-65044971D01*
X55892559Y-65114663D01*
X55850687Y-65170596D01*
X55795776Y-65193802D01*
X55715464Y-65206523D01*
X55520776Y-65269781D01*
X55338386Y-65362715D01*
X55172786Y-65483028D01*
X55028028Y-65627786D01*
X54907715Y-65793386D01*
X54814781Y-65975776D01*
X54751522Y-66170465D01*
X54719500Y-66372648D01*
X54719500Y-66577351D01*
X54751522Y-66779534D01*
X54814781Y-66974223D01*
X54836563Y-67016971D01*
X54897867Y-67137287D01*
X54907715Y-67156613D01*
X55028028Y-67322213D01*
X55172786Y-67466971D01*
X55327749Y-67579556D01*
X55338390Y-67587287D01*
X55454607Y-67646503D01*
X55520776Y-67680218D01*
X55520778Y-67680218D01*
X55520781Y-67680220D01*
X55625137Y-67714127D01*
X55715465Y-67743477D01*
X55816557Y-67759488D01*
X55917648Y-67775500D01*
X55917649Y-67775500D01*
X56122351Y-67775500D01*
X56122352Y-67775500D01*
X56324534Y-67743477D01*
X56519219Y-67680220D01*
X56701610Y-67587287D01*
X56794590Y-67519732D01*
X56867213Y-67466971D01*
X56867215Y-67466968D01*
X56867219Y-67466966D01*
X57011966Y-67322219D01*
X57011968Y-67322215D01*
X57011971Y-67322213D01*
X57078740Y-67230312D01*
X57132287Y-67156610D01*
X57225220Y-66974219D01*
X57288477Y-66779534D01*
X57301197Y-66699223D01*
X57331126Y-66636089D01*
X57390438Y-66599158D01*
X57460300Y-66600156D01*
X57511351Y-66630941D01*
X59701016Y-68820606D01*
X59701045Y-68820637D01*
X59791263Y-68910855D01*
X59791267Y-68910858D01*
X59893707Y-68979307D01*
X59893713Y-68979310D01*
X59893714Y-68979311D01*
X60007548Y-69026463D01*
X60067971Y-69038481D01*
X60128393Y-69050500D01*
X60128394Y-69050500D01*
X68089548Y-69050500D01*
X68156587Y-69070185D01*
X68177228Y-69086818D01*
X69204141Y-70113732D01*
X69204142Y-70113733D01*
X69291267Y-70200858D01*
X69291268Y-70200859D01*
X69393707Y-70269307D01*
X69393716Y-70269312D01*
X69395727Y-70270145D01*
X69507548Y-70316463D01*
X69628388Y-70340499D01*
X69628392Y-70340500D01*
X69628393Y-70340500D01*
X69628394Y-70340500D01*
X69985814Y-70340500D01*
X70052853Y-70360185D01*
X70098608Y-70412989D01*
X70108552Y-70482147D01*
X70099230Y-70511631D01*
X70100310Y-70512079D01*
X70098445Y-70516580D01*
X70032753Y-70718760D01*
X70010348Y-70860220D01*
X69999500Y-70928713D01*
X69999500Y-71141287D01*
X70006822Y-71187516D01*
X70016263Y-71247127D01*
X70032754Y-71351243D01*
X70098055Y-71552219D01*
X70098445Y-71553417D01*
X70118718Y-71593206D01*
X70131614Y-71661875D01*
X70105337Y-71726615D01*
X70048230Y-71766872D01*
X70008233Y-71773500D01*
X67150047Y-71773500D01*
X67083008Y-71753815D01*
X67037253Y-71701011D01*
X67027309Y-71631853D01*
X67056334Y-71568297D01*
X67062366Y-71561819D01*
X67071966Y-71552219D01*
X67071968Y-71552215D01*
X67071971Y-71552213D01*
X67171297Y-71415500D01*
X67192287Y-71386610D01*
X67285220Y-71204219D01*
X67348477Y-71009534D01*
X67380500Y-70807352D01*
X67380500Y-70602648D01*
X67359884Y-70472483D01*
X67348477Y-70400465D01*
X67308159Y-70276380D01*
X67285220Y-70205781D01*
X67285218Y-70205778D01*
X67285218Y-70205776D01*
X67247430Y-70131614D01*
X67192287Y-70023390D01*
X67184556Y-70012749D01*
X67071971Y-69857786D01*
X66927213Y-69713028D01*
X66761613Y-69592715D01*
X66761612Y-69592714D01*
X66761610Y-69592713D01*
X66682978Y-69552648D01*
X66579223Y-69499781D01*
X66384534Y-69436522D01*
X66209995Y-69408878D01*
X66182352Y-69404500D01*
X65977648Y-69404500D01*
X65953329Y-69408351D01*
X65775465Y-69436522D01*
X65580776Y-69499781D01*
X65398386Y-69592715D01*
X65232786Y-69713028D01*
X65088028Y-69857786D01*
X64967715Y-70023386D01*
X64874781Y-70205776D01*
X64811522Y-70400465D01*
X64779500Y-70602648D01*
X64779500Y-70807351D01*
X64811522Y-71009534D01*
X64874781Y-71204223D01*
X64920821Y-71294579D01*
X64957110Y-71365801D01*
X64967715Y-71386613D01*
X65088028Y-71552213D01*
X65097634Y-71561819D01*
X65131119Y-71623142D01*
X65126135Y-71692834D01*
X65084263Y-71748767D01*
X65018799Y-71773184D01*
X65009953Y-71773500D01*
X62150047Y-71773500D01*
X62083008Y-71753815D01*
X62037253Y-71701011D01*
X62027309Y-71631853D01*
X62056334Y-71568297D01*
X62062366Y-71561819D01*
X62071966Y-71552219D01*
X62071968Y-71552215D01*
X62071971Y-71552213D01*
X62171297Y-71415500D01*
X62192287Y-71386610D01*
X62285220Y-71204219D01*
X62348477Y-71009534D01*
X62380500Y-70807352D01*
X62380500Y-70602648D01*
X62359884Y-70472483D01*
X62348477Y-70400465D01*
X62308159Y-70276380D01*
X62285220Y-70205781D01*
X62285218Y-70205778D01*
X62285218Y-70205776D01*
X62247430Y-70131614D01*
X62192287Y-70023390D01*
X62184556Y-70012749D01*
X62071971Y-69857786D01*
X61927213Y-69713028D01*
X61761613Y-69592715D01*
X61761612Y-69592714D01*
X61761610Y-69592713D01*
X61682978Y-69552648D01*
X61579223Y-69499781D01*
X61384534Y-69436522D01*
X61209995Y-69408878D01*
X61182352Y-69404500D01*
X60977648Y-69404500D01*
X60953329Y-69408351D01*
X60775465Y-69436522D01*
X60580776Y-69499781D01*
X60398386Y-69592715D01*
X60232786Y-69713028D01*
X60088028Y-69857786D01*
X59967715Y-70023386D01*
X59874781Y-70205776D01*
X59811522Y-70400465D01*
X59779500Y-70602648D01*
X59779500Y-70807351D01*
X59811522Y-71009534D01*
X59874781Y-71204223D01*
X59920821Y-71294579D01*
X59957110Y-71365801D01*
X59967715Y-71386613D01*
X60088028Y-71552213D01*
X60097634Y-71561819D01*
X60131119Y-71623142D01*
X60126135Y-71692834D01*
X60084263Y-71748767D01*
X60018799Y-71773184D01*
X60009953Y-71773500D01*
X52184453Y-71773500D01*
X52117414Y-71753815D01*
X52096772Y-71737181D01*
X51325697Y-70966106D01*
X51292212Y-70904783D01*
X51297196Y-70835091D01*
X51339068Y-70779158D01*
X51404532Y-70754741D01*
X51469670Y-70767939D01*
X51534375Y-70800908D01*
X51650776Y-70860218D01*
X51650778Y-70860218D01*
X51650781Y-70860220D01*
X51755137Y-70894127D01*
X51845465Y-70923477D01*
X51878524Y-70928713D01*
X52047648Y-70955500D01*
X52047649Y-70955500D01*
X52252351Y-70955500D01*
X52252352Y-70955500D01*
X52454534Y-70923477D01*
X52649219Y-70860220D01*
X52831610Y-70767287D01*
X52943101Y-70686285D01*
X52997213Y-70646971D01*
X52997215Y-70646968D01*
X52997219Y-70646966D01*
X53141966Y-70502219D01*
X53141968Y-70502215D01*
X53141971Y-70502213D01*
X53217269Y-70398572D01*
X53262287Y-70336610D01*
X53355220Y-70154219D01*
X53418477Y-69959534D01*
X53450500Y-69757352D01*
X53450500Y-69552648D01*
X54719500Y-69552648D01*
X54719500Y-69757351D01*
X54751522Y-69959534D01*
X54814781Y-70154223D01*
X54856997Y-70237075D01*
X54902910Y-70327184D01*
X54907715Y-70336613D01*
X55028028Y-70502213D01*
X55172786Y-70646971D01*
X55276810Y-70722547D01*
X55338390Y-70767287D01*
X55419856Y-70808796D01*
X55520776Y-70860218D01*
X55520778Y-70860218D01*
X55520781Y-70860220D01*
X55625137Y-70894127D01*
X55715465Y-70923477D01*
X55748524Y-70928713D01*
X55917648Y-70955500D01*
X55917649Y-70955500D01*
X56122351Y-70955500D01*
X56122352Y-70955500D01*
X56324534Y-70923477D01*
X56519219Y-70860220D01*
X56701610Y-70767287D01*
X56813101Y-70686285D01*
X56867213Y-70646971D01*
X56867215Y-70646968D01*
X56867219Y-70646966D01*
X57011966Y-70502219D01*
X57011968Y-70502215D01*
X57011971Y-70502213D01*
X57087269Y-70398572D01*
X57132287Y-70336610D01*
X57225220Y-70154219D01*
X57288477Y-69959534D01*
X57320500Y-69757352D01*
X57320500Y-69552648D01*
X57288477Y-69350466D01*
X57279323Y-69322294D01*
X57244461Y-69215000D01*
X57225220Y-69155781D01*
X57225218Y-69155778D01*
X57225218Y-69155776D01*
X57183602Y-69074102D01*
X57132287Y-68973390D01*
X57101068Y-68930420D01*
X57011971Y-68807786D01*
X56867213Y-68663028D01*
X56701613Y-68542715D01*
X56701612Y-68542714D01*
X56701610Y-68542713D01*
X56644653Y-68513691D01*
X56519223Y-68449781D01*
X56324534Y-68386522D01*
X56149995Y-68358878D01*
X56122352Y-68354500D01*
X55917648Y-68354500D01*
X55893329Y-68358351D01*
X55715465Y-68386522D01*
X55520776Y-68449781D01*
X55338386Y-68542715D01*
X55172786Y-68663028D01*
X55028028Y-68807786D01*
X54907715Y-68973386D01*
X54814781Y-69155776D01*
X54751522Y-69350465D01*
X54719500Y-69552648D01*
X53450500Y-69552648D01*
X53418477Y-69350466D01*
X53409323Y-69322294D01*
X53374461Y-69215000D01*
X53355220Y-69155781D01*
X53355218Y-69155778D01*
X53355218Y-69155776D01*
X53313602Y-69074102D01*
X53262287Y-68973390D01*
X53231068Y-68930420D01*
X53141971Y-68807786D01*
X52997213Y-68663028D01*
X52831613Y-68542715D01*
X52831612Y-68542714D01*
X52831610Y-68542713D01*
X52774653Y-68513691D01*
X52649223Y-68449781D01*
X52454534Y-68386522D01*
X52279995Y-68358878D01*
X52252352Y-68354500D01*
X52047648Y-68354500D01*
X52023329Y-68358351D01*
X51845465Y-68386522D01*
X51650776Y-68449781D01*
X51468386Y-68542715D01*
X51302786Y-68663028D01*
X51158028Y-68807786D01*
X51037715Y-68973386D01*
X50944781Y-69155776D01*
X50881522Y-69350465D01*
X50849500Y-69552648D01*
X50849500Y-69757351D01*
X50881522Y-69959534D01*
X50944781Y-70154223D01*
X51037059Y-70335326D01*
X51049955Y-70403995D01*
X51023679Y-70468736D01*
X50966572Y-70508993D01*
X50896767Y-70511985D01*
X50838893Y-70479302D01*
X49425822Y-69066232D01*
X49415859Y-69056269D01*
X49415858Y-69056267D01*
X49328733Y-68969142D01*
X49277509Y-68934915D01*
X49226286Y-68900688D01*
X49226283Y-68900686D01*
X49226280Y-68900685D01*
X49152603Y-68870168D01*
X49152601Y-68870167D01*
X49145792Y-68867347D01*
X49112452Y-68853537D01*
X49052029Y-68841518D01*
X49047306Y-68840578D01*
X49047304Y-68840578D01*
X48991610Y-68829500D01*
X48991607Y-68829500D01*
X48991606Y-68829500D01*
X47862628Y-68829500D01*
X47795589Y-68809815D01*
X47762312Y-68778388D01*
X47685690Y-68672927D01*
X47552073Y-68539310D01*
X47399199Y-68428240D01*
X47335489Y-68395778D01*
X47230836Y-68342454D01*
X47051118Y-68284059D01*
X46864486Y-68254500D01*
X46864481Y-68254500D01*
X46675519Y-68254500D01*
X46675514Y-68254500D01*
X46488881Y-68284059D01*
X46309163Y-68342454D01*
X46140800Y-68428240D01*
X46053579Y-68491610D01*
X45987927Y-68539310D01*
X45987925Y-68539312D01*
X45987924Y-68539312D01*
X45854312Y-68672924D01*
X45854312Y-68672925D01*
X45854310Y-68672927D01*
X45806610Y-68738579D01*
X45743240Y-68825800D01*
X45657454Y-68994163D01*
X45599059Y-69173881D01*
X45569500Y-69360513D01*
X45569500Y-69549486D01*
X45599059Y-69736118D01*
X45657454Y-69915836D01*
X45721962Y-70042439D01*
X45743240Y-70084199D01*
X45854310Y-70237073D01*
X45987927Y-70370690D01*
X46140801Y-70481760D01*
X46200121Y-70511985D01*
X46309163Y-70567545D01*
X46309165Y-70567545D01*
X46309168Y-70567547D01*
X46405497Y-70598846D01*
X46488881Y-70625940D01*
X46675514Y-70655500D01*
X46675519Y-70655500D01*
X46864486Y-70655500D01*
X47051118Y-70625940D01*
X47230832Y-70567547D01*
X47399199Y-70481760D01*
X47552073Y-70370690D01*
X47685690Y-70237073D01*
X47762311Y-70131612D01*
X47817640Y-70088949D01*
X47862628Y-70080500D01*
X48619548Y-70080500D01*
X48686587Y-70100185D01*
X48707229Y-70116819D01*
X49189665Y-70599255D01*
X49223150Y-70660578D01*
X49218166Y-70730270D01*
X49176294Y-70786203D01*
X49121382Y-70809409D01*
X49028881Y-70824059D01*
X48849163Y-70882454D01*
X48680800Y-70968240D01*
X48596550Y-71029452D01*
X48527927Y-71079310D01*
X48527925Y-71079312D01*
X48527924Y-71079312D01*
X48394312Y-71212924D01*
X48394312Y-71212925D01*
X48394310Y-71212927D01*
X48346610Y-71278579D01*
X48283240Y-71365800D01*
X48197454Y-71534163D01*
X48139059Y-71713881D01*
X48109500Y-71900513D01*
X48109500Y-72089486D01*
X48139059Y-72276118D01*
X48197454Y-72455836D01*
X48242830Y-72544890D01*
X48283240Y-72624199D01*
X48394310Y-72777073D01*
X48527927Y-72910690D01*
X48680801Y-73021760D01*
X48686179Y-73024500D01*
X48849163Y-73107545D01*
X48849165Y-73107545D01*
X48849168Y-73107547D01*
X48945333Y-73138793D01*
X49028881Y-73165940D01*
X49215514Y-73195500D01*
X49215519Y-73195500D01*
X49404486Y-73195500D01*
X49591118Y-73165940D01*
X49770832Y-73107547D01*
X49939199Y-73021760D01*
X50092073Y-72910690D01*
X50225690Y-72777073D01*
X50336760Y-72624199D01*
X50422547Y-72455832D01*
X50480940Y-72276118D01*
X50495590Y-72183618D01*
X50525519Y-72120484D01*
X50584830Y-72083552D01*
X50654692Y-72084550D01*
X50705744Y-72115335D01*
X51417727Y-72827319D01*
X51451212Y-72888642D01*
X51446228Y-72958334D01*
X51417727Y-73002681D01*
X47100309Y-77320099D01*
X47038986Y-77353584D01*
X46993230Y-77354891D01*
X46864486Y-77334500D01*
X46864481Y-77334500D01*
X46675519Y-77334500D01*
X46675514Y-77334500D01*
X46488881Y-77364059D01*
X46309163Y-77422454D01*
X46140800Y-77508240D01*
X46053579Y-77571610D01*
X45987927Y-77619310D01*
X45987925Y-77619312D01*
X45987924Y-77619312D01*
X45854312Y-77752924D01*
X45854312Y-77752925D01*
X45854310Y-77752927D01*
X45818497Y-77802219D01*
X45743240Y-77905800D01*
X45657454Y-78074163D01*
X45599059Y-78253881D01*
X45569500Y-78440513D01*
X45569500Y-78629486D01*
X45599059Y-78816118D01*
X45657454Y-78995836D01*
X45740275Y-79158380D01*
X45743240Y-79164199D01*
X45854310Y-79317073D01*
X45987927Y-79450690D01*
X46140801Y-79561760D01*
X46220347Y-79602290D01*
X46309163Y-79647545D01*
X46309165Y-79647545D01*
X46309168Y-79647547D01*
X46356832Y-79663034D01*
X46488881Y-79705940D01*
X46675514Y-79735500D01*
X46675519Y-79735500D01*
X46864486Y-79735500D01*
X47051118Y-79705940D01*
X47230832Y-79647547D01*
X47399199Y-79561760D01*
X47552073Y-79450690D01*
X47685690Y-79317073D01*
X47796760Y-79164199D01*
X47882547Y-78995832D01*
X47940940Y-78816118D01*
X47949624Y-78761287D01*
X47970500Y-78629486D01*
X47970500Y-78440513D01*
X47950108Y-78311767D01*
X47959062Y-78242474D01*
X47984897Y-78204691D01*
X49016940Y-77172648D01*
X50849500Y-77172648D01*
X50849500Y-77377352D01*
X50849871Y-77379692D01*
X50881522Y-77579534D01*
X50944781Y-77774223D01*
X51008691Y-77899653D01*
X51032910Y-77947184D01*
X51037715Y-77956613D01*
X51158028Y-78122213D01*
X51302786Y-78266971D01*
X51427336Y-78357460D01*
X51468390Y-78387287D01*
X51572852Y-78440513D01*
X51650776Y-78480218D01*
X51650778Y-78480218D01*
X51650781Y-78480220D01*
X51755137Y-78514127D01*
X51845465Y-78543477D01*
X51946557Y-78559488D01*
X52047648Y-78575500D01*
X52047649Y-78575500D01*
X52252351Y-78575500D01*
X52252352Y-78575500D01*
X52454534Y-78543477D01*
X52649219Y-78480220D01*
X52831610Y-78387287D01*
X52965818Y-78289780D01*
X52997213Y-78266971D01*
X52997215Y-78266968D01*
X52997219Y-78266966D01*
X53141966Y-78122219D01*
X53141968Y-78122215D01*
X53141971Y-78122213D01*
X53212599Y-78025000D01*
X53262287Y-77956610D01*
X53355220Y-77774219D01*
X53418477Y-77579534D01*
X53450500Y-77377352D01*
X53450500Y-77172648D01*
X54719500Y-77172648D01*
X54719500Y-77377352D01*
X54719871Y-77379692D01*
X54751522Y-77579534D01*
X54814781Y-77774223D01*
X54878691Y-77899653D01*
X54902910Y-77947184D01*
X54907715Y-77956613D01*
X55028028Y-78122213D01*
X55172786Y-78266971D01*
X55297336Y-78357460D01*
X55338390Y-78387287D01*
X55442852Y-78440513D01*
X55520776Y-78480218D01*
X55520778Y-78480218D01*
X55520781Y-78480220D01*
X55625137Y-78514127D01*
X55715465Y-78543477D01*
X55816557Y-78559488D01*
X55917648Y-78575500D01*
X55917649Y-78575500D01*
X56122351Y-78575500D01*
X56122352Y-78575500D01*
X56324534Y-78543477D01*
X56519219Y-78480220D01*
X56701610Y-78387287D01*
X56835818Y-78289780D01*
X56867213Y-78266971D01*
X56867215Y-78266968D01*
X56867219Y-78266966D01*
X57011966Y-78122219D01*
X57011968Y-78122215D01*
X57011971Y-78122213D01*
X57082599Y-78025000D01*
X57132287Y-77956610D01*
X57225220Y-77774219D01*
X57288477Y-77579534D01*
X57320500Y-77377352D01*
X57320500Y-77172648D01*
X57302239Y-77057352D01*
X57288477Y-76970465D01*
X57244181Y-76834138D01*
X57225220Y-76775781D01*
X57225218Y-76775778D01*
X57225218Y-76775776D01*
X57191503Y-76709607D01*
X57132287Y-76593390D01*
X57073674Y-76512715D01*
X57011971Y-76427786D01*
X56867213Y-76283028D01*
X56701613Y-76162715D01*
X56701612Y-76162714D01*
X56701610Y-76162713D01*
X56644653Y-76133691D01*
X56519223Y-76069781D01*
X56324534Y-76006522D01*
X56149995Y-75978878D01*
X56122352Y-75974500D01*
X55917648Y-75974500D01*
X55893329Y-75978351D01*
X55715465Y-76006522D01*
X55520776Y-76069781D01*
X55338386Y-76162715D01*
X55172786Y-76283028D01*
X55028028Y-76427786D01*
X54907715Y-76593386D01*
X54814781Y-76775776D01*
X54751522Y-76970465D01*
X54723862Y-77145109D01*
X54719500Y-77172648D01*
X53450500Y-77172648D01*
X53432239Y-77057352D01*
X53418477Y-76970465D01*
X53374181Y-76834138D01*
X53355220Y-76775781D01*
X53355218Y-76775778D01*
X53355218Y-76775776D01*
X53321503Y-76709607D01*
X53262287Y-76593390D01*
X53203674Y-76512715D01*
X53141971Y-76427786D01*
X52997213Y-76283028D01*
X52831613Y-76162715D01*
X52831612Y-76162714D01*
X52831610Y-76162713D01*
X52774653Y-76133691D01*
X52649223Y-76069781D01*
X52454534Y-76006522D01*
X52279995Y-75978878D01*
X52252352Y-75974500D01*
X52047648Y-75974500D01*
X52023329Y-75978351D01*
X51845465Y-76006522D01*
X51650776Y-76069781D01*
X51468386Y-76162715D01*
X51302786Y-76283028D01*
X51158028Y-76427786D01*
X51037715Y-76593386D01*
X50944781Y-76775776D01*
X50881522Y-76970465D01*
X50853862Y-77145109D01*
X50849500Y-77172648D01*
X49016940Y-77172648D01*
X52677771Y-73511819D01*
X52739094Y-73478334D01*
X52765452Y-73475500D01*
X58591717Y-73475500D01*
X58658756Y-73495185D01*
X58704511Y-73547989D01*
X58714455Y-73617147D01*
X58692035Y-73672385D01*
X58647715Y-73733386D01*
X58554781Y-73915776D01*
X58491522Y-74110465D01*
X58459500Y-74312648D01*
X58459500Y-74517351D01*
X58491522Y-74719534D01*
X58554781Y-74914223D01*
X58618691Y-75039653D01*
X58641744Y-75084896D01*
X58647715Y-75096613D01*
X58768028Y-75262213D01*
X58912786Y-75406971D01*
X59067749Y-75519556D01*
X59078390Y-75527287D01*
X59161304Y-75569534D01*
X59171080Y-75574515D01*
X59221876Y-75622490D01*
X59238671Y-75690311D01*
X59216134Y-75756446D01*
X59171080Y-75795485D01*
X59078386Y-75842715D01*
X58912786Y-75963028D01*
X58768028Y-76107786D01*
X58647715Y-76273386D01*
X58554781Y-76455776D01*
X58491522Y-76650465D01*
X58459500Y-76852648D01*
X58459500Y-77057351D01*
X58491522Y-77259534D01*
X58554781Y-77454223D01*
X58582305Y-77508240D01*
X58641744Y-77624896D01*
X58647715Y-77636613D01*
X58768028Y-77802213D01*
X58912786Y-77946971D01*
X59020186Y-78025000D01*
X59078390Y-78067287D01*
X59169840Y-78113883D01*
X59171080Y-78114515D01*
X59221876Y-78162490D01*
X59238671Y-78230311D01*
X59216134Y-78296446D01*
X59171080Y-78335485D01*
X59078386Y-78382715D01*
X58912786Y-78503028D01*
X58768028Y-78647786D01*
X58647715Y-78813386D01*
X58554781Y-78995776D01*
X58491522Y-79190465D01*
X58459500Y-79392648D01*
X58459500Y-79597351D01*
X58491522Y-79799534D01*
X58554781Y-79994223D01*
X58582305Y-80048240D01*
X58641744Y-80164896D01*
X58647715Y-80176613D01*
X58768028Y-80342213D01*
X58912786Y-80486971D01*
X59067749Y-80599556D01*
X59078390Y-80607287D01*
X59169840Y-80653883D01*
X59171080Y-80654515D01*
X59221876Y-80702490D01*
X59238671Y-80770311D01*
X59216134Y-80836446D01*
X59171080Y-80875485D01*
X59078386Y-80922715D01*
X58912786Y-81043028D01*
X58768028Y-81187786D01*
X58647715Y-81353386D01*
X58554781Y-81535776D01*
X58491522Y-81730465D01*
X58459500Y-81932648D01*
X58459500Y-82137351D01*
X58491522Y-82339534D01*
X58554781Y-82534223D01*
X58618691Y-82659653D01*
X58641744Y-82704896D01*
X58647715Y-82716613D01*
X58768028Y-82882213D01*
X58912786Y-83026971D01*
X59067749Y-83139556D01*
X59078390Y-83147287D01*
X59167212Y-83192544D01*
X59260776Y-83240218D01*
X59260778Y-83240218D01*
X59260781Y-83240220D01*
X59365137Y-83274127D01*
X59455465Y-83303477D01*
X59556557Y-83319488D01*
X59657648Y-83335500D01*
X59657649Y-83335500D01*
X59862351Y-83335500D01*
X59862352Y-83335500D01*
X60064534Y-83303477D01*
X60259219Y-83240220D01*
X60441610Y-83147287D01*
X60537901Y-83077328D01*
X60607213Y-83026971D01*
X60607215Y-83026968D01*
X60607219Y-83026966D01*
X60751966Y-82882219D01*
X60751968Y-82882215D01*
X60751971Y-82882213D01*
X60804732Y-82809590D01*
X60872287Y-82716610D01*
X60965220Y-82534219D01*
X61028477Y-82339534D01*
X61060500Y-82137352D01*
X61060500Y-81932648D01*
X61034309Y-81767287D01*
X61028477Y-81730465D01*
X60999127Y-81640137D01*
X60965220Y-81535781D01*
X60965218Y-81535778D01*
X60965218Y-81535776D01*
X60931503Y-81469607D01*
X60872287Y-81353390D01*
X60860096Y-81336610D01*
X60751971Y-81187786D01*
X60607213Y-81043028D01*
X60441614Y-80922715D01*
X60435006Y-80919348D01*
X60348917Y-80875483D01*
X60298123Y-80827511D01*
X60281328Y-80759690D01*
X60303865Y-80693555D01*
X60348917Y-80654516D01*
X60441610Y-80607287D01*
X60462770Y-80591913D01*
X60607213Y-80486971D01*
X60607215Y-80486968D01*
X60607219Y-80486966D01*
X60751966Y-80342219D01*
X60751968Y-80342215D01*
X60751971Y-80342213D01*
X60806240Y-80267516D01*
X60872287Y-80176610D01*
X60965220Y-79994219D01*
X61028477Y-79799534D01*
X61060500Y-79597352D01*
X61060500Y-79392648D01*
X61029527Y-79197096D01*
X61028477Y-79190465D01*
X60967691Y-79003386D01*
X60965220Y-78995781D01*
X60965218Y-78995778D01*
X60965218Y-78995776D01*
X60895940Y-78859812D01*
X60872287Y-78813390D01*
X60864556Y-78802749D01*
X60751971Y-78647786D01*
X60607213Y-78503028D01*
X60441614Y-78382715D01*
X60412171Y-78367713D01*
X60348917Y-78335483D01*
X60298123Y-78287511D01*
X60281328Y-78219690D01*
X60303865Y-78153555D01*
X60348917Y-78114516D01*
X60441610Y-78067287D01*
X60537333Y-77997741D01*
X60607213Y-77946971D01*
X60607215Y-77946968D01*
X60607219Y-77946966D01*
X60751966Y-77802219D01*
X60751968Y-77802215D01*
X60751971Y-77802213D01*
X60806360Y-77727351D01*
X60872287Y-77636610D01*
X60965220Y-77454219D01*
X61028477Y-77259534D01*
X61060500Y-77057352D01*
X61060500Y-76852648D01*
X61048325Y-76775781D01*
X61028477Y-76650465D01*
X60973833Y-76482289D01*
X60965220Y-76455781D01*
X60965218Y-76455778D01*
X60965218Y-76455776D01*
X60914645Y-76356522D01*
X60872287Y-76273390D01*
X60860354Y-76256966D01*
X60751971Y-76107786D01*
X60607213Y-75963028D01*
X60441614Y-75842715D01*
X60435006Y-75839348D01*
X60348917Y-75795483D01*
X60298123Y-75747511D01*
X60281328Y-75679690D01*
X60303865Y-75613555D01*
X60348917Y-75574516D01*
X60441610Y-75527287D01*
X60462770Y-75511913D01*
X60607213Y-75406971D01*
X60607215Y-75406968D01*
X60607219Y-75406966D01*
X60751966Y-75262219D01*
X60751968Y-75262215D01*
X60751971Y-75262213D01*
X60824308Y-75162648D01*
X60872287Y-75096610D01*
X60965220Y-74914219D01*
X61028477Y-74719534D01*
X61060500Y-74517352D01*
X61060500Y-74312648D01*
X61035169Y-74152715D01*
X61028477Y-74110465D01*
X60965218Y-73915776D01*
X60931503Y-73849607D01*
X60872287Y-73733390D01*
X60835400Y-73682619D01*
X60827965Y-73672385D01*
X60804485Y-73606579D01*
X60820311Y-73538525D01*
X60870416Y-73489830D01*
X60928283Y-73475500D01*
X66211717Y-73475500D01*
X66278756Y-73495185D01*
X66324511Y-73547989D01*
X66334455Y-73617147D01*
X66312035Y-73672385D01*
X66267715Y-73733386D01*
X66174781Y-73915776D01*
X66111522Y-74110465D01*
X66079500Y-74312648D01*
X66079500Y-74517351D01*
X66111522Y-74719534D01*
X66174781Y-74914223D01*
X66238691Y-75039653D01*
X66261744Y-75084896D01*
X66267715Y-75096613D01*
X66388028Y-75262213D01*
X66532786Y-75406971D01*
X66687749Y-75519556D01*
X66698390Y-75527287D01*
X66781304Y-75569534D01*
X66791080Y-75574515D01*
X66841876Y-75622490D01*
X66858671Y-75690311D01*
X66836134Y-75756446D01*
X66791080Y-75795485D01*
X66698386Y-75842715D01*
X66532786Y-75963028D01*
X66388028Y-76107786D01*
X66267715Y-76273386D01*
X66174781Y-76455776D01*
X66111522Y-76650465D01*
X66079500Y-76852648D01*
X66079500Y-77057351D01*
X66111522Y-77259534D01*
X66174781Y-77454223D01*
X66202305Y-77508240D01*
X66261744Y-77624896D01*
X66267715Y-77636613D01*
X66388028Y-77802213D01*
X66532786Y-77946971D01*
X66640186Y-78025000D01*
X66698390Y-78067287D01*
X66789840Y-78113883D01*
X66791080Y-78114515D01*
X66841876Y-78162490D01*
X66858671Y-78230311D01*
X66836134Y-78296446D01*
X66791080Y-78335485D01*
X66698386Y-78382715D01*
X66532786Y-78503028D01*
X66388028Y-78647786D01*
X66267715Y-78813386D01*
X66174781Y-78995776D01*
X66111522Y-79190465D01*
X66079500Y-79392648D01*
X66079500Y-79597351D01*
X66111522Y-79799534D01*
X66174781Y-79994223D01*
X66202305Y-80048240D01*
X66261744Y-80164896D01*
X66267715Y-80176613D01*
X66388028Y-80342213D01*
X66532784Y-80486969D01*
X66569068Y-80513330D01*
X66611735Y-80568659D01*
X66617715Y-80638273D01*
X66585109Y-80700068D01*
X66524271Y-80734426D01*
X66509440Y-80736938D01*
X66472519Y-80740907D01*
X66337671Y-80791202D01*
X66337664Y-80791206D01*
X66222455Y-80877452D01*
X66222452Y-80877455D01*
X66136206Y-80992664D01*
X66136202Y-80992671D01*
X66085908Y-81127517D01*
X66079501Y-81187116D01*
X66079500Y-81187135D01*
X66079500Y-82882870D01*
X66079501Y-82882876D01*
X66085908Y-82942483D01*
X66136202Y-83077328D01*
X66136206Y-83077335D01*
X66222452Y-83192544D01*
X66222455Y-83192547D01*
X66337664Y-83278793D01*
X66337671Y-83278797D01*
X66472517Y-83329091D01*
X66472516Y-83329091D01*
X66479444Y-83329835D01*
X66532127Y-83335500D01*
X67756500Y-83335499D01*
X67823539Y-83355184D01*
X67869294Y-83407987D01*
X67880500Y-83459499D01*
X67880500Y-89320500D01*
X67860815Y-89387539D01*
X67808011Y-89433294D01*
X67756500Y-89444500D01*
X66955762Y-89444500D01*
X66888723Y-89424815D01*
X66882877Y-89420818D01*
X66761613Y-89332715D01*
X66761612Y-89332714D01*
X66761610Y-89332713D01*
X66700149Y-89301397D01*
X66579223Y-89239781D01*
X66384534Y-89176522D01*
X66209995Y-89148878D01*
X66182352Y-89144500D01*
X65977648Y-89144500D01*
X65953329Y-89148351D01*
X65775465Y-89176522D01*
X65580776Y-89239781D01*
X65398386Y-89332715D01*
X65232786Y-89453028D01*
X65232782Y-89453032D01*
X65172181Y-89513634D01*
X65110858Y-89547119D01*
X65041166Y-89542135D01*
X64985233Y-89500263D01*
X64960816Y-89434799D01*
X64960500Y-89425953D01*
X64960500Y-88350781D01*
X64980185Y-88283742D01*
X64996814Y-88263104D01*
X66168203Y-87091715D01*
X66229524Y-87058232D01*
X66236473Y-87056927D01*
X66384534Y-87033477D01*
X66579219Y-86970220D01*
X66761610Y-86877287D01*
X66858325Y-86807020D01*
X66927213Y-86756971D01*
X66927215Y-86756968D01*
X66927219Y-86756966D01*
X67071966Y-86612219D01*
X67071968Y-86612215D01*
X67071971Y-86612213D01*
X67179119Y-86464734D01*
X67192287Y-86446610D01*
X67285220Y-86264219D01*
X67348477Y-86069534D01*
X67380500Y-85867352D01*
X67380500Y-85662648D01*
X67365379Y-85567179D01*
X67348477Y-85460465D01*
X67312736Y-85350466D01*
X67285220Y-85265781D01*
X67285218Y-85265778D01*
X67285218Y-85265776D01*
X67229172Y-85155781D01*
X67192287Y-85083390D01*
X67180751Y-85067512D01*
X67071971Y-84917786D01*
X66927213Y-84773028D01*
X66761613Y-84652715D01*
X66761612Y-84652714D01*
X66761610Y-84652713D01*
X66687174Y-84614786D01*
X66579223Y-84559781D01*
X66384534Y-84496522D01*
X66209995Y-84468878D01*
X66182352Y-84464500D01*
X65977648Y-84464500D01*
X65953329Y-84468351D01*
X65775465Y-84496522D01*
X65580776Y-84559781D01*
X65398386Y-84652715D01*
X65232786Y-84773028D01*
X65088028Y-84917786D01*
X64967715Y-85083386D01*
X64874781Y-85265778D01*
X64811522Y-85460468D01*
X64788073Y-85608515D01*
X64758143Y-85671649D01*
X64753281Y-85676797D01*
X64036738Y-86393341D01*
X63322220Y-87107859D01*
X63322218Y-87107861D01*
X63275293Y-87154786D01*
X63182859Y-87247219D01*
X63073371Y-87411080D01*
X63073364Y-87411093D01*
X63033295Y-87507830D01*
X63033295Y-87507832D01*
X62998345Y-87592210D01*
X62998330Y-87592246D01*
X62997950Y-87593162D01*
X62997947Y-87593170D01*
X62959500Y-87786456D01*
X62959500Y-92779217D01*
X62939815Y-92846256D01*
X62923181Y-92866898D01*
X60991797Y-94798281D01*
X60930474Y-94831766D01*
X60923515Y-94833073D01*
X60775468Y-94856522D01*
X60580778Y-94919781D01*
X60398386Y-95012715D01*
X60232786Y-95133028D01*
X60088028Y-95277786D01*
X59967715Y-95443386D01*
X59874781Y-95625776D01*
X59811522Y-95820465D01*
X59779500Y-96022648D01*
X59779500Y-96227351D01*
X59811522Y-96429534D01*
X59874781Y-96624223D01*
X59967715Y-96806613D01*
X60088028Y-96972213D01*
X60232786Y-97116971D01*
X60387749Y-97229556D01*
X60398390Y-97237287D01*
X60514607Y-97296503D01*
X60580776Y-97330218D01*
X60580778Y-97330218D01*
X60580781Y-97330220D01*
X60685137Y-97364127D01*
X60775465Y-97393477D01*
X60876557Y-97409488D01*
X60977648Y-97425500D01*
X60977649Y-97425500D01*
X61182351Y-97425500D01*
X61182352Y-97425500D01*
X61384534Y-97393477D01*
X61579219Y-97330220D01*
X61761610Y-97237287D01*
X61854590Y-97169732D01*
X61927213Y-97116971D01*
X61927215Y-97116968D01*
X61927219Y-97116966D01*
X62071966Y-96972219D01*
X62071968Y-96972215D01*
X62071971Y-96972213D01*
X62124732Y-96899590D01*
X62192287Y-96806610D01*
X62285220Y-96624219D01*
X62348477Y-96429534D01*
X62371925Y-96281483D01*
X62401854Y-96218350D01*
X62406699Y-96213219D01*
X62597270Y-96022648D01*
X64779500Y-96022648D01*
X64779500Y-96227351D01*
X64811522Y-96429534D01*
X64874781Y-96624223D01*
X64967715Y-96806613D01*
X65088028Y-96972213D01*
X65232786Y-97116971D01*
X65387749Y-97229556D01*
X65398390Y-97237287D01*
X65514607Y-97296503D01*
X65580776Y-97330218D01*
X65580778Y-97330218D01*
X65580781Y-97330220D01*
X65685137Y-97364127D01*
X65775465Y-97393477D01*
X65876557Y-97409488D01*
X65977648Y-97425500D01*
X65977649Y-97425500D01*
X66182351Y-97425500D01*
X66182352Y-97425500D01*
X66384534Y-97393477D01*
X66579219Y-97330220D01*
X66761610Y-97237287D01*
X66854590Y-97169732D01*
X66927213Y-97116971D01*
X66927215Y-97116968D01*
X66927219Y-97116966D01*
X67071966Y-96972219D01*
X67071968Y-96972215D01*
X67071971Y-96972213D01*
X67124732Y-96899590D01*
X67192287Y-96806610D01*
X67285220Y-96624219D01*
X67348477Y-96429534D01*
X67380500Y-96227352D01*
X67380500Y-96022648D01*
X67375668Y-95992139D01*
X67348477Y-95820465D01*
X67285218Y-95625776D01*
X67251503Y-95559607D01*
X67192287Y-95443390D01*
X67184556Y-95432749D01*
X67071971Y-95277786D01*
X66927213Y-95133028D01*
X66761613Y-95012715D01*
X66761612Y-95012714D01*
X66761610Y-95012713D01*
X66704653Y-94983691D01*
X66579223Y-94919781D01*
X66384534Y-94856522D01*
X66196690Y-94826771D01*
X66182352Y-94824500D01*
X65977648Y-94824500D01*
X65963310Y-94826771D01*
X65775465Y-94856522D01*
X65580776Y-94919781D01*
X65398386Y-95012715D01*
X65232786Y-95133028D01*
X65088028Y-95277786D01*
X64967715Y-95443386D01*
X64874781Y-95625776D01*
X64811522Y-95820465D01*
X64779500Y-96022648D01*
X62597270Y-96022648D01*
X64597778Y-94022141D01*
X64597782Y-94022139D01*
X64737139Y-93882782D01*
X64846632Y-93718914D01*
X64922051Y-93536835D01*
X64960500Y-93343541D01*
X64960500Y-91464047D01*
X64980185Y-91397008D01*
X65032989Y-91351253D01*
X65102147Y-91341309D01*
X65165703Y-91370334D01*
X65172181Y-91376366D01*
X65232786Y-91436971D01*
X65373611Y-91539284D01*
X65398390Y-91557287D01*
X65496646Y-91607351D01*
X65580776Y-91650218D01*
X65580778Y-91650218D01*
X65580781Y-91650220D01*
X65650472Y-91672864D01*
X65775465Y-91713477D01*
X65876557Y-91729488D01*
X65977648Y-91745500D01*
X65977649Y-91745500D01*
X66182351Y-91745500D01*
X66182352Y-91745500D01*
X66384534Y-91713477D01*
X66579219Y-91650220D01*
X66761610Y-91557287D01*
X66882877Y-91469181D01*
X66948683Y-91445702D01*
X66955762Y-91445500D01*
X67756500Y-91445500D01*
X67823539Y-91465185D01*
X67869294Y-91517989D01*
X67880500Y-91569500D01*
X67880500Y-92394544D01*
X67914623Y-92566092D01*
X67918948Y-92587831D01*
X67918950Y-92587839D01*
X67994364Y-92769907D01*
X67994371Y-92769920D01*
X68103859Y-92933780D01*
X68103860Y-92933781D01*
X68103861Y-92933782D01*
X68243218Y-93073139D01*
X68243219Y-93073139D01*
X68250286Y-93080206D01*
X68250285Y-93080206D01*
X68250288Y-93080208D01*
X71022860Y-95852781D01*
X71022861Y-95852782D01*
X71162218Y-95992139D01*
X71326086Y-96101632D01*
X71432745Y-96145811D01*
X71508164Y-96177051D01*
X71689901Y-96213201D01*
X71701454Y-96215499D01*
X71701457Y-96215500D01*
X71701459Y-96215500D01*
X87308542Y-96215500D01*
X87339566Y-96209328D01*
X87405188Y-96196275D01*
X87501836Y-96177051D01*
X87555165Y-96154961D01*
X87683914Y-96101632D01*
X87847782Y-95992139D01*
X87987139Y-95852782D01*
X87987139Y-95852780D01*
X87997347Y-95842573D01*
X87997348Y-95842570D01*
X91797140Y-92042781D01*
X91906632Y-91878914D01*
X91982052Y-91696835D01*
X92020500Y-91503540D01*
X92020500Y-91306459D01*
X92020500Y-89936669D01*
X93469500Y-89936669D01*
X93469500Y-90373330D01*
X93507557Y-90808320D01*
X93507557Y-90808324D01*
X93583379Y-91238327D01*
X93583383Y-91238344D01*
X93696392Y-91660105D01*
X93789640Y-91916301D01*
X93845142Y-92068793D01*
X93845740Y-92070434D01*
X93845746Y-92070449D01*
X94030272Y-92466164D01*
X94030280Y-92466180D01*
X94100518Y-92587835D01*
X94248603Y-92844326D01*
X94248607Y-92844332D01*
X94248614Y-92844343D01*
X94499057Y-93202013D01*
X94701930Y-93443787D01*
X94779732Y-93536507D01*
X95088493Y-93845268D01*
X95227572Y-93961969D01*
X95422986Y-94125942D01*
X95780656Y-94376385D01*
X95780663Y-94376389D01*
X95780674Y-94376397D01*
X96158826Y-94594723D01*
X96158835Y-94594727D01*
X96554550Y-94779253D01*
X96554555Y-94779255D01*
X96554568Y-94779261D01*
X96964888Y-94928605D01*
X96964889Y-94928605D01*
X96964894Y-94928607D01*
X97097398Y-94964110D01*
X97386663Y-95041619D01*
X97816682Y-95117443D01*
X98251671Y-95155499D01*
X98251672Y-95155500D01*
X98251673Y-95155500D01*
X98688328Y-95155500D01*
X98688328Y-95155499D01*
X99123318Y-95117443D01*
X99553337Y-95041619D01*
X99975112Y-94928605D01*
X100385432Y-94779261D01*
X100781174Y-94594723D01*
X101159326Y-94376397D01*
X101517012Y-94125943D01*
X101851507Y-93845268D01*
X102160268Y-93536507D01*
X102440943Y-93202012D01*
X102691397Y-92844326D01*
X102909723Y-92466174D01*
X103094261Y-92070432D01*
X103243605Y-91660112D01*
X103356619Y-91238337D01*
X103432443Y-90808318D01*
X103449376Y-90614778D01*
X106429500Y-90614778D01*
X106429500Y-90835222D01*
X106442307Y-90916080D01*
X106463985Y-91052952D01*
X106532103Y-91262603D01*
X106532104Y-91262606D01*
X106577273Y-91351253D01*
X106620949Y-91436971D01*
X106632187Y-91459025D01*
X106761752Y-91637358D01*
X106761756Y-91637363D01*
X106917636Y-91793243D01*
X106917641Y-91793247D01*
X107019606Y-91867328D01*
X107095978Y-91922815D01*
X107224375Y-91988237D01*
X107292393Y-92022895D01*
X107292396Y-92022896D01*
X107397221Y-92056955D01*
X107502049Y-92091015D01*
X107719778Y-92125500D01*
X107719779Y-92125500D01*
X107940221Y-92125500D01*
X107940222Y-92125500D01*
X108157951Y-92091015D01*
X108367606Y-92022895D01*
X108564022Y-91922815D01*
X108742365Y-91793242D01*
X108792536Y-91743070D01*
X108853857Y-91709586D01*
X108923548Y-91714570D01*
X108979482Y-91756441D01*
X108996398Y-91787419D01*
X109026202Y-91867328D01*
X109026206Y-91867335D01*
X109112452Y-91982544D01*
X109112455Y-91982547D01*
X109227664Y-92068793D01*
X109227671Y-92068797D01*
X109362517Y-92119091D01*
X109362516Y-92119091D01*
X109369444Y-92119835D01*
X109422127Y-92125500D01*
X111317872Y-92125499D01*
X111377483Y-92119091D01*
X111512331Y-92068796D01*
X111627546Y-91982546D01*
X111713796Y-91867331D01*
X111764091Y-91732483D01*
X111770500Y-91672873D01*
X111770499Y-89777128D01*
X111764091Y-89717517D01*
X111741429Y-89656758D01*
X111713797Y-89582671D01*
X111713793Y-89582664D01*
X111627547Y-89467455D01*
X111627544Y-89467452D01*
X111512335Y-89381206D01*
X111512328Y-89381202D01*
X111377482Y-89330908D01*
X111377483Y-89330908D01*
X111317883Y-89324501D01*
X111317881Y-89324500D01*
X111317873Y-89324500D01*
X111317865Y-89324500D01*
X110534451Y-89324500D01*
X110467412Y-89304815D01*
X110421657Y-89252011D01*
X110411713Y-89182853D01*
X110440738Y-89119297D01*
X110446770Y-89112819D01*
X111452410Y-88107179D01*
X112602373Y-86957215D01*
X112663694Y-86923732D01*
X112710410Y-86924249D01*
X112710654Y-86922715D01*
X112814101Y-86939099D01*
X112917648Y-86955500D01*
X112917649Y-86955500D01*
X113122351Y-86955500D01*
X113122352Y-86955500D01*
X113324534Y-86923477D01*
X113519219Y-86860220D01*
X113701610Y-86767287D01*
X113794590Y-86699732D01*
X113867213Y-86646971D01*
X113867215Y-86646968D01*
X113867219Y-86646966D01*
X114011966Y-86502219D01*
X114011968Y-86502215D01*
X114011971Y-86502213D01*
X114091070Y-86393341D01*
X114132287Y-86336610D01*
X114225220Y-86154219D01*
X114288477Y-85959534D01*
X114320500Y-85757352D01*
X114320500Y-85552648D01*
X114288477Y-85350466D01*
X114225220Y-85155781D01*
X114225218Y-85155778D01*
X114225218Y-85155776D01*
X114184797Y-85076447D01*
X114132287Y-84973390D01*
X114091885Y-84917781D01*
X114011971Y-84807786D01*
X113867213Y-84663028D01*
X113701613Y-84542715D01*
X113701612Y-84542714D01*
X113701610Y-84542713D01*
X113644653Y-84513691D01*
X113519223Y-84449781D01*
X113324534Y-84386522D01*
X113149995Y-84358878D01*
X113122352Y-84354500D01*
X112917648Y-84354500D01*
X112893329Y-84358351D01*
X112715465Y-84386522D01*
X112520776Y-84449781D01*
X112338386Y-84542715D01*
X112172786Y-84663028D01*
X112028028Y-84807786D01*
X111907715Y-84973386D01*
X111814781Y-85155776D01*
X111751522Y-85350465D01*
X111734100Y-85460466D01*
X111719500Y-85552648D01*
X111719500Y-85757352D01*
X111728973Y-85817162D01*
X111752285Y-85964346D01*
X111750252Y-85964667D01*
X111747165Y-86025834D01*
X111717781Y-86072627D01*
X108418090Y-89372318D01*
X108356767Y-89405803D01*
X108292092Y-89402568D01*
X108157953Y-89358985D01*
X108157954Y-89358985D01*
X107992077Y-89332713D01*
X107940222Y-89324500D01*
X107719778Y-89324500D01*
X107647201Y-89335995D01*
X107502047Y-89358985D01*
X107292396Y-89427103D01*
X107292393Y-89427104D01*
X107095974Y-89527187D01*
X106917641Y-89656752D01*
X106917636Y-89656756D01*
X106761756Y-89812636D01*
X106761752Y-89812641D01*
X106632187Y-89990974D01*
X106532104Y-90187393D01*
X106532103Y-90187396D01*
X106463985Y-90397047D01*
X106463985Y-90397049D01*
X106429500Y-90614778D01*
X103449376Y-90614778D01*
X103470500Y-90373327D01*
X103470500Y-89936673D01*
X103432443Y-89501682D01*
X103418184Y-89420818D01*
X103402772Y-89333412D01*
X103356619Y-89071663D01*
X103243605Y-88649888D01*
X103094261Y-88239568D01*
X102909723Y-87843826D01*
X102691397Y-87465674D01*
X102691389Y-87465663D01*
X102691385Y-87465656D01*
X102440942Y-87107986D01*
X102247978Y-86878022D01*
X102160268Y-86773493D01*
X101851507Y-86464732D01*
X101698821Y-86336613D01*
X101517013Y-86184057D01*
X101159343Y-85933614D01*
X101159332Y-85933607D01*
X101159326Y-85933603D01*
X100957644Y-85817162D01*
X100781180Y-85715280D01*
X100781164Y-85715272D01*
X100662972Y-85660158D01*
X100432418Y-85552648D01*
X104099500Y-85552648D01*
X104099500Y-85757351D01*
X104131522Y-85959534D01*
X104194781Y-86154223D01*
X104287715Y-86336613D01*
X104408028Y-86502213D01*
X104552786Y-86646971D01*
X104704184Y-86756966D01*
X104718390Y-86767287D01*
X104816146Y-86817096D01*
X104900776Y-86860218D01*
X104900778Y-86860218D01*
X104900781Y-86860220D01*
X104936301Y-86871761D01*
X105095465Y-86923477D01*
X105196557Y-86939488D01*
X105297648Y-86955500D01*
X105297649Y-86955500D01*
X105502351Y-86955500D01*
X105502352Y-86955500D01*
X105704534Y-86923477D01*
X105899219Y-86860220D01*
X106081610Y-86767287D01*
X106174590Y-86699732D01*
X106247213Y-86646971D01*
X106247215Y-86646968D01*
X106247219Y-86646966D01*
X106391966Y-86502219D01*
X106391968Y-86502215D01*
X106391971Y-86502213D01*
X106471070Y-86393341D01*
X106512287Y-86336610D01*
X106605220Y-86154219D01*
X106668477Y-85959534D01*
X106700500Y-85757352D01*
X106700500Y-85552648D01*
X106668477Y-85350466D01*
X106605220Y-85155781D01*
X106605218Y-85155778D01*
X106605218Y-85155776D01*
X106564797Y-85076447D01*
X106512287Y-84973390D01*
X106471885Y-84917781D01*
X106391971Y-84807786D01*
X106247213Y-84663028D01*
X106081613Y-84542715D01*
X106081612Y-84542714D01*
X106081610Y-84542713D01*
X106024653Y-84513691D01*
X105899223Y-84449781D01*
X105704534Y-84386522D01*
X105529995Y-84358878D01*
X105502352Y-84354500D01*
X105297648Y-84354500D01*
X105273329Y-84358351D01*
X105095465Y-84386522D01*
X104900776Y-84449781D01*
X104718386Y-84542715D01*
X104552786Y-84663028D01*
X104408028Y-84807786D01*
X104287715Y-84973386D01*
X104194781Y-85155776D01*
X104131522Y-85350465D01*
X104099500Y-85552648D01*
X100432418Y-85552648D01*
X100385449Y-85530746D01*
X100385434Y-85530740D01*
X100385432Y-85530739D01*
X100192358Y-85460466D01*
X99975105Y-85381392D01*
X99553344Y-85268383D01*
X99553347Y-85268383D01*
X99553337Y-85268381D01*
X99553331Y-85268379D01*
X99553327Y-85268379D01*
X99123322Y-85192557D01*
X98688330Y-85154500D01*
X98688327Y-85154500D01*
X98251673Y-85154500D01*
X98251669Y-85154500D01*
X97816679Y-85192557D01*
X97816675Y-85192557D01*
X97386672Y-85268379D01*
X97386655Y-85268383D01*
X96964894Y-85381392D01*
X96554565Y-85530740D01*
X96554550Y-85530746D01*
X96158835Y-85715272D01*
X96158819Y-85715280D01*
X95780682Y-85933598D01*
X95780656Y-85933614D01*
X95422986Y-86184057D01*
X95088490Y-86464734D01*
X94779734Y-86773490D01*
X94499057Y-87107986D01*
X94248614Y-87465656D01*
X94248598Y-87465682D01*
X94030280Y-87843819D01*
X94030272Y-87843835D01*
X93845746Y-88239550D01*
X93845740Y-88239565D01*
X93696392Y-88649894D01*
X93583383Y-89071655D01*
X93583379Y-89071672D01*
X93507557Y-89501675D01*
X93507557Y-89501679D01*
X93469500Y-89936669D01*
X92020500Y-89936669D01*
X92020500Y-80560761D01*
X92040185Y-80493722D01*
X92044165Y-80487899D01*
X92132287Y-80366610D01*
X92225220Y-80184219D01*
X92288477Y-79989534D01*
X92320500Y-79787352D01*
X92320500Y-79582648D01*
X97339500Y-79582648D01*
X97339500Y-79787352D01*
X97343095Y-79810048D01*
X97371522Y-79989534D01*
X97434781Y-80184223D01*
X97498691Y-80309653D01*
X97519487Y-80350466D01*
X97527715Y-80366613D01*
X97648028Y-80532213D01*
X97792786Y-80676971D01*
X97921260Y-80770311D01*
X97958390Y-80797287D01*
X98035244Y-80836446D01*
X98140776Y-80890218D01*
X98140778Y-80890218D01*
X98140781Y-80890220D01*
X98240784Y-80922713D01*
X98335465Y-80953477D01*
X98436557Y-80969488D01*
X98537648Y-80985500D01*
X98537649Y-80985500D01*
X98742351Y-80985500D01*
X98742352Y-80985500D01*
X98944534Y-80953477D01*
X99139219Y-80890220D01*
X99321610Y-80797287D01*
X99414590Y-80729732D01*
X99487213Y-80676971D01*
X99487215Y-80676968D01*
X99487219Y-80676966D01*
X99631966Y-80532219D01*
X99631968Y-80532215D01*
X99631971Y-80532213D01*
X99694752Y-80445801D01*
X99752287Y-80366610D01*
X99845220Y-80184219D01*
X99908477Y-79989534D01*
X99940500Y-79787352D01*
X99940500Y-79582648D01*
X99919456Y-79449781D01*
X99908477Y-79380465D01*
X99870679Y-79264135D01*
X99845220Y-79185781D01*
X99845218Y-79185778D01*
X99845218Y-79185776D01*
X99811503Y-79119607D01*
X99752287Y-79003390D01*
X99728928Y-78971239D01*
X99631971Y-78837786D01*
X99487213Y-78693028D01*
X99321613Y-78572715D01*
X99321612Y-78572714D01*
X99321610Y-78572713D01*
X99264231Y-78543477D01*
X99139223Y-78479781D01*
X98944534Y-78416522D01*
X98759929Y-78387284D01*
X98742352Y-78384500D01*
X98537648Y-78384500D01*
X98520071Y-78387284D01*
X98335465Y-78416522D01*
X98140776Y-78479781D01*
X97958386Y-78572715D01*
X97792786Y-78693028D01*
X97648028Y-78837786D01*
X97527715Y-79003386D01*
X97434781Y-79185776D01*
X97371522Y-79380465D01*
X97342808Y-79561760D01*
X97339500Y-79582648D01*
X92320500Y-79582648D01*
X92299456Y-79449781D01*
X92288477Y-79380465D01*
X92250679Y-79264135D01*
X92225220Y-79185781D01*
X92225218Y-79185778D01*
X92225218Y-79185776D01*
X92191503Y-79119607D01*
X92132287Y-79003390D01*
X92108928Y-78971239D01*
X92011971Y-78837786D01*
X91867213Y-78693028D01*
X91701613Y-78572715D01*
X91701612Y-78572714D01*
X91701610Y-78572713D01*
X91644231Y-78543477D01*
X91519223Y-78479781D01*
X91324534Y-78416522D01*
X91139929Y-78387284D01*
X91122352Y-78384500D01*
X90917648Y-78384500D01*
X90900071Y-78387284D01*
X90715465Y-78416522D01*
X90520776Y-78479781D01*
X90338386Y-78572715D01*
X90172786Y-78693028D01*
X90028028Y-78837786D01*
X89907715Y-79003386D01*
X89814781Y-79185776D01*
X89751522Y-79380465D01*
X89722808Y-79561760D01*
X89719500Y-79582648D01*
X89719500Y-79787352D01*
X89723095Y-79810048D01*
X89751522Y-79989534D01*
X89814781Y-80184223D01*
X89881522Y-80315208D01*
X89907713Y-80366610D01*
X89995819Y-80487877D01*
X90019298Y-80553681D01*
X90019500Y-80560761D01*
X90019500Y-90939217D01*
X89999815Y-91006256D01*
X89983181Y-91026898D01*
X86831899Y-94178181D01*
X86770576Y-94211666D01*
X86744218Y-94214500D01*
X72265783Y-94214500D01*
X72198744Y-94194815D01*
X72178102Y-94178181D01*
X70863349Y-92863428D01*
X70829864Y-92802105D01*
X70834848Y-92732413D01*
X70876720Y-92676480D01*
X70942184Y-92652063D01*
X70989344Y-92657815D01*
X71033757Y-92672246D01*
X71243713Y-92705500D01*
X71243714Y-92705500D01*
X71456286Y-92705500D01*
X71456287Y-92705500D01*
X71666243Y-92672246D01*
X71868412Y-92606557D01*
X72057816Y-92510051D01*
X72118222Y-92466164D01*
X72229786Y-92385109D01*
X72229788Y-92385106D01*
X72229792Y-92385104D01*
X72380104Y-92234792D01*
X72380106Y-92234788D01*
X72380109Y-92234786D01*
X72505048Y-92062820D01*
X72505047Y-92062820D01*
X72505051Y-92062816D01*
X72601557Y-91873412D01*
X72667246Y-91671243D01*
X72700500Y-91461287D01*
X72700500Y-91248713D01*
X72667246Y-91038757D01*
X72601557Y-90836588D01*
X72505051Y-90647184D01*
X72505049Y-90647181D01*
X72505048Y-90647179D01*
X72380109Y-90475213D01*
X72229786Y-90324890D01*
X72057820Y-90199951D01*
X72057115Y-90199591D01*
X72049054Y-90195485D01*
X71998259Y-90147512D01*
X71981463Y-90079692D01*
X72003999Y-90013556D01*
X72049054Y-89974515D01*
X72057816Y-89970051D01*
X72103763Y-89936669D01*
X72229786Y-89845109D01*
X72229788Y-89845106D01*
X72229792Y-89845104D01*
X72380104Y-89694792D01*
X72380106Y-89694788D01*
X72380109Y-89694786D01*
X72505048Y-89522820D01*
X72505047Y-89522820D01*
X72505051Y-89522816D01*
X72601557Y-89333412D01*
X72667246Y-89131243D01*
X72700500Y-88921287D01*
X72700500Y-88708713D01*
X72667246Y-88498757D01*
X72601557Y-88296588D01*
X72505051Y-88107184D01*
X72505049Y-88107181D01*
X72505048Y-88107179D01*
X72380109Y-87935213D01*
X72229786Y-87784890D01*
X72057820Y-87659951D01*
X72057115Y-87659591D01*
X72049054Y-87655485D01*
X71998259Y-87607512D01*
X71981463Y-87539692D01*
X72003999Y-87473556D01*
X72049054Y-87434515D01*
X72057816Y-87430051D01*
X72083928Y-87411080D01*
X72229786Y-87305109D01*
X72229788Y-87305106D01*
X72229792Y-87305104D01*
X72380104Y-87154792D01*
X72380106Y-87154788D01*
X72380109Y-87154786D01*
X72505048Y-86982820D01*
X72505047Y-86982820D01*
X72505051Y-86982816D01*
X72601557Y-86793412D01*
X72667246Y-86591243D01*
X72700500Y-86381287D01*
X72700500Y-86168713D01*
X72667246Y-85958757D01*
X72601557Y-85756588D01*
X72505051Y-85567184D01*
X72505049Y-85567181D01*
X72505048Y-85567179D01*
X72380109Y-85395213D01*
X72229786Y-85244890D01*
X72057820Y-85119951D01*
X72057115Y-85119591D01*
X72049054Y-85115485D01*
X71998259Y-85067512D01*
X71981463Y-84999692D01*
X72003999Y-84933556D01*
X72049054Y-84894515D01*
X72057816Y-84890051D01*
X72171052Y-84807781D01*
X72229786Y-84765109D01*
X72229788Y-84765106D01*
X72229792Y-84765104D01*
X72380104Y-84614792D01*
X72380106Y-84614788D01*
X72380109Y-84614786D01*
X72505048Y-84442820D01*
X72505047Y-84442820D01*
X72505051Y-84442816D01*
X72601557Y-84253412D01*
X72667246Y-84051243D01*
X72700500Y-83841287D01*
X72700500Y-83628713D01*
X72667246Y-83418757D01*
X72601557Y-83216588D01*
X72505051Y-83027184D01*
X72505049Y-83027181D01*
X72505048Y-83027179D01*
X72380109Y-82855213D01*
X72229786Y-82704890D01*
X72057820Y-82579951D01*
X72057115Y-82579591D01*
X72049054Y-82575485D01*
X71998259Y-82527512D01*
X71981463Y-82459692D01*
X72003999Y-82393556D01*
X72049054Y-82354515D01*
X72057816Y-82350051D01*
X72079789Y-82334086D01*
X72229786Y-82225109D01*
X72229788Y-82225106D01*
X72229792Y-82225104D01*
X72380104Y-82074792D01*
X72380106Y-82074788D01*
X72380109Y-82074786D01*
X72505048Y-81902820D01*
X72505047Y-81902820D01*
X72505051Y-81902816D01*
X72601557Y-81713412D01*
X72667246Y-81511243D01*
X72700500Y-81301287D01*
X72700500Y-81088713D01*
X72667246Y-80878757D01*
X72601557Y-80676588D01*
X72505051Y-80487184D01*
X72505049Y-80487181D01*
X72505048Y-80487179D01*
X72380109Y-80315213D01*
X72229786Y-80164890D01*
X72057820Y-80039951D01*
X72057115Y-80039591D01*
X72049054Y-80035485D01*
X71998259Y-79987512D01*
X71981463Y-79919692D01*
X72003999Y-79853556D01*
X72049054Y-79814515D01*
X72057816Y-79810051D01*
X72089060Y-79787351D01*
X72229786Y-79685109D01*
X72229788Y-79685106D01*
X72229792Y-79685104D01*
X72380104Y-79534792D01*
X72380106Y-79534788D01*
X72380109Y-79534786D01*
X72505048Y-79362820D01*
X72505047Y-79362820D01*
X72505051Y-79362816D01*
X72601557Y-79173412D01*
X72667246Y-78971243D01*
X72700500Y-78761287D01*
X72700500Y-78548713D01*
X72667246Y-78338757D01*
X72601557Y-78136588D01*
X72505051Y-77947184D01*
X72505049Y-77947181D01*
X72505048Y-77947179D01*
X72380109Y-77775213D01*
X72229786Y-77624890D01*
X72057820Y-77499951D01*
X72057115Y-77499591D01*
X72049054Y-77495485D01*
X71998259Y-77447512D01*
X71981463Y-77379692D01*
X72003999Y-77313556D01*
X72049054Y-77274515D01*
X72057816Y-77270051D01*
X72191881Y-77172648D01*
X72229786Y-77145109D01*
X72229788Y-77145106D01*
X72229792Y-77145104D01*
X72380104Y-76994792D01*
X72380106Y-76994788D01*
X72380109Y-76994786D01*
X72505048Y-76822820D01*
X72505047Y-76822820D01*
X72505051Y-76822816D01*
X72601557Y-76633412D01*
X72667246Y-76431243D01*
X72700500Y-76221287D01*
X72700500Y-76109452D01*
X72720185Y-76042413D01*
X72772989Y-75996658D01*
X72842147Y-75986714D01*
X72905703Y-76015739D01*
X72912180Y-76021770D01*
X79109202Y-82218793D01*
X85247571Y-88357162D01*
X85281056Y-88418485D01*
X85277821Y-88483160D01*
X85272754Y-88498753D01*
X85248817Y-88649888D01*
X85239500Y-88708713D01*
X85239500Y-88921287D01*
X85272754Y-89131243D01*
X85337629Y-89330908D01*
X85338444Y-89333414D01*
X85434951Y-89522820D01*
X85559890Y-89694786D01*
X85710213Y-89845109D01*
X85882182Y-89970050D01*
X85890946Y-89974516D01*
X85941742Y-90022491D01*
X85958536Y-90090312D01*
X85935998Y-90156447D01*
X85890946Y-90195484D01*
X85882182Y-90199949D01*
X85710213Y-90324890D01*
X85559890Y-90475213D01*
X85434951Y-90647179D01*
X85338444Y-90836585D01*
X85272753Y-91038760D01*
X85258839Y-91126610D01*
X85239500Y-91248713D01*
X85239500Y-91461287D01*
X85246192Y-91503540D01*
X85262634Y-91607352D01*
X85272754Y-91671243D01*
X85336468Y-91867335D01*
X85338444Y-91873414D01*
X85434951Y-92062820D01*
X85559890Y-92234786D01*
X85710213Y-92385109D01*
X85882179Y-92510048D01*
X85882181Y-92510049D01*
X85882184Y-92510051D01*
X86071588Y-92606557D01*
X86273757Y-92672246D01*
X86483713Y-92705500D01*
X86483714Y-92705500D01*
X86696286Y-92705500D01*
X86696287Y-92705500D01*
X86906243Y-92672246D01*
X87108412Y-92606557D01*
X87297816Y-92510051D01*
X87358222Y-92466164D01*
X87469786Y-92385109D01*
X87469788Y-92385106D01*
X87469792Y-92385104D01*
X87620104Y-92234792D01*
X87620106Y-92234788D01*
X87620109Y-92234786D01*
X87745048Y-92062820D01*
X87745047Y-92062820D01*
X87745051Y-92062816D01*
X87841557Y-91873412D01*
X87907246Y-91671243D01*
X87940500Y-91461287D01*
X87940500Y-91248713D01*
X87907246Y-91038757D01*
X87841557Y-90836588D01*
X87745051Y-90647184D01*
X87745049Y-90647181D01*
X87745048Y-90647179D01*
X87620109Y-90475213D01*
X87469786Y-90324890D01*
X87297820Y-90199951D01*
X87297115Y-90199591D01*
X87289054Y-90195485D01*
X87238259Y-90147512D01*
X87221463Y-90079692D01*
X87243999Y-90013556D01*
X87289054Y-89974515D01*
X87297816Y-89970051D01*
X87343763Y-89936669D01*
X87469786Y-89845109D01*
X87469788Y-89845106D01*
X87469792Y-89845104D01*
X87620104Y-89694792D01*
X87620106Y-89694788D01*
X87620109Y-89694786D01*
X87745048Y-89522820D01*
X87745047Y-89522820D01*
X87745051Y-89522816D01*
X87841557Y-89333412D01*
X87907246Y-89131243D01*
X87940500Y-88921287D01*
X87940500Y-88708713D01*
X87907246Y-88498757D01*
X87841557Y-88296588D01*
X87745051Y-88107184D01*
X87745049Y-88107181D01*
X87745048Y-88107179D01*
X87620109Y-87935213D01*
X87469786Y-87784890D01*
X87297820Y-87659951D01*
X87297115Y-87659591D01*
X87289054Y-87655485D01*
X87238259Y-87607512D01*
X87221463Y-87539692D01*
X87243999Y-87473556D01*
X87289054Y-87434515D01*
X87297816Y-87430051D01*
X87323928Y-87411080D01*
X87469786Y-87305109D01*
X87469788Y-87305106D01*
X87469792Y-87305104D01*
X87620104Y-87154792D01*
X87620106Y-87154788D01*
X87620109Y-87154786D01*
X87745048Y-86982820D01*
X87745047Y-86982820D01*
X87745051Y-86982816D01*
X87841557Y-86793412D01*
X87907246Y-86591243D01*
X87940500Y-86381287D01*
X87940500Y-86168713D01*
X87907246Y-85958757D01*
X87841557Y-85756588D01*
X87745051Y-85567184D01*
X87745049Y-85567181D01*
X87745048Y-85567179D01*
X87620109Y-85395213D01*
X87469786Y-85244890D01*
X87297820Y-85119951D01*
X87297115Y-85119591D01*
X87289054Y-85115485D01*
X87238259Y-85067512D01*
X87221463Y-84999692D01*
X87243999Y-84933556D01*
X87289054Y-84894515D01*
X87297816Y-84890051D01*
X87411052Y-84807781D01*
X87469786Y-84765109D01*
X87469788Y-84765106D01*
X87469792Y-84765104D01*
X87620104Y-84614792D01*
X87620106Y-84614788D01*
X87620109Y-84614786D01*
X87745048Y-84442820D01*
X87745047Y-84442820D01*
X87745051Y-84442816D01*
X87841557Y-84253412D01*
X87907246Y-84051243D01*
X87940500Y-83841287D01*
X87940500Y-83628713D01*
X87907246Y-83418757D01*
X87841557Y-83216588D01*
X87745051Y-83027184D01*
X87745049Y-83027181D01*
X87745048Y-83027179D01*
X87620109Y-82855213D01*
X87469786Y-82704890D01*
X87297820Y-82579951D01*
X87297115Y-82579591D01*
X87289054Y-82575485D01*
X87238259Y-82527512D01*
X87221463Y-82459692D01*
X87243999Y-82393556D01*
X87289054Y-82354515D01*
X87297816Y-82350051D01*
X87319789Y-82334086D01*
X87469786Y-82225109D01*
X87469788Y-82225106D01*
X87469792Y-82225104D01*
X87620104Y-82074792D01*
X87620106Y-82074788D01*
X87620109Y-82074786D01*
X87745048Y-81902820D01*
X87745047Y-81902820D01*
X87745051Y-81902816D01*
X87841557Y-81713412D01*
X87907246Y-81511243D01*
X87940500Y-81301287D01*
X87940500Y-81088713D01*
X87907246Y-80878757D01*
X87841557Y-80676588D01*
X87745051Y-80487184D01*
X87745049Y-80487181D01*
X87745048Y-80487179D01*
X87620109Y-80315213D01*
X87469786Y-80164890D01*
X87297820Y-80039951D01*
X87297115Y-80039591D01*
X87289054Y-80035485D01*
X87238259Y-79987512D01*
X87221463Y-79919692D01*
X87243999Y-79853556D01*
X87289054Y-79814515D01*
X87297816Y-79810051D01*
X87329060Y-79787351D01*
X87469786Y-79685109D01*
X87469788Y-79685106D01*
X87469792Y-79685104D01*
X87620104Y-79534792D01*
X87620106Y-79534788D01*
X87620109Y-79534786D01*
X87745048Y-79362820D01*
X87745047Y-79362820D01*
X87745051Y-79362816D01*
X87841557Y-79173412D01*
X87907246Y-78971243D01*
X87940500Y-78761287D01*
X87940500Y-78548713D01*
X87907246Y-78338757D01*
X87841557Y-78136588D01*
X87745051Y-77947184D01*
X87745049Y-77947181D01*
X87745048Y-77947179D01*
X87620109Y-77775213D01*
X87469788Y-77624892D01*
X87461079Y-77618565D01*
X87461045Y-77618541D01*
X87329059Y-77522648D01*
X101989500Y-77522648D01*
X101989500Y-77727351D01*
X102021522Y-77929534D01*
X102084781Y-78124223D01*
X102143949Y-78240344D01*
X102172534Y-78296446D01*
X102177715Y-78306613D01*
X102298028Y-78472213D01*
X102442786Y-78616971D01*
X102547472Y-78693028D01*
X102608390Y-78737287D01*
X102724607Y-78796503D01*
X102790776Y-78830218D01*
X102790778Y-78830218D01*
X102790781Y-78830220D01*
X102880459Y-78859358D01*
X102985465Y-78893477D01*
X103086557Y-78909488D01*
X103187648Y-78925500D01*
X103187649Y-78925500D01*
X103392351Y-78925500D01*
X103392352Y-78925500D01*
X103594534Y-78893477D01*
X103789219Y-78830220D01*
X103971610Y-78737287D01*
X104094799Y-78647786D01*
X104137213Y-78616971D01*
X104137215Y-78616968D01*
X104137219Y-78616966D01*
X104281966Y-78472219D01*
X104322911Y-78415861D01*
X104378240Y-78373196D01*
X104447853Y-78367215D01*
X104509649Y-78399820D01*
X104540936Y-78449741D01*
X104555642Y-78494121D01*
X104555643Y-78494124D01*
X104647684Y-78643345D01*
X104771654Y-78767315D01*
X104920875Y-78859356D01*
X104920880Y-78859358D01*
X105087302Y-78914505D01*
X105087309Y-78914506D01*
X105190019Y-78924999D01*
X105539999Y-78924999D01*
X105540000Y-78924998D01*
X105540000Y-77940686D01*
X105544394Y-77945080D01*
X105635606Y-77997741D01*
X105737339Y-78025000D01*
X105842661Y-78025000D01*
X105944394Y-77997741D01*
X106035606Y-77945080D01*
X106040000Y-77940686D01*
X106040000Y-78924999D01*
X106389972Y-78924999D01*
X106389986Y-78924998D01*
X106492697Y-78914505D01*
X106659119Y-78859358D01*
X106659124Y-78859356D01*
X106808345Y-78767315D01*
X106932315Y-78643345D01*
X107024356Y-78494124D01*
X107024358Y-78494119D01*
X107079505Y-78327697D01*
X107079506Y-78327690D01*
X107089999Y-78224986D01*
X107090000Y-78224973D01*
X107090000Y-77875000D01*
X106105686Y-77875000D01*
X106110080Y-77870606D01*
X106162741Y-77779394D01*
X106190000Y-77677661D01*
X106190000Y-77572339D01*
X106176685Y-77522648D01*
X108529500Y-77522648D01*
X108529500Y-77727351D01*
X108561522Y-77929534D01*
X108624781Y-78124223D01*
X108683949Y-78240344D01*
X108712534Y-78296446D01*
X108717715Y-78306613D01*
X108838028Y-78472213D01*
X108982786Y-78616971D01*
X109087472Y-78693028D01*
X109148390Y-78737287D01*
X109264607Y-78796503D01*
X109330776Y-78830218D01*
X109330778Y-78830218D01*
X109330781Y-78830220D01*
X109420459Y-78859358D01*
X109525465Y-78893477D01*
X109626557Y-78909488D01*
X109727648Y-78925500D01*
X109727649Y-78925500D01*
X109932351Y-78925500D01*
X109932352Y-78925500D01*
X110134534Y-78893477D01*
X110329219Y-78830220D01*
X110511610Y-78737287D01*
X110634799Y-78647786D01*
X110677213Y-78616971D01*
X110677215Y-78616968D01*
X110677219Y-78616966D01*
X110821966Y-78472219D01*
X110862550Y-78416358D01*
X110917878Y-78373694D01*
X110987491Y-78367713D01*
X111049287Y-78400318D01*
X111080573Y-78450238D01*
X111095183Y-78494327D01*
X111095185Y-78494331D01*
X111095186Y-78494334D01*
X111187288Y-78643656D01*
X111311344Y-78767712D01*
X111460666Y-78859814D01*
X111627203Y-78914999D01*
X111729991Y-78925500D01*
X112930008Y-78925499D01*
X113032797Y-78914999D01*
X113199334Y-78859814D01*
X113348656Y-78767712D01*
X113472712Y-78643656D01*
X113564814Y-78494334D01*
X113619999Y-78327797D01*
X113630500Y-78225009D01*
X113630499Y-77024992D01*
X113627413Y-76994786D01*
X113619999Y-76922203D01*
X113619998Y-76922200D01*
X113607349Y-76884027D01*
X113564814Y-76755666D01*
X113472712Y-76606344D01*
X113348656Y-76482288D01*
X113199334Y-76390186D01*
X113032797Y-76335001D01*
X113032795Y-76335000D01*
X112930010Y-76324500D01*
X111729998Y-76324500D01*
X111729981Y-76324501D01*
X111627203Y-76335000D01*
X111627200Y-76335001D01*
X111460668Y-76390185D01*
X111460663Y-76390187D01*
X111311342Y-76482289D01*
X111187289Y-76606342D01*
X111095187Y-76755663D01*
X111095186Y-76755666D01*
X111087858Y-76777782D01*
X111080575Y-76799760D01*
X111040802Y-76857205D01*
X110976286Y-76884027D01*
X110907510Y-76871712D01*
X110862551Y-76833640D01*
X110821971Y-76777787D01*
X110821967Y-76777782D01*
X110677213Y-76633028D01*
X110511613Y-76512715D01*
X110511612Y-76512714D01*
X110511610Y-76512713D01*
X110428209Y-76470218D01*
X110329223Y-76419781D01*
X110134534Y-76356522D01*
X109959995Y-76328878D01*
X109932352Y-76324500D01*
X109727648Y-76324500D01*
X109703329Y-76328351D01*
X109525465Y-76356522D01*
X109330776Y-76419781D01*
X109148386Y-76512715D01*
X108982786Y-76633028D01*
X108838028Y-76777786D01*
X108717715Y-76943386D01*
X108624781Y-77125776D01*
X108561522Y-77320465D01*
X108529500Y-77522648D01*
X106176685Y-77522648D01*
X106162741Y-77470606D01*
X106110080Y-77379394D01*
X106105686Y-77375000D01*
X107089999Y-77375000D01*
X107089999Y-77025028D01*
X107089998Y-77025013D01*
X107079505Y-76922302D01*
X107024358Y-76755880D01*
X107024356Y-76755875D01*
X106932315Y-76606654D01*
X106808345Y-76482684D01*
X106659124Y-76390643D01*
X106659119Y-76390641D01*
X106492697Y-76335494D01*
X106492690Y-76335493D01*
X106389986Y-76325000D01*
X106040000Y-76325000D01*
X106040000Y-77309314D01*
X106035606Y-77304920D01*
X105944394Y-77252259D01*
X105842661Y-77225000D01*
X105737339Y-77225000D01*
X105635606Y-77252259D01*
X105544394Y-77304920D01*
X105540000Y-77309314D01*
X105540000Y-76325000D01*
X105190028Y-76325000D01*
X105190012Y-76325001D01*
X105087302Y-76335494D01*
X104920880Y-76390641D01*
X104920875Y-76390643D01*
X104771654Y-76482684D01*
X104647684Y-76606654D01*
X104555643Y-76755875D01*
X104555638Y-76755886D01*
X104540935Y-76800258D01*
X104501162Y-76857703D01*
X104436646Y-76884525D01*
X104367870Y-76872209D01*
X104322911Y-76834138D01*
X104322549Y-76833640D01*
X104281966Y-76777781D01*
X104137219Y-76633034D01*
X104137213Y-76633028D01*
X103971613Y-76512715D01*
X103971612Y-76512714D01*
X103971610Y-76512713D01*
X103888209Y-76470218D01*
X103789223Y-76419781D01*
X103594534Y-76356522D01*
X103419995Y-76328878D01*
X103392352Y-76324500D01*
X103187648Y-76324500D01*
X103163329Y-76328351D01*
X102985465Y-76356522D01*
X102790776Y-76419781D01*
X102608386Y-76512715D01*
X102442786Y-76633028D01*
X102298028Y-76777786D01*
X102177715Y-76943386D01*
X102084781Y-77125776D01*
X102021522Y-77320465D01*
X101989500Y-77522648D01*
X87329059Y-77522648D01*
X87297816Y-77499949D01*
X87281100Y-77491432D01*
X87273807Y-77486280D01*
X87257430Y-77465618D01*
X87238259Y-77447512D01*
X87236068Y-77438665D01*
X87230408Y-77431524D01*
X87227801Y-77405285D01*
X87221463Y-77379692D01*
X87224402Y-77371066D01*
X87223501Y-77361996D01*
X87235495Y-77338511D01*
X87243999Y-77313556D01*
X87251608Y-77306962D01*
X87255281Y-77299772D01*
X87269390Y-77291554D01*
X87289054Y-77274515D01*
X87297816Y-77270051D01*
X87431881Y-77172648D01*
X87469786Y-77145109D01*
X87469788Y-77145106D01*
X87469792Y-77145104D01*
X87620104Y-76994792D01*
X87620106Y-76994788D01*
X87620109Y-76994786D01*
X87745048Y-76822820D01*
X87745047Y-76822820D01*
X87745051Y-76822816D01*
X87841557Y-76633412D01*
X87907246Y-76431243D01*
X87940500Y-76221287D01*
X87940500Y-76008713D01*
X87907246Y-75798757D01*
X87841557Y-75596588D01*
X87745051Y-75407184D01*
X87745049Y-75407181D01*
X87745048Y-75407179D01*
X87620111Y-75235217D01*
X87620102Y-75235206D01*
X87547544Y-75162648D01*
X89719500Y-75162648D01*
X89719500Y-75367351D01*
X89751522Y-75569534D01*
X89814781Y-75764223D01*
X89907715Y-75946613D01*
X90028028Y-76112213D01*
X90172786Y-76256971D01*
X90327749Y-76369556D01*
X90338390Y-76377287D01*
X90454607Y-76436503D01*
X90520776Y-76470218D01*
X90520778Y-76470218D01*
X90520781Y-76470220D01*
X90625137Y-76504127D01*
X90715465Y-76533477D01*
X90816557Y-76549488D01*
X90917648Y-76565500D01*
X90917649Y-76565500D01*
X91122351Y-76565500D01*
X91122352Y-76565500D01*
X91324534Y-76533477D01*
X91519219Y-76470220D01*
X91701610Y-76377287D01*
X91794590Y-76309732D01*
X91867213Y-76256971D01*
X91867215Y-76256968D01*
X91867219Y-76256966D01*
X92011966Y-76112219D01*
X92011968Y-76112215D01*
X92011971Y-76112213D01*
X92088758Y-76006523D01*
X92132287Y-75946610D01*
X92225220Y-75764219D01*
X92288477Y-75569534D01*
X92320500Y-75367352D01*
X92320500Y-75162648D01*
X97339500Y-75162648D01*
X97339500Y-75367351D01*
X97371522Y-75569534D01*
X97434781Y-75764223D01*
X97527715Y-75946613D01*
X97648028Y-76112213D01*
X97792786Y-76256971D01*
X97947749Y-76369556D01*
X97958390Y-76377287D01*
X98074607Y-76436503D01*
X98140776Y-76470218D01*
X98140778Y-76470218D01*
X98140781Y-76470220D01*
X98245137Y-76504127D01*
X98335465Y-76533477D01*
X98436557Y-76549488D01*
X98537648Y-76565500D01*
X98537649Y-76565500D01*
X98742351Y-76565500D01*
X98742352Y-76565500D01*
X98944534Y-76533477D01*
X99139219Y-76470220D01*
X99321610Y-76377287D01*
X99414590Y-76309732D01*
X99487213Y-76256971D01*
X99487215Y-76256968D01*
X99487219Y-76256966D01*
X99631966Y-76112219D01*
X99631968Y-76112215D01*
X99631971Y-76112213D01*
X99708758Y-76006523D01*
X99752287Y-75946610D01*
X99845220Y-75764219D01*
X99908477Y-75569534D01*
X99940500Y-75367352D01*
X99940500Y-75162648D01*
X99908477Y-74960466D01*
X99906858Y-74955484D01*
X99845218Y-74765776D01*
X99763353Y-74605109D01*
X99752287Y-74583390D01*
X99744556Y-74572749D01*
X99631971Y-74417786D01*
X99487213Y-74273028D01*
X99321613Y-74152715D01*
X99321612Y-74152714D01*
X99321610Y-74152713D01*
X99238694Y-74110465D01*
X99139223Y-74059781D01*
X98944534Y-73996522D01*
X98769995Y-73968878D01*
X98742352Y-73964500D01*
X98537648Y-73964500D01*
X98513329Y-73968351D01*
X98335465Y-73996522D01*
X98140776Y-74059781D01*
X97958386Y-74152715D01*
X97792786Y-74273028D01*
X97648028Y-74417786D01*
X97527715Y-74583386D01*
X97434781Y-74765776D01*
X97371522Y-74960465D01*
X97339500Y-75162648D01*
X92320500Y-75162648D01*
X92288477Y-74960466D01*
X92286858Y-74955484D01*
X92225218Y-74765776D01*
X92143353Y-74605109D01*
X92132287Y-74583390D01*
X92124556Y-74572749D01*
X92011971Y-74417786D01*
X91867213Y-74273028D01*
X91701613Y-74152715D01*
X91701612Y-74152714D01*
X91701610Y-74152713D01*
X91618694Y-74110465D01*
X91519223Y-74059781D01*
X91324534Y-73996522D01*
X91149995Y-73968878D01*
X91122352Y-73964500D01*
X90917648Y-73964500D01*
X90893329Y-73968351D01*
X90715465Y-73996522D01*
X90520776Y-74059781D01*
X90338386Y-74152715D01*
X90172786Y-74273028D01*
X90028028Y-74417786D01*
X89907715Y-74583386D01*
X89814781Y-74765776D01*
X89751522Y-74960465D01*
X89719500Y-75162648D01*
X87547544Y-75162648D01*
X87469786Y-75084890D01*
X87297820Y-74959951D01*
X87297115Y-74959591D01*
X87289054Y-74955485D01*
X87238259Y-74907512D01*
X87221463Y-74839692D01*
X87243999Y-74773556D01*
X87289054Y-74734515D01*
X87297816Y-74730051D01*
X87319789Y-74714086D01*
X87469786Y-74605109D01*
X87469788Y-74605106D01*
X87469792Y-74605104D01*
X87620104Y-74454792D01*
X87620106Y-74454788D01*
X87620109Y-74454786D01*
X87745048Y-74282820D01*
X87745047Y-74282820D01*
X87745051Y-74282816D01*
X87841557Y-74093412D01*
X87907246Y-73891243D01*
X87940500Y-73681287D01*
X87940500Y-73468713D01*
X87907246Y-73258757D01*
X87841557Y-73056588D01*
X87745051Y-72867184D01*
X87745049Y-72867181D01*
X87745048Y-72867179D01*
X87620109Y-72695213D01*
X87469786Y-72544890D01*
X87297820Y-72419951D01*
X87297115Y-72419591D01*
X87289054Y-72415485D01*
X87238259Y-72367512D01*
X87221463Y-72299692D01*
X87243999Y-72233556D01*
X87289054Y-72194515D01*
X87297816Y-72190051D01*
X87319789Y-72174086D01*
X87469786Y-72065109D01*
X87469788Y-72065106D01*
X87469792Y-72065104D01*
X87620104Y-71914792D01*
X87620106Y-71914788D01*
X87620109Y-71914786D01*
X87745048Y-71742820D01*
X87745047Y-71742820D01*
X87745051Y-71742816D01*
X87841557Y-71553412D01*
X87907246Y-71351243D01*
X87940500Y-71141287D01*
X87940500Y-70928713D01*
X87907246Y-70718757D01*
X87841557Y-70516588D01*
X87841555Y-70516585D01*
X87841555Y-70516583D01*
X87761866Y-70360185D01*
X87745051Y-70327184D01*
X87745049Y-70327181D01*
X87745048Y-70327179D01*
X87620109Y-70155213D01*
X87469786Y-70004890D01*
X87297820Y-69879951D01*
X87297115Y-69879591D01*
X87289054Y-69875485D01*
X87238259Y-69827512D01*
X87221463Y-69759692D01*
X87243999Y-69693556D01*
X87289054Y-69654515D01*
X87297816Y-69650051D01*
X87376736Y-69592713D01*
X87469786Y-69525109D01*
X87469788Y-69525106D01*
X87469792Y-69525104D01*
X87478279Y-69516617D01*
X91040000Y-69516617D01*
X91040000Y-69713382D01*
X91070778Y-69907705D01*
X91131581Y-70094835D01*
X91220905Y-70270145D01*
X91246319Y-70305125D01*
X91246320Y-70305125D01*
X91890000Y-69661445D01*
X91890000Y-69667661D01*
X91917259Y-69769394D01*
X91969920Y-69860606D01*
X92044394Y-69935080D01*
X92135606Y-69987741D01*
X92237339Y-70015000D01*
X92243553Y-70015000D01*
X91599873Y-70658677D01*
X91599873Y-70658678D01*
X91634858Y-70684096D01*
X91810164Y-70773418D01*
X91997294Y-70834221D01*
X92191618Y-70865000D01*
X92388382Y-70865000D01*
X92582705Y-70834221D01*
X92769835Y-70773418D01*
X92945143Y-70684095D01*
X92980125Y-70658678D01*
X92980126Y-70658678D01*
X92336448Y-70015000D01*
X92342661Y-70015000D01*
X92444394Y-69987741D01*
X92535606Y-69935080D01*
X92610080Y-69860606D01*
X92662741Y-69769394D01*
X92690000Y-69667661D01*
X92690000Y-69661447D01*
X93333678Y-70305126D01*
X93333678Y-70305125D01*
X93359097Y-70270141D01*
X93449234Y-70093236D01*
X93497208Y-70042439D01*
X93565029Y-70025644D01*
X93631164Y-70048181D01*
X93670204Y-70093235D01*
X93671115Y-70095024D01*
X93671116Y-70095025D01*
X93760476Y-70270405D01*
X93876172Y-70429646D01*
X94015354Y-70568828D01*
X94174595Y-70684524D01*
X94249214Y-70722544D01*
X94349970Y-70773882D01*
X94349972Y-70773882D01*
X94349975Y-70773884D01*
X94433146Y-70800908D01*
X94537173Y-70834709D01*
X94731578Y-70865500D01*
X94731583Y-70865500D01*
X94928422Y-70865500D01*
X95122826Y-70834709D01*
X95155603Y-70824059D01*
X95310025Y-70773884D01*
X95485405Y-70684524D01*
X95644646Y-70568828D01*
X95783828Y-70429646D01*
X95895184Y-70276378D01*
X95950512Y-70233714D01*
X96020125Y-70227735D01*
X96081920Y-70260341D01*
X96116277Y-70321179D01*
X96119500Y-70349263D01*
X96119500Y-70412869D01*
X96119501Y-70412876D01*
X96125908Y-70472483D01*
X96176202Y-70607328D01*
X96176206Y-70607335D01*
X96262452Y-70722544D01*
X96262455Y-70722547D01*
X96377664Y-70808793D01*
X96377671Y-70808797D01*
X96512517Y-70859091D01*
X96512516Y-70859091D01*
X96519444Y-70859835D01*
X96572127Y-70865500D01*
X98167872Y-70865499D01*
X98227483Y-70859091D01*
X98362331Y-70808796D01*
X98477546Y-70722546D01*
X98563796Y-70607331D01*
X98614091Y-70472483D01*
X98620500Y-70412873D01*
X98620499Y-68817128D01*
X98614091Y-68757517D01*
X98582540Y-68672925D01*
X98563797Y-68622671D01*
X98563793Y-68622664D01*
X98477547Y-68507455D01*
X98477544Y-68507452D01*
X98362335Y-68421206D01*
X98362328Y-68421202D01*
X98227482Y-68370908D01*
X98227483Y-68370908D01*
X98167883Y-68364501D01*
X98167881Y-68364500D01*
X98167873Y-68364500D01*
X98167864Y-68364500D01*
X96572129Y-68364500D01*
X96572123Y-68364501D01*
X96512516Y-68370908D01*
X96377671Y-68421202D01*
X96377664Y-68421206D01*
X96262455Y-68507452D01*
X96262452Y-68507455D01*
X96176206Y-68622664D01*
X96176202Y-68622671D01*
X96125908Y-68757517D01*
X96119501Y-68817116D01*
X96119501Y-68817123D01*
X96119500Y-68817135D01*
X96119500Y-68880732D01*
X96099815Y-68947771D01*
X96047011Y-68993526D01*
X95977853Y-69003470D01*
X95914297Y-68974445D01*
X95895182Y-68953618D01*
X95834551Y-68870168D01*
X95783828Y-68800354D01*
X95644646Y-68661172D01*
X95485405Y-68545476D01*
X95479982Y-68542713D01*
X95310029Y-68456117D01*
X95122826Y-68395290D01*
X94928422Y-68364500D01*
X94928417Y-68364500D01*
X94731583Y-68364500D01*
X94731578Y-68364500D01*
X94537173Y-68395290D01*
X94349970Y-68456117D01*
X94174594Y-68545476D01*
X94097778Y-68601287D01*
X94015354Y-68661172D01*
X94015352Y-68661174D01*
X94015351Y-68661174D01*
X93876174Y-68800351D01*
X93876174Y-68800352D01*
X93876172Y-68800354D01*
X93837532Y-68853537D01*
X93760476Y-68959594D01*
X93670204Y-69136764D01*
X93622229Y-69187560D01*
X93554408Y-69204355D01*
X93488274Y-69181818D01*
X93449234Y-69136764D01*
X93359096Y-68959858D01*
X93333678Y-68924873D01*
X93333677Y-68924873D01*
X92690000Y-69568551D01*
X92690000Y-69562339D01*
X92662741Y-69460606D01*
X92610080Y-69369394D01*
X92535606Y-69294920D01*
X92444394Y-69242259D01*
X92342661Y-69215000D01*
X92336447Y-69215000D01*
X92980125Y-68571320D01*
X92980125Y-68571319D01*
X92945145Y-68545905D01*
X92769835Y-68456581D01*
X92582705Y-68395778D01*
X92388382Y-68365000D01*
X92191618Y-68365000D01*
X91997294Y-68395778D01*
X91810161Y-68456582D01*
X91634863Y-68545899D01*
X91634859Y-68545902D01*
X91599873Y-68571320D01*
X91599872Y-68571320D01*
X92243554Y-69215000D01*
X92237339Y-69215000D01*
X92135606Y-69242259D01*
X92044394Y-69294920D01*
X91969920Y-69369394D01*
X91917259Y-69460606D01*
X91890000Y-69562339D01*
X91890000Y-69568552D01*
X91246320Y-68924872D01*
X91246320Y-68924873D01*
X91220902Y-68959859D01*
X91220899Y-68959863D01*
X91131582Y-69135161D01*
X91070778Y-69322294D01*
X91040000Y-69516617D01*
X87478279Y-69516617D01*
X87620104Y-69374792D01*
X87620106Y-69374788D01*
X87620109Y-69374786D01*
X87745048Y-69202820D01*
X87745047Y-69202820D01*
X87745051Y-69202816D01*
X87841557Y-69013412D01*
X87907246Y-68811243D01*
X87940500Y-68601287D01*
X87940500Y-68388713D01*
X87907246Y-68178757D01*
X87841557Y-67976588D01*
X87745051Y-67787184D01*
X87745049Y-67787181D01*
X87745048Y-67787179D01*
X87620109Y-67615213D01*
X87469786Y-67464890D01*
X87428779Y-67435097D01*
X102319500Y-67435097D01*
X102319500Y-69894902D01*
X102360140Y-70151493D01*
X102440422Y-70398576D01*
X102498208Y-70511985D01*
X102556271Y-70625940D01*
X102558368Y-70630054D01*
X102706704Y-70834221D01*
X102711069Y-70840229D01*
X102894771Y-71023931D01*
X103104949Y-71176634D01*
X103243277Y-71247116D01*
X103336423Y-71294577D01*
X103336425Y-71294577D01*
X103336428Y-71294579D01*
X103583507Y-71374860D01*
X103715706Y-71395797D01*
X103840098Y-71415500D01*
X103840103Y-71415500D01*
X104099902Y-71415500D01*
X104213298Y-71397539D01*
X104356493Y-71374860D01*
X104603572Y-71294579D01*
X104835051Y-71176634D01*
X105045229Y-71023931D01*
X105228931Y-70840229D01*
X105381634Y-70630051D01*
X105499579Y-70398572D01*
X105579860Y-70151493D01*
X105605795Y-69987741D01*
X105620500Y-69894902D01*
X105620500Y-67435097D01*
X108319500Y-67435097D01*
X108319500Y-69894902D01*
X108360140Y-70151493D01*
X108440422Y-70398576D01*
X108498208Y-70511985D01*
X108556271Y-70625940D01*
X108558368Y-70630054D01*
X108706704Y-70834221D01*
X108711069Y-70840229D01*
X108894771Y-71023931D01*
X109104949Y-71176634D01*
X109243277Y-71247116D01*
X109336423Y-71294577D01*
X109336425Y-71294577D01*
X109336428Y-71294579D01*
X109583507Y-71374860D01*
X109715706Y-71395797D01*
X109840098Y-71415500D01*
X109840103Y-71415500D01*
X110099902Y-71415500D01*
X110213298Y-71397539D01*
X110356493Y-71374860D01*
X110603572Y-71294579D01*
X110835051Y-71176634D01*
X111045229Y-71023931D01*
X111228931Y-70840229D01*
X111381634Y-70630051D01*
X111499579Y-70398572D01*
X111579860Y-70151493D01*
X111605795Y-69987741D01*
X111620500Y-69894902D01*
X111620500Y-67435097D01*
X111597124Y-67287512D01*
X111579860Y-67178507D01*
X111499579Y-66931428D01*
X111499577Y-66931425D01*
X111499577Y-66931423D01*
X111450337Y-66834786D01*
X111381634Y-66699949D01*
X111228931Y-66489771D01*
X111045229Y-66306069D01*
X110835051Y-66153366D01*
X110762764Y-66116534D01*
X110603576Y-66035422D01*
X110356493Y-65955140D01*
X110099902Y-65914500D01*
X110099897Y-65914500D01*
X109840103Y-65914500D01*
X109840098Y-65914500D01*
X109583506Y-65955140D01*
X109336423Y-66035422D01*
X109104945Y-66153368D01*
X108894774Y-66306066D01*
X108894768Y-66306071D01*
X108711071Y-66489768D01*
X108711066Y-66489774D01*
X108558368Y-66699945D01*
X108440422Y-66931423D01*
X108360140Y-67178506D01*
X108319500Y-67435097D01*
X105620500Y-67435097D01*
X105597124Y-67287512D01*
X105579860Y-67178507D01*
X105499579Y-66931428D01*
X105499577Y-66931425D01*
X105499577Y-66931423D01*
X105450337Y-66834786D01*
X105381634Y-66699949D01*
X105228931Y-66489771D01*
X105045229Y-66306069D01*
X104835051Y-66153366D01*
X104762764Y-66116534D01*
X104603576Y-66035422D01*
X104356493Y-65955140D01*
X104099902Y-65914500D01*
X104099897Y-65914500D01*
X103840103Y-65914500D01*
X103840098Y-65914500D01*
X103583506Y-65955140D01*
X103336423Y-66035422D01*
X103104945Y-66153368D01*
X102894774Y-66306066D01*
X102894768Y-66306071D01*
X102711071Y-66489768D01*
X102711066Y-66489774D01*
X102558368Y-66699945D01*
X102440422Y-66931423D01*
X102360140Y-67178506D01*
X102319500Y-67435097D01*
X87428779Y-67435097D01*
X87297820Y-67339951D01*
X87297115Y-67339591D01*
X87289054Y-67335485D01*
X87238259Y-67287512D01*
X87221463Y-67219692D01*
X87243999Y-67153556D01*
X87289054Y-67114515D01*
X87297816Y-67110051D01*
X87425931Y-67016971D01*
X87469786Y-66985109D01*
X87469788Y-66985106D01*
X87469792Y-66985104D01*
X87620104Y-66834792D01*
X87620106Y-66834788D01*
X87620109Y-66834786D01*
X87745048Y-66662820D01*
X87745047Y-66662820D01*
X87745051Y-66662816D01*
X87841557Y-66473412D01*
X87907246Y-66271243D01*
X87940500Y-66061287D01*
X87940500Y-65848713D01*
X87907246Y-65638757D01*
X87841557Y-65436588D01*
X87745051Y-65247184D01*
X87745049Y-65247181D01*
X87745048Y-65247179D01*
X87620109Y-65075213D01*
X87469786Y-64924890D01*
X87297820Y-64799951D01*
X87297115Y-64799591D01*
X87289054Y-64795485D01*
X87286293Y-64792876D01*
X87282609Y-64791956D01*
X87261100Y-64769083D01*
X87238259Y-64747512D01*
X87237345Y-64743823D01*
X87234744Y-64741057D01*
X87229014Y-64710182D01*
X87221463Y-64679692D01*
X87222688Y-64676096D01*
X87221995Y-64672361D01*
X87233868Y-64643284D01*
X87243999Y-64613556D01*
X87247391Y-64610170D01*
X87248410Y-64607677D01*
X87256528Y-64601053D01*
X87274121Y-64583498D01*
X87275332Y-64582648D01*
X89719500Y-64582648D01*
X89719500Y-64787351D01*
X89751522Y-64989534D01*
X89814781Y-65184223D01*
X89878691Y-65309653D01*
X89905728Y-65362715D01*
X89907715Y-65366613D01*
X90028028Y-65532213D01*
X90172786Y-65676971D01*
X90327749Y-65789556D01*
X90338390Y-65797287D01*
X90439319Y-65848713D01*
X90520776Y-65890218D01*
X90520778Y-65890218D01*
X90520781Y-65890220D01*
X90595507Y-65914500D01*
X90715465Y-65953477D01*
X90816557Y-65969488D01*
X90917648Y-65985500D01*
X90917649Y-65985500D01*
X91122351Y-65985500D01*
X91122352Y-65985500D01*
X91324534Y-65953477D01*
X91519219Y-65890220D01*
X91701610Y-65797287D01*
X91807347Y-65720465D01*
X91867213Y-65676971D01*
X91867215Y-65676968D01*
X91867219Y-65676966D01*
X92011966Y-65532219D01*
X92011968Y-65532215D01*
X92011971Y-65532213D01*
X92081445Y-65436588D01*
X92132287Y-65366610D01*
X92225220Y-65184219D01*
X92288477Y-64989534D01*
X92320500Y-64787352D01*
X92320500Y-64582648D01*
X97339500Y-64582648D01*
X97339500Y-64787351D01*
X97371522Y-64989534D01*
X97434781Y-65184223D01*
X97498691Y-65309653D01*
X97525728Y-65362715D01*
X97527715Y-65366613D01*
X97648028Y-65532213D01*
X97792786Y-65676971D01*
X97947749Y-65789556D01*
X97958390Y-65797287D01*
X98059319Y-65848713D01*
X98140776Y-65890218D01*
X98140778Y-65890218D01*
X98140781Y-65890220D01*
X98215507Y-65914500D01*
X98335465Y-65953477D01*
X98436557Y-65969488D01*
X98537648Y-65985500D01*
X98537649Y-65985500D01*
X98742351Y-65985500D01*
X98742352Y-65985500D01*
X98944534Y-65953477D01*
X99139219Y-65890220D01*
X99321610Y-65797287D01*
X99427347Y-65720465D01*
X99487213Y-65676971D01*
X99487215Y-65676968D01*
X99487219Y-65676966D01*
X99631966Y-65532219D01*
X99631968Y-65532215D01*
X99631971Y-65532213D01*
X99701445Y-65436588D01*
X99752287Y-65366610D01*
X99845220Y-65184219D01*
X99908477Y-64989534D01*
X99940500Y-64787352D01*
X99940500Y-64582648D01*
X99918715Y-64445104D01*
X99908477Y-64380465D01*
X99845218Y-64185776D01*
X99752287Y-64003390D01*
X99715761Y-63953116D01*
X99715760Y-63953113D01*
X99666344Y-63885097D01*
X103969500Y-63885097D01*
X103969500Y-64144902D01*
X104010140Y-64401493D01*
X104090422Y-64648576D01*
X104208368Y-64880054D01*
X104287910Y-64989534D01*
X104361069Y-65090229D01*
X104544771Y-65273931D01*
X104754949Y-65426634D01*
X104865628Y-65483028D01*
X104986423Y-65544577D01*
X104986425Y-65544577D01*
X104986428Y-65544579D01*
X105233507Y-65624860D01*
X105365706Y-65645797D01*
X105490098Y-65665500D01*
X105490103Y-65665500D01*
X107449902Y-65665500D01*
X107563298Y-65647539D01*
X107706493Y-65624860D01*
X107953572Y-65544579D01*
X108185051Y-65426634D01*
X108395229Y-65273931D01*
X108578931Y-65090229D01*
X108731634Y-64880051D01*
X108849579Y-64648572D01*
X108929860Y-64401493D01*
X108964026Y-64185776D01*
X108970500Y-64144902D01*
X108970500Y-63885097D01*
X108940720Y-63697075D01*
X108929860Y-63628507D01*
X108849579Y-63381428D01*
X108849577Y-63381425D01*
X108849577Y-63381423D01*
X108755158Y-63196118D01*
X108731634Y-63149949D01*
X108578931Y-62939771D01*
X108395229Y-62756069D01*
X108395225Y-62756066D01*
X108185054Y-62603368D01*
X108185053Y-62603367D01*
X108185051Y-62603366D01*
X108112764Y-62566534D01*
X107953576Y-62485422D01*
X107706493Y-62405140D01*
X107449902Y-62364500D01*
X107449897Y-62364500D01*
X105490103Y-62364500D01*
X105490098Y-62364500D01*
X105233506Y-62405140D01*
X104986423Y-62485422D01*
X104754945Y-62603368D01*
X104544774Y-62756066D01*
X104544768Y-62756071D01*
X104361071Y-62939768D01*
X104361066Y-62939774D01*
X104208368Y-63149945D01*
X104090422Y-63381423D01*
X104010140Y-63628506D01*
X103969500Y-63885097D01*
X99666344Y-63885097D01*
X99631971Y-63837786D01*
X99487213Y-63693028D01*
X99321613Y-63572715D01*
X99321612Y-63572714D01*
X99321610Y-63572713D01*
X99264653Y-63543691D01*
X99139223Y-63479781D01*
X98944534Y-63416522D01*
X98769995Y-63388878D01*
X98742352Y-63384500D01*
X98537648Y-63384500D01*
X98513329Y-63388351D01*
X98335465Y-63416522D01*
X98140776Y-63479781D01*
X97958386Y-63572715D01*
X97792786Y-63693028D01*
X97648028Y-63837786D01*
X97527715Y-64003386D01*
X97434781Y-64185776D01*
X97371522Y-64380465D01*
X97339500Y-64582648D01*
X92320500Y-64582648D01*
X92298715Y-64445104D01*
X92288477Y-64380465D01*
X92225218Y-64185776D01*
X92160518Y-64058797D01*
X92132287Y-64003390D01*
X92124556Y-63992749D01*
X92011971Y-63837786D01*
X91867213Y-63693028D01*
X91701613Y-63572715D01*
X91701612Y-63572714D01*
X91701610Y-63572713D01*
X91644653Y-63543691D01*
X91519223Y-63479781D01*
X91324534Y-63416522D01*
X91149995Y-63388878D01*
X91122352Y-63384500D01*
X90917648Y-63384500D01*
X90893329Y-63388351D01*
X90715465Y-63416522D01*
X90520776Y-63479781D01*
X90338386Y-63572715D01*
X90172786Y-63693028D01*
X90028028Y-63837786D01*
X89907715Y-64003386D01*
X89814781Y-64185776D01*
X89751522Y-64380465D01*
X89719500Y-64582648D01*
X87275332Y-64582648D01*
X87281268Y-64578482D01*
X87297816Y-64570051D01*
X87426097Y-64476849D01*
X87426117Y-64476836D01*
X87469785Y-64445109D01*
X87469783Y-64445109D01*
X87469792Y-64445104D01*
X87620104Y-64294792D01*
X87620106Y-64294788D01*
X87620109Y-64294786D01*
X87745048Y-64122820D01*
X87745047Y-64122820D01*
X87745051Y-64122816D01*
X87841557Y-63933412D01*
X87907246Y-63731243D01*
X87940500Y-63521287D01*
X87940500Y-63308713D01*
X87907246Y-63098757D01*
X87841557Y-62896588D01*
X87745051Y-62707184D01*
X87745049Y-62707181D01*
X87745048Y-62707179D01*
X87620109Y-62535213D01*
X87469786Y-62384890D01*
X87297820Y-62259951D01*
X87297115Y-62259591D01*
X87289054Y-62255485D01*
X87238259Y-62207512D01*
X87221463Y-62139692D01*
X87243999Y-62073556D01*
X87289054Y-62034515D01*
X87297816Y-62030051D01*
X87340128Y-61999310D01*
X87469786Y-61905109D01*
X87469788Y-61905106D01*
X87469792Y-61905104D01*
X87620104Y-61754792D01*
X87620106Y-61754788D01*
X87620109Y-61754786D01*
X87745048Y-61582820D01*
X87745047Y-61582820D01*
X87745051Y-61582816D01*
X87841557Y-61393412D01*
X87907246Y-61191243D01*
X87940500Y-60981287D01*
X87940500Y-60768713D01*
X87907246Y-60558757D01*
X87841557Y-60356588D01*
X87745051Y-60167184D01*
X87745049Y-60167181D01*
X87745048Y-60167179D01*
X87741756Y-60162648D01*
X89719500Y-60162648D01*
X89719500Y-60367351D01*
X89751522Y-60569534D01*
X89814781Y-60764223D01*
X89907715Y-60946613D01*
X90028028Y-61112213D01*
X90172786Y-61256971D01*
X90282892Y-61336966D01*
X90338390Y-61377287D01*
X90454607Y-61436503D01*
X90520776Y-61470218D01*
X90520778Y-61470218D01*
X90520781Y-61470220D01*
X90619165Y-61502187D01*
X90715465Y-61533477D01*
X90774928Y-61542895D01*
X90917648Y-61565500D01*
X90917649Y-61565500D01*
X91122351Y-61565500D01*
X91122352Y-61565500D01*
X91324534Y-61533477D01*
X91519219Y-61470220D01*
X91701610Y-61377287D01*
X91820806Y-61290687D01*
X91867213Y-61256971D01*
X91867215Y-61256968D01*
X91867219Y-61256966D01*
X92011966Y-61112219D01*
X92011968Y-61112215D01*
X92011971Y-61112213D01*
X92093134Y-61000500D01*
X92132287Y-60946610D01*
X92225220Y-60764219D01*
X92288477Y-60569534D01*
X92320500Y-60367352D01*
X92320500Y-60162648D01*
X97339500Y-60162648D01*
X97339500Y-60367351D01*
X97371522Y-60569534D01*
X97434781Y-60764223D01*
X97527715Y-60946613D01*
X97648028Y-61112213D01*
X97792786Y-61256971D01*
X97902892Y-61336966D01*
X97958390Y-61377287D01*
X98074607Y-61436503D01*
X98140776Y-61470218D01*
X98140778Y-61470218D01*
X98140781Y-61470220D01*
X98239165Y-61502187D01*
X98335465Y-61533477D01*
X98394928Y-61542895D01*
X98537648Y-61565500D01*
X98537649Y-61565500D01*
X98742351Y-61565500D01*
X98742352Y-61565500D01*
X98944534Y-61533477D01*
X99139219Y-61470220D01*
X99321610Y-61377287D01*
X99440806Y-61290687D01*
X99487213Y-61256971D01*
X99487215Y-61256968D01*
X99487219Y-61256966D01*
X99631966Y-61112219D01*
X99631968Y-61112215D01*
X99631971Y-61112213D01*
X99713134Y-61000500D01*
X99752287Y-60946610D01*
X99845220Y-60764219D01*
X99908477Y-60569534D01*
X99920282Y-60495000D01*
X99931490Y-60424240D01*
X99931490Y-60424239D01*
X99940500Y-60367352D01*
X99940500Y-60162651D01*
X99940096Y-60160100D01*
X99908477Y-59960466D01*
X99845220Y-59765781D01*
X99845218Y-59765778D01*
X99845218Y-59765776D01*
X99810880Y-59698386D01*
X99752287Y-59583390D01*
X99729929Y-59552617D01*
X99631971Y-59417786D01*
X99511340Y-59297155D01*
X102570000Y-59297155D01*
X102570000Y-59995000D01*
X103594722Y-59995000D01*
X103550667Y-60071306D01*
X103520000Y-60185756D01*
X103520000Y-60304244D01*
X103550667Y-60418694D01*
X103594722Y-60495000D01*
X102570000Y-60495000D01*
X102570000Y-61192844D01*
X102576401Y-61252372D01*
X102576403Y-61252379D01*
X102626645Y-61387086D01*
X102626649Y-61387093D01*
X102712809Y-61502187D01*
X102712812Y-61502190D01*
X102827906Y-61588350D01*
X102827913Y-61588354D01*
X102962620Y-61638596D01*
X102962627Y-61638598D01*
X103022155Y-61644999D01*
X103022172Y-61645000D01*
X103720000Y-61645000D01*
X103720000Y-60620277D01*
X103796306Y-60664333D01*
X103910756Y-60695000D01*
X104029244Y-60695000D01*
X104143694Y-60664333D01*
X104220000Y-60620277D01*
X104220000Y-61645000D01*
X104917828Y-61645000D01*
X104917844Y-61644999D01*
X104977372Y-61638598D01*
X104977379Y-61638596D01*
X105112086Y-61588354D01*
X105112093Y-61588350D01*
X105227187Y-61502190D01*
X105227190Y-61502187D01*
X105313350Y-61387093D01*
X105313354Y-61387086D01*
X105363596Y-61252379D01*
X105363598Y-61252372D01*
X105369999Y-61192844D01*
X105370000Y-61192827D01*
X105370000Y-60495000D01*
X104345278Y-60495000D01*
X104389333Y-60418694D01*
X104420000Y-60304244D01*
X104420000Y-60185756D01*
X104406340Y-60134778D01*
X110189500Y-60134778D01*
X110189500Y-60355222D01*
X110191421Y-60367351D01*
X110223985Y-60572952D01*
X110292103Y-60782603D01*
X110292104Y-60782606D01*
X110392187Y-60979025D01*
X110521752Y-61157358D01*
X110521756Y-61157363D01*
X110677636Y-61313243D01*
X110677641Y-61313247D01*
X110787980Y-61393412D01*
X110855978Y-61442815D01*
X110943765Y-61487545D01*
X111052393Y-61542895D01*
X111052396Y-61542896D01*
X111074938Y-61550220D01*
X111262049Y-61611015D01*
X111479778Y-61645500D01*
X111479779Y-61645500D01*
X111700221Y-61645500D01*
X111700222Y-61645500D01*
X111917951Y-61611015D01*
X112127606Y-61542895D01*
X112324022Y-61442815D01*
X112502365Y-61313242D01*
X112658242Y-61157365D01*
X112787815Y-60979022D01*
X112887895Y-60782606D01*
X112956015Y-60572951D01*
X112990500Y-60355222D01*
X112990500Y-60134778D01*
X112956015Y-59917049D01*
X112921955Y-59812221D01*
X112887896Y-59707396D01*
X112887895Y-59707393D01*
X112845119Y-59623443D01*
X112787815Y-59510978D01*
X112750276Y-59459310D01*
X112658247Y-59332641D01*
X112658243Y-59332636D01*
X112502363Y-59176756D01*
X112502358Y-59176752D01*
X112324025Y-59047187D01*
X112324024Y-59047186D01*
X112324022Y-59047185D01*
X112261096Y-59015122D01*
X112127606Y-58947104D01*
X112127603Y-58947103D01*
X111917952Y-58878985D01*
X111809086Y-58861742D01*
X111700222Y-58844500D01*
X111479778Y-58844500D01*
X111407201Y-58855995D01*
X111262047Y-58878985D01*
X111052396Y-58947103D01*
X111052393Y-58947104D01*
X110855974Y-59047187D01*
X110677641Y-59176752D01*
X110677636Y-59176756D01*
X110521756Y-59332636D01*
X110521752Y-59332641D01*
X110392187Y-59510974D01*
X110292104Y-59707393D01*
X110292103Y-59707396D01*
X110223985Y-59917047D01*
X110201309Y-60060218D01*
X110189500Y-60134778D01*
X104406340Y-60134778D01*
X104389333Y-60071306D01*
X104345278Y-59995000D01*
X105370000Y-59995000D01*
X105370000Y-59297172D01*
X105369999Y-59297155D01*
X105363598Y-59237627D01*
X105363596Y-59237620D01*
X105313354Y-59102913D01*
X105313350Y-59102906D01*
X105227190Y-58987812D01*
X105227187Y-58987809D01*
X105112093Y-58901649D01*
X105112086Y-58901645D01*
X104977379Y-58851403D01*
X104977372Y-58851401D01*
X104917844Y-58845000D01*
X104220000Y-58845000D01*
X104220000Y-59869722D01*
X104143694Y-59825667D01*
X104029244Y-59795000D01*
X103910756Y-59795000D01*
X103796306Y-59825667D01*
X103720000Y-59869722D01*
X103720000Y-58845000D01*
X103022155Y-58845000D01*
X102962627Y-58851401D01*
X102962620Y-58851403D01*
X102827913Y-58901645D01*
X102827906Y-58901649D01*
X102712812Y-58987809D01*
X102712809Y-58987812D01*
X102626649Y-59102906D01*
X102626645Y-59102913D01*
X102576403Y-59237620D01*
X102576401Y-59237627D01*
X102570000Y-59297155D01*
X99511340Y-59297155D01*
X99487213Y-59273028D01*
X99321613Y-59152715D01*
X99321612Y-59152714D01*
X99321610Y-59152713D01*
X99264653Y-59123691D01*
X99139223Y-59059781D01*
X98944534Y-58996522D01*
X98769995Y-58968878D01*
X98742352Y-58964500D01*
X98537648Y-58964500D01*
X98513329Y-58968351D01*
X98335465Y-58996522D01*
X98140776Y-59059781D01*
X97958386Y-59152715D01*
X97792786Y-59273028D01*
X97648028Y-59417786D01*
X97527715Y-59583386D01*
X97434781Y-59765776D01*
X97371522Y-59960465D01*
X97339500Y-60162648D01*
X92320500Y-60162648D01*
X92304277Y-60060220D01*
X92288477Y-59960465D01*
X92251599Y-59846966D01*
X92225220Y-59765781D01*
X92225218Y-59765778D01*
X92225218Y-59765776D01*
X92190880Y-59698386D01*
X92132287Y-59583390D01*
X92109929Y-59552617D01*
X92011971Y-59417786D01*
X91867213Y-59273028D01*
X91701613Y-59152715D01*
X91701612Y-59152714D01*
X91701610Y-59152713D01*
X91644653Y-59123691D01*
X91519223Y-59059781D01*
X91324534Y-58996522D01*
X91149995Y-58968878D01*
X91122352Y-58964500D01*
X90917648Y-58964500D01*
X90893329Y-58968351D01*
X90715465Y-58996522D01*
X90520776Y-59059781D01*
X90338386Y-59152715D01*
X90172786Y-59273028D01*
X90028028Y-59417786D01*
X89907715Y-59583386D01*
X89814781Y-59765776D01*
X89751522Y-59960465D01*
X89719500Y-60162648D01*
X87741756Y-60162648D01*
X87620109Y-59995213D01*
X87469786Y-59844890D01*
X87297820Y-59719951D01*
X87297115Y-59719591D01*
X87289054Y-59715485D01*
X87238259Y-59667512D01*
X87221463Y-59599692D01*
X87243999Y-59533556D01*
X87289054Y-59494515D01*
X87297816Y-59490051D01*
X87397288Y-59417781D01*
X87469786Y-59365109D01*
X87469788Y-59365106D01*
X87469792Y-59365104D01*
X87620104Y-59214792D01*
X87620106Y-59214788D01*
X87620109Y-59214786D01*
X87741877Y-59047185D01*
X87745051Y-59042816D01*
X87841557Y-58853412D01*
X87907246Y-58651243D01*
X87940500Y-58441287D01*
X87940500Y-58228713D01*
X87907246Y-58018757D01*
X87841557Y-57816588D01*
X87745051Y-57627184D01*
X87745049Y-57627181D01*
X87745048Y-57627179D01*
X87620109Y-57455213D01*
X87469786Y-57304890D01*
X87297820Y-57179951D01*
X87297115Y-57179591D01*
X87289054Y-57175485D01*
X87238259Y-57127512D01*
X87221463Y-57059692D01*
X87243999Y-56993556D01*
X87289054Y-56954515D01*
X87297816Y-56950051D01*
X87319789Y-56934086D01*
X87469786Y-56825109D01*
X87469788Y-56825106D01*
X87469792Y-56825104D01*
X87620104Y-56674792D01*
X87620106Y-56674788D01*
X87620109Y-56674786D01*
X87745048Y-56502820D01*
X87745047Y-56502820D01*
X87745051Y-56502816D01*
X87841557Y-56313412D01*
X87907246Y-56111243D01*
X87940500Y-55901287D01*
X87940500Y-55688713D01*
X87907246Y-55478757D01*
X87841557Y-55276588D01*
X87841554Y-55276582D01*
X87813294Y-55221117D01*
X87813293Y-55221116D01*
X87786673Y-55168872D01*
X96119500Y-55168872D01*
X96119500Y-55431127D01*
X96146123Y-55633339D01*
X96153730Y-55691116D01*
X96210045Y-55901286D01*
X96221602Y-55944418D01*
X96221605Y-55944428D01*
X96321953Y-56186690D01*
X96321958Y-56186700D01*
X96453075Y-56413803D01*
X96612718Y-56621851D01*
X96612726Y-56621860D01*
X96798140Y-56807274D01*
X96798148Y-56807281D01*
X96798149Y-56807282D01*
X96846554Y-56844424D01*
X97006196Y-56966924D01*
X97233299Y-57098041D01*
X97233309Y-57098046D01*
X97431041Y-57179949D01*
X97475581Y-57198398D01*
X97728884Y-57266270D01*
X97988880Y-57300500D01*
X97988887Y-57300500D01*
X98251113Y-57300500D01*
X98251120Y-57300500D01*
X98511116Y-57266270D01*
X98764419Y-57198398D01*
X99006697Y-57098043D01*
X99233803Y-56966924D01*
X99441851Y-56807282D01*
X99441855Y-56807277D01*
X99441860Y-56807274D01*
X99627274Y-56621860D01*
X99627277Y-56621855D01*
X99627282Y-56621851D01*
X99786924Y-56413803D01*
X99918043Y-56186697D01*
X100018398Y-55944419D01*
X100086270Y-55691116D01*
X100120500Y-55431120D01*
X100120500Y-55168880D01*
X100120499Y-55168872D01*
X108819500Y-55168872D01*
X108819500Y-55431127D01*
X108846123Y-55633339D01*
X108853730Y-55691116D01*
X108910045Y-55901286D01*
X108921602Y-55944418D01*
X108921605Y-55944428D01*
X109021953Y-56186690D01*
X109021958Y-56186700D01*
X109153075Y-56413803D01*
X109312718Y-56621851D01*
X109312726Y-56621860D01*
X109498140Y-56807274D01*
X109498148Y-56807281D01*
X109498149Y-56807282D01*
X109546554Y-56844424D01*
X109706196Y-56966924D01*
X109933299Y-57098041D01*
X109933309Y-57098046D01*
X110131041Y-57179949D01*
X110175581Y-57198398D01*
X110428884Y-57266270D01*
X110688880Y-57300500D01*
X110688887Y-57300500D01*
X110951113Y-57300500D01*
X110951120Y-57300500D01*
X111211116Y-57266270D01*
X111464419Y-57198398D01*
X111706697Y-57098043D01*
X111933803Y-56966924D01*
X112141851Y-56807282D01*
X112141855Y-56807277D01*
X112141860Y-56807274D01*
X112327274Y-56621860D01*
X112327277Y-56621855D01*
X112327282Y-56621851D01*
X112486924Y-56413803D01*
X112618043Y-56186697D01*
X112718398Y-55944419D01*
X112786270Y-55691116D01*
X112820500Y-55431120D01*
X112820500Y-55168880D01*
X112786270Y-54908884D01*
X112718398Y-54655581D01*
X112711923Y-54639949D01*
X112618046Y-54413309D01*
X112618041Y-54413299D01*
X112486924Y-54186196D01*
X112327281Y-53978148D01*
X112327274Y-53978140D01*
X112141860Y-53792726D01*
X112141851Y-53792718D01*
X111933803Y-53633075D01*
X111706700Y-53501958D01*
X111706690Y-53501953D01*
X111464428Y-53401605D01*
X111464421Y-53401603D01*
X111464419Y-53401602D01*
X111211116Y-53333730D01*
X111153339Y-53326123D01*
X110951127Y-53299500D01*
X110951120Y-53299500D01*
X110688880Y-53299500D01*
X110688872Y-53299500D01*
X110457772Y-53329926D01*
X110428884Y-53333730D01*
X110175581Y-53401602D01*
X110175571Y-53401605D01*
X109933309Y-53501953D01*
X109933299Y-53501958D01*
X109706196Y-53633075D01*
X109498148Y-53792718D01*
X109312718Y-53978148D01*
X109153075Y-54186196D01*
X109021958Y-54413299D01*
X109021953Y-54413309D01*
X108921605Y-54655571D01*
X108921602Y-54655581D01*
X108853730Y-54908884D01*
X108852897Y-54915213D01*
X108819500Y-55168872D01*
X100120499Y-55168872D01*
X100086270Y-54908884D01*
X100018398Y-54655581D01*
X100011923Y-54639949D01*
X99918046Y-54413309D01*
X99918041Y-54413299D01*
X99786924Y-54186196D01*
X99627281Y-53978148D01*
X99627274Y-53978140D01*
X99441860Y-53792726D01*
X99441851Y-53792718D01*
X99233803Y-53633075D01*
X99006700Y-53501958D01*
X99006690Y-53501953D01*
X98764428Y-53401605D01*
X98764421Y-53401603D01*
X98764419Y-53401602D01*
X98511116Y-53333730D01*
X98453339Y-53326123D01*
X98251127Y-53299500D01*
X98251120Y-53299500D01*
X97988880Y-53299500D01*
X97988872Y-53299500D01*
X97757772Y-53329926D01*
X97728884Y-53333730D01*
X97475581Y-53401602D01*
X97475571Y-53401605D01*
X97233309Y-53501953D01*
X97233299Y-53501958D01*
X97006196Y-53633075D01*
X96798148Y-53792718D01*
X96612718Y-53978148D01*
X96453075Y-54186196D01*
X96321958Y-54413299D01*
X96321953Y-54413309D01*
X96221605Y-54655571D01*
X96221602Y-54655581D01*
X96153730Y-54908884D01*
X96152897Y-54915213D01*
X96119500Y-55168872D01*
X87786673Y-55168872D01*
X87745051Y-55087184D01*
X87737023Y-55076134D01*
X87620109Y-54915213D01*
X87469786Y-54764890D01*
X87297820Y-54639951D01*
X87297115Y-54639591D01*
X87289054Y-54635485D01*
X87238259Y-54587512D01*
X87221463Y-54519692D01*
X87243999Y-54453556D01*
X87289054Y-54414515D01*
X87297816Y-54410051D01*
X87319789Y-54394086D01*
X87469786Y-54285109D01*
X87469788Y-54285106D01*
X87469792Y-54285104D01*
X87620104Y-54134792D01*
X87620106Y-54134788D01*
X87620109Y-54134786D01*
X87745048Y-53962820D01*
X87745047Y-53962820D01*
X87745051Y-53962816D01*
X87841557Y-53773412D01*
X87907246Y-53571243D01*
X87940500Y-53361287D01*
X87940500Y-53148713D01*
X87907246Y-52938757D01*
X87841557Y-52736588D01*
X87745051Y-52547184D01*
X87745049Y-52547181D01*
X87745048Y-52547179D01*
X87620109Y-52375213D01*
X87469786Y-52224890D01*
X87297820Y-52099951D01*
X87297115Y-52099591D01*
X87289054Y-52095485D01*
X87238259Y-52047512D01*
X87221463Y-51979692D01*
X87243999Y-51913556D01*
X87289054Y-51874515D01*
X87297816Y-51870051D01*
X87319789Y-51854086D01*
X87469786Y-51745109D01*
X87469788Y-51745106D01*
X87469792Y-51745104D01*
X87620104Y-51594792D01*
X87620106Y-51594788D01*
X87620109Y-51594786D01*
X87745048Y-51422820D01*
X87745047Y-51422820D01*
X87745051Y-51422816D01*
X87841557Y-51233412D01*
X87907246Y-51031243D01*
X87940500Y-50821287D01*
X87940500Y-50608713D01*
X87907246Y-50398757D01*
X87841557Y-50196588D01*
X87745051Y-50007184D01*
X87745049Y-50007181D01*
X87745048Y-50007179D01*
X87620109Y-49835213D01*
X87469786Y-49684890D01*
X87297820Y-49559951D01*
X87297115Y-49559591D01*
X87289054Y-49555485D01*
X87238259Y-49507512D01*
X87221463Y-49439692D01*
X87243999Y-49373556D01*
X87289054Y-49334515D01*
X87297816Y-49330051D01*
X87319789Y-49314086D01*
X87469786Y-49205109D01*
X87469788Y-49205106D01*
X87469792Y-49205104D01*
X87620104Y-49054792D01*
X87620106Y-49054788D01*
X87620109Y-49054786D01*
X87745048Y-48882820D01*
X87745047Y-48882820D01*
X87745051Y-48882816D01*
X87841557Y-48693412D01*
X87907246Y-48491243D01*
X87940500Y-48281287D01*
X87940500Y-48068713D01*
X87907246Y-47858757D01*
X87841557Y-47656588D01*
X87745051Y-47467184D01*
X87745049Y-47467181D01*
X87745048Y-47467179D01*
X87620109Y-47295213D01*
X87469786Y-47144890D01*
X87297817Y-47019949D01*
X87288504Y-47015204D01*
X87237707Y-46967230D01*
X87220912Y-46899409D01*
X87243449Y-46833274D01*
X87288507Y-46794232D01*
X87297555Y-46789622D01*
X87351716Y-46750270D01*
X87351717Y-46750270D01*
X86760233Y-46158787D01*
X86802292Y-46147518D01*
X86927708Y-46075110D01*
X87030110Y-45972708D01*
X87102518Y-45847292D01*
X87113787Y-45805233D01*
X87705270Y-46396717D01*
X87705270Y-46396716D01*
X87744622Y-46342554D01*
X87841095Y-46153217D01*
X87906757Y-45951130D01*
X87906757Y-45951127D01*
X87940000Y-45741246D01*
X87940000Y-45528753D01*
X87906757Y-45318872D01*
X87906757Y-45318869D01*
X87841095Y-45116782D01*
X87744624Y-44927449D01*
X87705270Y-44873282D01*
X87705269Y-44873282D01*
X87113787Y-45464765D01*
X87102518Y-45422708D01*
X87030110Y-45297292D01*
X86927708Y-45194890D01*
X86802292Y-45122482D01*
X86760233Y-45111212D01*
X87351716Y-44519728D01*
X87297547Y-44480373D01*
X87297547Y-44480372D01*
X87288500Y-44475763D01*
X87237706Y-44427788D01*
X87220912Y-44359966D01*
X87243451Y-44293832D01*
X87288508Y-44254793D01*
X87297816Y-44250051D01*
X87384147Y-44187328D01*
X87469786Y-44125109D01*
X87469788Y-44125106D01*
X87469792Y-44125104D01*
X87620104Y-43974792D01*
X87620106Y-43974788D01*
X87620109Y-43974786D01*
X87745048Y-43802820D01*
X87745047Y-43802820D01*
X87745051Y-43802816D01*
X87841557Y-43613412D01*
X87907246Y-43411243D01*
X87940500Y-43201287D01*
X87940500Y-42988713D01*
X87907246Y-42778757D01*
X87841557Y-42576588D01*
X87745051Y-42387184D01*
X87745049Y-42387181D01*
X87745048Y-42387179D01*
X87620109Y-42215213D01*
X87469786Y-42064890D01*
X87297820Y-41939951D01*
X87108414Y-41843444D01*
X87108413Y-41843443D01*
X87108412Y-41843443D01*
X86906243Y-41777754D01*
X86906241Y-41777753D01*
X86906240Y-41777753D01*
X86744957Y-41752208D01*
X86696287Y-41744500D01*
X86483713Y-41744500D01*
X86435042Y-41752208D01*
X86273760Y-41777753D01*
X86071585Y-41843444D01*
X85882179Y-41939951D01*
X85710213Y-42064890D01*
X85559890Y-42215213D01*
X85434951Y-42387179D01*
X85338444Y-42576585D01*
X85272753Y-42778760D01*
X85239500Y-42988713D01*
X85239500Y-43201286D01*
X85272753Y-43411239D01*
X85338444Y-43613414D01*
X85434951Y-43802820D01*
X85559890Y-43974786D01*
X85710213Y-44125109D01*
X85882179Y-44250048D01*
X85882181Y-44250049D01*
X85882184Y-44250051D01*
X85891493Y-44254794D01*
X85942290Y-44302766D01*
X85959087Y-44370587D01*
X85936552Y-44436722D01*
X85891505Y-44475760D01*
X85882446Y-44480376D01*
X85882440Y-44480380D01*
X85828282Y-44519727D01*
X85828282Y-44519728D01*
X86419766Y-45111212D01*
X86377708Y-45122482D01*
X86252292Y-45194890D01*
X86149890Y-45297292D01*
X86077482Y-45422708D01*
X86066212Y-45464766D01*
X85474728Y-44873282D01*
X85474727Y-44873282D01*
X85435380Y-44927439D01*
X85338904Y-45116782D01*
X85273242Y-45318869D01*
X85273242Y-45318872D01*
X85240000Y-45528753D01*
X85240000Y-45741246D01*
X85273242Y-45951127D01*
X85273242Y-45951130D01*
X85338904Y-46153217D01*
X85435375Y-46342550D01*
X85474728Y-46396716D01*
X86066212Y-45805233D01*
X86077482Y-45847292D01*
X86149890Y-45972708D01*
X86252292Y-46075110D01*
X86377708Y-46147518D01*
X86419765Y-46158787D01*
X85828282Y-46750269D01*
X85828282Y-46750270D01*
X85882452Y-46789626D01*
X85882451Y-46789626D01*
X85891495Y-46794234D01*
X85942292Y-46842208D01*
X85959087Y-46910029D01*
X85936550Y-46976164D01*
X85891499Y-47015202D01*
X85882182Y-47019949D01*
X85710213Y-47144890D01*
X85559890Y-47295213D01*
X85434951Y-47467179D01*
X85338444Y-47656585D01*
X85272753Y-47858760D01*
X85239500Y-48068713D01*
X85239500Y-48281286D01*
X85272753Y-48491239D01*
X85338444Y-48693414D01*
X85434951Y-48882820D01*
X85559890Y-49054786D01*
X85710213Y-49205109D01*
X85882182Y-49330050D01*
X85890946Y-49334516D01*
X85941742Y-49382491D01*
X85958536Y-49450312D01*
X85935998Y-49516447D01*
X85890946Y-49555484D01*
X85882182Y-49559949D01*
X85710213Y-49684890D01*
X85559890Y-49835213D01*
X85434951Y-50007179D01*
X85338444Y-50196585D01*
X85272753Y-50398760D01*
X85239500Y-50608713D01*
X85239500Y-50821286D01*
X85272753Y-51031239D01*
X85338444Y-51233414D01*
X85434951Y-51422820D01*
X85559890Y-51594786D01*
X85710213Y-51745109D01*
X85882182Y-51870050D01*
X85890946Y-51874516D01*
X85941742Y-51922491D01*
X85958536Y-51990312D01*
X85935998Y-52056447D01*
X85890946Y-52095484D01*
X85882182Y-52099949D01*
X85710213Y-52224890D01*
X85559890Y-52375213D01*
X85434951Y-52547179D01*
X85338444Y-52736585D01*
X85272753Y-52938760D01*
X85239500Y-53148713D01*
X85239500Y-53361287D01*
X85245885Y-53401602D01*
X85272753Y-53571239D01*
X85338444Y-53773414D01*
X85434951Y-53962820D01*
X85559890Y-54134786D01*
X85710213Y-54285109D01*
X85882182Y-54410050D01*
X85890946Y-54414516D01*
X85941742Y-54462491D01*
X85958536Y-54530312D01*
X85935998Y-54596447D01*
X85890946Y-54635484D01*
X85882182Y-54639949D01*
X85710213Y-54764890D01*
X85559890Y-54915213D01*
X85434951Y-55087179D01*
X85338444Y-55276585D01*
X85272753Y-55478760D01*
X85239500Y-55688713D01*
X85239500Y-55901287D01*
X85272754Y-56111243D01*
X85297268Y-56186690D01*
X85338444Y-56313414D01*
X85434951Y-56502820D01*
X85559890Y-56674786D01*
X85710213Y-56825109D01*
X85882182Y-56950050D01*
X85890946Y-56954516D01*
X85941742Y-57002491D01*
X85958536Y-57070312D01*
X85935998Y-57136447D01*
X85890946Y-57175484D01*
X85882182Y-57179949D01*
X85710213Y-57304890D01*
X85559890Y-57455213D01*
X85434951Y-57627179D01*
X85338444Y-57816585D01*
X85272753Y-58018760D01*
X85248263Y-58173386D01*
X85239500Y-58228713D01*
X85239500Y-58441287D01*
X85272754Y-58651243D01*
X85337790Y-58851403D01*
X85338444Y-58853414D01*
X85434951Y-59042820D01*
X85559890Y-59214786D01*
X85710213Y-59365109D01*
X85882182Y-59490050D01*
X85890946Y-59494516D01*
X85941742Y-59542491D01*
X85958536Y-59610312D01*
X85935998Y-59676447D01*
X85890946Y-59715484D01*
X85882182Y-59719949D01*
X85710213Y-59844890D01*
X85559890Y-59995213D01*
X85434951Y-60167179D01*
X85338444Y-60356585D01*
X85272753Y-60558760D01*
X85258376Y-60649534D01*
X85239500Y-60768713D01*
X85239500Y-60981287D01*
X85272754Y-61191243D01*
X85320102Y-61336966D01*
X85338444Y-61393414D01*
X85434951Y-61582820D01*
X85559890Y-61754786D01*
X85710213Y-61905109D01*
X85882182Y-62030050D01*
X85890946Y-62034516D01*
X85941742Y-62082491D01*
X85958536Y-62150312D01*
X85935998Y-62216447D01*
X85890946Y-62255484D01*
X85882182Y-62259949D01*
X85710213Y-62384890D01*
X85559890Y-62535213D01*
X85434951Y-62707179D01*
X85338444Y-62896585D01*
X85272753Y-63098760D01*
X85239500Y-63308713D01*
X85239500Y-63521286D01*
X85271366Y-63722483D01*
X85272754Y-63731243D01*
X85322746Y-63885103D01*
X85338444Y-63933414D01*
X85434951Y-64122820D01*
X85559890Y-64294786D01*
X85710213Y-64445109D01*
X85882182Y-64570050D01*
X85890946Y-64574516D01*
X85941742Y-64622491D01*
X85958536Y-64690312D01*
X85935998Y-64756447D01*
X85890946Y-64795484D01*
X85882182Y-64799949D01*
X85710213Y-64924890D01*
X85559890Y-65075213D01*
X85434951Y-65247179D01*
X85338444Y-65436585D01*
X85272753Y-65638760D01*
X85247645Y-65797287D01*
X85239500Y-65848713D01*
X85239500Y-66061287D01*
X85272754Y-66271243D01*
X85284070Y-66306071D01*
X85338444Y-66473414D01*
X85434951Y-66662820D01*
X85559890Y-66834786D01*
X85710213Y-66985109D01*
X85882182Y-67110050D01*
X85890946Y-67114516D01*
X85941742Y-67162491D01*
X85958536Y-67230312D01*
X85935998Y-67296447D01*
X85890946Y-67335484D01*
X85882182Y-67339949D01*
X85710213Y-67464890D01*
X85559890Y-67615213D01*
X85434951Y-67787179D01*
X85338444Y-67976585D01*
X85272753Y-68178760D01*
X85239500Y-68388713D01*
X85239500Y-68601286D01*
X85272753Y-68811239D01*
X85272753Y-68811241D01*
X85272754Y-68811243D01*
X85336904Y-69008677D01*
X85338444Y-69013414D01*
X85434951Y-69202820D01*
X85559890Y-69374786D01*
X85710213Y-69525109D01*
X85882182Y-69650050D01*
X85890946Y-69654516D01*
X85941742Y-69702491D01*
X85958536Y-69770312D01*
X85935998Y-69836447D01*
X85890946Y-69875484D01*
X85882182Y-69879949D01*
X85710213Y-70004890D01*
X85559890Y-70155213D01*
X85434951Y-70327179D01*
X85338444Y-70516585D01*
X85272753Y-70718760D01*
X85250348Y-70860220D01*
X85239500Y-70928713D01*
X85239500Y-71141287D01*
X85246822Y-71187516D01*
X85256263Y-71247127D01*
X85272754Y-71351243D01*
X85338055Y-71552219D01*
X85338444Y-71553414D01*
X85434951Y-71742820D01*
X85559890Y-71914786D01*
X85710213Y-72065109D01*
X85882182Y-72190050D01*
X85890946Y-72194516D01*
X85941742Y-72242491D01*
X85958536Y-72310312D01*
X85935998Y-72376447D01*
X85890946Y-72415484D01*
X85882182Y-72419949D01*
X85710213Y-72544890D01*
X85559890Y-72695213D01*
X85434951Y-72867179D01*
X85338444Y-73056585D01*
X85272753Y-73258760D01*
X85242984Y-73446714D01*
X85239500Y-73468713D01*
X85239500Y-73681287D01*
X85272754Y-73891243D01*
X85327515Y-74059780D01*
X85338444Y-74093414D01*
X85434951Y-74282820D01*
X85559890Y-74454786D01*
X85710213Y-74605109D01*
X85882182Y-74730050D01*
X85890946Y-74734516D01*
X85941742Y-74782491D01*
X85958536Y-74850312D01*
X85935998Y-74916447D01*
X85890946Y-74955484D01*
X85882182Y-74959949D01*
X85710213Y-75084890D01*
X85559890Y-75235213D01*
X85434951Y-75407179D01*
X85338444Y-75596585D01*
X85272753Y-75798760D01*
X85239500Y-76008713D01*
X85239500Y-76221286D01*
X85272205Y-76427781D01*
X85272754Y-76431243D01*
X85338320Y-76633034D01*
X85338444Y-76633414D01*
X85434951Y-76822820D01*
X85559890Y-76994786D01*
X85710213Y-77145109D01*
X85882182Y-77270050D01*
X85890946Y-77274516D01*
X85941742Y-77322491D01*
X85958536Y-77390312D01*
X85935998Y-77456447D01*
X85890946Y-77495484D01*
X85882182Y-77499949D01*
X85710213Y-77624890D01*
X85559890Y-77775213D01*
X85434951Y-77947179D01*
X85338444Y-78136585D01*
X85272753Y-78338760D01*
X85239500Y-78548713D01*
X85239500Y-78761286D01*
X85265508Y-78925498D01*
X85272754Y-78971243D01*
X85337471Y-79170422D01*
X85338444Y-79173414D01*
X85434951Y-79362820D01*
X85559890Y-79534786D01*
X85710213Y-79685109D01*
X85882182Y-79810050D01*
X85890946Y-79814516D01*
X85941742Y-79862491D01*
X85958536Y-79930312D01*
X85935998Y-79996447D01*
X85890946Y-80035484D01*
X85882182Y-80039949D01*
X85710213Y-80164890D01*
X85559890Y-80315213D01*
X85434951Y-80487179D01*
X85338444Y-80676585D01*
X85272753Y-80878760D01*
X85239500Y-81088713D01*
X85239500Y-81200548D01*
X85219815Y-81267587D01*
X85167011Y-81313342D01*
X85097853Y-81323286D01*
X85034297Y-81294261D01*
X85027819Y-81288229D01*
X73063440Y-69323850D01*
X73055860Y-69316270D01*
X73055858Y-69316267D01*
X72968733Y-69229142D01*
X72907838Y-69188453D01*
X72866286Y-69160688D01*
X72866287Y-69160688D01*
X72866285Y-69160687D01*
X72829698Y-69145533D01*
X72785792Y-69127347D01*
X72752452Y-69113537D01*
X72711049Y-69105301D01*
X72705219Y-69103533D01*
X72680883Y-69087585D01*
X72655107Y-69074102D01*
X72652011Y-69068665D01*
X72646779Y-69065237D01*
X72634930Y-69038668D01*
X72620534Y-69013386D01*
X72620797Y-69006977D01*
X72618321Y-69001425D01*
X72622019Y-68977230D01*
X72623279Y-68946556D01*
X72667246Y-68811243D01*
X72700500Y-68601287D01*
X72700500Y-68388713D01*
X72667246Y-68178757D01*
X72601557Y-67976588D01*
X72505051Y-67787184D01*
X72505049Y-67787181D01*
X72505048Y-67787179D01*
X72380109Y-67615213D01*
X72229786Y-67464890D01*
X72057820Y-67339951D01*
X72057115Y-67339591D01*
X72049054Y-67335485D01*
X71998259Y-67287512D01*
X71981463Y-67219692D01*
X72003999Y-67153556D01*
X72049054Y-67114515D01*
X72057816Y-67110051D01*
X72185931Y-67016971D01*
X72229786Y-66985109D01*
X72229788Y-66985106D01*
X72229792Y-66985104D01*
X72380104Y-66834792D01*
X72380106Y-66834788D01*
X72380109Y-66834786D01*
X72505048Y-66662820D01*
X72505047Y-66662820D01*
X72505051Y-66662816D01*
X72601557Y-66473412D01*
X72667246Y-66271243D01*
X72700500Y-66061287D01*
X72700500Y-65848713D01*
X72667246Y-65638757D01*
X72601557Y-65436588D01*
X72505051Y-65247184D01*
X72505049Y-65247181D01*
X72505048Y-65247179D01*
X72380109Y-65075213D01*
X72229786Y-64924890D01*
X72057820Y-64799951D01*
X72057115Y-64799591D01*
X72049054Y-64795485D01*
X71998259Y-64747512D01*
X71981463Y-64679692D01*
X72003999Y-64613556D01*
X72049054Y-64574515D01*
X72057816Y-64570051D01*
X72079789Y-64554086D01*
X72229786Y-64445109D01*
X72229788Y-64445106D01*
X72229792Y-64445104D01*
X72380104Y-64294792D01*
X72380106Y-64294788D01*
X72380109Y-64294786D01*
X72505048Y-64122820D01*
X72505047Y-64122820D01*
X72505051Y-64122816D01*
X72601557Y-63933412D01*
X72667246Y-63731243D01*
X72700500Y-63521287D01*
X72700500Y-63308713D01*
X72667246Y-63098757D01*
X72601557Y-62896588D01*
X72505051Y-62707184D01*
X72505049Y-62707181D01*
X72505048Y-62707179D01*
X72380109Y-62535213D01*
X72229786Y-62384890D01*
X72057820Y-62259951D01*
X72057115Y-62259591D01*
X72049054Y-62255485D01*
X71998259Y-62207512D01*
X71981463Y-62139692D01*
X72003999Y-62073556D01*
X72049054Y-62034515D01*
X72057816Y-62030051D01*
X72100128Y-61999310D01*
X72229786Y-61905109D01*
X72229788Y-61905106D01*
X72229792Y-61905104D01*
X72380104Y-61754792D01*
X72380106Y-61754788D01*
X72380109Y-61754786D01*
X72505048Y-61582820D01*
X72505047Y-61582820D01*
X72505051Y-61582816D01*
X72601557Y-61393412D01*
X72667246Y-61191243D01*
X72700500Y-60981287D01*
X72700500Y-60768713D01*
X72667246Y-60558757D01*
X72601557Y-60356588D01*
X72505051Y-60167184D01*
X72505049Y-60167181D01*
X72505048Y-60167179D01*
X72380109Y-59995213D01*
X72229786Y-59844890D01*
X72057820Y-59719951D01*
X72057115Y-59719591D01*
X72049054Y-59715485D01*
X71998259Y-59667512D01*
X71981463Y-59599692D01*
X72003999Y-59533556D01*
X72049054Y-59494515D01*
X72057816Y-59490051D01*
X72157288Y-59417781D01*
X72229786Y-59365109D01*
X72229788Y-59365106D01*
X72229792Y-59365104D01*
X72380104Y-59214792D01*
X72380106Y-59214788D01*
X72380109Y-59214786D01*
X72501877Y-59047185D01*
X72505051Y-59042816D01*
X72601557Y-58853412D01*
X72667246Y-58651243D01*
X72700500Y-58441287D01*
X72700500Y-58228713D01*
X72667246Y-58018757D01*
X72601557Y-57816588D01*
X72505051Y-57627184D01*
X72505049Y-57627181D01*
X72505048Y-57627179D01*
X72380109Y-57455213D01*
X72229786Y-57304890D01*
X72057820Y-57179951D01*
X72057115Y-57179591D01*
X72049054Y-57175485D01*
X71998259Y-57127512D01*
X71981463Y-57059692D01*
X72003999Y-56993556D01*
X72049054Y-56954515D01*
X72057816Y-56950051D01*
X72079789Y-56934086D01*
X72229786Y-56825109D01*
X72229788Y-56825106D01*
X72229792Y-56825104D01*
X72380104Y-56674792D01*
X72380106Y-56674788D01*
X72380109Y-56674786D01*
X72505048Y-56502820D01*
X72505047Y-56502820D01*
X72505051Y-56502816D01*
X72601557Y-56313412D01*
X72667246Y-56111243D01*
X72700500Y-55901287D01*
X72700500Y-55688713D01*
X72667246Y-55478757D01*
X72601557Y-55276588D01*
X72505051Y-55087184D01*
X72505049Y-55087181D01*
X72505048Y-55087179D01*
X72380109Y-54915213D01*
X72229786Y-54764890D01*
X72057820Y-54639951D01*
X72057115Y-54639591D01*
X72049054Y-54635485D01*
X71998259Y-54587512D01*
X71981463Y-54519692D01*
X72003999Y-54453556D01*
X72049054Y-54414515D01*
X72057816Y-54410051D01*
X72079789Y-54394086D01*
X72229786Y-54285109D01*
X72229788Y-54285106D01*
X72229792Y-54285104D01*
X72380104Y-54134792D01*
X72380106Y-54134788D01*
X72380109Y-54134786D01*
X72505048Y-53962820D01*
X72505047Y-53962820D01*
X72505051Y-53962816D01*
X72601557Y-53773412D01*
X72667246Y-53571243D01*
X72700500Y-53361287D01*
X72700500Y-53148713D01*
X72667246Y-52938757D01*
X72601557Y-52736588D01*
X72505051Y-52547184D01*
X72505049Y-52547181D01*
X72505048Y-52547179D01*
X72380109Y-52375213D01*
X72229786Y-52224890D01*
X72057820Y-52099951D01*
X72057115Y-52099591D01*
X72049054Y-52095485D01*
X71998259Y-52047512D01*
X71981463Y-51979692D01*
X72003999Y-51913556D01*
X72049054Y-51874515D01*
X72057816Y-51870051D01*
X72079789Y-51854086D01*
X72229786Y-51745109D01*
X72229788Y-51745106D01*
X72229792Y-51745104D01*
X72380104Y-51594792D01*
X72380106Y-51594788D01*
X72380109Y-51594786D01*
X72505048Y-51422820D01*
X72505047Y-51422820D01*
X72505051Y-51422816D01*
X72601557Y-51233412D01*
X72667246Y-51031243D01*
X72700500Y-50821287D01*
X72700500Y-50608713D01*
X72667246Y-50398757D01*
X72601557Y-50196588D01*
X72505051Y-50007184D01*
X72505049Y-50007181D01*
X72505048Y-50007179D01*
X72380109Y-49835213D01*
X72229786Y-49684890D01*
X72057820Y-49559951D01*
X72057115Y-49559591D01*
X72049054Y-49555485D01*
X71998259Y-49507512D01*
X71981463Y-49439692D01*
X72003999Y-49373556D01*
X72049054Y-49334515D01*
X72057816Y-49330051D01*
X72079789Y-49314086D01*
X72229786Y-49205109D01*
X72229788Y-49205106D01*
X72229792Y-49205104D01*
X72380104Y-49054792D01*
X72380106Y-49054788D01*
X72380109Y-49054786D01*
X72505048Y-48882820D01*
X72505047Y-48882820D01*
X72505051Y-48882816D01*
X72601557Y-48693412D01*
X72667246Y-48491243D01*
X72700500Y-48281287D01*
X72700500Y-48068713D01*
X72667246Y-47858757D01*
X72601557Y-47656588D01*
X72505051Y-47467184D01*
X72505049Y-47467181D01*
X72505048Y-47467179D01*
X72380109Y-47295213D01*
X72229786Y-47144890D01*
X72057820Y-47019951D01*
X72057115Y-47019591D01*
X72049054Y-47015485D01*
X71998259Y-46967512D01*
X71981463Y-46899692D01*
X72003999Y-46833556D01*
X72049054Y-46794515D01*
X72057816Y-46790051D01*
X72112572Y-46750269D01*
X72229786Y-46665109D01*
X72229788Y-46665106D01*
X72229792Y-46665104D01*
X72380104Y-46514792D01*
X72380106Y-46514788D01*
X72380109Y-46514786D01*
X72505048Y-46342820D01*
X72505047Y-46342820D01*
X72505051Y-46342816D01*
X72601557Y-46153412D01*
X72667246Y-45951243D01*
X72700500Y-45741287D01*
X72700500Y-45528713D01*
X72667246Y-45318757D01*
X72601557Y-45116588D01*
X72505051Y-44927184D01*
X72505049Y-44927181D01*
X72505048Y-44927179D01*
X72380109Y-44755213D01*
X72266569Y-44641673D01*
X72233084Y-44580350D01*
X72238068Y-44510658D01*
X72279940Y-44454725D01*
X72310915Y-44437810D01*
X72442331Y-44388796D01*
X72557546Y-44302546D01*
X72643796Y-44187331D01*
X72694091Y-44052483D01*
X72700500Y-43992873D01*
X72700499Y-42197128D01*
X72694091Y-42137517D01*
X72643796Y-42002669D01*
X72643795Y-42002668D01*
X72643793Y-42002664D01*
X72557547Y-41887455D01*
X72557544Y-41887452D01*
X72442335Y-41801206D01*
X72442328Y-41801202D01*
X72307482Y-41750908D01*
X72307483Y-41750908D01*
X72247883Y-41744501D01*
X72247881Y-41744500D01*
X72247873Y-41744500D01*
X72247864Y-41744500D01*
X70452129Y-41744500D01*
X70452123Y-41744501D01*
X70392516Y-41750908D01*
X70257671Y-41801202D01*
X70257664Y-41801206D01*
X70142455Y-41887452D01*
X70142452Y-41887455D01*
X70056206Y-42002664D01*
X70056202Y-42002671D01*
X70005908Y-42137517D01*
X69999501Y-42197116D01*
X69999501Y-42197123D01*
X69999500Y-42197135D01*
X69999500Y-43992870D01*
X69999501Y-43992876D01*
X70005908Y-44052483D01*
X70056202Y-44187328D01*
X70056206Y-44187335D01*
X70142452Y-44302544D01*
X70142455Y-44302547D01*
X70257664Y-44388793D01*
X70257671Y-44388797D01*
X70389082Y-44437810D01*
X70445016Y-44479681D01*
X70469433Y-44545145D01*
X70454582Y-44613418D01*
X70433431Y-44641673D01*
X70319889Y-44755215D01*
X70194951Y-44927179D01*
X70098444Y-45116585D01*
X70032753Y-45318760D01*
X69999500Y-45528713D01*
X69999500Y-45741286D01*
X70032735Y-45951127D01*
X70032754Y-45951243D01*
X70039728Y-45972708D01*
X70098444Y-46153414D01*
X70194951Y-46342820D01*
X70319890Y-46514786D01*
X70470213Y-46665109D01*
X70642182Y-46790050D01*
X70650946Y-46794516D01*
X70701742Y-46842491D01*
X70718536Y-46910312D01*
X70695998Y-46976447D01*
X70650946Y-47015484D01*
X70642182Y-47019949D01*
X70470213Y-47144890D01*
X70319890Y-47295213D01*
X70194951Y-47467179D01*
X70098444Y-47656585D01*
X70032753Y-47858760D01*
X69999500Y-48068713D01*
X69999500Y-48281286D01*
X70032753Y-48491239D01*
X70098444Y-48693414D01*
X70194951Y-48882820D01*
X70319890Y-49054786D01*
X70470213Y-49205109D01*
X70642182Y-49330050D01*
X70650946Y-49334516D01*
X70701742Y-49382491D01*
X70718536Y-49450312D01*
X70695998Y-49516447D01*
X70650946Y-49555484D01*
X70642182Y-49559949D01*
X70470213Y-49684890D01*
X70319890Y-49835213D01*
X70194951Y-50007179D01*
X70098444Y-50196585D01*
X70032753Y-50398760D01*
X69999500Y-50608713D01*
X69999500Y-50821286D01*
X70032753Y-51031239D01*
X70098444Y-51233414D01*
X70194951Y-51422820D01*
X70319890Y-51594786D01*
X70470213Y-51745109D01*
X70642182Y-51870050D01*
X70650946Y-51874516D01*
X70701742Y-51922491D01*
X70718536Y-51990312D01*
X70695998Y-52056447D01*
X70650946Y-52095484D01*
X70642182Y-52099949D01*
X70470213Y-52224890D01*
X70319890Y-52375213D01*
X70194951Y-52547179D01*
X70098444Y-52736585D01*
X70032753Y-52938760D01*
X69999500Y-53148713D01*
X69999500Y-53361287D01*
X70005885Y-53401602D01*
X70032753Y-53571239D01*
X70098444Y-53773414D01*
X70194951Y-53962820D01*
X70319890Y-54134786D01*
X70470213Y-54285109D01*
X70642182Y-54410050D01*
X70650946Y-54414516D01*
X70701742Y-54462491D01*
X70718536Y-54530312D01*
X70695998Y-54596447D01*
X70650946Y-54635484D01*
X70642182Y-54639949D01*
X70470213Y-54764890D01*
X70319890Y-54915213D01*
X70194951Y-55087179D01*
X70098444Y-55276585D01*
X70032753Y-55478760D01*
X69999500Y-55688713D01*
X69999500Y-55901287D01*
X70032754Y-56111243D01*
X70057268Y-56186690D01*
X70098444Y-56313414D01*
X70194951Y-56502820D01*
X70319890Y-56674786D01*
X70470213Y-56825109D01*
X70642182Y-56950050D01*
X70650946Y-56954516D01*
X70701742Y-57002491D01*
X70718536Y-57070312D01*
X70695998Y-57136447D01*
X70650946Y-57175484D01*
X70642182Y-57179949D01*
X70470213Y-57304890D01*
X70319890Y-57455213D01*
X70194951Y-57627179D01*
X70098444Y-57816585D01*
X70032753Y-58018760D01*
X70008263Y-58173386D01*
X69999500Y-58228713D01*
X69999500Y-58441287D01*
X70032754Y-58651243D01*
X70097790Y-58851403D01*
X70098444Y-58853414D01*
X70194951Y-59042820D01*
X70319890Y-59214786D01*
X70470213Y-59365109D01*
X70642182Y-59490050D01*
X70650946Y-59494516D01*
X70701742Y-59542491D01*
X70718536Y-59610312D01*
X70695998Y-59676447D01*
X70650946Y-59715484D01*
X70642182Y-59719949D01*
X70470213Y-59844890D01*
X70319890Y-59995213D01*
X70194951Y-60167179D01*
X70098444Y-60356585D01*
X70032753Y-60558760D01*
X70018376Y-60649534D01*
X69999500Y-60768713D01*
X69999500Y-60981287D01*
X70032754Y-61191243D01*
X70080102Y-61336966D01*
X70098444Y-61393414D01*
X70194951Y-61582820D01*
X70319890Y-61754786D01*
X70470213Y-61905109D01*
X70642182Y-62030050D01*
X70650946Y-62034516D01*
X70701742Y-62082491D01*
X70718536Y-62150312D01*
X70695998Y-62216447D01*
X70650946Y-62255484D01*
X70642182Y-62259949D01*
X70470213Y-62384890D01*
X70319890Y-62535213D01*
X70194951Y-62707179D01*
X70098444Y-62896585D01*
X70032753Y-63098760D01*
X69999500Y-63308713D01*
X69999500Y-63521286D01*
X70031366Y-63722483D01*
X70032754Y-63731243D01*
X70082746Y-63885103D01*
X70098444Y-63933414D01*
X70194951Y-64122820D01*
X70319890Y-64294786D01*
X70470213Y-64445109D01*
X70642182Y-64570050D01*
X70650946Y-64574516D01*
X70701742Y-64622491D01*
X70718536Y-64690312D01*
X70695998Y-64756447D01*
X70650946Y-64795484D01*
X70642182Y-64799949D01*
X70470213Y-64924890D01*
X70319890Y-65075213D01*
X70194951Y-65247179D01*
X70098444Y-65436585D01*
X70032753Y-65638760D01*
X70007645Y-65797287D01*
X69999500Y-65848713D01*
X69999500Y-66061287D01*
X70032754Y-66271243D01*
X70044070Y-66306071D01*
X70098444Y-66473414D01*
X70194951Y-66662820D01*
X70319890Y-66834786D01*
X70470213Y-66985109D01*
X70642182Y-67110050D01*
X70650946Y-67114516D01*
X70701742Y-67162491D01*
X70718536Y-67230312D01*
X70695998Y-67296447D01*
X70650946Y-67335484D01*
X70642182Y-67339949D01*
X70470213Y-67464890D01*
X70319890Y-67615213D01*
X70194951Y-67787179D01*
X70098444Y-67976585D01*
X70032753Y-68178760D01*
X69999500Y-68388713D01*
X69999500Y-68601286D01*
X70032753Y-68811240D01*
X70047342Y-68856140D01*
X70049337Y-68925982D01*
X70013256Y-68985814D01*
X69950555Y-69016642D01*
X69881141Y-69008677D01*
X69841730Y-68982139D01*
X68895822Y-68036232D01*
X68885859Y-68026269D01*
X68885858Y-68026267D01*
X68798733Y-67939142D01*
X68747509Y-67904915D01*
X68696286Y-67870688D01*
X68696283Y-67870686D01*
X68696280Y-67870685D01*
X68622603Y-67840168D01*
X68622601Y-67840167D01*
X68615792Y-67837347D01*
X68582452Y-67823537D01*
X68522029Y-67811518D01*
X68517306Y-67810578D01*
X68517304Y-67810578D01*
X68461610Y-67799500D01*
X68461607Y-67799500D01*
X68461606Y-67799500D01*
X60500452Y-67799500D01*
X60433413Y-67779815D01*
X60412771Y-67763181D01*
X58572238Y-65922648D01*
X59779500Y-65922648D01*
X59779500Y-66127351D01*
X59811522Y-66329534D01*
X59874781Y-66524223D01*
X59967715Y-66706613D01*
X60088028Y-66872213D01*
X60232786Y-67016971D01*
X60367045Y-67114514D01*
X60398390Y-67137287D01*
X60479287Y-67178506D01*
X60580776Y-67230218D01*
X60580778Y-67230218D01*
X60580781Y-67230220D01*
X60685137Y-67264127D01*
X60775465Y-67293477D01*
X60876557Y-67309488D01*
X60977648Y-67325500D01*
X60977649Y-67325500D01*
X61182351Y-67325500D01*
X61182352Y-67325500D01*
X61384534Y-67293477D01*
X61579219Y-67230220D01*
X61761610Y-67137287D01*
X61854590Y-67069732D01*
X61927213Y-67016971D01*
X61927215Y-67016968D01*
X61927219Y-67016966D01*
X62071966Y-66872219D01*
X62071968Y-66872215D01*
X62071971Y-66872213D01*
X62139305Y-66779534D01*
X62192287Y-66706610D01*
X62285220Y-66524219D01*
X62348477Y-66329534D01*
X62380500Y-66127352D01*
X62380500Y-65922648D01*
X64779500Y-65922648D01*
X64779500Y-66127351D01*
X64811522Y-66329534D01*
X64874781Y-66524223D01*
X64967715Y-66706613D01*
X65088028Y-66872213D01*
X65232786Y-67016971D01*
X65367045Y-67114514D01*
X65398390Y-67137287D01*
X65479287Y-67178506D01*
X65580776Y-67230218D01*
X65580778Y-67230218D01*
X65580781Y-67230220D01*
X65685137Y-67264127D01*
X65775465Y-67293477D01*
X65876557Y-67309488D01*
X65977648Y-67325500D01*
X65977649Y-67325500D01*
X66182351Y-67325500D01*
X66182352Y-67325500D01*
X66384534Y-67293477D01*
X66579219Y-67230220D01*
X66761610Y-67137287D01*
X66854590Y-67069732D01*
X66927213Y-67016971D01*
X66927215Y-67016968D01*
X66927219Y-67016966D01*
X67071966Y-66872219D01*
X67071968Y-66872215D01*
X67071971Y-66872213D01*
X67139305Y-66779534D01*
X67192287Y-66706610D01*
X67285220Y-66524219D01*
X67348477Y-66329534D01*
X67380500Y-66127352D01*
X67380500Y-65922648D01*
X67368790Y-65848713D01*
X67348477Y-65720465D01*
X67291327Y-65544577D01*
X67285220Y-65525781D01*
X67285218Y-65525778D01*
X67285218Y-65525776D01*
X67234700Y-65426631D01*
X67192287Y-65343390D01*
X67141824Y-65273933D01*
X67071971Y-65177786D01*
X66927213Y-65033028D01*
X66761613Y-64912715D01*
X66761612Y-64912714D01*
X66761610Y-64912713D01*
X66697507Y-64880051D01*
X66579223Y-64819781D01*
X66384534Y-64756522D01*
X66209995Y-64728878D01*
X66182352Y-64724500D01*
X65977648Y-64724500D01*
X65953329Y-64728351D01*
X65775465Y-64756522D01*
X65580776Y-64819781D01*
X65398386Y-64912715D01*
X65232786Y-65033028D01*
X65088028Y-65177786D01*
X64967715Y-65343386D01*
X64874781Y-65525776D01*
X64811522Y-65720465D01*
X64779500Y-65922648D01*
X62380500Y-65922648D01*
X62368790Y-65848713D01*
X62348477Y-65720465D01*
X62291327Y-65544577D01*
X62285220Y-65525781D01*
X62285218Y-65525778D01*
X62285218Y-65525776D01*
X62234700Y-65426631D01*
X62192287Y-65343390D01*
X62141824Y-65273933D01*
X62071971Y-65177786D01*
X61927213Y-65033028D01*
X61761613Y-64912715D01*
X61761612Y-64912714D01*
X61761610Y-64912713D01*
X61697507Y-64880051D01*
X61579223Y-64819781D01*
X61384534Y-64756522D01*
X61209995Y-64728878D01*
X61182352Y-64724500D01*
X60977648Y-64724500D01*
X60953329Y-64728351D01*
X60775465Y-64756522D01*
X60580776Y-64819781D01*
X60398386Y-64912715D01*
X60232786Y-65033028D01*
X60088028Y-65177786D01*
X59967715Y-65343386D01*
X59874781Y-65525776D01*
X59811522Y-65720465D01*
X59779500Y-65922648D01*
X58572238Y-65922648D01*
X52892238Y-60242648D01*
X59779500Y-60242648D01*
X59779500Y-60447351D01*
X59811522Y-60649534D01*
X59874781Y-60844223D01*
X59926951Y-60946610D01*
X59964439Y-61020185D01*
X59967715Y-61026613D01*
X60088028Y-61192213D01*
X60232786Y-61336971D01*
X60378467Y-61442812D01*
X60398390Y-61457287D01*
X60486517Y-61502190D01*
X60580776Y-61550218D01*
X60580778Y-61550218D01*
X60580781Y-61550220D01*
X60685137Y-61584127D01*
X60775465Y-61613477D01*
X60876557Y-61629488D01*
X60977648Y-61645500D01*
X60977649Y-61645500D01*
X61182351Y-61645500D01*
X61182352Y-61645500D01*
X61384534Y-61613477D01*
X61579219Y-61550220D01*
X61761610Y-61457287D01*
X61858234Y-61387086D01*
X61927213Y-61336971D01*
X61927215Y-61336968D01*
X61927219Y-61336966D01*
X62071966Y-61192219D01*
X62071968Y-61192215D01*
X62071971Y-61192213D01*
X62130093Y-61112213D01*
X62192287Y-61026610D01*
X62285220Y-60844219D01*
X62348477Y-60649534D01*
X62380500Y-60447352D01*
X62380500Y-60242648D01*
X64779500Y-60242648D01*
X64779500Y-60447351D01*
X64811522Y-60649534D01*
X64874781Y-60844223D01*
X64926951Y-60946610D01*
X64964439Y-61020185D01*
X64967715Y-61026613D01*
X65088028Y-61192213D01*
X65232786Y-61336971D01*
X65378467Y-61442812D01*
X65398390Y-61457287D01*
X65486517Y-61502190D01*
X65580776Y-61550218D01*
X65580778Y-61550218D01*
X65580781Y-61550220D01*
X65685137Y-61584127D01*
X65775465Y-61613477D01*
X65876557Y-61629488D01*
X65977648Y-61645500D01*
X65977649Y-61645500D01*
X66182351Y-61645500D01*
X66182352Y-61645500D01*
X66384534Y-61613477D01*
X66579219Y-61550220D01*
X66761610Y-61457287D01*
X66858234Y-61387086D01*
X66927213Y-61336971D01*
X66927215Y-61336968D01*
X66927219Y-61336966D01*
X67071966Y-61192219D01*
X67071968Y-61192215D01*
X67071971Y-61192213D01*
X67130093Y-61112213D01*
X67192287Y-61026610D01*
X67285220Y-60844219D01*
X67348477Y-60649534D01*
X67380500Y-60447352D01*
X67380500Y-60242648D01*
X67371489Y-60185756D01*
X67348477Y-60040465D01*
X67297934Y-59884910D01*
X67285220Y-59845781D01*
X67285218Y-59845778D01*
X67285218Y-59845776D01*
X67236162Y-59749500D01*
X67192287Y-59663390D01*
X67149865Y-59605000D01*
X67071971Y-59497786D01*
X66927213Y-59353028D01*
X66761613Y-59232715D01*
X66761612Y-59232714D01*
X66761610Y-59232713D01*
X66704653Y-59203691D01*
X66579223Y-59139781D01*
X66384534Y-59076522D01*
X66209995Y-59048878D01*
X66182352Y-59044500D01*
X65977648Y-59044500D01*
X65953329Y-59048351D01*
X65775465Y-59076522D01*
X65580776Y-59139781D01*
X65398386Y-59232715D01*
X65232786Y-59353028D01*
X65088028Y-59497786D01*
X64967715Y-59663386D01*
X64874781Y-59845776D01*
X64811522Y-60040465D01*
X64779500Y-60242648D01*
X62380500Y-60242648D01*
X62371489Y-60185756D01*
X62348477Y-60040465D01*
X62297934Y-59884910D01*
X62285220Y-59845781D01*
X62285218Y-59845778D01*
X62285218Y-59845776D01*
X62236162Y-59749500D01*
X62192287Y-59663390D01*
X62149865Y-59605000D01*
X62071971Y-59497786D01*
X61927213Y-59353028D01*
X61761613Y-59232715D01*
X61761612Y-59232714D01*
X61761610Y-59232713D01*
X61704653Y-59203691D01*
X61579223Y-59139781D01*
X61384534Y-59076522D01*
X61209995Y-59048878D01*
X61182352Y-59044500D01*
X60977648Y-59044500D01*
X60953329Y-59048351D01*
X60775465Y-59076522D01*
X60580776Y-59139781D01*
X60398386Y-59232715D01*
X60232786Y-59353028D01*
X60088028Y-59497786D01*
X59967715Y-59663386D01*
X59874781Y-59845776D01*
X59811522Y-60040465D01*
X59779500Y-60242648D01*
X52892238Y-60242648D01*
X52809690Y-60160100D01*
X52776205Y-60098777D01*
X52781189Y-60029085D01*
X52823061Y-59973152D01*
X52830280Y-59968253D01*
X52841000Y-59960465D01*
X52904730Y-59914163D01*
X52997213Y-59846971D01*
X52997215Y-59846968D01*
X52997219Y-59846966D01*
X53141966Y-59702219D01*
X53141968Y-59702215D01*
X53141971Y-59702213D01*
X53212599Y-59605000D01*
X53262287Y-59536610D01*
X53355220Y-59354219D01*
X53418477Y-59159534D01*
X53450500Y-58957352D01*
X53450500Y-58752648D01*
X54719500Y-58752648D01*
X54719500Y-58957351D01*
X54751522Y-59159534D01*
X54814781Y-59354223D01*
X54878691Y-59479653D01*
X54883989Y-59490050D01*
X54907715Y-59536613D01*
X55028028Y-59702213D01*
X55172786Y-59846971D01*
X55327749Y-59959556D01*
X55338390Y-59967287D01*
X55454607Y-60026503D01*
X55520776Y-60060218D01*
X55520778Y-60060218D01*
X55520781Y-60060220D01*
X55624379Y-60093881D01*
X55715465Y-60123477D01*
X55816557Y-60139488D01*
X55917648Y-60155500D01*
X55917649Y-60155500D01*
X56122351Y-60155500D01*
X56122352Y-60155500D01*
X56324534Y-60123477D01*
X56324537Y-60123476D01*
X56324538Y-60123476D01*
X56335712Y-60119845D01*
X56335713Y-60119845D01*
X56415621Y-60093881D01*
X56519219Y-60060220D01*
X56701610Y-59967287D01*
X56814993Y-59884910D01*
X56867213Y-59846971D01*
X56867215Y-59846968D01*
X56867219Y-59846966D01*
X57011966Y-59702219D01*
X57011968Y-59702215D01*
X57011971Y-59702213D01*
X57082599Y-59605000D01*
X57132287Y-59536610D01*
X57225220Y-59354219D01*
X57288477Y-59159534D01*
X57320500Y-58957352D01*
X57320500Y-58752648D01*
X57288477Y-58550466D01*
X57225220Y-58355781D01*
X57225218Y-58355778D01*
X57225218Y-58355776D01*
X57191503Y-58289607D01*
X57132287Y-58173390D01*
X57124556Y-58162749D01*
X57011971Y-58007786D01*
X56867213Y-57863028D01*
X56701613Y-57742715D01*
X56701612Y-57742714D01*
X56701610Y-57742713D01*
X56644653Y-57713691D01*
X56519223Y-57649781D01*
X56324534Y-57586522D01*
X56149995Y-57558878D01*
X56122352Y-57554500D01*
X55917648Y-57554500D01*
X55893329Y-57558351D01*
X55715465Y-57586522D01*
X55520776Y-57649781D01*
X55338386Y-57742715D01*
X55172786Y-57863028D01*
X55028028Y-58007786D01*
X54907715Y-58173386D01*
X54814781Y-58355776D01*
X54751522Y-58550465D01*
X54719500Y-58752648D01*
X53450500Y-58752648D01*
X53418477Y-58550466D01*
X53355220Y-58355781D01*
X53355218Y-58355778D01*
X53355218Y-58355776D01*
X53321503Y-58289607D01*
X53262287Y-58173390D01*
X53254556Y-58162749D01*
X53141971Y-58007786D01*
X52997213Y-57863028D01*
X52831613Y-57742715D01*
X52831612Y-57742714D01*
X52831610Y-57742713D01*
X52774653Y-57713691D01*
X52649223Y-57649781D01*
X52454534Y-57586522D01*
X52279995Y-57558878D01*
X52252352Y-57554500D01*
X52047648Y-57554500D01*
X52023329Y-57558351D01*
X51845465Y-57586522D01*
X51650776Y-57649781D01*
X51468386Y-57742715D01*
X51302786Y-57863028D01*
X51158028Y-58007786D01*
X51037715Y-58173386D01*
X50944781Y-58355776D01*
X50881522Y-58550465D01*
X50849500Y-58752648D01*
X50849500Y-58957351D01*
X50881522Y-59159534D01*
X50944781Y-59354223D01*
X51007894Y-59478088D01*
X51013989Y-59490050D01*
X51037714Y-59536611D01*
X51049342Y-59552617D01*
X51072820Y-59618423D01*
X51056993Y-59686477D01*
X51006887Y-59735171D01*
X50949022Y-59749500D01*
X47862628Y-59749500D01*
X47795589Y-59729815D01*
X47762312Y-59698388D01*
X47685690Y-59592927D01*
X47552073Y-59459310D01*
X47399199Y-59348240D01*
X47230836Y-59262454D01*
X47051118Y-59204059D01*
X46864486Y-59174500D01*
X46864481Y-59174500D01*
X46675519Y-59174500D01*
X46675514Y-59174500D01*
X46488881Y-59204059D01*
X46309163Y-59262454D01*
X46140800Y-59348240D01*
X46053579Y-59411610D01*
X45987927Y-59459310D01*
X45987925Y-59459312D01*
X45987924Y-59459312D01*
X45854312Y-59592924D01*
X45854312Y-59592925D01*
X45854310Y-59592927D01*
X45841679Y-59610312D01*
X45743240Y-59745800D01*
X45657454Y-59914163D01*
X45599059Y-60093881D01*
X45569500Y-60280513D01*
X42720500Y-60280513D01*
X42720500Y-55168872D01*
X45109500Y-55168872D01*
X45109500Y-55431127D01*
X45136123Y-55633339D01*
X45143730Y-55691116D01*
X45200045Y-55901286D01*
X45211602Y-55944418D01*
X45211605Y-55944428D01*
X45311953Y-56186690D01*
X45311958Y-56186700D01*
X45443075Y-56413803D01*
X45602718Y-56621851D01*
X45602726Y-56621860D01*
X45788140Y-56807274D01*
X45788148Y-56807281D01*
X45788149Y-56807282D01*
X45836554Y-56844424D01*
X45996196Y-56966924D01*
X46223299Y-57098041D01*
X46223309Y-57098046D01*
X46421041Y-57179949D01*
X46465581Y-57198398D01*
X46718884Y-57266270D01*
X46978880Y-57300500D01*
X46978887Y-57300500D01*
X47241113Y-57300500D01*
X47241120Y-57300500D01*
X47501116Y-57266270D01*
X47754419Y-57198398D01*
X47996697Y-57098043D01*
X48223803Y-56966924D01*
X48431851Y-56807282D01*
X48431855Y-56807277D01*
X48431860Y-56807274D01*
X48617274Y-56621860D01*
X48617277Y-56621855D01*
X48617282Y-56621851D01*
X48776924Y-56413803D01*
X48908043Y-56186697D01*
X49008398Y-55944419D01*
X49076270Y-55691116D01*
X49110500Y-55431120D01*
X49110500Y-55168880D01*
X49110499Y-55168872D01*
X57809500Y-55168872D01*
X57809500Y-55431127D01*
X57836123Y-55633339D01*
X57843730Y-55691116D01*
X57900045Y-55901286D01*
X57911602Y-55944418D01*
X57911605Y-55944428D01*
X58011953Y-56186690D01*
X58011958Y-56186700D01*
X58143075Y-56413803D01*
X58302718Y-56621851D01*
X58302726Y-56621860D01*
X58488140Y-56807274D01*
X58488148Y-56807281D01*
X58488149Y-56807282D01*
X58536554Y-56844424D01*
X58696196Y-56966924D01*
X58923299Y-57098041D01*
X58923309Y-57098046D01*
X59121041Y-57179949D01*
X59165581Y-57198398D01*
X59418884Y-57266270D01*
X59678880Y-57300500D01*
X59678887Y-57300500D01*
X59941113Y-57300500D01*
X59941120Y-57300500D01*
X60201116Y-57266270D01*
X60454419Y-57198398D01*
X60696697Y-57098043D01*
X60923803Y-56966924D01*
X61131851Y-56807282D01*
X61131855Y-56807277D01*
X61131860Y-56807274D01*
X61317274Y-56621860D01*
X61317277Y-56621855D01*
X61317282Y-56621851D01*
X61476924Y-56413803D01*
X61608043Y-56186697D01*
X61708398Y-55944419D01*
X61776270Y-55691116D01*
X61810500Y-55431120D01*
X61810500Y-55168880D01*
X61776270Y-54908884D01*
X61760937Y-54851661D01*
X61762600Y-54781811D01*
X61793029Y-54731889D01*
X66347778Y-50177141D01*
X66347782Y-50177139D01*
X66487139Y-50037782D01*
X66596632Y-49873914D01*
X66672051Y-49691835D01*
X66699173Y-49555484D01*
X66710500Y-49498543D01*
X66710500Y-40980782D01*
X66730185Y-40913743D01*
X66746819Y-40893101D01*
X70947136Y-36692785D01*
X70947136Y-36692784D01*
X70947139Y-36692782D01*
X71023105Y-36579090D01*
X71056632Y-36528914D01*
X71132051Y-36346835D01*
X71153017Y-36241428D01*
X71185400Y-36179522D01*
X71186883Y-36178010D01*
X71250104Y-36114791D01*
X71375051Y-35942815D01*
X71379514Y-35934053D01*
X71427488Y-35883258D01*
X71495308Y-35866462D01*
X71561444Y-35888998D01*
X71600486Y-35934055D01*
X71604951Y-35942819D01*
X71729890Y-36114785D01*
X71880213Y-36265108D01*
X72052179Y-36390047D01*
X72052181Y-36390048D01*
X72052184Y-36390050D01*
X72241588Y-36486556D01*
X72443757Y-36552245D01*
X72653713Y-36585499D01*
X72653714Y-36585499D01*
X72658525Y-36586261D01*
X72658357Y-36587320D01*
X72718829Y-36610361D01*
X72731502Y-36621421D01*
X75817861Y-39707781D01*
X75817862Y-39707782D01*
X75957219Y-39847139D01*
X76121087Y-39956632D01*
X76191240Y-39985690D01*
X76303165Y-40032051D01*
X76496455Y-40070499D01*
X76496458Y-40070500D01*
X76496460Y-40070500D01*
X96316069Y-40070500D01*
X96383108Y-40090185D01*
X96423456Y-40132500D01*
X96453075Y-40183803D01*
X96612718Y-40391851D01*
X96612726Y-40391860D01*
X96798140Y-40577274D01*
X96798148Y-40577281D01*
X97006196Y-40736924D01*
X97233299Y-40868041D01*
X97233309Y-40868046D01*
X97475571Y-40968394D01*
X97475581Y-40968398D01*
X97728884Y-41036270D01*
X97988880Y-41070500D01*
X97988887Y-41070500D01*
X98251113Y-41070500D01*
X98251120Y-41070500D01*
X98511116Y-41036270D01*
X98764419Y-40968398D01*
X99006697Y-40868043D01*
X99233803Y-40736924D01*
X99441851Y-40577282D01*
X99441855Y-40577277D01*
X99441860Y-40577274D01*
X99627274Y-40391860D01*
X99627277Y-40391855D01*
X99627282Y-40391851D01*
X99786924Y-40183803D01*
X99918043Y-39956697D01*
X100018398Y-39714419D01*
X100086270Y-39461116D01*
X100120500Y-39201120D01*
X100120500Y-38938880D01*
X100120499Y-38938872D01*
X108819500Y-38938872D01*
X108819500Y-39201127D01*
X108846123Y-39403339D01*
X108853730Y-39461116D01*
X108919824Y-39707782D01*
X108921602Y-39714418D01*
X108921605Y-39714428D01*
X109021953Y-39956690D01*
X109021958Y-39956700D01*
X109153075Y-40183803D01*
X109312718Y-40391851D01*
X109312726Y-40391860D01*
X109498140Y-40577274D01*
X109498148Y-40577281D01*
X109706196Y-40736924D01*
X109933299Y-40868041D01*
X109933309Y-40868046D01*
X110175571Y-40968394D01*
X110175581Y-40968398D01*
X110428884Y-41036270D01*
X110688880Y-41070500D01*
X110688887Y-41070500D01*
X110951113Y-41070500D01*
X110951120Y-41070500D01*
X111211116Y-41036270D01*
X111464419Y-40968398D01*
X111706697Y-40868043D01*
X111933803Y-40736924D01*
X112141851Y-40577282D01*
X112141855Y-40577277D01*
X112141860Y-40577274D01*
X112327274Y-40391860D01*
X112327277Y-40391855D01*
X112327282Y-40391851D01*
X112486924Y-40183803D01*
X112618043Y-39956697D01*
X112718398Y-39714419D01*
X112786270Y-39461116D01*
X112820500Y-39201120D01*
X112820500Y-38938880D01*
X112786270Y-38678884D01*
X112718398Y-38425581D01*
X112718394Y-38425571D01*
X112618046Y-38183309D01*
X112618041Y-38183299D01*
X112486924Y-37956196D01*
X112327281Y-37748148D01*
X112327274Y-37748140D01*
X112141860Y-37562726D01*
X112141851Y-37562718D01*
X111933803Y-37403075D01*
X111706700Y-37271958D01*
X111706690Y-37271953D01*
X111464428Y-37171605D01*
X111464421Y-37171603D01*
X111464419Y-37171602D01*
X111211116Y-37103730D01*
X111153339Y-37096123D01*
X110951127Y-37069500D01*
X110951120Y-37069500D01*
X110688880Y-37069500D01*
X110688872Y-37069500D01*
X110457772Y-37099926D01*
X110428884Y-37103730D01*
X110175581Y-37171602D01*
X110175571Y-37171605D01*
X109933309Y-37271953D01*
X109933299Y-37271958D01*
X109706196Y-37403075D01*
X109498148Y-37562718D01*
X109312718Y-37748148D01*
X109153075Y-37956196D01*
X109021958Y-38183299D01*
X109021953Y-38183309D01*
X108921605Y-38425571D01*
X108921602Y-38425581D01*
X108853730Y-38678885D01*
X108819500Y-38938872D01*
X100120499Y-38938872D01*
X100086270Y-38678884D01*
X100018398Y-38425581D01*
X100018394Y-38425571D01*
X99918046Y-38183309D01*
X99918041Y-38183299D01*
X99786924Y-37956196D01*
X99627281Y-37748148D01*
X99627274Y-37748140D01*
X99441860Y-37562726D01*
X99441851Y-37562718D01*
X99233803Y-37403075D01*
X99006700Y-37271958D01*
X99006690Y-37271953D01*
X98764428Y-37171605D01*
X98764421Y-37171603D01*
X98764419Y-37171602D01*
X98511116Y-37103730D01*
X98453339Y-37096123D01*
X98251127Y-37069500D01*
X98251120Y-37069500D01*
X97988880Y-37069500D01*
X97988872Y-37069500D01*
X97757772Y-37099926D01*
X97728884Y-37103730D01*
X97475581Y-37171602D01*
X97475571Y-37171605D01*
X97233309Y-37271953D01*
X97233299Y-37271958D01*
X97006196Y-37403075D01*
X96798148Y-37562718D01*
X96612718Y-37748148D01*
X96453075Y-37956196D01*
X96423456Y-38007500D01*
X96372889Y-38055715D01*
X96316069Y-38069500D01*
X77060784Y-38069500D01*
X76993745Y-38049815D01*
X76973103Y-38033181D01*
X75665677Y-36725755D01*
X75632192Y-36664432D01*
X75637176Y-36594740D01*
X75679048Y-36538807D01*
X75715036Y-36520145D01*
X75818412Y-36486556D01*
X76007816Y-36390050D01*
X76029789Y-36374085D01*
X76179786Y-36265108D01*
X76179788Y-36265105D01*
X76179792Y-36265103D01*
X76330104Y-36114791D01*
X76330108Y-36114786D01*
X76330109Y-36114785D01*
X76455048Y-35942819D01*
X76455047Y-35942819D01*
X76455051Y-35942815D01*
X76459514Y-35934053D01*
X76507488Y-35883258D01*
X76575308Y-35866462D01*
X76641444Y-35888998D01*
X76680486Y-35934055D01*
X76684951Y-35942819D01*
X76809890Y-36114785D01*
X76960213Y-36265108D01*
X77132179Y-36390047D01*
X77132181Y-36390048D01*
X77132184Y-36390050D01*
X77321588Y-36486556D01*
X77523757Y-36552245D01*
X77733713Y-36585499D01*
X77733714Y-36585499D01*
X77946286Y-36585499D01*
X77946287Y-36585499D01*
X78156243Y-36552245D01*
X78358412Y-36486556D01*
X78547816Y-36390050D01*
X78569789Y-36374085D01*
X78719786Y-36265108D01*
X78719788Y-36265105D01*
X78719792Y-36265103D01*
X78870104Y-36114791D01*
X78870108Y-36114786D01*
X78870109Y-36114785D01*
X78995048Y-35942819D01*
X78995047Y-35942819D01*
X78995051Y-35942815D01*
X78999514Y-35934053D01*
X79047488Y-35883258D01*
X79115308Y-35866462D01*
X79181444Y-35888998D01*
X79220486Y-35934055D01*
X79224951Y-35942819D01*
X79349890Y-36114785D01*
X79500213Y-36265108D01*
X79672179Y-36390047D01*
X79672181Y-36390048D01*
X79672184Y-36390050D01*
X79861588Y-36486556D01*
X80063757Y-36552245D01*
X80273713Y-36585499D01*
X80273714Y-36585499D01*
X80486286Y-36585499D01*
X80486287Y-36585499D01*
X80696243Y-36552245D01*
X80898412Y-36486556D01*
X81087816Y-36390050D01*
X81109789Y-36374085D01*
X81259786Y-36265108D01*
X81259788Y-36265105D01*
X81259792Y-36265103D01*
X81410104Y-36114791D01*
X81410108Y-36114786D01*
X81410109Y-36114785D01*
X81535048Y-35942819D01*
X81535047Y-35942819D01*
X81535051Y-35942815D01*
X81631557Y-35753411D01*
X81697246Y-35551242D01*
X81730500Y-35341286D01*
X81730500Y-35128712D01*
X82599500Y-35128712D01*
X82599500Y-35341285D01*
X82632753Y-35551238D01*
X82698444Y-35753413D01*
X82794951Y-35942819D01*
X82919890Y-36114785D01*
X83070213Y-36265108D01*
X83242179Y-36390047D01*
X83242181Y-36390048D01*
X83242184Y-36390050D01*
X83431588Y-36486556D01*
X83633757Y-36552245D01*
X83843713Y-36585499D01*
X83843714Y-36585499D01*
X84056286Y-36585499D01*
X84056287Y-36585499D01*
X84266243Y-36552245D01*
X84468412Y-36486556D01*
X84657816Y-36390050D01*
X84679789Y-36374085D01*
X84829786Y-36265108D01*
X84829788Y-36265105D01*
X84829792Y-36265103D01*
X84980104Y-36114791D01*
X84980108Y-36114786D01*
X84980109Y-36114785D01*
X85105048Y-35942819D01*
X85105047Y-35942819D01*
X85105051Y-35942815D01*
X85109514Y-35934053D01*
X85157488Y-35883258D01*
X85225308Y-35866462D01*
X85291444Y-35888998D01*
X85330486Y-35934055D01*
X85334951Y-35942819D01*
X85459890Y-36114785D01*
X85610213Y-36265108D01*
X85782179Y-36390047D01*
X85782181Y-36390048D01*
X85782184Y-36390050D01*
X85971588Y-36486556D01*
X86173757Y-36552245D01*
X86383713Y-36585499D01*
X86383714Y-36585499D01*
X86596286Y-36585499D01*
X86596287Y-36585499D01*
X86806243Y-36552245D01*
X87008412Y-36486556D01*
X87197816Y-36390050D01*
X87284471Y-36327092D01*
X87369784Y-36265109D01*
X87369784Y-36265108D01*
X87369792Y-36265103D01*
X87483329Y-36151565D01*
X87544648Y-36118083D01*
X87614340Y-36123067D01*
X87670274Y-36164938D01*
X87687189Y-36195916D01*
X87736202Y-36327327D01*
X87736206Y-36327334D01*
X87822452Y-36442543D01*
X87822455Y-36442546D01*
X87937664Y-36528792D01*
X87937671Y-36528796D01*
X88072517Y-36579090D01*
X88072516Y-36579090D01*
X88079444Y-36579834D01*
X88132127Y-36585499D01*
X89927872Y-36585498D01*
X89987483Y-36579090D01*
X90122331Y-36528795D01*
X90237546Y-36442545D01*
X90323796Y-36327330D01*
X90374091Y-36192482D01*
X90380500Y-36132872D01*
X90380499Y-34337127D01*
X90374091Y-34277516D01*
X90372810Y-34274082D01*
X90323797Y-34142670D01*
X90323793Y-34142663D01*
X90237547Y-34027454D01*
X90237544Y-34027451D01*
X90122335Y-33941205D01*
X90122328Y-33941201D01*
X89987482Y-33890907D01*
X89987483Y-33890907D01*
X89927883Y-33884500D01*
X89927881Y-33884499D01*
X89927873Y-33884499D01*
X89927864Y-33884499D01*
X88132129Y-33884499D01*
X88132123Y-33884500D01*
X88072516Y-33890907D01*
X87937671Y-33941201D01*
X87937664Y-33941205D01*
X87822455Y-34027451D01*
X87822452Y-34027454D01*
X87736206Y-34142663D01*
X87736203Y-34142668D01*
X87687189Y-34274082D01*
X87645317Y-34330015D01*
X87579853Y-34354432D01*
X87511580Y-34339580D01*
X87483326Y-34318429D01*
X87369786Y-34204889D01*
X87197820Y-34079950D01*
X87008414Y-33983443D01*
X87008413Y-33983442D01*
X87008412Y-33983442D01*
X86806243Y-33917753D01*
X86806241Y-33917752D01*
X86806240Y-33917752D01*
X86644957Y-33892207D01*
X86596287Y-33884499D01*
X86383713Y-33884499D01*
X86335042Y-33892207D01*
X86173760Y-33917752D01*
X85971585Y-33983443D01*
X85782179Y-34079950D01*
X85610213Y-34204889D01*
X85459890Y-34355212D01*
X85334949Y-34527181D01*
X85330484Y-34535945D01*
X85282509Y-34586741D01*
X85214688Y-34603535D01*
X85148553Y-34580997D01*
X85109516Y-34535945D01*
X85105050Y-34527181D01*
X84980109Y-34355212D01*
X84829786Y-34204889D01*
X84657820Y-34079950D01*
X84468414Y-33983443D01*
X84468413Y-33983442D01*
X84468412Y-33983442D01*
X84266243Y-33917753D01*
X84266241Y-33917752D01*
X84266240Y-33917752D01*
X84104957Y-33892207D01*
X84056287Y-33884499D01*
X83843713Y-33884499D01*
X83795042Y-33892207D01*
X83633760Y-33917752D01*
X83431585Y-33983443D01*
X83242179Y-34079950D01*
X83070213Y-34204889D01*
X82919890Y-34355212D01*
X82794951Y-34527178D01*
X82698444Y-34716584D01*
X82632753Y-34918759D01*
X82599500Y-35128712D01*
X81730500Y-35128712D01*
X81697246Y-34918756D01*
X81631557Y-34716587D01*
X81535051Y-34527183D01*
X81535049Y-34527180D01*
X81535048Y-34527178D01*
X81410109Y-34355212D01*
X81259786Y-34204889D01*
X81087820Y-34079950D01*
X80898414Y-33983443D01*
X80898413Y-33983442D01*
X80898412Y-33983442D01*
X80696243Y-33917753D01*
X80696241Y-33917752D01*
X80696240Y-33917752D01*
X80534957Y-33892207D01*
X80486287Y-33884499D01*
X80273713Y-33884499D01*
X80225042Y-33892207D01*
X80063760Y-33917752D01*
X79861585Y-33983443D01*
X79672179Y-34079950D01*
X79500213Y-34204889D01*
X79349890Y-34355212D01*
X79224949Y-34527181D01*
X79220484Y-34535945D01*
X79172509Y-34586741D01*
X79104688Y-34603535D01*
X79038553Y-34580997D01*
X78999516Y-34535945D01*
X78995050Y-34527181D01*
X78870109Y-34355212D01*
X78719786Y-34204889D01*
X78547820Y-34079950D01*
X78358414Y-33983443D01*
X78358413Y-33983442D01*
X78358412Y-33983442D01*
X78156243Y-33917753D01*
X78156241Y-33917752D01*
X78156240Y-33917752D01*
X77994957Y-33892207D01*
X77946287Y-33884499D01*
X77733713Y-33884499D01*
X77685042Y-33892207D01*
X77523760Y-33917752D01*
X77321585Y-33983443D01*
X77132179Y-34079950D01*
X76960213Y-34204889D01*
X76809890Y-34355212D01*
X76684949Y-34527181D01*
X76680484Y-34535945D01*
X76632509Y-34586741D01*
X76564688Y-34603535D01*
X76498553Y-34580997D01*
X76459516Y-34535945D01*
X76455050Y-34527181D01*
X76330109Y-34355212D01*
X76179786Y-34204889D01*
X76007820Y-34079950D01*
X75818414Y-33983443D01*
X75818413Y-33983442D01*
X75818412Y-33983442D01*
X75616243Y-33917753D01*
X75616241Y-33917752D01*
X75616240Y-33917752D01*
X75454957Y-33892207D01*
X75406287Y-33884499D01*
X75193713Y-33884499D01*
X75145042Y-33892207D01*
X74983760Y-33917752D01*
X74781585Y-33983443D01*
X74592179Y-34079950D01*
X74420213Y-34204889D01*
X74269890Y-34355212D01*
X74144949Y-34527181D01*
X74140484Y-34535945D01*
X74092509Y-34586741D01*
X74024688Y-34603535D01*
X73958553Y-34580997D01*
X73919516Y-34535945D01*
X73915050Y-34527181D01*
X73790109Y-34355212D01*
X73639786Y-34204889D01*
X73467820Y-34079950D01*
X73278414Y-33983443D01*
X73278413Y-33983442D01*
X73278412Y-33983442D01*
X73076243Y-33917753D01*
X73076241Y-33917752D01*
X73076240Y-33917752D01*
X72914957Y-33892207D01*
X72866287Y-33884499D01*
X72653713Y-33884499D01*
X72605042Y-33892207D01*
X72443760Y-33917752D01*
X72241585Y-33983443D01*
X72052179Y-34079950D01*
X71880213Y-34204889D01*
X71729890Y-34355212D01*
X71604949Y-34527181D01*
X71600484Y-34535945D01*
X71552509Y-34586741D01*
X71484688Y-34603535D01*
X71418553Y-34580997D01*
X71379516Y-34535945D01*
X71375050Y-34527181D01*
X71250109Y-34355212D01*
X71099786Y-34204889D01*
X70927820Y-34079950D01*
X70738414Y-33983443D01*
X70738413Y-33983442D01*
X70738412Y-33983442D01*
X70536243Y-33917753D01*
X70536241Y-33917752D01*
X70536240Y-33917752D01*
X70374957Y-33892207D01*
X70326287Y-33884499D01*
X70113713Y-33884499D01*
X70065042Y-33892207D01*
X69903760Y-33917752D01*
X69701585Y-33983443D01*
X69512179Y-34079950D01*
X69340215Y-34204888D01*
X69226285Y-34318818D01*
X69164962Y-34352302D01*
X69095270Y-34347318D01*
X69039337Y-34305446D01*
X69022422Y-34274469D01*
X68973354Y-34142912D01*
X68973350Y-34142905D01*
X68887190Y-34027811D01*
X68887187Y-34027808D01*
X68772093Y-33941648D01*
X68772086Y-33941644D01*
X68637379Y-33891402D01*
X68637372Y-33891400D01*
X68577844Y-33884999D01*
X67930000Y-33884999D01*
X67930000Y-34801987D01*
X67872993Y-34769074D01*
X67745826Y-34734999D01*
X67614174Y-34734999D01*
X67487007Y-34769074D01*
X67430000Y-34801987D01*
X67430000Y-33884999D01*
X66782155Y-33884999D01*
X66722627Y-33891400D01*
X66722620Y-33891402D01*
X66587913Y-33941644D01*
X66587906Y-33941648D01*
X66472812Y-34027808D01*
X66472809Y-34027811D01*
X66386649Y-34142905D01*
X66386645Y-34142912D01*
X66336403Y-34277619D01*
X66336401Y-34277626D01*
X66330000Y-34337154D01*
X66330000Y-34984999D01*
X67246988Y-34984999D01*
X67214075Y-35042006D01*
X67180000Y-35169173D01*
X67180000Y-35300825D01*
X67214075Y-35427992D01*
X67246988Y-35484999D01*
X66330000Y-35484999D01*
X66330000Y-36132843D01*
X66336401Y-36192371D01*
X66336403Y-36192378D01*
X66386645Y-36327085D01*
X66386649Y-36327092D01*
X66472809Y-36442186D01*
X66472812Y-36442189D01*
X66587906Y-36528349D01*
X66587913Y-36528353D01*
X66722620Y-36578595D01*
X66722627Y-36578597D01*
X66782155Y-36584998D01*
X66782172Y-36584999D01*
X67430000Y-36584999D01*
X67430000Y-35668011D01*
X67487007Y-35700924D01*
X67614174Y-35734999D01*
X67745826Y-35734999D01*
X67872993Y-35700924D01*
X67930000Y-35668011D01*
X67930000Y-36584999D01*
X67931780Y-36586779D01*
X67992756Y-36604684D01*
X68038511Y-36657488D01*
X68048455Y-36726646D01*
X68019430Y-36790202D01*
X68013398Y-36796680D01*
X66384508Y-38425571D01*
X65072220Y-39737859D01*
X65072218Y-39737861D01*
X65002538Y-39807540D01*
X64932859Y-39877219D01*
X64823371Y-40041079D01*
X64823364Y-40041092D01*
X64747950Y-40223160D01*
X64747947Y-40223170D01*
X64709500Y-40416456D01*
X64709500Y-48934217D01*
X64689815Y-49001256D01*
X64673181Y-49021898D01*
X60378110Y-53316968D01*
X60316787Y-53350453D01*
X60258337Y-53349062D01*
X60239271Y-53343953D01*
X60201116Y-53333730D01*
X60157662Y-53328009D01*
X59941127Y-53299500D01*
X59941120Y-53299500D01*
X59678880Y-53299500D01*
X59678872Y-53299500D01*
X59447772Y-53329926D01*
X59418884Y-53333730D01*
X59165581Y-53401602D01*
X59165571Y-53401605D01*
X58923309Y-53501953D01*
X58923299Y-53501958D01*
X58696196Y-53633075D01*
X58488148Y-53792718D01*
X58302718Y-53978148D01*
X58143075Y-54186196D01*
X58011958Y-54413299D01*
X58011953Y-54413309D01*
X57911605Y-54655571D01*
X57911602Y-54655581D01*
X57843730Y-54908884D01*
X57842897Y-54915213D01*
X57809500Y-55168872D01*
X49110499Y-55168872D01*
X49076270Y-54908884D01*
X49008398Y-54655581D01*
X49001923Y-54639949D01*
X48908046Y-54413309D01*
X48908041Y-54413299D01*
X48776924Y-54186196D01*
X48617281Y-53978148D01*
X48617274Y-53978140D01*
X48431860Y-53792726D01*
X48431851Y-53792718D01*
X48223803Y-53633075D01*
X47996700Y-53501958D01*
X47996690Y-53501953D01*
X47754428Y-53401605D01*
X47754421Y-53401603D01*
X47754419Y-53401602D01*
X47501116Y-53333730D01*
X47443339Y-53326123D01*
X47241127Y-53299500D01*
X47241120Y-53299500D01*
X46978880Y-53299500D01*
X46978872Y-53299500D01*
X46747772Y-53329926D01*
X46718884Y-53333730D01*
X46465581Y-53401602D01*
X46465571Y-53401605D01*
X46223309Y-53501953D01*
X46223299Y-53501958D01*
X45996196Y-53633075D01*
X45788148Y-53792718D01*
X45602718Y-53978148D01*
X45443075Y-54186196D01*
X45311958Y-54413299D01*
X45311953Y-54413309D01*
X45211605Y-54655571D01*
X45211602Y-54655581D01*
X45143730Y-54908884D01*
X45142897Y-54915213D01*
X45109500Y-55168872D01*
X42720500Y-55168872D01*
X42720500Y-38938872D01*
X45109500Y-38938872D01*
X45109500Y-39201127D01*
X45136123Y-39403339D01*
X45143730Y-39461116D01*
X45209824Y-39707782D01*
X45211602Y-39714418D01*
X45211605Y-39714428D01*
X45311953Y-39956690D01*
X45311958Y-39956700D01*
X45443075Y-40183803D01*
X45602718Y-40391851D01*
X45602726Y-40391860D01*
X45788140Y-40577274D01*
X45788148Y-40577281D01*
X45996196Y-40736924D01*
X46223299Y-40868041D01*
X46223309Y-40868046D01*
X46465571Y-40968394D01*
X46465581Y-40968398D01*
X46718884Y-41036270D01*
X46978880Y-41070500D01*
X46978887Y-41070500D01*
X47241113Y-41070500D01*
X47241120Y-41070500D01*
X47501116Y-41036270D01*
X47754419Y-40968398D01*
X47996697Y-40868043D01*
X48223803Y-40736924D01*
X48431851Y-40577282D01*
X48431855Y-40577277D01*
X48431860Y-40577274D01*
X48617274Y-40391860D01*
X48617277Y-40391855D01*
X48617282Y-40391851D01*
X48776924Y-40183803D01*
X48908043Y-39956697D01*
X49008398Y-39714419D01*
X49076270Y-39461116D01*
X49110500Y-39201120D01*
X49110500Y-38938880D01*
X49110499Y-38938872D01*
X57809500Y-38938872D01*
X57809500Y-39201127D01*
X57836123Y-39403339D01*
X57843730Y-39461116D01*
X57909824Y-39707782D01*
X57911602Y-39714418D01*
X57911605Y-39714428D01*
X58011953Y-39956690D01*
X58011958Y-39956700D01*
X58143075Y-40183803D01*
X58302718Y-40391851D01*
X58302726Y-40391860D01*
X58488140Y-40577274D01*
X58488148Y-40577281D01*
X58696196Y-40736924D01*
X58923299Y-40868041D01*
X58923309Y-40868046D01*
X59165571Y-40968394D01*
X59165581Y-40968398D01*
X59418884Y-41036270D01*
X59678880Y-41070500D01*
X59678887Y-41070500D01*
X59941113Y-41070500D01*
X59941120Y-41070500D01*
X60201116Y-41036270D01*
X60454419Y-40968398D01*
X60696697Y-40868043D01*
X60923803Y-40736924D01*
X61131851Y-40577282D01*
X61131855Y-40577277D01*
X61131860Y-40577274D01*
X61317274Y-40391860D01*
X61317277Y-40391855D01*
X61317282Y-40391851D01*
X61476924Y-40183803D01*
X61608043Y-39956697D01*
X61708398Y-39714419D01*
X61776270Y-39461116D01*
X61810500Y-39201120D01*
X61810500Y-38938880D01*
X61776270Y-38678884D01*
X61708398Y-38425581D01*
X61708394Y-38425571D01*
X61608046Y-38183309D01*
X61608041Y-38183299D01*
X61476924Y-37956196D01*
X61317281Y-37748148D01*
X61317274Y-37748140D01*
X61131860Y-37562726D01*
X61131851Y-37562718D01*
X60923803Y-37403075D01*
X60696700Y-37271958D01*
X60696690Y-37271953D01*
X60454428Y-37171605D01*
X60454421Y-37171603D01*
X60454419Y-37171602D01*
X60201116Y-37103730D01*
X60143339Y-37096123D01*
X59941127Y-37069500D01*
X59941120Y-37069500D01*
X59678880Y-37069500D01*
X59678872Y-37069500D01*
X59447772Y-37099926D01*
X59418884Y-37103730D01*
X59165581Y-37171602D01*
X59165571Y-37171605D01*
X58923309Y-37271953D01*
X58923299Y-37271958D01*
X58696196Y-37403075D01*
X58488148Y-37562718D01*
X58302718Y-37748148D01*
X58143075Y-37956196D01*
X58011958Y-38183299D01*
X58011953Y-38183309D01*
X57911605Y-38425571D01*
X57911602Y-38425581D01*
X57843730Y-38678885D01*
X57809500Y-38938872D01*
X49110499Y-38938872D01*
X49076270Y-38678884D01*
X49008398Y-38425581D01*
X49008394Y-38425571D01*
X48908046Y-38183309D01*
X48908041Y-38183299D01*
X48776924Y-37956196D01*
X48617281Y-37748148D01*
X48617274Y-37748140D01*
X48431860Y-37562726D01*
X48431851Y-37562718D01*
X48223803Y-37403075D01*
X47996700Y-37271958D01*
X47996690Y-37271953D01*
X47754428Y-37171605D01*
X47754421Y-37171603D01*
X47754419Y-37171602D01*
X47501116Y-37103730D01*
X47443339Y-37096123D01*
X47241127Y-37069500D01*
X47241120Y-37069500D01*
X46978880Y-37069500D01*
X46978872Y-37069500D01*
X46747772Y-37099926D01*
X46718884Y-37103730D01*
X46465581Y-37171602D01*
X46465571Y-37171605D01*
X46223309Y-37271953D01*
X46223299Y-37271958D01*
X45996196Y-37403075D01*
X45788148Y-37562718D01*
X45602718Y-37748148D01*
X45443075Y-37956196D01*
X45311958Y-38183299D01*
X45311953Y-38183309D01*
X45211605Y-38425571D01*
X45211602Y-38425581D01*
X45143730Y-38678885D01*
X45109500Y-38938872D01*
X42720500Y-38938872D01*
X42720500Y-33529500D01*
X42740185Y-33462461D01*
X42792989Y-33416706D01*
X42844500Y-33405500D01*
X115095500Y-33405500D01*
X115162539Y-33425185D01*
G37*
%TD.AperFunction*%
%TD*%
M02*
