M48
; DRILL file {KiCad 9.0.6} date 2025-11-22T22:33:35-0600
; FORMAT={-:-/ absolute / inch / decimal}
; #@! TF.CreationDate,2025-11-22T22:33:35-06:00
; #@! TF.GenerationSoftware,Kicad,Pcbnew,9.0.6
; #@! TF.FileFunction,Plated,1,2,PTH
FMAT,2
INCH
; #@! TA.AperFunction,Plated,PTH,ComponentDrill
T1C0.0394
; #@! TA.AperFunction,Plated,PTH,ComponentDrill
T2C0.0472
%
G90
G05
T1
X4.6224Y-3.7628
X4.6224Y-3.8628
X4.6224Y-3.9628
X4.6224Y-4.0628
X4.6224Y-4.1628
X4.6224Y-4.2628
T2
G00X4.9764Y-3.8356
M15
G01X5.0315Y-3.8356
M16
G05
G00X4.9764Y-4.0207
M15
G01X5.0315Y-4.0207
M16
G05
G00X4.9764Y-4.2057
M15
G01X5.0315Y-4.2057
M16
G05
G00X5.185Y-3.8356
M15
G01X5.2402Y-3.8356
M16
G05
G00X5.185Y-4.0207
M15
G01X5.2402Y-4.0207
M16
G05
G00X5.185Y-4.2057
M15
G01X5.2402Y-4.2057
M16
G05
G00X5.3937Y-3.8356
M15
G01X5.4488Y-3.8356
M16
G05
G00X5.3937Y-4.0207
M15
G01X5.4488Y-4.0207
M16
G05
G00X5.3937Y-4.2057
M15
G01X5.4488Y-4.2057
M16
G05
M30
