%TF.GenerationSoftware,KiCad,Pcbnew,9.0.5*%
%TF.CreationDate,2025-10-31T17:46:48-05:00*%
%TF.ProjectId,wah,7761682e-6b69-4636-9164-5f7063625858,0.3*%
%TF.SameCoordinates,Original*%
%TF.FileFunction,Legend,Top*%
%TF.FilePolarity,Positive*%
%FSLAX46Y46*%
G04 Gerber Fmt 4.6, Leading zero omitted, Abs format (unit mm)*
G04 Created by KiCad (PCBNEW 9.0.5) date 2025-10-31 17:46:48*
%MOMM*%
%LPD*%
G01*
G04 APERTURE LIST*
G04 Aperture macros list*
%AMRoundRect*
0 Rectangle with rounded corners*
0 $1 Rounding radius*
0 $2 $3 $4 $5 $6 $7 $8 $9 X,Y pos of 4 corners*
0 Add a 4 corners polygon primitive as box body*
4,1,4,$2,$3,$4,$5,$6,$7,$8,$9,$2,$3,0*
0 Add four circle primitives for the rounded corners*
1,1,$1+$1,$2,$3*
1,1,$1+$1,$4,$5*
1,1,$1+$1,$6,$7*
1,1,$1+$1,$8,$9*
0 Add four rect primitives between the rounded corners*
20,1,$1+$1,$2,$3,$4,$5,0*
20,1,$1+$1,$4,$5,$6,$7,0*
20,1,$1+$1,$6,$7,$8,$9,0*
20,1,$1+$1,$8,$9,$2,$3,0*%
G04 Aperture macros list end*
%ADD10C,0.150000*%
%ADD11C,0.100000*%
%ADD12C,0.120000*%
%ADD13C,0.000000*%
%ADD14O,3.000000X3.500000*%
%ADD15RoundRect,0.250000X-0.550000X-0.550000X0.550000X-0.550000X0.550000X0.550000X-0.550000X0.550000X0*%
%ADD16C,1.600000*%
%ADD17R,1.800000X1.800000*%
%ADD18O,1.800000X1.800000*%
%ADD19O,3.580000X2.720000*%
%ADD20O,3.580000X2.696000*%
%ADD21C,1.800000*%
%ADD22R,1.500000X1.500000*%
%ADD23C,1.500000*%
%ADD24C,3.000000*%
%ADD25O,2.300000X4.500000*%
%ADD26O,4.000000X2.300000*%
%ADD27R,1.600000X1.600000*%
%ADD28O,1.600000X1.600000*%
%ADD29R,1.700000X1.700000*%
%ADD30C,1.700000*%
G04 APERTURE END LIST*
D10*
X74298667Y-41494906D02*
X74536762Y-42494906D01*
X74536762Y-42494906D02*
X74727238Y-41780620D01*
X74727238Y-41780620D02*
X74917714Y-42494906D01*
X74917714Y-42494906D02*
X75155810Y-41494906D01*
X75965333Y-42494906D02*
X75965333Y-41971096D01*
X75965333Y-41971096D02*
X75917714Y-41875858D01*
X75917714Y-41875858D02*
X75822476Y-41828239D01*
X75822476Y-41828239D02*
X75632000Y-41828239D01*
X75632000Y-41828239D02*
X75536762Y-41875858D01*
X75965333Y-42447287D02*
X75870095Y-42494906D01*
X75870095Y-42494906D02*
X75632000Y-42494906D01*
X75632000Y-42494906D02*
X75536762Y-42447287D01*
X75536762Y-42447287D02*
X75489143Y-42352048D01*
X75489143Y-42352048D02*
X75489143Y-42256810D01*
X75489143Y-42256810D02*
X75536762Y-42161572D01*
X75536762Y-42161572D02*
X75632000Y-42113953D01*
X75632000Y-42113953D02*
X75870095Y-42113953D01*
X75870095Y-42113953D02*
X75965333Y-42066334D01*
X76441524Y-42494906D02*
X76441524Y-41494906D01*
X76870095Y-42494906D02*
X76870095Y-41971096D01*
X76870095Y-41971096D02*
X76822476Y-41875858D01*
X76822476Y-41875858D02*
X76727238Y-41828239D01*
X76727238Y-41828239D02*
X76584381Y-41828239D01*
X76584381Y-41828239D02*
X76489143Y-41875858D01*
X76489143Y-41875858D02*
X76441524Y-41923477D01*
X71536762Y-43438183D02*
X71774857Y-44104850D01*
X71774857Y-44104850D02*
X72012952Y-43438183D01*
X72774857Y-44057231D02*
X72679619Y-44104850D01*
X72679619Y-44104850D02*
X72489143Y-44104850D01*
X72489143Y-44104850D02*
X72393905Y-44057231D01*
X72393905Y-44057231D02*
X72346286Y-43961992D01*
X72346286Y-43961992D02*
X72346286Y-43581040D01*
X72346286Y-43581040D02*
X72393905Y-43485802D01*
X72393905Y-43485802D02*
X72489143Y-43438183D01*
X72489143Y-43438183D02*
X72679619Y-43438183D01*
X72679619Y-43438183D02*
X72774857Y-43485802D01*
X72774857Y-43485802D02*
X72822476Y-43581040D01*
X72822476Y-43581040D02*
X72822476Y-43676278D01*
X72822476Y-43676278D02*
X72346286Y-43771516D01*
X73251048Y-44104850D02*
X73251048Y-43438183D01*
X73251048Y-43628659D02*
X73298667Y-43533421D01*
X73298667Y-43533421D02*
X73346286Y-43485802D01*
X73346286Y-43485802D02*
X73441524Y-43438183D01*
X73441524Y-43438183D02*
X73536762Y-43438183D01*
X73822477Y-44057231D02*
X73917715Y-44104850D01*
X73917715Y-44104850D02*
X74108191Y-44104850D01*
X74108191Y-44104850D02*
X74203429Y-44057231D01*
X74203429Y-44057231D02*
X74251048Y-43961992D01*
X74251048Y-43961992D02*
X74251048Y-43914373D01*
X74251048Y-43914373D02*
X74203429Y-43819135D01*
X74203429Y-43819135D02*
X74108191Y-43771516D01*
X74108191Y-43771516D02*
X73965334Y-43771516D01*
X73965334Y-43771516D02*
X73870096Y-43723897D01*
X73870096Y-43723897D02*
X73822477Y-43628659D01*
X73822477Y-43628659D02*
X73822477Y-43581040D01*
X73822477Y-43581040D02*
X73870096Y-43485802D01*
X73870096Y-43485802D02*
X73965334Y-43438183D01*
X73965334Y-43438183D02*
X74108191Y-43438183D01*
X74108191Y-43438183D02*
X74203429Y-43485802D01*
X74679620Y-44104850D02*
X74679620Y-43438183D01*
X74679620Y-43104850D02*
X74632001Y-43152469D01*
X74632001Y-43152469D02*
X74679620Y-43200088D01*
X74679620Y-43200088D02*
X74727239Y-43152469D01*
X74727239Y-43152469D02*
X74679620Y-43104850D01*
X74679620Y-43104850D02*
X74679620Y-43200088D01*
X75298667Y-44104850D02*
X75203429Y-44057231D01*
X75203429Y-44057231D02*
X75155810Y-44009611D01*
X75155810Y-44009611D02*
X75108191Y-43914373D01*
X75108191Y-43914373D02*
X75108191Y-43628659D01*
X75108191Y-43628659D02*
X75155810Y-43533421D01*
X75155810Y-43533421D02*
X75203429Y-43485802D01*
X75203429Y-43485802D02*
X75298667Y-43438183D01*
X75298667Y-43438183D02*
X75441524Y-43438183D01*
X75441524Y-43438183D02*
X75536762Y-43485802D01*
X75536762Y-43485802D02*
X75584381Y-43533421D01*
X75584381Y-43533421D02*
X75632000Y-43628659D01*
X75632000Y-43628659D02*
X75632000Y-43914373D01*
X75632000Y-43914373D02*
X75584381Y-44009611D01*
X75584381Y-44009611D02*
X75536762Y-44057231D01*
X75536762Y-44057231D02*
X75441524Y-44104850D01*
X75441524Y-44104850D02*
X75298667Y-44104850D01*
X76060572Y-43438183D02*
X76060572Y-44104850D01*
X76060572Y-43533421D02*
X76108191Y-43485802D01*
X76108191Y-43485802D02*
X76203429Y-43438183D01*
X76203429Y-43438183D02*
X76346286Y-43438183D01*
X76346286Y-43438183D02*
X76441524Y-43485802D01*
X76441524Y-43485802D02*
X76489143Y-43581040D01*
X76489143Y-43581040D02*
X76489143Y-44104850D01*
X77917715Y-43104850D02*
X78012953Y-43104850D01*
X78012953Y-43104850D02*
X78108191Y-43152469D01*
X78108191Y-43152469D02*
X78155810Y-43200088D01*
X78155810Y-43200088D02*
X78203429Y-43295326D01*
X78203429Y-43295326D02*
X78251048Y-43485802D01*
X78251048Y-43485802D02*
X78251048Y-43723897D01*
X78251048Y-43723897D02*
X78203429Y-43914373D01*
X78203429Y-43914373D02*
X78155810Y-44009611D01*
X78155810Y-44009611D02*
X78108191Y-44057231D01*
X78108191Y-44057231D02*
X78012953Y-44104850D01*
X78012953Y-44104850D02*
X77917715Y-44104850D01*
X77917715Y-44104850D02*
X77822477Y-44057231D01*
X77822477Y-44057231D02*
X77774858Y-44009611D01*
X77774858Y-44009611D02*
X77727239Y-43914373D01*
X77727239Y-43914373D02*
X77679620Y-43723897D01*
X77679620Y-43723897D02*
X77679620Y-43485802D01*
X77679620Y-43485802D02*
X77727239Y-43295326D01*
X77727239Y-43295326D02*
X77774858Y-43200088D01*
X77774858Y-43200088D02*
X77822477Y-43152469D01*
X77822477Y-43152469D02*
X77917715Y-43104850D01*
X78679620Y-44009611D02*
X78727239Y-44057231D01*
X78727239Y-44057231D02*
X78679620Y-44104850D01*
X78679620Y-44104850D02*
X78632001Y-44057231D01*
X78632001Y-44057231D02*
X78679620Y-44009611D01*
X78679620Y-44009611D02*
X78679620Y-44104850D01*
X79060572Y-43104850D02*
X79679619Y-43104850D01*
X79679619Y-43104850D02*
X79346286Y-43485802D01*
X79346286Y-43485802D02*
X79489143Y-43485802D01*
X79489143Y-43485802D02*
X79584381Y-43533421D01*
X79584381Y-43533421D02*
X79632000Y-43581040D01*
X79632000Y-43581040D02*
X79679619Y-43676278D01*
X79679619Y-43676278D02*
X79679619Y-43914373D01*
X79679619Y-43914373D02*
X79632000Y-44009611D01*
X79632000Y-44009611D02*
X79584381Y-44057231D01*
X79584381Y-44057231D02*
X79489143Y-44104850D01*
X79489143Y-44104850D02*
X79203429Y-44104850D01*
X79203429Y-44104850D02*
X79108191Y-44057231D01*
X79108191Y-44057231D02*
X79060572Y-44009611D01*
D11*
X111229360Y-85519219D02*
X111419836Y-85519219D01*
X111419836Y-85519219D02*
X111515074Y-85566838D01*
X111515074Y-85566838D02*
X111610312Y-85662076D01*
X111610312Y-85662076D02*
X111657931Y-85852552D01*
X111657931Y-85852552D02*
X111657931Y-86185885D01*
X111657931Y-86185885D02*
X111610312Y-86376361D01*
X111610312Y-86376361D02*
X111515074Y-86471600D01*
X111515074Y-86471600D02*
X111419836Y-86519219D01*
X111419836Y-86519219D02*
X111229360Y-86519219D01*
X111229360Y-86519219D02*
X111134122Y-86471600D01*
X111134122Y-86471600D02*
X111038884Y-86376361D01*
X111038884Y-86376361D02*
X110991265Y-86185885D01*
X110991265Y-86185885D02*
X110991265Y-85852552D01*
X110991265Y-85852552D02*
X111038884Y-85662076D01*
X111038884Y-85662076D02*
X111134122Y-85566838D01*
X111134122Y-85566838D02*
X111229360Y-85519219D01*
X112515074Y-85852552D02*
X112515074Y-86519219D01*
X112086503Y-85852552D02*
X112086503Y-86376361D01*
X112086503Y-86376361D02*
X112134122Y-86471600D01*
X112134122Y-86471600D02*
X112229360Y-86519219D01*
X112229360Y-86519219D02*
X112372217Y-86519219D01*
X112372217Y-86519219D02*
X112467455Y-86471600D01*
X112467455Y-86471600D02*
X112515074Y-86423980D01*
X112848408Y-85852552D02*
X113229360Y-85852552D01*
X112991265Y-85519219D02*
X112991265Y-86376361D01*
X112991265Y-86376361D02*
X113038884Y-86471600D01*
X113038884Y-86471600D02*
X113134122Y-86519219D01*
X113134122Y-86519219D02*
X113229360Y-86519219D01*
X113562694Y-85852552D02*
X113562694Y-86852552D01*
X113562694Y-85900171D02*
X113657932Y-85852552D01*
X113657932Y-85852552D02*
X113848408Y-85852552D01*
X113848408Y-85852552D02*
X113943646Y-85900171D01*
X113943646Y-85900171D02*
X113991265Y-85947790D01*
X113991265Y-85947790D02*
X114038884Y-86043028D01*
X114038884Y-86043028D02*
X114038884Y-86328742D01*
X114038884Y-86328742D02*
X113991265Y-86423980D01*
X113991265Y-86423980D02*
X113943646Y-86471600D01*
X113943646Y-86471600D02*
X113848408Y-86519219D01*
X113848408Y-86519219D02*
X113657932Y-86519219D01*
X113657932Y-86519219D02*
X113562694Y-86471600D01*
X114896027Y-85852552D02*
X114896027Y-86519219D01*
X114467456Y-85852552D02*
X114467456Y-86376361D01*
X114467456Y-86376361D02*
X114515075Y-86471600D01*
X114515075Y-86471600D02*
X114610313Y-86519219D01*
X114610313Y-86519219D02*
X114753170Y-86519219D01*
X114753170Y-86519219D02*
X114848408Y-86471600D01*
X114848408Y-86471600D02*
X114896027Y-86423980D01*
X115229361Y-85852552D02*
X115610313Y-85852552D01*
X115372218Y-85519219D02*
X115372218Y-86376361D01*
X115372218Y-86376361D02*
X115419837Y-86471600D01*
X115419837Y-86471600D02*
X115515075Y-86519219D01*
X115515075Y-86519219D02*
X115610313Y-86519219D01*
X111610313Y-35008019D02*
X111610313Y-34008019D01*
X112086503Y-34341352D02*
X112086503Y-35008019D01*
X112086503Y-34436590D02*
X112134122Y-34388971D01*
X112134122Y-34388971D02*
X112229360Y-34341352D01*
X112229360Y-34341352D02*
X112372217Y-34341352D01*
X112372217Y-34341352D02*
X112467455Y-34388971D01*
X112467455Y-34388971D02*
X112515074Y-34484209D01*
X112515074Y-34484209D02*
X112515074Y-35008019D01*
X112991265Y-34341352D02*
X112991265Y-35341352D01*
X112991265Y-34388971D02*
X113086503Y-34341352D01*
X113086503Y-34341352D02*
X113276979Y-34341352D01*
X113276979Y-34341352D02*
X113372217Y-34388971D01*
X113372217Y-34388971D02*
X113419836Y-34436590D01*
X113419836Y-34436590D02*
X113467455Y-34531828D01*
X113467455Y-34531828D02*
X113467455Y-34817542D01*
X113467455Y-34817542D02*
X113419836Y-34912780D01*
X113419836Y-34912780D02*
X113372217Y-34960400D01*
X113372217Y-34960400D02*
X113276979Y-35008019D01*
X113276979Y-35008019D02*
X113086503Y-35008019D01*
X113086503Y-35008019D02*
X112991265Y-34960400D01*
X114324598Y-34341352D02*
X114324598Y-35008019D01*
X113896027Y-34341352D02*
X113896027Y-34865161D01*
X113896027Y-34865161D02*
X113943646Y-34960400D01*
X113943646Y-34960400D02*
X114038884Y-35008019D01*
X114038884Y-35008019D02*
X114181741Y-35008019D01*
X114181741Y-35008019D02*
X114276979Y-34960400D01*
X114276979Y-34960400D02*
X114324598Y-34912780D01*
X114657932Y-34341352D02*
X115038884Y-34341352D01*
X114800789Y-34008019D02*
X114800789Y-34865161D01*
X114800789Y-34865161D02*
X114848408Y-34960400D01*
X114848408Y-34960400D02*
X114943646Y-35008019D01*
X114943646Y-35008019D02*
X115038884Y-35008019D01*
D10*
X43705180Y-64624636D02*
X43705180Y-64815112D01*
X43705180Y-64815112D02*
X43752800Y-64910350D01*
X43752800Y-64910350D02*
X43800419Y-64957969D01*
X43800419Y-64957969D02*
X43943276Y-65053207D01*
X43943276Y-65053207D02*
X44133752Y-65100826D01*
X44133752Y-65100826D02*
X44514704Y-65100826D01*
X44514704Y-65100826D02*
X44609942Y-65053207D01*
X44609942Y-65053207D02*
X44657561Y-65005588D01*
X44657561Y-65005588D02*
X44705180Y-64910350D01*
X44705180Y-64910350D02*
X44705180Y-64719874D01*
X44705180Y-64719874D02*
X44657561Y-64624636D01*
X44657561Y-64624636D02*
X44609942Y-64577017D01*
X44609942Y-64577017D02*
X44514704Y-64529398D01*
X44514704Y-64529398D02*
X44276609Y-64529398D01*
X44276609Y-64529398D02*
X44181371Y-64577017D01*
X44181371Y-64577017D02*
X44133752Y-64624636D01*
X44133752Y-64624636D02*
X44086133Y-64719874D01*
X44086133Y-64719874D02*
X44086133Y-64910350D01*
X44086133Y-64910350D02*
X44133752Y-65005588D01*
X44133752Y-65005588D02*
X44181371Y-65053207D01*
X44181371Y-65053207D02*
X44276609Y-65100826D01*
X44705180Y-65386541D02*
X43705180Y-65719874D01*
X43705180Y-65719874D02*
X44705180Y-66053207D01*
X75103569Y-75242441D02*
X76103569Y-74909108D01*
X76103569Y-74909108D02*
X75103569Y-74575775D01*
X76103569Y-74242441D02*
X75436902Y-74242441D01*
X75103569Y-74242441D02*
X75151188Y-74290060D01*
X75151188Y-74290060D02*
X75198807Y-74242441D01*
X75198807Y-74242441D02*
X75151188Y-74194822D01*
X75151188Y-74194822D02*
X75103569Y-74242441D01*
X75103569Y-74242441D02*
X75198807Y-74242441D01*
X75436902Y-73766251D02*
X76103569Y-73766251D01*
X75532140Y-73766251D02*
X75484521Y-73718632D01*
X75484521Y-73718632D02*
X75436902Y-73623394D01*
X75436902Y-73623394D02*
X75436902Y-73480537D01*
X75436902Y-73480537D02*
X75484521Y-73385299D01*
X75484521Y-73385299D02*
X75579759Y-73337680D01*
X75579759Y-73337680D02*
X76103569Y-73337680D01*
X75436902Y-73004346D02*
X75436902Y-72623394D01*
X75103569Y-72861489D02*
X75960711Y-72861489D01*
X75960711Y-72861489D02*
X76055950Y-72813870D01*
X76055950Y-72813870D02*
X76103569Y-72718632D01*
X76103569Y-72718632D02*
X76103569Y-72623394D01*
X76103569Y-71861489D02*
X75579759Y-71861489D01*
X75579759Y-71861489D02*
X75484521Y-71909108D01*
X75484521Y-71909108D02*
X75436902Y-72004346D01*
X75436902Y-72004346D02*
X75436902Y-72194822D01*
X75436902Y-72194822D02*
X75484521Y-72290060D01*
X76055950Y-71861489D02*
X76103569Y-71956727D01*
X76103569Y-71956727D02*
X76103569Y-72194822D01*
X76103569Y-72194822D02*
X76055950Y-72290060D01*
X76055950Y-72290060D02*
X75960711Y-72337679D01*
X75960711Y-72337679D02*
X75865473Y-72337679D01*
X75865473Y-72337679D02*
X75770235Y-72290060D01*
X75770235Y-72290060D02*
X75722616Y-72194822D01*
X75722616Y-72194822D02*
X75722616Y-71956727D01*
X75722616Y-71956727D02*
X75674997Y-71861489D01*
X75436902Y-70956727D02*
X76246426Y-70956727D01*
X76246426Y-70956727D02*
X76341664Y-71004346D01*
X76341664Y-71004346D02*
X76389283Y-71051965D01*
X76389283Y-71051965D02*
X76436902Y-71147203D01*
X76436902Y-71147203D02*
X76436902Y-71290060D01*
X76436902Y-71290060D02*
X76389283Y-71385298D01*
X76055950Y-70956727D02*
X76103569Y-71051965D01*
X76103569Y-71051965D02*
X76103569Y-71242441D01*
X76103569Y-71242441D02*
X76055950Y-71337679D01*
X76055950Y-71337679D02*
X76008330Y-71385298D01*
X76008330Y-71385298D02*
X75913092Y-71432917D01*
X75913092Y-71432917D02*
X75627378Y-71432917D01*
X75627378Y-71432917D02*
X75532140Y-71385298D01*
X75532140Y-71385298D02*
X75484521Y-71337679D01*
X75484521Y-71337679D02*
X75436902Y-71242441D01*
X75436902Y-71242441D02*
X75436902Y-71051965D01*
X75436902Y-71051965D02*
X75484521Y-70956727D01*
X76055950Y-70099584D02*
X76103569Y-70194822D01*
X76103569Y-70194822D02*
X76103569Y-70385298D01*
X76103569Y-70385298D02*
X76055950Y-70480536D01*
X76055950Y-70480536D02*
X75960711Y-70528155D01*
X75960711Y-70528155D02*
X75579759Y-70528155D01*
X75579759Y-70528155D02*
X75484521Y-70480536D01*
X75484521Y-70480536D02*
X75436902Y-70385298D01*
X75436902Y-70385298D02*
X75436902Y-70194822D01*
X75436902Y-70194822D02*
X75484521Y-70099584D01*
X75484521Y-70099584D02*
X75579759Y-70051965D01*
X75579759Y-70051965D02*
X75674997Y-70051965D01*
X75674997Y-70051965D02*
X75770235Y-70528155D01*
X76103569Y-68337679D02*
X76103569Y-68909107D01*
X76103569Y-68623393D02*
X75103569Y-68623393D01*
X75103569Y-68623393D02*
X75246426Y-68718631D01*
X75246426Y-68718631D02*
X75341664Y-68813869D01*
X75341664Y-68813869D02*
X75389283Y-68909107D01*
X76103569Y-67861488D02*
X76103569Y-67671012D01*
X76103569Y-67671012D02*
X76055950Y-67575774D01*
X76055950Y-67575774D02*
X76008330Y-67528155D01*
X76008330Y-67528155D02*
X75865473Y-67432917D01*
X75865473Y-67432917D02*
X75674997Y-67385298D01*
X75674997Y-67385298D02*
X75294045Y-67385298D01*
X75294045Y-67385298D02*
X75198807Y-67432917D01*
X75198807Y-67432917D02*
X75151188Y-67480536D01*
X75151188Y-67480536D02*
X75103569Y-67575774D01*
X75103569Y-67575774D02*
X75103569Y-67766250D01*
X75103569Y-67766250D02*
X75151188Y-67861488D01*
X75151188Y-67861488D02*
X75198807Y-67909107D01*
X75198807Y-67909107D02*
X75294045Y-67956726D01*
X75294045Y-67956726D02*
X75532140Y-67956726D01*
X75532140Y-67956726D02*
X75627378Y-67909107D01*
X75627378Y-67909107D02*
X75674997Y-67861488D01*
X75674997Y-67861488D02*
X75722616Y-67766250D01*
X75722616Y-67766250D02*
X75722616Y-67575774D01*
X75722616Y-67575774D02*
X75674997Y-67480536D01*
X75674997Y-67480536D02*
X75627378Y-67432917D01*
X75627378Y-67432917D02*
X75532140Y-67385298D01*
X75103569Y-66480536D02*
X75103569Y-66956726D01*
X75103569Y-66956726D02*
X75579759Y-67004345D01*
X75579759Y-67004345D02*
X75532140Y-66956726D01*
X75532140Y-66956726D02*
X75484521Y-66861488D01*
X75484521Y-66861488D02*
X75484521Y-66623393D01*
X75484521Y-66623393D02*
X75532140Y-66528155D01*
X75532140Y-66528155D02*
X75579759Y-66480536D01*
X75579759Y-66480536D02*
X75674997Y-66432917D01*
X75674997Y-66432917D02*
X75913092Y-66432917D01*
X75913092Y-66432917D02*
X76008330Y-66480536D01*
X76008330Y-66480536D02*
X76055950Y-66528155D01*
X76055950Y-66528155D02*
X76103569Y-66623393D01*
X76103569Y-66623393D02*
X76103569Y-66861488D01*
X76103569Y-66861488D02*
X76055950Y-66956726D01*
X76055950Y-66956726D02*
X76008330Y-67004345D01*
X76103569Y-65480536D02*
X76103569Y-66051964D01*
X76103569Y-65766250D02*
X75103569Y-65766250D01*
X75103569Y-65766250D02*
X75246426Y-65861488D01*
X75246426Y-65861488D02*
X75341664Y-65956726D01*
X75341664Y-65956726D02*
X75389283Y-66051964D01*
X76103569Y-64290059D02*
X75103569Y-64290059D01*
X75103569Y-64290059D02*
X76103569Y-63718631D01*
X76103569Y-63718631D02*
X75103569Y-63718631D01*
X75103569Y-63051964D02*
X75103569Y-62861488D01*
X75103569Y-62861488D02*
X75151188Y-62766250D01*
X75151188Y-62766250D02*
X75246426Y-62671012D01*
X75246426Y-62671012D02*
X75436902Y-62623393D01*
X75436902Y-62623393D02*
X75770235Y-62623393D01*
X75770235Y-62623393D02*
X75960711Y-62671012D01*
X75960711Y-62671012D02*
X76055950Y-62766250D01*
X76055950Y-62766250D02*
X76103569Y-62861488D01*
X76103569Y-62861488D02*
X76103569Y-63051964D01*
X76103569Y-63051964D02*
X76055950Y-63147202D01*
X76055950Y-63147202D02*
X75960711Y-63242440D01*
X75960711Y-63242440D02*
X75770235Y-63290059D01*
X75770235Y-63290059D02*
X75436902Y-63290059D01*
X75436902Y-63290059D02*
X75246426Y-63242440D01*
X75246426Y-63242440D02*
X75151188Y-63147202D01*
X75151188Y-63147202D02*
X75103569Y-63051964D01*
X76055950Y-62242440D02*
X76103569Y-62099583D01*
X76103569Y-62099583D02*
X76103569Y-61861488D01*
X76103569Y-61861488D02*
X76055950Y-61766250D01*
X76055950Y-61766250D02*
X76008330Y-61718631D01*
X76008330Y-61718631D02*
X75913092Y-61671012D01*
X75913092Y-61671012D02*
X75817854Y-61671012D01*
X75817854Y-61671012D02*
X75722616Y-61718631D01*
X75722616Y-61718631D02*
X75674997Y-61766250D01*
X75674997Y-61766250D02*
X75627378Y-61861488D01*
X75627378Y-61861488D02*
X75579759Y-62051964D01*
X75579759Y-62051964D02*
X75532140Y-62147202D01*
X75532140Y-62147202D02*
X75484521Y-62194821D01*
X75484521Y-62194821D02*
X75389283Y-62242440D01*
X75389283Y-62242440D02*
X75294045Y-62242440D01*
X75294045Y-62242440D02*
X75198807Y-62194821D01*
X75198807Y-62194821D02*
X75151188Y-62147202D01*
X75151188Y-62147202D02*
X75103569Y-62051964D01*
X75103569Y-62051964D02*
X75103569Y-61813869D01*
X75103569Y-61813869D02*
X75151188Y-61671012D01*
X75579759Y-60480535D02*
X75579759Y-60147202D01*
X76103569Y-60004345D02*
X76103569Y-60480535D01*
X76103569Y-60480535D02*
X75103569Y-60480535D01*
X75103569Y-60480535D02*
X75103569Y-60004345D01*
X76103569Y-59432916D02*
X76055950Y-59528154D01*
X76055950Y-59528154D02*
X75960711Y-59575773D01*
X75960711Y-59575773D02*
X75103569Y-59575773D01*
X76055950Y-58671011D02*
X76103569Y-58766249D01*
X76103569Y-58766249D02*
X76103569Y-58956725D01*
X76103569Y-58956725D02*
X76055950Y-59051963D01*
X76055950Y-59051963D02*
X75960711Y-59099582D01*
X75960711Y-59099582D02*
X75579759Y-59099582D01*
X75579759Y-59099582D02*
X75484521Y-59051963D01*
X75484521Y-59051963D02*
X75436902Y-58956725D01*
X75436902Y-58956725D02*
X75436902Y-58766249D01*
X75436902Y-58766249D02*
X75484521Y-58671011D01*
X75484521Y-58671011D02*
X75579759Y-58623392D01*
X75579759Y-58623392D02*
X75674997Y-58623392D01*
X75674997Y-58623392D02*
X75770235Y-59099582D01*
X76055950Y-57766249D02*
X76103569Y-57861487D01*
X76103569Y-57861487D02*
X76103569Y-58051963D01*
X76103569Y-58051963D02*
X76055950Y-58147201D01*
X76055950Y-58147201D02*
X76008330Y-58194820D01*
X76008330Y-58194820D02*
X75913092Y-58242439D01*
X75913092Y-58242439D02*
X75627378Y-58242439D01*
X75627378Y-58242439D02*
X75532140Y-58194820D01*
X75532140Y-58194820D02*
X75484521Y-58147201D01*
X75484521Y-58147201D02*
X75436902Y-58051963D01*
X75436902Y-58051963D02*
X75436902Y-57861487D01*
X75436902Y-57861487D02*
X75484521Y-57766249D01*
X75436902Y-57480534D02*
X75436902Y-57099582D01*
X75103569Y-57337677D02*
X75960711Y-57337677D01*
X75960711Y-57337677D02*
X76055950Y-57290058D01*
X76055950Y-57290058D02*
X76103569Y-57194820D01*
X76103569Y-57194820D02*
X76103569Y-57099582D01*
X76103569Y-56766248D02*
X75436902Y-56766248D01*
X75627378Y-56766248D02*
X75532140Y-56718629D01*
X75532140Y-56718629D02*
X75484521Y-56671010D01*
X75484521Y-56671010D02*
X75436902Y-56575772D01*
X75436902Y-56575772D02*
X75436902Y-56480534D01*
X76103569Y-56004343D02*
X76055950Y-56099581D01*
X76055950Y-56099581D02*
X76008330Y-56147200D01*
X76008330Y-56147200D02*
X75913092Y-56194819D01*
X75913092Y-56194819D02*
X75627378Y-56194819D01*
X75627378Y-56194819D02*
X75532140Y-56147200D01*
X75532140Y-56147200D02*
X75484521Y-56099581D01*
X75484521Y-56099581D02*
X75436902Y-56004343D01*
X75436902Y-56004343D02*
X75436902Y-55861486D01*
X75436902Y-55861486D02*
X75484521Y-55766248D01*
X75484521Y-55766248D02*
X75532140Y-55718629D01*
X75532140Y-55718629D02*
X75627378Y-55671010D01*
X75627378Y-55671010D02*
X75913092Y-55671010D01*
X75913092Y-55671010D02*
X76008330Y-55718629D01*
X76008330Y-55718629D02*
X76055950Y-55766248D01*
X76055950Y-55766248D02*
X76103569Y-55861486D01*
X76103569Y-55861486D02*
X76103569Y-56004343D01*
X76055950Y-55290057D02*
X76103569Y-55147200D01*
X76103569Y-55147200D02*
X76103569Y-54909105D01*
X76103569Y-54909105D02*
X76055950Y-54813867D01*
X76055950Y-54813867D02*
X76008330Y-54766248D01*
X76008330Y-54766248D02*
X75913092Y-54718629D01*
X75913092Y-54718629D02*
X75817854Y-54718629D01*
X75817854Y-54718629D02*
X75722616Y-54766248D01*
X75722616Y-54766248D02*
X75674997Y-54813867D01*
X75674997Y-54813867D02*
X75627378Y-54909105D01*
X75627378Y-54909105D02*
X75579759Y-55099581D01*
X75579759Y-55099581D02*
X75532140Y-55194819D01*
X75532140Y-55194819D02*
X75484521Y-55242438D01*
X75484521Y-55242438D02*
X75389283Y-55290057D01*
X75389283Y-55290057D02*
X75294045Y-55290057D01*
X75294045Y-55290057D02*
X75198807Y-55242438D01*
X75198807Y-55242438D02*
X75151188Y-55194819D01*
X75151188Y-55194819D02*
X75103569Y-55099581D01*
X75103569Y-55099581D02*
X75103569Y-54861486D01*
X75103569Y-54861486D02*
X75151188Y-54718629D01*
X76103569Y-54290057D02*
X75436902Y-54290057D01*
X75532140Y-54290057D02*
X75484521Y-54242438D01*
X75484521Y-54242438D02*
X75436902Y-54147200D01*
X75436902Y-54147200D02*
X75436902Y-54004343D01*
X75436902Y-54004343D02*
X75484521Y-53909105D01*
X75484521Y-53909105D02*
X75579759Y-53861486D01*
X75579759Y-53861486D02*
X76103569Y-53861486D01*
X75579759Y-53861486D02*
X75484521Y-53813867D01*
X75484521Y-53813867D02*
X75436902Y-53718629D01*
X75436902Y-53718629D02*
X75436902Y-53575772D01*
X75436902Y-53575772D02*
X75484521Y-53480533D01*
X75484521Y-53480533D02*
X75579759Y-53432914D01*
X75579759Y-53432914D02*
X76103569Y-53432914D01*
X76103569Y-52956724D02*
X75436902Y-52956724D01*
X75103569Y-52956724D02*
X75151188Y-53004343D01*
X75151188Y-53004343D02*
X75198807Y-52956724D01*
X75198807Y-52956724D02*
X75151188Y-52909105D01*
X75151188Y-52909105D02*
X75103569Y-52956724D01*
X75103569Y-52956724D02*
X75198807Y-52956724D01*
X75436902Y-52623391D02*
X75436902Y-52242439D01*
X75103569Y-52480534D02*
X75960711Y-52480534D01*
X75960711Y-52480534D02*
X76055950Y-52432915D01*
X76055950Y-52432915D02*
X76103569Y-52337677D01*
X76103569Y-52337677D02*
X76103569Y-52242439D01*
X76103569Y-51909105D02*
X75103569Y-51909105D01*
X76103569Y-51480534D02*
X75579759Y-51480534D01*
X75579759Y-51480534D02*
X75484521Y-51528153D01*
X75484521Y-51528153D02*
X75436902Y-51623391D01*
X75436902Y-51623391D02*
X75436902Y-51766248D01*
X75436902Y-51766248D02*
X75484521Y-51861486D01*
X75484521Y-51861486D02*
X75532140Y-51909105D01*
X76103569Y-50242438D02*
X75103569Y-50242438D01*
X75103569Y-50242438D02*
X75103569Y-50004343D01*
X75103569Y-50004343D02*
X75151188Y-49861486D01*
X75151188Y-49861486D02*
X75246426Y-49766248D01*
X75246426Y-49766248D02*
X75341664Y-49718629D01*
X75341664Y-49718629D02*
X75532140Y-49671010D01*
X75532140Y-49671010D02*
X75674997Y-49671010D01*
X75674997Y-49671010D02*
X75865473Y-49718629D01*
X75865473Y-49718629D02*
X75960711Y-49766248D01*
X75960711Y-49766248D02*
X76055950Y-49861486D01*
X76055950Y-49861486D02*
X76103569Y-50004343D01*
X76103569Y-50004343D02*
X76103569Y-50242438D01*
X76103569Y-48813867D02*
X75579759Y-48813867D01*
X75579759Y-48813867D02*
X75484521Y-48861486D01*
X75484521Y-48861486D02*
X75436902Y-48956724D01*
X75436902Y-48956724D02*
X75436902Y-49147200D01*
X75436902Y-49147200D02*
X75484521Y-49242438D01*
X76055950Y-48813867D02*
X76103569Y-48909105D01*
X76103569Y-48909105D02*
X76103569Y-49147200D01*
X76103569Y-49147200D02*
X76055950Y-49242438D01*
X76055950Y-49242438D02*
X75960711Y-49290057D01*
X75960711Y-49290057D02*
X75865473Y-49290057D01*
X75865473Y-49290057D02*
X75770235Y-49242438D01*
X75770235Y-49242438D02*
X75722616Y-49147200D01*
X75722616Y-49147200D02*
X75722616Y-48909105D01*
X75722616Y-48909105D02*
X75674997Y-48813867D01*
X76103569Y-48337676D02*
X75436902Y-48337676D01*
X75103569Y-48337676D02*
X75151188Y-48385295D01*
X75151188Y-48385295D02*
X75198807Y-48337676D01*
X75198807Y-48337676D02*
X75151188Y-48290057D01*
X75151188Y-48290057D02*
X75103569Y-48337676D01*
X75103569Y-48337676D02*
X75198807Y-48337676D01*
X76055950Y-47909105D02*
X76103569Y-47813867D01*
X76103569Y-47813867D02*
X76103569Y-47623391D01*
X76103569Y-47623391D02*
X76055950Y-47528153D01*
X76055950Y-47528153D02*
X75960711Y-47480534D01*
X75960711Y-47480534D02*
X75913092Y-47480534D01*
X75913092Y-47480534D02*
X75817854Y-47528153D01*
X75817854Y-47528153D02*
X75770235Y-47623391D01*
X75770235Y-47623391D02*
X75770235Y-47766248D01*
X75770235Y-47766248D02*
X75722616Y-47861486D01*
X75722616Y-47861486D02*
X75627378Y-47909105D01*
X75627378Y-47909105D02*
X75579759Y-47909105D01*
X75579759Y-47909105D02*
X75484521Y-47861486D01*
X75484521Y-47861486D02*
X75436902Y-47766248D01*
X75436902Y-47766248D02*
X75436902Y-47623391D01*
X75436902Y-47623391D02*
X75484521Y-47528153D01*
X75436902Y-47147200D02*
X76103569Y-46909105D01*
X75436902Y-46671010D02*
X76103569Y-46909105D01*
X76103569Y-46909105D02*
X76341664Y-47004343D01*
X76341664Y-47004343D02*
X76389283Y-47051962D01*
X76389283Y-47051962D02*
X76436902Y-47147200D01*
X53557142Y-75294580D02*
X53509523Y-75342200D01*
X53509523Y-75342200D02*
X53366666Y-75389819D01*
X53366666Y-75389819D02*
X53271428Y-75389819D01*
X53271428Y-75389819D02*
X53128571Y-75342200D01*
X53128571Y-75342200D02*
X53033333Y-75246961D01*
X53033333Y-75246961D02*
X52985714Y-75151723D01*
X52985714Y-75151723D02*
X52938095Y-74961247D01*
X52938095Y-74961247D02*
X52938095Y-74818390D01*
X52938095Y-74818390D02*
X52985714Y-74627914D01*
X52985714Y-74627914D02*
X53033333Y-74532676D01*
X53033333Y-74532676D02*
X53128571Y-74437438D01*
X53128571Y-74437438D02*
X53271428Y-74389819D01*
X53271428Y-74389819D02*
X53366666Y-74389819D01*
X53366666Y-74389819D02*
X53509523Y-74437438D01*
X53509523Y-74437438D02*
X53557142Y-74485057D01*
X54509523Y-75389819D02*
X53938095Y-75389819D01*
X54223809Y-75389819D02*
X54223809Y-74389819D01*
X54223809Y-74389819D02*
X54128571Y-74532676D01*
X54128571Y-74532676D02*
X54033333Y-74627914D01*
X54033333Y-74627914D02*
X53938095Y-74675533D01*
X54842857Y-74389819D02*
X55461904Y-74389819D01*
X55461904Y-74389819D02*
X55128571Y-74770771D01*
X55128571Y-74770771D02*
X55271428Y-74770771D01*
X55271428Y-74770771D02*
X55366666Y-74818390D01*
X55366666Y-74818390D02*
X55414285Y-74866009D01*
X55414285Y-74866009D02*
X55461904Y-74961247D01*
X55461904Y-74961247D02*
X55461904Y-75199342D01*
X55461904Y-75199342D02*
X55414285Y-75294580D01*
X55414285Y-75294580D02*
X55366666Y-75342200D01*
X55366666Y-75342200D02*
X55271428Y-75389819D01*
X55271428Y-75389819D02*
X54985714Y-75389819D01*
X54985714Y-75389819D02*
X54890476Y-75342200D01*
X54890476Y-75342200D02*
X54842857Y-75294580D01*
X53733333Y-83694580D02*
X53685714Y-83742200D01*
X53685714Y-83742200D02*
X53542857Y-83789819D01*
X53542857Y-83789819D02*
X53447619Y-83789819D01*
X53447619Y-83789819D02*
X53304762Y-83742200D01*
X53304762Y-83742200D02*
X53209524Y-83646961D01*
X53209524Y-83646961D02*
X53161905Y-83551723D01*
X53161905Y-83551723D02*
X53114286Y-83361247D01*
X53114286Y-83361247D02*
X53114286Y-83218390D01*
X53114286Y-83218390D02*
X53161905Y-83027914D01*
X53161905Y-83027914D02*
X53209524Y-82932676D01*
X53209524Y-82932676D02*
X53304762Y-82837438D01*
X53304762Y-82837438D02*
X53447619Y-82789819D01*
X53447619Y-82789819D02*
X53542857Y-82789819D01*
X53542857Y-82789819D02*
X53685714Y-82837438D01*
X53685714Y-82837438D02*
X53733333Y-82885057D01*
X54066667Y-82789819D02*
X54685714Y-82789819D01*
X54685714Y-82789819D02*
X54352381Y-83170771D01*
X54352381Y-83170771D02*
X54495238Y-83170771D01*
X54495238Y-83170771D02*
X54590476Y-83218390D01*
X54590476Y-83218390D02*
X54638095Y-83266009D01*
X54638095Y-83266009D02*
X54685714Y-83361247D01*
X54685714Y-83361247D02*
X54685714Y-83599342D01*
X54685714Y-83599342D02*
X54638095Y-83694580D01*
X54638095Y-83694580D02*
X54590476Y-83742200D01*
X54590476Y-83742200D02*
X54495238Y-83789819D01*
X54495238Y-83789819D02*
X54209524Y-83789819D01*
X54209524Y-83789819D02*
X54114286Y-83742200D01*
X54114286Y-83742200D02*
X54066667Y-83694580D01*
X62339819Y-52818094D02*
X61339819Y-52818094D01*
X61339819Y-52818094D02*
X61339819Y-52579999D01*
X61339819Y-52579999D02*
X61387438Y-52437142D01*
X61387438Y-52437142D02*
X61482676Y-52341904D01*
X61482676Y-52341904D02*
X61577914Y-52294285D01*
X61577914Y-52294285D02*
X61768390Y-52246666D01*
X61768390Y-52246666D02*
X61911247Y-52246666D01*
X61911247Y-52246666D02*
X62101723Y-52294285D01*
X62101723Y-52294285D02*
X62196961Y-52341904D01*
X62196961Y-52341904D02*
X62292200Y-52437142D01*
X62292200Y-52437142D02*
X62339819Y-52579999D01*
X62339819Y-52579999D02*
X62339819Y-52818094D01*
X62339819Y-51294285D02*
X62339819Y-51865713D01*
X62339819Y-51579999D02*
X61339819Y-51579999D01*
X61339819Y-51579999D02*
X61482676Y-51675237D01*
X61482676Y-51675237D02*
X61577914Y-51770475D01*
X61577914Y-51770475D02*
X61625533Y-51865713D01*
X64239819Y-48531904D02*
X63239819Y-48531904D01*
X64239819Y-47960476D02*
X63668390Y-48389047D01*
X63239819Y-47960476D02*
X63811247Y-48531904D01*
X89542142Y-79379580D02*
X89494523Y-79427200D01*
X89494523Y-79427200D02*
X89351666Y-79474819D01*
X89351666Y-79474819D02*
X89256428Y-79474819D01*
X89256428Y-79474819D02*
X89113571Y-79427200D01*
X89113571Y-79427200D02*
X89018333Y-79331961D01*
X89018333Y-79331961D02*
X88970714Y-79236723D01*
X88970714Y-79236723D02*
X88923095Y-79046247D01*
X88923095Y-79046247D02*
X88923095Y-78903390D01*
X88923095Y-78903390D02*
X88970714Y-78712914D01*
X88970714Y-78712914D02*
X89018333Y-78617676D01*
X89018333Y-78617676D02*
X89113571Y-78522438D01*
X89113571Y-78522438D02*
X89256428Y-78474819D01*
X89256428Y-78474819D02*
X89351666Y-78474819D01*
X89351666Y-78474819D02*
X89494523Y-78522438D01*
X89494523Y-78522438D02*
X89542142Y-78570057D01*
X90494523Y-79474819D02*
X89923095Y-79474819D01*
X90208809Y-79474819D02*
X90208809Y-78474819D01*
X90208809Y-78474819D02*
X90113571Y-78617676D01*
X90113571Y-78617676D02*
X90018333Y-78712914D01*
X90018333Y-78712914D02*
X89923095Y-78760533D01*
X91446904Y-79474819D02*
X90875476Y-79474819D01*
X91161190Y-79474819D02*
X91161190Y-78474819D01*
X91161190Y-78474819D02*
X91065952Y-78617676D01*
X91065952Y-78617676D02*
X90970714Y-78712914D01*
X90970714Y-78712914D02*
X90875476Y-78760533D01*
X49671819Y-40818743D02*
X49195628Y-41152076D01*
X49671819Y-41390171D02*
X48671819Y-41390171D01*
X48671819Y-41390171D02*
X48671819Y-41009219D01*
X48671819Y-41009219D02*
X48719438Y-40913981D01*
X48719438Y-40913981D02*
X48767057Y-40866362D01*
X48767057Y-40866362D02*
X48862295Y-40818743D01*
X48862295Y-40818743D02*
X49005152Y-40818743D01*
X49005152Y-40818743D02*
X49100390Y-40866362D01*
X49100390Y-40866362D02*
X49148009Y-40913981D01*
X49148009Y-40913981D02*
X49195628Y-41009219D01*
X49195628Y-41009219D02*
X49195628Y-41390171D01*
X48671819Y-40533028D02*
X49671819Y-40199695D01*
X49671819Y-40199695D02*
X48671819Y-39866362D01*
X48767057Y-39580647D02*
X48719438Y-39533028D01*
X48719438Y-39533028D02*
X48671819Y-39437790D01*
X48671819Y-39437790D02*
X48671819Y-39199695D01*
X48671819Y-39199695D02*
X48719438Y-39104457D01*
X48719438Y-39104457D02*
X48767057Y-39056838D01*
X48767057Y-39056838D02*
X48862295Y-39009219D01*
X48862295Y-39009219D02*
X48957533Y-39009219D01*
X48957533Y-39009219D02*
X49100390Y-39056838D01*
X49100390Y-39056838D02*
X49671819Y-39628266D01*
X49671819Y-39628266D02*
X49671819Y-39009219D01*
X91018333Y-56729580D02*
X90970714Y-56777200D01*
X90970714Y-56777200D02*
X90827857Y-56824819D01*
X90827857Y-56824819D02*
X90732619Y-56824819D01*
X90732619Y-56824819D02*
X90589762Y-56777200D01*
X90589762Y-56777200D02*
X90494524Y-56681961D01*
X90494524Y-56681961D02*
X90446905Y-56586723D01*
X90446905Y-56586723D02*
X90399286Y-56396247D01*
X90399286Y-56396247D02*
X90399286Y-56253390D01*
X90399286Y-56253390D02*
X90446905Y-56062914D01*
X90446905Y-56062914D02*
X90494524Y-55967676D01*
X90494524Y-55967676D02*
X90589762Y-55872438D01*
X90589762Y-55872438D02*
X90732619Y-55824819D01*
X90732619Y-55824819D02*
X90827857Y-55824819D01*
X90827857Y-55824819D02*
X90970714Y-55872438D01*
X90970714Y-55872438D02*
X91018333Y-55920057D01*
X91875476Y-55824819D02*
X91685000Y-55824819D01*
X91685000Y-55824819D02*
X91589762Y-55872438D01*
X91589762Y-55872438D02*
X91542143Y-55920057D01*
X91542143Y-55920057D02*
X91446905Y-56062914D01*
X91446905Y-56062914D02*
X91399286Y-56253390D01*
X91399286Y-56253390D02*
X91399286Y-56634342D01*
X91399286Y-56634342D02*
X91446905Y-56729580D01*
X91446905Y-56729580D02*
X91494524Y-56777200D01*
X91494524Y-56777200D02*
X91589762Y-56824819D01*
X91589762Y-56824819D02*
X91780238Y-56824819D01*
X91780238Y-56824819D02*
X91875476Y-56777200D01*
X91875476Y-56777200D02*
X91923095Y-56729580D01*
X91923095Y-56729580D02*
X91970714Y-56634342D01*
X91970714Y-56634342D02*
X91970714Y-56396247D01*
X91970714Y-56396247D02*
X91923095Y-56301009D01*
X91923095Y-56301009D02*
X91875476Y-56253390D01*
X91875476Y-56253390D02*
X91780238Y-56205771D01*
X91780238Y-56205771D02*
X91589762Y-56205771D01*
X91589762Y-56205771D02*
X91494524Y-56253390D01*
X91494524Y-56253390D02*
X91446905Y-56301009D01*
X91446905Y-56301009D02*
X91399286Y-56396247D01*
X139087438Y-79608095D02*
X139039819Y-79703333D01*
X139039819Y-79703333D02*
X139039819Y-79846190D01*
X139039819Y-79846190D02*
X139087438Y-79989047D01*
X139087438Y-79989047D02*
X139182676Y-80084285D01*
X139182676Y-80084285D02*
X139277914Y-80131904D01*
X139277914Y-80131904D02*
X139468390Y-80179523D01*
X139468390Y-80179523D02*
X139611247Y-80179523D01*
X139611247Y-80179523D02*
X139801723Y-80131904D01*
X139801723Y-80131904D02*
X139896961Y-80084285D01*
X139896961Y-80084285D02*
X139992200Y-79989047D01*
X139992200Y-79989047D02*
X140039819Y-79846190D01*
X140039819Y-79846190D02*
X140039819Y-79750952D01*
X140039819Y-79750952D02*
X139992200Y-79608095D01*
X139992200Y-79608095D02*
X139944580Y-79560476D01*
X139944580Y-79560476D02*
X139611247Y-79560476D01*
X139611247Y-79560476D02*
X139611247Y-79750952D01*
X140039819Y-79131904D02*
X139039819Y-79131904D01*
X139039819Y-79131904D02*
X140039819Y-78560476D01*
X140039819Y-78560476D02*
X139039819Y-78560476D01*
X140039819Y-78084285D02*
X139039819Y-78084285D01*
X139039819Y-78084285D02*
X139039819Y-77846190D01*
X139039819Y-77846190D02*
X139087438Y-77703333D01*
X139087438Y-77703333D02*
X139182676Y-77608095D01*
X139182676Y-77608095D02*
X139277914Y-77560476D01*
X139277914Y-77560476D02*
X139468390Y-77512857D01*
X139468390Y-77512857D02*
X139611247Y-77512857D01*
X139611247Y-77512857D02*
X139801723Y-77560476D01*
X139801723Y-77560476D02*
X139896961Y-77608095D01*
X139896961Y-77608095D02*
X139992200Y-77703333D01*
X139992200Y-77703333D02*
X140039819Y-77846190D01*
X140039819Y-77846190D02*
X140039819Y-78084285D01*
X140039819Y-76560476D02*
X140039819Y-77131904D01*
X140039819Y-76846190D02*
X139039819Y-76846190D01*
X139039819Y-76846190D02*
X139182676Y-76941428D01*
X139182676Y-76941428D02*
X139277914Y-77036666D01*
X139277914Y-77036666D02*
X139325533Y-77131904D01*
X60239819Y-40336666D02*
X59763628Y-40669999D01*
X60239819Y-40908094D02*
X59239819Y-40908094D01*
X59239819Y-40908094D02*
X59239819Y-40527142D01*
X59239819Y-40527142D02*
X59287438Y-40431904D01*
X59287438Y-40431904D02*
X59335057Y-40384285D01*
X59335057Y-40384285D02*
X59430295Y-40336666D01*
X59430295Y-40336666D02*
X59573152Y-40336666D01*
X59573152Y-40336666D02*
X59668390Y-40384285D01*
X59668390Y-40384285D02*
X59716009Y-40431904D01*
X59716009Y-40431904D02*
X59763628Y-40527142D01*
X59763628Y-40527142D02*
X59763628Y-40908094D01*
X59239819Y-39479523D02*
X59239819Y-39669999D01*
X59239819Y-39669999D02*
X59287438Y-39765237D01*
X59287438Y-39765237D02*
X59335057Y-39812856D01*
X59335057Y-39812856D02*
X59477914Y-39908094D01*
X59477914Y-39908094D02*
X59668390Y-39955713D01*
X59668390Y-39955713D02*
X60049342Y-39955713D01*
X60049342Y-39955713D02*
X60144580Y-39908094D01*
X60144580Y-39908094D02*
X60192200Y-39860475D01*
X60192200Y-39860475D02*
X60239819Y-39765237D01*
X60239819Y-39765237D02*
X60239819Y-39574761D01*
X60239819Y-39574761D02*
X60192200Y-39479523D01*
X60192200Y-39479523D02*
X60144580Y-39431904D01*
X60144580Y-39431904D02*
X60049342Y-39384285D01*
X60049342Y-39384285D02*
X59811247Y-39384285D01*
X59811247Y-39384285D02*
X59716009Y-39431904D01*
X59716009Y-39431904D02*
X59668390Y-39479523D01*
X59668390Y-39479523D02*
X59620771Y-39574761D01*
X59620771Y-39574761D02*
X59620771Y-39765237D01*
X59620771Y-39765237D02*
X59668390Y-39860475D01*
X59668390Y-39860475D02*
X59716009Y-39908094D01*
X59716009Y-39908094D02*
X59811247Y-39955713D01*
X64123095Y-58524819D02*
X64123095Y-59334342D01*
X64123095Y-59334342D02*
X64170714Y-59429580D01*
X64170714Y-59429580D02*
X64218333Y-59477200D01*
X64218333Y-59477200D02*
X64313571Y-59524819D01*
X64313571Y-59524819D02*
X64504047Y-59524819D01*
X64504047Y-59524819D02*
X64599285Y-59477200D01*
X64599285Y-59477200D02*
X64646904Y-59429580D01*
X64646904Y-59429580D02*
X64694523Y-59334342D01*
X64694523Y-59334342D02*
X64694523Y-58524819D01*
X65123095Y-58620057D02*
X65170714Y-58572438D01*
X65170714Y-58572438D02*
X65265952Y-58524819D01*
X65265952Y-58524819D02*
X65504047Y-58524819D01*
X65504047Y-58524819D02*
X65599285Y-58572438D01*
X65599285Y-58572438D02*
X65646904Y-58620057D01*
X65646904Y-58620057D02*
X65694523Y-58715295D01*
X65694523Y-58715295D02*
X65694523Y-58810533D01*
X65694523Y-58810533D02*
X65646904Y-58953390D01*
X65646904Y-58953390D02*
X65075476Y-59524819D01*
X65075476Y-59524819D02*
X65694523Y-59524819D01*
X124937381Y-80324819D02*
X125508809Y-80324819D01*
X125223095Y-81324819D02*
X125223095Y-80324819D01*
X125842143Y-81324819D02*
X125842143Y-80324819D01*
X125842143Y-80324819D02*
X126223095Y-80324819D01*
X126223095Y-80324819D02*
X126318333Y-80372438D01*
X126318333Y-80372438D02*
X126365952Y-80420057D01*
X126365952Y-80420057D02*
X126413571Y-80515295D01*
X126413571Y-80515295D02*
X126413571Y-80658152D01*
X126413571Y-80658152D02*
X126365952Y-80753390D01*
X126365952Y-80753390D02*
X126318333Y-80801009D01*
X126318333Y-80801009D02*
X126223095Y-80848628D01*
X126223095Y-80848628D02*
X125842143Y-80848628D01*
X126604048Y-81420057D02*
X127365952Y-81420057D01*
X128080238Y-80324819D02*
X127604048Y-80324819D01*
X127604048Y-80324819D02*
X127556429Y-80801009D01*
X127556429Y-80801009D02*
X127604048Y-80753390D01*
X127604048Y-80753390D02*
X127699286Y-80705771D01*
X127699286Y-80705771D02*
X127937381Y-80705771D01*
X127937381Y-80705771D02*
X128032619Y-80753390D01*
X128032619Y-80753390D02*
X128080238Y-80801009D01*
X128080238Y-80801009D02*
X128127857Y-80896247D01*
X128127857Y-80896247D02*
X128127857Y-81134342D01*
X128127857Y-81134342D02*
X128080238Y-81229580D01*
X128080238Y-81229580D02*
X128032619Y-81277200D01*
X128032619Y-81277200D02*
X127937381Y-81324819D01*
X127937381Y-81324819D02*
X127699286Y-81324819D01*
X127699286Y-81324819D02*
X127604048Y-81277200D01*
X127604048Y-81277200D02*
X127556429Y-81229580D01*
X128413572Y-80324819D02*
X128746905Y-81324819D01*
X128746905Y-81324819D02*
X129080238Y-80324819D01*
X129937381Y-81324819D02*
X129365953Y-81324819D01*
X129651667Y-81324819D02*
X129651667Y-80324819D01*
X129651667Y-80324819D02*
X129556429Y-80467676D01*
X129556429Y-80467676D02*
X129461191Y-80562914D01*
X129461191Y-80562914D02*
X129365953Y-80610533D01*
X112854819Y-74638333D02*
X113569104Y-74638333D01*
X113569104Y-74638333D02*
X113711961Y-74685952D01*
X113711961Y-74685952D02*
X113807200Y-74781190D01*
X113807200Y-74781190D02*
X113854819Y-74924047D01*
X113854819Y-74924047D02*
X113854819Y-75019285D01*
X112854819Y-74257380D02*
X112854819Y-73638333D01*
X112854819Y-73638333D02*
X113235771Y-73971666D01*
X113235771Y-73971666D02*
X113235771Y-73828809D01*
X113235771Y-73828809D02*
X113283390Y-73733571D01*
X113283390Y-73733571D02*
X113331009Y-73685952D01*
X113331009Y-73685952D02*
X113426247Y-73638333D01*
X113426247Y-73638333D02*
X113664342Y-73638333D01*
X113664342Y-73638333D02*
X113759580Y-73685952D01*
X113759580Y-73685952D02*
X113807200Y-73733571D01*
X113807200Y-73733571D02*
X113854819Y-73828809D01*
X113854819Y-73828809D02*
X113854819Y-74114523D01*
X113854819Y-74114523D02*
X113807200Y-74209761D01*
X113807200Y-74209761D02*
X113759580Y-74257380D01*
X61233333Y-75461247D02*
X61185714Y-75508867D01*
X61185714Y-75508867D02*
X61042857Y-75556486D01*
X61042857Y-75556486D02*
X60947619Y-75556486D01*
X60947619Y-75556486D02*
X60804762Y-75508867D01*
X60804762Y-75508867D02*
X60709524Y-75413628D01*
X60709524Y-75413628D02*
X60661905Y-75318390D01*
X60661905Y-75318390D02*
X60614286Y-75127914D01*
X60614286Y-75127914D02*
X60614286Y-74985057D01*
X60614286Y-74985057D02*
X60661905Y-74794581D01*
X60661905Y-74794581D02*
X60709524Y-74699343D01*
X60709524Y-74699343D02*
X60804762Y-74604105D01*
X60804762Y-74604105D02*
X60947619Y-74556486D01*
X60947619Y-74556486D02*
X61042857Y-74556486D01*
X61042857Y-74556486D02*
X61185714Y-74604105D01*
X61185714Y-74604105D02*
X61233333Y-74651724D01*
X62138095Y-74556486D02*
X61661905Y-74556486D01*
X61661905Y-74556486D02*
X61614286Y-75032676D01*
X61614286Y-75032676D02*
X61661905Y-74985057D01*
X61661905Y-74985057D02*
X61757143Y-74937438D01*
X61757143Y-74937438D02*
X61995238Y-74937438D01*
X61995238Y-74937438D02*
X62090476Y-74985057D01*
X62090476Y-74985057D02*
X62138095Y-75032676D01*
X62138095Y-75032676D02*
X62185714Y-75127914D01*
X62185714Y-75127914D02*
X62185714Y-75366009D01*
X62185714Y-75366009D02*
X62138095Y-75461247D01*
X62138095Y-75461247D02*
X62090476Y-75508867D01*
X62090476Y-75508867D02*
X61995238Y-75556486D01*
X61995238Y-75556486D02*
X61757143Y-75556486D01*
X61757143Y-75556486D02*
X61661905Y-75508867D01*
X61661905Y-75508867D02*
X61614286Y-75461247D01*
X91018333Y-38701619D02*
X90685000Y-38225428D01*
X90446905Y-38701619D02*
X90446905Y-37701619D01*
X90446905Y-37701619D02*
X90827857Y-37701619D01*
X90827857Y-37701619D02*
X90923095Y-37749238D01*
X90923095Y-37749238D02*
X90970714Y-37796857D01*
X90970714Y-37796857D02*
X91018333Y-37892095D01*
X91018333Y-37892095D02*
X91018333Y-38034952D01*
X91018333Y-38034952D02*
X90970714Y-38130190D01*
X90970714Y-38130190D02*
X90923095Y-38177809D01*
X90923095Y-38177809D02*
X90827857Y-38225428D01*
X90827857Y-38225428D02*
X90446905Y-38225428D01*
X91399286Y-37796857D02*
X91446905Y-37749238D01*
X91446905Y-37749238D02*
X91542143Y-37701619D01*
X91542143Y-37701619D02*
X91780238Y-37701619D01*
X91780238Y-37701619D02*
X91875476Y-37749238D01*
X91875476Y-37749238D02*
X91923095Y-37796857D01*
X91923095Y-37796857D02*
X91970714Y-37892095D01*
X91970714Y-37892095D02*
X91970714Y-37987333D01*
X91970714Y-37987333D02*
X91923095Y-38130190D01*
X91923095Y-38130190D02*
X91351667Y-38701619D01*
X91351667Y-38701619D02*
X91970714Y-38701619D01*
X53039819Y-65503333D02*
X53754104Y-65503333D01*
X53754104Y-65503333D02*
X53896961Y-65550952D01*
X53896961Y-65550952D02*
X53992200Y-65646190D01*
X53992200Y-65646190D02*
X54039819Y-65789047D01*
X54039819Y-65789047D02*
X54039819Y-65884285D01*
X54039819Y-64503333D02*
X54039819Y-65074761D01*
X54039819Y-64789047D02*
X53039819Y-64789047D01*
X53039819Y-64789047D02*
X53182676Y-64884285D01*
X53182676Y-64884285D02*
X53277914Y-64979523D01*
X53277914Y-64979523D02*
X53325533Y-65074761D01*
X49671819Y-54394738D02*
X49195628Y-54728071D01*
X49671819Y-54966166D02*
X48671819Y-54966166D01*
X48671819Y-54966166D02*
X48671819Y-54585214D01*
X48671819Y-54585214D02*
X48719438Y-54489976D01*
X48719438Y-54489976D02*
X48767057Y-54442357D01*
X48767057Y-54442357D02*
X48862295Y-54394738D01*
X48862295Y-54394738D02*
X49005152Y-54394738D01*
X49005152Y-54394738D02*
X49100390Y-54442357D01*
X49100390Y-54442357D02*
X49148009Y-54489976D01*
X49148009Y-54489976D02*
X49195628Y-54585214D01*
X49195628Y-54585214D02*
X49195628Y-54966166D01*
X48671819Y-54109023D02*
X49671819Y-53775690D01*
X49671819Y-53775690D02*
X48671819Y-53442357D01*
X49671819Y-52585214D02*
X49671819Y-53156642D01*
X49671819Y-52870928D02*
X48671819Y-52870928D01*
X48671819Y-52870928D02*
X48814676Y-52966166D01*
X48814676Y-52966166D02*
X48909914Y-53061404D01*
X48909914Y-53061404D02*
X48957533Y-53156642D01*
X61233333Y-84394580D02*
X61185714Y-84442200D01*
X61185714Y-84442200D02*
X61042857Y-84489819D01*
X61042857Y-84489819D02*
X60947619Y-84489819D01*
X60947619Y-84489819D02*
X60804762Y-84442200D01*
X60804762Y-84442200D02*
X60709524Y-84346961D01*
X60709524Y-84346961D02*
X60661905Y-84251723D01*
X60661905Y-84251723D02*
X60614286Y-84061247D01*
X60614286Y-84061247D02*
X60614286Y-83918390D01*
X60614286Y-83918390D02*
X60661905Y-83727914D01*
X60661905Y-83727914D02*
X60709524Y-83632676D01*
X60709524Y-83632676D02*
X60804762Y-83537438D01*
X60804762Y-83537438D02*
X60947619Y-83489819D01*
X60947619Y-83489819D02*
X61042857Y-83489819D01*
X61042857Y-83489819D02*
X61185714Y-83537438D01*
X61185714Y-83537438D02*
X61233333Y-83585057D01*
X61804762Y-83918390D02*
X61709524Y-83870771D01*
X61709524Y-83870771D02*
X61661905Y-83823152D01*
X61661905Y-83823152D02*
X61614286Y-83727914D01*
X61614286Y-83727914D02*
X61614286Y-83680295D01*
X61614286Y-83680295D02*
X61661905Y-83585057D01*
X61661905Y-83585057D02*
X61709524Y-83537438D01*
X61709524Y-83537438D02*
X61804762Y-83489819D01*
X61804762Y-83489819D02*
X61995238Y-83489819D01*
X61995238Y-83489819D02*
X62090476Y-83537438D01*
X62090476Y-83537438D02*
X62138095Y-83585057D01*
X62138095Y-83585057D02*
X62185714Y-83680295D01*
X62185714Y-83680295D02*
X62185714Y-83727914D01*
X62185714Y-83727914D02*
X62138095Y-83823152D01*
X62138095Y-83823152D02*
X62090476Y-83870771D01*
X62090476Y-83870771D02*
X61995238Y-83918390D01*
X61995238Y-83918390D02*
X61804762Y-83918390D01*
X61804762Y-83918390D02*
X61709524Y-83966009D01*
X61709524Y-83966009D02*
X61661905Y-84013628D01*
X61661905Y-84013628D02*
X61614286Y-84108866D01*
X61614286Y-84108866D02*
X61614286Y-84299342D01*
X61614286Y-84299342D02*
X61661905Y-84394580D01*
X61661905Y-84394580D02*
X61709524Y-84442200D01*
X61709524Y-84442200D02*
X61804762Y-84489819D01*
X61804762Y-84489819D02*
X61995238Y-84489819D01*
X61995238Y-84489819D02*
X62090476Y-84442200D01*
X62090476Y-84442200D02*
X62138095Y-84394580D01*
X62138095Y-84394580D02*
X62185714Y-84299342D01*
X62185714Y-84299342D02*
X62185714Y-84108866D01*
X62185714Y-84108866D02*
X62138095Y-84013628D01*
X62138095Y-84013628D02*
X62090476Y-83966009D01*
X62090476Y-83966009D02*
X61995238Y-83918390D01*
X100339819Y-77726666D02*
X99863628Y-78059999D01*
X100339819Y-78298094D02*
X99339819Y-78298094D01*
X99339819Y-78298094D02*
X99339819Y-77917142D01*
X99339819Y-77917142D02*
X99387438Y-77821904D01*
X99387438Y-77821904D02*
X99435057Y-77774285D01*
X99435057Y-77774285D02*
X99530295Y-77726666D01*
X99530295Y-77726666D02*
X99673152Y-77726666D01*
X99673152Y-77726666D02*
X99768390Y-77774285D01*
X99768390Y-77774285D02*
X99816009Y-77821904D01*
X99816009Y-77821904D02*
X99863628Y-77917142D01*
X99863628Y-77917142D02*
X99863628Y-78298094D01*
X99339819Y-77393332D02*
X99339819Y-76726666D01*
X99339819Y-76726666D02*
X100339819Y-77155237D01*
X91018333Y-43109352D02*
X90685000Y-42633161D01*
X90446905Y-43109352D02*
X90446905Y-42109352D01*
X90446905Y-42109352D02*
X90827857Y-42109352D01*
X90827857Y-42109352D02*
X90923095Y-42156971D01*
X90923095Y-42156971D02*
X90970714Y-42204590D01*
X90970714Y-42204590D02*
X91018333Y-42299828D01*
X91018333Y-42299828D02*
X91018333Y-42442685D01*
X91018333Y-42442685D02*
X90970714Y-42537923D01*
X90970714Y-42537923D02*
X90923095Y-42585542D01*
X90923095Y-42585542D02*
X90827857Y-42633161D01*
X90827857Y-42633161D02*
X90446905Y-42633161D01*
X91970714Y-43109352D02*
X91399286Y-43109352D01*
X91685000Y-43109352D02*
X91685000Y-42109352D01*
X91685000Y-42109352D02*
X91589762Y-42252209D01*
X91589762Y-42252209D02*
X91494524Y-42347447D01*
X91494524Y-42347447D02*
X91399286Y-42395066D01*
X126739819Y-44746666D02*
X126263628Y-45079999D01*
X126739819Y-45318094D02*
X125739819Y-45318094D01*
X125739819Y-45318094D02*
X125739819Y-44937142D01*
X125739819Y-44937142D02*
X125787438Y-44841904D01*
X125787438Y-44841904D02*
X125835057Y-44794285D01*
X125835057Y-44794285D02*
X125930295Y-44746666D01*
X125930295Y-44746666D02*
X126073152Y-44746666D01*
X126073152Y-44746666D02*
X126168390Y-44794285D01*
X126168390Y-44794285D02*
X126216009Y-44841904D01*
X126216009Y-44841904D02*
X126263628Y-44937142D01*
X126263628Y-44937142D02*
X126263628Y-45318094D01*
X126739819Y-44270475D02*
X126739819Y-44079999D01*
X126739819Y-44079999D02*
X126692200Y-43984761D01*
X126692200Y-43984761D02*
X126644580Y-43937142D01*
X126644580Y-43937142D02*
X126501723Y-43841904D01*
X126501723Y-43841904D02*
X126311247Y-43794285D01*
X126311247Y-43794285D02*
X125930295Y-43794285D01*
X125930295Y-43794285D02*
X125835057Y-43841904D01*
X125835057Y-43841904D02*
X125787438Y-43889523D01*
X125787438Y-43889523D02*
X125739819Y-43984761D01*
X125739819Y-43984761D02*
X125739819Y-44175237D01*
X125739819Y-44175237D02*
X125787438Y-44270475D01*
X125787438Y-44270475D02*
X125835057Y-44318094D01*
X125835057Y-44318094D02*
X125930295Y-44365713D01*
X125930295Y-44365713D02*
X126168390Y-44365713D01*
X126168390Y-44365713D02*
X126263628Y-44318094D01*
X126263628Y-44318094D02*
X126311247Y-44270475D01*
X126311247Y-44270475D02*
X126358866Y-44175237D01*
X126358866Y-44175237D02*
X126358866Y-43984761D01*
X126358866Y-43984761D02*
X126311247Y-43889523D01*
X126311247Y-43889523D02*
X126263628Y-43841904D01*
X126263628Y-43841904D02*
X126168390Y-43794285D01*
X64339819Y-40336666D02*
X63863628Y-40669999D01*
X64339819Y-40908094D02*
X63339819Y-40908094D01*
X63339819Y-40908094D02*
X63339819Y-40527142D01*
X63339819Y-40527142D02*
X63387438Y-40431904D01*
X63387438Y-40431904D02*
X63435057Y-40384285D01*
X63435057Y-40384285D02*
X63530295Y-40336666D01*
X63530295Y-40336666D02*
X63673152Y-40336666D01*
X63673152Y-40336666D02*
X63768390Y-40384285D01*
X63768390Y-40384285D02*
X63816009Y-40431904D01*
X63816009Y-40431904D02*
X63863628Y-40527142D01*
X63863628Y-40527142D02*
X63863628Y-40908094D01*
X63339819Y-39431904D02*
X63339819Y-39908094D01*
X63339819Y-39908094D02*
X63816009Y-39955713D01*
X63816009Y-39955713D02*
X63768390Y-39908094D01*
X63768390Y-39908094D02*
X63720771Y-39812856D01*
X63720771Y-39812856D02*
X63720771Y-39574761D01*
X63720771Y-39574761D02*
X63768390Y-39479523D01*
X63768390Y-39479523D02*
X63816009Y-39431904D01*
X63816009Y-39431904D02*
X63911247Y-39384285D01*
X63911247Y-39384285D02*
X64149342Y-39384285D01*
X64149342Y-39384285D02*
X64244580Y-39431904D01*
X64244580Y-39431904D02*
X64292200Y-39479523D01*
X64292200Y-39479523D02*
X64339819Y-39574761D01*
X64339819Y-39574761D02*
X64339819Y-39812856D01*
X64339819Y-39812856D02*
X64292200Y-39908094D01*
X64292200Y-39908094D02*
X64244580Y-39955713D01*
X125232619Y-85424819D02*
X125804047Y-85424819D01*
X125518333Y-86424819D02*
X125518333Y-85424819D01*
X126137381Y-86424819D02*
X126137381Y-85424819D01*
X126137381Y-85424819D02*
X126518333Y-85424819D01*
X126518333Y-85424819D02*
X126613571Y-85472438D01*
X126613571Y-85472438D02*
X126661190Y-85520057D01*
X126661190Y-85520057D02*
X126708809Y-85615295D01*
X126708809Y-85615295D02*
X126708809Y-85758152D01*
X126708809Y-85758152D02*
X126661190Y-85853390D01*
X126661190Y-85853390D02*
X126613571Y-85901009D01*
X126613571Y-85901009D02*
X126518333Y-85948628D01*
X126518333Y-85948628D02*
X126137381Y-85948628D01*
X126899286Y-86520057D02*
X127661190Y-86520057D01*
X127756429Y-85424819D02*
X128089762Y-86424819D01*
X128089762Y-86424819D02*
X128423095Y-85424819D01*
X129327857Y-86424819D02*
X128994524Y-85948628D01*
X128756429Y-86424819D02*
X128756429Y-85424819D01*
X128756429Y-85424819D02*
X129137381Y-85424819D01*
X129137381Y-85424819D02*
X129232619Y-85472438D01*
X129232619Y-85472438D02*
X129280238Y-85520057D01*
X129280238Y-85520057D02*
X129327857Y-85615295D01*
X129327857Y-85615295D02*
X129327857Y-85758152D01*
X129327857Y-85758152D02*
X129280238Y-85853390D01*
X129280238Y-85853390D02*
X129232619Y-85901009D01*
X129232619Y-85901009D02*
X129137381Y-85948628D01*
X129137381Y-85948628D02*
X128756429Y-85948628D01*
X129756429Y-85901009D02*
X130089762Y-85901009D01*
X130232619Y-86424819D02*
X129756429Y-86424819D01*
X129756429Y-86424819D02*
X129756429Y-85424819D01*
X129756429Y-85424819D02*
X130232619Y-85424819D01*
X130994524Y-85901009D02*
X130661191Y-85901009D01*
X130661191Y-86424819D02*
X130661191Y-85424819D01*
X130661191Y-85424819D02*
X131137381Y-85424819D01*
X132042143Y-86424819D02*
X131470715Y-86424819D01*
X131756429Y-86424819D02*
X131756429Y-85424819D01*
X131756429Y-85424819D02*
X131661191Y-85567676D01*
X131661191Y-85567676D02*
X131565953Y-85662914D01*
X131565953Y-85662914D02*
X131470715Y-85710533D01*
X131506905Y-36864819D02*
X131506905Y-35864819D01*
X131506905Y-35864819D02*
X131745000Y-35864819D01*
X131745000Y-35864819D02*
X131887857Y-35912438D01*
X131887857Y-35912438D02*
X131983095Y-36007676D01*
X131983095Y-36007676D02*
X132030714Y-36102914D01*
X132030714Y-36102914D02*
X132078333Y-36293390D01*
X132078333Y-36293390D02*
X132078333Y-36436247D01*
X132078333Y-36436247D02*
X132030714Y-36626723D01*
X132030714Y-36626723D02*
X131983095Y-36721961D01*
X131983095Y-36721961D02*
X131887857Y-36817200D01*
X131887857Y-36817200D02*
X131745000Y-36864819D01*
X131745000Y-36864819D02*
X131506905Y-36864819D01*
X132459286Y-35960057D02*
X132506905Y-35912438D01*
X132506905Y-35912438D02*
X132602143Y-35864819D01*
X132602143Y-35864819D02*
X132840238Y-35864819D01*
X132840238Y-35864819D02*
X132935476Y-35912438D01*
X132935476Y-35912438D02*
X132983095Y-35960057D01*
X132983095Y-35960057D02*
X133030714Y-36055295D01*
X133030714Y-36055295D02*
X133030714Y-36150533D01*
X133030714Y-36150533D02*
X132983095Y-36293390D01*
X132983095Y-36293390D02*
X132411667Y-36864819D01*
X132411667Y-36864819D02*
X133030714Y-36864819D01*
X61233333Y-70994580D02*
X61185714Y-71042200D01*
X61185714Y-71042200D02*
X61042857Y-71089819D01*
X61042857Y-71089819D02*
X60947619Y-71089819D01*
X60947619Y-71089819D02*
X60804762Y-71042200D01*
X60804762Y-71042200D02*
X60709524Y-70946961D01*
X60709524Y-70946961D02*
X60661905Y-70851723D01*
X60661905Y-70851723D02*
X60614286Y-70661247D01*
X60614286Y-70661247D02*
X60614286Y-70518390D01*
X60614286Y-70518390D02*
X60661905Y-70327914D01*
X60661905Y-70327914D02*
X60709524Y-70232676D01*
X60709524Y-70232676D02*
X60804762Y-70137438D01*
X60804762Y-70137438D02*
X60947619Y-70089819D01*
X60947619Y-70089819D02*
X61042857Y-70089819D01*
X61042857Y-70089819D02*
X61185714Y-70137438D01*
X61185714Y-70137438D02*
X61233333Y-70185057D01*
X62090476Y-70423152D02*
X62090476Y-71089819D01*
X61852381Y-70042200D02*
X61614286Y-70756485D01*
X61614286Y-70756485D02*
X62233333Y-70756485D01*
X125086600Y-67660132D02*
X125134219Y-67517275D01*
X125134219Y-67517275D02*
X125134219Y-67279180D01*
X125134219Y-67279180D02*
X125086600Y-67183942D01*
X125086600Y-67183942D02*
X125038980Y-67136323D01*
X125038980Y-67136323D02*
X124943742Y-67088704D01*
X124943742Y-67088704D02*
X124848504Y-67088704D01*
X124848504Y-67088704D02*
X124753266Y-67136323D01*
X124753266Y-67136323D02*
X124705647Y-67183942D01*
X124705647Y-67183942D02*
X124658028Y-67279180D01*
X124658028Y-67279180D02*
X124610409Y-67469656D01*
X124610409Y-67469656D02*
X124562790Y-67564894D01*
X124562790Y-67564894D02*
X124515171Y-67612513D01*
X124515171Y-67612513D02*
X124419933Y-67660132D01*
X124419933Y-67660132D02*
X124324695Y-67660132D01*
X124324695Y-67660132D02*
X124229457Y-67612513D01*
X124229457Y-67612513D02*
X124181838Y-67564894D01*
X124181838Y-67564894D02*
X124134219Y-67469656D01*
X124134219Y-67469656D02*
X124134219Y-67231561D01*
X124134219Y-67231561D02*
X124181838Y-67088704D01*
X124134219Y-66755370D02*
X125134219Y-66517275D01*
X125134219Y-66517275D02*
X124419933Y-66326799D01*
X124419933Y-66326799D02*
X125134219Y-66136323D01*
X125134219Y-66136323D02*
X124134219Y-65898228D01*
X125134219Y-64993466D02*
X125134219Y-65564894D01*
X125134219Y-65279180D02*
X124134219Y-65279180D01*
X124134219Y-65279180D02*
X124277076Y-65374418D01*
X124277076Y-65374418D02*
X124372314Y-65469656D01*
X124372314Y-65469656D02*
X124419933Y-65564894D01*
X129999285Y-50277200D02*
X130142142Y-50324819D01*
X130142142Y-50324819D02*
X130380237Y-50324819D01*
X130380237Y-50324819D02*
X130475475Y-50277200D01*
X130475475Y-50277200D02*
X130523094Y-50229580D01*
X130523094Y-50229580D02*
X130570713Y-50134342D01*
X130570713Y-50134342D02*
X130570713Y-50039104D01*
X130570713Y-50039104D02*
X130523094Y-49943866D01*
X130523094Y-49943866D02*
X130475475Y-49896247D01*
X130475475Y-49896247D02*
X130380237Y-49848628D01*
X130380237Y-49848628D02*
X130189761Y-49801009D01*
X130189761Y-49801009D02*
X130094523Y-49753390D01*
X130094523Y-49753390D02*
X130046904Y-49705771D01*
X130046904Y-49705771D02*
X129999285Y-49610533D01*
X129999285Y-49610533D02*
X129999285Y-49515295D01*
X129999285Y-49515295D02*
X130046904Y-49420057D01*
X130046904Y-49420057D02*
X130094523Y-49372438D01*
X130094523Y-49372438D02*
X130189761Y-49324819D01*
X130189761Y-49324819D02*
X130427856Y-49324819D01*
X130427856Y-49324819D02*
X130570713Y-49372438D01*
X130904047Y-49324819D02*
X131142142Y-50324819D01*
X131142142Y-50324819D02*
X131332618Y-49610533D01*
X131332618Y-49610533D02*
X131523094Y-50324819D01*
X131523094Y-50324819D02*
X131761190Y-49324819D01*
X131904047Y-50420057D02*
X132665951Y-50420057D01*
X132904047Y-50324819D02*
X132904047Y-49324819D01*
X132904047Y-49324819D02*
X133284999Y-49324819D01*
X133284999Y-49324819D02*
X133380237Y-49372438D01*
X133380237Y-49372438D02*
X133427856Y-49420057D01*
X133427856Y-49420057D02*
X133475475Y-49515295D01*
X133475475Y-49515295D02*
X133475475Y-49658152D01*
X133475475Y-49658152D02*
X133427856Y-49753390D01*
X133427856Y-49753390D02*
X133380237Y-49801009D01*
X133380237Y-49801009D02*
X133284999Y-49848628D01*
X133284999Y-49848628D02*
X132904047Y-49848628D01*
X134332618Y-49658152D02*
X134332618Y-50324819D01*
X133904047Y-49658152D02*
X133904047Y-50181961D01*
X133904047Y-50181961D02*
X133951666Y-50277200D01*
X133951666Y-50277200D02*
X134046904Y-50324819D01*
X134046904Y-50324819D02*
X134189761Y-50324819D01*
X134189761Y-50324819D02*
X134284999Y-50277200D01*
X134284999Y-50277200D02*
X134332618Y-50229580D01*
X134761190Y-50277200D02*
X134856428Y-50324819D01*
X134856428Y-50324819D02*
X135046904Y-50324819D01*
X135046904Y-50324819D02*
X135142142Y-50277200D01*
X135142142Y-50277200D02*
X135189761Y-50181961D01*
X135189761Y-50181961D02*
X135189761Y-50134342D01*
X135189761Y-50134342D02*
X135142142Y-50039104D01*
X135142142Y-50039104D02*
X135046904Y-49991485D01*
X135046904Y-49991485D02*
X134904047Y-49991485D01*
X134904047Y-49991485D02*
X134808809Y-49943866D01*
X134808809Y-49943866D02*
X134761190Y-49848628D01*
X134761190Y-49848628D02*
X134761190Y-49801009D01*
X134761190Y-49801009D02*
X134808809Y-49705771D01*
X134808809Y-49705771D02*
X134904047Y-49658152D01*
X134904047Y-49658152D02*
X135046904Y-49658152D01*
X135046904Y-49658152D02*
X135142142Y-49705771D01*
X135618333Y-50324819D02*
X135618333Y-49324819D01*
X136046904Y-50324819D02*
X136046904Y-49801009D01*
X136046904Y-49801009D02*
X135999285Y-49705771D01*
X135999285Y-49705771D02*
X135904047Y-49658152D01*
X135904047Y-49658152D02*
X135761190Y-49658152D01*
X135761190Y-49658152D02*
X135665952Y-49705771D01*
X135665952Y-49705771D02*
X135618333Y-49753390D01*
X136285000Y-50420057D02*
X137046904Y-50420057D01*
X137189762Y-49324819D02*
X137808809Y-49324819D01*
X137808809Y-49324819D02*
X137475476Y-49705771D01*
X137475476Y-49705771D02*
X137618333Y-49705771D01*
X137618333Y-49705771D02*
X137713571Y-49753390D01*
X137713571Y-49753390D02*
X137761190Y-49801009D01*
X137761190Y-49801009D02*
X137808809Y-49896247D01*
X137808809Y-49896247D02*
X137808809Y-50134342D01*
X137808809Y-50134342D02*
X137761190Y-50229580D01*
X137761190Y-50229580D02*
X137713571Y-50277200D01*
X137713571Y-50277200D02*
X137618333Y-50324819D01*
X137618333Y-50324819D02*
X137332619Y-50324819D01*
X137332619Y-50324819D02*
X137237381Y-50277200D01*
X137237381Y-50277200D02*
X137189762Y-50229580D01*
X138237381Y-50324819D02*
X138237381Y-49324819D01*
X138237381Y-49324819D02*
X138618333Y-49324819D01*
X138618333Y-49324819D02*
X138713571Y-49372438D01*
X138713571Y-49372438D02*
X138761190Y-49420057D01*
X138761190Y-49420057D02*
X138808809Y-49515295D01*
X138808809Y-49515295D02*
X138808809Y-49658152D01*
X138808809Y-49658152D02*
X138761190Y-49753390D01*
X138761190Y-49753390D02*
X138713571Y-49801009D01*
X138713571Y-49801009D02*
X138618333Y-49848628D01*
X138618333Y-49848628D02*
X138237381Y-49848628D01*
X139237381Y-50324819D02*
X139237381Y-49324819D01*
X139237381Y-49324819D02*
X139475476Y-49324819D01*
X139475476Y-49324819D02*
X139618333Y-49372438D01*
X139618333Y-49372438D02*
X139713571Y-49467676D01*
X139713571Y-49467676D02*
X139761190Y-49562914D01*
X139761190Y-49562914D02*
X139808809Y-49753390D01*
X139808809Y-49753390D02*
X139808809Y-49896247D01*
X139808809Y-49896247D02*
X139761190Y-50086723D01*
X139761190Y-50086723D02*
X139713571Y-50181961D01*
X139713571Y-50181961D02*
X139618333Y-50277200D01*
X139618333Y-50277200D02*
X139475476Y-50324819D01*
X139475476Y-50324819D02*
X139237381Y-50324819D01*
X140094524Y-49324819D02*
X140665952Y-49324819D01*
X140380238Y-50324819D02*
X140380238Y-49324819D01*
X112854819Y-47068333D02*
X113569104Y-47068333D01*
X113569104Y-47068333D02*
X113711961Y-47115952D01*
X113711961Y-47115952D02*
X113807200Y-47211190D01*
X113807200Y-47211190D02*
X113854819Y-47354047D01*
X113854819Y-47354047D02*
X113854819Y-47449285D01*
X112950057Y-46639761D02*
X112902438Y-46592142D01*
X112902438Y-46592142D02*
X112854819Y-46496904D01*
X112854819Y-46496904D02*
X112854819Y-46258809D01*
X112854819Y-46258809D02*
X112902438Y-46163571D01*
X112902438Y-46163571D02*
X112950057Y-46115952D01*
X112950057Y-46115952D02*
X113045295Y-46068333D01*
X113045295Y-46068333D02*
X113140533Y-46068333D01*
X113140533Y-46068333D02*
X113283390Y-46115952D01*
X113283390Y-46115952D02*
X113854819Y-46687380D01*
X113854819Y-46687380D02*
X113854819Y-46068333D01*
X91018333Y-51924819D02*
X90685000Y-51448628D01*
X90446905Y-51924819D02*
X90446905Y-50924819D01*
X90446905Y-50924819D02*
X90827857Y-50924819D01*
X90827857Y-50924819D02*
X90923095Y-50972438D01*
X90923095Y-50972438D02*
X90970714Y-51020057D01*
X90970714Y-51020057D02*
X91018333Y-51115295D01*
X91018333Y-51115295D02*
X91018333Y-51258152D01*
X91018333Y-51258152D02*
X90970714Y-51353390D01*
X90970714Y-51353390D02*
X90923095Y-51401009D01*
X90923095Y-51401009D02*
X90827857Y-51448628D01*
X90827857Y-51448628D02*
X90446905Y-51448628D01*
X91351667Y-50924819D02*
X91970714Y-50924819D01*
X91970714Y-50924819D02*
X91637381Y-51305771D01*
X91637381Y-51305771D02*
X91780238Y-51305771D01*
X91780238Y-51305771D02*
X91875476Y-51353390D01*
X91875476Y-51353390D02*
X91923095Y-51401009D01*
X91923095Y-51401009D02*
X91970714Y-51496247D01*
X91970714Y-51496247D02*
X91970714Y-51734342D01*
X91970714Y-51734342D02*
X91923095Y-51829580D01*
X91923095Y-51829580D02*
X91875476Y-51877200D01*
X91875476Y-51877200D02*
X91780238Y-51924819D01*
X91780238Y-51924819D02*
X91494524Y-51924819D01*
X91494524Y-51924819D02*
X91399286Y-51877200D01*
X91399286Y-51877200D02*
X91351667Y-51829580D01*
X61233333Y-79927913D02*
X61185714Y-79975533D01*
X61185714Y-79975533D02*
X61042857Y-80023152D01*
X61042857Y-80023152D02*
X60947619Y-80023152D01*
X60947619Y-80023152D02*
X60804762Y-79975533D01*
X60804762Y-79975533D02*
X60709524Y-79880294D01*
X60709524Y-79880294D02*
X60661905Y-79785056D01*
X60661905Y-79785056D02*
X60614286Y-79594580D01*
X60614286Y-79594580D02*
X60614286Y-79451723D01*
X60614286Y-79451723D02*
X60661905Y-79261247D01*
X60661905Y-79261247D02*
X60709524Y-79166009D01*
X60709524Y-79166009D02*
X60804762Y-79070771D01*
X60804762Y-79070771D02*
X60947619Y-79023152D01*
X60947619Y-79023152D02*
X61042857Y-79023152D01*
X61042857Y-79023152D02*
X61185714Y-79070771D01*
X61185714Y-79070771D02*
X61233333Y-79118390D01*
X61566667Y-79023152D02*
X62233333Y-79023152D01*
X62233333Y-79023152D02*
X61804762Y-80023152D01*
X100339819Y-65846666D02*
X99863628Y-66179999D01*
X100339819Y-66418094D02*
X99339819Y-66418094D01*
X99339819Y-66418094D02*
X99339819Y-66037142D01*
X99339819Y-66037142D02*
X99387438Y-65941904D01*
X99387438Y-65941904D02*
X99435057Y-65894285D01*
X99435057Y-65894285D02*
X99530295Y-65846666D01*
X99530295Y-65846666D02*
X99673152Y-65846666D01*
X99673152Y-65846666D02*
X99768390Y-65894285D01*
X99768390Y-65894285D02*
X99816009Y-65941904D01*
X99816009Y-65941904D02*
X99863628Y-66037142D01*
X99863628Y-66037142D02*
X99863628Y-66418094D01*
X99768390Y-65275237D02*
X99720771Y-65370475D01*
X99720771Y-65370475D02*
X99673152Y-65418094D01*
X99673152Y-65418094D02*
X99577914Y-65465713D01*
X99577914Y-65465713D02*
X99530295Y-65465713D01*
X99530295Y-65465713D02*
X99435057Y-65418094D01*
X99435057Y-65418094D02*
X99387438Y-65370475D01*
X99387438Y-65370475D02*
X99339819Y-65275237D01*
X99339819Y-65275237D02*
X99339819Y-65084761D01*
X99339819Y-65084761D02*
X99387438Y-64989523D01*
X99387438Y-64989523D02*
X99435057Y-64941904D01*
X99435057Y-64941904D02*
X99530295Y-64894285D01*
X99530295Y-64894285D02*
X99577914Y-64894285D01*
X99577914Y-64894285D02*
X99673152Y-64941904D01*
X99673152Y-64941904D02*
X99720771Y-64989523D01*
X99720771Y-64989523D02*
X99768390Y-65084761D01*
X99768390Y-65084761D02*
X99768390Y-65275237D01*
X99768390Y-65275237D02*
X99816009Y-65370475D01*
X99816009Y-65370475D02*
X99863628Y-65418094D01*
X99863628Y-65418094D02*
X99958866Y-65465713D01*
X99958866Y-65465713D02*
X100149342Y-65465713D01*
X100149342Y-65465713D02*
X100244580Y-65418094D01*
X100244580Y-65418094D02*
X100292200Y-65370475D01*
X100292200Y-65370475D02*
X100339819Y-65275237D01*
X100339819Y-65275237D02*
X100339819Y-65084761D01*
X100339819Y-65084761D02*
X100292200Y-64989523D01*
X100292200Y-64989523D02*
X100244580Y-64941904D01*
X100244580Y-64941904D02*
X100149342Y-64894285D01*
X100149342Y-64894285D02*
X99958866Y-64894285D01*
X99958866Y-64894285D02*
X99863628Y-64941904D01*
X99863628Y-64941904D02*
X99816009Y-64989523D01*
X99816009Y-64989523D02*
X99768390Y-65084761D01*
X100244580Y-51180266D02*
X100292200Y-51227885D01*
X100292200Y-51227885D02*
X100339819Y-51370742D01*
X100339819Y-51370742D02*
X100339819Y-51465980D01*
X100339819Y-51465980D02*
X100292200Y-51608837D01*
X100292200Y-51608837D02*
X100196961Y-51704075D01*
X100196961Y-51704075D02*
X100101723Y-51751694D01*
X100101723Y-51751694D02*
X99911247Y-51799313D01*
X99911247Y-51799313D02*
X99768390Y-51799313D01*
X99768390Y-51799313D02*
X99577914Y-51751694D01*
X99577914Y-51751694D02*
X99482676Y-51704075D01*
X99482676Y-51704075D02*
X99387438Y-51608837D01*
X99387438Y-51608837D02*
X99339819Y-51465980D01*
X99339819Y-51465980D02*
X99339819Y-51370742D01*
X99339819Y-51370742D02*
X99387438Y-51227885D01*
X99387438Y-51227885D02*
X99435057Y-51180266D01*
X100339819Y-50227885D02*
X100339819Y-50799313D01*
X100339819Y-50513599D02*
X99339819Y-50513599D01*
X99339819Y-50513599D02*
X99482676Y-50608837D01*
X99482676Y-50608837D02*
X99577914Y-50704075D01*
X99577914Y-50704075D02*
X99625533Y-50799313D01*
X100244580Y-40736666D02*
X100292200Y-40784285D01*
X100292200Y-40784285D02*
X100339819Y-40927142D01*
X100339819Y-40927142D02*
X100339819Y-41022380D01*
X100339819Y-41022380D02*
X100292200Y-41165237D01*
X100292200Y-41165237D02*
X100196961Y-41260475D01*
X100196961Y-41260475D02*
X100101723Y-41308094D01*
X100101723Y-41308094D02*
X99911247Y-41355713D01*
X99911247Y-41355713D02*
X99768390Y-41355713D01*
X99768390Y-41355713D02*
X99577914Y-41308094D01*
X99577914Y-41308094D02*
X99482676Y-41260475D01*
X99482676Y-41260475D02*
X99387438Y-41165237D01*
X99387438Y-41165237D02*
X99339819Y-41022380D01*
X99339819Y-41022380D02*
X99339819Y-40927142D01*
X99339819Y-40927142D02*
X99387438Y-40784285D01*
X99387438Y-40784285D02*
X99435057Y-40736666D01*
X99435057Y-40355713D02*
X99387438Y-40308094D01*
X99387438Y-40308094D02*
X99339819Y-40212856D01*
X99339819Y-40212856D02*
X99339819Y-39974761D01*
X99339819Y-39974761D02*
X99387438Y-39879523D01*
X99387438Y-39879523D02*
X99435057Y-39831904D01*
X99435057Y-39831904D02*
X99530295Y-39784285D01*
X99530295Y-39784285D02*
X99625533Y-39784285D01*
X99625533Y-39784285D02*
X99768390Y-39831904D01*
X99768390Y-39831904D02*
X100339819Y-40403332D01*
X100339819Y-40403332D02*
X100339819Y-39784285D01*
X90423095Y-64744819D02*
X90423095Y-65554342D01*
X90423095Y-65554342D02*
X90470714Y-65649580D01*
X90470714Y-65649580D02*
X90518333Y-65697200D01*
X90518333Y-65697200D02*
X90613571Y-65744819D01*
X90613571Y-65744819D02*
X90804047Y-65744819D01*
X90804047Y-65744819D02*
X90899285Y-65697200D01*
X90899285Y-65697200D02*
X90946904Y-65649580D01*
X90946904Y-65649580D02*
X90994523Y-65554342D01*
X90994523Y-65554342D02*
X90994523Y-64744819D01*
X91994523Y-65744819D02*
X91423095Y-65744819D01*
X91708809Y-65744819D02*
X91708809Y-64744819D01*
X91708809Y-64744819D02*
X91613571Y-64887676D01*
X91613571Y-64887676D02*
X91518333Y-64982914D01*
X91518333Y-64982914D02*
X91423095Y-65030533D01*
X90018333Y-84729580D02*
X89970714Y-84777200D01*
X89970714Y-84777200D02*
X89827857Y-84824819D01*
X89827857Y-84824819D02*
X89732619Y-84824819D01*
X89732619Y-84824819D02*
X89589762Y-84777200D01*
X89589762Y-84777200D02*
X89494524Y-84681961D01*
X89494524Y-84681961D02*
X89446905Y-84586723D01*
X89446905Y-84586723D02*
X89399286Y-84396247D01*
X89399286Y-84396247D02*
X89399286Y-84253390D01*
X89399286Y-84253390D02*
X89446905Y-84062914D01*
X89446905Y-84062914D02*
X89494524Y-83967676D01*
X89494524Y-83967676D02*
X89589762Y-83872438D01*
X89589762Y-83872438D02*
X89732619Y-83824819D01*
X89732619Y-83824819D02*
X89827857Y-83824819D01*
X89827857Y-83824819D02*
X89970714Y-83872438D01*
X89970714Y-83872438D02*
X90018333Y-83920057D01*
X90494524Y-84824819D02*
X90685000Y-84824819D01*
X90685000Y-84824819D02*
X90780238Y-84777200D01*
X90780238Y-84777200D02*
X90827857Y-84729580D01*
X90827857Y-84729580D02*
X90923095Y-84586723D01*
X90923095Y-84586723D02*
X90970714Y-84396247D01*
X90970714Y-84396247D02*
X90970714Y-84015295D01*
X90970714Y-84015295D02*
X90923095Y-83920057D01*
X90923095Y-83920057D02*
X90875476Y-83872438D01*
X90875476Y-83872438D02*
X90780238Y-83824819D01*
X90780238Y-83824819D02*
X90589762Y-83824819D01*
X90589762Y-83824819D02*
X90494524Y-83872438D01*
X90494524Y-83872438D02*
X90446905Y-83920057D01*
X90446905Y-83920057D02*
X90399286Y-84015295D01*
X90399286Y-84015295D02*
X90399286Y-84253390D01*
X90399286Y-84253390D02*
X90446905Y-84348628D01*
X90446905Y-84348628D02*
X90494524Y-84396247D01*
X90494524Y-84396247D02*
X90589762Y-84443866D01*
X90589762Y-84443866D02*
X90780238Y-84443866D01*
X90780238Y-84443866D02*
X90875476Y-84396247D01*
X90875476Y-84396247D02*
X90923095Y-84348628D01*
X90923095Y-84348628D02*
X90970714Y-84253390D01*
X91018333Y-47517086D02*
X90685000Y-47040895D01*
X90446905Y-47517086D02*
X90446905Y-46517086D01*
X90446905Y-46517086D02*
X90827857Y-46517086D01*
X90827857Y-46517086D02*
X90923095Y-46564705D01*
X90923095Y-46564705D02*
X90970714Y-46612324D01*
X90970714Y-46612324D02*
X91018333Y-46707562D01*
X91018333Y-46707562D02*
X91018333Y-46850419D01*
X91018333Y-46850419D02*
X90970714Y-46945657D01*
X90970714Y-46945657D02*
X90923095Y-46993276D01*
X90923095Y-46993276D02*
X90827857Y-47040895D01*
X90827857Y-47040895D02*
X90446905Y-47040895D01*
X91875476Y-46850419D02*
X91875476Y-47517086D01*
X91637381Y-46469467D02*
X91399286Y-47183752D01*
X91399286Y-47183752D02*
X92018333Y-47183752D01*
X80461104Y-83485885D02*
X80461104Y-83009695D01*
X80746819Y-83581123D02*
X79746819Y-83247790D01*
X79746819Y-83247790D02*
X80746819Y-82914457D01*
X80746819Y-82057314D02*
X80746819Y-82628742D01*
X80746819Y-82343028D02*
X79746819Y-82343028D01*
X79746819Y-82343028D02*
X79889676Y-82438266D01*
X79889676Y-82438266D02*
X79984914Y-82533504D01*
X79984914Y-82533504D02*
X80032533Y-82628742D01*
X134639819Y-85974761D02*
X134639819Y-85403333D01*
X135639819Y-85689047D02*
X134639819Y-85689047D01*
X135639819Y-85069999D02*
X134639819Y-85069999D01*
X134639819Y-85069999D02*
X134639819Y-84689047D01*
X134639819Y-84689047D02*
X134687438Y-84593809D01*
X134687438Y-84593809D02*
X134735057Y-84546190D01*
X134735057Y-84546190D02*
X134830295Y-84498571D01*
X134830295Y-84498571D02*
X134973152Y-84498571D01*
X134973152Y-84498571D02*
X135068390Y-84546190D01*
X135068390Y-84546190D02*
X135116009Y-84593809D01*
X135116009Y-84593809D02*
X135163628Y-84689047D01*
X135163628Y-84689047D02*
X135163628Y-85069999D01*
X135735057Y-84308095D02*
X135735057Y-83546190D01*
X135639819Y-83308094D02*
X134639819Y-83308094D01*
X135639819Y-82831904D02*
X134639819Y-82831904D01*
X134639819Y-82831904D02*
X135639819Y-82260476D01*
X135639819Y-82260476D02*
X134639819Y-82260476D01*
X135639819Y-81260476D02*
X135639819Y-81831904D01*
X135639819Y-81546190D02*
X134639819Y-81546190D01*
X134639819Y-81546190D02*
X134782676Y-81641428D01*
X134782676Y-81641428D02*
X134877914Y-81736666D01*
X134877914Y-81736666D02*
X134925533Y-81831904D01*
X89542142Y-74029580D02*
X89494523Y-74077200D01*
X89494523Y-74077200D02*
X89351666Y-74124819D01*
X89351666Y-74124819D02*
X89256428Y-74124819D01*
X89256428Y-74124819D02*
X89113571Y-74077200D01*
X89113571Y-74077200D02*
X89018333Y-73981961D01*
X89018333Y-73981961D02*
X88970714Y-73886723D01*
X88970714Y-73886723D02*
X88923095Y-73696247D01*
X88923095Y-73696247D02*
X88923095Y-73553390D01*
X88923095Y-73553390D02*
X88970714Y-73362914D01*
X88970714Y-73362914D02*
X89018333Y-73267676D01*
X89018333Y-73267676D02*
X89113571Y-73172438D01*
X89113571Y-73172438D02*
X89256428Y-73124819D01*
X89256428Y-73124819D02*
X89351666Y-73124819D01*
X89351666Y-73124819D02*
X89494523Y-73172438D01*
X89494523Y-73172438D02*
X89542142Y-73220057D01*
X90494523Y-74124819D02*
X89923095Y-74124819D01*
X90208809Y-74124819D02*
X90208809Y-73124819D01*
X90208809Y-73124819D02*
X90113571Y-73267676D01*
X90113571Y-73267676D02*
X90018333Y-73362914D01*
X90018333Y-73362914D02*
X89923095Y-73410533D01*
X90875476Y-73220057D02*
X90923095Y-73172438D01*
X90923095Y-73172438D02*
X91018333Y-73124819D01*
X91018333Y-73124819D02*
X91256428Y-73124819D01*
X91256428Y-73124819D02*
X91351666Y-73172438D01*
X91351666Y-73172438D02*
X91399285Y-73220057D01*
X91399285Y-73220057D02*
X91446904Y-73315295D01*
X91446904Y-73315295D02*
X91446904Y-73410533D01*
X91446904Y-73410533D02*
X91399285Y-73553390D01*
X91399285Y-73553390D02*
X90827857Y-74124819D01*
X90827857Y-74124819D02*
X91446904Y-74124819D01*
X139087438Y-84808095D02*
X139039819Y-84903333D01*
X139039819Y-84903333D02*
X139039819Y-85046190D01*
X139039819Y-85046190D02*
X139087438Y-85189047D01*
X139087438Y-85189047D02*
X139182676Y-85284285D01*
X139182676Y-85284285D02*
X139277914Y-85331904D01*
X139277914Y-85331904D02*
X139468390Y-85379523D01*
X139468390Y-85379523D02*
X139611247Y-85379523D01*
X139611247Y-85379523D02*
X139801723Y-85331904D01*
X139801723Y-85331904D02*
X139896961Y-85284285D01*
X139896961Y-85284285D02*
X139992200Y-85189047D01*
X139992200Y-85189047D02*
X140039819Y-85046190D01*
X140039819Y-85046190D02*
X140039819Y-84950952D01*
X140039819Y-84950952D02*
X139992200Y-84808095D01*
X139992200Y-84808095D02*
X139944580Y-84760476D01*
X139944580Y-84760476D02*
X139611247Y-84760476D01*
X139611247Y-84760476D02*
X139611247Y-84950952D01*
X140039819Y-84331904D02*
X139039819Y-84331904D01*
X139039819Y-84331904D02*
X140039819Y-83760476D01*
X140039819Y-83760476D02*
X139039819Y-83760476D01*
X140039819Y-83284285D02*
X139039819Y-83284285D01*
X139039819Y-83284285D02*
X139039819Y-83046190D01*
X139039819Y-83046190D02*
X139087438Y-82903333D01*
X139087438Y-82903333D02*
X139182676Y-82808095D01*
X139182676Y-82808095D02*
X139277914Y-82760476D01*
X139277914Y-82760476D02*
X139468390Y-82712857D01*
X139468390Y-82712857D02*
X139611247Y-82712857D01*
X139611247Y-82712857D02*
X139801723Y-82760476D01*
X139801723Y-82760476D02*
X139896961Y-82808095D01*
X139896961Y-82808095D02*
X139992200Y-82903333D01*
X139992200Y-82903333D02*
X140039819Y-83046190D01*
X140039819Y-83046190D02*
X140039819Y-83284285D01*
X139135057Y-82331904D02*
X139087438Y-82284285D01*
X139087438Y-82284285D02*
X139039819Y-82189047D01*
X139039819Y-82189047D02*
X139039819Y-81950952D01*
X139039819Y-81950952D02*
X139087438Y-81855714D01*
X139087438Y-81855714D02*
X139135057Y-81808095D01*
X139135057Y-81808095D02*
X139230295Y-81760476D01*
X139230295Y-81760476D02*
X139325533Y-81760476D01*
X139325533Y-81760476D02*
X139468390Y-81808095D01*
X139468390Y-81808095D02*
X140039819Y-82379523D01*
X140039819Y-82379523D02*
X140039819Y-81760476D01*
X134639819Y-81041428D02*
X134639819Y-80470000D01*
X135639819Y-80755714D02*
X134639819Y-80755714D01*
X135639819Y-80136666D02*
X134639819Y-80136666D01*
X134639819Y-80136666D02*
X134639819Y-79755714D01*
X134639819Y-79755714D02*
X134687438Y-79660476D01*
X134687438Y-79660476D02*
X134735057Y-79612857D01*
X134735057Y-79612857D02*
X134830295Y-79565238D01*
X134830295Y-79565238D02*
X134973152Y-79565238D01*
X134973152Y-79565238D02*
X135068390Y-79612857D01*
X135068390Y-79612857D02*
X135116009Y-79660476D01*
X135116009Y-79660476D02*
X135163628Y-79755714D01*
X135163628Y-79755714D02*
X135163628Y-80136666D01*
X135735057Y-79374762D02*
X135735057Y-78612857D01*
X134639819Y-78184285D02*
X134639819Y-77993809D01*
X134639819Y-77993809D02*
X134687438Y-77898571D01*
X134687438Y-77898571D02*
X134782676Y-77803333D01*
X134782676Y-77803333D02*
X134973152Y-77755714D01*
X134973152Y-77755714D02*
X135306485Y-77755714D01*
X135306485Y-77755714D02*
X135496961Y-77803333D01*
X135496961Y-77803333D02*
X135592200Y-77898571D01*
X135592200Y-77898571D02*
X135639819Y-77993809D01*
X135639819Y-77993809D02*
X135639819Y-78184285D01*
X135639819Y-78184285D02*
X135592200Y-78279523D01*
X135592200Y-78279523D02*
X135496961Y-78374761D01*
X135496961Y-78374761D02*
X135306485Y-78422380D01*
X135306485Y-78422380D02*
X134973152Y-78422380D01*
X134973152Y-78422380D02*
X134782676Y-78374761D01*
X134782676Y-78374761D02*
X134687438Y-78279523D01*
X134687438Y-78279523D02*
X134639819Y-78184285D01*
X134639819Y-77327142D02*
X135449342Y-77327142D01*
X135449342Y-77327142D02*
X135544580Y-77279523D01*
X135544580Y-77279523D02*
X135592200Y-77231904D01*
X135592200Y-77231904D02*
X135639819Y-77136666D01*
X135639819Y-77136666D02*
X135639819Y-76946190D01*
X135639819Y-76946190D02*
X135592200Y-76850952D01*
X135592200Y-76850952D02*
X135544580Y-76803333D01*
X135544580Y-76803333D02*
X135449342Y-76755714D01*
X135449342Y-76755714D02*
X134639819Y-76755714D01*
X134639819Y-76422380D02*
X134639819Y-75850952D01*
X135639819Y-76136666D02*
X134639819Y-76136666D01*
X135639819Y-74993809D02*
X135639819Y-75565237D01*
X135639819Y-75279523D02*
X134639819Y-75279523D01*
X134639819Y-75279523D02*
X134782676Y-75374761D01*
X134782676Y-75374761D02*
X134877914Y-75469999D01*
X134877914Y-75469999D02*
X134925533Y-75565237D01*
D12*
%TO.C,C13*%
X45449759Y-73196000D02*
X46079759Y-73196000D01*
X45764759Y-72881000D02*
X45764759Y-73511000D01*
X48950000Y-71805000D02*
X48950000Y-78265000D01*
X48990000Y-71805000D02*
X48990000Y-78265000D01*
X49030000Y-71806000D02*
X49030000Y-78264000D01*
X49070000Y-71807000D02*
X49070000Y-78263000D01*
X49110000Y-71809000D02*
X49110000Y-78261000D01*
X49150000Y-71811000D02*
X49150000Y-78259000D01*
X49190000Y-71814000D02*
X49190000Y-73995000D01*
X49190000Y-76075000D02*
X49190000Y-78256000D01*
X49230000Y-71817000D02*
X49230000Y-73995000D01*
X49230000Y-76075000D02*
X49230000Y-78253000D01*
X49270000Y-71821000D02*
X49270000Y-73995000D01*
X49270000Y-76075000D02*
X49270000Y-78249000D01*
X49310000Y-71825000D02*
X49310000Y-73995000D01*
X49310000Y-76075000D02*
X49310000Y-78245000D01*
X49350000Y-71830000D02*
X49350000Y-73995000D01*
X49350000Y-76075000D02*
X49350000Y-78240000D01*
X49390000Y-71835000D02*
X49390000Y-73995000D01*
X49390000Y-76075000D02*
X49390000Y-78235000D01*
X49430000Y-71840000D02*
X49430000Y-73995000D01*
X49430000Y-76075000D02*
X49430000Y-78230000D01*
X49470000Y-71847000D02*
X49470000Y-73995000D01*
X49470000Y-76075000D02*
X49470000Y-78223000D01*
X49510000Y-71853000D02*
X49510000Y-73995000D01*
X49510000Y-76075000D02*
X49510000Y-78217000D01*
X49550000Y-71861000D02*
X49550000Y-73995000D01*
X49550000Y-76075000D02*
X49550000Y-78209000D01*
X49590000Y-71868000D02*
X49590000Y-73995000D01*
X49590000Y-76075000D02*
X49590000Y-78202000D01*
X49630000Y-71876000D02*
X49630000Y-73995000D01*
X49630000Y-76075000D02*
X49630000Y-78194000D01*
X49670000Y-71885000D02*
X49670000Y-73995000D01*
X49670000Y-76075000D02*
X49670000Y-78185000D01*
X49710000Y-71895000D02*
X49710000Y-73995000D01*
X49710000Y-76075000D02*
X49710000Y-78175000D01*
X49750000Y-71904000D02*
X49750000Y-73995000D01*
X49750000Y-76075000D02*
X49750000Y-78166000D01*
X49790000Y-71915000D02*
X49790000Y-73995000D01*
X49790000Y-76075000D02*
X49790000Y-78155000D01*
X49830000Y-71926000D02*
X49830000Y-73995000D01*
X49830000Y-76075000D02*
X49830000Y-78144000D01*
X49870000Y-71937000D02*
X49870000Y-73995000D01*
X49870000Y-76075000D02*
X49870000Y-78133000D01*
X49910000Y-71949000D02*
X49910000Y-73995000D01*
X49910000Y-76075000D02*
X49910000Y-78121000D01*
X49950000Y-71962000D02*
X49950000Y-73995000D01*
X49950000Y-76075000D02*
X49950000Y-78108000D01*
X49990000Y-71975000D02*
X49990000Y-73995000D01*
X49990000Y-76075000D02*
X49990000Y-78095000D01*
X50030000Y-71988000D02*
X50030000Y-73995000D01*
X50030000Y-76075000D02*
X50030000Y-78082000D01*
X50070000Y-72003000D02*
X50070000Y-73995000D01*
X50070000Y-76075000D02*
X50070000Y-78067000D01*
X50110000Y-72018000D02*
X50110000Y-73995000D01*
X50110000Y-76075000D02*
X50110000Y-78052000D01*
X50150000Y-72033000D02*
X50150000Y-73995000D01*
X50150000Y-76075000D02*
X50150000Y-78037000D01*
X50190000Y-72049000D02*
X50190000Y-73995000D01*
X50190000Y-76075000D02*
X50190000Y-78021000D01*
X50230000Y-72066000D02*
X50230000Y-73995000D01*
X50230000Y-76075000D02*
X50230000Y-78004000D01*
X50270000Y-72083000D02*
X50270000Y-73995000D01*
X50270000Y-76075000D02*
X50270000Y-77987000D01*
X50310000Y-72101000D02*
X50310000Y-73995000D01*
X50310000Y-76075000D02*
X50310000Y-77969000D01*
X50350000Y-72120000D02*
X50350000Y-73995000D01*
X50350000Y-76075000D02*
X50350000Y-77950000D01*
X50390000Y-72139000D02*
X50390000Y-73995000D01*
X50390000Y-76075000D02*
X50390000Y-77931000D01*
X50430000Y-72159000D02*
X50430000Y-73995000D01*
X50430000Y-76075000D02*
X50430000Y-77911000D01*
X50470000Y-72180000D02*
X50470000Y-73995000D01*
X50470000Y-76075000D02*
X50470000Y-77890000D01*
X50510000Y-72201000D02*
X50510000Y-73995000D01*
X50510000Y-76075000D02*
X50510000Y-77869000D01*
X50550000Y-72223000D02*
X50550000Y-73995000D01*
X50550000Y-76075000D02*
X50550000Y-77847000D01*
X50590000Y-72246000D02*
X50590000Y-73995000D01*
X50590000Y-76075000D02*
X50590000Y-77824000D01*
X50630000Y-72270000D02*
X50630000Y-73995000D01*
X50630000Y-76075000D02*
X50630000Y-77800000D01*
X50670000Y-72294000D02*
X50670000Y-73995000D01*
X50670000Y-76075000D02*
X50670000Y-77776000D01*
X50710000Y-72319000D02*
X50710000Y-73995000D01*
X50710000Y-76075000D02*
X50710000Y-77751000D01*
X50750000Y-72345000D02*
X50750000Y-73995000D01*
X50750000Y-76075000D02*
X50750000Y-77725000D01*
X50790000Y-72372000D02*
X50790000Y-73995000D01*
X50790000Y-76075000D02*
X50790000Y-77698000D01*
X50830000Y-72399000D02*
X50830000Y-73995000D01*
X50830000Y-76075000D02*
X50830000Y-77671000D01*
X50870000Y-72428000D02*
X50870000Y-73995000D01*
X50870000Y-76075000D02*
X50870000Y-77642000D01*
X50910000Y-72458000D02*
X50910000Y-73995000D01*
X50910000Y-76075000D02*
X50910000Y-77612000D01*
X50950000Y-72488000D02*
X50950000Y-73995000D01*
X50950000Y-76075000D02*
X50950000Y-77582000D01*
X50990000Y-72519000D02*
X50990000Y-73995000D01*
X50990000Y-76075000D02*
X50990000Y-77551000D01*
X51030000Y-72552000D02*
X51030000Y-73995000D01*
X51030000Y-76075000D02*
X51030000Y-77518000D01*
X51070000Y-72585000D02*
X51070000Y-73995000D01*
X51070000Y-76075000D02*
X51070000Y-77485000D01*
X51110000Y-72620000D02*
X51110000Y-73995000D01*
X51110000Y-76075000D02*
X51110000Y-77450000D01*
X51150000Y-72656000D02*
X51150000Y-73995000D01*
X51150000Y-76075000D02*
X51150000Y-77414000D01*
X51190000Y-72693000D02*
X51190000Y-73995000D01*
X51190000Y-76075000D02*
X51190000Y-77377000D01*
X51230000Y-72731000D02*
X51230000Y-73995000D01*
X51230000Y-76075000D02*
X51230000Y-77339000D01*
X51270000Y-72771000D02*
X51270000Y-77299000D01*
X51310000Y-72812000D02*
X51310000Y-77258000D01*
X51350000Y-72854000D02*
X51350000Y-77216000D01*
X51390000Y-72898000D02*
X51390000Y-77172000D01*
X51430000Y-72944000D02*
X51430000Y-77126000D01*
X51470000Y-72991000D02*
X51470000Y-77079000D01*
X51510000Y-73040000D02*
X51510000Y-77030000D01*
X51550000Y-73092000D02*
X51550000Y-76978000D01*
X51590000Y-73145000D02*
X51590000Y-76925000D01*
X51630000Y-73201000D02*
X51630000Y-76869000D01*
X51670000Y-73260000D02*
X51670000Y-76810000D01*
X51710000Y-73321000D02*
X51710000Y-76749000D01*
X51750000Y-73386000D02*
X51750000Y-76684000D01*
X51790000Y-73454000D02*
X51790000Y-76616000D01*
X51830000Y-73526000D02*
X51830000Y-76544000D01*
X51870000Y-73603000D02*
X51870000Y-76467000D01*
X51910000Y-73685000D02*
X51910000Y-76385000D01*
X51950000Y-73774000D02*
X51950000Y-76296000D01*
X51990000Y-73870000D02*
X51990000Y-76200000D01*
X52030000Y-73977000D02*
X52030000Y-76093000D01*
X52070000Y-74096000D02*
X52070000Y-75974000D01*
X52110000Y-74234000D02*
X52110000Y-75836000D01*
X52150000Y-74402000D02*
X52150000Y-75668000D01*
X52190000Y-74633000D02*
X52190000Y-75437000D01*
X52220000Y-75035000D02*
G75*
G02*
X45680000Y-75035000I-3270000J0D01*
G01*
X45680000Y-75035000D02*
G75*
G02*
X52220000Y-75035000I3270000J0D01*
G01*
%TO.C,C3*%
X45449759Y-81496000D02*
X46079759Y-81496000D01*
X45764759Y-81181000D02*
X45764759Y-81811000D01*
X48950000Y-80105000D02*
X48950000Y-86565000D01*
X48990000Y-80105000D02*
X48990000Y-86565000D01*
X49030000Y-80106000D02*
X49030000Y-86564000D01*
X49070000Y-80107000D02*
X49070000Y-86563000D01*
X49110000Y-80109000D02*
X49110000Y-86561000D01*
X49150000Y-80111000D02*
X49150000Y-86559000D01*
X49190000Y-80114000D02*
X49190000Y-82295000D01*
X49190000Y-84375000D02*
X49190000Y-86556000D01*
X49230000Y-80117000D02*
X49230000Y-82295000D01*
X49230000Y-84375000D02*
X49230000Y-86553000D01*
X49270000Y-80121000D02*
X49270000Y-82295000D01*
X49270000Y-84375000D02*
X49270000Y-86549000D01*
X49310000Y-80125000D02*
X49310000Y-82295000D01*
X49310000Y-84375000D02*
X49310000Y-86545000D01*
X49350000Y-80130000D02*
X49350000Y-82295000D01*
X49350000Y-84375000D02*
X49350000Y-86540000D01*
X49390000Y-80135000D02*
X49390000Y-82295000D01*
X49390000Y-84375000D02*
X49390000Y-86535000D01*
X49430000Y-80140000D02*
X49430000Y-82295000D01*
X49430000Y-84375000D02*
X49430000Y-86530000D01*
X49470000Y-80147000D02*
X49470000Y-82295000D01*
X49470000Y-84375000D02*
X49470000Y-86523000D01*
X49510000Y-80153000D02*
X49510000Y-82295000D01*
X49510000Y-84375000D02*
X49510000Y-86517000D01*
X49550000Y-80161000D02*
X49550000Y-82295000D01*
X49550000Y-84375000D02*
X49550000Y-86509000D01*
X49590000Y-80168000D02*
X49590000Y-82295000D01*
X49590000Y-84375000D02*
X49590000Y-86502000D01*
X49630000Y-80176000D02*
X49630000Y-82295000D01*
X49630000Y-84375000D02*
X49630000Y-86494000D01*
X49670000Y-80185000D02*
X49670000Y-82295000D01*
X49670000Y-84375000D02*
X49670000Y-86485000D01*
X49710000Y-80195000D02*
X49710000Y-82295000D01*
X49710000Y-84375000D02*
X49710000Y-86475000D01*
X49750000Y-80204000D02*
X49750000Y-82295000D01*
X49750000Y-84375000D02*
X49750000Y-86466000D01*
X49790000Y-80215000D02*
X49790000Y-82295000D01*
X49790000Y-84375000D02*
X49790000Y-86455000D01*
X49830000Y-80226000D02*
X49830000Y-82295000D01*
X49830000Y-84375000D02*
X49830000Y-86444000D01*
X49870000Y-80237000D02*
X49870000Y-82295000D01*
X49870000Y-84375000D02*
X49870000Y-86433000D01*
X49910000Y-80249000D02*
X49910000Y-82295000D01*
X49910000Y-84375000D02*
X49910000Y-86421000D01*
X49950000Y-80262000D02*
X49950000Y-82295000D01*
X49950000Y-84375000D02*
X49950000Y-86408000D01*
X49990000Y-80275000D02*
X49990000Y-82295000D01*
X49990000Y-84375000D02*
X49990000Y-86395000D01*
X50030000Y-80288000D02*
X50030000Y-82295000D01*
X50030000Y-84375000D02*
X50030000Y-86382000D01*
X50070000Y-80303000D02*
X50070000Y-82295000D01*
X50070000Y-84375000D02*
X50070000Y-86367000D01*
X50110000Y-80318000D02*
X50110000Y-82295000D01*
X50110000Y-84375000D02*
X50110000Y-86352000D01*
X50150000Y-80333000D02*
X50150000Y-82295000D01*
X50150000Y-84375000D02*
X50150000Y-86337000D01*
X50190000Y-80349000D02*
X50190000Y-82295000D01*
X50190000Y-84375000D02*
X50190000Y-86321000D01*
X50230000Y-80366000D02*
X50230000Y-82295000D01*
X50230000Y-84375000D02*
X50230000Y-86304000D01*
X50270000Y-80383000D02*
X50270000Y-82295000D01*
X50270000Y-84375000D02*
X50270000Y-86287000D01*
X50310000Y-80401000D02*
X50310000Y-82295000D01*
X50310000Y-84375000D02*
X50310000Y-86269000D01*
X50350000Y-80420000D02*
X50350000Y-82295000D01*
X50350000Y-84375000D02*
X50350000Y-86250000D01*
X50390000Y-80439000D02*
X50390000Y-82295000D01*
X50390000Y-84375000D02*
X50390000Y-86231000D01*
X50430000Y-80459000D02*
X50430000Y-82295000D01*
X50430000Y-84375000D02*
X50430000Y-86211000D01*
X50470000Y-80480000D02*
X50470000Y-82295000D01*
X50470000Y-84375000D02*
X50470000Y-86190000D01*
X50510000Y-80501000D02*
X50510000Y-82295000D01*
X50510000Y-84375000D02*
X50510000Y-86169000D01*
X50550000Y-80523000D02*
X50550000Y-82295000D01*
X50550000Y-84375000D02*
X50550000Y-86147000D01*
X50590000Y-80546000D02*
X50590000Y-82295000D01*
X50590000Y-84375000D02*
X50590000Y-86124000D01*
X50630000Y-80570000D02*
X50630000Y-82295000D01*
X50630000Y-84375000D02*
X50630000Y-86100000D01*
X50670000Y-80594000D02*
X50670000Y-82295000D01*
X50670000Y-84375000D02*
X50670000Y-86076000D01*
X50710000Y-80619000D02*
X50710000Y-82295000D01*
X50710000Y-84375000D02*
X50710000Y-86051000D01*
X50750000Y-80645000D02*
X50750000Y-82295000D01*
X50750000Y-84375000D02*
X50750000Y-86025000D01*
X50790000Y-80672000D02*
X50790000Y-82295000D01*
X50790000Y-84375000D02*
X50790000Y-85998000D01*
X50830000Y-80699000D02*
X50830000Y-82295000D01*
X50830000Y-84375000D02*
X50830000Y-85971000D01*
X50870000Y-80728000D02*
X50870000Y-82295000D01*
X50870000Y-84375000D02*
X50870000Y-85942000D01*
X50910000Y-80758000D02*
X50910000Y-82295000D01*
X50910000Y-84375000D02*
X50910000Y-85912000D01*
X50950000Y-80788000D02*
X50950000Y-82295000D01*
X50950000Y-84375000D02*
X50950000Y-85882000D01*
X50990000Y-80819000D02*
X50990000Y-82295000D01*
X50990000Y-84375000D02*
X50990000Y-85851000D01*
X51030000Y-80852000D02*
X51030000Y-82295000D01*
X51030000Y-84375000D02*
X51030000Y-85818000D01*
X51070000Y-80885000D02*
X51070000Y-82295000D01*
X51070000Y-84375000D02*
X51070000Y-85785000D01*
X51110000Y-80920000D02*
X51110000Y-82295000D01*
X51110000Y-84375000D02*
X51110000Y-85750000D01*
X51150000Y-80956000D02*
X51150000Y-82295000D01*
X51150000Y-84375000D02*
X51150000Y-85714000D01*
X51190000Y-80993000D02*
X51190000Y-82295000D01*
X51190000Y-84375000D02*
X51190000Y-85677000D01*
X51230000Y-81031000D02*
X51230000Y-82295000D01*
X51230000Y-84375000D02*
X51230000Y-85639000D01*
X51270000Y-81071000D02*
X51270000Y-85599000D01*
X51310000Y-81112000D02*
X51310000Y-85558000D01*
X51350000Y-81154000D02*
X51350000Y-85516000D01*
X51390000Y-81198000D02*
X51390000Y-85472000D01*
X51430000Y-81244000D02*
X51430000Y-85426000D01*
X51470000Y-81291000D02*
X51470000Y-85379000D01*
X51510000Y-81340000D02*
X51510000Y-85330000D01*
X51550000Y-81392000D02*
X51550000Y-85278000D01*
X51590000Y-81445000D02*
X51590000Y-85225000D01*
X51630000Y-81501000D02*
X51630000Y-85169000D01*
X51670000Y-81560000D02*
X51670000Y-85110000D01*
X51710000Y-81621000D02*
X51710000Y-85049000D01*
X51750000Y-81686000D02*
X51750000Y-84984000D01*
X51790000Y-81754000D02*
X51790000Y-84916000D01*
X51830000Y-81826000D02*
X51830000Y-84844000D01*
X51870000Y-81903000D02*
X51870000Y-84767000D01*
X51910000Y-81985000D02*
X51910000Y-84685000D01*
X51950000Y-82074000D02*
X51950000Y-84596000D01*
X51990000Y-82170000D02*
X51990000Y-84500000D01*
X52030000Y-82277000D02*
X52030000Y-84393000D01*
X52070000Y-82396000D02*
X52070000Y-84274000D01*
X52110000Y-82534000D02*
X52110000Y-84136000D01*
X52150000Y-82702000D02*
X52150000Y-83968000D01*
X52190000Y-82933000D02*
X52190000Y-83737000D01*
X52220000Y-83335000D02*
G75*
G02*
X45680000Y-83335000I-3270000J0D01*
G01*
X45680000Y-83335000D02*
G75*
G02*
X52220000Y-83335000I3270000J0D01*
G01*
%TO.C,D1*%
X60415000Y-49360000D02*
X60415000Y-54800000D01*
X60415000Y-54800000D02*
X60745000Y-54800000D01*
X60745000Y-49360000D02*
X60415000Y-49360000D01*
X63025000Y-49360000D02*
X63355000Y-49360000D01*
X63355000Y-49360000D02*
X63355000Y-54800000D01*
X63355000Y-50140000D02*
X60415000Y-50140000D01*
X63355000Y-50260000D02*
X60415000Y-50260000D01*
X63355000Y-50380000D02*
X60415000Y-50380000D01*
X63355000Y-54800000D02*
X63025000Y-54800000D01*
%TO.C,C11*%
X86565000Y-77650000D02*
X93805000Y-77650000D01*
X86565000Y-80390000D02*
X86565000Y-77650000D01*
X93805000Y-77650000D02*
X93805000Y-80390000D01*
X93805000Y-80390000D02*
X86565000Y-80390000D01*
%TO.C,RV2*%
X43477000Y-35361600D02*
X43477000Y-45101600D01*
X46537000Y-35361600D02*
X43477000Y-35361600D01*
X46537000Y-45101600D02*
X43477000Y-45101600D01*
X55067000Y-35361600D02*
X50347000Y-35361600D01*
X55067000Y-35361600D02*
X55067000Y-36851600D01*
X55067000Y-38571600D02*
X55067000Y-39401600D01*
X55067000Y-41021600D02*
X55067000Y-41551600D01*
X55067000Y-43921600D02*
X55067000Y-45101600D01*
X55067000Y-45111600D02*
X50347000Y-45111600D01*
%TO.C,C6*%
X87565000Y-55000000D02*
X94805000Y-55000000D01*
X87565000Y-57740000D02*
X87565000Y-55000000D01*
X94805000Y-55000000D02*
X94805000Y-57740000D01*
X94805000Y-57740000D02*
X87565000Y-57740000D01*
%TO.C,GND1*%
X136435000Y-77420000D02*
X138335000Y-77420000D01*
X136435000Y-79320000D02*
X136435000Y-77420000D01*
X138335000Y-77420000D02*
X138335000Y-79320000D01*
X138335000Y-79320000D02*
X136435000Y-79320000D01*
%TO.C,R6*%
X58415000Y-36900000D02*
X58415000Y-43440000D01*
X58415000Y-43440000D02*
X58745000Y-43440000D01*
X58745000Y-36900000D02*
X58415000Y-36900000D01*
X60825000Y-36900000D02*
X61155000Y-36900000D01*
X61155000Y-36900000D02*
X61155000Y-43440000D01*
X61155000Y-43440000D02*
X60825000Y-43440000D01*
%TO.C,U2*%
X60385000Y-63680000D02*
X63985000Y-63680000D01*
X59828600Y-60731193D02*
G75*
G02*
X62185000Y-59230000I2356400J-1098807D01*
G01*
X60385000Y-63680000D02*
G75*
G02*
X59860816Y-62952795I1800000J1850000D01*
G01*
X62185000Y-59230000D02*
G75*
G02*
X64541400Y-60731193I0J-2600000D01*
G01*
X64509184Y-62952795D02*
G75*
G02*
X63985000Y-63680000I-2324184J1122795D01*
G01*
%TO.C,TP_5V1*%
X127735000Y-77420000D02*
X129635000Y-77420000D01*
X127735000Y-79320000D02*
X127735000Y-77420000D01*
X129635000Y-77420000D02*
X129635000Y-79320000D01*
X129635000Y-79320000D02*
X127735000Y-79320000D01*
%TO.C,J3*%
X104180000Y-63840000D02*
X108930000Y-63840000D01*
X104180000Y-66470000D02*
X104180000Y-63840000D01*
X104180000Y-79170000D02*
X104180000Y-69270000D01*
X104180000Y-84690000D02*
X104180000Y-81970000D01*
X104180000Y-84690000D02*
X107580000Y-84690000D01*
X107580000Y-84690000D02*
X107580000Y-87690000D01*
X107580000Y-87690000D02*
X119220000Y-87690000D01*
X108930000Y-60920000D02*
X108930000Y-63840000D01*
X108970000Y-60920000D02*
X117870000Y-60920000D01*
X117870000Y-60920000D02*
X117870000Y-63840000D01*
X117870000Y-63840000D02*
X122620000Y-63840000D01*
X119220000Y-84690000D02*
X119220000Y-87690000D01*
X119220000Y-84690000D02*
X122620000Y-84690000D01*
X122620000Y-63840000D02*
X122620000Y-66470000D01*
X122620000Y-69270000D02*
X122620000Y-79170000D01*
X122620000Y-84690000D02*
X122620000Y-81970000D01*
%TO.C,C5*%
X57780000Y-73731667D02*
X65020000Y-73731667D01*
X57780000Y-76471667D02*
X57780000Y-73731667D01*
X65020000Y-73731667D02*
X65020000Y-76471667D01*
X65020000Y-76471667D02*
X57780000Y-76471667D01*
%TO.C,R2*%
X87915000Y-36876800D02*
X94455000Y-36876800D01*
X87915000Y-37206800D02*
X87915000Y-36876800D01*
X87915000Y-39286800D02*
X87915000Y-39616800D01*
X87915000Y-39616800D02*
X94455000Y-39616800D01*
X94455000Y-36876800D02*
X94455000Y-37206800D01*
X94455000Y-39616800D02*
X94455000Y-39286800D01*
%TO.C,J1*%
X42585000Y-60770000D02*
X56585000Y-60770000D01*
X56585000Y-69770000D01*
X42585000Y-69770000D01*
X42585000Y-60770000D01*
D13*
%TO.C,G\u002A\u002A\u002A*%
G36*
X76738656Y-40132834D02*
G01*
X76737240Y-40150513D01*
X76735603Y-40174307D01*
X76733962Y-40200927D01*
X76732690Y-40223956D01*
X76729623Y-40283311D01*
X76667915Y-40286247D01*
X76640663Y-40287495D01*
X76607525Y-40288936D01*
X76572022Y-40290422D01*
X76537675Y-40291804D01*
X76525024Y-40292296D01*
X76443840Y-40295408D01*
X76443840Y-40657103D01*
X76443840Y-41018798D01*
X76337948Y-41018798D01*
X76232056Y-41018798D01*
X76232056Y-40656412D01*
X76232056Y-40294025D01*
X76083807Y-40294025D01*
X75935558Y-40294025D01*
X75935558Y-40197546D01*
X75935558Y-40101066D01*
X76338556Y-40101066D01*
X76741555Y-40101066D01*
X76738656Y-40132834D01*
G37*
G36*
X78699802Y-40212841D02*
G01*
X78700453Y-40240022D01*
X78701179Y-40275177D01*
X78701956Y-40316869D01*
X78702760Y-40363661D01*
X78703568Y-40414115D01*
X78704356Y-40466793D01*
X78705100Y-40520258D01*
X78705777Y-40573072D01*
X78705853Y-40579274D01*
X78708923Y-40833931D01*
X78836499Y-40836926D01*
X78879072Y-40837923D01*
X78927729Y-40839058D01*
X78979141Y-40840254D01*
X79029981Y-40841433D01*
X79076921Y-40842519D01*
X79097027Y-40842982D01*
X79229981Y-40846043D01*
X79229981Y-40932421D01*
X79229981Y-41018798D01*
X78858182Y-41018798D01*
X78486383Y-41018798D01*
X78486383Y-40559932D01*
X78486383Y-40101066D01*
X78591603Y-40101066D01*
X78696823Y-40101066D01*
X78699802Y-40212841D01*
G37*
G36*
X73483566Y-40559932D02*
G01*
X73483566Y-41018798D01*
X73378096Y-41018798D01*
X73272627Y-41018798D01*
X73268801Y-40977618D01*
X73268069Y-40964757D01*
X73267419Y-40943417D01*
X73266850Y-40914528D01*
X73266362Y-40879022D01*
X73265954Y-40837832D01*
X73265627Y-40791890D01*
X73265381Y-40742127D01*
X73265215Y-40689476D01*
X73265129Y-40634868D01*
X73265123Y-40579236D01*
X73265197Y-40523512D01*
X73265351Y-40468626D01*
X73265584Y-40415512D01*
X73265897Y-40365102D01*
X73266289Y-40318327D01*
X73266760Y-40276119D01*
X73267310Y-40239410D01*
X73267940Y-40209133D01*
X73268648Y-40186219D01*
X73268924Y-40179897D01*
X73272784Y-40101066D01*
X73378175Y-40101066D01*
X73483566Y-40101066D01*
X73483566Y-40559932D01*
G37*
G36*
X78078109Y-40097991D02*
G01*
X78092165Y-40099212D01*
X78112991Y-40100614D01*
X78137952Y-40102037D01*
X78164413Y-40103320D01*
X78168706Y-40103506D01*
X78193707Y-40104693D01*
X78216228Y-40105993D01*
X78234143Y-40107266D01*
X78245325Y-40108374D01*
X78246858Y-40108616D01*
X78259122Y-40110928D01*
X78262207Y-40469560D01*
X78262754Y-40529755D01*
X78263351Y-40589385D01*
X78263985Y-40647448D01*
X78264643Y-40702943D01*
X78265311Y-40754871D01*
X78265975Y-40802229D01*
X78266623Y-40844016D01*
X78267241Y-40879233D01*
X78267817Y-40906878D01*
X78268256Y-40923495D01*
X78271219Y-41018798D01*
X78162310Y-41018798D01*
X78053401Y-41018798D01*
X78053401Y-40557037D01*
X78053401Y-40095275D01*
X78078109Y-40097991D01*
G37*
G36*
X76150916Y-37672645D02*
G01*
X76176344Y-37681239D01*
X76204239Y-37698406D01*
X76229569Y-37720766D01*
X76249450Y-37745621D01*
X76254575Y-37754386D01*
X76261336Y-37768830D01*
X76265169Y-37782338D01*
X76266818Y-37798586D01*
X76267063Y-37816148D01*
X76264458Y-37849452D01*
X76256320Y-37877280D01*
X76241661Y-37902398D01*
X76231982Y-37914346D01*
X76208690Y-37934399D01*
X76180188Y-37948873D01*
X76148997Y-37957059D01*
X76117636Y-37958248D01*
X76093220Y-37953392D01*
X76067246Y-37943106D01*
X76047025Y-37930649D01*
X76028897Y-37913730D01*
X76027624Y-37912332D01*
X76005948Y-37882373D01*
X75993469Y-37851020D01*
X75990167Y-37818795D01*
X75996022Y-37786221D01*
X76011016Y-37753820D01*
X76034670Y-37722612D01*
X76062962Y-37696652D01*
X76092049Y-37679588D01*
X76121507Y-37671545D01*
X76150916Y-37672645D01*
G37*
G36*
X74468652Y-37673576D02*
G01*
X74507780Y-37680321D01*
X74543256Y-37694854D01*
X74573864Y-37716435D01*
X74598390Y-37744319D01*
X74606707Y-37757958D01*
X74613300Y-37777643D01*
X74615865Y-37802457D01*
X74614485Y-37829064D01*
X74609246Y-37854126D01*
X74603916Y-37867795D01*
X74584843Y-37897462D01*
X74560097Y-37922085D01*
X74531266Y-37940863D01*
X74499939Y-37952997D01*
X74467703Y-37957683D01*
X74436148Y-37954122D01*
X74433954Y-37953529D01*
X74406451Y-37941454D01*
X74380413Y-37922177D01*
X74358086Y-37897876D01*
X74341712Y-37870729D01*
X74337424Y-37859839D01*
X74332104Y-37832788D01*
X74332228Y-37803232D01*
X74337546Y-37775169D01*
X74343714Y-37759534D01*
X74358212Y-37736763D01*
X74377566Y-37713917D01*
X74398776Y-37694241D01*
X74413794Y-37683695D01*
X74426143Y-37677156D01*
X74437183Y-37673745D01*
X74450520Y-37672798D01*
X74468652Y-37673576D01*
G37*
G36*
X75052820Y-40182250D02*
G01*
X75054003Y-40214208D01*
X75055374Y-40252187D01*
X75056813Y-40292803D01*
X75058200Y-40332669D01*
X75059209Y-40362267D01*
X75062536Y-40461099D01*
X75277402Y-40462323D01*
X75492268Y-40463547D01*
X75494889Y-40441145D01*
X75495700Y-40430388D01*
X75496618Y-40411755D01*
X75497590Y-40386779D01*
X75498560Y-40356996D01*
X75499473Y-40323939D01*
X75500171Y-40294025D01*
X75501006Y-40258555D01*
X75501958Y-40224282D01*
X75502969Y-40192919D01*
X75503980Y-40166178D01*
X75504932Y-40145772D01*
X75505610Y-40135187D01*
X75508389Y-40101066D01*
X75613728Y-40101066D01*
X75719067Y-40101066D01*
X75719067Y-40559932D01*
X75719067Y-41018798D01*
X75613728Y-41018798D01*
X75508389Y-41018798D01*
X75505610Y-40984677D01*
X75504746Y-40970545D01*
X75503777Y-40948714D01*
X75502762Y-40920896D01*
X75501758Y-40888804D01*
X75500825Y-40854150D01*
X75500171Y-40825839D01*
X75499351Y-40791197D01*
X75498428Y-40758509D01*
X75497456Y-40729310D01*
X75496490Y-40705134D01*
X75495585Y-40687515D01*
X75494896Y-40678767D01*
X75492281Y-40656412D01*
X75276932Y-40656412D01*
X75061582Y-40656412D01*
X75058469Y-40770540D01*
X75057412Y-40807392D01*
X75056222Y-40845694D01*
X75054985Y-40882941D01*
X75053784Y-40916629D01*
X75052703Y-40944253D01*
X75052381Y-40951733D01*
X75049408Y-41018798D01*
X74944197Y-41018798D01*
X74838986Y-41018798D01*
X74838986Y-40559932D01*
X74838986Y-40101066D01*
X74944372Y-40101066D01*
X75049758Y-40101066D01*
X75052820Y-40182250D01*
G37*
G36*
X79657687Y-40098943D02*
G01*
X79657737Y-40098979D01*
X79658112Y-40103880D01*
X79658595Y-40117472D01*
X79659172Y-40139034D01*
X79659829Y-40167844D01*
X79660552Y-40203182D01*
X79661328Y-40244327D01*
X79662142Y-40290556D01*
X79662981Y-40341150D01*
X79663829Y-40395388D01*
X79664674Y-40452547D01*
X79664857Y-40465353D01*
X79665704Y-40523064D01*
X79666567Y-40578018D01*
X79667433Y-40629491D01*
X79668285Y-40676764D01*
X79669108Y-40719113D01*
X79669889Y-40755816D01*
X79670613Y-40786152D01*
X79671264Y-40809399D01*
X79671828Y-40824835D01*
X79672289Y-40831739D01*
X79672375Y-40832040D01*
X79677291Y-40832508D01*
X79690557Y-40833148D01*
X79711109Y-40833931D01*
X79737887Y-40834831D01*
X79769829Y-40835819D01*
X79805872Y-40836868D01*
X79844956Y-40837950D01*
X79886018Y-40839039D01*
X79927997Y-40840107D01*
X79969832Y-40841126D01*
X80010459Y-40842068D01*
X80048819Y-40842907D01*
X80083848Y-40843614D01*
X80114485Y-40844163D01*
X80139669Y-40844526D01*
X80158338Y-40844675D01*
X80160655Y-40844677D01*
X80190070Y-40844664D01*
X80190070Y-40931731D01*
X80190070Y-41018798D01*
X79818271Y-41018798D01*
X79446471Y-41018798D01*
X79446475Y-40949380D01*
X79446543Y-40925505D01*
X79446736Y-40894923D01*
X79447043Y-40858440D01*
X79447452Y-40816861D01*
X79447951Y-40770991D01*
X79448529Y-40721636D01*
X79449173Y-40669601D01*
X79449873Y-40615692D01*
X79450616Y-40560715D01*
X79451392Y-40505474D01*
X79452187Y-40450776D01*
X79452990Y-40397426D01*
X79453790Y-40346229D01*
X79454575Y-40297992D01*
X79455333Y-40253518D01*
X79456053Y-40213614D01*
X79456723Y-40179086D01*
X79457330Y-40150739D01*
X79457864Y-40129378D01*
X79458313Y-40115809D01*
X79458664Y-40110837D01*
X79458667Y-40110833D01*
X79463844Y-40109862D01*
X79476696Y-40108567D01*
X79495525Y-40107047D01*
X79518634Y-40105403D01*
X79544326Y-40103738D01*
X79570904Y-40102152D01*
X79596672Y-40100746D01*
X79619931Y-40099621D01*
X79638984Y-40098878D01*
X79652135Y-40098618D01*
X79657687Y-40098943D01*
G37*
G36*
X77169735Y-40285789D02*
G01*
X77170967Y-40470512D01*
X77385600Y-40471736D01*
X77600234Y-40472959D01*
X77603226Y-40401141D01*
X77604286Y-40374010D01*
X77605499Y-40340211D01*
X77606773Y-40302483D01*
X77608016Y-40263567D01*
X77609135Y-40226203D01*
X77609315Y-40219901D01*
X77612412Y-40110479D01*
X77719955Y-40110479D01*
X77827498Y-40110479D01*
X77827473Y-40156365D01*
X77827530Y-40168048D01*
X77827700Y-40188358D01*
X77827976Y-40216510D01*
X77828348Y-40251720D01*
X77828808Y-40293204D01*
X77829346Y-40340177D01*
X77829954Y-40391854D01*
X77830622Y-40447450D01*
X77831342Y-40506181D01*
X77832105Y-40567263D01*
X77832621Y-40608024D01*
X77833380Y-40669022D01*
X77834068Y-40727324D01*
X77834680Y-40782243D01*
X77835210Y-40833091D01*
X77835652Y-40879182D01*
X77836000Y-40919830D01*
X77836247Y-40954348D01*
X77836389Y-40982048D01*
X77836418Y-41002245D01*
X77836330Y-41014251D01*
X77836176Y-41017486D01*
X77831223Y-41018293D01*
X77818200Y-41018559D01*
X77798430Y-41018309D01*
X77773240Y-41017569D01*
X77743953Y-41016363D01*
X77724470Y-41015400D01*
X77693351Y-41013717D01*
X77665551Y-41012116D01*
X77642387Y-41010682D01*
X77625177Y-41009498D01*
X77615238Y-41008648D01*
X77613305Y-41008328D01*
X77612805Y-41003488D01*
X77611894Y-40990382D01*
X77610640Y-40970143D01*
X77609108Y-40943904D01*
X77607367Y-40912798D01*
X77605484Y-40877960D01*
X77604472Y-40858783D01*
X77602450Y-40820941D01*
X77600447Y-40784899D01*
X77598545Y-40752064D01*
X77596831Y-40723849D01*
X77595387Y-40701662D01*
X77594298Y-40686914D01*
X77593987Y-40683473D01*
X77591258Y-40656412D01*
X77385342Y-40656412D01*
X77179426Y-40656412D01*
X77176312Y-40770540D01*
X77175255Y-40807392D01*
X77174066Y-40845694D01*
X77172828Y-40882941D01*
X77171627Y-40916629D01*
X77170546Y-40944253D01*
X77170225Y-40951733D01*
X77167251Y-41018798D01*
X77062040Y-41018798D01*
X76956829Y-41018798D01*
X76956829Y-40559932D01*
X76956829Y-40101066D01*
X77062667Y-40101066D01*
X77168504Y-40101066D01*
X77169735Y-40285789D01*
G37*
G36*
X72437366Y-40100074D02*
G01*
X72439560Y-40100332D01*
X72442424Y-40104778D01*
X72449722Y-40116674D01*
X72461074Y-40135386D01*
X72476096Y-40160278D01*
X72494406Y-40190713D01*
X72515624Y-40226055D01*
X72539366Y-40265670D01*
X72565250Y-40308921D01*
X72592895Y-40355172D01*
X72621918Y-40403787D01*
X72622417Y-40404624D01*
X72651429Y-40453234D01*
X72679038Y-40499466D01*
X72704867Y-40542686D01*
X72728536Y-40582263D01*
X72749666Y-40617563D01*
X72767879Y-40647954D01*
X72782796Y-40672803D01*
X72794038Y-40691479D01*
X72801227Y-40703349D01*
X72803982Y-40707780D01*
X72803990Y-40707789D01*
X72807514Y-40707789D01*
X72807949Y-40702858D01*
X72808614Y-40689352D01*
X72809481Y-40668107D01*
X72810521Y-40639958D01*
X72811704Y-40605738D01*
X72813002Y-40566284D01*
X72814386Y-40522429D01*
X72815827Y-40475009D01*
X72817065Y-40432861D01*
X72818560Y-40382239D01*
X72820050Y-40333811D01*
X72821504Y-40288507D01*
X72822888Y-40247257D01*
X72824169Y-40210990D01*
X72825315Y-40180635D01*
X72826294Y-40157123D01*
X72827073Y-40141383D01*
X72827511Y-40135187D01*
X72830065Y-40110479D01*
X72934962Y-40110479D01*
X73039859Y-40110479D01*
X73042835Y-40219901D01*
X73043381Y-40243256D01*
X73043982Y-40274942D01*
X73044626Y-40313876D01*
X73045297Y-40358976D01*
X73045981Y-40409161D01*
X73046664Y-40463346D01*
X73047331Y-40520452D01*
X73047968Y-40579395D01*
X73048561Y-40639094D01*
X73048883Y-40674130D01*
X73051954Y-41018938D01*
X72909242Y-41017692D01*
X72766530Y-41016445D01*
X72582645Y-40711063D01*
X72398760Y-40405682D01*
X72395792Y-40435744D01*
X72395163Y-40446225D01*
X72394463Y-40465109D01*
X72393715Y-40491385D01*
X72392940Y-40524044D01*
X72392160Y-40562074D01*
X72391396Y-40604466D01*
X72390670Y-40650210D01*
X72390004Y-40698296D01*
X72389792Y-40715241D01*
X72389158Y-40763778D01*
X72388466Y-40810224D01*
X72387737Y-40853583D01*
X72386991Y-40892859D01*
X72386250Y-40927059D01*
X72385533Y-40955186D01*
X72384862Y-40976245D01*
X72384257Y-40989243D01*
X72384062Y-40991737D01*
X72381363Y-41018798D01*
X72275261Y-41018798D01*
X72169158Y-41018798D01*
X72172168Y-40819956D01*
X72172855Y-40773430D01*
X72173620Y-40719515D01*
X72174438Y-40660234D01*
X72175281Y-40597612D01*
X72176123Y-40533672D01*
X72176935Y-40470436D01*
X72177692Y-40409929D01*
X72178228Y-40365796D01*
X72178810Y-40317744D01*
X72179375Y-40272625D01*
X72179908Y-40231298D01*
X72180400Y-40194619D01*
X72180837Y-40163446D01*
X72181208Y-40138636D01*
X72181501Y-40121046D01*
X72181704Y-40111534D01*
X72181773Y-40110055D01*
X72186904Y-40109344D01*
X72199930Y-40108424D01*
X72219363Y-40107351D01*
X72243718Y-40106182D01*
X72271507Y-40104972D01*
X72301246Y-40103777D01*
X72331447Y-40102654D01*
X72360624Y-40101659D01*
X72387291Y-40100847D01*
X72409961Y-40100275D01*
X72427149Y-40099999D01*
X72437366Y-40100074D01*
G37*
G36*
X71287318Y-40224098D02*
G01*
X71288576Y-40270364D01*
X71289979Y-40308041D01*
X71291603Y-40337952D01*
X71293522Y-40360922D01*
X71295813Y-40377773D01*
X71298549Y-40389328D01*
X71301807Y-40396412D01*
X71303216Y-40398122D01*
X71308548Y-40398749D01*
X71318328Y-40394086D01*
X71332818Y-40383906D01*
X71352281Y-40367983D01*
X71376980Y-40346090D01*
X71407175Y-40317998D01*
X71443131Y-40283482D01*
X71485110Y-40242314D01*
X71497754Y-40229787D01*
X71627432Y-40101066D01*
X71730717Y-40101178D01*
X71774703Y-40101526D01*
X71809862Y-40102492D01*
X71836761Y-40104121D01*
X71855967Y-40106458D01*
X71868047Y-40109547D01*
X71872690Y-40112301D01*
X71872870Y-40114639D01*
X71870539Y-40119239D01*
X71865363Y-40126457D01*
X71857011Y-40136645D01*
X71845149Y-40150159D01*
X71829444Y-40167351D01*
X71809563Y-40188576D01*
X71785173Y-40214187D01*
X71755942Y-40244540D01*
X71721536Y-40279987D01*
X71681622Y-40320884D01*
X71635867Y-40367583D01*
X71583939Y-40420439D01*
X71559743Y-40445032D01*
X71496813Y-40508972D01*
X71573756Y-40595634D01*
X71631015Y-40660191D01*
X71682227Y-40718076D01*
X71727657Y-40769601D01*
X71767571Y-40815080D01*
X71802234Y-40854823D01*
X71831910Y-40889143D01*
X71856864Y-40918352D01*
X71877361Y-40942761D01*
X71893667Y-40962682D01*
X71906046Y-40978428D01*
X71914763Y-40990311D01*
X71920083Y-40998641D01*
X71922272Y-41003732D01*
X71921990Y-41005640D01*
X71915440Y-41009719D01*
X71904294Y-41012920D01*
X71887673Y-41015318D01*
X71864699Y-41016991D01*
X71834492Y-41018015D01*
X71796175Y-41018468D01*
X71775173Y-41018505D01*
X71669280Y-41018437D01*
X71557733Y-40890371D01*
X71517394Y-40844171D01*
X71482656Y-40804656D01*
X71453043Y-40771320D01*
X71428081Y-40743658D01*
X71407295Y-40721166D01*
X71390210Y-40703337D01*
X71376352Y-40689667D01*
X71365244Y-40679650D01*
X71356414Y-40672783D01*
X71349385Y-40668559D01*
X71349021Y-40668384D01*
X71337737Y-40663505D01*
X71330760Y-40663187D01*
X71323958Y-40667818D01*
X71320442Y-40671067D01*
X71310967Y-40684313D01*
X71303072Y-40704952D01*
X71296712Y-40733307D01*
X71291844Y-40769702D01*
X71288424Y-40814458D01*
X71286409Y-40867899D01*
X71285756Y-40928201D01*
X71285715Y-41018798D01*
X71179823Y-41018798D01*
X71073931Y-41018798D01*
X71074042Y-40899964D01*
X71074169Y-40848738D01*
X71074449Y-40794372D01*
X71074868Y-40737617D01*
X71075412Y-40679225D01*
X71076068Y-40619946D01*
X71076823Y-40560532D01*
X71077662Y-40501735D01*
X71078572Y-40444306D01*
X71079540Y-40388996D01*
X71080552Y-40336557D01*
X71081593Y-40287740D01*
X71082652Y-40243296D01*
X71083714Y-40203977D01*
X71084765Y-40170534D01*
X71085791Y-40143719D01*
X71086781Y-40124282D01*
X71087718Y-40112976D01*
X71088342Y-40110298D01*
X71094630Y-40109002D01*
X71108582Y-40107527D01*
X71128455Y-40106012D01*
X71152506Y-40104600D01*
X71167267Y-40103902D01*
X71194597Y-40102606D01*
X71220366Y-40101182D01*
X71242300Y-40099768D01*
X71258122Y-40098506D01*
X71262629Y-40098026D01*
X71284253Y-40095341D01*
X71287318Y-40224098D01*
G37*
G36*
X74186859Y-40102501D02*
G01*
X74189514Y-40102560D01*
X74228922Y-40103692D01*
X74260657Y-40105169D01*
X74286456Y-40107137D01*
X74308056Y-40109736D01*
X74327195Y-40113112D01*
X74333057Y-40114373D01*
X74394054Y-40131537D01*
X74447496Y-40154131D01*
X74493690Y-40182413D01*
X74532948Y-40216646D01*
X74565579Y-40257087D01*
X74591893Y-40303998D01*
X74608283Y-40345401D01*
X74614210Y-40364996D01*
X74616659Y-40380149D01*
X74614780Y-40391424D01*
X74607724Y-40399383D01*
X74594642Y-40404590D01*
X74574685Y-40407608D01*
X74547003Y-40409000D01*
X74511897Y-40409330D01*
X74478381Y-40409144D01*
X74452829Y-40408264D01*
X74433792Y-40406205D01*
X74419824Y-40402484D01*
X74409476Y-40396617D01*
X74401301Y-40388120D01*
X74393852Y-40376509D01*
X74389412Y-40368379D01*
X74376021Y-40345571D01*
X74362563Y-40328982D01*
X74346290Y-40315807D01*
X74326764Y-40304446D01*
X74301630Y-40292880D01*
X74276195Y-40284949D01*
X74247961Y-40280160D01*
X74214432Y-40278017D01*
X74191867Y-40277792D01*
X74138021Y-40281295D01*
X74088812Y-40291155D01*
X74045074Y-40307085D01*
X74007640Y-40328796D01*
X73982868Y-40350057D01*
X73962876Y-40376472D01*
X73946367Y-40410495D01*
X73933720Y-40450849D01*
X73925311Y-40496258D01*
X73921519Y-40545445D01*
X73921335Y-40558341D01*
X73924215Y-40612657D01*
X73932785Y-40663363D01*
X73946670Y-40709437D01*
X73965495Y-40749855D01*
X73988885Y-40783594D01*
X74012369Y-40806491D01*
X74040991Y-40823946D01*
X74076571Y-40836942D01*
X74117630Y-40845191D01*
X74162688Y-40848406D01*
X74210266Y-40846301D01*
X74215020Y-40845797D01*
X74259494Y-40838754D01*
X74298108Y-40828413D01*
X74330233Y-40815130D01*
X74355239Y-40799263D01*
X74372496Y-40781167D01*
X74381373Y-40761201D01*
X74382473Y-40750872D01*
X74381702Y-40742928D01*
X74378530Y-40737068D01*
X74371671Y-40732891D01*
X74359837Y-40729997D01*
X74341740Y-40727987D01*
X74316095Y-40726461D01*
X74301840Y-40725830D01*
X74274506Y-40724189D01*
X74251869Y-40721846D01*
X74235693Y-40719017D01*
X74229307Y-40716938D01*
X74217968Y-40707174D01*
X74209443Y-40690015D01*
X74203491Y-40664819D01*
X74200546Y-40639945D01*
X74199699Y-40617882D01*
X74201676Y-40599510D01*
X74207203Y-40584504D01*
X74217007Y-40572534D01*
X74231814Y-40563274D01*
X74252348Y-40556395D01*
X74279336Y-40551570D01*
X74313503Y-40548472D01*
X74355576Y-40546773D01*
X74406280Y-40546145D01*
X74408358Y-40546137D01*
X74442999Y-40546233D01*
X74478479Y-40546690D01*
X74512310Y-40547452D01*
X74541999Y-40548460D01*
X74565057Y-40549658D01*
X74567196Y-40549807D01*
X74622495Y-40553801D01*
X74622491Y-40618049D01*
X74621166Y-40681031D01*
X74617119Y-40735640D01*
X74610226Y-40782548D01*
X74600368Y-40822427D01*
X74587422Y-40855951D01*
X74575534Y-40877450D01*
X74547557Y-40912513D01*
X74511529Y-40943448D01*
X74467940Y-40970075D01*
X74417282Y-40992218D01*
X74360046Y-41009697D01*
X74296724Y-41022335D01*
X74227807Y-41029954D01*
X74153787Y-41032376D01*
X74148093Y-41032343D01*
X74120704Y-41031849D01*
X74094059Y-41030897D01*
X74070827Y-41029614D01*
X74053677Y-41028125D01*
X74050677Y-41027739D01*
X74017340Y-41021027D01*
X73979957Y-41010291D01*
X73942296Y-40996754D01*
X73908124Y-40981641D01*
X73906734Y-40980946D01*
X73859553Y-40952976D01*
X73819120Y-40919706D01*
X73785169Y-40880707D01*
X73757436Y-40835549D01*
X73735658Y-40783804D01*
X73719570Y-40725042D01*
X73709019Y-40659803D01*
X73707157Y-40636726D01*
X73705945Y-40606458D01*
X73705433Y-40571201D01*
X73705668Y-40533159D01*
X73705959Y-40518614D01*
X73706986Y-40482924D01*
X73708264Y-40454841D01*
X73709961Y-40432560D01*
X73712245Y-40414274D01*
X73715285Y-40398179D01*
X73718338Y-40385798D01*
X73737906Y-40329734D01*
X73764936Y-40278421D01*
X73798787Y-40232559D01*
X73838819Y-40192846D01*
X73884391Y-40159981D01*
X73934864Y-40134663D01*
X73955415Y-40127093D01*
X73986683Y-40117805D01*
X74018581Y-40110834D01*
X74052828Y-40105998D01*
X74091144Y-40103117D01*
X74135248Y-40102011D01*
X74186859Y-40102501D01*
G37*
G36*
X76037486Y-34711762D02*
G01*
X76045146Y-34723973D01*
X76056784Y-34743958D01*
X76072238Y-34771418D01*
X76091348Y-34806053D01*
X76113954Y-34847562D01*
X76139895Y-34895647D01*
X76169011Y-34950007D01*
X76201140Y-35010343D01*
X76236124Y-35076354D01*
X76273799Y-35147742D01*
X76314008Y-35224206D01*
X76356588Y-35305447D01*
X76401379Y-35391164D01*
X76448221Y-35481058D01*
X76448615Y-35481815D01*
X76469593Y-35522241D01*
X76492147Y-35565908D01*
X76515898Y-35612066D01*
X76540465Y-35659963D01*
X76565467Y-35708848D01*
X76590524Y-35757969D01*
X76615255Y-35806576D01*
X76639280Y-35853917D01*
X76662219Y-35899242D01*
X76683691Y-35941799D01*
X76703315Y-35980836D01*
X76720712Y-36015603D01*
X76735500Y-36045349D01*
X76747299Y-36069322D01*
X76755729Y-36086771D01*
X76760410Y-36096945D01*
X76761198Y-36098972D01*
X76760646Y-36109105D01*
X76755453Y-36126914D01*
X76745754Y-36151961D01*
X76743286Y-36157801D01*
X76729218Y-36190247D01*
X76711505Y-36230387D01*
X76690522Y-36277406D01*
X76666645Y-36330489D01*
X76640250Y-36388821D01*
X76611714Y-36451585D01*
X76581413Y-36517967D01*
X76549723Y-36587151D01*
X76517021Y-36658321D01*
X76483681Y-36730663D01*
X76450082Y-36803361D01*
X76416599Y-36875599D01*
X76383607Y-36946563D01*
X76351484Y-37015436D01*
X76320606Y-37081403D01*
X76291348Y-37143650D01*
X76264088Y-37201360D01*
X76239200Y-37253718D01*
X76217062Y-37299909D01*
X76201691Y-37331652D01*
X76183882Y-37368184D01*
X76169431Y-37397216D01*
X76157497Y-37419671D01*
X76147239Y-37436474D01*
X76137815Y-37448548D01*
X76128383Y-37456817D01*
X76118103Y-37462205D01*
X76106133Y-37465635D01*
X76091630Y-37468031D01*
X76075580Y-37470084D01*
X76024621Y-37481166D01*
X75975715Y-37500750D01*
X75930065Y-37527965D01*
X75888876Y-37561940D01*
X75853351Y-37601801D01*
X75824695Y-37646677D01*
X75820621Y-37654685D01*
X75804041Y-37691714D01*
X75792716Y-37725620D01*
X75785583Y-37760254D01*
X75781887Y-37794980D01*
X75782500Y-37850540D01*
X75792006Y-37905181D01*
X75809891Y-37957700D01*
X75835639Y-38006892D01*
X75868736Y-38051553D01*
X75907981Y-38089910D01*
X75932433Y-38107314D01*
X75962875Y-38124656D01*
X75996007Y-38140344D01*
X76028534Y-38152788D01*
X76051792Y-38159313D01*
X76085463Y-38164384D01*
X76123901Y-38166424D01*
X76163030Y-38165433D01*
X76198777Y-38161413D01*
X76209949Y-38159244D01*
X76238572Y-38150949D01*
X76270190Y-38138631D01*
X76301730Y-38123737D01*
X76330124Y-38107716D01*
X76352067Y-38092208D01*
X76388394Y-38056425D01*
X76420268Y-38013729D01*
X76446543Y-37966019D01*
X76466071Y-37915196D01*
X76471884Y-37893803D01*
X76479103Y-37850934D01*
X76481508Y-37805441D01*
X76479089Y-37760957D01*
X76472368Y-37723156D01*
X76467079Y-37703918D01*
X76461387Y-37687224D01*
X76454266Y-37670909D01*
X76444688Y-37652810D01*
X76431627Y-37630764D01*
X76418532Y-37609707D01*
X76407147Y-37590598D01*
X76397642Y-37572777D01*
X76391285Y-37558723D01*
X76389459Y-37552869D01*
X76389135Y-37545758D01*
X76390788Y-37536108D01*
X76394835Y-37522678D01*
X76401692Y-37504229D01*
X76411775Y-37479521D01*
X76422881Y-37453400D01*
X76441003Y-37411668D01*
X76462642Y-37362615D01*
X76487845Y-37306136D01*
X76516659Y-37242127D01*
X76549133Y-37170486D01*
X76585313Y-37091107D01*
X76625247Y-37003887D01*
X76668983Y-36908723D01*
X76716568Y-36805509D01*
X76768049Y-36694144D01*
X76823474Y-36574521D01*
X76882891Y-36446538D01*
X76901451Y-36406606D01*
X76945653Y-36311572D01*
X76986081Y-36224744D01*
X77022903Y-36145779D01*
X77056282Y-36074334D01*
X77086385Y-36010066D01*
X77113376Y-35952632D01*
X77137421Y-35901688D01*
X77158685Y-35856891D01*
X77177333Y-35817899D01*
X77193531Y-35784369D01*
X77207443Y-35755956D01*
X77219235Y-35732318D01*
X77229073Y-35713112D01*
X77237121Y-35697994D01*
X77243545Y-35686622D01*
X77248510Y-35678652D01*
X77252181Y-35673742D01*
X77254723Y-35671548D01*
X77255553Y-35671356D01*
X77258907Y-35675607D01*
X77264636Y-35686974D01*
X77271932Y-35703716D01*
X77279825Y-35723668D01*
X77290344Y-35752049D01*
X77303559Y-35788684D01*
X77319290Y-35833036D01*
X77337356Y-35884564D01*
X77357579Y-35942729D01*
X77379776Y-36006992D01*
X77403768Y-36076813D01*
X77429373Y-36151654D01*
X77456413Y-36230974D01*
X77484706Y-36314235D01*
X77514073Y-36400896D01*
X77544331Y-36490420D01*
X77575302Y-36582266D01*
X77606805Y-36675894D01*
X77638660Y-36770767D01*
X77670685Y-36866344D01*
X77702701Y-36962085D01*
X77734528Y-37057453D01*
X77765984Y-37151907D01*
X77796890Y-37244907D01*
X77827065Y-37335916D01*
X77856329Y-37424392D01*
X77884501Y-37509798D01*
X77911401Y-37591593D01*
X77936848Y-37669238D01*
X77960663Y-37742195D01*
X77982665Y-37809922D01*
X78002673Y-37871882D01*
X78020507Y-37927535D01*
X78035986Y-37976342D01*
X78048931Y-38017762D01*
X78059161Y-38051258D01*
X78065399Y-38072441D01*
X78078166Y-38116948D01*
X78067497Y-38124210D01*
X78057130Y-38130826D01*
X78039036Y-38141853D01*
X78013658Y-38157033D01*
X77981444Y-38176110D01*
X77942840Y-38198826D01*
X77898290Y-38224925D01*
X77848241Y-38254150D01*
X77793138Y-38286243D01*
X77733428Y-38320948D01*
X77669555Y-38358008D01*
X77601966Y-38397166D01*
X77531107Y-38438164D01*
X77457422Y-38480746D01*
X77381359Y-38524655D01*
X77303363Y-38569634D01*
X77223878Y-38615425D01*
X77143352Y-38661773D01*
X77062231Y-38708419D01*
X76980958Y-38755108D01*
X76899982Y-38801581D01*
X76819746Y-38847583D01*
X76740697Y-38892855D01*
X76663282Y-38937141D01*
X76587944Y-38980184D01*
X76515131Y-39021728D01*
X76445288Y-39061514D01*
X76378861Y-39099287D01*
X76316295Y-39134789D01*
X76258037Y-39167762D01*
X76224997Y-39186417D01*
X76174069Y-39215137D01*
X76130707Y-39239574D01*
X76094280Y-39260073D01*
X76064155Y-39276979D01*
X76039703Y-39290635D01*
X76020291Y-39301387D01*
X76005288Y-39309579D01*
X75994064Y-39315555D01*
X75985987Y-39319660D01*
X75980425Y-39322239D01*
X75976748Y-39323636D01*
X75974324Y-39324196D01*
X75972522Y-39324262D01*
X75972444Y-39324259D01*
X75966333Y-39322718D01*
X75952679Y-39318545D01*
X75932836Y-39312179D01*
X75908159Y-39304057D01*
X75880003Y-39294617D01*
X75864963Y-39289512D01*
X75820639Y-39274249D01*
X75767978Y-39255838D01*
X75707454Y-39234450D01*
X75639536Y-39210261D01*
X75564696Y-39183442D01*
X75483406Y-39154167D01*
X75396136Y-39122610D01*
X75303358Y-39088942D01*
X75205543Y-39053338D01*
X75103163Y-39015971D01*
X74996688Y-38977013D01*
X74886590Y-38936638D01*
X74773341Y-38895019D01*
X74657411Y-38852329D01*
X74539272Y-38808741D01*
X74419395Y-38764428D01*
X74298251Y-38719565D01*
X74176312Y-38674322D01*
X74054049Y-38628875D01*
X73931933Y-38583395D01*
X73810436Y-38538057D01*
X73690028Y-38493033D01*
X73571181Y-38448496D01*
X73454367Y-38404619D01*
X73371919Y-38373586D01*
X73327469Y-38356810D01*
X73291025Y-38342962D01*
X73261771Y-38331690D01*
X73238890Y-38322642D01*
X73221567Y-38315464D01*
X73208984Y-38309805D01*
X73200327Y-38305312D01*
X73194778Y-38301633D01*
X73191520Y-38298415D01*
X73189739Y-38295306D01*
X73189561Y-38294860D01*
X73188927Y-38293586D01*
X73188240Y-38292550D01*
X73187627Y-38291513D01*
X73187213Y-38290238D01*
X73187127Y-38288486D01*
X73187494Y-38286020D01*
X73188442Y-38282600D01*
X73190097Y-38277990D01*
X73192585Y-38271951D01*
X73196034Y-38264244D01*
X73200571Y-38254633D01*
X73206321Y-38242877D01*
X73213412Y-38228741D01*
X73221971Y-38211984D01*
X73232123Y-38192370D01*
X73243996Y-38169659D01*
X73257717Y-38143615D01*
X73273412Y-38113998D01*
X73291208Y-38080571D01*
X73311232Y-38043095D01*
X73333610Y-38001333D01*
X73358470Y-37955046D01*
X73385937Y-37903996D01*
X73416138Y-37847945D01*
X73449201Y-37786655D01*
X73485252Y-37719888D01*
X73524417Y-37647406D01*
X73566824Y-37568969D01*
X73612599Y-37484342D01*
X73661869Y-37393284D01*
X73714760Y-37295559D01*
X73771400Y-37190927D01*
X73831915Y-37079151D01*
X73896431Y-36959993D01*
X73965076Y-36833215D01*
X74037975Y-36698578D01*
X74096681Y-36590153D01*
X74157147Y-36478489D01*
X74214571Y-36372472D01*
X74268861Y-36272270D01*
X74319926Y-36178052D01*
X74367672Y-36089989D01*
X74412008Y-36008250D01*
X74452842Y-35933003D01*
X74490082Y-35864420D01*
X74523635Y-35802669D01*
X74553410Y-35747919D01*
X74579315Y-35700341D01*
X74601256Y-35660103D01*
X74619143Y-35627376D01*
X74632884Y-35602329D01*
X74642385Y-35585130D01*
X74647556Y-35575951D01*
X74648520Y-35574382D01*
X74651587Y-35577510D01*
X74659087Y-35587964D01*
X74670572Y-35605023D01*
X74685594Y-35627965D01*
X74703706Y-35656066D01*
X74724461Y-35688606D01*
X74747411Y-35724861D01*
X74772109Y-35764111D01*
X74798107Y-35805632D01*
X74824957Y-35848703D01*
X74852212Y-35892601D01*
X74879425Y-35936604D01*
X74906148Y-35979991D01*
X74931933Y-36022039D01*
X74956333Y-36062025D01*
X74978901Y-36099229D01*
X74999189Y-36132927D01*
X75016749Y-36162397D01*
X75031134Y-36186918D01*
X75041897Y-36205767D01*
X75048590Y-36218223D01*
X75050770Y-36223481D01*
X75048836Y-36228403D01*
X75043182Y-36241390D01*
X75034027Y-36261957D01*
X75021591Y-36289622D01*
X75006096Y-36323901D01*
X74987760Y-36364311D01*
X74966805Y-36410369D01*
X74943450Y-36461590D01*
X74917915Y-36517491D01*
X74890422Y-36577589D01*
X74861189Y-36641401D01*
X74830438Y-36708443D01*
X74798388Y-36778231D01*
X74767925Y-36844487D01*
X74485080Y-37459346D01*
X74437306Y-37467684D01*
X74388555Y-37477689D01*
X74347078Y-37489749D01*
X74310815Y-37504721D01*
X74277704Y-37523464D01*
X74245684Y-37546836D01*
X74244124Y-37548101D01*
X74208241Y-37582511D01*
X74176884Y-37622890D01*
X74150932Y-37667466D01*
X74131263Y-37714469D01*
X74118754Y-37762127D01*
X74114283Y-37808671D01*
X74114282Y-37810018D01*
X74118833Y-37858186D01*
X74131814Y-37907343D01*
X74152552Y-37956085D01*
X74180376Y-38003009D01*
X74214610Y-38046711D01*
X74240556Y-38073264D01*
X74280482Y-38106957D01*
X74320133Y-38132477D01*
X74361492Y-38150791D01*
X74406542Y-38162864D01*
X74433440Y-38167172D01*
X74485477Y-38169373D01*
X74538662Y-38163311D01*
X74590743Y-38149504D01*
X74639472Y-38128467D01*
X74663412Y-38114405D01*
X74700486Y-38085545D01*
X74734770Y-38049810D01*
X74764053Y-38009722D01*
X74779594Y-37982045D01*
X74796112Y-37945105D01*
X74807240Y-37910842D01*
X74813752Y-37875832D01*
X74816422Y-37836653D01*
X74816586Y-37818502D01*
X74815699Y-37786929D01*
X74812946Y-37758744D01*
X74807763Y-37731971D01*
X74799589Y-37704636D01*
X74787861Y-37674766D01*
X74772017Y-37640386D01*
X74757588Y-37611424D01*
X74718073Y-37533769D01*
X74964578Y-36999602D01*
X75052650Y-36808801D01*
X75136998Y-36626164D01*
X75217615Y-36451707D01*
X75294491Y-36285448D01*
X75367619Y-36127407D01*
X75436991Y-35977600D01*
X75502597Y-35836045D01*
X75564429Y-35702761D01*
X75622480Y-35577764D01*
X75676741Y-35461074D01*
X75727203Y-35352708D01*
X75773858Y-35252683D01*
X75816698Y-35161019D01*
X75855715Y-35077731D01*
X75890899Y-35002839D01*
X75922244Y-34936361D01*
X75949739Y-34878314D01*
X75973378Y-34828715D01*
X75993152Y-34787584D01*
X76009052Y-34754938D01*
X76021070Y-34730794D01*
X76029198Y-34715171D01*
X76033427Y-34708086D01*
X76033964Y-34707625D01*
X76037486Y-34711762D01*
G37*
D12*
%TO.C,RV1*%
X43477000Y-48682000D02*
X43477000Y-58422000D01*
X46537000Y-48682000D02*
X43477000Y-48682000D01*
X46537000Y-58422000D02*
X43477000Y-58422000D01*
X55067000Y-48682000D02*
X50347000Y-48682000D01*
X55067000Y-48682000D02*
X55067000Y-50172000D01*
X55067000Y-51892000D02*
X55067000Y-52722000D01*
X55067000Y-54342000D02*
X55067000Y-54872000D01*
X55067000Y-57242000D02*
X55067000Y-58422000D01*
X55067000Y-58432000D02*
X50347000Y-58432000D01*
%TO.C,C8*%
X57780000Y-82665000D02*
X65020000Y-82665000D01*
X57780000Y-85405000D02*
X57780000Y-82665000D01*
X65020000Y-82665000D02*
X65020000Y-85405000D01*
X65020000Y-85405000D02*
X57780000Y-85405000D01*
%TO.C,R7*%
X98515000Y-74290000D02*
X98845000Y-74290000D01*
X98515000Y-80830000D02*
X98515000Y-74290000D01*
X98845000Y-80830000D02*
X98515000Y-80830000D01*
X100925000Y-80830000D02*
X101255000Y-80830000D01*
X101255000Y-74290000D02*
X100925000Y-74290000D01*
X101255000Y-80830000D02*
X101255000Y-74290000D01*
%TO.C,R1*%
X87915000Y-41284533D02*
X94455000Y-41284533D01*
X87915000Y-41614533D02*
X87915000Y-41284533D01*
X87915000Y-43694533D02*
X87915000Y-44024533D01*
X87915000Y-44024533D02*
X94455000Y-44024533D01*
X94455000Y-41284533D02*
X94455000Y-41614533D01*
X94455000Y-44024533D02*
X94455000Y-43694533D01*
%TO.C,R9*%
X124915000Y-41310000D02*
X125245000Y-41310000D01*
X124915000Y-47850000D02*
X124915000Y-41310000D01*
X125245000Y-47850000D02*
X124915000Y-47850000D01*
X127325000Y-47850000D02*
X127655000Y-47850000D01*
X127655000Y-41310000D02*
X127325000Y-41310000D01*
X127655000Y-47850000D02*
X127655000Y-41310000D01*
%TO.C,R5*%
X62515000Y-36900000D02*
X62845000Y-36900000D01*
X62515000Y-43440000D02*
X62515000Y-36900000D01*
X62845000Y-43440000D02*
X62515000Y-43440000D01*
X64925000Y-43440000D02*
X65255000Y-43440000D01*
X65255000Y-36900000D02*
X64925000Y-36900000D01*
X65255000Y-43440000D02*
X65255000Y-36900000D01*
%TO.C,TP_VREF1*%
X127735000Y-82620000D02*
X129635000Y-82620000D01*
X127735000Y-84520000D02*
X127735000Y-82620000D01*
X129635000Y-82620000D02*
X129635000Y-84520000D01*
X129635000Y-84520000D02*
X127735000Y-84520000D01*
%TO.C,D2*%
X134760000Y-42315000D02*
X134760000Y-39225000D01*
X129210000Y-40769952D02*
G75*
G02*
X134760000Y-39225170I2990000J-48D01*
G01*
X134760000Y-42314830D02*
G75*
G02*
X129210000Y-40770048I-2560000J1544830D01*
G01*
X134700000Y-40770000D02*
G75*
G02*
X129700000Y-40770000I-2500000J0D01*
G01*
X129700000Y-40770000D02*
G75*
G02*
X134700000Y-40770000I2500000J0D01*
G01*
%TO.C,C4*%
X57780000Y-69265000D02*
X65020000Y-69265000D01*
X57780000Y-72005000D02*
X57780000Y-69265000D01*
X65020000Y-69265000D02*
X65020000Y-72005000D01*
X65020000Y-72005000D02*
X57780000Y-72005000D01*
D13*
%TO.C,G\u002A\u002A\u002A*%
G36*
X45741667Y-65903369D02*
G01*
X45735000Y-65910036D01*
X45728334Y-65903369D01*
X45735000Y-65896702D01*
X45741667Y-65903369D01*
G37*
G36*
X47008334Y-68930036D02*
G01*
X47001667Y-68936702D01*
X46995000Y-68930036D01*
X47001667Y-68923369D01*
X47008334Y-68930036D01*
G37*
G36*
X46261667Y-68270036D02*
G01*
X46261667Y-68776702D01*
X46155000Y-68776702D01*
X46048334Y-68776702D01*
X46048334Y-68270036D01*
X46048334Y-67763369D01*
X46155000Y-67763369D01*
X46261667Y-67763369D01*
X46261667Y-68270036D01*
G37*
G36*
X46261667Y-61963369D02*
G01*
X46261667Y-62163369D01*
X46461667Y-62163369D01*
X46661667Y-62163369D01*
X46661667Y-62270036D01*
X46661667Y-62376702D01*
X46461667Y-62376702D01*
X46261667Y-62376702D01*
X46261667Y-62576702D01*
X46261667Y-62776702D01*
X46155000Y-62776702D01*
X46048334Y-62776702D01*
X46048334Y-62576702D01*
X46048334Y-62376702D01*
X45848334Y-62376702D01*
X45648334Y-62376702D01*
X45648334Y-62270036D01*
X45648334Y-62163369D01*
X45848334Y-62163369D01*
X46048334Y-62163369D01*
X46048334Y-61963369D01*
X46048334Y-61763369D01*
X46155000Y-61763369D01*
X46261667Y-61763369D01*
X46261667Y-61963369D01*
G37*
G36*
X46210219Y-64802884D02*
G01*
X46236481Y-64804639D01*
X46335831Y-64830301D01*
X46421116Y-64874816D01*
X46486123Y-64928097D01*
X46543804Y-64991913D01*
X46582987Y-65058192D01*
X46606692Y-65134109D01*
X46617937Y-65226839D01*
X46618766Y-65243369D01*
X46617012Y-65346219D01*
X46600655Y-65432055D01*
X46567582Y-65507425D01*
X46515676Y-65578877D01*
X46507321Y-65588345D01*
X46463397Y-65629863D01*
X46411098Y-65668463D01*
X46357714Y-65699706D01*
X46310532Y-65719151D01*
X46285716Y-65723369D01*
X46280636Y-65724410D01*
X46276325Y-65728878D01*
X46272720Y-65738790D01*
X46269759Y-65756162D01*
X46267378Y-65783011D01*
X46265514Y-65821354D01*
X46264105Y-65873208D01*
X46263088Y-65940589D01*
X46262399Y-66025515D01*
X46261976Y-66130002D01*
X46261755Y-66256067D01*
X46261675Y-66405726D01*
X46261667Y-66494102D01*
X46261667Y-67264835D01*
X46365000Y-67281943D01*
X46450423Y-67302324D01*
X46545100Y-67337485D01*
X46607548Y-67365894D01*
X46670752Y-67397440D01*
X46720313Y-67426086D01*
X46763968Y-67457429D01*
X46809453Y-67497061D01*
X46864502Y-67550578D01*
X46868645Y-67554719D01*
X46963633Y-67661189D01*
X47036531Y-67770484D01*
X47091524Y-67889985D01*
X47129927Y-68015381D01*
X47147741Y-68118449D01*
X47154971Y-68235666D01*
X47151925Y-68357702D01*
X47138911Y-68475224D01*
X47116238Y-68578901D01*
X47110720Y-68596702D01*
X47058488Y-68725918D01*
X46989640Y-68841900D01*
X46899746Y-68951809D01*
X46875000Y-68977620D01*
X46755327Y-69082525D01*
X46624625Y-69164274D01*
X46481667Y-69224494D01*
X46383813Y-69249261D01*
X46270339Y-69264622D01*
X46150740Y-69270131D01*
X46034512Y-69265341D01*
X45933335Y-69250291D01*
X45777249Y-69203181D01*
X45633806Y-69134337D01*
X45505133Y-69045472D01*
X45393353Y-68938296D01*
X45300592Y-68814521D01*
X45233419Y-68686398D01*
X45196650Y-68577509D01*
X45170984Y-68452688D01*
X45157202Y-68320594D01*
X45156418Y-68228649D01*
X45385372Y-68228649D01*
X45389386Y-68314875D01*
X45401038Y-68404876D01*
X45419226Y-68488148D01*
X45427854Y-68516536D01*
X45485140Y-68648501D01*
X45562279Y-68762980D01*
X45658653Y-68859256D01*
X45773644Y-68936608D01*
X45801667Y-68951157D01*
X45901103Y-68992824D01*
X46005324Y-69023462D01*
X46104527Y-69040499D01*
X46152229Y-69043137D01*
X46212541Y-69038773D01*
X46286920Y-69026789D01*
X46364666Y-69009456D01*
X46435081Y-68989041D01*
X46471074Y-68975528D01*
X46590201Y-68910923D01*
X46692194Y-68828405D01*
X46776497Y-68730946D01*
X46842556Y-68621520D01*
X46889816Y-68503098D01*
X46917722Y-68378654D01*
X46925718Y-68251161D01*
X46913250Y-68123592D01*
X46879763Y-67998919D01*
X46824701Y-67880116D01*
X46747509Y-67770155D01*
X46704788Y-67723731D01*
X46595255Y-67632159D01*
X46474489Y-67563745D01*
X46345230Y-67518935D01*
X46210219Y-67498174D01*
X46072198Y-67501910D01*
X45933907Y-67530588D01*
X45811124Y-67578264D01*
X45693570Y-67649114D01*
X45591541Y-67740092D01*
X45507173Y-67848262D01*
X45442602Y-67970691D01*
X45399964Y-68104442D01*
X45390098Y-68156702D01*
X45385372Y-68228649D01*
X45156418Y-68228649D01*
X45156087Y-68189884D01*
X45168419Y-68069216D01*
X45174762Y-68036702D01*
X45220840Y-67886354D01*
X45289398Y-67746430D01*
X45378195Y-67619804D01*
X45484993Y-67509349D01*
X45607550Y-67417937D01*
X45694411Y-67370184D01*
X45772162Y-67336256D01*
X45851940Y-67307202D01*
X45926711Y-67285191D01*
X45989441Y-67272393D01*
X46019186Y-67270036D01*
X46048334Y-67270036D01*
X46048334Y-66498369D01*
X46048334Y-65726702D01*
X46005000Y-65718039D01*
X45936587Y-65692544D01*
X45867952Y-65646159D01*
X45804287Y-65584105D01*
X45750785Y-65511604D01*
X45712636Y-65433876D01*
X45707525Y-65418861D01*
X45693094Y-65345410D01*
X45689710Y-65260047D01*
X45696845Y-65173477D01*
X45713974Y-65096405D01*
X45724793Y-65067693D01*
X45778644Y-64978416D01*
X45851465Y-64904853D01*
X45939355Y-64849009D01*
X46038410Y-64812892D01*
X46144726Y-64798508D01*
X46210219Y-64802884D01*
G37*
G36*
X46284066Y-61274993D02*
G01*
X46390659Y-61290604D01*
X46409655Y-61295004D01*
X46546821Y-61338207D01*
X46667851Y-61396962D01*
X46779564Y-61475151D01*
X46868773Y-61556263D01*
X46965743Y-61665425D01*
X47040104Y-61778327D01*
X47095739Y-61901787D01*
X47130032Y-62015381D01*
X47147774Y-62118412D01*
X47154967Y-62235555D01*
X47151923Y-62357494D01*
X47138949Y-62474913D01*
X47116355Y-62578497D01*
X47110720Y-62596702D01*
X47049271Y-62742383D01*
X46965472Y-62876397D01*
X46861987Y-62995254D01*
X46741478Y-63095466D01*
X46717764Y-63111530D01*
X46619215Y-63169216D01*
X46519406Y-63212237D01*
X46407645Y-63244922D01*
X46365001Y-63254455D01*
X46261667Y-63276114D01*
X46261667Y-63772258D01*
X46261667Y-64268402D01*
X46325000Y-64277682D01*
X46469418Y-64312175D01*
X46608618Y-64372014D01*
X46740439Y-64456056D01*
X46861742Y-64562162D01*
X46952921Y-64663237D01*
X47023613Y-64763416D01*
X47078616Y-64870275D01*
X47111567Y-64956702D01*
X47125562Y-65000503D01*
X47135398Y-65039120D01*
X47141813Y-65078907D01*
X47145542Y-65126215D01*
X47147322Y-65187397D01*
X47147890Y-65268805D01*
X47147893Y-65270036D01*
X47147805Y-65349891D01*
X47146610Y-65409417D01*
X47143498Y-65454947D01*
X47137657Y-65492818D01*
X47128280Y-65529363D01*
X47114554Y-65570918D01*
X47106537Y-65593518D01*
X47081712Y-65657176D01*
X47053098Y-65721950D01*
X47025963Y-65776089D01*
X47019871Y-65786852D01*
X46997352Y-65819715D01*
X46963398Y-65862618D01*
X46921891Y-65911360D01*
X46876712Y-65961744D01*
X46831743Y-66009572D01*
X46790866Y-66050644D01*
X46757962Y-66080762D01*
X46736912Y-66095728D01*
X46733469Y-66096635D01*
X46720989Y-66086333D01*
X46698109Y-66058974D01*
X46669086Y-66019777D01*
X46659121Y-66005477D01*
X46596576Y-65914387D01*
X46699477Y-65808878D01*
X46793385Y-65697394D01*
X46861620Y-65580944D01*
X46905032Y-65457310D01*
X46924472Y-65324276D01*
X46924216Y-65223369D01*
X46909366Y-65102837D01*
X46877539Y-64994151D01*
X46825693Y-64888358D01*
X46792247Y-64835145D01*
X46702865Y-64724580D01*
X46597263Y-64634404D01*
X46477783Y-64565860D01*
X46346766Y-64520190D01*
X46206554Y-64498636D01*
X46155000Y-64497019D01*
X46011143Y-64509518D01*
X45876813Y-64546908D01*
X45752407Y-64609022D01*
X45638319Y-64695697D01*
X45608110Y-64724512D01*
X45516248Y-64834270D01*
X45447760Y-64954965D01*
X45403073Y-65083951D01*
X45382612Y-65218582D01*
X45386805Y-65356212D01*
X45416078Y-65494193D01*
X45464323Y-65616702D01*
X45513901Y-65697615D01*
X45587778Y-65785801D01*
X45609617Y-65808576D01*
X45712832Y-65913783D01*
X45650583Y-66004674D01*
X45620710Y-66046590D01*
X45595799Y-66078433D01*
X45580043Y-66094947D01*
X45577631Y-66096134D01*
X45564642Y-66087420D01*
X45537015Y-66063241D01*
X45498722Y-66027231D01*
X45453735Y-65983024D01*
X45450756Y-65980036D01*
X45360504Y-65880971D01*
X45290538Y-65783617D01*
X45236108Y-65680499D01*
X45198723Y-65583369D01*
X45184823Y-65539457D01*
X45175060Y-65500630D01*
X45168702Y-65460524D01*
X45165017Y-65412772D01*
X45163276Y-65351011D01*
X45162750Y-65270036D01*
X45162963Y-65188651D01*
X45164421Y-65127610D01*
X45167843Y-65080593D01*
X45173947Y-65041281D01*
X45183449Y-65003355D01*
X45197069Y-64960498D01*
X45198346Y-64956702D01*
X45241677Y-64846874D01*
X45295006Y-64749184D01*
X45363106Y-64656183D01*
X45450748Y-64560420D01*
X45454760Y-64556394D01*
X45562162Y-64460595D01*
X45672587Y-64387181D01*
X45793124Y-64332181D01*
X45925000Y-64293005D01*
X46048334Y-64263727D01*
X46048334Y-63769186D01*
X46048334Y-63274645D01*
X45959200Y-63258221D01*
X45809738Y-63217861D01*
X45667150Y-63154333D01*
X45536338Y-63070353D01*
X45422207Y-62968639D01*
X45407208Y-62952440D01*
X45326568Y-62852178D01*
X45263389Y-62747104D01*
X45211847Y-62627286D01*
X45204558Y-62606852D01*
X45187720Y-62556071D01*
X45176024Y-62512302D01*
X45168377Y-62468132D01*
X45163680Y-62416149D01*
X45160840Y-62348942D01*
X45159684Y-62303369D01*
X45159503Y-62224757D01*
X45387547Y-62224757D01*
X45391473Y-62363027D01*
X45419875Y-62499809D01*
X45427296Y-62522939D01*
X45482971Y-62649099D01*
X45557347Y-62758876D01*
X45647591Y-62851616D01*
X45750871Y-62926667D01*
X45864353Y-62983375D01*
X45985207Y-63021088D01*
X46110599Y-63039153D01*
X46237697Y-63036915D01*
X46363669Y-63013723D01*
X46485681Y-62968923D01*
X46600902Y-62901863D01*
X46701667Y-62816766D01*
X46789040Y-62713674D01*
X46854071Y-62600134D01*
X46899671Y-62470998D01*
X46901995Y-62462089D01*
X46924218Y-62322357D01*
X46920901Y-62180612D01*
X46892514Y-62040713D01*
X46839530Y-61906517D01*
X46832351Y-61892516D01*
X46784115Y-61818183D01*
X46718802Y-61741750D01*
X46644129Y-61670935D01*
X46567814Y-61613455D01*
X46532520Y-61592685D01*
X46400326Y-61537366D01*
X46263866Y-61506550D01*
X46126325Y-61499763D01*
X45990886Y-61516532D01*
X45860733Y-61556382D01*
X45739048Y-61618840D01*
X45629016Y-61703432D01*
X45600303Y-61731457D01*
X45514478Y-61838349D01*
X45449866Y-61958685D01*
X45407284Y-62088732D01*
X45387547Y-62224757D01*
X45159503Y-62224757D01*
X45159420Y-62188740D01*
X45164376Y-62098945D01*
X45174108Y-62034888D01*
X45222043Y-61882265D01*
X45292786Y-61741217D01*
X45384251Y-61614043D01*
X45494350Y-61503042D01*
X45620996Y-61410512D01*
X45762103Y-61338752D01*
X45828334Y-61314316D01*
X45928039Y-61289839D01*
X46043440Y-61274920D01*
X46126325Y-61271482D01*
X46165221Y-61269869D01*
X46284066Y-61274993D01*
G37*
D10*
%TO.C,SW1*%
X123695000Y-50850000D02*
X123695000Y-51650000D01*
X123695000Y-51650000D02*
X132195000Y-51650000D01*
X123695000Y-69650000D02*
X123695000Y-51650000D01*
X123695000Y-70450000D02*
X123695000Y-69650000D01*
X125195000Y-63000000D02*
X139195000Y-63000000D01*
X130185000Y-67650000D02*
X130185000Y-53650000D01*
X134885000Y-53950000D02*
X134885000Y-67950000D01*
X139195000Y-57700000D02*
X125195000Y-57700000D01*
X140695000Y-50850000D02*
X123695000Y-50850000D01*
X140695000Y-50850000D02*
X140695000Y-51650000D01*
X140695000Y-51650000D02*
X132195000Y-51650000D01*
X140695000Y-69650000D02*
X123695000Y-69650000D01*
X140695000Y-69650000D02*
X140695000Y-51650000D01*
X140695000Y-69650000D02*
X140695000Y-70450000D01*
X140695000Y-70450000D02*
X123695000Y-70450000D01*
D12*
%TO.C,J2*%
X104180000Y-36350000D02*
X104180000Y-39070000D01*
X104180000Y-51770000D02*
X104180000Y-41870000D01*
X104180000Y-57200000D02*
X104180000Y-54570000D01*
X107580000Y-36350000D02*
X104180000Y-36350000D01*
X107580000Y-36350000D02*
X107580000Y-33350000D01*
X108930000Y-57200000D02*
X104180000Y-57200000D01*
X108930000Y-60120000D02*
X108930000Y-57200000D01*
X117830000Y-60120000D02*
X108930000Y-60120000D01*
X117870000Y-60120000D02*
X117870000Y-57200000D01*
X119220000Y-33350000D02*
X107580000Y-33350000D01*
X119220000Y-36350000D02*
X119220000Y-33350000D01*
X122620000Y-36350000D02*
X119220000Y-36350000D01*
X122620000Y-36350000D02*
X122620000Y-39070000D01*
X122620000Y-41870000D02*
X122620000Y-51770000D01*
X122620000Y-54570000D02*
X122620000Y-57200000D01*
X122620000Y-57200000D02*
X117870000Y-57200000D01*
%TO.C,R3*%
X87915000Y-50100000D02*
X87915000Y-50430000D01*
X87915000Y-52840000D02*
X87915000Y-52510000D01*
X94455000Y-50100000D02*
X87915000Y-50100000D01*
X94455000Y-50430000D02*
X94455000Y-50100000D01*
X94455000Y-52510000D02*
X94455000Y-52840000D01*
X94455000Y-52840000D02*
X87915000Y-52840000D01*
%TO.C,C7*%
X57780000Y-78198333D02*
X65020000Y-78198333D01*
X57780000Y-80938333D02*
X57780000Y-78198333D01*
X65020000Y-78198333D02*
X65020000Y-80938333D01*
X65020000Y-80938333D02*
X57780000Y-80938333D01*
%TO.C,R8*%
X98515000Y-62410000D02*
X98515000Y-68950000D01*
X98515000Y-68950000D02*
X98845000Y-68950000D01*
X98845000Y-62410000D02*
X98515000Y-62410000D01*
X100925000Y-62410000D02*
X101255000Y-62410000D01*
X101255000Y-62410000D02*
X101255000Y-68950000D01*
X101255000Y-68950000D02*
X100925000Y-68950000D01*
%TO.C,C1*%
X98515000Y-47393600D02*
X101255000Y-47393600D01*
X98515000Y-54633600D02*
X98515000Y-47393600D01*
X101255000Y-47393600D02*
X101255000Y-54633600D01*
X101255000Y-54633600D02*
X98515000Y-54633600D01*
%TO.C,C2*%
X98515000Y-36950000D02*
X101255000Y-36950000D01*
X98515000Y-44190000D02*
X98515000Y-36950000D01*
X101255000Y-36950000D02*
X101255000Y-44190000D01*
X101255000Y-44190000D02*
X98515000Y-44190000D01*
%TO.C,U1*%
X88525000Y-60140000D02*
X88525000Y-70420000D01*
X88525000Y-70420000D02*
X90175000Y-70420000D01*
X92175000Y-70420000D02*
X93825000Y-70420000D01*
X93825000Y-60140000D02*
X88525000Y-60140000D01*
X93825000Y-70420000D02*
X93825000Y-60140000D01*
X90175000Y-70420000D02*
G75*
G02*
X92175000Y-70420000I1000000J0D01*
G01*
%TO.C,C9*%
X86565000Y-83000000D02*
X93805000Y-83000000D01*
X86565000Y-85740000D02*
X86565000Y-83000000D01*
X93805000Y-83000000D02*
X93805000Y-85740000D01*
X93805000Y-85740000D02*
X86565000Y-85740000D01*
%TO.C,R4*%
X87915000Y-45692267D02*
X94455000Y-45692267D01*
X87915000Y-46022267D02*
X87915000Y-45692267D01*
X87915000Y-48102267D02*
X87915000Y-48432267D01*
X87915000Y-48432267D02*
X94455000Y-48432267D01*
X94455000Y-45692267D02*
X94455000Y-46022267D01*
X94455000Y-48432267D02*
X94455000Y-48102267D01*
%TO.C,A1*%
X66732000Y-33811600D02*
X84532000Y-33811600D01*
X66732000Y-84811600D02*
X66732000Y-33811600D01*
X69252000Y-84811600D02*
X69252000Y-33811600D01*
X71632000Y-86011600D02*
X71632000Y-84811600D01*
X79632000Y-84811600D02*
X79632000Y-86011600D01*
X79632000Y-86011600D02*
X71632000Y-86011600D01*
X82052000Y-84811600D02*
X82052000Y-33811600D01*
X82532000Y-85111600D02*
X84832000Y-85111600D01*
X84532000Y-33811600D02*
X84532000Y-84811600D01*
X84532000Y-84811600D02*
X66732000Y-84811600D01*
X84832000Y-85111600D02*
X84832000Y-82711600D01*
%TO.C,TP_IN1*%
X132085000Y-82620000D02*
X133985000Y-82620000D01*
X132085000Y-84520000D02*
X132085000Y-82620000D01*
X133985000Y-82620000D02*
X133985000Y-84520000D01*
X133985000Y-84520000D02*
X132085000Y-84520000D01*
%TO.C,C12*%
X86565000Y-72300000D02*
X93805000Y-72300000D01*
X86565000Y-75040000D02*
X86565000Y-72300000D01*
X93805000Y-72300000D02*
X93805000Y-75040000D01*
X93805000Y-75040000D02*
X86565000Y-75040000D01*
%TO.C,GND2*%
X136435000Y-82620000D02*
X138335000Y-82620000D01*
X136435000Y-84520000D02*
X136435000Y-82620000D01*
X138335000Y-82620000D02*
X138335000Y-84520000D01*
X138335000Y-84520000D02*
X136435000Y-84520000D01*
%TO.C,TP_OUT1*%
X132085000Y-77420000D02*
X133985000Y-77420000D01*
X132085000Y-79320000D02*
X132085000Y-77420000D01*
X133985000Y-77420000D02*
X133985000Y-79320000D01*
X133985000Y-79320000D02*
X132085000Y-79320000D01*
%TD*%
D14*
%TO.C,SW1*%
X127835000Y-65650000D03*
X132535000Y-65650000D03*
X137235000Y-65650000D03*
X127835000Y-60350000D03*
X132535000Y-60350000D03*
X137235000Y-60350000D03*
X127835000Y-55050000D03*
X132535000Y-55050000D03*
X137235000Y-55050000D03*
%TD*%
%LPC*%
D15*
%TO.C,C13*%
X47700000Y-75035000D03*
D16*
X50200000Y-75035000D03*
%TD*%
D15*
%TO.C,C3*%
X47700000Y-83335000D03*
D16*
X50200000Y-83335000D03*
%TD*%
D17*
%TO.C,D1*%
X61885000Y-48270000D03*
D18*
X61885000Y-55890000D03*
%TD*%
D16*
%TO.C,C11*%
X92685000Y-79020000D03*
X87685000Y-79020000D03*
%TD*%
D19*
%TO.C,RV2*%
X48447000Y-45031600D03*
D20*
X48435000Y-35443600D03*
D17*
X55947000Y-42731600D03*
D21*
X55947000Y-40231600D03*
X55947000Y-37731600D03*
%TD*%
D16*
%TO.C,C6*%
X88685000Y-56370000D03*
X93685000Y-56370000D03*
%TD*%
D22*
%TO.C,GND1*%
X137385000Y-78370000D03*
%TD*%
D16*
%TO.C,R6*%
X59785000Y-36360000D03*
X59785000Y-43980000D03*
%TD*%
D22*
%TO.C,U2*%
X59645000Y-61830000D03*
D23*
X62185000Y-61830000D03*
X64725000Y-61830000D03*
%TD*%
D22*
%TO.C,TP_5V1*%
X128685000Y-78370000D03*
%TD*%
D24*
%TO.C,J3*%
X121515000Y-80570000D03*
X105285000Y-80570000D03*
X121515000Y-67870000D03*
X105285000Y-67870000D03*
%TD*%
D16*
%TO.C,C5*%
X63900000Y-75101667D03*
X58900000Y-75101667D03*
%TD*%
%TO.C,R2*%
X87375000Y-38246800D03*
X94995000Y-38246800D03*
%TD*%
D25*
%TO.C,J1*%
X56585000Y-65270000D03*
X50585000Y-65270000D03*
D26*
X54085000Y-69920000D03*
%TD*%
D19*
%TO.C,RV1*%
X48447000Y-58352000D03*
D20*
X48435000Y-48764000D03*
D17*
X55947000Y-56052000D03*
D21*
X55947000Y-53552000D03*
X55947000Y-51052000D03*
%TD*%
D16*
%TO.C,C8*%
X63900000Y-84035000D03*
X58900000Y-84035000D03*
%TD*%
%TO.C,R7*%
X99885000Y-81370000D03*
X99885000Y-73750000D03*
%TD*%
%TO.C,R1*%
X87375000Y-42654533D03*
X94995000Y-42654533D03*
%TD*%
%TO.C,R9*%
X126285000Y-48390000D03*
X126285000Y-40770000D03*
%TD*%
%TO.C,R5*%
X63885000Y-43980000D03*
X63885000Y-36360000D03*
%TD*%
D22*
%TO.C,TP_VREF1*%
X128685000Y-83570000D03*
%TD*%
D17*
%TO.C,D2*%
X133470000Y-40770000D03*
D21*
X130930000Y-40770000D03*
%TD*%
D16*
%TO.C,C4*%
X63900000Y-70635000D03*
X58900000Y-70635000D03*
%TD*%
D14*
%TO.C,SW1*%
X127835000Y-65650000D03*
X132535000Y-65650000D03*
X137235000Y-65650000D03*
X127835000Y-60350000D03*
X132535000Y-60350000D03*
X137235000Y-60350000D03*
X127835000Y-55050000D03*
X132535000Y-55050000D03*
X137235000Y-55050000D03*
%TD*%
D24*
%TO.C,J2*%
X105285000Y-40470000D03*
X121515000Y-40470000D03*
X105285000Y-53170000D03*
X121515000Y-53170000D03*
%TD*%
D16*
%TO.C,R3*%
X94995000Y-51470000D03*
X87375000Y-51470000D03*
%TD*%
%TO.C,C7*%
X63900000Y-79568333D03*
X58900000Y-79568333D03*
%TD*%
%TO.C,R8*%
X99885000Y-61870000D03*
X99885000Y-69490000D03*
%TD*%
%TO.C,C1*%
X99885000Y-48513600D03*
X99885000Y-53513600D03*
%TD*%
%TO.C,C2*%
X99885000Y-43070000D03*
X99885000Y-38070000D03*
%TD*%
D27*
%TO.C,U1*%
X94985000Y-69090000D03*
D28*
X94985000Y-66550000D03*
X94985000Y-64010000D03*
X94985000Y-61470000D03*
X87365000Y-61470000D03*
X87365000Y-64010000D03*
X87365000Y-66550000D03*
X87365000Y-69090000D03*
%TD*%
D16*
%TO.C,C9*%
X92685000Y-84370000D03*
X87685000Y-84370000D03*
%TD*%
%TO.C,R4*%
X87375000Y-47062267D03*
X94995000Y-47062267D03*
%TD*%
D29*
%TO.C,A1*%
X83252000Y-83411600D03*
D30*
X83252000Y-80871600D03*
X83252000Y-78331600D03*
X83252000Y-75791600D03*
X83252000Y-73251600D03*
X83252000Y-70711600D03*
X83252000Y-68171600D03*
X83252000Y-65631600D03*
X83252000Y-63091600D03*
X83252000Y-60551600D03*
X83252000Y-58011600D03*
X83252000Y-55471600D03*
X83252000Y-52931600D03*
X83252000Y-50391600D03*
X83252000Y-47851600D03*
X83252000Y-45311600D03*
X83252000Y-42771600D03*
X83252000Y-40231600D03*
X83252000Y-37691600D03*
X83252000Y-35151600D03*
X68012000Y-35151600D03*
X68012000Y-37691600D03*
X68012000Y-40231600D03*
X68012000Y-42771600D03*
X68012000Y-45311600D03*
X68012000Y-47851600D03*
X68012000Y-50391600D03*
X68012000Y-52931600D03*
X68012000Y-55471600D03*
X68012000Y-58011600D03*
X68012000Y-60551600D03*
X68012000Y-63091600D03*
X68012000Y-65631600D03*
X68012000Y-68171600D03*
X68012000Y-70711600D03*
X68012000Y-73251600D03*
X68012000Y-75791600D03*
X68012000Y-78331600D03*
X68012000Y-80871600D03*
X68012000Y-83411600D03*
%TD*%
D22*
%TO.C,TP_IN1*%
X133035000Y-83570000D03*
%TD*%
D16*
%TO.C,C12*%
X92685000Y-73670000D03*
X87685000Y-73670000D03*
%TD*%
D22*
%TO.C,GND2*%
X137385000Y-83570000D03*
%TD*%
%TO.C,TP_OUT1*%
X133035000Y-78370000D03*
%TD*%
%LPD*%
M02*
