%TF.GenerationSoftware,KiCad,Pcbnew,9.0.6*%
%TF.CreationDate,2025-11-22T22:33:35-06:00*%
%TF.ProjectId,switch,73776974-6368-42e6-9b69-6361645f7063,0.6.1*%
%TF.SameCoordinates,Original*%
%TF.FileFunction,Legend,Top*%
%TF.FilePolarity,Positive*%
%FSLAX46Y46*%
G04 Gerber Fmt 4.6, Leading zero omitted, Abs format (unit mm)*
G04 Created by KiCad (PCBNEW 9.0.6) date 2025-11-22 22:33:35*
%MOMM*%
%LPD*%
G01*
G04 APERTURE LIST*
%ADD10C,0.150000*%
%ADD11C,0.120000*%
%ADD12O,3.500000X3.000000*%
%ADD13R,1.700000X1.700000*%
%ADD14C,1.700000*%
G04 APERTURE END LIST*
D10*
X119435350Y-102773211D02*
X119702017Y-102773211D01*
X119535350Y-103306545D02*
X119535350Y-102620830D01*
X119535350Y-102620830D02*
X119568684Y-102544640D01*
X119568684Y-102544640D02*
X119635350Y-102506545D01*
X119635350Y-102506545D02*
X119702017Y-102506545D01*
X119935350Y-103306545D02*
X119935350Y-102773211D01*
X119935350Y-102506545D02*
X119902017Y-102544640D01*
X119902017Y-102544640D02*
X119935350Y-102582735D01*
X119935350Y-102582735D02*
X119968684Y-102544640D01*
X119968684Y-102544640D02*
X119935350Y-102506545D01*
X119935350Y-102506545D02*
X119935350Y-102582735D01*
X120268683Y-102773211D02*
X120268683Y-103306545D01*
X120268683Y-102849402D02*
X120302017Y-102811307D01*
X120302017Y-102811307D02*
X120368683Y-102773211D01*
X120368683Y-102773211D02*
X120468683Y-102773211D01*
X120468683Y-102773211D02*
X120535350Y-102811307D01*
X120535350Y-102811307D02*
X120568683Y-102887497D01*
X120568683Y-102887497D02*
X120568683Y-103306545D01*
X119635350Y-100766545D02*
X119568684Y-100728450D01*
X119568684Y-100728450D02*
X119535350Y-100690354D01*
X119535350Y-100690354D02*
X119502017Y-100614164D01*
X119502017Y-100614164D02*
X119502017Y-100385592D01*
X119502017Y-100385592D02*
X119535350Y-100309402D01*
X119535350Y-100309402D02*
X119568684Y-100271307D01*
X119568684Y-100271307D02*
X119635350Y-100233211D01*
X119635350Y-100233211D02*
X119735350Y-100233211D01*
X119735350Y-100233211D02*
X119802017Y-100271307D01*
X119802017Y-100271307D02*
X119835350Y-100309402D01*
X119835350Y-100309402D02*
X119868684Y-100385592D01*
X119868684Y-100385592D02*
X119868684Y-100614164D01*
X119868684Y-100614164D02*
X119835350Y-100690354D01*
X119835350Y-100690354D02*
X119802017Y-100728450D01*
X119802017Y-100728450D02*
X119735350Y-100766545D01*
X119735350Y-100766545D02*
X119635350Y-100766545D01*
X120468683Y-100233211D02*
X120468683Y-100766545D01*
X120168683Y-100233211D02*
X120168683Y-100652259D01*
X120168683Y-100652259D02*
X120202017Y-100728450D01*
X120202017Y-100728450D02*
X120268683Y-100766545D01*
X120268683Y-100766545D02*
X120368683Y-100766545D01*
X120368683Y-100766545D02*
X120435350Y-100728450D01*
X120435350Y-100728450D02*
X120468683Y-100690354D01*
X120702016Y-100233211D02*
X120968683Y-100233211D01*
X120802016Y-99966545D02*
X120802016Y-100652259D01*
X120802016Y-100652259D02*
X120835350Y-100728450D01*
X120835350Y-100728450D02*
X120902016Y-100766545D01*
X120902016Y-100766545D02*
X120968683Y-100766545D01*
X119435350Y-105313211D02*
X119702017Y-105313211D01*
X119535350Y-105846545D02*
X119535350Y-105160830D01*
X119535350Y-105160830D02*
X119568684Y-105084640D01*
X119568684Y-105084640D02*
X119635350Y-105046545D01*
X119635350Y-105046545D02*
X119702017Y-105046545D01*
X120035350Y-105846545D02*
X119968684Y-105808450D01*
X119968684Y-105808450D02*
X119935350Y-105770354D01*
X119935350Y-105770354D02*
X119902017Y-105694164D01*
X119902017Y-105694164D02*
X119902017Y-105465592D01*
X119902017Y-105465592D02*
X119935350Y-105389402D01*
X119935350Y-105389402D02*
X119968684Y-105351307D01*
X119968684Y-105351307D02*
X120035350Y-105313211D01*
X120035350Y-105313211D02*
X120135350Y-105313211D01*
X120135350Y-105313211D02*
X120202017Y-105351307D01*
X120202017Y-105351307D02*
X120235350Y-105389402D01*
X120235350Y-105389402D02*
X120268684Y-105465592D01*
X120268684Y-105465592D02*
X120268684Y-105694164D01*
X120268684Y-105694164D02*
X120235350Y-105770354D01*
X120235350Y-105770354D02*
X120202017Y-105808450D01*
X120202017Y-105808450D02*
X120135350Y-105846545D01*
X120135350Y-105846545D02*
X120035350Y-105846545D01*
X120868683Y-105313211D02*
X120868683Y-105846545D01*
X120568683Y-105313211D02*
X120568683Y-105732259D01*
X120568683Y-105732259D02*
X120602017Y-105808450D01*
X120602017Y-105808450D02*
X120668683Y-105846545D01*
X120668683Y-105846545D02*
X120768683Y-105846545D01*
X120768683Y-105846545D02*
X120835350Y-105808450D01*
X120835350Y-105808450D02*
X120868683Y-105770354D01*
X121102016Y-105313211D02*
X121368683Y-105313211D01*
X121202016Y-105046545D02*
X121202016Y-105732259D01*
X121202016Y-105732259D02*
X121235350Y-105808450D01*
X121235350Y-105808450D02*
X121302016Y-105846545D01*
X121302016Y-105846545D02*
X121368683Y-105846545D01*
X119868684Y-108386545D02*
X119535350Y-108386545D01*
X119535350Y-108386545D02*
X119535350Y-107586545D01*
X120102017Y-107967497D02*
X120335351Y-107967497D01*
X120435351Y-108386545D02*
X120102017Y-108386545D01*
X120102017Y-108386545D02*
X120102017Y-107586545D01*
X120102017Y-107586545D02*
X120435351Y-107586545D01*
X120735350Y-108386545D02*
X120735350Y-107586545D01*
X120735350Y-107586545D02*
X120902017Y-107586545D01*
X120902017Y-107586545D02*
X121002017Y-107624640D01*
X121002017Y-107624640D02*
X121068684Y-107700830D01*
X121068684Y-107700830D02*
X121102017Y-107777021D01*
X121102017Y-107777021D02*
X121135350Y-107929402D01*
X121135350Y-107929402D02*
X121135350Y-108043688D01*
X121135350Y-108043688D02*
X121102017Y-108196069D01*
X121102017Y-108196069D02*
X121068684Y-108272259D01*
X121068684Y-108272259D02*
X121002017Y-108348450D01*
X121002017Y-108348450D02*
X120902017Y-108386545D01*
X120902017Y-108386545D02*
X120735350Y-108386545D01*
X119568684Y-95686545D02*
X119702017Y-95686545D01*
X119702017Y-95686545D02*
X119768684Y-95648450D01*
X119768684Y-95648450D02*
X119802017Y-95610354D01*
X119802017Y-95610354D02*
X119868684Y-95496069D01*
X119868684Y-95496069D02*
X119902017Y-95343688D01*
X119902017Y-95343688D02*
X119902017Y-95038926D01*
X119902017Y-95038926D02*
X119868684Y-94962735D01*
X119868684Y-94962735D02*
X119835350Y-94924640D01*
X119835350Y-94924640D02*
X119768684Y-94886545D01*
X119768684Y-94886545D02*
X119635350Y-94886545D01*
X119635350Y-94886545D02*
X119568684Y-94924640D01*
X119568684Y-94924640D02*
X119535350Y-94962735D01*
X119535350Y-94962735D02*
X119502017Y-95038926D01*
X119502017Y-95038926D02*
X119502017Y-95229402D01*
X119502017Y-95229402D02*
X119535350Y-95305592D01*
X119535350Y-95305592D02*
X119568684Y-95343688D01*
X119568684Y-95343688D02*
X119635350Y-95381783D01*
X119635350Y-95381783D02*
X119768684Y-95381783D01*
X119768684Y-95381783D02*
X119835350Y-95343688D01*
X119835350Y-95343688D02*
X119868684Y-95305592D01*
X119868684Y-95305592D02*
X119902017Y-95229402D01*
X120135351Y-95153211D02*
X120302017Y-95686545D01*
X120302017Y-95686545D02*
X120468684Y-95153211D01*
X119535350Y-98226545D02*
X119535350Y-97693211D01*
X119535350Y-97426545D02*
X119502017Y-97464640D01*
X119502017Y-97464640D02*
X119535350Y-97502735D01*
X119535350Y-97502735D02*
X119568684Y-97464640D01*
X119568684Y-97464640D02*
X119535350Y-97426545D01*
X119535350Y-97426545D02*
X119535350Y-97502735D01*
X119868683Y-97693211D02*
X119868683Y-98226545D01*
X119868683Y-97769402D02*
X119902017Y-97731307D01*
X119902017Y-97731307D02*
X119968683Y-97693211D01*
X119968683Y-97693211D02*
X120068683Y-97693211D01*
X120068683Y-97693211D02*
X120135350Y-97731307D01*
X120135350Y-97731307D02*
X120168683Y-97807497D01*
X120168683Y-97807497D02*
X120168683Y-98226545D01*
%TO.C,SW1*%
X122300000Y-93285000D02*
X123100000Y-93285000D01*
X122300000Y-110285000D02*
X122300000Y-93285000D01*
X123100000Y-93285000D02*
X141100000Y-93285000D01*
X123100000Y-110285000D02*
X122300000Y-110285000D01*
X123100000Y-110285000D02*
X123100000Y-93285000D01*
X123100000Y-110285000D02*
X141100000Y-110285000D01*
X125100000Y-99775000D02*
X139100000Y-99775000D01*
X129750000Y-94785000D02*
X129750000Y-108785000D01*
X135050000Y-108785000D02*
X135050000Y-94785000D01*
X138800000Y-104475000D02*
X124800000Y-104475000D01*
X141100000Y-93285000D02*
X141100000Y-101785000D01*
X141100000Y-110285000D02*
X141100000Y-101785000D01*
X141900000Y-93285000D02*
X141100000Y-93285000D01*
X141900000Y-110285000D02*
X141100000Y-110285000D01*
X141900000Y-110285000D02*
X141900000Y-93285000D01*
D11*
%TO.C,J2*%
X116030000Y-94195000D02*
X117410000Y-94195000D01*
X116030000Y-95575000D02*
X116030000Y-94195000D01*
X116030000Y-96845000D02*
X116030000Y-109655000D01*
X116030000Y-96845000D02*
X118790000Y-96845000D01*
X116030000Y-109655000D02*
X118790000Y-109655000D01*
X118790000Y-96845000D02*
X118790000Y-109655000D01*
%TD*%
D12*
%TO.C,SW1*%
X127100000Y-97425000D03*
X127100000Y-102125000D03*
X127100000Y-106825000D03*
X132400000Y-97425000D03*
X132400000Y-102125000D03*
X132400000Y-106825000D03*
X137700000Y-97425000D03*
X137700000Y-102125000D03*
X137700000Y-106825000D03*
%TD*%
%LPC*%
%TO.C,SW1*%
X127100000Y-97425000D03*
X127100000Y-102125000D03*
X127100000Y-106825000D03*
X132400000Y-97425000D03*
X132400000Y-102125000D03*
X132400000Y-106825000D03*
X137700000Y-97425000D03*
X137700000Y-102125000D03*
X137700000Y-106825000D03*
%TD*%
D13*
%TO.C,J2*%
X117410000Y-95575000D03*
D14*
X117410000Y-98115000D03*
X117410000Y-100655000D03*
X117410000Y-103195000D03*
X117410000Y-105735000D03*
X117410000Y-108275000D03*
%TD*%
%LPD*%
M02*
