M48
; DRILL file {KiCad 9.0.5} date 2025-10-30T20:13:30-0500
; FORMAT={-:-/ absolute / inch / decimal}
; #@! TF.CreationDate,2025-10-30T20:13:30-05:00
; #@! TF.GenerationSoftware,Kicad,Pcbnew,9.0.5
; #@! TF.FileFunction,Plated,1,4,PTH
FMAT,2
INCH
; #@! TA.AperFunction,Plated,PTH,ComponentDrill
T1C0.0276
; #@! TA.AperFunction,Plated,PTH,ComponentDrill
T2C0.0315
; #@! TA.AperFunction,Plated,PTH,ComponentDrill
T3C0.0354
; #@! TA.AperFunction,Plated,PTH,ComponentDrill
T4C0.0394
; #@! TA.AperFunction,Plated,PTH,ComponentDrill
T5C0.0433
; #@! TA.AperFunction,Plated,PTH,ComponentDrill
T6C0.0472
; #@! TA.AperFunction,Plated,PTH,ComponentDrill
T7C0.0551
%
G90
G05
T1
X5.3228Y-3.5801
X5.3228Y-3.7848
X5.5236Y-3.5801
X5.5236Y-3.7809
T2
X2.7559Y-4.0132
X2.7559Y-4.21
X2.936Y-4.0132
X2.936Y-4.21
X3.1161Y-4.0132
X3.1161Y-4.21
X3.2963Y-4.0132
X3.2963Y-4.21
X3.3016Y-3.7793
X3.3898Y-2.3258
X3.3898Y-2.6258
X3.3898Y-2.7455
X3.3898Y-3.0455
X3.4016Y-3.7793
X3.4409Y-3.3872
X3.4409Y-3.5841
X3.4764Y-4.0132
X3.4764Y-4.21
X3.5016Y-3.7793
X4.4087Y-3.336
X4.4087Y-3.436
X4.4087Y-3.536
X4.4087Y-3.636
X4.4091Y-2.4217
X4.4091Y-2.5953
X4.4091Y-2.7688
X4.4091Y-2.9423
X4.4213Y-3.8163
X4.4213Y-4.027
X4.4213Y-4.2376
X4.4606Y-3.1352
X4.6181Y-3.8163
X4.6181Y-4.027
X4.6181Y-4.2376
X4.6575Y-3.1352
X4.7087Y-3.336
X4.7087Y-3.436
X4.7087Y-3.536
X4.7087Y-3.636
X4.7091Y-2.4217
X4.7091Y-2.5953
X4.7091Y-2.7688
X4.7091Y-2.9423
X4.9016Y-2.4148
X4.9016Y-2.6116
X4.9016Y-2.8259
X4.9016Y-3.0228
X4.9016Y-3.3518
X4.9016Y-3.6518
X4.9016Y-3.8195
X4.9016Y-4.1195
X5.9409Y-2.5211
X5.9409Y-2.8211
T3
X2.7236Y-3.8478
X3.0236Y-3.8478
X6.1238Y-2.5211
X6.2238Y-2.5211
T4
X3.1717Y-2.4014
X3.1717Y-2.4999
X3.1717Y-2.5983
X3.1717Y-2.9259
X3.1717Y-3.0243
X3.1717Y-3.1227
T5
X3.6467Y-2.2999
X3.6467Y-2.3999
X3.6467Y-2.4999
X3.6467Y-2.5999
X3.6467Y-2.6999
X3.6467Y-2.7999
X3.6467Y-2.8999
X3.6467Y-2.9999
X3.6467Y-3.0999
X3.6467Y-3.1999
X3.6467Y-3.2999
X3.6467Y-3.3999
X3.6467Y-3.4999
X3.6467Y-3.5999
X3.6467Y-3.6999
X3.6467Y-3.7999
X3.6467Y-3.8999
X3.6467Y-3.9999
X3.6467Y-4.0999
X3.6467Y-4.1999
X4.2467Y-2.2999
X4.2467Y-2.3999
X4.2467Y-2.4999
X4.2467Y-2.5999
X4.2467Y-2.6999
X4.2467Y-2.7999
X4.2467Y-2.8999
X4.2467Y-2.9999
X4.2467Y-3.0999
X4.2467Y-3.1999
X4.2467Y-3.2999
X4.2467Y-3.3999
X4.2467Y-3.4999
X4.2467Y-3.5999
X4.2467Y-3.6999
X4.2467Y-3.7999
X4.2467Y-3.8999
X4.2467Y-3.9999
X4.2467Y-4.0999
X4.2467Y-4.1999
T7
X5.1078Y-2.5061
X5.1078Y-3.0061
X5.1078Y-3.587
X5.1078Y-4.087
X5.7467Y-2.5061
X5.7467Y-3.0061
X5.7467Y-3.587
X5.7467Y-4.087
T2
G00X2.9634Y-3.4715
M15
G01X2.9634Y-3.5581
M16
G05
G00X3.0677Y-3.6978
M15
G01X3.1346Y-3.6978
M16
G05
G00X3.1996Y-3.4715
M15
G01X3.1996Y-3.5581
M16
G05
T5
G00X2.8981Y-2.3109
M15
G01X2.8548Y-2.3109
M16
G05
G00X2.8981Y-2.6888
M15
G01X2.8548Y-2.6888
M16
G05
G00X2.8981Y-2.8353
M15
G01X2.8548Y-2.8353
M16
G05
G00X2.8981Y-3.2133
M15
G01X2.8548Y-3.2133
M16
G05
T6
G00X6.002Y-3.1108
M15
G01X6.002Y-3.0557
M16
G05
G00X6.002Y-3.3195
M15
G01X6.002Y-3.2644
M16
G05
G00X6.002Y-3.5281
M15
G01X6.002Y-3.473
M16
G05
G00X6.187Y-3.1108
M15
G01X6.187Y-3.0557
M16
G05
G00X6.187Y-3.3195
M15
G01X6.187Y-3.2644
M16
G05
G00X6.187Y-3.5281
M15
G01X6.187Y-3.473
M16
G05
G00X6.372Y-3.1108
M15
G01X6.372Y-3.0557
M16
G05
G00X6.372Y-3.3195
M15
G01X6.372Y-3.2644
M16
G05
G00X6.372Y-3.5281
M15
G01X6.372Y-3.473
M16
G05
M30
