M48
; DRILL file {KiCad 8.0.6} date 2025-01-06T04:04:12+0100
; FORMAT={-:-/ absolute / inch / decimal}
; #@! TF.CreationDate,2025-01-06T04:04:12+01:00
; #@! TF.GenerationSoftware,Kicad,Pcbnew,8.0.6
; #@! TF.FileFunction,NonPlated,1,4,NPTH
FMAT,2
INCH
; #@! TA.AperFunction,NonPlated,NPTH,ComponentDrill
T1C0.0382
; #@! TA.AperFunction,NonPlated,NPTH,ComponentDrill
T2C0.0787
; #@! TA.AperFunction,NonPlated,NPTH,ComponentDrill
T3C0.1063
%
G90
G05
T1
X3.932Y-1.8379
X3.932Y-1.9363
X4.1289Y-2.1332
X4.3257Y-1.8379
X4.3257Y-1.9363
X4.5744Y-1.8379
X4.5744Y-1.9363
X4.7712Y-2.1332
X4.9681Y-1.8379
X4.9681Y-1.9363
X5.3742Y-1.8379
X5.3742Y-1.9363
X5.571Y-2.1332
X5.7679Y-1.8379
X5.7679Y-1.9363
X5.9772Y-1.8379
X5.9772Y-1.9363
X6.174Y-2.1332
X6.3709Y-1.8379
X6.3709Y-1.9363
T2
X2.8594Y-2.3545
X2.8594Y-3.6144
X4.4146Y-2.3545
X4.4146Y-3.6144
T3
X2.8319Y-5.2201
X2.8346Y-1.9177
X6.5327Y-1.913
X6.5327Y-5.2201
M30
