%TF.GenerationSoftware,KiCad,Pcbnew,9.0.5*%
%TF.CreationDate,2025-10-30T20:13:30-05:00*%
%TF.ProjectId,wah,7761682e-6b69-4636-9164-5f7063625858,0.2*%
%TF.SameCoordinates,Original*%
%TF.FileFunction,Soldermask,Bot*%
%TF.FilePolarity,Negative*%
%FSLAX46Y46*%
G04 Gerber Fmt 4.6, Leading zero omitted, Abs format (unit mm)*
G04 Created by KiCad (PCBNEW 9.0.5) date 2025-10-30 20:13:30*
%MOMM*%
%LPD*%
G01*
G04 APERTURE LIST*
%ADD10R,1.800000X1.800000*%
%ADD11O,1.800000X1.800000*%
%ADD12C,1.600000*%
%ADD13O,3.580000X2.720000*%
%ADD14O,3.580000X2.696000*%
%ADD15C,1.800000*%
%ADD16R,1.500000X1.500000*%
%ADD17C,1.500000*%
%ADD18C,3.000000*%
%ADD19O,2.300000X4.500000*%
%ADD20O,4.000000X2.300000*%
%ADD21O,3.000000X3.500000*%
%ADD22R,1.600000X1.600000*%
%ADD23O,1.600000X1.600000*%
%ADD24R,1.700000X1.700000*%
%ADD25C,1.700000*%
G04 APERTURE END LIST*
D10*
%TO.C,D1*%
X76800000Y-97735000D03*
D11*
X69180000Y-97735000D03*
%TD*%
D12*
%TO.C,C11*%
X117300000Y-102285000D03*
X112300000Y-102285000D03*
%TD*%
D13*
%TO.C,RV2*%
X73062000Y-68296600D03*
D14*
X73050000Y-58708600D03*
D10*
X80562000Y-65996600D03*
D15*
X80562000Y-63496600D03*
X80562000Y-60996600D03*
%TD*%
D12*
%TO.C,C6*%
X113300000Y-79635000D03*
X118300000Y-79635000D03*
%TD*%
D16*
%TO.C,GND1*%
X140300000Y-90935000D03*
%TD*%
D12*
%TO.C,R6*%
X86100000Y-59075000D03*
X86100000Y-66695000D03*
%TD*%
D16*
%TO.C,U2*%
X83860000Y-95995000D03*
D17*
X86400000Y-95995000D03*
X88940000Y-95995000D03*
%TD*%
D18*
%TO.C,J3*%
X129737381Y-63655600D03*
X145967381Y-63655600D03*
X129737381Y-76355600D03*
X145967381Y-76355600D03*
%TD*%
D12*
%TO.C,C5*%
X88300000Y-101935000D03*
X88300000Y-106935000D03*
%TD*%
%TO.C,R2*%
X111990000Y-61511800D03*
X119610000Y-61511800D03*
%TD*%
D19*
%TO.C,J1*%
X81270000Y-89275000D03*
X75270000Y-89275000D03*
D20*
X78770000Y-93925000D03*
%TD*%
D13*
%TO.C,RV1*%
X73062000Y-81617000D03*
D14*
X73050000Y-72029000D03*
D10*
X80562000Y-79317000D03*
D15*
X80562000Y-76817000D03*
X80562000Y-74317000D03*
%TD*%
D12*
%TO.C,C8*%
X79150000Y-101935000D03*
X79150000Y-106935000D03*
%TD*%
%TO.C,R7*%
X124500000Y-104635000D03*
X124500000Y-97015000D03*
%TD*%
%TO.C,R1*%
X111990000Y-65919533D03*
X119610000Y-65919533D03*
%TD*%
%TO.C,R9*%
X150900000Y-71655000D03*
X150900000Y-64035000D03*
%TD*%
%TO.C,R5*%
X86100000Y-77355000D03*
X86100000Y-69735000D03*
%TD*%
D10*
%TO.C,D2*%
X158085000Y-64035000D03*
D15*
X155545000Y-64035000D03*
%TD*%
D12*
%TO.C,C10*%
X87400000Y-86035000D03*
X87400000Y-91035000D03*
%TD*%
%TO.C,C4*%
X83725000Y-101935000D03*
X83725000Y-106935000D03*
%TD*%
D21*
%TO.C,SW1*%
X152450000Y-88915000D03*
X157150000Y-88915000D03*
X161850000Y-88915000D03*
X152450000Y-83615000D03*
X157150000Y-83615000D03*
X161850000Y-83615000D03*
X152450000Y-78315000D03*
X157150000Y-78315000D03*
X161850000Y-78315000D03*
%TD*%
D18*
%TO.C,J2*%
X145967381Y-103810000D03*
X129737381Y-103810000D03*
X145967381Y-91110000D03*
X129737381Y-91110000D03*
%TD*%
D12*
%TO.C,R3*%
X119610000Y-74735000D03*
X111990000Y-74735000D03*
%TD*%
%TO.C,C7*%
X74575000Y-101935000D03*
X74575000Y-106935000D03*
%TD*%
%TO.C,C3*%
X70000000Y-101935000D03*
X70000000Y-106935000D03*
%TD*%
%TO.C,R8*%
X124500000Y-85135000D03*
X124500000Y-92755000D03*
%TD*%
%TO.C,C1*%
X124500000Y-71778600D03*
X124500000Y-76778600D03*
%TD*%
%TO.C,C2*%
X124500000Y-66335000D03*
X124500000Y-61335000D03*
%TD*%
D22*
%TO.C,U1*%
X119600000Y-92355000D03*
D23*
X119600000Y-89815000D03*
X119600000Y-87275000D03*
X119600000Y-84735000D03*
X111980000Y-84735000D03*
X111980000Y-87275000D03*
X111980000Y-89815000D03*
X111980000Y-92355000D03*
%TD*%
D12*
%TO.C,C9*%
X117300000Y-107635000D03*
X112300000Y-107635000D03*
%TD*%
%TO.C,R4*%
X111990000Y-70327267D03*
X119610000Y-70327267D03*
%TD*%
D24*
%TO.C,A1*%
X107867000Y-106676600D03*
D25*
X107867000Y-104136600D03*
X107867000Y-101596600D03*
X107867000Y-99056600D03*
X107867000Y-96516600D03*
X107867000Y-93976600D03*
X107867000Y-91436600D03*
X107867000Y-88896600D03*
X107867000Y-86356600D03*
X107867000Y-83816600D03*
X107867000Y-81276600D03*
X107867000Y-78736600D03*
X107867000Y-76196600D03*
X107867000Y-73656600D03*
X107867000Y-71116600D03*
X107867000Y-68576600D03*
X107867000Y-66036600D03*
X107867000Y-63496600D03*
X107867000Y-60956600D03*
X107867000Y-58416600D03*
X92627000Y-58416600D03*
X92627000Y-60956600D03*
X92627000Y-63496600D03*
X92627000Y-66036600D03*
X92627000Y-68576600D03*
X92627000Y-71116600D03*
X92627000Y-73656600D03*
X92627000Y-76196600D03*
X92627000Y-78736600D03*
X92627000Y-81276600D03*
X92627000Y-83816600D03*
X92627000Y-86356600D03*
X92627000Y-88896600D03*
X92627000Y-91436600D03*
X92627000Y-93976600D03*
X92627000Y-96516600D03*
X92627000Y-99056600D03*
X92627000Y-101596600D03*
X92627000Y-104136600D03*
X92627000Y-106676600D03*
%TD*%
D16*
%TO.C,TP_IN1*%
X135200000Y-96135000D03*
%TD*%
D12*
%TO.C,C12*%
X117300000Y-96935000D03*
X112300000Y-96935000D03*
%TD*%
D16*
%TO.C,GND2*%
X140300000Y-96035000D03*
%TD*%
%TO.C,TP_OUT1*%
X135200000Y-90935000D03*
%TD*%
M02*
