%TF.GenerationSoftware,KiCad,Pcbnew,8.0.6*%
%TF.CreationDate,2025-01-06T04:04:12+01:00*%
%TF.ProjectId,pod-max,706f642d-6d61-4782-9e6b-696361645f70,1.1*%
%TF.SameCoordinates,Original*%
%TF.FileFunction,Legend,Bot*%
%TF.FilePolarity,Positive*%
%FSLAX46Y46*%
G04 Gerber Fmt 4.6, Leading zero omitted, Abs format (unit mm)*
G04 Created by KiCad (PCBNEW 8.0.6) date 2025-01-06 04:04:12*
%MOMM*%
%LPD*%
G01*
G04 APERTURE LIST*
%ADD10C,0.150000*%
%ADD11C,0.120000*%
%ADD12C,1.200000*%
%ADD13O,1.800000X2.500000*%
%ADD14O,2.500000X1.800000*%
%ADD15O,2.720000X3.580000*%
%ADD16O,2.696000X3.580000*%
%ADD17R,1.800000X1.800000*%
%ADD18C,1.800000*%
%ADD19C,3.000000*%
%ADD20R,1.700000X1.700000*%
%ADD21O,1.700000X1.700000*%
%ADD22C,2.700000*%
%ADD23R,1.600000X1.600000*%
%ADD24O,1.600000X1.600000*%
%ADD25R,2.000000X2.000000*%
%ADD26C,2.000000*%
%ADD27R,3.200000X2.000000*%
%ADD28C,1.700000*%
G04 APERTURE END LIST*
D10*
X104519411Y-70992759D02*
X104186078Y-70992759D01*
X104043221Y-71516569D02*
X104519411Y-71516569D01*
X104519411Y-71516569D02*
X104519411Y-70516569D01*
X104519411Y-70516569D02*
X104043221Y-70516569D01*
X102900364Y-70468950D02*
X103757506Y-71754664D01*
X102614649Y-71468950D02*
X102471792Y-71516569D01*
X102471792Y-71516569D02*
X102233697Y-71516569D01*
X102233697Y-71516569D02*
X102138459Y-71468950D01*
X102138459Y-71468950D02*
X102090840Y-71421330D01*
X102090840Y-71421330D02*
X102043221Y-71326092D01*
X102043221Y-71326092D02*
X102043221Y-71230854D01*
X102043221Y-71230854D02*
X102090840Y-71135616D01*
X102090840Y-71135616D02*
X102138459Y-71087997D01*
X102138459Y-71087997D02*
X102233697Y-71040378D01*
X102233697Y-71040378D02*
X102424173Y-70992759D01*
X102424173Y-70992759D02*
X102519411Y-70945140D01*
X102519411Y-70945140D02*
X102567030Y-70897521D01*
X102567030Y-70897521D02*
X102614649Y-70802283D01*
X102614649Y-70802283D02*
X102614649Y-70707045D01*
X102614649Y-70707045D02*
X102567030Y-70611807D01*
X102567030Y-70611807D02*
X102519411Y-70564188D01*
X102519411Y-70564188D02*
X102424173Y-70516569D01*
X102424173Y-70516569D02*
X102186078Y-70516569D01*
X102186078Y-70516569D02*
X102043221Y-70564188D01*
X100852744Y-71516569D02*
X100852744Y-70516569D01*
X100852744Y-70516569D02*
X100614649Y-70516569D01*
X100614649Y-70516569D02*
X100471792Y-70564188D01*
X100471792Y-70564188D02*
X100376554Y-70659426D01*
X100376554Y-70659426D02*
X100328935Y-70754664D01*
X100328935Y-70754664D02*
X100281316Y-70945140D01*
X100281316Y-70945140D02*
X100281316Y-71087997D01*
X100281316Y-71087997D02*
X100328935Y-71278473D01*
X100328935Y-71278473D02*
X100376554Y-71373711D01*
X100376554Y-71373711D02*
X100471792Y-71468950D01*
X100471792Y-71468950D02*
X100614649Y-71516569D01*
X100614649Y-71516569D02*
X100852744Y-71516569D01*
X99424173Y-71516569D02*
X99424173Y-70992759D01*
X99424173Y-70992759D02*
X99471792Y-70897521D01*
X99471792Y-70897521D02*
X99567030Y-70849902D01*
X99567030Y-70849902D02*
X99757506Y-70849902D01*
X99757506Y-70849902D02*
X99852744Y-70897521D01*
X99424173Y-71468950D02*
X99519411Y-71516569D01*
X99519411Y-71516569D02*
X99757506Y-71516569D01*
X99757506Y-71516569D02*
X99852744Y-71468950D01*
X99852744Y-71468950D02*
X99900363Y-71373711D01*
X99900363Y-71373711D02*
X99900363Y-71278473D01*
X99900363Y-71278473D02*
X99852744Y-71183235D01*
X99852744Y-71183235D02*
X99757506Y-71135616D01*
X99757506Y-71135616D02*
X99519411Y-71135616D01*
X99519411Y-71135616D02*
X99424173Y-71087997D01*
X98947982Y-71516569D02*
X98947982Y-70849902D01*
X98947982Y-70516569D02*
X98995601Y-70564188D01*
X98995601Y-70564188D02*
X98947982Y-70611807D01*
X98947982Y-70611807D02*
X98900363Y-70564188D01*
X98900363Y-70564188D02*
X98947982Y-70516569D01*
X98947982Y-70516569D02*
X98947982Y-70611807D01*
X98519411Y-71468950D02*
X98424173Y-71516569D01*
X98424173Y-71516569D02*
X98233697Y-71516569D01*
X98233697Y-71516569D02*
X98138459Y-71468950D01*
X98138459Y-71468950D02*
X98090840Y-71373711D01*
X98090840Y-71373711D02*
X98090840Y-71326092D01*
X98090840Y-71326092D02*
X98138459Y-71230854D01*
X98138459Y-71230854D02*
X98233697Y-71183235D01*
X98233697Y-71183235D02*
X98376554Y-71183235D01*
X98376554Y-71183235D02*
X98471792Y-71135616D01*
X98471792Y-71135616D02*
X98519411Y-71040378D01*
X98519411Y-71040378D02*
X98519411Y-70992759D01*
X98519411Y-70992759D02*
X98471792Y-70897521D01*
X98471792Y-70897521D02*
X98376554Y-70849902D01*
X98376554Y-70849902D02*
X98233697Y-70849902D01*
X98233697Y-70849902D02*
X98138459Y-70897521D01*
X97757506Y-70849902D02*
X97519411Y-71516569D01*
X97281316Y-70849902D02*
X97519411Y-71516569D01*
X97519411Y-71516569D02*
X97614649Y-71754664D01*
X97614649Y-71754664D02*
X97662268Y-71802283D01*
X97662268Y-71802283D02*
X97757506Y-71849902D01*
X96186077Y-71468950D02*
X96043220Y-71516569D01*
X96043220Y-71516569D02*
X95805125Y-71516569D01*
X95805125Y-71516569D02*
X95709887Y-71468950D01*
X95709887Y-71468950D02*
X95662268Y-71421330D01*
X95662268Y-71421330D02*
X95614649Y-71326092D01*
X95614649Y-71326092D02*
X95614649Y-71230854D01*
X95614649Y-71230854D02*
X95662268Y-71135616D01*
X95662268Y-71135616D02*
X95709887Y-71087997D01*
X95709887Y-71087997D02*
X95805125Y-71040378D01*
X95805125Y-71040378D02*
X95995601Y-70992759D01*
X95995601Y-70992759D02*
X96090839Y-70945140D01*
X96090839Y-70945140D02*
X96138458Y-70897521D01*
X96138458Y-70897521D02*
X96186077Y-70802283D01*
X96186077Y-70802283D02*
X96186077Y-70707045D01*
X96186077Y-70707045D02*
X96138458Y-70611807D01*
X96138458Y-70611807D02*
X96090839Y-70564188D01*
X96090839Y-70564188D02*
X95995601Y-70516569D01*
X95995601Y-70516569D02*
X95757506Y-70516569D01*
X95757506Y-70516569D02*
X95614649Y-70564188D01*
X94805125Y-71468950D02*
X94900363Y-71516569D01*
X94900363Y-71516569D02*
X95090839Y-71516569D01*
X95090839Y-71516569D02*
X95186077Y-71468950D01*
X95186077Y-71468950D02*
X95233696Y-71373711D01*
X95233696Y-71373711D02*
X95233696Y-70992759D01*
X95233696Y-70992759D02*
X95186077Y-70897521D01*
X95186077Y-70897521D02*
X95090839Y-70849902D01*
X95090839Y-70849902D02*
X94900363Y-70849902D01*
X94900363Y-70849902D02*
X94805125Y-70897521D01*
X94805125Y-70897521D02*
X94757506Y-70992759D01*
X94757506Y-70992759D02*
X94757506Y-71087997D01*
X94757506Y-71087997D02*
X95233696Y-71183235D01*
X93947982Y-71468950D02*
X94043220Y-71516569D01*
X94043220Y-71516569D02*
X94233696Y-71516569D01*
X94233696Y-71516569D02*
X94328934Y-71468950D01*
X94328934Y-71468950D02*
X94376553Y-71373711D01*
X94376553Y-71373711D02*
X94376553Y-70992759D01*
X94376553Y-70992759D02*
X94328934Y-70897521D01*
X94328934Y-70897521D02*
X94233696Y-70849902D01*
X94233696Y-70849902D02*
X94043220Y-70849902D01*
X94043220Y-70849902D02*
X93947982Y-70897521D01*
X93947982Y-70897521D02*
X93900363Y-70992759D01*
X93900363Y-70992759D02*
X93900363Y-71087997D01*
X93900363Y-71087997D02*
X94376553Y-71183235D01*
X93043220Y-71516569D02*
X93043220Y-70516569D01*
X93043220Y-71468950D02*
X93138458Y-71516569D01*
X93138458Y-71516569D02*
X93328934Y-71516569D01*
X93328934Y-71516569D02*
X93424172Y-71468950D01*
X93424172Y-71468950D02*
X93471791Y-71421330D01*
X93471791Y-71421330D02*
X93519410Y-71326092D01*
X93519410Y-71326092D02*
X93519410Y-71040378D01*
X93519410Y-71040378D02*
X93471791Y-70945140D01*
X93471791Y-70945140D02*
X93424172Y-70897521D01*
X93424172Y-70897521D02*
X93328934Y-70849902D01*
X93328934Y-70849902D02*
X93138458Y-70849902D01*
X93138458Y-70849902D02*
X93043220Y-70897521D01*
X142682855Y-129514157D02*
X142168570Y-129514157D01*
X142425712Y-130414157D02*
X142425712Y-129514157D01*
X141868570Y-130414157D02*
X141868570Y-129514157D01*
X141482856Y-130414157D02*
X141482856Y-129942728D01*
X141482856Y-129942728D02*
X141525713Y-129857014D01*
X141525713Y-129857014D02*
X141611427Y-129814157D01*
X141611427Y-129814157D02*
X141739998Y-129814157D01*
X141739998Y-129814157D02*
X141825713Y-129857014D01*
X141825713Y-129857014D02*
X141868570Y-129899871D01*
X141054284Y-130414157D02*
X141054284Y-129814157D01*
X141054284Y-129514157D02*
X141097141Y-129557014D01*
X141097141Y-129557014D02*
X141054284Y-129599871D01*
X141054284Y-129599871D02*
X141011427Y-129557014D01*
X141011427Y-129557014D02*
X141054284Y-129514157D01*
X141054284Y-129514157D02*
X141054284Y-129599871D01*
X140668570Y-130371300D02*
X140582856Y-130414157D01*
X140582856Y-130414157D02*
X140411427Y-130414157D01*
X140411427Y-130414157D02*
X140325713Y-130371300D01*
X140325713Y-130371300D02*
X140282856Y-130285585D01*
X140282856Y-130285585D02*
X140282856Y-130242728D01*
X140282856Y-130242728D02*
X140325713Y-130157014D01*
X140325713Y-130157014D02*
X140411427Y-130114157D01*
X140411427Y-130114157D02*
X140539999Y-130114157D01*
X140539999Y-130114157D02*
X140625713Y-130071300D01*
X140625713Y-130071300D02*
X140668570Y-129985585D01*
X140668570Y-129985585D02*
X140668570Y-129942728D01*
X140668570Y-129942728D02*
X140625713Y-129857014D01*
X140625713Y-129857014D02*
X140539999Y-129814157D01*
X140539999Y-129814157D02*
X140411427Y-129814157D01*
X140411427Y-129814157D02*
X140325713Y-129857014D01*
X138825714Y-129814157D02*
X138825714Y-130414157D01*
X139211428Y-129814157D02*
X139211428Y-130285585D01*
X139211428Y-130285585D02*
X139168571Y-130371300D01*
X139168571Y-130371300D02*
X139082856Y-130414157D01*
X139082856Y-130414157D02*
X138954285Y-130414157D01*
X138954285Y-130414157D02*
X138868571Y-130371300D01*
X138868571Y-130371300D02*
X138825714Y-130328442D01*
X138397142Y-129814157D02*
X138397142Y-130414157D01*
X138397142Y-129899871D02*
X138354285Y-129857014D01*
X138354285Y-129857014D02*
X138268570Y-129814157D01*
X138268570Y-129814157D02*
X138139999Y-129814157D01*
X138139999Y-129814157D02*
X138054285Y-129857014D01*
X138054285Y-129857014D02*
X138011428Y-129942728D01*
X138011428Y-129942728D02*
X138011428Y-130414157D01*
X137582856Y-130414157D02*
X137582856Y-129814157D01*
X137582856Y-129514157D02*
X137625713Y-129557014D01*
X137625713Y-129557014D02*
X137582856Y-129599871D01*
X137582856Y-129599871D02*
X137539999Y-129557014D01*
X137539999Y-129557014D02*
X137582856Y-129514157D01*
X137582856Y-129514157D02*
X137582856Y-129599871D01*
X137282856Y-129814157D02*
X136939999Y-129814157D01*
X137154285Y-129514157D02*
X137154285Y-130285585D01*
X137154285Y-130285585D02*
X137111428Y-130371300D01*
X137111428Y-130371300D02*
X137025713Y-130414157D01*
X137025713Y-130414157D02*
X136939999Y-130414157D01*
X136597142Y-129514157D02*
X136682856Y-129685585D01*
X136254285Y-130371300D02*
X136168571Y-130414157D01*
X136168571Y-130414157D02*
X135997142Y-130414157D01*
X135997142Y-130414157D02*
X135911428Y-130371300D01*
X135911428Y-130371300D02*
X135868571Y-130285585D01*
X135868571Y-130285585D02*
X135868571Y-130242728D01*
X135868571Y-130242728D02*
X135911428Y-130157014D01*
X135911428Y-130157014D02*
X135997142Y-130114157D01*
X135997142Y-130114157D02*
X136125714Y-130114157D01*
X136125714Y-130114157D02*
X136211428Y-130071300D01*
X136211428Y-130071300D02*
X136254285Y-129985585D01*
X136254285Y-129985585D02*
X136254285Y-129942728D01*
X136254285Y-129942728D02*
X136211428Y-129857014D01*
X136211428Y-129857014D02*
X136125714Y-129814157D01*
X136125714Y-129814157D02*
X135997142Y-129814157D01*
X135997142Y-129814157D02*
X135911428Y-129857014D01*
X134797143Y-130414157D02*
X134797143Y-129514157D01*
X134797143Y-129514157D02*
X134497143Y-130157014D01*
X134497143Y-130157014D02*
X134197143Y-129514157D01*
X134197143Y-129514157D02*
X134197143Y-130414157D01*
X133768572Y-130414157D02*
X133768572Y-129514157D01*
X133340001Y-130414157D02*
X133340001Y-129514157D01*
X133340001Y-129514157D02*
X133125715Y-129514157D01*
X133125715Y-129514157D02*
X132997144Y-129557014D01*
X132997144Y-129557014D02*
X132911429Y-129642728D01*
X132911429Y-129642728D02*
X132868572Y-129728442D01*
X132868572Y-129728442D02*
X132825715Y-129899871D01*
X132825715Y-129899871D02*
X132825715Y-130028442D01*
X132825715Y-130028442D02*
X132868572Y-130199871D01*
X132868572Y-130199871D02*
X132911429Y-130285585D01*
X132911429Y-130285585D02*
X132997144Y-130371300D01*
X132997144Y-130371300D02*
X133125715Y-130414157D01*
X133125715Y-130414157D02*
X133340001Y-130414157D01*
X132440001Y-130414157D02*
X132440001Y-129514157D01*
X130940002Y-130371300D02*
X131025716Y-130414157D01*
X131025716Y-130414157D02*
X131197144Y-130414157D01*
X131197144Y-130414157D02*
X131282859Y-130371300D01*
X131282859Y-130371300D02*
X131325716Y-130328442D01*
X131325716Y-130328442D02*
X131368573Y-130242728D01*
X131368573Y-130242728D02*
X131368573Y-129985585D01*
X131368573Y-129985585D02*
X131325716Y-129899871D01*
X131325716Y-129899871D02*
X131282859Y-129857014D01*
X131282859Y-129857014D02*
X131197144Y-129814157D01*
X131197144Y-129814157D02*
X131025716Y-129814157D01*
X131025716Y-129814157D02*
X130940002Y-129857014D01*
X130425715Y-130414157D02*
X130511430Y-130371300D01*
X130511430Y-130371300D02*
X130554287Y-130328442D01*
X130554287Y-130328442D02*
X130597144Y-130242728D01*
X130597144Y-130242728D02*
X130597144Y-129985585D01*
X130597144Y-129985585D02*
X130554287Y-129899871D01*
X130554287Y-129899871D02*
X130511430Y-129857014D01*
X130511430Y-129857014D02*
X130425715Y-129814157D01*
X130425715Y-129814157D02*
X130297144Y-129814157D01*
X130297144Y-129814157D02*
X130211430Y-129857014D01*
X130211430Y-129857014D02*
X130168573Y-129899871D01*
X130168573Y-129899871D02*
X130125715Y-129985585D01*
X130125715Y-129985585D02*
X130125715Y-130242728D01*
X130125715Y-130242728D02*
X130168573Y-130328442D01*
X130168573Y-130328442D02*
X130211430Y-130371300D01*
X130211430Y-130371300D02*
X130297144Y-130414157D01*
X130297144Y-130414157D02*
X130425715Y-130414157D01*
X129740001Y-129814157D02*
X129740001Y-130414157D01*
X129740001Y-129899871D02*
X129697144Y-129857014D01*
X129697144Y-129857014D02*
X129611429Y-129814157D01*
X129611429Y-129814157D02*
X129482858Y-129814157D01*
X129482858Y-129814157D02*
X129397144Y-129857014D01*
X129397144Y-129857014D02*
X129354287Y-129942728D01*
X129354287Y-129942728D02*
X129354287Y-130414157D01*
X128925715Y-129814157D02*
X128925715Y-130414157D01*
X128925715Y-129899871D02*
X128882858Y-129857014D01*
X128882858Y-129857014D02*
X128797143Y-129814157D01*
X128797143Y-129814157D02*
X128668572Y-129814157D01*
X128668572Y-129814157D02*
X128582858Y-129857014D01*
X128582858Y-129857014D02*
X128540001Y-129942728D01*
X128540001Y-129942728D02*
X128540001Y-130414157D01*
X127768572Y-130371300D02*
X127854286Y-130414157D01*
X127854286Y-130414157D02*
X128025715Y-130414157D01*
X128025715Y-130414157D02*
X128111429Y-130371300D01*
X128111429Y-130371300D02*
X128154286Y-130285585D01*
X128154286Y-130285585D02*
X128154286Y-129942728D01*
X128154286Y-129942728D02*
X128111429Y-129857014D01*
X128111429Y-129857014D02*
X128025715Y-129814157D01*
X128025715Y-129814157D02*
X127854286Y-129814157D01*
X127854286Y-129814157D02*
X127768572Y-129857014D01*
X127768572Y-129857014D02*
X127725715Y-129942728D01*
X127725715Y-129942728D02*
X127725715Y-130028442D01*
X127725715Y-130028442D02*
X128154286Y-130114157D01*
X126954286Y-130371300D02*
X127040000Y-130414157D01*
X127040000Y-130414157D02*
X127211428Y-130414157D01*
X127211428Y-130414157D02*
X127297143Y-130371300D01*
X127297143Y-130371300D02*
X127340000Y-130328442D01*
X127340000Y-130328442D02*
X127382857Y-130242728D01*
X127382857Y-130242728D02*
X127382857Y-129985585D01*
X127382857Y-129985585D02*
X127340000Y-129899871D01*
X127340000Y-129899871D02*
X127297143Y-129857014D01*
X127297143Y-129857014D02*
X127211428Y-129814157D01*
X127211428Y-129814157D02*
X127040000Y-129814157D01*
X127040000Y-129814157D02*
X126954286Y-129857014D01*
X126697142Y-129814157D02*
X126354285Y-129814157D01*
X126568571Y-129514157D02*
X126568571Y-130285585D01*
X126568571Y-130285585D02*
X126525714Y-130371300D01*
X126525714Y-130371300D02*
X126439999Y-130414157D01*
X126439999Y-130414157D02*
X126354285Y-130414157D01*
X125925713Y-130414157D02*
X126011428Y-130371300D01*
X126011428Y-130371300D02*
X126054285Y-130328442D01*
X126054285Y-130328442D02*
X126097142Y-130242728D01*
X126097142Y-130242728D02*
X126097142Y-129985585D01*
X126097142Y-129985585D02*
X126054285Y-129899871D01*
X126054285Y-129899871D02*
X126011428Y-129857014D01*
X126011428Y-129857014D02*
X125925713Y-129814157D01*
X125925713Y-129814157D02*
X125797142Y-129814157D01*
X125797142Y-129814157D02*
X125711428Y-129857014D01*
X125711428Y-129857014D02*
X125668571Y-129899871D01*
X125668571Y-129899871D02*
X125625713Y-129985585D01*
X125625713Y-129985585D02*
X125625713Y-130242728D01*
X125625713Y-130242728D02*
X125668571Y-130328442D01*
X125668571Y-130328442D02*
X125711428Y-130371300D01*
X125711428Y-130371300D02*
X125797142Y-130414157D01*
X125797142Y-130414157D02*
X125925713Y-130414157D01*
X125239999Y-130414157D02*
X125239999Y-129814157D01*
X125239999Y-129985585D02*
X125197142Y-129899871D01*
X125197142Y-129899871D02*
X125154285Y-129857014D01*
X125154285Y-129857014D02*
X125068570Y-129814157D01*
X125068570Y-129814157D02*
X124982856Y-129814157D01*
X124725713Y-130371300D02*
X124639999Y-130414157D01*
X124639999Y-130414157D02*
X124468570Y-130414157D01*
X124468570Y-130414157D02*
X124382856Y-130371300D01*
X124382856Y-130371300D02*
X124339999Y-130285585D01*
X124339999Y-130285585D02*
X124339999Y-130242728D01*
X124339999Y-130242728D02*
X124382856Y-130157014D01*
X124382856Y-130157014D02*
X124468570Y-130114157D01*
X124468570Y-130114157D02*
X124597142Y-130114157D01*
X124597142Y-130114157D02*
X124682856Y-130071300D01*
X124682856Y-130071300D02*
X124725713Y-129985585D01*
X124725713Y-129985585D02*
X124725713Y-129942728D01*
X124725713Y-129942728D02*
X124682856Y-129857014D01*
X124682856Y-129857014D02*
X124597142Y-129814157D01*
X124597142Y-129814157D02*
X124468570Y-129814157D01*
X124468570Y-129814157D02*
X124382856Y-129857014D01*
X122882857Y-130414157D02*
X122882857Y-129942728D01*
X122882857Y-129942728D02*
X122925714Y-129857014D01*
X122925714Y-129857014D02*
X123011428Y-129814157D01*
X123011428Y-129814157D02*
X123182857Y-129814157D01*
X123182857Y-129814157D02*
X123268571Y-129857014D01*
X122882857Y-130371300D02*
X122968571Y-130414157D01*
X122968571Y-130414157D02*
X123182857Y-130414157D01*
X123182857Y-130414157D02*
X123268571Y-130371300D01*
X123268571Y-130371300D02*
X123311428Y-130285585D01*
X123311428Y-130285585D02*
X123311428Y-130199871D01*
X123311428Y-130199871D02*
X123268571Y-130114157D01*
X123268571Y-130114157D02*
X123182857Y-130071300D01*
X123182857Y-130071300D02*
X122968571Y-130071300D01*
X122968571Y-130071300D02*
X122882857Y-130028442D01*
X122454285Y-130414157D02*
X122454285Y-129814157D01*
X122454285Y-129985585D02*
X122411428Y-129899871D01*
X122411428Y-129899871D02*
X122368571Y-129857014D01*
X122368571Y-129857014D02*
X122282856Y-129814157D01*
X122282856Y-129814157D02*
X122197142Y-129814157D01*
X121554285Y-130371300D02*
X121639999Y-130414157D01*
X121639999Y-130414157D02*
X121811428Y-130414157D01*
X121811428Y-130414157D02*
X121897142Y-130371300D01*
X121897142Y-130371300D02*
X121939999Y-130285585D01*
X121939999Y-130285585D02*
X121939999Y-129942728D01*
X121939999Y-129942728D02*
X121897142Y-129857014D01*
X121897142Y-129857014D02*
X121811428Y-129814157D01*
X121811428Y-129814157D02*
X121639999Y-129814157D01*
X121639999Y-129814157D02*
X121554285Y-129857014D01*
X121554285Y-129857014D02*
X121511428Y-129942728D01*
X121511428Y-129942728D02*
X121511428Y-130028442D01*
X121511428Y-130028442D02*
X121939999Y-130114157D01*
X120525713Y-129514157D02*
X119968570Y-129514157D01*
X119968570Y-129514157D02*
X120268570Y-129857014D01*
X120268570Y-129857014D02*
X120139999Y-129857014D01*
X120139999Y-129857014D02*
X120054285Y-129899871D01*
X120054285Y-129899871D02*
X120011427Y-129942728D01*
X120011427Y-129942728D02*
X119968570Y-130028442D01*
X119968570Y-130028442D02*
X119968570Y-130242728D01*
X119968570Y-130242728D02*
X120011427Y-130328442D01*
X120011427Y-130328442D02*
X120054285Y-130371300D01*
X120054285Y-130371300D02*
X120139999Y-130414157D01*
X120139999Y-130414157D02*
X120397142Y-130414157D01*
X120397142Y-130414157D02*
X120482856Y-130371300D01*
X120482856Y-130371300D02*
X120525713Y-130328442D01*
X119582856Y-130328442D02*
X119539999Y-130371300D01*
X119539999Y-130371300D02*
X119582856Y-130414157D01*
X119582856Y-130414157D02*
X119625713Y-130371300D01*
X119625713Y-130371300D02*
X119582856Y-130328442D01*
X119582856Y-130328442D02*
X119582856Y-130414157D01*
X118725713Y-129514157D02*
X119154285Y-129514157D01*
X119154285Y-129514157D02*
X119197142Y-129942728D01*
X119197142Y-129942728D02*
X119154285Y-129899871D01*
X119154285Y-129899871D02*
X119068571Y-129857014D01*
X119068571Y-129857014D02*
X118854285Y-129857014D01*
X118854285Y-129857014D02*
X118768571Y-129899871D01*
X118768571Y-129899871D02*
X118725713Y-129942728D01*
X118725713Y-129942728D02*
X118682856Y-130028442D01*
X118682856Y-130028442D02*
X118682856Y-130242728D01*
X118682856Y-130242728D02*
X118725713Y-130328442D01*
X118725713Y-130328442D02*
X118768571Y-130371300D01*
X118768571Y-130371300D02*
X118854285Y-130414157D01*
X118854285Y-130414157D02*
X119068571Y-130414157D01*
X119068571Y-130414157D02*
X119154285Y-130371300D01*
X119154285Y-130371300D02*
X119197142Y-130328442D01*
X118297142Y-130414157D02*
X118297142Y-129814157D01*
X118297142Y-129899871D02*
X118254285Y-129857014D01*
X118254285Y-129857014D02*
X118168570Y-129814157D01*
X118168570Y-129814157D02*
X118039999Y-129814157D01*
X118039999Y-129814157D02*
X117954285Y-129857014D01*
X117954285Y-129857014D02*
X117911428Y-129942728D01*
X117911428Y-129942728D02*
X117911428Y-130414157D01*
X117911428Y-129942728D02*
X117868570Y-129857014D01*
X117868570Y-129857014D02*
X117782856Y-129814157D01*
X117782856Y-129814157D02*
X117654285Y-129814157D01*
X117654285Y-129814157D02*
X117568570Y-129857014D01*
X117568570Y-129857014D02*
X117525713Y-129942728D01*
X117525713Y-129942728D02*
X117525713Y-130414157D01*
X117097142Y-130414157D02*
X117097142Y-129814157D01*
X117097142Y-129899871D02*
X117054285Y-129857014D01*
X117054285Y-129857014D02*
X116968570Y-129814157D01*
X116968570Y-129814157D02*
X116839999Y-129814157D01*
X116839999Y-129814157D02*
X116754285Y-129857014D01*
X116754285Y-129857014D02*
X116711428Y-129942728D01*
X116711428Y-129942728D02*
X116711428Y-130414157D01*
X116711428Y-129942728D02*
X116668570Y-129857014D01*
X116668570Y-129857014D02*
X116582856Y-129814157D01*
X116582856Y-129814157D02*
X116454285Y-129814157D01*
X116454285Y-129814157D02*
X116368570Y-129857014D01*
X116368570Y-129857014D02*
X116325713Y-129942728D01*
X116325713Y-129942728D02*
X116325713Y-130414157D01*
X115339999Y-129514157D02*
X114825714Y-129514157D01*
X115082856Y-130414157D02*
X115082856Y-129514157D01*
X114011428Y-130414157D02*
X114311428Y-129985585D01*
X114525714Y-130414157D02*
X114525714Y-129514157D01*
X114525714Y-129514157D02*
X114182857Y-129514157D01*
X114182857Y-129514157D02*
X114097142Y-129557014D01*
X114097142Y-129557014D02*
X114054285Y-129599871D01*
X114054285Y-129599871D02*
X114011428Y-129685585D01*
X114011428Y-129685585D02*
X114011428Y-129814157D01*
X114011428Y-129814157D02*
X114054285Y-129899871D01*
X114054285Y-129899871D02*
X114097142Y-129942728D01*
X114097142Y-129942728D02*
X114182857Y-129985585D01*
X114182857Y-129985585D02*
X114525714Y-129985585D01*
X113668571Y-130371300D02*
X113540000Y-130414157D01*
X113540000Y-130414157D02*
X113325714Y-130414157D01*
X113325714Y-130414157D02*
X113240000Y-130371300D01*
X113240000Y-130371300D02*
X113197142Y-130328442D01*
X113197142Y-130328442D02*
X113154285Y-130242728D01*
X113154285Y-130242728D02*
X113154285Y-130157014D01*
X113154285Y-130157014D02*
X113197142Y-130071300D01*
X113197142Y-130071300D02*
X113240000Y-130028442D01*
X113240000Y-130028442D02*
X113325714Y-129985585D01*
X113325714Y-129985585D02*
X113497142Y-129942728D01*
X113497142Y-129942728D02*
X113582857Y-129899871D01*
X113582857Y-129899871D02*
X113625714Y-129857014D01*
X113625714Y-129857014D02*
X113668571Y-129771300D01*
X113668571Y-129771300D02*
X113668571Y-129685585D01*
X113668571Y-129685585D02*
X113625714Y-129599871D01*
X113625714Y-129599871D02*
X113582857Y-129557014D01*
X113582857Y-129557014D02*
X113497142Y-129514157D01*
X113497142Y-129514157D02*
X113282857Y-129514157D01*
X113282857Y-129514157D02*
X113154285Y-129557014D01*
X112082857Y-130414157D02*
X112082857Y-129814157D01*
X112082857Y-129899871D02*
X112040000Y-129857014D01*
X112040000Y-129857014D02*
X111954285Y-129814157D01*
X111954285Y-129814157D02*
X111825714Y-129814157D01*
X111825714Y-129814157D02*
X111740000Y-129857014D01*
X111740000Y-129857014D02*
X111697143Y-129942728D01*
X111697143Y-129942728D02*
X111697143Y-130414157D01*
X111697143Y-129942728D02*
X111654285Y-129857014D01*
X111654285Y-129857014D02*
X111568571Y-129814157D01*
X111568571Y-129814157D02*
X111440000Y-129814157D01*
X111440000Y-129814157D02*
X111354285Y-129857014D01*
X111354285Y-129857014D02*
X111311428Y-129942728D01*
X111311428Y-129942728D02*
X111311428Y-130414157D01*
X110882857Y-130414157D02*
X110882857Y-129814157D01*
X110882857Y-129514157D02*
X110925714Y-129557014D01*
X110925714Y-129557014D02*
X110882857Y-129599871D01*
X110882857Y-129599871D02*
X110840000Y-129557014D01*
X110840000Y-129557014D02*
X110882857Y-129514157D01*
X110882857Y-129514157D02*
X110882857Y-129599871D01*
X110454286Y-129814157D02*
X110454286Y-130414157D01*
X110454286Y-129899871D02*
X110411429Y-129857014D01*
X110411429Y-129857014D02*
X110325714Y-129814157D01*
X110325714Y-129814157D02*
X110197143Y-129814157D01*
X110197143Y-129814157D02*
X110111429Y-129857014D01*
X110111429Y-129857014D02*
X110068572Y-129942728D01*
X110068572Y-129942728D02*
X110068572Y-130414157D01*
X109640000Y-130414157D02*
X109640000Y-129814157D01*
X109640000Y-129514157D02*
X109682857Y-129557014D01*
X109682857Y-129557014D02*
X109640000Y-129599871D01*
X109640000Y-129599871D02*
X109597143Y-129557014D01*
X109597143Y-129557014D02*
X109640000Y-129514157D01*
X109640000Y-129514157D02*
X109640000Y-129599871D01*
X109211429Y-130071300D02*
X108525715Y-130071300D01*
X108097143Y-129814157D02*
X108097143Y-130714157D01*
X108097143Y-129857014D02*
X108011429Y-129814157D01*
X108011429Y-129814157D02*
X107840000Y-129814157D01*
X107840000Y-129814157D02*
X107754286Y-129857014D01*
X107754286Y-129857014D02*
X107711429Y-129899871D01*
X107711429Y-129899871D02*
X107668571Y-129985585D01*
X107668571Y-129985585D02*
X107668571Y-130242728D01*
X107668571Y-130242728D02*
X107711429Y-130328442D01*
X107711429Y-130328442D02*
X107754286Y-130371300D01*
X107754286Y-130371300D02*
X107840000Y-130414157D01*
X107840000Y-130414157D02*
X108011429Y-130414157D01*
X108011429Y-130414157D02*
X108097143Y-130371300D01*
X107282857Y-130414157D02*
X107282857Y-129514157D01*
X106897143Y-130414157D02*
X106897143Y-129942728D01*
X106897143Y-129942728D02*
X106940000Y-129857014D01*
X106940000Y-129857014D02*
X107025714Y-129814157D01*
X107025714Y-129814157D02*
X107154285Y-129814157D01*
X107154285Y-129814157D02*
X107240000Y-129857014D01*
X107240000Y-129857014D02*
X107282857Y-129899871D01*
X106339999Y-130414157D02*
X106425714Y-130371300D01*
X106425714Y-130371300D02*
X106468571Y-130328442D01*
X106468571Y-130328442D02*
X106511428Y-130242728D01*
X106511428Y-130242728D02*
X106511428Y-129985585D01*
X106511428Y-129985585D02*
X106468571Y-129899871D01*
X106468571Y-129899871D02*
X106425714Y-129857014D01*
X106425714Y-129857014D02*
X106339999Y-129814157D01*
X106339999Y-129814157D02*
X106211428Y-129814157D01*
X106211428Y-129814157D02*
X106125714Y-129857014D01*
X106125714Y-129857014D02*
X106082857Y-129899871D01*
X106082857Y-129899871D02*
X106039999Y-129985585D01*
X106039999Y-129985585D02*
X106039999Y-130242728D01*
X106039999Y-130242728D02*
X106082857Y-130328442D01*
X106082857Y-130328442D02*
X106125714Y-130371300D01*
X106125714Y-130371300D02*
X106211428Y-130414157D01*
X106211428Y-130414157D02*
X106339999Y-130414157D01*
X105654285Y-129814157D02*
X105654285Y-130414157D01*
X105654285Y-129899871D02*
X105611428Y-129857014D01*
X105611428Y-129857014D02*
X105525713Y-129814157D01*
X105525713Y-129814157D02*
X105397142Y-129814157D01*
X105397142Y-129814157D02*
X105311428Y-129857014D01*
X105311428Y-129857014D02*
X105268571Y-129942728D01*
X105268571Y-129942728D02*
X105268571Y-130414157D01*
X104497142Y-130371300D02*
X104582856Y-130414157D01*
X104582856Y-130414157D02*
X104754285Y-130414157D01*
X104754285Y-130414157D02*
X104839999Y-130371300D01*
X104839999Y-130371300D02*
X104882856Y-130285585D01*
X104882856Y-130285585D02*
X104882856Y-129942728D01*
X104882856Y-129942728D02*
X104839999Y-129857014D01*
X104839999Y-129857014D02*
X104754285Y-129814157D01*
X104754285Y-129814157D02*
X104582856Y-129814157D01*
X104582856Y-129814157D02*
X104497142Y-129857014D01*
X104497142Y-129857014D02*
X104454285Y-129942728D01*
X104454285Y-129942728D02*
X104454285Y-130028442D01*
X104454285Y-130028442D02*
X104882856Y-130114157D01*
X103382856Y-129814157D02*
X103382856Y-130585585D01*
X103382856Y-130585585D02*
X103425713Y-130671300D01*
X103425713Y-130671300D02*
X103511427Y-130714157D01*
X103511427Y-130714157D02*
X103554284Y-130714157D01*
X103382856Y-129514157D02*
X103425713Y-129557014D01*
X103425713Y-129557014D02*
X103382856Y-129599871D01*
X103382856Y-129599871D02*
X103339999Y-129557014D01*
X103339999Y-129557014D02*
X103382856Y-129514157D01*
X103382856Y-129514157D02*
X103382856Y-129599871D01*
X102568571Y-130414157D02*
X102568571Y-129942728D01*
X102568571Y-129942728D02*
X102611428Y-129857014D01*
X102611428Y-129857014D02*
X102697142Y-129814157D01*
X102697142Y-129814157D02*
X102868571Y-129814157D01*
X102868571Y-129814157D02*
X102954285Y-129857014D01*
X102568571Y-130371300D02*
X102654285Y-130414157D01*
X102654285Y-130414157D02*
X102868571Y-130414157D01*
X102868571Y-130414157D02*
X102954285Y-130371300D01*
X102954285Y-130371300D02*
X102997142Y-130285585D01*
X102997142Y-130285585D02*
X102997142Y-130199871D01*
X102997142Y-130199871D02*
X102954285Y-130114157D01*
X102954285Y-130114157D02*
X102868571Y-130071300D01*
X102868571Y-130071300D02*
X102654285Y-130071300D01*
X102654285Y-130071300D02*
X102568571Y-130028442D01*
X101754285Y-130371300D02*
X101839999Y-130414157D01*
X101839999Y-130414157D02*
X102011427Y-130414157D01*
X102011427Y-130414157D02*
X102097142Y-130371300D01*
X102097142Y-130371300D02*
X102139999Y-130328442D01*
X102139999Y-130328442D02*
X102182856Y-130242728D01*
X102182856Y-130242728D02*
X102182856Y-129985585D01*
X102182856Y-129985585D02*
X102139999Y-129899871D01*
X102139999Y-129899871D02*
X102097142Y-129857014D01*
X102097142Y-129857014D02*
X102011427Y-129814157D01*
X102011427Y-129814157D02*
X101839999Y-129814157D01*
X101839999Y-129814157D02*
X101754285Y-129857014D01*
X101368570Y-130414157D02*
X101368570Y-129514157D01*
X101282856Y-130071300D02*
X101025713Y-130414157D01*
X101025713Y-129814157D02*
X101368570Y-130157014D01*
X100682856Y-130371300D02*
X100597142Y-130414157D01*
X100597142Y-130414157D02*
X100425713Y-130414157D01*
X100425713Y-130414157D02*
X100339999Y-130371300D01*
X100339999Y-130371300D02*
X100297142Y-130285585D01*
X100297142Y-130285585D02*
X100297142Y-130242728D01*
X100297142Y-130242728D02*
X100339999Y-130157014D01*
X100339999Y-130157014D02*
X100425713Y-130114157D01*
X100425713Y-130114157D02*
X100554285Y-130114157D01*
X100554285Y-130114157D02*
X100639999Y-130071300D01*
X100639999Y-130071300D02*
X100682856Y-129985585D01*
X100682856Y-129985585D02*
X100682856Y-129942728D01*
X100682856Y-129942728D02*
X100639999Y-129857014D01*
X100639999Y-129857014D02*
X100554285Y-129814157D01*
X100554285Y-129814157D02*
X100425713Y-129814157D01*
X100425713Y-129814157D02*
X100339999Y-129857014D01*
X99911428Y-130328442D02*
X99868571Y-130371300D01*
X99868571Y-130371300D02*
X99911428Y-130414157D01*
X99911428Y-130414157D02*
X99954285Y-130371300D01*
X99954285Y-130371300D02*
X99911428Y-130328442D01*
X99911428Y-130328442D02*
X99911428Y-130414157D01*
X139875716Y-130963107D02*
X139875716Y-131691678D01*
X139875716Y-131691678D02*
X139832859Y-131777392D01*
X139832859Y-131777392D02*
X139790002Y-131820250D01*
X139790002Y-131820250D02*
X139704287Y-131863107D01*
X139704287Y-131863107D02*
X139532859Y-131863107D01*
X139532859Y-131863107D02*
X139447144Y-131820250D01*
X139447144Y-131820250D02*
X139404287Y-131777392D01*
X139404287Y-131777392D02*
X139361430Y-131691678D01*
X139361430Y-131691678D02*
X139361430Y-130963107D01*
X138975716Y-131820250D02*
X138890002Y-131863107D01*
X138890002Y-131863107D02*
X138718573Y-131863107D01*
X138718573Y-131863107D02*
X138632859Y-131820250D01*
X138632859Y-131820250D02*
X138590002Y-131734535D01*
X138590002Y-131734535D02*
X138590002Y-131691678D01*
X138590002Y-131691678D02*
X138632859Y-131605964D01*
X138632859Y-131605964D02*
X138718573Y-131563107D01*
X138718573Y-131563107D02*
X138847145Y-131563107D01*
X138847145Y-131563107D02*
X138932859Y-131520250D01*
X138932859Y-131520250D02*
X138975716Y-131434535D01*
X138975716Y-131434535D02*
X138975716Y-131391678D01*
X138975716Y-131391678D02*
X138932859Y-131305964D01*
X138932859Y-131305964D02*
X138847145Y-131263107D01*
X138847145Y-131263107D02*
X138718573Y-131263107D01*
X138718573Y-131263107D02*
X138632859Y-131305964D01*
X137861431Y-131820250D02*
X137947145Y-131863107D01*
X137947145Y-131863107D02*
X138118574Y-131863107D01*
X138118574Y-131863107D02*
X138204288Y-131820250D01*
X138204288Y-131820250D02*
X138247145Y-131734535D01*
X138247145Y-131734535D02*
X138247145Y-131391678D01*
X138247145Y-131391678D02*
X138204288Y-131305964D01*
X138204288Y-131305964D02*
X138118574Y-131263107D01*
X138118574Y-131263107D02*
X137947145Y-131263107D01*
X137947145Y-131263107D02*
X137861431Y-131305964D01*
X137861431Y-131305964D02*
X137818574Y-131391678D01*
X137818574Y-131391678D02*
X137818574Y-131477392D01*
X137818574Y-131477392D02*
X138247145Y-131563107D01*
X136361431Y-131863107D02*
X136361431Y-131391678D01*
X136361431Y-131391678D02*
X136404288Y-131305964D01*
X136404288Y-131305964D02*
X136490002Y-131263107D01*
X136490002Y-131263107D02*
X136661431Y-131263107D01*
X136661431Y-131263107D02*
X136747145Y-131305964D01*
X136361431Y-131820250D02*
X136447145Y-131863107D01*
X136447145Y-131863107D02*
X136661431Y-131863107D01*
X136661431Y-131863107D02*
X136747145Y-131820250D01*
X136747145Y-131820250D02*
X136790002Y-131734535D01*
X136790002Y-131734535D02*
X136790002Y-131648821D01*
X136790002Y-131648821D02*
X136747145Y-131563107D01*
X136747145Y-131563107D02*
X136661431Y-131520250D01*
X136661431Y-131520250D02*
X136447145Y-131520250D01*
X136447145Y-131520250D02*
X136361431Y-131477392D01*
X135375716Y-131263107D02*
X135032859Y-131263107D01*
X135247145Y-130963107D02*
X135247145Y-131734535D01*
X135247145Y-131734535D02*
X135204288Y-131820250D01*
X135204288Y-131820250D02*
X135118573Y-131863107D01*
X135118573Y-131863107D02*
X135032859Y-131863107D01*
X134818573Y-131263107D02*
X134604287Y-131863107D01*
X134390002Y-131263107D02*
X134604287Y-131863107D01*
X134604287Y-131863107D02*
X134690002Y-132077392D01*
X134690002Y-132077392D02*
X134732859Y-132120250D01*
X134732859Y-132120250D02*
X134818573Y-132163107D01*
X134047145Y-131263107D02*
X134047145Y-132163107D01*
X134047145Y-131305964D02*
X133961431Y-131263107D01*
X133961431Y-131263107D02*
X133790002Y-131263107D01*
X133790002Y-131263107D02*
X133704288Y-131305964D01*
X133704288Y-131305964D02*
X133661431Y-131348821D01*
X133661431Y-131348821D02*
X133618573Y-131434535D01*
X133618573Y-131434535D02*
X133618573Y-131691678D01*
X133618573Y-131691678D02*
X133661431Y-131777392D01*
X133661431Y-131777392D02*
X133704288Y-131820250D01*
X133704288Y-131820250D02*
X133790002Y-131863107D01*
X133790002Y-131863107D02*
X133961431Y-131863107D01*
X133961431Y-131863107D02*
X134047145Y-131820250D01*
X132890002Y-131820250D02*
X132975716Y-131863107D01*
X132975716Y-131863107D02*
X133147145Y-131863107D01*
X133147145Y-131863107D02*
X133232859Y-131820250D01*
X133232859Y-131820250D02*
X133275716Y-131734535D01*
X133275716Y-131734535D02*
X133275716Y-131391678D01*
X133275716Y-131391678D02*
X133232859Y-131305964D01*
X133232859Y-131305964D02*
X133147145Y-131263107D01*
X133147145Y-131263107D02*
X132975716Y-131263107D01*
X132975716Y-131263107D02*
X132890002Y-131305964D01*
X132890002Y-131305964D02*
X132847145Y-131391678D01*
X132847145Y-131391678D02*
X132847145Y-131477392D01*
X132847145Y-131477392D02*
X133275716Y-131563107D01*
X132461430Y-131520250D02*
X131775716Y-131520250D01*
X131390001Y-131605964D02*
X130961430Y-131605964D01*
X131475715Y-131863107D02*
X131175715Y-130963107D01*
X131175715Y-130963107D02*
X130875715Y-131863107D01*
X129890001Y-131863107D02*
X129890001Y-130963107D01*
X129890001Y-130963107D02*
X129590001Y-131605964D01*
X129590001Y-131605964D02*
X129290001Y-130963107D01*
X129290001Y-130963107D02*
X129290001Y-131863107D01*
X128861430Y-131863107D02*
X128861430Y-130963107D01*
X128432859Y-131863107D02*
X128432859Y-130963107D01*
X128432859Y-130963107D02*
X128218573Y-130963107D01*
X128218573Y-130963107D02*
X128090002Y-131005964D01*
X128090002Y-131005964D02*
X128004287Y-131091678D01*
X128004287Y-131091678D02*
X127961430Y-131177392D01*
X127961430Y-131177392D02*
X127918573Y-131348821D01*
X127918573Y-131348821D02*
X127918573Y-131477392D01*
X127918573Y-131477392D02*
X127961430Y-131648821D01*
X127961430Y-131648821D02*
X128004287Y-131734535D01*
X128004287Y-131734535D02*
X128090002Y-131820250D01*
X128090002Y-131820250D02*
X128218573Y-131863107D01*
X128218573Y-131863107D02*
X128432859Y-131863107D01*
X127532859Y-131863107D02*
X127532859Y-130963107D01*
X126032860Y-131820250D02*
X126118574Y-131863107D01*
X126118574Y-131863107D02*
X126290002Y-131863107D01*
X126290002Y-131863107D02*
X126375717Y-131820250D01*
X126375717Y-131820250D02*
X126418574Y-131777392D01*
X126418574Y-131777392D02*
X126461431Y-131691678D01*
X126461431Y-131691678D02*
X126461431Y-131434535D01*
X126461431Y-131434535D02*
X126418574Y-131348821D01*
X126418574Y-131348821D02*
X126375717Y-131305964D01*
X126375717Y-131305964D02*
X126290002Y-131263107D01*
X126290002Y-131263107D02*
X126118574Y-131263107D01*
X126118574Y-131263107D02*
X126032860Y-131305964D01*
X125518573Y-131863107D02*
X125604288Y-131820250D01*
X125604288Y-131820250D02*
X125647145Y-131777392D01*
X125647145Y-131777392D02*
X125690002Y-131691678D01*
X125690002Y-131691678D02*
X125690002Y-131434535D01*
X125690002Y-131434535D02*
X125647145Y-131348821D01*
X125647145Y-131348821D02*
X125604288Y-131305964D01*
X125604288Y-131305964D02*
X125518573Y-131263107D01*
X125518573Y-131263107D02*
X125390002Y-131263107D01*
X125390002Y-131263107D02*
X125304288Y-131305964D01*
X125304288Y-131305964D02*
X125261431Y-131348821D01*
X125261431Y-131348821D02*
X125218573Y-131434535D01*
X125218573Y-131434535D02*
X125218573Y-131691678D01*
X125218573Y-131691678D02*
X125261431Y-131777392D01*
X125261431Y-131777392D02*
X125304288Y-131820250D01*
X125304288Y-131820250D02*
X125390002Y-131863107D01*
X125390002Y-131863107D02*
X125518573Y-131863107D01*
X124832859Y-131263107D02*
X124832859Y-131863107D01*
X124832859Y-131348821D02*
X124790002Y-131305964D01*
X124790002Y-131305964D02*
X124704287Y-131263107D01*
X124704287Y-131263107D02*
X124575716Y-131263107D01*
X124575716Y-131263107D02*
X124490002Y-131305964D01*
X124490002Y-131305964D02*
X124447145Y-131391678D01*
X124447145Y-131391678D02*
X124447145Y-131863107D01*
X124104287Y-131263107D02*
X123890001Y-131863107D01*
X123890001Y-131863107D02*
X123675716Y-131263107D01*
X122990002Y-131820250D02*
X123075716Y-131863107D01*
X123075716Y-131863107D02*
X123247145Y-131863107D01*
X123247145Y-131863107D02*
X123332859Y-131820250D01*
X123332859Y-131820250D02*
X123375716Y-131734535D01*
X123375716Y-131734535D02*
X123375716Y-131391678D01*
X123375716Y-131391678D02*
X123332859Y-131305964D01*
X123332859Y-131305964D02*
X123247145Y-131263107D01*
X123247145Y-131263107D02*
X123075716Y-131263107D01*
X123075716Y-131263107D02*
X122990002Y-131305964D01*
X122990002Y-131305964D02*
X122947145Y-131391678D01*
X122947145Y-131391678D02*
X122947145Y-131477392D01*
X122947145Y-131477392D02*
X123375716Y-131563107D01*
X122561430Y-131863107D02*
X122561430Y-131263107D01*
X122561430Y-131434535D02*
X122518573Y-131348821D01*
X122518573Y-131348821D02*
X122475716Y-131305964D01*
X122475716Y-131305964D02*
X122390001Y-131263107D01*
X122390001Y-131263107D02*
X122304287Y-131263107D01*
X122132858Y-131263107D02*
X121790001Y-131263107D01*
X122004287Y-130963107D02*
X122004287Y-131734535D01*
X122004287Y-131734535D02*
X121961430Y-131820250D01*
X121961430Y-131820250D02*
X121875715Y-131863107D01*
X121875715Y-131863107D02*
X121790001Y-131863107D01*
X121147144Y-131820250D02*
X121232858Y-131863107D01*
X121232858Y-131863107D02*
X121404287Y-131863107D01*
X121404287Y-131863107D02*
X121490001Y-131820250D01*
X121490001Y-131820250D02*
X121532858Y-131734535D01*
X121532858Y-131734535D02*
X121532858Y-131391678D01*
X121532858Y-131391678D02*
X121490001Y-131305964D01*
X121490001Y-131305964D02*
X121404287Y-131263107D01*
X121404287Y-131263107D02*
X121232858Y-131263107D01*
X121232858Y-131263107D02*
X121147144Y-131305964D01*
X121147144Y-131305964D02*
X121104287Y-131391678D01*
X121104287Y-131391678D02*
X121104287Y-131477392D01*
X121104287Y-131477392D02*
X121532858Y-131563107D01*
X120718572Y-131863107D02*
X120718572Y-131263107D01*
X120718572Y-131434535D02*
X120675715Y-131348821D01*
X120675715Y-131348821D02*
X120632858Y-131305964D01*
X120632858Y-131305964D02*
X120547143Y-131263107D01*
X120547143Y-131263107D02*
X120461429Y-131263107D01*
X119090001Y-131820250D02*
X119175715Y-131863107D01*
X119175715Y-131863107D02*
X119347143Y-131863107D01*
X119347143Y-131863107D02*
X119432858Y-131820250D01*
X119432858Y-131820250D02*
X119475715Y-131777392D01*
X119475715Y-131777392D02*
X119518572Y-131691678D01*
X119518572Y-131691678D02*
X119518572Y-131434535D01*
X119518572Y-131434535D02*
X119475715Y-131348821D01*
X119475715Y-131348821D02*
X119432858Y-131305964D01*
X119432858Y-131305964D02*
X119347143Y-131263107D01*
X119347143Y-131263107D02*
X119175715Y-131263107D01*
X119175715Y-131263107D02*
X119090001Y-131305964D01*
X118318572Y-131863107D02*
X118318572Y-131391678D01*
X118318572Y-131391678D02*
X118361429Y-131305964D01*
X118361429Y-131305964D02*
X118447143Y-131263107D01*
X118447143Y-131263107D02*
X118618572Y-131263107D01*
X118618572Y-131263107D02*
X118704286Y-131305964D01*
X118318572Y-131820250D02*
X118404286Y-131863107D01*
X118404286Y-131863107D02*
X118618572Y-131863107D01*
X118618572Y-131863107D02*
X118704286Y-131820250D01*
X118704286Y-131820250D02*
X118747143Y-131734535D01*
X118747143Y-131734535D02*
X118747143Y-131648821D01*
X118747143Y-131648821D02*
X118704286Y-131563107D01*
X118704286Y-131563107D02*
X118618572Y-131520250D01*
X118618572Y-131520250D02*
X118404286Y-131520250D01*
X118404286Y-131520250D02*
X118318572Y-131477392D01*
X117890000Y-131863107D02*
X117890000Y-130963107D01*
X117890000Y-131305964D02*
X117804286Y-131263107D01*
X117804286Y-131263107D02*
X117632857Y-131263107D01*
X117632857Y-131263107D02*
X117547143Y-131305964D01*
X117547143Y-131305964D02*
X117504286Y-131348821D01*
X117504286Y-131348821D02*
X117461428Y-131434535D01*
X117461428Y-131434535D02*
X117461428Y-131691678D01*
X117461428Y-131691678D02*
X117504286Y-131777392D01*
X117504286Y-131777392D02*
X117547143Y-131820250D01*
X117547143Y-131820250D02*
X117632857Y-131863107D01*
X117632857Y-131863107D02*
X117804286Y-131863107D01*
X117804286Y-131863107D02*
X117890000Y-131820250D01*
X116947142Y-131863107D02*
X117032857Y-131820250D01*
X117032857Y-131820250D02*
X117075714Y-131734535D01*
X117075714Y-131734535D02*
X117075714Y-130963107D01*
X116261428Y-131820250D02*
X116347142Y-131863107D01*
X116347142Y-131863107D02*
X116518571Y-131863107D01*
X116518571Y-131863107D02*
X116604285Y-131820250D01*
X116604285Y-131820250D02*
X116647142Y-131734535D01*
X116647142Y-131734535D02*
X116647142Y-131391678D01*
X116647142Y-131391678D02*
X116604285Y-131305964D01*
X116604285Y-131305964D02*
X116518571Y-131263107D01*
X116518571Y-131263107D02*
X116347142Y-131263107D01*
X116347142Y-131263107D02*
X116261428Y-131305964D01*
X116261428Y-131305964D02*
X116218571Y-131391678D01*
X116218571Y-131391678D02*
X116218571Y-131477392D01*
X116218571Y-131477392D02*
X116647142Y-131563107D01*
X115147142Y-131863107D02*
X115147142Y-131263107D01*
X115147142Y-130963107D02*
X115189999Y-131005964D01*
X115189999Y-131005964D02*
X115147142Y-131048821D01*
X115147142Y-131048821D02*
X115104285Y-131005964D01*
X115104285Y-131005964D02*
X115147142Y-130963107D01*
X115147142Y-130963107D02*
X115147142Y-131048821D01*
X114718571Y-131263107D02*
X114718571Y-131863107D01*
X114718571Y-131348821D02*
X114675714Y-131305964D01*
X114675714Y-131305964D02*
X114589999Y-131263107D01*
X114589999Y-131263107D02*
X114461428Y-131263107D01*
X114461428Y-131263107D02*
X114375714Y-131305964D01*
X114375714Y-131305964D02*
X114332857Y-131391678D01*
X114332857Y-131391678D02*
X114332857Y-131863107D01*
X112832857Y-131820250D02*
X112918571Y-131863107D01*
X112918571Y-131863107D02*
X113089999Y-131863107D01*
X113089999Y-131863107D02*
X113175714Y-131820250D01*
X113175714Y-131820250D02*
X113218571Y-131777392D01*
X113218571Y-131777392D02*
X113261428Y-131691678D01*
X113261428Y-131691678D02*
X113261428Y-131434535D01*
X113261428Y-131434535D02*
X113218571Y-131348821D01*
X113218571Y-131348821D02*
X113175714Y-131305964D01*
X113175714Y-131305964D02*
X113089999Y-131263107D01*
X113089999Y-131263107D02*
X112918571Y-131263107D01*
X112918571Y-131263107D02*
X112832857Y-131305964D01*
X112318570Y-131863107D02*
X112404285Y-131820250D01*
X112404285Y-131820250D02*
X112447142Y-131777392D01*
X112447142Y-131777392D02*
X112489999Y-131691678D01*
X112489999Y-131691678D02*
X112489999Y-131434535D01*
X112489999Y-131434535D02*
X112447142Y-131348821D01*
X112447142Y-131348821D02*
X112404285Y-131305964D01*
X112404285Y-131305964D02*
X112318570Y-131263107D01*
X112318570Y-131263107D02*
X112189999Y-131263107D01*
X112189999Y-131263107D02*
X112104285Y-131305964D01*
X112104285Y-131305964D02*
X112061428Y-131348821D01*
X112061428Y-131348821D02*
X112018570Y-131434535D01*
X112018570Y-131434535D02*
X112018570Y-131691678D01*
X112018570Y-131691678D02*
X112061428Y-131777392D01*
X112061428Y-131777392D02*
X112104285Y-131820250D01*
X112104285Y-131820250D02*
X112189999Y-131863107D01*
X112189999Y-131863107D02*
X112318570Y-131863107D01*
X111632856Y-131863107D02*
X111632856Y-131263107D01*
X111632856Y-131348821D02*
X111589999Y-131305964D01*
X111589999Y-131305964D02*
X111504284Y-131263107D01*
X111504284Y-131263107D02*
X111375713Y-131263107D01*
X111375713Y-131263107D02*
X111289999Y-131305964D01*
X111289999Y-131305964D02*
X111247142Y-131391678D01*
X111247142Y-131391678D02*
X111247142Y-131863107D01*
X111247142Y-131391678D02*
X111204284Y-131305964D01*
X111204284Y-131305964D02*
X111118570Y-131263107D01*
X111118570Y-131263107D02*
X110989999Y-131263107D01*
X110989999Y-131263107D02*
X110904284Y-131305964D01*
X110904284Y-131305964D02*
X110861427Y-131391678D01*
X110861427Y-131391678D02*
X110861427Y-131863107D01*
X110432856Y-131263107D02*
X110432856Y-132163107D01*
X110432856Y-131305964D02*
X110347142Y-131263107D01*
X110347142Y-131263107D02*
X110175713Y-131263107D01*
X110175713Y-131263107D02*
X110089999Y-131305964D01*
X110089999Y-131305964D02*
X110047142Y-131348821D01*
X110047142Y-131348821D02*
X110004284Y-131434535D01*
X110004284Y-131434535D02*
X110004284Y-131691678D01*
X110004284Y-131691678D02*
X110047142Y-131777392D01*
X110047142Y-131777392D02*
X110089999Y-131820250D01*
X110089999Y-131820250D02*
X110175713Y-131863107D01*
X110175713Y-131863107D02*
X110347142Y-131863107D01*
X110347142Y-131863107D02*
X110432856Y-131820250D01*
X109489998Y-131863107D02*
X109575713Y-131820250D01*
X109575713Y-131820250D02*
X109618570Y-131734535D01*
X109618570Y-131734535D02*
X109618570Y-130963107D01*
X109147141Y-131863107D02*
X109147141Y-131263107D01*
X109147141Y-130963107D02*
X109189998Y-131005964D01*
X109189998Y-131005964D02*
X109147141Y-131048821D01*
X109147141Y-131048821D02*
X109104284Y-131005964D01*
X109104284Y-131005964D02*
X109147141Y-130963107D01*
X109147141Y-130963107D02*
X109147141Y-131048821D01*
X108332856Y-131863107D02*
X108332856Y-131391678D01*
X108332856Y-131391678D02*
X108375713Y-131305964D01*
X108375713Y-131305964D02*
X108461427Y-131263107D01*
X108461427Y-131263107D02*
X108632856Y-131263107D01*
X108632856Y-131263107D02*
X108718570Y-131305964D01*
X108332856Y-131820250D02*
X108418570Y-131863107D01*
X108418570Y-131863107D02*
X108632856Y-131863107D01*
X108632856Y-131863107D02*
X108718570Y-131820250D01*
X108718570Y-131820250D02*
X108761427Y-131734535D01*
X108761427Y-131734535D02*
X108761427Y-131648821D01*
X108761427Y-131648821D02*
X108718570Y-131563107D01*
X108718570Y-131563107D02*
X108632856Y-131520250D01*
X108632856Y-131520250D02*
X108418570Y-131520250D01*
X108418570Y-131520250D02*
X108332856Y-131477392D01*
X107904284Y-131263107D02*
X107904284Y-131863107D01*
X107904284Y-131348821D02*
X107861427Y-131305964D01*
X107861427Y-131305964D02*
X107775712Y-131263107D01*
X107775712Y-131263107D02*
X107647141Y-131263107D01*
X107647141Y-131263107D02*
X107561427Y-131305964D01*
X107561427Y-131305964D02*
X107518570Y-131391678D01*
X107518570Y-131391678D02*
X107518570Y-131863107D01*
X106704284Y-131820250D02*
X106789998Y-131863107D01*
X106789998Y-131863107D02*
X106961426Y-131863107D01*
X106961426Y-131863107D02*
X107047141Y-131820250D01*
X107047141Y-131820250D02*
X107089998Y-131777392D01*
X107089998Y-131777392D02*
X107132855Y-131691678D01*
X107132855Y-131691678D02*
X107132855Y-131434535D01*
X107132855Y-131434535D02*
X107089998Y-131348821D01*
X107089998Y-131348821D02*
X107047141Y-131305964D01*
X107047141Y-131305964D02*
X106961426Y-131263107D01*
X106961426Y-131263107D02*
X106789998Y-131263107D01*
X106789998Y-131263107D02*
X106704284Y-131305964D01*
X105975712Y-131820250D02*
X106061426Y-131863107D01*
X106061426Y-131863107D02*
X106232855Y-131863107D01*
X106232855Y-131863107D02*
X106318569Y-131820250D01*
X106318569Y-131820250D02*
X106361426Y-131734535D01*
X106361426Y-131734535D02*
X106361426Y-131391678D01*
X106361426Y-131391678D02*
X106318569Y-131305964D01*
X106318569Y-131305964D02*
X106232855Y-131263107D01*
X106232855Y-131263107D02*
X106061426Y-131263107D01*
X106061426Y-131263107D02*
X105975712Y-131305964D01*
X105975712Y-131305964D02*
X105932855Y-131391678D01*
X105932855Y-131391678D02*
X105932855Y-131477392D01*
X105932855Y-131477392D02*
X106361426Y-131563107D01*
X104947140Y-131263107D02*
X104775712Y-131863107D01*
X104775712Y-131863107D02*
X104604283Y-131434535D01*
X104604283Y-131434535D02*
X104432854Y-131863107D01*
X104432854Y-131863107D02*
X104261426Y-131263107D01*
X103918569Y-131863107D02*
X103918569Y-131263107D01*
X103918569Y-130963107D02*
X103961426Y-131005964D01*
X103961426Y-131005964D02*
X103918569Y-131048821D01*
X103918569Y-131048821D02*
X103875712Y-131005964D01*
X103875712Y-131005964D02*
X103918569Y-130963107D01*
X103918569Y-130963107D02*
X103918569Y-131048821D01*
X103618569Y-131263107D02*
X103275712Y-131263107D01*
X103489998Y-130963107D02*
X103489998Y-131734535D01*
X103489998Y-131734535D02*
X103447141Y-131820250D01*
X103447141Y-131820250D02*
X103361426Y-131863107D01*
X103361426Y-131863107D02*
X103275712Y-131863107D01*
X102975712Y-131863107D02*
X102975712Y-130963107D01*
X102589998Y-131863107D02*
X102589998Y-131391678D01*
X102589998Y-131391678D02*
X102632855Y-131305964D01*
X102632855Y-131305964D02*
X102718569Y-131263107D01*
X102718569Y-131263107D02*
X102847140Y-131263107D01*
X102847140Y-131263107D02*
X102932855Y-131305964D01*
X102932855Y-131305964D02*
X102975712Y-131348821D01*
X135718571Y-132712057D02*
X135375714Y-132712057D01*
X135590000Y-132412057D02*
X135590000Y-133183485D01*
X135590000Y-133183485D02*
X135547143Y-133269200D01*
X135547143Y-133269200D02*
X135461428Y-133312057D01*
X135461428Y-133312057D02*
X135375714Y-133312057D01*
X135075714Y-133312057D02*
X135075714Y-132412057D01*
X134690000Y-133312057D02*
X134690000Y-132840628D01*
X134690000Y-132840628D02*
X134732857Y-132754914D01*
X134732857Y-132754914D02*
X134818571Y-132712057D01*
X134818571Y-132712057D02*
X134947142Y-132712057D01*
X134947142Y-132712057D02*
X135032857Y-132754914D01*
X135032857Y-132754914D02*
X135075714Y-132797771D01*
X133918571Y-133269200D02*
X134004285Y-133312057D01*
X134004285Y-133312057D02*
X134175714Y-133312057D01*
X134175714Y-133312057D02*
X134261428Y-133269200D01*
X134261428Y-133269200D02*
X134304285Y-133183485D01*
X134304285Y-133183485D02*
X134304285Y-132840628D01*
X134304285Y-132840628D02*
X134261428Y-132754914D01*
X134261428Y-132754914D02*
X134175714Y-132712057D01*
X134175714Y-132712057D02*
X134004285Y-132712057D01*
X134004285Y-132712057D02*
X133918571Y-132754914D01*
X133918571Y-132754914D02*
X133875714Y-132840628D01*
X133875714Y-132840628D02*
X133875714Y-132926342D01*
X133875714Y-132926342D02*
X134304285Y-133012057D01*
X132804285Y-133312057D02*
X132804285Y-132412057D01*
X132804285Y-132412057D02*
X132504285Y-133054914D01*
X132504285Y-133054914D02*
X132204285Y-132412057D01*
X132204285Y-132412057D02*
X132204285Y-133312057D01*
X131775714Y-133312057D02*
X131775714Y-132412057D01*
X131347143Y-133312057D02*
X131347143Y-132412057D01*
X131347143Y-132412057D02*
X131132857Y-132412057D01*
X131132857Y-132412057D02*
X131004286Y-132454914D01*
X131004286Y-132454914D02*
X130918571Y-132540628D01*
X130918571Y-132540628D02*
X130875714Y-132626342D01*
X130875714Y-132626342D02*
X130832857Y-132797771D01*
X130832857Y-132797771D02*
X130832857Y-132926342D01*
X130832857Y-132926342D02*
X130875714Y-133097771D01*
X130875714Y-133097771D02*
X130918571Y-133183485D01*
X130918571Y-133183485D02*
X131004286Y-133269200D01*
X131004286Y-133269200D02*
X131132857Y-133312057D01*
X131132857Y-133312057D02*
X131347143Y-133312057D01*
X130447143Y-133312057D02*
X130447143Y-132412057D01*
X128947144Y-133312057D02*
X128947144Y-132840628D01*
X128947144Y-132840628D02*
X128990001Y-132754914D01*
X128990001Y-132754914D02*
X129075715Y-132712057D01*
X129075715Y-132712057D02*
X129247144Y-132712057D01*
X129247144Y-132712057D02*
X129332858Y-132754914D01*
X128947144Y-133269200D02*
X129032858Y-133312057D01*
X129032858Y-133312057D02*
X129247144Y-133312057D01*
X129247144Y-133312057D02*
X129332858Y-133269200D01*
X129332858Y-133269200D02*
X129375715Y-133183485D01*
X129375715Y-133183485D02*
X129375715Y-133097771D01*
X129375715Y-133097771D02*
X129332858Y-133012057D01*
X129332858Y-133012057D02*
X129247144Y-132969200D01*
X129247144Y-132969200D02*
X129032858Y-132969200D01*
X129032858Y-132969200D02*
X128947144Y-132926342D01*
X128561429Y-133269200D02*
X128475715Y-133312057D01*
X128475715Y-133312057D02*
X128304286Y-133312057D01*
X128304286Y-133312057D02*
X128218572Y-133269200D01*
X128218572Y-133269200D02*
X128175715Y-133183485D01*
X128175715Y-133183485D02*
X128175715Y-133140628D01*
X128175715Y-133140628D02*
X128218572Y-133054914D01*
X128218572Y-133054914D02*
X128304286Y-133012057D01*
X128304286Y-133012057D02*
X128432858Y-133012057D01*
X128432858Y-133012057D02*
X128518572Y-132969200D01*
X128518572Y-132969200D02*
X128561429Y-132883485D01*
X128561429Y-132883485D02*
X128561429Y-132840628D01*
X128561429Y-132840628D02*
X128518572Y-132754914D01*
X128518572Y-132754914D02*
X128432858Y-132712057D01*
X128432858Y-132712057D02*
X128304286Y-132712057D01*
X128304286Y-132712057D02*
X128218572Y-132754914D01*
X127832858Y-133269200D02*
X127747144Y-133312057D01*
X127747144Y-133312057D02*
X127575715Y-133312057D01*
X127575715Y-133312057D02*
X127490001Y-133269200D01*
X127490001Y-133269200D02*
X127447144Y-133183485D01*
X127447144Y-133183485D02*
X127447144Y-133140628D01*
X127447144Y-133140628D02*
X127490001Y-133054914D01*
X127490001Y-133054914D02*
X127575715Y-133012057D01*
X127575715Y-133012057D02*
X127704287Y-133012057D01*
X127704287Y-133012057D02*
X127790001Y-132969200D01*
X127790001Y-132969200D02*
X127832858Y-132883485D01*
X127832858Y-132883485D02*
X127832858Y-132840628D01*
X127832858Y-132840628D02*
X127790001Y-132754914D01*
X127790001Y-132754914D02*
X127704287Y-132712057D01*
X127704287Y-132712057D02*
X127575715Y-132712057D01*
X127575715Y-132712057D02*
X127490001Y-132754914D01*
X126932858Y-133312057D02*
X127018573Y-133269200D01*
X127018573Y-133269200D02*
X127061430Y-133226342D01*
X127061430Y-133226342D02*
X127104287Y-133140628D01*
X127104287Y-133140628D02*
X127104287Y-132883485D01*
X127104287Y-132883485D02*
X127061430Y-132797771D01*
X127061430Y-132797771D02*
X127018573Y-132754914D01*
X127018573Y-132754914D02*
X126932858Y-132712057D01*
X126932858Y-132712057D02*
X126804287Y-132712057D01*
X126804287Y-132712057D02*
X126718573Y-132754914D01*
X126718573Y-132754914D02*
X126675716Y-132797771D01*
X126675716Y-132797771D02*
X126632858Y-132883485D01*
X126632858Y-132883485D02*
X126632858Y-133140628D01*
X126632858Y-133140628D02*
X126675716Y-133226342D01*
X126675716Y-133226342D02*
X126718573Y-133269200D01*
X126718573Y-133269200D02*
X126804287Y-133312057D01*
X126804287Y-133312057D02*
X126932858Y-133312057D01*
X125861430Y-133269200D02*
X125947144Y-133312057D01*
X125947144Y-133312057D02*
X126118572Y-133312057D01*
X126118572Y-133312057D02*
X126204287Y-133269200D01*
X126204287Y-133269200D02*
X126247144Y-133226342D01*
X126247144Y-133226342D02*
X126290001Y-133140628D01*
X126290001Y-133140628D02*
X126290001Y-132883485D01*
X126290001Y-132883485D02*
X126247144Y-132797771D01*
X126247144Y-132797771D02*
X126204287Y-132754914D01*
X126204287Y-132754914D02*
X126118572Y-132712057D01*
X126118572Y-132712057D02*
X125947144Y-132712057D01*
X125947144Y-132712057D02*
X125861430Y-132754914D01*
X125475715Y-133312057D02*
X125475715Y-132712057D01*
X125475715Y-132412057D02*
X125518572Y-132454914D01*
X125518572Y-132454914D02*
X125475715Y-132497771D01*
X125475715Y-132497771D02*
X125432858Y-132454914D01*
X125432858Y-132454914D02*
X125475715Y-132412057D01*
X125475715Y-132412057D02*
X125475715Y-132497771D01*
X124661430Y-133312057D02*
X124661430Y-132840628D01*
X124661430Y-132840628D02*
X124704287Y-132754914D01*
X124704287Y-132754914D02*
X124790001Y-132712057D01*
X124790001Y-132712057D02*
X124961430Y-132712057D01*
X124961430Y-132712057D02*
X125047144Y-132754914D01*
X124661430Y-133269200D02*
X124747144Y-133312057D01*
X124747144Y-133312057D02*
X124961430Y-133312057D01*
X124961430Y-133312057D02*
X125047144Y-133269200D01*
X125047144Y-133269200D02*
X125090001Y-133183485D01*
X125090001Y-133183485D02*
X125090001Y-133097771D01*
X125090001Y-133097771D02*
X125047144Y-133012057D01*
X125047144Y-133012057D02*
X124961430Y-132969200D01*
X124961430Y-132969200D02*
X124747144Y-132969200D01*
X124747144Y-132969200D02*
X124661430Y-132926342D01*
X124361429Y-132712057D02*
X124018572Y-132712057D01*
X124232858Y-132412057D02*
X124232858Y-133183485D01*
X124232858Y-133183485D02*
X124190001Y-133269200D01*
X124190001Y-133269200D02*
X124104286Y-133312057D01*
X124104286Y-133312057D02*
X124018572Y-133312057D01*
X123718572Y-133312057D02*
X123718572Y-132712057D01*
X123718572Y-132412057D02*
X123761429Y-132454914D01*
X123761429Y-132454914D02*
X123718572Y-132497771D01*
X123718572Y-132497771D02*
X123675715Y-132454914D01*
X123675715Y-132454914D02*
X123718572Y-132412057D01*
X123718572Y-132412057D02*
X123718572Y-132497771D01*
X123161429Y-133312057D02*
X123247144Y-133269200D01*
X123247144Y-133269200D02*
X123290001Y-133226342D01*
X123290001Y-133226342D02*
X123332858Y-133140628D01*
X123332858Y-133140628D02*
X123332858Y-132883485D01*
X123332858Y-132883485D02*
X123290001Y-132797771D01*
X123290001Y-132797771D02*
X123247144Y-132754914D01*
X123247144Y-132754914D02*
X123161429Y-132712057D01*
X123161429Y-132712057D02*
X123032858Y-132712057D01*
X123032858Y-132712057D02*
X122947144Y-132754914D01*
X122947144Y-132754914D02*
X122904287Y-132797771D01*
X122904287Y-132797771D02*
X122861429Y-132883485D01*
X122861429Y-132883485D02*
X122861429Y-133140628D01*
X122861429Y-133140628D02*
X122904287Y-133226342D01*
X122904287Y-133226342D02*
X122947144Y-133269200D01*
X122947144Y-133269200D02*
X123032858Y-133312057D01*
X123032858Y-133312057D02*
X123161429Y-133312057D01*
X122475715Y-132712057D02*
X122475715Y-133312057D01*
X122475715Y-132797771D02*
X122432858Y-132754914D01*
X122432858Y-132754914D02*
X122347143Y-132712057D01*
X122347143Y-132712057D02*
X122218572Y-132712057D01*
X122218572Y-132712057D02*
X122132858Y-132754914D01*
X122132858Y-132754914D02*
X122090001Y-132840628D01*
X122090001Y-132840628D02*
X122090001Y-133312057D01*
X121104286Y-132412057D02*
X120590001Y-132412057D01*
X120847143Y-133312057D02*
X120847143Y-132412057D01*
X119775715Y-133312057D02*
X120075715Y-132883485D01*
X120290001Y-133312057D02*
X120290001Y-132412057D01*
X120290001Y-132412057D02*
X119947144Y-132412057D01*
X119947144Y-132412057D02*
X119861429Y-132454914D01*
X119861429Y-132454914D02*
X119818572Y-132497771D01*
X119818572Y-132497771D02*
X119775715Y-132583485D01*
X119775715Y-132583485D02*
X119775715Y-132712057D01*
X119775715Y-132712057D02*
X119818572Y-132797771D01*
X119818572Y-132797771D02*
X119861429Y-132840628D01*
X119861429Y-132840628D02*
X119947144Y-132883485D01*
X119947144Y-132883485D02*
X120290001Y-132883485D01*
X119432858Y-133269200D02*
X119304287Y-133312057D01*
X119304287Y-133312057D02*
X119090001Y-133312057D01*
X119090001Y-133312057D02*
X119004287Y-133269200D01*
X119004287Y-133269200D02*
X118961429Y-133226342D01*
X118961429Y-133226342D02*
X118918572Y-133140628D01*
X118918572Y-133140628D02*
X118918572Y-133054914D01*
X118918572Y-133054914D02*
X118961429Y-132969200D01*
X118961429Y-132969200D02*
X119004287Y-132926342D01*
X119004287Y-132926342D02*
X119090001Y-132883485D01*
X119090001Y-132883485D02*
X119261429Y-132840628D01*
X119261429Y-132840628D02*
X119347144Y-132797771D01*
X119347144Y-132797771D02*
X119390001Y-132754914D01*
X119390001Y-132754914D02*
X119432858Y-132669200D01*
X119432858Y-132669200D02*
X119432858Y-132583485D01*
X119432858Y-132583485D02*
X119390001Y-132497771D01*
X119390001Y-132497771D02*
X119347144Y-132454914D01*
X119347144Y-132454914D02*
X119261429Y-132412057D01*
X119261429Y-132412057D02*
X119047144Y-132412057D01*
X119047144Y-132412057D02*
X118918572Y-132454914D01*
X117461430Y-133312057D02*
X117461430Y-132840628D01*
X117461430Y-132840628D02*
X117504287Y-132754914D01*
X117504287Y-132754914D02*
X117590001Y-132712057D01*
X117590001Y-132712057D02*
X117761430Y-132712057D01*
X117761430Y-132712057D02*
X117847144Y-132754914D01*
X117461430Y-133269200D02*
X117547144Y-133312057D01*
X117547144Y-133312057D02*
X117761430Y-133312057D01*
X117761430Y-133312057D02*
X117847144Y-133269200D01*
X117847144Y-133269200D02*
X117890001Y-133183485D01*
X117890001Y-133183485D02*
X117890001Y-133097771D01*
X117890001Y-133097771D02*
X117847144Y-133012057D01*
X117847144Y-133012057D02*
X117761430Y-132969200D01*
X117761430Y-132969200D02*
X117547144Y-132969200D01*
X117547144Y-132969200D02*
X117461430Y-132926342D01*
X116647144Y-133312057D02*
X116647144Y-132412057D01*
X116647144Y-133269200D02*
X116732858Y-133312057D01*
X116732858Y-133312057D02*
X116904286Y-133312057D01*
X116904286Y-133312057D02*
X116990001Y-133269200D01*
X116990001Y-133269200D02*
X117032858Y-133226342D01*
X117032858Y-133226342D02*
X117075715Y-133140628D01*
X117075715Y-133140628D02*
X117075715Y-132883485D01*
X117075715Y-132883485D02*
X117032858Y-132797771D01*
X117032858Y-132797771D02*
X116990001Y-132754914D01*
X116990001Y-132754914D02*
X116904286Y-132712057D01*
X116904286Y-132712057D02*
X116732858Y-132712057D01*
X116732858Y-132712057D02*
X116647144Y-132754914D01*
X115832858Y-133312057D02*
X115832858Y-132840628D01*
X115832858Y-132840628D02*
X115875715Y-132754914D01*
X115875715Y-132754914D02*
X115961429Y-132712057D01*
X115961429Y-132712057D02*
X116132858Y-132712057D01*
X116132858Y-132712057D02*
X116218572Y-132754914D01*
X115832858Y-133269200D02*
X115918572Y-133312057D01*
X115918572Y-133312057D02*
X116132858Y-133312057D01*
X116132858Y-133312057D02*
X116218572Y-133269200D01*
X116218572Y-133269200D02*
X116261429Y-133183485D01*
X116261429Y-133183485D02*
X116261429Y-133097771D01*
X116261429Y-133097771D02*
X116218572Y-133012057D01*
X116218572Y-133012057D02*
X116132858Y-132969200D01*
X116132858Y-132969200D02*
X115918572Y-132969200D01*
X115918572Y-132969200D02*
X115832858Y-132926342D01*
X115404286Y-132712057D02*
X115404286Y-133612057D01*
X115404286Y-132754914D02*
X115318572Y-132712057D01*
X115318572Y-132712057D02*
X115147143Y-132712057D01*
X115147143Y-132712057D02*
X115061429Y-132754914D01*
X115061429Y-132754914D02*
X115018572Y-132797771D01*
X115018572Y-132797771D02*
X114975714Y-132883485D01*
X114975714Y-132883485D02*
X114975714Y-133140628D01*
X114975714Y-133140628D02*
X115018572Y-133226342D01*
X115018572Y-133226342D02*
X115061429Y-133269200D01*
X115061429Y-133269200D02*
X115147143Y-133312057D01*
X115147143Y-133312057D02*
X115318572Y-133312057D01*
X115318572Y-133312057D02*
X115404286Y-133269200D01*
X114718571Y-132712057D02*
X114375714Y-132712057D01*
X114590000Y-132412057D02*
X114590000Y-133183485D01*
X114590000Y-133183485D02*
X114547143Y-133269200D01*
X114547143Y-133269200D02*
X114461428Y-133312057D01*
X114461428Y-133312057D02*
X114375714Y-133312057D01*
X113732857Y-133269200D02*
X113818571Y-133312057D01*
X113818571Y-133312057D02*
X113990000Y-133312057D01*
X113990000Y-133312057D02*
X114075714Y-133269200D01*
X114075714Y-133269200D02*
X114118571Y-133183485D01*
X114118571Y-133183485D02*
X114118571Y-132840628D01*
X114118571Y-132840628D02*
X114075714Y-132754914D01*
X114075714Y-132754914D02*
X113990000Y-132712057D01*
X113990000Y-132712057D02*
X113818571Y-132712057D01*
X113818571Y-132712057D02*
X113732857Y-132754914D01*
X113732857Y-132754914D02*
X113690000Y-132840628D01*
X113690000Y-132840628D02*
X113690000Y-132926342D01*
X113690000Y-132926342D02*
X114118571Y-133012057D01*
X113304285Y-133312057D02*
X113304285Y-132712057D01*
X113304285Y-132883485D02*
X113261428Y-132797771D01*
X113261428Y-132797771D02*
X113218571Y-132754914D01*
X113218571Y-132754914D02*
X113132856Y-132712057D01*
X113132856Y-132712057D02*
X113047142Y-132712057D01*
X112104285Y-133269200D02*
X112018571Y-133312057D01*
X112018571Y-133312057D02*
X111847142Y-133312057D01*
X111847142Y-133312057D02*
X111761428Y-133269200D01*
X111761428Y-133269200D02*
X111718571Y-133183485D01*
X111718571Y-133183485D02*
X111718571Y-133140628D01*
X111718571Y-133140628D02*
X111761428Y-133054914D01*
X111761428Y-133054914D02*
X111847142Y-133012057D01*
X111847142Y-133012057D02*
X111975714Y-133012057D01*
X111975714Y-133012057D02*
X112061428Y-132969200D01*
X112061428Y-132969200D02*
X112104285Y-132883485D01*
X112104285Y-132883485D02*
X112104285Y-132840628D01*
X112104285Y-132840628D02*
X112061428Y-132754914D01*
X112061428Y-132754914D02*
X111975714Y-132712057D01*
X111975714Y-132712057D02*
X111847142Y-132712057D01*
X111847142Y-132712057D02*
X111761428Y-132754914D01*
X111461428Y-132712057D02*
X111118571Y-132712057D01*
X111332857Y-132412057D02*
X111332857Y-133183485D01*
X111332857Y-133183485D02*
X111290000Y-133269200D01*
X111290000Y-133269200D02*
X111204285Y-133312057D01*
X111204285Y-133312057D02*
X111118571Y-133312057D01*
X110432857Y-133312057D02*
X110432857Y-132840628D01*
X110432857Y-132840628D02*
X110475714Y-132754914D01*
X110475714Y-132754914D02*
X110561428Y-132712057D01*
X110561428Y-132712057D02*
X110732857Y-132712057D01*
X110732857Y-132712057D02*
X110818571Y-132754914D01*
X110432857Y-133269200D02*
X110518571Y-133312057D01*
X110518571Y-133312057D02*
X110732857Y-133312057D01*
X110732857Y-133312057D02*
X110818571Y-133269200D01*
X110818571Y-133269200D02*
X110861428Y-133183485D01*
X110861428Y-133183485D02*
X110861428Y-133097771D01*
X110861428Y-133097771D02*
X110818571Y-133012057D01*
X110818571Y-133012057D02*
X110732857Y-132969200D01*
X110732857Y-132969200D02*
X110518571Y-132969200D01*
X110518571Y-132969200D02*
X110432857Y-132926342D01*
X110004285Y-132712057D02*
X110004285Y-133312057D01*
X110004285Y-132797771D02*
X109961428Y-132754914D01*
X109961428Y-132754914D02*
X109875713Y-132712057D01*
X109875713Y-132712057D02*
X109747142Y-132712057D01*
X109747142Y-132712057D02*
X109661428Y-132754914D01*
X109661428Y-132754914D02*
X109618571Y-132840628D01*
X109618571Y-132840628D02*
X109618571Y-133312057D01*
X108804285Y-133312057D02*
X108804285Y-132412057D01*
X108804285Y-133269200D02*
X108889999Y-133312057D01*
X108889999Y-133312057D02*
X109061427Y-133312057D01*
X109061427Y-133312057D02*
X109147142Y-133269200D01*
X109147142Y-133269200D02*
X109189999Y-133226342D01*
X109189999Y-133226342D02*
X109232856Y-133140628D01*
X109232856Y-133140628D02*
X109232856Y-132883485D01*
X109232856Y-132883485D02*
X109189999Y-132797771D01*
X109189999Y-132797771D02*
X109147142Y-132754914D01*
X109147142Y-132754914D02*
X109061427Y-132712057D01*
X109061427Y-132712057D02*
X108889999Y-132712057D01*
X108889999Y-132712057D02*
X108804285Y-132754914D01*
X107989999Y-133312057D02*
X107989999Y-132840628D01*
X107989999Y-132840628D02*
X108032856Y-132754914D01*
X108032856Y-132754914D02*
X108118570Y-132712057D01*
X108118570Y-132712057D02*
X108289999Y-132712057D01*
X108289999Y-132712057D02*
X108375713Y-132754914D01*
X107989999Y-133269200D02*
X108075713Y-133312057D01*
X108075713Y-133312057D02*
X108289999Y-133312057D01*
X108289999Y-133312057D02*
X108375713Y-133269200D01*
X108375713Y-133269200D02*
X108418570Y-133183485D01*
X108418570Y-133183485D02*
X108418570Y-133097771D01*
X108418570Y-133097771D02*
X108375713Y-133012057D01*
X108375713Y-133012057D02*
X108289999Y-132969200D01*
X108289999Y-132969200D02*
X108075713Y-132969200D01*
X108075713Y-132969200D02*
X107989999Y-132926342D01*
X107561427Y-133312057D02*
X107561427Y-132712057D01*
X107561427Y-132883485D02*
X107518570Y-132797771D01*
X107518570Y-132797771D02*
X107475713Y-132754914D01*
X107475713Y-132754914D02*
X107389998Y-132712057D01*
X107389998Y-132712057D02*
X107304284Y-132712057D01*
X106618570Y-133312057D02*
X106618570Y-132412057D01*
X106618570Y-133269200D02*
X106704284Y-133312057D01*
X106704284Y-133312057D02*
X106875712Y-133312057D01*
X106875712Y-133312057D02*
X106961427Y-133269200D01*
X106961427Y-133269200D02*
X107004284Y-133226342D01*
X107004284Y-133226342D02*
X107047141Y-133140628D01*
X107047141Y-133140628D02*
X107047141Y-132883485D01*
X107047141Y-132883485D02*
X107004284Y-132797771D01*
X107004284Y-132797771D02*
X106961427Y-132754914D01*
X106961427Y-132754914D02*
X106875712Y-132712057D01*
X106875712Y-132712057D02*
X106704284Y-132712057D01*
X106704284Y-132712057D02*
X106618570Y-132754914D01*
X106189998Y-133226342D02*
X106147141Y-133269200D01*
X106147141Y-133269200D02*
X106189998Y-133312057D01*
X106189998Y-133312057D02*
X106232855Y-133269200D01*
X106232855Y-133269200D02*
X106189998Y-133226342D01*
X106189998Y-133226342D02*
X106189998Y-133312057D01*
X76604285Y-66554104D02*
X76128095Y-66554104D01*
X76699523Y-66839819D02*
X76366190Y-65839819D01*
X76366190Y-65839819D02*
X76032857Y-66839819D01*
X75175714Y-66839819D02*
X75747142Y-66839819D01*
X75461428Y-66839819D02*
X75461428Y-65839819D01*
X75461428Y-65839819D02*
X75556666Y-65982676D01*
X75556666Y-65982676D02*
X75651904Y-66077914D01*
X75651904Y-66077914D02*
X75747142Y-66125533D01*
D11*
%TO.C,A1*%
X72650000Y-67045000D02*
X73850000Y-67045000D01*
X72650000Y-75045000D02*
X72650000Y-67045000D01*
X73550000Y-61845000D02*
X73550000Y-64145000D01*
X73850000Y-62145000D02*
X124850000Y-62145000D01*
X73850000Y-75045000D02*
X72650000Y-75045000D01*
X73850000Y-79945000D02*
X73850000Y-62145000D01*
X75950000Y-61845000D02*
X73550000Y-61845000D01*
X124850000Y-62145000D02*
X124850000Y-79945000D01*
X124850000Y-64625000D02*
X73850000Y-64625000D01*
X124850000Y-77425000D02*
X73850000Y-77425000D01*
X124850000Y-79945000D02*
X73850000Y-79945000D01*
%TD*%
%LPC*%
D12*
%TO.C,J2*%
X126188595Y-46682893D03*
X116188595Y-46682893D03*
X126188595Y-49182893D03*
X116188595Y-49182893D03*
X121188595Y-54182893D03*
D13*
X126188595Y-54182893D03*
X123688595Y-54182893D03*
D14*
X121188595Y-49182893D03*
D13*
X116188595Y-54182893D03*
X118688595Y-54182893D03*
%TD*%
D15*
%TO.C,RV6*%
X131170237Y-106300000D03*
D16*
X121582237Y-106312000D03*
D17*
X128870237Y-98800000D03*
D18*
X126370237Y-98800000D03*
X123870237Y-98800000D03*
%TD*%
D15*
%TO.C,RV2*%
X165170000Y-71825000D03*
D16*
X155582000Y-71837000D03*
D17*
X162870000Y-64325000D03*
D18*
X160370000Y-64325000D03*
X157870000Y-64325000D03*
%TD*%
D12*
%TO.C,J1*%
X109872893Y-46682893D03*
X99872893Y-46682893D03*
X109872893Y-49182893D03*
X99872893Y-49182893D03*
X104872893Y-54182893D03*
D13*
X109872893Y-54182893D03*
X107372893Y-54182893D03*
D14*
X104872893Y-49182893D03*
D13*
X99872893Y-54182893D03*
X102372893Y-54182893D03*
%TD*%
D19*
%TO.C,U1*%
X72630000Y-59805000D03*
X72630000Y-91805000D03*
X112130000Y-59805000D03*
X112130000Y-91805000D03*
D20*
X71830000Y-68020000D03*
D21*
X71830000Y-70560000D03*
X71830000Y-73100000D03*
X71830000Y-75640000D03*
X71830000Y-78180000D03*
X71830000Y-80720000D03*
X71830000Y-83260000D03*
%TD*%
D15*
%TO.C,RV1*%
X148166071Y-71825000D03*
D16*
X138578071Y-71837000D03*
D17*
X145866071Y-64325000D03*
D18*
X143366071Y-64325000D03*
X140866071Y-64325000D03*
%TD*%
D15*
%TO.C,RV3*%
X131170237Y-89062500D03*
D16*
X121582237Y-89074500D03*
D17*
X128870237Y-81562500D03*
D18*
X126370237Y-81562500D03*
X123870237Y-81562500D03*
%TD*%
D22*
%TO.C,H4*%
X165930000Y-132590000D03*
%TD*%
%TO.C,H1*%
X72000000Y-48710000D03*
%TD*%
D12*
%TO.C,J3*%
X146504297Y-46682893D03*
X136504297Y-46682893D03*
X146504297Y-49182893D03*
X136504297Y-49182893D03*
X141504297Y-54182893D03*
D13*
X146504297Y-54182893D03*
X144004297Y-54182893D03*
D14*
X141504297Y-49182893D03*
D13*
X136504297Y-54182893D03*
X139004297Y-54182893D03*
%TD*%
D15*
%TO.C,RV8*%
X165161905Y-106300000D03*
D16*
X155573905Y-106312000D03*
D17*
X162861905Y-98800000D03*
D18*
X160361905Y-98800000D03*
X157861905Y-98800000D03*
%TD*%
D22*
%TO.C,H3*%
X71930000Y-132590000D03*
%TD*%
D23*
%TO.C,U2*%
X134925000Y-63350000D03*
D24*
X134925000Y-60810000D03*
X134925000Y-58270000D03*
X127305000Y-58270000D03*
X127305000Y-60810000D03*
X127305000Y-63350000D03*
%TD*%
D23*
%TO.C,U3*%
X113765000Y-100725000D03*
D24*
X111225000Y-100725000D03*
X108685000Y-100725000D03*
X106145000Y-100725000D03*
X103605000Y-100725000D03*
X101065000Y-100725000D03*
X98525000Y-100725000D03*
X95985000Y-100725000D03*
X95985000Y-108345000D03*
X98525000Y-108345000D03*
X101065000Y-108345000D03*
X103605000Y-108345000D03*
X106145000Y-108345000D03*
X108685000Y-108345000D03*
X111225000Y-108345000D03*
X113765000Y-108345000D03*
%TD*%
D12*
%TO.C,J4*%
X161820000Y-46682893D03*
X151820000Y-46682893D03*
X161820000Y-49182893D03*
X151820000Y-49182893D03*
X156820000Y-54182893D03*
D13*
X161820000Y-54182893D03*
X159320000Y-54182893D03*
D14*
X156820000Y-49182893D03*
D13*
X151820000Y-54182893D03*
X154320000Y-54182893D03*
%TD*%
D23*
%TO.C,U4*%
X134440000Y-67225000D03*
D24*
X131900000Y-67225000D03*
X129360000Y-67225000D03*
X126820000Y-67225000D03*
X124280000Y-67225000D03*
X121740000Y-67225000D03*
X119200000Y-67225000D03*
X116660000Y-67225000D03*
X116660000Y-74845000D03*
X119200000Y-74845000D03*
X121740000Y-74845000D03*
X124280000Y-74845000D03*
X126820000Y-74845000D03*
X129360000Y-74845000D03*
X131900000Y-74845000D03*
X134440000Y-74845000D03*
%TD*%
D15*
%TO.C,RV4*%
X148166071Y-89062500D03*
D16*
X138578071Y-89074500D03*
D17*
X145866071Y-81562500D03*
D18*
X143366071Y-81562500D03*
X140866071Y-81562500D03*
%TD*%
D25*
%TO.C,SW9*%
X87950000Y-107025000D03*
D26*
X87950000Y-102025000D03*
X87950000Y-104525000D03*
D27*
X80450000Y-110125000D03*
X80450000Y-98925000D03*
D26*
X73450000Y-102025000D03*
X73450000Y-107025000D03*
%TD*%
D15*
%TO.C,RV7*%
X148166071Y-106300000D03*
D16*
X138578071Y-106312000D03*
D17*
X145866071Y-98800000D03*
D18*
X143366071Y-98800000D03*
X140866071Y-98800000D03*
%TD*%
D22*
%TO.C,H2*%
X165930000Y-48590000D03*
%TD*%
D15*
%TO.C,RV5*%
X165161905Y-89062500D03*
D16*
X155573905Y-89074500D03*
D17*
X162861905Y-81562500D03*
D18*
X160361905Y-81562500D03*
X157861905Y-81562500D03*
%TD*%
D20*
%TO.C,A1*%
X75250000Y-63425000D03*
D28*
X77790000Y-63425000D03*
X80330000Y-63425000D03*
X82870000Y-63425000D03*
X85410000Y-63425000D03*
X87950000Y-63425000D03*
X90490000Y-63425000D03*
X93030000Y-63425000D03*
X95570000Y-63425000D03*
X98110000Y-63425000D03*
X100650000Y-63425000D03*
X103190000Y-63425000D03*
X105730000Y-63425000D03*
X108270000Y-63425000D03*
X110810000Y-63425000D03*
X113350000Y-63425000D03*
X115890000Y-63425000D03*
X118430000Y-63425000D03*
X120970000Y-63425000D03*
X123510000Y-63425000D03*
X123510000Y-78665000D03*
X120970000Y-78665000D03*
X118430000Y-78665000D03*
X115890000Y-78665000D03*
X113350000Y-78665000D03*
X110810000Y-78665000D03*
X108270000Y-78665000D03*
X105730000Y-78665000D03*
X103190000Y-78665000D03*
X100650000Y-78665000D03*
X98110000Y-78665000D03*
X95570000Y-78665000D03*
X93030000Y-78665000D03*
X90490000Y-78665000D03*
X87950000Y-78665000D03*
X85410000Y-78665000D03*
X82870000Y-78665000D03*
X80330000Y-78665000D03*
X77790000Y-78665000D03*
X75250000Y-78665000D03*
%TD*%
%LPD*%
M02*
