%TF.GenerationSoftware,KiCad,Pcbnew,8.0.6*%
%TF.CreationDate,2025-01-06T04:04:12+01:00*%
%TF.ProjectId,pod-max,706f642d-6d61-4782-9e6b-696361645f70,1.1*%
%TF.SameCoordinates,Original*%
%TF.FileFunction,Soldermask,Bot*%
%TF.FilePolarity,Negative*%
%FSLAX46Y46*%
G04 Gerber Fmt 4.6, Leading zero omitted, Abs format (unit mm)*
G04 Created by KiCad (PCBNEW 8.0.6) date 2025-01-06 04:04:12*
%MOMM*%
%LPD*%
G01*
G04 APERTURE LIST*
%ADD10C,1.200000*%
%ADD11O,1.800000X2.500000*%
%ADD12O,2.500000X1.800000*%
%ADD13O,2.720000X3.580000*%
%ADD14O,2.696000X3.580000*%
%ADD15R,1.800000X1.800000*%
%ADD16C,1.800000*%
%ADD17C,3.000000*%
%ADD18R,1.700000X1.700000*%
%ADD19O,1.700000X1.700000*%
%ADD20C,2.700000*%
%ADD21R,1.600000X1.600000*%
%ADD22O,1.600000X1.600000*%
%ADD23R,2.000000X2.000000*%
%ADD24C,2.000000*%
%ADD25R,3.200000X2.000000*%
%ADD26C,1.700000*%
G04 APERTURE END LIST*
D10*
%TO.C,J2*%
X126188595Y-46682893D03*
X116188595Y-46682893D03*
X126188595Y-49182893D03*
X116188595Y-49182893D03*
X121188595Y-54182893D03*
D11*
X126188595Y-54182893D03*
X123688595Y-54182893D03*
D12*
X121188595Y-49182893D03*
D11*
X116188595Y-54182893D03*
X118688595Y-54182893D03*
%TD*%
D13*
%TO.C,RV6*%
X131170237Y-106300000D03*
D14*
X121582237Y-106312000D03*
D15*
X128870237Y-98800000D03*
D16*
X126370237Y-98800000D03*
X123870237Y-98800000D03*
%TD*%
D13*
%TO.C,RV2*%
X165170000Y-71825000D03*
D14*
X155582000Y-71837000D03*
D15*
X162870000Y-64325000D03*
D16*
X160370000Y-64325000D03*
X157870000Y-64325000D03*
%TD*%
D10*
%TO.C,J1*%
X109872893Y-46682893D03*
X99872893Y-46682893D03*
X109872893Y-49182893D03*
X99872893Y-49182893D03*
X104872893Y-54182893D03*
D11*
X109872893Y-54182893D03*
X107372893Y-54182893D03*
D12*
X104872893Y-49182893D03*
D11*
X99872893Y-54182893D03*
X102372893Y-54182893D03*
%TD*%
D17*
%TO.C,U1*%
X72630000Y-59805000D03*
X72630000Y-91805000D03*
X112130000Y-59805000D03*
X112130000Y-91805000D03*
D18*
X71830000Y-68020000D03*
D19*
X71830000Y-70560000D03*
X71830000Y-73100000D03*
X71830000Y-75640000D03*
X71830000Y-78180000D03*
X71830000Y-80720000D03*
X71830000Y-83260000D03*
%TD*%
D13*
%TO.C,RV1*%
X148166071Y-71825000D03*
D14*
X138578071Y-71837000D03*
D15*
X145866071Y-64325000D03*
D16*
X143366071Y-64325000D03*
X140866071Y-64325000D03*
%TD*%
D13*
%TO.C,RV3*%
X131170237Y-89062500D03*
D14*
X121582237Y-89074500D03*
D15*
X128870237Y-81562500D03*
D16*
X126370237Y-81562500D03*
X123870237Y-81562500D03*
%TD*%
D20*
%TO.C,H4*%
X165930000Y-132590000D03*
%TD*%
%TO.C,H1*%
X72000000Y-48710000D03*
%TD*%
D10*
%TO.C,J3*%
X146504297Y-46682893D03*
X136504297Y-46682893D03*
X146504297Y-49182893D03*
X136504297Y-49182893D03*
X141504297Y-54182893D03*
D11*
X146504297Y-54182893D03*
X144004297Y-54182893D03*
D12*
X141504297Y-49182893D03*
D11*
X136504297Y-54182893D03*
X139004297Y-54182893D03*
%TD*%
D13*
%TO.C,RV8*%
X165161905Y-106300000D03*
D14*
X155573905Y-106312000D03*
D15*
X162861905Y-98800000D03*
D16*
X160361905Y-98800000D03*
X157861905Y-98800000D03*
%TD*%
D20*
%TO.C,H3*%
X71930000Y-132590000D03*
%TD*%
D21*
%TO.C,U2*%
X134925000Y-63350000D03*
D22*
X134925000Y-60810000D03*
X134925000Y-58270000D03*
X127305000Y-58270000D03*
X127305000Y-60810000D03*
X127305000Y-63350000D03*
%TD*%
D21*
%TO.C,U3*%
X113765000Y-100725000D03*
D22*
X111225000Y-100725000D03*
X108685000Y-100725000D03*
X106145000Y-100725000D03*
X103605000Y-100725000D03*
X101065000Y-100725000D03*
X98525000Y-100725000D03*
X95985000Y-100725000D03*
X95985000Y-108345000D03*
X98525000Y-108345000D03*
X101065000Y-108345000D03*
X103605000Y-108345000D03*
X106145000Y-108345000D03*
X108685000Y-108345000D03*
X111225000Y-108345000D03*
X113765000Y-108345000D03*
%TD*%
D10*
%TO.C,J4*%
X161820000Y-46682893D03*
X151820000Y-46682893D03*
X161820000Y-49182893D03*
X151820000Y-49182893D03*
X156820000Y-54182893D03*
D11*
X161820000Y-54182893D03*
X159320000Y-54182893D03*
D12*
X156820000Y-49182893D03*
D11*
X151820000Y-54182893D03*
X154320000Y-54182893D03*
%TD*%
D21*
%TO.C,U4*%
X134440000Y-67225000D03*
D22*
X131900000Y-67225000D03*
X129360000Y-67225000D03*
X126820000Y-67225000D03*
X124280000Y-67225000D03*
X121740000Y-67225000D03*
X119200000Y-67225000D03*
X116660000Y-67225000D03*
X116660000Y-74845000D03*
X119200000Y-74845000D03*
X121740000Y-74845000D03*
X124280000Y-74845000D03*
X126820000Y-74845000D03*
X129360000Y-74845000D03*
X131900000Y-74845000D03*
X134440000Y-74845000D03*
%TD*%
D13*
%TO.C,RV4*%
X148166071Y-89062500D03*
D14*
X138578071Y-89074500D03*
D15*
X145866071Y-81562500D03*
D16*
X143366071Y-81562500D03*
X140866071Y-81562500D03*
%TD*%
D23*
%TO.C,SW9*%
X87950000Y-107025000D03*
D24*
X87950000Y-102025000D03*
X87950000Y-104525000D03*
D25*
X80450000Y-110125000D03*
X80450000Y-98925000D03*
D24*
X73450000Y-102025000D03*
X73450000Y-107025000D03*
%TD*%
D13*
%TO.C,RV7*%
X148166071Y-106300000D03*
D14*
X138578071Y-106312000D03*
D15*
X145866071Y-98800000D03*
D16*
X143366071Y-98800000D03*
X140866071Y-98800000D03*
%TD*%
D20*
%TO.C,H2*%
X165930000Y-48590000D03*
%TD*%
D13*
%TO.C,RV5*%
X165161905Y-89062500D03*
D14*
X155573905Y-89074500D03*
D15*
X162861905Y-81562500D03*
D16*
X160361905Y-81562500D03*
X157861905Y-81562500D03*
%TD*%
D18*
%TO.C,A1*%
X75250000Y-63425000D03*
D26*
X77790000Y-63425000D03*
X80330000Y-63425000D03*
X82870000Y-63425000D03*
X85410000Y-63425000D03*
X87950000Y-63425000D03*
X90490000Y-63425000D03*
X93030000Y-63425000D03*
X95570000Y-63425000D03*
X98110000Y-63425000D03*
X100650000Y-63425000D03*
X103190000Y-63425000D03*
X105730000Y-63425000D03*
X108270000Y-63425000D03*
X110810000Y-63425000D03*
X113350000Y-63425000D03*
X115890000Y-63425000D03*
X118430000Y-63425000D03*
X120970000Y-63425000D03*
X123510000Y-63425000D03*
X123510000Y-78665000D03*
X120970000Y-78665000D03*
X118430000Y-78665000D03*
X115890000Y-78665000D03*
X113350000Y-78665000D03*
X110810000Y-78665000D03*
X108270000Y-78665000D03*
X105730000Y-78665000D03*
X103190000Y-78665000D03*
X100650000Y-78665000D03*
X98110000Y-78665000D03*
X95570000Y-78665000D03*
X93030000Y-78665000D03*
X90490000Y-78665000D03*
X87950000Y-78665000D03*
X85410000Y-78665000D03*
X82870000Y-78665000D03*
X80330000Y-78665000D03*
X77790000Y-78665000D03*
X75250000Y-78665000D03*
%TD*%
M02*
