M48
; DRILL file {KiCad 8.0.6} date 2025-01-06T04:04:12+0100
; FORMAT={-:-/ absolute / inch / decimal}
; #@! TF.CreationDate,2025-01-06T04:04:12+01:00
; #@! TF.GenerationSoftware,Kicad,Pcbnew,8.0.6
; #@! TF.FileFunction,Plated,1,4,PTH
FMAT,2
INCH
; #@! TA.AperFunction,Plated,PTH,ViaDrill
T1C0.0157
; #@! TA.AperFunction,Plated,PTH,ComponentDrill
T2C0.0315
; #@! TA.AperFunction,Plated,PTH,ComponentDrill
T3C0.0354
; #@! TA.AperFunction,Plated,PTH,ComponentDrill
T4C0.0394
; #@! TA.AperFunction,Plated,PTH,ComponentDrill
T5C0.0433
; #@! TA.AperFunction,Plated,PTH,ComponentDrill
T6C0.0591
%
G90
G05
T1
X2.8337Y-4.7254
X3.0228Y-2.912
X3.1051Y-4.6482
X3.1283Y-5.0003
X3.1368Y-4.8022
X3.1398Y-2.7943
X3.31Y-4.7264
X3.3219Y-2.6083
X3.4577Y-2.7293
X3.5079Y-2.6634
X3.5169Y-2.8919
X3.5965Y-4.6417
X3.6171Y-5.0108
X3.6181Y-2.7943
X3.6406Y-4.8234
X3.6878Y-3.0089
X3.7096Y-3.7579
X3.8061Y-4.7244
X3.8087Y-3.2341
X3.8278Y-2.7795
X4.0272Y-4.7864
X4.0787Y-4.6565
X4.1024Y-3.7224
X4.1033Y-3.8297
X4.1043Y-5.0197
X4.1163Y-3.3148
X4.1398Y-2.6624
X4.1398Y-2.7293
X4.2175Y-4.8248
X4.3041Y-4.7264
X4.5717Y-4.664
X4.5935Y-5.0256
X4.6939Y-4.8219
X4.7551Y-2.2947
X4.7933Y-4.7244
X4.7937Y-3.3348
X4.8165Y-2.7502
X5.0571Y-4.625
X5.0827Y-5.0246
X5.1998Y-4.8268
X5.2874Y-4.7106
X5.5453Y-4.6339
X5.5728Y-5.0177
X5.685Y-4.8228
X5.7628Y-4.7096
X5.8337Y-2.2776
X6.0335Y-4.6526
X6.061Y-5.0226
X6.1732Y-4.8297
X6.2451Y-4.7096
X6.5384Y-4.6329
X6.5502Y-5.0266
T2
X3.7789Y-3.9656
X3.7789Y-4.2656
X3.8789Y-3.9656
X3.8789Y-4.2656
X3.9789Y-3.9656
X3.9789Y-4.2656
X4.0789Y-3.9656
X4.0789Y-4.2656
X4.1789Y-3.9656
X4.1789Y-4.2656
X4.2789Y-3.9656
X4.2789Y-4.2656
X4.3789Y-3.9656
X4.3789Y-4.2656
X4.4789Y-3.9656
X4.4789Y-4.2656
X4.5929Y-2.6467
X4.5929Y-2.9467
X4.6929Y-2.6467
X4.6929Y-2.9467
X4.7929Y-2.6467
X4.7929Y-2.9467
X4.8929Y-2.6467
X4.8929Y-2.9467
X4.9929Y-2.6467
X4.9929Y-2.9467
X5.012Y-2.2941
X5.012Y-2.3941
X5.012Y-2.4941
X5.0929Y-2.6467
X5.0929Y-2.9467
X5.1929Y-2.6467
X5.1929Y-2.9467
X5.2929Y-2.6467
X5.2929Y-2.9467
X5.312Y-2.2941
X5.312Y-2.3941
X5.312Y-2.4941
T4
X2.828Y-2.678
X2.828Y-2.778
X2.828Y-2.878
X2.828Y-2.978
X2.828Y-3.078
X2.828Y-3.178
X2.828Y-3.278
X2.8917Y-4.0167
X2.8917Y-4.2136
X3.4626Y-4.0167
X3.4626Y-4.1152
X3.4626Y-4.2136
X4.8768Y-3.2111
X4.8768Y-3.8898
X4.9752Y-3.2111
X4.9752Y-3.8898
X5.0736Y-3.2111
X5.0736Y-3.8898
X5.5459Y-2.5325
X5.5459Y-3.2111
X5.5459Y-3.8898
X5.6443Y-2.5325
X5.6443Y-3.2111
X5.6443Y-3.8898
X5.7428Y-2.5325
X5.7428Y-3.2111
X5.7428Y-3.8898
X6.215Y-3.2111
X6.215Y-3.8898
X6.2154Y-2.5325
X6.3135Y-3.2111
X6.3135Y-3.8898
X6.3138Y-2.5325
X6.4119Y-3.2111
X6.4119Y-3.8898
X6.4122Y-2.5325
T5
X2.9626Y-2.497
X2.9626Y-3.097
X3.0626Y-2.497
X3.0626Y-3.097
X3.1626Y-2.497
X3.1626Y-3.097
X3.2626Y-2.497
X3.2626Y-3.097
X3.3626Y-2.497
X3.3626Y-3.097
X3.4626Y-2.497
X3.4626Y-3.097
X3.5626Y-2.497
X3.5626Y-3.097
X3.6626Y-2.497
X3.6626Y-3.097
X3.7626Y-2.497
X3.7626Y-3.097
X3.8626Y-2.497
X3.8626Y-3.097
X3.9626Y-2.497
X3.9626Y-3.097
X4.0626Y-2.497
X4.0626Y-3.097
X4.1626Y-2.497
X4.1626Y-3.097
X4.2626Y-2.497
X4.2626Y-3.097
X4.3626Y-2.497
X4.3626Y-3.097
X4.4626Y-2.497
X4.4626Y-3.097
X4.5626Y-2.497
X4.5626Y-3.097
X4.6626Y-2.497
X4.6626Y-3.097
X4.7626Y-2.497
X4.7626Y-3.097
X4.8626Y-2.497
X4.8626Y-3.097
T3
G00X3.932Y-2.1174
M15
G01X3.932Y-2.1489
M16
G05
G00X4.0304Y-2.1174
M15
G01X4.0304Y-2.1489
M16
G05
G00X4.1131Y-1.9363
M15
G01X4.1446Y-1.9363
M16
G05
G00X4.2273Y-2.1174
M15
G01X4.2273Y-2.1489
M16
G05
G00X4.3257Y-2.1174
M15
G01X4.3257Y-2.1489
M16
G05
G00X4.5744Y-2.1174
M15
G01X4.5744Y-2.1489
M16
G05
G00X4.6728Y-2.1174
M15
G01X4.6728Y-2.1489
M16
G05
G00X4.7555Y-1.9363
M15
G01X4.787Y-1.9363
M16
G05
G00X4.8696Y-2.1174
M15
G01X4.8696Y-2.1489
M16
G05
G00X4.9681Y-2.1174
M15
G01X4.9681Y-2.1489
M16
G05
G00X5.3742Y-2.1174
M15
G01X5.3742Y-2.1489
M16
G05
G00X5.4726Y-2.1174
M15
G01X5.4726Y-2.1489
M16
G05
G00X5.5553Y-1.9363
M15
G01X5.5868Y-1.9363
M16
G05
G00X5.6695Y-2.1174
M15
G01X5.6695Y-2.1489
M16
G05
G00X5.7679Y-2.1174
M15
G01X5.7679Y-2.1489
M16
G05
G00X5.9772Y-2.1174
M15
G01X5.9772Y-2.1489
M16
G05
G00X6.0756Y-2.1174
M15
G01X6.0756Y-2.1489
M16
G05
G00X6.1583Y-1.9363
M15
G01X6.1898Y-1.9363
M16
G05
G00X6.2724Y-2.1174
M15
G01X6.2724Y-2.1489
M16
G05
G00X6.3709Y-2.1174
M15
G01X6.3709Y-2.1489
M16
G05
T5
G00X4.7862Y-3.4847
M15
G01X4.7862Y-3.5281
M16
G05
G00X4.7862Y-4.1634
M15
G01X4.7862Y-4.2067
M16
G05
G00X5.1642Y-3.4847
M15
G01X5.1642Y-3.5281
M16
G05
G00X5.1642Y-4.1634
M15
G01X5.1642Y-4.2067
M16
G05
G00X5.4554Y-2.8061
M15
G01X5.4554Y-2.8494
M16
G05
G00X5.4554Y-3.4847
M15
G01X5.4554Y-3.5281
M16
G05
G00X5.4554Y-4.1634
M15
G01X5.4554Y-4.2067
M16
G05
G00X5.8333Y-2.8061
M15
G01X5.8333Y-2.8494
M16
G05
G00X5.8333Y-3.4847
M15
G01X5.8333Y-3.5281
M16
G05
G00X5.8333Y-4.1634
M15
G01X5.8333Y-4.2067
M16
G05
G00X6.1245Y-3.4847
M15
G01X6.1245Y-3.5281
M16
G05
G00X6.1245Y-4.1634
M15
G01X6.1245Y-4.2067
M16
G05
G00X6.1248Y-2.8061
M15
G01X6.1248Y-2.8494
M16
G05
G00X6.5024Y-3.4847
M15
G01X6.5024Y-3.5281
M16
G05
G00X6.5024Y-4.1634
M15
G01X6.5024Y-4.2067
M16
G05
G00X6.5028Y-2.8061
M15
G01X6.5028Y-2.8494
M16
G05
T6
G00X3.1929Y-3.8947
M15
G01X3.1417Y-3.8947
M16
G05
G00X3.1929Y-4.3356
M15
G01X3.1417Y-4.3356
M16
G05
M30
