%TF.GenerationSoftware,KiCad,Pcbnew,8.0.6*%
%TF.CreationDate,2025-01-06T04:04:12+01:00*%
%TF.ProjectId,pod-max,706f642d-6d61-4782-9e6b-696361645f70,1.1*%
%TF.SameCoordinates,Original*%
%TF.FileFunction,Legend,Top*%
%TF.FilePolarity,Positive*%
%FSLAX46Y46*%
G04 Gerber Fmt 4.6, Leading zero omitted, Abs format (unit mm)*
G04 Created by KiCad (PCBNEW 8.0.6) date 2025-01-06 04:04:12*
%MOMM*%
%LPD*%
G01*
G04 APERTURE LIST*
G04 Aperture macros list*
%AMRoundRect*
0 Rectangle with rounded corners*
0 $1 Rounding radius*
0 $2 $3 $4 $5 $6 $7 $8 $9 X,Y pos of 4 corners*
0 Add a 4 corners polygon primitive as box body*
4,1,4,$2,$3,$4,$5,$6,$7,$8,$9,$2,$3,0*
0 Add four circle primitives for the rounded corners*
1,1,$1+$1,$2,$3*
1,1,$1+$1,$4,$5*
1,1,$1+$1,$6,$7*
1,1,$1+$1,$8,$9*
0 Add four rect primitives between the rounded corners*
20,1,$1+$1,$2,$3,$4,$5,0*
20,1,$1+$1,$4,$5,$6,$7,0*
20,1,$1+$1,$6,$7,$8,$9,0*
20,1,$1+$1,$8,$9,$2,$3,0*%
G04 Aperture macros list end*
%ADD10C,0.150000*%
%ADD11C,0.120000*%
%ADD12C,0.000000*%
%ADD13C,1.200000*%
%ADD14O,1.800000X2.500000*%
%ADD15O,2.500000X1.800000*%
%ADD16O,2.720000X3.580000*%
%ADD17O,2.696000X3.580000*%
%ADD18R,1.800000X1.800000*%
%ADD19C,1.800000*%
%ADD20C,3.000000*%
%ADD21R,1.700000X1.700000*%
%ADD22O,1.700000X1.700000*%
%ADD23RoundRect,0.200000X-0.275000X0.200000X-0.275000X-0.200000X0.275000X-0.200000X0.275000X0.200000X0*%
%ADD24RoundRect,0.200000X-0.200000X-0.275000X0.200000X-0.275000X0.200000X0.275000X-0.200000X0.275000X0*%
%ADD25RoundRect,0.218750X-0.218750X-0.256250X0.218750X-0.256250X0.218750X0.256250X-0.218750X0.256250X0*%
%ADD26R,1.000000X0.750000*%
%ADD27RoundRect,0.200000X0.200000X0.275000X-0.200000X0.275000X-0.200000X-0.275000X0.200000X-0.275000X0*%
%ADD28C,2.700000*%
%ADD29RoundRect,0.200000X0.275000X-0.200000X0.275000X0.200000X-0.275000X0.200000X-0.275000X-0.200000X0*%
%ADD30R,1.600000X1.600000*%
%ADD31O,1.600000X1.600000*%
%ADD32RoundRect,0.225000X0.225000X0.250000X-0.225000X0.250000X-0.225000X-0.250000X0.225000X-0.250000X0*%
%ADD33RoundRect,0.112500X0.187500X0.112500X-0.187500X0.112500X-0.187500X-0.112500X0.187500X-0.112500X0*%
%ADD34R,2.000000X2.000000*%
%ADD35C,2.000000*%
%ADD36R,3.200000X2.000000*%
%ADD37C,1.700000*%
G04 APERTURE END LIST*
D10*
X141315945Y-78544819D02*
X141315945Y-77544819D01*
X141315945Y-77544819D02*
X141696897Y-77544819D01*
X141696897Y-77544819D02*
X141792135Y-77592438D01*
X141792135Y-77592438D02*
X141839754Y-77640057D01*
X141839754Y-77640057D02*
X141887373Y-77735295D01*
X141887373Y-77735295D02*
X141887373Y-77878152D01*
X141887373Y-77878152D02*
X141839754Y-77973390D01*
X141839754Y-77973390D02*
X141792135Y-78021009D01*
X141792135Y-78021009D02*
X141696897Y-78068628D01*
X141696897Y-78068628D02*
X141315945Y-78068628D01*
X142506421Y-77544819D02*
X142696897Y-77544819D01*
X142696897Y-77544819D02*
X142792135Y-77592438D01*
X142792135Y-77592438D02*
X142887373Y-77687676D01*
X142887373Y-77687676D02*
X142934992Y-77878152D01*
X142934992Y-77878152D02*
X142934992Y-78211485D01*
X142934992Y-78211485D02*
X142887373Y-78401961D01*
X142887373Y-78401961D02*
X142792135Y-78497200D01*
X142792135Y-78497200D02*
X142696897Y-78544819D01*
X142696897Y-78544819D02*
X142506421Y-78544819D01*
X142506421Y-78544819D02*
X142411183Y-78497200D01*
X142411183Y-78497200D02*
X142315945Y-78401961D01*
X142315945Y-78401961D02*
X142268326Y-78211485D01*
X142268326Y-78211485D02*
X142268326Y-77878152D01*
X142268326Y-77878152D02*
X142315945Y-77687676D01*
X142315945Y-77687676D02*
X142411183Y-77592438D01*
X142411183Y-77592438D02*
X142506421Y-77544819D01*
X143220707Y-77544819D02*
X143792135Y-77544819D01*
X143506421Y-78544819D02*
X143506421Y-77544819D01*
X145411183Y-78544819D02*
X144839755Y-78544819D01*
X145125469Y-78544819D02*
X145125469Y-77544819D01*
X145125469Y-77544819D02*
X145030231Y-77687676D01*
X145030231Y-77687676D02*
X144934993Y-77782914D01*
X144934993Y-77782914D02*
X144839755Y-77830533D01*
X124300588Y-70829902D02*
X124300588Y-71496569D01*
X124062493Y-70448950D02*
X123824398Y-71163235D01*
X123824398Y-71163235D02*
X124443445Y-71163235D01*
X125014874Y-70496569D02*
X125110112Y-70496569D01*
X125110112Y-70496569D02*
X125205350Y-70544188D01*
X125205350Y-70544188D02*
X125252969Y-70591807D01*
X125252969Y-70591807D02*
X125300588Y-70687045D01*
X125300588Y-70687045D02*
X125348207Y-70877521D01*
X125348207Y-70877521D02*
X125348207Y-71115616D01*
X125348207Y-71115616D02*
X125300588Y-71306092D01*
X125300588Y-71306092D02*
X125252969Y-71401330D01*
X125252969Y-71401330D02*
X125205350Y-71448950D01*
X125205350Y-71448950D02*
X125110112Y-71496569D01*
X125110112Y-71496569D02*
X125014874Y-71496569D01*
X125014874Y-71496569D02*
X124919636Y-71448950D01*
X124919636Y-71448950D02*
X124872017Y-71401330D01*
X124872017Y-71401330D02*
X124824398Y-71306092D01*
X124824398Y-71306092D02*
X124776779Y-71115616D01*
X124776779Y-71115616D02*
X124776779Y-70877521D01*
X124776779Y-70877521D02*
X124824398Y-70687045D01*
X124824398Y-70687045D02*
X124872017Y-70591807D01*
X124872017Y-70591807D02*
X124919636Y-70544188D01*
X124919636Y-70544188D02*
X125014874Y-70496569D01*
X126252969Y-70496569D02*
X125776779Y-70496569D01*
X125776779Y-70496569D02*
X125729160Y-70972759D01*
X125729160Y-70972759D02*
X125776779Y-70925140D01*
X125776779Y-70925140D02*
X125872017Y-70877521D01*
X125872017Y-70877521D02*
X126110112Y-70877521D01*
X126110112Y-70877521D02*
X126205350Y-70925140D01*
X126205350Y-70925140D02*
X126252969Y-70972759D01*
X126252969Y-70972759D02*
X126300588Y-71067997D01*
X126300588Y-71067997D02*
X126300588Y-71306092D01*
X126300588Y-71306092D02*
X126252969Y-71401330D01*
X126252969Y-71401330D02*
X126205350Y-71448950D01*
X126205350Y-71448950D02*
X126110112Y-71496569D01*
X126110112Y-71496569D02*
X125872017Y-71496569D01*
X125872017Y-71496569D02*
X125776779Y-71448950D01*
X125776779Y-71448950D02*
X125729160Y-71401330D01*
X127252969Y-71496569D02*
X126681541Y-71496569D01*
X126967255Y-71496569D02*
X126967255Y-70496569D01*
X126967255Y-70496569D02*
X126872017Y-70639426D01*
X126872017Y-70639426D02*
X126776779Y-70734664D01*
X126776779Y-70734664D02*
X126681541Y-70782283D01*
X158311779Y-95719819D02*
X158311779Y-94719819D01*
X158311779Y-94719819D02*
X158692731Y-94719819D01*
X158692731Y-94719819D02*
X158787969Y-94767438D01*
X158787969Y-94767438D02*
X158835588Y-94815057D01*
X158835588Y-94815057D02*
X158883207Y-94910295D01*
X158883207Y-94910295D02*
X158883207Y-95053152D01*
X158883207Y-95053152D02*
X158835588Y-95148390D01*
X158835588Y-95148390D02*
X158787969Y-95196009D01*
X158787969Y-95196009D02*
X158692731Y-95243628D01*
X158692731Y-95243628D02*
X158311779Y-95243628D01*
X159502255Y-94719819D02*
X159692731Y-94719819D01*
X159692731Y-94719819D02*
X159787969Y-94767438D01*
X159787969Y-94767438D02*
X159883207Y-94862676D01*
X159883207Y-94862676D02*
X159930826Y-95053152D01*
X159930826Y-95053152D02*
X159930826Y-95386485D01*
X159930826Y-95386485D02*
X159883207Y-95576961D01*
X159883207Y-95576961D02*
X159787969Y-95672200D01*
X159787969Y-95672200D02*
X159692731Y-95719819D01*
X159692731Y-95719819D02*
X159502255Y-95719819D01*
X159502255Y-95719819D02*
X159407017Y-95672200D01*
X159407017Y-95672200D02*
X159311779Y-95576961D01*
X159311779Y-95576961D02*
X159264160Y-95386485D01*
X159264160Y-95386485D02*
X159264160Y-95053152D01*
X159264160Y-95053152D02*
X159311779Y-94862676D01*
X159311779Y-94862676D02*
X159407017Y-94767438D01*
X159407017Y-94767438D02*
X159502255Y-94719819D01*
X160216541Y-94719819D02*
X160787969Y-94719819D01*
X160502255Y-95719819D02*
X160502255Y-94719819D01*
X162359398Y-94719819D02*
X161883208Y-94719819D01*
X161883208Y-94719819D02*
X161835589Y-95196009D01*
X161835589Y-95196009D02*
X161883208Y-95148390D01*
X161883208Y-95148390D02*
X161978446Y-95100771D01*
X161978446Y-95100771D02*
X162216541Y-95100771D01*
X162216541Y-95100771D02*
X162311779Y-95148390D01*
X162311779Y-95148390D02*
X162359398Y-95196009D01*
X162359398Y-95196009D02*
X162407017Y-95291247D01*
X162407017Y-95291247D02*
X162407017Y-95529342D01*
X162407017Y-95529342D02*
X162359398Y-95624580D01*
X162359398Y-95624580D02*
X162311779Y-95672200D01*
X162311779Y-95672200D02*
X162216541Y-95719819D01*
X162216541Y-95719819D02*
X161978446Y-95719819D01*
X161978446Y-95719819D02*
X161883208Y-95672200D01*
X161883208Y-95672200D02*
X161835589Y-95624580D01*
X158319874Y-78544819D02*
X158319874Y-77544819D01*
X158319874Y-77544819D02*
X158700826Y-77544819D01*
X158700826Y-77544819D02*
X158796064Y-77592438D01*
X158796064Y-77592438D02*
X158843683Y-77640057D01*
X158843683Y-77640057D02*
X158891302Y-77735295D01*
X158891302Y-77735295D02*
X158891302Y-77878152D01*
X158891302Y-77878152D02*
X158843683Y-77973390D01*
X158843683Y-77973390D02*
X158796064Y-78021009D01*
X158796064Y-78021009D02*
X158700826Y-78068628D01*
X158700826Y-78068628D02*
X158319874Y-78068628D01*
X159510350Y-77544819D02*
X159700826Y-77544819D01*
X159700826Y-77544819D02*
X159796064Y-77592438D01*
X159796064Y-77592438D02*
X159891302Y-77687676D01*
X159891302Y-77687676D02*
X159938921Y-77878152D01*
X159938921Y-77878152D02*
X159938921Y-78211485D01*
X159938921Y-78211485D02*
X159891302Y-78401961D01*
X159891302Y-78401961D02*
X159796064Y-78497200D01*
X159796064Y-78497200D02*
X159700826Y-78544819D01*
X159700826Y-78544819D02*
X159510350Y-78544819D01*
X159510350Y-78544819D02*
X159415112Y-78497200D01*
X159415112Y-78497200D02*
X159319874Y-78401961D01*
X159319874Y-78401961D02*
X159272255Y-78211485D01*
X159272255Y-78211485D02*
X159272255Y-77878152D01*
X159272255Y-77878152D02*
X159319874Y-77687676D01*
X159319874Y-77687676D02*
X159415112Y-77592438D01*
X159415112Y-77592438D02*
X159510350Y-77544819D01*
X160224636Y-77544819D02*
X160796064Y-77544819D01*
X160510350Y-78544819D02*
X160510350Y-77544819D01*
X161843684Y-77640057D02*
X161891303Y-77592438D01*
X161891303Y-77592438D02*
X161986541Y-77544819D01*
X161986541Y-77544819D02*
X162224636Y-77544819D01*
X162224636Y-77544819D02*
X162319874Y-77592438D01*
X162319874Y-77592438D02*
X162367493Y-77640057D01*
X162367493Y-77640057D02*
X162415112Y-77735295D01*
X162415112Y-77735295D02*
X162415112Y-77830533D01*
X162415112Y-77830533D02*
X162367493Y-77973390D01*
X162367493Y-77973390D02*
X161796065Y-78544819D01*
X161796065Y-78544819D02*
X162415112Y-78544819D01*
X77801273Y-55284760D02*
X77801273Y-54284760D01*
X77801273Y-54284760D02*
X78182225Y-54284760D01*
X78182225Y-54284760D02*
X78277463Y-54332379D01*
X78277463Y-54332379D02*
X78325082Y-54379998D01*
X78325082Y-54379998D02*
X78372701Y-54475236D01*
X78372701Y-54475236D02*
X78372701Y-54618093D01*
X78372701Y-54618093D02*
X78325082Y-54713331D01*
X78325082Y-54713331D02*
X78277463Y-54760950D01*
X78277463Y-54760950D02*
X78182225Y-54808569D01*
X78182225Y-54808569D02*
X77801273Y-54808569D01*
X78991749Y-54284760D02*
X79182225Y-54284760D01*
X79182225Y-54284760D02*
X79277463Y-54332379D01*
X79277463Y-54332379D02*
X79372701Y-54427617D01*
X79372701Y-54427617D02*
X79420320Y-54618093D01*
X79420320Y-54618093D02*
X79420320Y-54951426D01*
X79420320Y-54951426D02*
X79372701Y-55141902D01*
X79372701Y-55141902D02*
X79277463Y-55237141D01*
X79277463Y-55237141D02*
X79182225Y-55284760D01*
X79182225Y-55284760D02*
X78991749Y-55284760D01*
X78991749Y-55284760D02*
X78896511Y-55237141D01*
X78896511Y-55237141D02*
X78801273Y-55141902D01*
X78801273Y-55141902D02*
X78753654Y-54951426D01*
X78753654Y-54951426D02*
X78753654Y-54618093D01*
X78753654Y-54618093D02*
X78801273Y-54427617D01*
X78801273Y-54427617D02*
X78896511Y-54332379D01*
X78896511Y-54332379D02*
X78991749Y-54284760D01*
X79848892Y-55284760D02*
X79848892Y-54284760D01*
X79848892Y-54284760D02*
X80086987Y-54284760D01*
X80086987Y-54284760D02*
X80229844Y-54332379D01*
X80229844Y-54332379D02*
X80325082Y-54427617D01*
X80325082Y-54427617D02*
X80372701Y-54522855D01*
X80372701Y-54522855D02*
X80420320Y-54713331D01*
X80420320Y-54713331D02*
X80420320Y-54856188D01*
X80420320Y-54856188D02*
X80372701Y-55046664D01*
X80372701Y-55046664D02*
X80325082Y-55141902D01*
X80325082Y-55141902D02*
X80229844Y-55237141D01*
X80229844Y-55237141D02*
X80086987Y-55284760D01*
X80086987Y-55284760D02*
X79848892Y-55284760D01*
X81610797Y-55284760D02*
X81610797Y-54284760D01*
X81610797Y-54284760D02*
X81944130Y-54999045D01*
X81944130Y-54999045D02*
X82277463Y-54284760D01*
X82277463Y-54284760D02*
X82277463Y-55284760D01*
X82706035Y-54999045D02*
X83182225Y-54999045D01*
X82610797Y-55284760D02*
X82944130Y-54284760D01*
X82944130Y-54284760D02*
X83277463Y-55284760D01*
X83515559Y-54284760D02*
X84182225Y-55284760D01*
X84182225Y-54284760D02*
X83515559Y-55284760D01*
X85182226Y-54284760D02*
X85515559Y-55284760D01*
X85515559Y-55284760D02*
X85848892Y-54284760D01*
X86706035Y-55284760D02*
X86134607Y-55284760D01*
X86420321Y-55284760D02*
X86420321Y-54284760D01*
X86420321Y-54284760D02*
X86325083Y-54427617D01*
X86325083Y-54427617D02*
X86229845Y-54522855D01*
X86229845Y-54522855D02*
X86134607Y-54570474D01*
X87134607Y-55189521D02*
X87182226Y-55237141D01*
X87182226Y-55237141D02*
X87134607Y-55284760D01*
X87134607Y-55284760D02*
X87086988Y-55237141D01*
X87086988Y-55237141D02*
X87134607Y-55189521D01*
X87134607Y-55189521D02*
X87134607Y-55284760D01*
X88134606Y-55284760D02*
X87563178Y-55284760D01*
X87848892Y-55284760D02*
X87848892Y-54284760D01*
X87848892Y-54284760D02*
X87753654Y-54427617D01*
X87753654Y-54427617D02*
X87658416Y-54522855D01*
X87658416Y-54522855D02*
X87563178Y-54570474D01*
X124320111Y-95719819D02*
X124320111Y-94719819D01*
X124320111Y-94719819D02*
X124701063Y-94719819D01*
X124701063Y-94719819D02*
X124796301Y-94767438D01*
X124796301Y-94767438D02*
X124843920Y-94815057D01*
X124843920Y-94815057D02*
X124891539Y-94910295D01*
X124891539Y-94910295D02*
X124891539Y-95053152D01*
X124891539Y-95053152D02*
X124843920Y-95148390D01*
X124843920Y-95148390D02*
X124796301Y-95196009D01*
X124796301Y-95196009D02*
X124701063Y-95243628D01*
X124701063Y-95243628D02*
X124320111Y-95243628D01*
X125510587Y-94719819D02*
X125701063Y-94719819D01*
X125701063Y-94719819D02*
X125796301Y-94767438D01*
X125796301Y-94767438D02*
X125891539Y-94862676D01*
X125891539Y-94862676D02*
X125939158Y-95053152D01*
X125939158Y-95053152D02*
X125939158Y-95386485D01*
X125939158Y-95386485D02*
X125891539Y-95576961D01*
X125891539Y-95576961D02*
X125796301Y-95672200D01*
X125796301Y-95672200D02*
X125701063Y-95719819D01*
X125701063Y-95719819D02*
X125510587Y-95719819D01*
X125510587Y-95719819D02*
X125415349Y-95672200D01*
X125415349Y-95672200D02*
X125320111Y-95576961D01*
X125320111Y-95576961D02*
X125272492Y-95386485D01*
X125272492Y-95386485D02*
X125272492Y-95053152D01*
X125272492Y-95053152D02*
X125320111Y-94862676D01*
X125320111Y-94862676D02*
X125415349Y-94767438D01*
X125415349Y-94767438D02*
X125510587Y-94719819D01*
X126224873Y-94719819D02*
X126796301Y-94719819D01*
X126510587Y-95719819D02*
X126510587Y-94719819D01*
X127796302Y-94719819D02*
X128415349Y-94719819D01*
X128415349Y-94719819D02*
X128082016Y-95100771D01*
X128082016Y-95100771D02*
X128224873Y-95100771D01*
X128224873Y-95100771D02*
X128320111Y-95148390D01*
X128320111Y-95148390D02*
X128367730Y-95196009D01*
X128367730Y-95196009D02*
X128415349Y-95291247D01*
X128415349Y-95291247D02*
X128415349Y-95529342D01*
X128415349Y-95529342D02*
X128367730Y-95624580D01*
X128367730Y-95624580D02*
X128320111Y-95672200D01*
X128320111Y-95672200D02*
X128224873Y-95719819D01*
X128224873Y-95719819D02*
X127939159Y-95719819D01*
X127939159Y-95719819D02*
X127843921Y-95672200D01*
X127843921Y-95672200D02*
X127796302Y-95624580D01*
X74411779Y-111496009D02*
X74745112Y-111496009D01*
X74887969Y-112019819D02*
X74411779Y-112019819D01*
X74411779Y-112019819D02*
X74411779Y-111019819D01*
X74411779Y-111019819D02*
X74887969Y-111019819D01*
X75316541Y-112019819D02*
X75316541Y-111019819D01*
X75316541Y-111019819D02*
X75887969Y-112019819D01*
X75887969Y-112019819D02*
X75887969Y-111019819D01*
X76935588Y-111924580D02*
X76887969Y-111972200D01*
X76887969Y-111972200D02*
X76745112Y-112019819D01*
X76745112Y-112019819D02*
X76649874Y-112019819D01*
X76649874Y-112019819D02*
X76507017Y-111972200D01*
X76507017Y-111972200D02*
X76411779Y-111876961D01*
X76411779Y-111876961D02*
X76364160Y-111781723D01*
X76364160Y-111781723D02*
X76316541Y-111591247D01*
X76316541Y-111591247D02*
X76316541Y-111448390D01*
X76316541Y-111448390D02*
X76364160Y-111257914D01*
X76364160Y-111257914D02*
X76411779Y-111162676D01*
X76411779Y-111162676D02*
X76507017Y-111067438D01*
X76507017Y-111067438D02*
X76649874Y-111019819D01*
X76649874Y-111019819D02*
X76745112Y-111019819D01*
X76745112Y-111019819D02*
X76887969Y-111067438D01*
X76887969Y-111067438D02*
X76935588Y-111115057D01*
X103625588Y-104329902D02*
X103625588Y-104996569D01*
X103387493Y-103948950D02*
X103149398Y-104663235D01*
X103149398Y-104663235D02*
X103768445Y-104663235D01*
X104339874Y-103996569D02*
X104435112Y-103996569D01*
X104435112Y-103996569D02*
X104530350Y-104044188D01*
X104530350Y-104044188D02*
X104577969Y-104091807D01*
X104577969Y-104091807D02*
X104625588Y-104187045D01*
X104625588Y-104187045D02*
X104673207Y-104377521D01*
X104673207Y-104377521D02*
X104673207Y-104615616D01*
X104673207Y-104615616D02*
X104625588Y-104806092D01*
X104625588Y-104806092D02*
X104577969Y-104901330D01*
X104577969Y-104901330D02*
X104530350Y-104948950D01*
X104530350Y-104948950D02*
X104435112Y-104996569D01*
X104435112Y-104996569D02*
X104339874Y-104996569D01*
X104339874Y-104996569D02*
X104244636Y-104948950D01*
X104244636Y-104948950D02*
X104197017Y-104901330D01*
X104197017Y-104901330D02*
X104149398Y-104806092D01*
X104149398Y-104806092D02*
X104101779Y-104615616D01*
X104101779Y-104615616D02*
X104101779Y-104377521D01*
X104101779Y-104377521D02*
X104149398Y-104187045D01*
X104149398Y-104187045D02*
X104197017Y-104091807D01*
X104197017Y-104091807D02*
X104244636Y-104044188D01*
X104244636Y-104044188D02*
X104339874Y-103996569D01*
X105054160Y-104091807D02*
X105101779Y-104044188D01*
X105101779Y-104044188D02*
X105197017Y-103996569D01*
X105197017Y-103996569D02*
X105435112Y-103996569D01*
X105435112Y-103996569D02*
X105530350Y-104044188D01*
X105530350Y-104044188D02*
X105577969Y-104091807D01*
X105577969Y-104091807D02*
X105625588Y-104187045D01*
X105625588Y-104187045D02*
X105625588Y-104282283D01*
X105625588Y-104282283D02*
X105577969Y-104425140D01*
X105577969Y-104425140D02*
X105006541Y-104996569D01*
X105006541Y-104996569D02*
X105625588Y-104996569D01*
X106577969Y-104996569D02*
X106006541Y-104996569D01*
X106292255Y-104996569D02*
X106292255Y-103996569D01*
X106292255Y-103996569D02*
X106197017Y-104139426D01*
X106197017Y-104139426D02*
X106101779Y-104234664D01*
X106101779Y-104234664D02*
X106006541Y-104282283D01*
X124320111Y-112929819D02*
X124320111Y-111929819D01*
X124320111Y-111929819D02*
X124701063Y-111929819D01*
X124701063Y-111929819D02*
X124796301Y-111977438D01*
X124796301Y-111977438D02*
X124843920Y-112025057D01*
X124843920Y-112025057D02*
X124891539Y-112120295D01*
X124891539Y-112120295D02*
X124891539Y-112263152D01*
X124891539Y-112263152D02*
X124843920Y-112358390D01*
X124843920Y-112358390D02*
X124796301Y-112406009D01*
X124796301Y-112406009D02*
X124701063Y-112453628D01*
X124701063Y-112453628D02*
X124320111Y-112453628D01*
X125510587Y-111929819D02*
X125701063Y-111929819D01*
X125701063Y-111929819D02*
X125796301Y-111977438D01*
X125796301Y-111977438D02*
X125891539Y-112072676D01*
X125891539Y-112072676D02*
X125939158Y-112263152D01*
X125939158Y-112263152D02*
X125939158Y-112596485D01*
X125939158Y-112596485D02*
X125891539Y-112786961D01*
X125891539Y-112786961D02*
X125796301Y-112882200D01*
X125796301Y-112882200D02*
X125701063Y-112929819D01*
X125701063Y-112929819D02*
X125510587Y-112929819D01*
X125510587Y-112929819D02*
X125415349Y-112882200D01*
X125415349Y-112882200D02*
X125320111Y-112786961D01*
X125320111Y-112786961D02*
X125272492Y-112596485D01*
X125272492Y-112596485D02*
X125272492Y-112263152D01*
X125272492Y-112263152D02*
X125320111Y-112072676D01*
X125320111Y-112072676D02*
X125415349Y-111977438D01*
X125415349Y-111977438D02*
X125510587Y-111929819D01*
X126224873Y-111929819D02*
X126796301Y-111929819D01*
X126510587Y-112929819D02*
X126510587Y-111929819D01*
X128320111Y-111929819D02*
X128129635Y-111929819D01*
X128129635Y-111929819D02*
X128034397Y-111977438D01*
X128034397Y-111977438D02*
X127986778Y-112025057D01*
X127986778Y-112025057D02*
X127891540Y-112167914D01*
X127891540Y-112167914D02*
X127843921Y-112358390D01*
X127843921Y-112358390D02*
X127843921Y-112739342D01*
X127843921Y-112739342D02*
X127891540Y-112834580D01*
X127891540Y-112834580D02*
X127939159Y-112882200D01*
X127939159Y-112882200D02*
X128034397Y-112929819D01*
X128034397Y-112929819D02*
X128224873Y-112929819D01*
X128224873Y-112929819D02*
X128320111Y-112882200D01*
X128320111Y-112882200D02*
X128367730Y-112834580D01*
X128367730Y-112834580D02*
X128415349Y-112739342D01*
X128415349Y-112739342D02*
X128415349Y-112501247D01*
X128415349Y-112501247D02*
X128367730Y-112406009D01*
X128367730Y-112406009D02*
X128320111Y-112358390D01*
X128320111Y-112358390D02*
X128224873Y-112310771D01*
X128224873Y-112310771D02*
X128034397Y-112310771D01*
X128034397Y-112310771D02*
X127939159Y-112358390D01*
X127939159Y-112358390D02*
X127891540Y-112406009D01*
X127891540Y-112406009D02*
X127843921Y-112501247D01*
X141315945Y-95719819D02*
X141315945Y-94719819D01*
X141315945Y-94719819D02*
X141696897Y-94719819D01*
X141696897Y-94719819D02*
X141792135Y-94767438D01*
X141792135Y-94767438D02*
X141839754Y-94815057D01*
X141839754Y-94815057D02*
X141887373Y-94910295D01*
X141887373Y-94910295D02*
X141887373Y-95053152D01*
X141887373Y-95053152D02*
X141839754Y-95148390D01*
X141839754Y-95148390D02*
X141792135Y-95196009D01*
X141792135Y-95196009D02*
X141696897Y-95243628D01*
X141696897Y-95243628D02*
X141315945Y-95243628D01*
X142506421Y-94719819D02*
X142696897Y-94719819D01*
X142696897Y-94719819D02*
X142792135Y-94767438D01*
X142792135Y-94767438D02*
X142887373Y-94862676D01*
X142887373Y-94862676D02*
X142934992Y-95053152D01*
X142934992Y-95053152D02*
X142934992Y-95386485D01*
X142934992Y-95386485D02*
X142887373Y-95576961D01*
X142887373Y-95576961D02*
X142792135Y-95672200D01*
X142792135Y-95672200D02*
X142696897Y-95719819D01*
X142696897Y-95719819D02*
X142506421Y-95719819D01*
X142506421Y-95719819D02*
X142411183Y-95672200D01*
X142411183Y-95672200D02*
X142315945Y-95576961D01*
X142315945Y-95576961D02*
X142268326Y-95386485D01*
X142268326Y-95386485D02*
X142268326Y-95053152D01*
X142268326Y-95053152D02*
X142315945Y-94862676D01*
X142315945Y-94862676D02*
X142411183Y-94767438D01*
X142411183Y-94767438D02*
X142506421Y-94719819D01*
X143220707Y-94719819D02*
X143792135Y-94719819D01*
X143506421Y-95719819D02*
X143506421Y-94719819D01*
X145315945Y-95053152D02*
X145315945Y-95719819D01*
X145077850Y-94672200D02*
X144839755Y-95386485D01*
X144839755Y-95386485D02*
X145458802Y-95386485D01*
X141315945Y-112929819D02*
X141315945Y-111929819D01*
X141315945Y-111929819D02*
X141696897Y-111929819D01*
X141696897Y-111929819D02*
X141792135Y-111977438D01*
X141792135Y-111977438D02*
X141839754Y-112025057D01*
X141839754Y-112025057D02*
X141887373Y-112120295D01*
X141887373Y-112120295D02*
X141887373Y-112263152D01*
X141887373Y-112263152D02*
X141839754Y-112358390D01*
X141839754Y-112358390D02*
X141792135Y-112406009D01*
X141792135Y-112406009D02*
X141696897Y-112453628D01*
X141696897Y-112453628D02*
X141315945Y-112453628D01*
X142506421Y-111929819D02*
X142696897Y-111929819D01*
X142696897Y-111929819D02*
X142792135Y-111977438D01*
X142792135Y-111977438D02*
X142887373Y-112072676D01*
X142887373Y-112072676D02*
X142934992Y-112263152D01*
X142934992Y-112263152D02*
X142934992Y-112596485D01*
X142934992Y-112596485D02*
X142887373Y-112786961D01*
X142887373Y-112786961D02*
X142792135Y-112882200D01*
X142792135Y-112882200D02*
X142696897Y-112929819D01*
X142696897Y-112929819D02*
X142506421Y-112929819D01*
X142506421Y-112929819D02*
X142411183Y-112882200D01*
X142411183Y-112882200D02*
X142315945Y-112786961D01*
X142315945Y-112786961D02*
X142268326Y-112596485D01*
X142268326Y-112596485D02*
X142268326Y-112263152D01*
X142268326Y-112263152D02*
X142315945Y-112072676D01*
X142315945Y-112072676D02*
X142411183Y-111977438D01*
X142411183Y-111977438D02*
X142506421Y-111929819D01*
X143220707Y-111929819D02*
X143792135Y-111929819D01*
X143506421Y-112929819D02*
X143506421Y-111929819D01*
X144792136Y-111929819D02*
X145458802Y-111929819D01*
X145458802Y-111929819D02*
X145030231Y-112929819D01*
X158311779Y-112929819D02*
X158311779Y-111929819D01*
X158311779Y-111929819D02*
X158692731Y-111929819D01*
X158692731Y-111929819D02*
X158787969Y-111977438D01*
X158787969Y-111977438D02*
X158835588Y-112025057D01*
X158835588Y-112025057D02*
X158883207Y-112120295D01*
X158883207Y-112120295D02*
X158883207Y-112263152D01*
X158883207Y-112263152D02*
X158835588Y-112358390D01*
X158835588Y-112358390D02*
X158787969Y-112406009D01*
X158787969Y-112406009D02*
X158692731Y-112453628D01*
X158692731Y-112453628D02*
X158311779Y-112453628D01*
X159502255Y-111929819D02*
X159692731Y-111929819D01*
X159692731Y-111929819D02*
X159787969Y-111977438D01*
X159787969Y-111977438D02*
X159883207Y-112072676D01*
X159883207Y-112072676D02*
X159930826Y-112263152D01*
X159930826Y-112263152D02*
X159930826Y-112596485D01*
X159930826Y-112596485D02*
X159883207Y-112786961D01*
X159883207Y-112786961D02*
X159787969Y-112882200D01*
X159787969Y-112882200D02*
X159692731Y-112929819D01*
X159692731Y-112929819D02*
X159502255Y-112929819D01*
X159502255Y-112929819D02*
X159407017Y-112882200D01*
X159407017Y-112882200D02*
X159311779Y-112786961D01*
X159311779Y-112786961D02*
X159264160Y-112596485D01*
X159264160Y-112596485D02*
X159264160Y-112263152D01*
X159264160Y-112263152D02*
X159311779Y-112072676D01*
X159311779Y-112072676D02*
X159407017Y-111977438D01*
X159407017Y-111977438D02*
X159502255Y-111929819D01*
X160216541Y-111929819D02*
X160787969Y-111929819D01*
X160502255Y-112929819D02*
X160502255Y-111929819D01*
X162026065Y-112358390D02*
X161930827Y-112310771D01*
X161930827Y-112310771D02*
X161883208Y-112263152D01*
X161883208Y-112263152D02*
X161835589Y-112167914D01*
X161835589Y-112167914D02*
X161835589Y-112120295D01*
X161835589Y-112120295D02*
X161883208Y-112025057D01*
X161883208Y-112025057D02*
X161930827Y-111977438D01*
X161930827Y-111977438D02*
X162026065Y-111929819D01*
X162026065Y-111929819D02*
X162216541Y-111929819D01*
X162216541Y-111929819D02*
X162311779Y-111977438D01*
X162311779Y-111977438D02*
X162359398Y-112025057D01*
X162359398Y-112025057D02*
X162407017Y-112120295D01*
X162407017Y-112120295D02*
X162407017Y-112167914D01*
X162407017Y-112167914D02*
X162359398Y-112263152D01*
X162359398Y-112263152D02*
X162311779Y-112310771D01*
X162311779Y-112310771D02*
X162216541Y-112358390D01*
X162216541Y-112358390D02*
X162026065Y-112358390D01*
X162026065Y-112358390D02*
X161930827Y-112406009D01*
X161930827Y-112406009D02*
X161883208Y-112453628D01*
X161883208Y-112453628D02*
X161835589Y-112548866D01*
X161835589Y-112548866D02*
X161835589Y-112739342D01*
X161835589Y-112739342D02*
X161883208Y-112834580D01*
X161883208Y-112834580D02*
X161930827Y-112882200D01*
X161930827Y-112882200D02*
X162026065Y-112929819D01*
X162026065Y-112929819D02*
X162216541Y-112929819D01*
X162216541Y-112929819D02*
X162311779Y-112882200D01*
X162311779Y-112882200D02*
X162359398Y-112834580D01*
X162359398Y-112834580D02*
X162407017Y-112739342D01*
X162407017Y-112739342D02*
X162407017Y-112548866D01*
X162407017Y-112548866D02*
X162359398Y-112453628D01*
X162359398Y-112453628D02*
X162311779Y-112406009D01*
X162311779Y-112406009D02*
X162216541Y-112358390D01*
X87645476Y-58674875D02*
X87835952Y-58674875D01*
X87835952Y-58674875D02*
X87931190Y-58722494D01*
X87931190Y-58722494D02*
X88026428Y-58817732D01*
X88026428Y-58817732D02*
X88074047Y-59008208D01*
X88074047Y-59008208D02*
X88074047Y-59341541D01*
X88074047Y-59341541D02*
X88026428Y-59532017D01*
X88026428Y-59532017D02*
X87931190Y-59627256D01*
X87931190Y-59627256D02*
X87835952Y-59674875D01*
X87835952Y-59674875D02*
X87645476Y-59674875D01*
X87645476Y-59674875D02*
X87550238Y-59627256D01*
X87550238Y-59627256D02*
X87455000Y-59532017D01*
X87455000Y-59532017D02*
X87407381Y-59341541D01*
X87407381Y-59341541D02*
X87407381Y-59008208D01*
X87407381Y-59008208D02*
X87455000Y-58817732D01*
X87455000Y-58817732D02*
X87550238Y-58722494D01*
X87550238Y-58722494D02*
X87645476Y-58674875D01*
X88978809Y-59674875D02*
X88502619Y-59674875D01*
X88502619Y-59674875D02*
X88502619Y-58674875D01*
X89312143Y-59151065D02*
X89645476Y-59151065D01*
X89788333Y-59674875D02*
X89312143Y-59674875D01*
X89312143Y-59674875D02*
X89312143Y-58674875D01*
X89312143Y-58674875D02*
X89788333Y-58674875D01*
X90216905Y-59674875D02*
X90216905Y-58674875D01*
X90216905Y-58674875D02*
X90455000Y-58674875D01*
X90455000Y-58674875D02*
X90597857Y-58722494D01*
X90597857Y-58722494D02*
X90693095Y-58817732D01*
X90693095Y-58817732D02*
X90740714Y-58912970D01*
X90740714Y-58912970D02*
X90788333Y-59103446D01*
X90788333Y-59103446D02*
X90788333Y-59246303D01*
X90788333Y-59246303D02*
X90740714Y-59436779D01*
X90740714Y-59436779D02*
X90693095Y-59532017D01*
X90693095Y-59532017D02*
X90597857Y-59627256D01*
X90597857Y-59627256D02*
X90455000Y-59674875D01*
X90455000Y-59674875D02*
X90216905Y-59674875D01*
X91978810Y-59674875D02*
X91978810Y-58674875D01*
X91978810Y-58674875D02*
X92216905Y-58674875D01*
X92216905Y-58674875D02*
X92359762Y-58722494D01*
X92359762Y-58722494D02*
X92455000Y-58817732D01*
X92455000Y-58817732D02*
X92502619Y-58912970D01*
X92502619Y-58912970D02*
X92550238Y-59103446D01*
X92550238Y-59103446D02*
X92550238Y-59246303D01*
X92550238Y-59246303D02*
X92502619Y-59436779D01*
X92502619Y-59436779D02*
X92455000Y-59532017D01*
X92455000Y-59532017D02*
X92359762Y-59627256D01*
X92359762Y-59627256D02*
X92216905Y-59674875D01*
X92216905Y-59674875D02*
X91978810Y-59674875D01*
X92978810Y-59674875D02*
X92978810Y-58674875D01*
X93407381Y-59627256D02*
X93550238Y-59674875D01*
X93550238Y-59674875D02*
X93788333Y-59674875D01*
X93788333Y-59674875D02*
X93883571Y-59627256D01*
X93883571Y-59627256D02*
X93931190Y-59579636D01*
X93931190Y-59579636D02*
X93978809Y-59484398D01*
X93978809Y-59484398D02*
X93978809Y-59389160D01*
X93978809Y-59389160D02*
X93931190Y-59293922D01*
X93931190Y-59293922D02*
X93883571Y-59246303D01*
X93883571Y-59246303D02*
X93788333Y-59198684D01*
X93788333Y-59198684D02*
X93597857Y-59151065D01*
X93597857Y-59151065D02*
X93502619Y-59103446D01*
X93502619Y-59103446D02*
X93455000Y-59055827D01*
X93455000Y-59055827D02*
X93407381Y-58960589D01*
X93407381Y-58960589D02*
X93407381Y-58865351D01*
X93407381Y-58865351D02*
X93455000Y-58770113D01*
X93455000Y-58770113D02*
X93502619Y-58722494D01*
X93502619Y-58722494D02*
X93597857Y-58674875D01*
X93597857Y-58674875D02*
X93835952Y-58674875D01*
X93835952Y-58674875D02*
X93978809Y-58722494D01*
X94407381Y-59674875D02*
X94407381Y-58674875D01*
X94407381Y-58674875D02*
X94788333Y-58674875D01*
X94788333Y-58674875D02*
X94883571Y-58722494D01*
X94883571Y-58722494D02*
X94931190Y-58770113D01*
X94931190Y-58770113D02*
X94978809Y-58865351D01*
X94978809Y-58865351D02*
X94978809Y-59008208D01*
X94978809Y-59008208D02*
X94931190Y-59103446D01*
X94931190Y-59103446D02*
X94883571Y-59151065D01*
X94883571Y-59151065D02*
X94788333Y-59198684D01*
X94788333Y-59198684D02*
X94407381Y-59198684D01*
X95883571Y-59674875D02*
X95407381Y-59674875D01*
X95407381Y-59674875D02*
X95407381Y-58674875D01*
X96169286Y-59389160D02*
X96645476Y-59389160D01*
X96074048Y-59674875D02*
X96407381Y-58674875D01*
X96407381Y-58674875D02*
X96740714Y-59674875D01*
X97264524Y-59198684D02*
X97264524Y-59674875D01*
X96931191Y-58674875D02*
X97264524Y-59198684D01*
X97264524Y-59198684D02*
X97597857Y-58674875D01*
X87693095Y-61237200D02*
X87835952Y-61284819D01*
X87835952Y-61284819D02*
X88074047Y-61284819D01*
X88074047Y-61284819D02*
X88169285Y-61237200D01*
X88169285Y-61237200D02*
X88216904Y-61189580D01*
X88216904Y-61189580D02*
X88264523Y-61094342D01*
X88264523Y-61094342D02*
X88264523Y-60999104D01*
X88264523Y-60999104D02*
X88216904Y-60903866D01*
X88216904Y-60903866D02*
X88169285Y-60856247D01*
X88169285Y-60856247D02*
X88074047Y-60808628D01*
X88074047Y-60808628D02*
X87883571Y-60761009D01*
X87883571Y-60761009D02*
X87788333Y-60713390D01*
X87788333Y-60713390D02*
X87740714Y-60665771D01*
X87740714Y-60665771D02*
X87693095Y-60570533D01*
X87693095Y-60570533D02*
X87693095Y-60475295D01*
X87693095Y-60475295D02*
X87740714Y-60380057D01*
X87740714Y-60380057D02*
X87788333Y-60332438D01*
X87788333Y-60332438D02*
X87883571Y-60284819D01*
X87883571Y-60284819D02*
X88121666Y-60284819D01*
X88121666Y-60284819D02*
X88264523Y-60332438D01*
X88645476Y-61237200D02*
X88788333Y-61284819D01*
X88788333Y-61284819D02*
X89026428Y-61284819D01*
X89026428Y-61284819D02*
X89121666Y-61237200D01*
X89121666Y-61237200D02*
X89169285Y-61189580D01*
X89169285Y-61189580D02*
X89216904Y-61094342D01*
X89216904Y-61094342D02*
X89216904Y-60999104D01*
X89216904Y-60999104D02*
X89169285Y-60903866D01*
X89169285Y-60903866D02*
X89121666Y-60856247D01*
X89121666Y-60856247D02*
X89026428Y-60808628D01*
X89026428Y-60808628D02*
X88835952Y-60761009D01*
X88835952Y-60761009D02*
X88740714Y-60713390D01*
X88740714Y-60713390D02*
X88693095Y-60665771D01*
X88693095Y-60665771D02*
X88645476Y-60570533D01*
X88645476Y-60570533D02*
X88645476Y-60475295D01*
X88645476Y-60475295D02*
X88693095Y-60380057D01*
X88693095Y-60380057D02*
X88740714Y-60332438D01*
X88740714Y-60332438D02*
X88835952Y-60284819D01*
X88835952Y-60284819D02*
X89074047Y-60284819D01*
X89074047Y-60284819D02*
X89216904Y-60332438D01*
X89645476Y-61284819D02*
X89645476Y-60284819D01*
X89645476Y-60284819D02*
X89883571Y-60284819D01*
X89883571Y-60284819D02*
X90026428Y-60332438D01*
X90026428Y-60332438D02*
X90121666Y-60427676D01*
X90121666Y-60427676D02*
X90169285Y-60522914D01*
X90169285Y-60522914D02*
X90216904Y-60713390D01*
X90216904Y-60713390D02*
X90216904Y-60856247D01*
X90216904Y-60856247D02*
X90169285Y-61046723D01*
X90169285Y-61046723D02*
X90121666Y-61141961D01*
X90121666Y-61141961D02*
X90026428Y-61237200D01*
X90026428Y-61237200D02*
X89883571Y-61284819D01*
X89883571Y-61284819D02*
X89645476Y-61284819D01*
X91169285Y-61284819D02*
X90597857Y-61284819D01*
X90883571Y-61284819D02*
X90883571Y-60284819D01*
X90883571Y-60284819D02*
X90788333Y-60427676D01*
X90788333Y-60427676D02*
X90693095Y-60522914D01*
X90693095Y-60522914D02*
X90597857Y-60570533D01*
X91502619Y-60284819D02*
X92121666Y-60284819D01*
X92121666Y-60284819D02*
X91788333Y-60665771D01*
X91788333Y-60665771D02*
X91931190Y-60665771D01*
X91931190Y-60665771D02*
X92026428Y-60713390D01*
X92026428Y-60713390D02*
X92074047Y-60761009D01*
X92074047Y-60761009D02*
X92121666Y-60856247D01*
X92121666Y-60856247D02*
X92121666Y-61094342D01*
X92121666Y-61094342D02*
X92074047Y-61189580D01*
X92074047Y-61189580D02*
X92026428Y-61237200D01*
X92026428Y-61237200D02*
X91931190Y-61284819D01*
X91931190Y-61284819D02*
X91645476Y-61284819D01*
X91645476Y-61284819D02*
X91550238Y-61237200D01*
X91550238Y-61237200D02*
X91502619Y-61189580D01*
X93026428Y-60284819D02*
X92550238Y-60284819D01*
X92550238Y-60284819D02*
X92502619Y-60761009D01*
X92502619Y-60761009D02*
X92550238Y-60713390D01*
X92550238Y-60713390D02*
X92645476Y-60665771D01*
X92645476Y-60665771D02*
X92883571Y-60665771D01*
X92883571Y-60665771D02*
X92978809Y-60713390D01*
X92978809Y-60713390D02*
X93026428Y-60761009D01*
X93026428Y-60761009D02*
X93074047Y-60856247D01*
X93074047Y-60856247D02*
X93074047Y-61094342D01*
X93074047Y-61094342D02*
X93026428Y-61189580D01*
X93026428Y-61189580D02*
X92978809Y-61237200D01*
X92978809Y-61237200D02*
X92883571Y-61284819D01*
X92883571Y-61284819D02*
X92645476Y-61284819D01*
X92645476Y-61284819D02*
X92550238Y-61237200D01*
X92550238Y-61237200D02*
X92502619Y-61189580D01*
X94026428Y-61284819D02*
X93455000Y-61284819D01*
X93740714Y-61284819D02*
X93740714Y-60284819D01*
X93740714Y-60284819D02*
X93645476Y-60427676D01*
X93645476Y-60427676D02*
X93550238Y-60522914D01*
X93550238Y-60522914D02*
X93455000Y-60570533D01*
X95169286Y-61237200D02*
X95312143Y-61284819D01*
X95312143Y-61284819D02*
X95550238Y-61284819D01*
X95550238Y-61284819D02*
X95645476Y-61237200D01*
X95645476Y-61237200D02*
X95693095Y-61189580D01*
X95693095Y-61189580D02*
X95740714Y-61094342D01*
X95740714Y-61094342D02*
X95740714Y-60999104D01*
X95740714Y-60999104D02*
X95693095Y-60903866D01*
X95693095Y-60903866D02*
X95645476Y-60856247D01*
X95645476Y-60856247D02*
X95550238Y-60808628D01*
X95550238Y-60808628D02*
X95359762Y-60761009D01*
X95359762Y-60761009D02*
X95264524Y-60713390D01*
X95264524Y-60713390D02*
X95216905Y-60665771D01*
X95216905Y-60665771D02*
X95169286Y-60570533D01*
X95169286Y-60570533D02*
X95169286Y-60475295D01*
X95169286Y-60475295D02*
X95216905Y-60380057D01*
X95216905Y-60380057D02*
X95264524Y-60332438D01*
X95264524Y-60332438D02*
X95359762Y-60284819D01*
X95359762Y-60284819D02*
X95597857Y-60284819D01*
X95597857Y-60284819D02*
X95740714Y-60332438D01*
X96169286Y-61284819D02*
X96169286Y-60284819D01*
X96169286Y-60284819D02*
X96550238Y-60284819D01*
X96550238Y-60284819D02*
X96645476Y-60332438D01*
X96645476Y-60332438D02*
X96693095Y-60380057D01*
X96693095Y-60380057D02*
X96740714Y-60475295D01*
X96740714Y-60475295D02*
X96740714Y-60618152D01*
X96740714Y-60618152D02*
X96693095Y-60713390D01*
X96693095Y-60713390D02*
X96645476Y-60761009D01*
X96645476Y-60761009D02*
X96550238Y-60808628D01*
X96550238Y-60808628D02*
X96169286Y-60808628D01*
X97169286Y-61284819D02*
X97169286Y-60284819D01*
X120855261Y-51164819D02*
X120855261Y-51879104D01*
X120855261Y-51879104D02*
X120807642Y-52021961D01*
X120807642Y-52021961D02*
X120712404Y-52117200D01*
X120712404Y-52117200D02*
X120569547Y-52164819D01*
X120569547Y-52164819D02*
X120474309Y-52164819D01*
X121283833Y-51260057D02*
X121331452Y-51212438D01*
X121331452Y-51212438D02*
X121426690Y-51164819D01*
X121426690Y-51164819D02*
X121664785Y-51164819D01*
X121664785Y-51164819D02*
X121760023Y-51212438D01*
X121760023Y-51212438D02*
X121807642Y-51260057D01*
X121807642Y-51260057D02*
X121855261Y-51355295D01*
X121855261Y-51355295D02*
X121855261Y-51450533D01*
X121855261Y-51450533D02*
X121807642Y-51593390D01*
X121807642Y-51593390D02*
X121236214Y-52164819D01*
X121236214Y-52164819D02*
X121855261Y-52164819D01*
X125604998Y-106009819D02*
X125271665Y-105533628D01*
X125033570Y-106009819D02*
X125033570Y-105009819D01*
X125033570Y-105009819D02*
X125414522Y-105009819D01*
X125414522Y-105009819D02*
X125509760Y-105057438D01*
X125509760Y-105057438D02*
X125557379Y-105105057D01*
X125557379Y-105105057D02*
X125604998Y-105200295D01*
X125604998Y-105200295D02*
X125604998Y-105343152D01*
X125604998Y-105343152D02*
X125557379Y-105438390D01*
X125557379Y-105438390D02*
X125509760Y-105486009D01*
X125509760Y-105486009D02*
X125414522Y-105533628D01*
X125414522Y-105533628D02*
X125033570Y-105533628D01*
X125890713Y-105009819D02*
X126224046Y-106009819D01*
X126224046Y-106009819D02*
X126557379Y-105009819D01*
X127319284Y-105009819D02*
X127128808Y-105009819D01*
X127128808Y-105009819D02*
X127033570Y-105057438D01*
X127033570Y-105057438D02*
X126985951Y-105105057D01*
X126985951Y-105105057D02*
X126890713Y-105247914D01*
X126890713Y-105247914D02*
X126843094Y-105438390D01*
X126843094Y-105438390D02*
X126843094Y-105819342D01*
X126843094Y-105819342D02*
X126890713Y-105914580D01*
X126890713Y-105914580D02*
X126938332Y-105962200D01*
X126938332Y-105962200D02*
X127033570Y-106009819D01*
X127033570Y-106009819D02*
X127224046Y-106009819D01*
X127224046Y-106009819D02*
X127319284Y-105962200D01*
X127319284Y-105962200D02*
X127366903Y-105914580D01*
X127366903Y-105914580D02*
X127414522Y-105819342D01*
X127414522Y-105819342D02*
X127414522Y-105581247D01*
X127414522Y-105581247D02*
X127366903Y-105486009D01*
X127366903Y-105486009D02*
X127319284Y-105438390D01*
X127319284Y-105438390D02*
X127224046Y-105390771D01*
X127224046Y-105390771D02*
X127033570Y-105390771D01*
X127033570Y-105390771D02*
X126938332Y-105438390D01*
X126938332Y-105438390D02*
X126890713Y-105486009D01*
X126890713Y-105486009D02*
X126843094Y-105581247D01*
X159766666Y-71509819D02*
X159433333Y-71033628D01*
X159195238Y-71509819D02*
X159195238Y-70509819D01*
X159195238Y-70509819D02*
X159576190Y-70509819D01*
X159576190Y-70509819D02*
X159671428Y-70557438D01*
X159671428Y-70557438D02*
X159719047Y-70605057D01*
X159719047Y-70605057D02*
X159766666Y-70700295D01*
X159766666Y-70700295D02*
X159766666Y-70843152D01*
X159766666Y-70843152D02*
X159719047Y-70938390D01*
X159719047Y-70938390D02*
X159671428Y-70986009D01*
X159671428Y-70986009D02*
X159576190Y-71033628D01*
X159576190Y-71033628D02*
X159195238Y-71033628D01*
X160052381Y-70509819D02*
X160385714Y-71509819D01*
X160385714Y-71509819D02*
X160719047Y-70509819D01*
X161004762Y-70605057D02*
X161052381Y-70557438D01*
X161052381Y-70557438D02*
X161147619Y-70509819D01*
X161147619Y-70509819D02*
X161385714Y-70509819D01*
X161385714Y-70509819D02*
X161480952Y-70557438D01*
X161480952Y-70557438D02*
X161528571Y-70605057D01*
X161528571Y-70605057D02*
X161576190Y-70700295D01*
X161576190Y-70700295D02*
X161576190Y-70795533D01*
X161576190Y-70795533D02*
X161528571Y-70938390D01*
X161528571Y-70938390D02*
X160957143Y-71509819D01*
X160957143Y-71509819D02*
X161576190Y-71509819D01*
X104539559Y-51164819D02*
X104539559Y-51879104D01*
X104539559Y-51879104D02*
X104491940Y-52021961D01*
X104491940Y-52021961D02*
X104396702Y-52117200D01*
X104396702Y-52117200D02*
X104253845Y-52164819D01*
X104253845Y-52164819D02*
X104158607Y-52164819D01*
X105539559Y-52164819D02*
X104968131Y-52164819D01*
X105253845Y-52164819D02*
X105253845Y-51164819D01*
X105253845Y-51164819D02*
X105158607Y-51307676D01*
X105158607Y-51307676D02*
X105063369Y-51402914D01*
X105063369Y-51402914D02*
X104968131Y-51450533D01*
X75928095Y-58734819D02*
X75928095Y-59544342D01*
X75928095Y-59544342D02*
X75975714Y-59639580D01*
X75975714Y-59639580D02*
X76023333Y-59687200D01*
X76023333Y-59687200D02*
X76118571Y-59734819D01*
X76118571Y-59734819D02*
X76309047Y-59734819D01*
X76309047Y-59734819D02*
X76404285Y-59687200D01*
X76404285Y-59687200D02*
X76451904Y-59639580D01*
X76451904Y-59639580D02*
X76499523Y-59544342D01*
X76499523Y-59544342D02*
X76499523Y-58734819D01*
X77499523Y-59734819D02*
X76928095Y-59734819D01*
X77213809Y-59734819D02*
X77213809Y-58734819D01*
X77213809Y-58734819D02*
X77118571Y-58877676D01*
X77118571Y-58877676D02*
X77023333Y-58972914D01*
X77023333Y-58972914D02*
X76928095Y-59020533D01*
X131183959Y-125412857D02*
X130707768Y-125746190D01*
X131183959Y-125984285D02*
X130183959Y-125984285D01*
X130183959Y-125984285D02*
X130183959Y-125603333D01*
X130183959Y-125603333D02*
X130231578Y-125508095D01*
X130231578Y-125508095D02*
X130279197Y-125460476D01*
X130279197Y-125460476D02*
X130374435Y-125412857D01*
X130374435Y-125412857D02*
X130517292Y-125412857D01*
X130517292Y-125412857D02*
X130612530Y-125460476D01*
X130612530Y-125460476D02*
X130660149Y-125508095D01*
X130660149Y-125508095D02*
X130707768Y-125603333D01*
X130707768Y-125603333D02*
X130707768Y-125984285D01*
X131183959Y-124460476D02*
X131183959Y-125031904D01*
X131183959Y-124746190D02*
X130183959Y-124746190D01*
X130183959Y-124746190D02*
X130326816Y-124841428D01*
X130326816Y-124841428D02*
X130422054Y-124936666D01*
X130422054Y-124936666D02*
X130469673Y-125031904D01*
X130183959Y-123555714D02*
X130183959Y-124031904D01*
X130183959Y-124031904D02*
X130660149Y-124079523D01*
X130660149Y-124079523D02*
X130612530Y-124031904D01*
X130612530Y-124031904D02*
X130564911Y-123936666D01*
X130564911Y-123936666D02*
X130564911Y-123698571D01*
X130564911Y-123698571D02*
X130612530Y-123603333D01*
X130612530Y-123603333D02*
X130660149Y-123555714D01*
X130660149Y-123555714D02*
X130755387Y-123508095D01*
X130755387Y-123508095D02*
X130993482Y-123508095D01*
X130993482Y-123508095D02*
X131088720Y-123555714D01*
X131088720Y-123555714D02*
X131136340Y-123603333D01*
X131136340Y-123603333D02*
X131183959Y-123698571D01*
X131183959Y-123698571D02*
X131183959Y-123936666D01*
X131183959Y-123936666D02*
X131136340Y-124031904D01*
X131136340Y-124031904D02*
X131088720Y-124079523D01*
X153508333Y-58279819D02*
X153175000Y-57803628D01*
X152936905Y-58279819D02*
X152936905Y-57279819D01*
X152936905Y-57279819D02*
X153317857Y-57279819D01*
X153317857Y-57279819D02*
X153413095Y-57327438D01*
X153413095Y-57327438D02*
X153460714Y-57375057D01*
X153460714Y-57375057D02*
X153508333Y-57470295D01*
X153508333Y-57470295D02*
X153508333Y-57613152D01*
X153508333Y-57613152D02*
X153460714Y-57708390D01*
X153460714Y-57708390D02*
X153413095Y-57756009D01*
X153413095Y-57756009D02*
X153317857Y-57803628D01*
X153317857Y-57803628D02*
X152936905Y-57803628D01*
X153889286Y-57375057D02*
X153936905Y-57327438D01*
X153936905Y-57327438D02*
X154032143Y-57279819D01*
X154032143Y-57279819D02*
X154270238Y-57279819D01*
X154270238Y-57279819D02*
X154365476Y-57327438D01*
X154365476Y-57327438D02*
X154413095Y-57375057D01*
X154413095Y-57375057D02*
X154460714Y-57470295D01*
X154460714Y-57470295D02*
X154460714Y-57565533D01*
X154460714Y-57565533D02*
X154413095Y-57708390D01*
X154413095Y-57708390D02*
X153841667Y-58279819D01*
X153841667Y-58279819D02*
X154460714Y-58279819D01*
X73679905Y-118824819D02*
X73679905Y-117824819D01*
X73679905Y-117824819D02*
X73918000Y-117824819D01*
X73918000Y-117824819D02*
X74060857Y-117872438D01*
X74060857Y-117872438D02*
X74156095Y-117967676D01*
X74156095Y-117967676D02*
X74203714Y-118062914D01*
X74203714Y-118062914D02*
X74251333Y-118253390D01*
X74251333Y-118253390D02*
X74251333Y-118396247D01*
X74251333Y-118396247D02*
X74203714Y-118586723D01*
X74203714Y-118586723D02*
X74156095Y-118681961D01*
X74156095Y-118681961D02*
X74060857Y-118777200D01*
X74060857Y-118777200D02*
X73918000Y-118824819D01*
X73918000Y-118824819D02*
X73679905Y-118824819D01*
X74584667Y-117824819D02*
X75203714Y-117824819D01*
X75203714Y-117824819D02*
X74870381Y-118205771D01*
X74870381Y-118205771D02*
X75013238Y-118205771D01*
X75013238Y-118205771D02*
X75108476Y-118253390D01*
X75108476Y-118253390D02*
X75156095Y-118301009D01*
X75156095Y-118301009D02*
X75203714Y-118396247D01*
X75203714Y-118396247D02*
X75203714Y-118634342D01*
X75203714Y-118634342D02*
X75156095Y-118729580D01*
X75156095Y-118729580D02*
X75108476Y-118777200D01*
X75108476Y-118777200D02*
X75013238Y-118824819D01*
X75013238Y-118824819D02*
X74727524Y-118824819D01*
X74727524Y-118824819D02*
X74632286Y-118777200D01*
X74632286Y-118777200D02*
X74584667Y-118729580D01*
X122835807Y-128807200D02*
X122978664Y-128854819D01*
X122978664Y-128854819D02*
X123216759Y-128854819D01*
X123216759Y-128854819D02*
X123311997Y-128807200D01*
X123311997Y-128807200D02*
X123359616Y-128759580D01*
X123359616Y-128759580D02*
X123407235Y-128664342D01*
X123407235Y-128664342D02*
X123407235Y-128569104D01*
X123407235Y-128569104D02*
X123359616Y-128473866D01*
X123359616Y-128473866D02*
X123311997Y-128426247D01*
X123311997Y-128426247D02*
X123216759Y-128378628D01*
X123216759Y-128378628D02*
X123026283Y-128331009D01*
X123026283Y-128331009D02*
X122931045Y-128283390D01*
X122931045Y-128283390D02*
X122883426Y-128235771D01*
X122883426Y-128235771D02*
X122835807Y-128140533D01*
X122835807Y-128140533D02*
X122835807Y-128045295D01*
X122835807Y-128045295D02*
X122883426Y-127950057D01*
X122883426Y-127950057D02*
X122931045Y-127902438D01*
X122931045Y-127902438D02*
X123026283Y-127854819D01*
X123026283Y-127854819D02*
X123264378Y-127854819D01*
X123264378Y-127854819D02*
X123407235Y-127902438D01*
X123740569Y-127854819D02*
X123978664Y-128854819D01*
X123978664Y-128854819D02*
X124169140Y-128140533D01*
X124169140Y-128140533D02*
X124359616Y-128854819D01*
X124359616Y-128854819D02*
X124597712Y-127854819D01*
X125454854Y-127854819D02*
X124978664Y-127854819D01*
X124978664Y-127854819D02*
X124931045Y-128331009D01*
X124931045Y-128331009D02*
X124978664Y-128283390D01*
X124978664Y-128283390D02*
X125073902Y-128235771D01*
X125073902Y-128235771D02*
X125311997Y-128235771D01*
X125311997Y-128235771D02*
X125407235Y-128283390D01*
X125407235Y-128283390D02*
X125454854Y-128331009D01*
X125454854Y-128331009D02*
X125502473Y-128426247D01*
X125502473Y-128426247D02*
X125502473Y-128664342D01*
X125502473Y-128664342D02*
X125454854Y-128759580D01*
X125454854Y-128759580D02*
X125407235Y-128807200D01*
X125407235Y-128807200D02*
X125311997Y-128854819D01*
X125311997Y-128854819D02*
X125073902Y-128854819D01*
X125073902Y-128854819D02*
X124978664Y-128807200D01*
X124978664Y-128807200D02*
X124931045Y-128759580D01*
X77751333Y-118934819D02*
X77418000Y-118458628D01*
X77179905Y-118934819D02*
X77179905Y-117934819D01*
X77179905Y-117934819D02*
X77560857Y-117934819D01*
X77560857Y-117934819D02*
X77656095Y-117982438D01*
X77656095Y-117982438D02*
X77703714Y-118030057D01*
X77703714Y-118030057D02*
X77751333Y-118125295D01*
X77751333Y-118125295D02*
X77751333Y-118268152D01*
X77751333Y-118268152D02*
X77703714Y-118363390D01*
X77703714Y-118363390D02*
X77656095Y-118411009D01*
X77656095Y-118411009D02*
X77560857Y-118458628D01*
X77560857Y-118458628D02*
X77179905Y-118458628D01*
X78656095Y-117934819D02*
X78179905Y-117934819D01*
X78179905Y-117934819D02*
X78132286Y-118411009D01*
X78132286Y-118411009D02*
X78179905Y-118363390D01*
X78179905Y-118363390D02*
X78275143Y-118315771D01*
X78275143Y-118315771D02*
X78513238Y-118315771D01*
X78513238Y-118315771D02*
X78608476Y-118363390D01*
X78608476Y-118363390D02*
X78656095Y-118411009D01*
X78656095Y-118411009D02*
X78703714Y-118506247D01*
X78703714Y-118506247D02*
X78703714Y-118744342D01*
X78703714Y-118744342D02*
X78656095Y-118839580D01*
X78656095Y-118839580D02*
X78608476Y-118887200D01*
X78608476Y-118887200D02*
X78513238Y-118934819D01*
X78513238Y-118934819D02*
X78275143Y-118934819D01*
X78275143Y-118934819D02*
X78179905Y-118887200D01*
X78179905Y-118887200D02*
X78132286Y-118839580D01*
X118773674Y-125412857D02*
X118297483Y-125746190D01*
X118773674Y-125984285D02*
X117773674Y-125984285D01*
X117773674Y-125984285D02*
X117773674Y-125603333D01*
X117773674Y-125603333D02*
X117821293Y-125508095D01*
X117821293Y-125508095D02*
X117868912Y-125460476D01*
X117868912Y-125460476D02*
X117964150Y-125412857D01*
X117964150Y-125412857D02*
X118107007Y-125412857D01*
X118107007Y-125412857D02*
X118202245Y-125460476D01*
X118202245Y-125460476D02*
X118249864Y-125508095D01*
X118249864Y-125508095D02*
X118297483Y-125603333D01*
X118297483Y-125603333D02*
X118297483Y-125984285D01*
X118773674Y-124460476D02*
X118773674Y-125031904D01*
X118773674Y-124746190D02*
X117773674Y-124746190D01*
X117773674Y-124746190D02*
X117916531Y-124841428D01*
X117916531Y-124841428D02*
X118011769Y-124936666D01*
X118011769Y-124936666D02*
X118059388Y-125031904D01*
X118107007Y-123603333D02*
X118773674Y-123603333D01*
X117726055Y-123841428D02*
X118440340Y-124079523D01*
X118440340Y-124079523D02*
X118440340Y-123460476D01*
X143018332Y-71509819D02*
X142684999Y-71033628D01*
X142446904Y-71509819D02*
X142446904Y-70509819D01*
X142446904Y-70509819D02*
X142827856Y-70509819D01*
X142827856Y-70509819D02*
X142923094Y-70557438D01*
X142923094Y-70557438D02*
X142970713Y-70605057D01*
X142970713Y-70605057D02*
X143018332Y-70700295D01*
X143018332Y-70700295D02*
X143018332Y-70843152D01*
X143018332Y-70843152D02*
X142970713Y-70938390D01*
X142970713Y-70938390D02*
X142923094Y-70986009D01*
X142923094Y-70986009D02*
X142827856Y-71033628D01*
X142827856Y-71033628D02*
X142446904Y-71033628D01*
X143304047Y-70509819D02*
X143637380Y-71509819D01*
X143637380Y-71509819D02*
X143970713Y-70509819D01*
X144827856Y-71509819D02*
X144256428Y-71509819D01*
X144542142Y-71509819D02*
X144542142Y-70509819D01*
X144542142Y-70509819D02*
X144446904Y-70652676D01*
X144446904Y-70652676D02*
X144351666Y-70747914D01*
X144351666Y-70747914D02*
X144256428Y-70795533D01*
X110950760Y-118824819D02*
X110950760Y-117824819D01*
X110950760Y-117824819D02*
X111188855Y-117824819D01*
X111188855Y-117824819D02*
X111331712Y-117872438D01*
X111331712Y-117872438D02*
X111426950Y-117967676D01*
X111426950Y-117967676D02*
X111474569Y-118062914D01*
X111474569Y-118062914D02*
X111522188Y-118253390D01*
X111522188Y-118253390D02*
X111522188Y-118396247D01*
X111522188Y-118396247D02*
X111474569Y-118586723D01*
X111474569Y-118586723D02*
X111426950Y-118681961D01*
X111426950Y-118681961D02*
X111331712Y-118777200D01*
X111331712Y-118777200D02*
X111188855Y-118824819D01*
X111188855Y-118824819D02*
X110950760Y-118824819D01*
X112379331Y-117824819D02*
X112188855Y-117824819D01*
X112188855Y-117824819D02*
X112093617Y-117872438D01*
X112093617Y-117872438D02*
X112045998Y-117920057D01*
X112045998Y-117920057D02*
X111950760Y-118062914D01*
X111950760Y-118062914D02*
X111903141Y-118253390D01*
X111903141Y-118253390D02*
X111903141Y-118634342D01*
X111903141Y-118634342D02*
X111950760Y-118729580D01*
X111950760Y-118729580D02*
X111998379Y-118777200D01*
X111998379Y-118777200D02*
X112093617Y-118824819D01*
X112093617Y-118824819D02*
X112284093Y-118824819D01*
X112284093Y-118824819D02*
X112379331Y-118777200D01*
X112379331Y-118777200D02*
X112426950Y-118729580D01*
X112426950Y-118729580D02*
X112474569Y-118634342D01*
X112474569Y-118634342D02*
X112474569Y-118396247D01*
X112474569Y-118396247D02*
X112426950Y-118301009D01*
X112426950Y-118301009D02*
X112379331Y-118253390D01*
X112379331Y-118253390D02*
X112284093Y-118205771D01*
X112284093Y-118205771D02*
X112093617Y-118205771D01*
X112093617Y-118205771D02*
X111998379Y-118253390D01*
X111998379Y-118253390D02*
X111950760Y-118301009D01*
X111950760Y-118301009D02*
X111903141Y-118396247D01*
X98015237Y-128807200D02*
X98158094Y-128854819D01*
X98158094Y-128854819D02*
X98396189Y-128854819D01*
X98396189Y-128854819D02*
X98491427Y-128807200D01*
X98491427Y-128807200D02*
X98539046Y-128759580D01*
X98539046Y-128759580D02*
X98586665Y-128664342D01*
X98586665Y-128664342D02*
X98586665Y-128569104D01*
X98586665Y-128569104D02*
X98539046Y-128473866D01*
X98539046Y-128473866D02*
X98491427Y-128426247D01*
X98491427Y-128426247D02*
X98396189Y-128378628D01*
X98396189Y-128378628D02*
X98205713Y-128331009D01*
X98205713Y-128331009D02*
X98110475Y-128283390D01*
X98110475Y-128283390D02*
X98062856Y-128235771D01*
X98062856Y-128235771D02*
X98015237Y-128140533D01*
X98015237Y-128140533D02*
X98015237Y-128045295D01*
X98015237Y-128045295D02*
X98062856Y-127950057D01*
X98062856Y-127950057D02*
X98110475Y-127902438D01*
X98110475Y-127902438D02*
X98205713Y-127854819D01*
X98205713Y-127854819D02*
X98443808Y-127854819D01*
X98443808Y-127854819D02*
X98586665Y-127902438D01*
X98919999Y-127854819D02*
X99158094Y-128854819D01*
X99158094Y-128854819D02*
X99348570Y-128140533D01*
X99348570Y-128140533D02*
X99539046Y-128854819D01*
X99539046Y-128854819D02*
X99777142Y-127854819D01*
X100062856Y-127854819D02*
X100681903Y-127854819D01*
X100681903Y-127854819D02*
X100348570Y-128235771D01*
X100348570Y-128235771D02*
X100491427Y-128235771D01*
X100491427Y-128235771D02*
X100586665Y-128283390D01*
X100586665Y-128283390D02*
X100634284Y-128331009D01*
X100634284Y-128331009D02*
X100681903Y-128426247D01*
X100681903Y-128426247D02*
X100681903Y-128664342D01*
X100681903Y-128664342D02*
X100634284Y-128759580D01*
X100634284Y-128759580D02*
X100586665Y-128807200D01*
X100586665Y-128807200D02*
X100491427Y-128854819D01*
X100491427Y-128854819D02*
X100205713Y-128854819D01*
X100205713Y-128854819D02*
X100110475Y-128807200D01*
X100110475Y-128807200D02*
X100062856Y-128759580D01*
X115103333Y-118934819D02*
X114770000Y-118458628D01*
X114531905Y-118934819D02*
X114531905Y-117934819D01*
X114531905Y-117934819D02*
X114912857Y-117934819D01*
X114912857Y-117934819D02*
X115008095Y-117982438D01*
X115008095Y-117982438D02*
X115055714Y-118030057D01*
X115055714Y-118030057D02*
X115103333Y-118125295D01*
X115103333Y-118125295D02*
X115103333Y-118268152D01*
X115103333Y-118268152D02*
X115055714Y-118363390D01*
X115055714Y-118363390D02*
X115008095Y-118411009D01*
X115008095Y-118411009D02*
X114912857Y-118458628D01*
X114912857Y-118458628D02*
X114531905Y-118458628D01*
X115674762Y-118363390D02*
X115579524Y-118315771D01*
X115579524Y-118315771D02*
X115531905Y-118268152D01*
X115531905Y-118268152D02*
X115484286Y-118172914D01*
X115484286Y-118172914D02*
X115484286Y-118125295D01*
X115484286Y-118125295D02*
X115531905Y-118030057D01*
X115531905Y-118030057D02*
X115579524Y-117982438D01*
X115579524Y-117982438D02*
X115674762Y-117934819D01*
X115674762Y-117934819D02*
X115865238Y-117934819D01*
X115865238Y-117934819D02*
X115960476Y-117982438D01*
X115960476Y-117982438D02*
X116008095Y-118030057D01*
X116008095Y-118030057D02*
X116055714Y-118125295D01*
X116055714Y-118125295D02*
X116055714Y-118172914D01*
X116055714Y-118172914D02*
X116008095Y-118268152D01*
X116008095Y-118268152D02*
X115960476Y-118315771D01*
X115960476Y-118315771D02*
X115865238Y-118363390D01*
X115865238Y-118363390D02*
X115674762Y-118363390D01*
X115674762Y-118363390D02*
X115579524Y-118411009D01*
X115579524Y-118411009D02*
X115531905Y-118458628D01*
X115531905Y-118458628D02*
X115484286Y-118553866D01*
X115484286Y-118553866D02*
X115484286Y-118744342D01*
X115484286Y-118744342D02*
X115531905Y-118839580D01*
X115531905Y-118839580D02*
X115579524Y-118887200D01*
X115579524Y-118887200D02*
X115674762Y-118934819D01*
X115674762Y-118934819D02*
X115865238Y-118934819D01*
X115865238Y-118934819D02*
X115960476Y-118887200D01*
X115960476Y-118887200D02*
X116008095Y-118839580D01*
X116008095Y-118839580D02*
X116055714Y-118744342D01*
X116055714Y-118744342D02*
X116055714Y-118553866D01*
X116055714Y-118553866D02*
X116008095Y-118458628D01*
X116008095Y-118458628D02*
X115960476Y-118411009D01*
X115960476Y-118411009D02*
X115865238Y-118363390D01*
X135756905Y-118429819D02*
X135756905Y-117429819D01*
X135756905Y-117429819D02*
X135995000Y-117429819D01*
X135995000Y-117429819D02*
X136137857Y-117477438D01*
X136137857Y-117477438D02*
X136233095Y-117572676D01*
X136233095Y-117572676D02*
X136280714Y-117667914D01*
X136280714Y-117667914D02*
X136328333Y-117858390D01*
X136328333Y-117858390D02*
X136328333Y-118001247D01*
X136328333Y-118001247D02*
X136280714Y-118191723D01*
X136280714Y-118191723D02*
X136233095Y-118286961D01*
X136233095Y-118286961D02*
X136137857Y-118382200D01*
X136137857Y-118382200D02*
X135995000Y-118429819D01*
X135995000Y-118429819D02*
X135756905Y-118429819D01*
X136899762Y-117858390D02*
X136804524Y-117810771D01*
X136804524Y-117810771D02*
X136756905Y-117763152D01*
X136756905Y-117763152D02*
X136709286Y-117667914D01*
X136709286Y-117667914D02*
X136709286Y-117620295D01*
X136709286Y-117620295D02*
X136756905Y-117525057D01*
X136756905Y-117525057D02*
X136804524Y-117477438D01*
X136804524Y-117477438D02*
X136899762Y-117429819D01*
X136899762Y-117429819D02*
X137090238Y-117429819D01*
X137090238Y-117429819D02*
X137185476Y-117477438D01*
X137185476Y-117477438D02*
X137233095Y-117525057D01*
X137233095Y-117525057D02*
X137280714Y-117620295D01*
X137280714Y-117620295D02*
X137280714Y-117667914D01*
X137280714Y-117667914D02*
X137233095Y-117763152D01*
X137233095Y-117763152D02*
X137185476Y-117810771D01*
X137185476Y-117810771D02*
X137090238Y-117858390D01*
X137090238Y-117858390D02*
X136899762Y-117858390D01*
X136899762Y-117858390D02*
X136804524Y-117906009D01*
X136804524Y-117906009D02*
X136756905Y-117953628D01*
X136756905Y-117953628D02*
X136709286Y-118048866D01*
X136709286Y-118048866D02*
X136709286Y-118239342D01*
X136709286Y-118239342D02*
X136756905Y-118334580D01*
X136756905Y-118334580D02*
X136804524Y-118382200D01*
X136804524Y-118382200D02*
X136899762Y-118429819D01*
X136899762Y-118429819D02*
X137090238Y-118429819D01*
X137090238Y-118429819D02*
X137185476Y-118382200D01*
X137185476Y-118382200D02*
X137233095Y-118334580D01*
X137233095Y-118334580D02*
X137280714Y-118239342D01*
X137280714Y-118239342D02*
X137280714Y-118048866D01*
X137280714Y-118048866D02*
X137233095Y-117953628D01*
X137233095Y-117953628D02*
X137185476Y-117906009D01*
X137185476Y-117906009D02*
X137090238Y-117858390D01*
X147656377Y-128807200D02*
X147799234Y-128854819D01*
X147799234Y-128854819D02*
X148037329Y-128854819D01*
X148037329Y-128854819D02*
X148132567Y-128807200D01*
X148132567Y-128807200D02*
X148180186Y-128759580D01*
X148180186Y-128759580D02*
X148227805Y-128664342D01*
X148227805Y-128664342D02*
X148227805Y-128569104D01*
X148227805Y-128569104D02*
X148180186Y-128473866D01*
X148180186Y-128473866D02*
X148132567Y-128426247D01*
X148132567Y-128426247D02*
X148037329Y-128378628D01*
X148037329Y-128378628D02*
X147846853Y-128331009D01*
X147846853Y-128331009D02*
X147751615Y-128283390D01*
X147751615Y-128283390D02*
X147703996Y-128235771D01*
X147703996Y-128235771D02*
X147656377Y-128140533D01*
X147656377Y-128140533D02*
X147656377Y-128045295D01*
X147656377Y-128045295D02*
X147703996Y-127950057D01*
X147703996Y-127950057D02*
X147751615Y-127902438D01*
X147751615Y-127902438D02*
X147846853Y-127854819D01*
X147846853Y-127854819D02*
X148084948Y-127854819D01*
X148084948Y-127854819D02*
X148227805Y-127902438D01*
X148561139Y-127854819D02*
X148799234Y-128854819D01*
X148799234Y-128854819D02*
X148989710Y-128140533D01*
X148989710Y-128140533D02*
X149180186Y-128854819D01*
X149180186Y-128854819D02*
X149418282Y-127854819D01*
X149703996Y-127854819D02*
X150370662Y-127854819D01*
X150370662Y-127854819D02*
X149942091Y-128854819D01*
X126007498Y-88747319D02*
X125674165Y-88271128D01*
X125436070Y-88747319D02*
X125436070Y-87747319D01*
X125436070Y-87747319D02*
X125817022Y-87747319D01*
X125817022Y-87747319D02*
X125912260Y-87794938D01*
X125912260Y-87794938D02*
X125959879Y-87842557D01*
X125959879Y-87842557D02*
X126007498Y-87937795D01*
X126007498Y-87937795D02*
X126007498Y-88080652D01*
X126007498Y-88080652D02*
X125959879Y-88175890D01*
X125959879Y-88175890D02*
X125912260Y-88223509D01*
X125912260Y-88223509D02*
X125817022Y-88271128D01*
X125817022Y-88271128D02*
X125436070Y-88271128D01*
X126293213Y-87747319D02*
X126626546Y-88747319D01*
X126626546Y-88747319D02*
X126959879Y-87747319D01*
X127197975Y-87747319D02*
X127817022Y-87747319D01*
X127817022Y-87747319D02*
X127483689Y-88128271D01*
X127483689Y-88128271D02*
X127626546Y-88128271D01*
X127626546Y-88128271D02*
X127721784Y-88175890D01*
X127721784Y-88175890D02*
X127769403Y-88223509D01*
X127769403Y-88223509D02*
X127817022Y-88318747D01*
X127817022Y-88318747D02*
X127817022Y-88556842D01*
X127817022Y-88556842D02*
X127769403Y-88652080D01*
X127769403Y-88652080D02*
X127721784Y-88699700D01*
X127721784Y-88699700D02*
X127626546Y-88747319D01*
X127626546Y-88747319D02*
X127340832Y-88747319D01*
X127340832Y-88747319D02*
X127245594Y-88699700D01*
X127245594Y-88699700D02*
X127197975Y-88652080D01*
X123229819Y-59256666D02*
X122753628Y-59589999D01*
X123229819Y-59828094D02*
X122229819Y-59828094D01*
X122229819Y-59828094D02*
X122229819Y-59447142D01*
X122229819Y-59447142D02*
X122277438Y-59351904D01*
X122277438Y-59351904D02*
X122325057Y-59304285D01*
X122325057Y-59304285D02*
X122420295Y-59256666D01*
X122420295Y-59256666D02*
X122563152Y-59256666D01*
X122563152Y-59256666D02*
X122658390Y-59304285D01*
X122658390Y-59304285D02*
X122706009Y-59351904D01*
X122706009Y-59351904D02*
X122753628Y-59447142D01*
X122753628Y-59447142D02*
X122753628Y-59828094D01*
X122563152Y-58399523D02*
X123229819Y-58399523D01*
X122182200Y-58637618D02*
X122896485Y-58875713D01*
X122896485Y-58875713D02*
X122896485Y-58256666D01*
X168414819Y-125462857D02*
X167938628Y-125796190D01*
X168414819Y-126034285D02*
X167414819Y-126034285D01*
X167414819Y-126034285D02*
X167414819Y-125653333D01*
X167414819Y-125653333D02*
X167462438Y-125558095D01*
X167462438Y-125558095D02*
X167510057Y-125510476D01*
X167510057Y-125510476D02*
X167605295Y-125462857D01*
X167605295Y-125462857D02*
X167748152Y-125462857D01*
X167748152Y-125462857D02*
X167843390Y-125510476D01*
X167843390Y-125510476D02*
X167891009Y-125558095D01*
X167891009Y-125558095D02*
X167938628Y-125653333D01*
X167938628Y-125653333D02*
X167938628Y-126034285D01*
X168414819Y-124510476D02*
X168414819Y-125081904D01*
X168414819Y-124796190D02*
X167414819Y-124796190D01*
X167414819Y-124796190D02*
X167557676Y-124891428D01*
X167557676Y-124891428D02*
X167652914Y-124986666D01*
X167652914Y-124986666D02*
X167700533Y-125081904D01*
X167843390Y-123939047D02*
X167795771Y-124034285D01*
X167795771Y-124034285D02*
X167748152Y-124081904D01*
X167748152Y-124081904D02*
X167652914Y-124129523D01*
X167652914Y-124129523D02*
X167605295Y-124129523D01*
X167605295Y-124129523D02*
X167510057Y-124081904D01*
X167510057Y-124081904D02*
X167462438Y-124034285D01*
X167462438Y-124034285D02*
X167414819Y-123939047D01*
X167414819Y-123939047D02*
X167414819Y-123748571D01*
X167414819Y-123748571D02*
X167462438Y-123653333D01*
X167462438Y-123653333D02*
X167510057Y-123605714D01*
X167510057Y-123605714D02*
X167605295Y-123558095D01*
X167605295Y-123558095D02*
X167652914Y-123558095D01*
X167652914Y-123558095D02*
X167748152Y-123605714D01*
X167748152Y-123605714D02*
X167795771Y-123653333D01*
X167795771Y-123653333D02*
X167843390Y-123748571D01*
X167843390Y-123748571D02*
X167843390Y-123939047D01*
X167843390Y-123939047D02*
X167891009Y-124034285D01*
X167891009Y-124034285D02*
X167938628Y-124081904D01*
X167938628Y-124081904D02*
X168033866Y-124129523D01*
X168033866Y-124129523D02*
X168224342Y-124129523D01*
X168224342Y-124129523D02*
X168319580Y-124081904D01*
X168319580Y-124081904D02*
X168367200Y-124034285D01*
X168367200Y-124034285D02*
X168414819Y-123939047D01*
X168414819Y-123939047D02*
X168414819Y-123748571D01*
X168414819Y-123748571D02*
X168367200Y-123653333D01*
X168367200Y-123653333D02*
X168319580Y-123605714D01*
X168319580Y-123605714D02*
X168224342Y-123558095D01*
X168224342Y-123558095D02*
X168033866Y-123558095D01*
X168033866Y-123558095D02*
X167938628Y-123605714D01*
X167938628Y-123605714D02*
X167891009Y-123653333D01*
X167891009Y-123653333D02*
X167843390Y-123748571D01*
X141170963Y-51637712D02*
X141170963Y-52351997D01*
X141170963Y-52351997D02*
X141123344Y-52494854D01*
X141123344Y-52494854D02*
X141028106Y-52590093D01*
X141028106Y-52590093D02*
X140885249Y-52637712D01*
X140885249Y-52637712D02*
X140790011Y-52637712D01*
X141551916Y-51637712D02*
X142170963Y-51637712D01*
X142170963Y-51637712D02*
X141837630Y-52018664D01*
X141837630Y-52018664D02*
X141980487Y-52018664D01*
X141980487Y-52018664D02*
X142075725Y-52066283D01*
X142075725Y-52066283D02*
X142123344Y-52113902D01*
X142123344Y-52113902D02*
X142170963Y-52209140D01*
X142170963Y-52209140D02*
X142170963Y-52447235D01*
X142170963Y-52447235D02*
X142123344Y-52542473D01*
X142123344Y-52542473D02*
X142075725Y-52590093D01*
X142075725Y-52590093D02*
X141980487Y-52637712D01*
X141980487Y-52637712D02*
X141694773Y-52637712D01*
X141694773Y-52637712D02*
X141599535Y-52590093D01*
X141599535Y-52590093D02*
X141551916Y-52542473D01*
X159786666Y-105904819D02*
X159453333Y-105428628D01*
X159215238Y-105904819D02*
X159215238Y-104904819D01*
X159215238Y-104904819D02*
X159596190Y-104904819D01*
X159596190Y-104904819D02*
X159691428Y-104952438D01*
X159691428Y-104952438D02*
X159739047Y-105000057D01*
X159739047Y-105000057D02*
X159786666Y-105095295D01*
X159786666Y-105095295D02*
X159786666Y-105238152D01*
X159786666Y-105238152D02*
X159739047Y-105333390D01*
X159739047Y-105333390D02*
X159691428Y-105381009D01*
X159691428Y-105381009D02*
X159596190Y-105428628D01*
X159596190Y-105428628D02*
X159215238Y-105428628D01*
X160072381Y-104904819D02*
X160405714Y-105904819D01*
X160405714Y-105904819D02*
X160739047Y-104904819D01*
X161215238Y-105333390D02*
X161120000Y-105285771D01*
X161120000Y-105285771D02*
X161072381Y-105238152D01*
X161072381Y-105238152D02*
X161024762Y-105142914D01*
X161024762Y-105142914D02*
X161024762Y-105095295D01*
X161024762Y-105095295D02*
X161072381Y-105000057D01*
X161072381Y-105000057D02*
X161120000Y-104952438D01*
X161120000Y-104952438D02*
X161215238Y-104904819D01*
X161215238Y-104904819D02*
X161405714Y-104904819D01*
X161405714Y-104904819D02*
X161500952Y-104952438D01*
X161500952Y-104952438D02*
X161548571Y-105000057D01*
X161548571Y-105000057D02*
X161596190Y-105095295D01*
X161596190Y-105095295D02*
X161596190Y-105142914D01*
X161596190Y-105142914D02*
X161548571Y-105238152D01*
X161548571Y-105238152D02*
X161500952Y-105285771D01*
X161500952Y-105285771D02*
X161405714Y-105333390D01*
X161405714Y-105333390D02*
X161215238Y-105333390D01*
X161215238Y-105333390D02*
X161120000Y-105381009D01*
X161120000Y-105381009D02*
X161072381Y-105428628D01*
X161072381Y-105428628D02*
X161024762Y-105523866D01*
X161024762Y-105523866D02*
X161024762Y-105714342D01*
X161024762Y-105714342D02*
X161072381Y-105809580D01*
X161072381Y-105809580D02*
X161120000Y-105857200D01*
X161120000Y-105857200D02*
X161215238Y-105904819D01*
X161215238Y-105904819D02*
X161405714Y-105904819D01*
X161405714Y-105904819D02*
X161500952Y-105857200D01*
X161500952Y-105857200D02*
X161548571Y-105809580D01*
X161548571Y-105809580D02*
X161596190Y-105714342D01*
X161596190Y-105714342D02*
X161596190Y-105523866D01*
X161596190Y-105523866D02*
X161548571Y-105428628D01*
X161548571Y-105428628D02*
X161500952Y-105381009D01*
X161500952Y-105381009D02*
X161405714Y-105333390D01*
X148261905Y-118494819D02*
X148261905Y-117494819D01*
X148261905Y-117494819D02*
X148500000Y-117494819D01*
X148500000Y-117494819D02*
X148642857Y-117542438D01*
X148642857Y-117542438D02*
X148738095Y-117637676D01*
X148738095Y-117637676D02*
X148785714Y-117732914D01*
X148785714Y-117732914D02*
X148833333Y-117923390D01*
X148833333Y-117923390D02*
X148833333Y-118066247D01*
X148833333Y-118066247D02*
X148785714Y-118256723D01*
X148785714Y-118256723D02*
X148738095Y-118351961D01*
X148738095Y-118351961D02*
X148642857Y-118447200D01*
X148642857Y-118447200D02*
X148500000Y-118494819D01*
X148500000Y-118494819D02*
X148261905Y-118494819D01*
X149309524Y-118494819D02*
X149500000Y-118494819D01*
X149500000Y-118494819D02*
X149595238Y-118447200D01*
X149595238Y-118447200D02*
X149642857Y-118399580D01*
X149642857Y-118399580D02*
X149738095Y-118256723D01*
X149738095Y-118256723D02*
X149785714Y-118066247D01*
X149785714Y-118066247D02*
X149785714Y-117685295D01*
X149785714Y-117685295D02*
X149738095Y-117590057D01*
X149738095Y-117590057D02*
X149690476Y-117542438D01*
X149690476Y-117542438D02*
X149595238Y-117494819D01*
X149595238Y-117494819D02*
X149404762Y-117494819D01*
X149404762Y-117494819D02*
X149309524Y-117542438D01*
X149309524Y-117542438D02*
X149261905Y-117590057D01*
X149261905Y-117590057D02*
X149214286Y-117685295D01*
X149214286Y-117685295D02*
X149214286Y-117923390D01*
X149214286Y-117923390D02*
X149261905Y-118018628D01*
X149261905Y-118018628D02*
X149309524Y-118066247D01*
X149309524Y-118066247D02*
X149404762Y-118113866D01*
X149404762Y-118113866D02*
X149595238Y-118113866D01*
X149595238Y-118113866D02*
X149690476Y-118066247D01*
X149690476Y-118066247D02*
X149738095Y-118018628D01*
X149738095Y-118018628D02*
X149785714Y-117923390D01*
X151747432Y-118494819D02*
X151414099Y-118018628D01*
X151176004Y-118494819D02*
X151176004Y-117494819D01*
X151176004Y-117494819D02*
X151556956Y-117494819D01*
X151556956Y-117494819D02*
X151652194Y-117542438D01*
X151652194Y-117542438D02*
X151699813Y-117590057D01*
X151699813Y-117590057D02*
X151747432Y-117685295D01*
X151747432Y-117685295D02*
X151747432Y-117828152D01*
X151747432Y-117828152D02*
X151699813Y-117923390D01*
X151699813Y-117923390D02*
X151652194Y-117971009D01*
X151652194Y-117971009D02*
X151556956Y-118018628D01*
X151556956Y-118018628D02*
X151176004Y-118018628D01*
X152699813Y-118494819D02*
X152128385Y-118494819D01*
X152414099Y-118494819D02*
X152414099Y-117494819D01*
X152414099Y-117494819D02*
X152318861Y-117637676D01*
X152318861Y-117637676D02*
X152223623Y-117732914D01*
X152223623Y-117732914D02*
X152128385Y-117780533D01*
X153176004Y-118494819D02*
X153366480Y-118494819D01*
X153366480Y-118494819D02*
X153461718Y-118447200D01*
X153461718Y-118447200D02*
X153509337Y-118399580D01*
X153509337Y-118399580D02*
X153604575Y-118256723D01*
X153604575Y-118256723D02*
X153652194Y-118066247D01*
X153652194Y-118066247D02*
X153652194Y-117685295D01*
X153652194Y-117685295D02*
X153604575Y-117590057D01*
X153604575Y-117590057D02*
X153556956Y-117542438D01*
X153556956Y-117542438D02*
X153461718Y-117494819D01*
X153461718Y-117494819D02*
X153271242Y-117494819D01*
X153271242Y-117494819D02*
X153176004Y-117542438D01*
X153176004Y-117542438D02*
X153128385Y-117590057D01*
X153128385Y-117590057D02*
X153080766Y-117685295D01*
X153080766Y-117685295D02*
X153080766Y-117923390D01*
X153080766Y-117923390D02*
X153128385Y-118018628D01*
X153128385Y-118018628D02*
X153176004Y-118066247D01*
X153176004Y-118066247D02*
X153271242Y-118113866D01*
X153271242Y-118113866D02*
X153461718Y-118113866D01*
X153461718Y-118113866D02*
X153556956Y-118066247D01*
X153556956Y-118066247D02*
X153604575Y-118018628D01*
X153604575Y-118018628D02*
X153652194Y-117923390D01*
X123361045Y-118824819D02*
X123361045Y-117824819D01*
X123361045Y-117824819D02*
X123599140Y-117824819D01*
X123599140Y-117824819D02*
X123741997Y-117872438D01*
X123741997Y-117872438D02*
X123837235Y-117967676D01*
X123837235Y-117967676D02*
X123884854Y-118062914D01*
X123884854Y-118062914D02*
X123932473Y-118253390D01*
X123932473Y-118253390D02*
X123932473Y-118396247D01*
X123932473Y-118396247D02*
X123884854Y-118586723D01*
X123884854Y-118586723D02*
X123837235Y-118681961D01*
X123837235Y-118681961D02*
X123741997Y-118777200D01*
X123741997Y-118777200D02*
X123599140Y-118824819D01*
X123599140Y-118824819D02*
X123361045Y-118824819D01*
X124265807Y-117824819D02*
X124932473Y-117824819D01*
X124932473Y-117824819D02*
X124503902Y-118824819D01*
X98540475Y-118824819D02*
X98540475Y-117824819D01*
X98540475Y-117824819D02*
X98778570Y-117824819D01*
X98778570Y-117824819D02*
X98921427Y-117872438D01*
X98921427Y-117872438D02*
X99016665Y-117967676D01*
X99016665Y-117967676D02*
X99064284Y-118062914D01*
X99064284Y-118062914D02*
X99111903Y-118253390D01*
X99111903Y-118253390D02*
X99111903Y-118396247D01*
X99111903Y-118396247D02*
X99064284Y-118586723D01*
X99064284Y-118586723D02*
X99016665Y-118681961D01*
X99016665Y-118681961D02*
X98921427Y-118777200D01*
X98921427Y-118777200D02*
X98778570Y-118824819D01*
X98778570Y-118824819D02*
X98540475Y-118824819D01*
X100016665Y-117824819D02*
X99540475Y-117824819D01*
X99540475Y-117824819D02*
X99492856Y-118301009D01*
X99492856Y-118301009D02*
X99540475Y-118253390D01*
X99540475Y-118253390D02*
X99635713Y-118205771D01*
X99635713Y-118205771D02*
X99873808Y-118205771D01*
X99873808Y-118205771D02*
X99969046Y-118253390D01*
X99969046Y-118253390D02*
X100016665Y-118301009D01*
X100016665Y-118301009D02*
X100064284Y-118396247D01*
X100064284Y-118396247D02*
X100064284Y-118634342D01*
X100064284Y-118634342D02*
X100016665Y-118729580D01*
X100016665Y-118729580D02*
X99969046Y-118777200D01*
X99969046Y-118777200D02*
X99873808Y-118824819D01*
X99873808Y-118824819D02*
X99635713Y-118824819D01*
X99635713Y-118824819D02*
X99540475Y-118777200D01*
X99540475Y-118777200D02*
X99492856Y-118729580D01*
X130363095Y-60279819D02*
X130363095Y-61089342D01*
X130363095Y-61089342D02*
X130410714Y-61184580D01*
X130410714Y-61184580D02*
X130458333Y-61232200D01*
X130458333Y-61232200D02*
X130553571Y-61279819D01*
X130553571Y-61279819D02*
X130744047Y-61279819D01*
X130744047Y-61279819D02*
X130839285Y-61232200D01*
X130839285Y-61232200D02*
X130886904Y-61184580D01*
X130886904Y-61184580D02*
X130934523Y-61089342D01*
X130934523Y-61089342D02*
X130934523Y-60279819D01*
X131363095Y-60375057D02*
X131410714Y-60327438D01*
X131410714Y-60327438D02*
X131505952Y-60279819D01*
X131505952Y-60279819D02*
X131744047Y-60279819D01*
X131744047Y-60279819D02*
X131839285Y-60327438D01*
X131839285Y-60327438D02*
X131886904Y-60375057D01*
X131886904Y-60375057D02*
X131934523Y-60470295D01*
X131934523Y-60470295D02*
X131934523Y-60565533D01*
X131934523Y-60565533D02*
X131886904Y-60708390D01*
X131886904Y-60708390D02*
X131315476Y-61279819D01*
X131315476Y-61279819D02*
X131934523Y-61279819D01*
X95183095Y-102419819D02*
X95183095Y-103229342D01*
X95183095Y-103229342D02*
X95230714Y-103324580D01*
X95230714Y-103324580D02*
X95278333Y-103372200D01*
X95278333Y-103372200D02*
X95373571Y-103419819D01*
X95373571Y-103419819D02*
X95564047Y-103419819D01*
X95564047Y-103419819D02*
X95659285Y-103372200D01*
X95659285Y-103372200D02*
X95706904Y-103324580D01*
X95706904Y-103324580D02*
X95754523Y-103229342D01*
X95754523Y-103229342D02*
X95754523Y-102419819D01*
X96135476Y-102419819D02*
X96754523Y-102419819D01*
X96754523Y-102419819D02*
X96421190Y-102800771D01*
X96421190Y-102800771D02*
X96564047Y-102800771D01*
X96564047Y-102800771D02*
X96659285Y-102848390D01*
X96659285Y-102848390D02*
X96706904Y-102896009D01*
X96706904Y-102896009D02*
X96754523Y-102991247D01*
X96754523Y-102991247D02*
X96754523Y-103229342D01*
X96754523Y-103229342D02*
X96706904Y-103324580D01*
X96706904Y-103324580D02*
X96659285Y-103372200D01*
X96659285Y-103372200D02*
X96564047Y-103419819D01*
X96564047Y-103419819D02*
X96278333Y-103419819D01*
X96278333Y-103419819D02*
X96183095Y-103372200D01*
X96183095Y-103372200D02*
X96135476Y-103324580D01*
X135231667Y-128807200D02*
X135374524Y-128854819D01*
X135374524Y-128854819D02*
X135612619Y-128854819D01*
X135612619Y-128854819D02*
X135707857Y-128807200D01*
X135707857Y-128807200D02*
X135755476Y-128759580D01*
X135755476Y-128759580D02*
X135803095Y-128664342D01*
X135803095Y-128664342D02*
X135803095Y-128569104D01*
X135803095Y-128569104D02*
X135755476Y-128473866D01*
X135755476Y-128473866D02*
X135707857Y-128426247D01*
X135707857Y-128426247D02*
X135612619Y-128378628D01*
X135612619Y-128378628D02*
X135422143Y-128331009D01*
X135422143Y-128331009D02*
X135326905Y-128283390D01*
X135326905Y-128283390D02*
X135279286Y-128235771D01*
X135279286Y-128235771D02*
X135231667Y-128140533D01*
X135231667Y-128140533D02*
X135231667Y-128045295D01*
X135231667Y-128045295D02*
X135279286Y-127950057D01*
X135279286Y-127950057D02*
X135326905Y-127902438D01*
X135326905Y-127902438D02*
X135422143Y-127854819D01*
X135422143Y-127854819D02*
X135660238Y-127854819D01*
X135660238Y-127854819D02*
X135803095Y-127902438D01*
X136136429Y-127854819D02*
X136374524Y-128854819D01*
X136374524Y-128854819D02*
X136565000Y-128140533D01*
X136565000Y-128140533D02*
X136755476Y-128854819D01*
X136755476Y-128854819D02*
X136993572Y-127854819D01*
X137803095Y-127854819D02*
X137612619Y-127854819D01*
X137612619Y-127854819D02*
X137517381Y-127902438D01*
X137517381Y-127902438D02*
X137469762Y-127950057D01*
X137469762Y-127950057D02*
X137374524Y-128092914D01*
X137374524Y-128092914D02*
X137326905Y-128283390D01*
X137326905Y-128283390D02*
X137326905Y-128664342D01*
X137326905Y-128664342D02*
X137374524Y-128759580D01*
X137374524Y-128759580D02*
X137422143Y-128807200D01*
X137422143Y-128807200D02*
X137517381Y-128854819D01*
X137517381Y-128854819D02*
X137707857Y-128854819D01*
X137707857Y-128854819D02*
X137803095Y-128807200D01*
X137803095Y-128807200D02*
X137850714Y-128759580D01*
X137850714Y-128759580D02*
X137898333Y-128664342D01*
X137898333Y-128664342D02*
X137898333Y-128426247D01*
X137898333Y-128426247D02*
X137850714Y-128331009D01*
X137850714Y-128331009D02*
X137803095Y-128283390D01*
X137803095Y-128283390D02*
X137707857Y-128235771D01*
X137707857Y-128235771D02*
X137517381Y-128235771D01*
X137517381Y-128235771D02*
X137422143Y-128283390D01*
X137422143Y-128283390D02*
X137374524Y-128331009D01*
X137374524Y-128331009D02*
X137326905Y-128426247D01*
X139633333Y-59634580D02*
X139585714Y-59682200D01*
X139585714Y-59682200D02*
X139442857Y-59729819D01*
X139442857Y-59729819D02*
X139347619Y-59729819D01*
X139347619Y-59729819D02*
X139204762Y-59682200D01*
X139204762Y-59682200D02*
X139109524Y-59586961D01*
X139109524Y-59586961D02*
X139061905Y-59491723D01*
X139061905Y-59491723D02*
X139014286Y-59301247D01*
X139014286Y-59301247D02*
X139014286Y-59158390D01*
X139014286Y-59158390D02*
X139061905Y-58967914D01*
X139061905Y-58967914D02*
X139109524Y-58872676D01*
X139109524Y-58872676D02*
X139204762Y-58777438D01*
X139204762Y-58777438D02*
X139347619Y-58729819D01*
X139347619Y-58729819D02*
X139442857Y-58729819D01*
X139442857Y-58729819D02*
X139585714Y-58777438D01*
X139585714Y-58777438D02*
X139633333Y-58825057D01*
X140585714Y-59729819D02*
X140014286Y-59729819D01*
X140300000Y-59729819D02*
X140300000Y-58729819D01*
X140300000Y-58729819D02*
X140204762Y-58872676D01*
X140204762Y-58872676D02*
X140109524Y-58967914D01*
X140109524Y-58967914D02*
X140014286Y-59015533D01*
X86130190Y-118824819D02*
X86130190Y-117824819D01*
X86130190Y-117824819D02*
X86368285Y-117824819D01*
X86368285Y-117824819D02*
X86511142Y-117872438D01*
X86511142Y-117872438D02*
X86606380Y-117967676D01*
X86606380Y-117967676D02*
X86653999Y-118062914D01*
X86653999Y-118062914D02*
X86701618Y-118253390D01*
X86701618Y-118253390D02*
X86701618Y-118396247D01*
X86701618Y-118396247D02*
X86653999Y-118586723D01*
X86653999Y-118586723D02*
X86606380Y-118681961D01*
X86606380Y-118681961D02*
X86511142Y-118777200D01*
X86511142Y-118777200D02*
X86368285Y-118824819D01*
X86368285Y-118824819D02*
X86130190Y-118824819D01*
X87558761Y-118158152D02*
X87558761Y-118824819D01*
X87320666Y-117777200D02*
X87082571Y-118491485D01*
X87082571Y-118491485D02*
X87701618Y-118491485D01*
X81542819Y-125412857D02*
X81066628Y-125746190D01*
X81542819Y-125984285D02*
X80542819Y-125984285D01*
X80542819Y-125984285D02*
X80542819Y-125603333D01*
X80542819Y-125603333D02*
X80590438Y-125508095D01*
X80590438Y-125508095D02*
X80638057Y-125460476D01*
X80638057Y-125460476D02*
X80733295Y-125412857D01*
X80733295Y-125412857D02*
X80876152Y-125412857D01*
X80876152Y-125412857D02*
X80971390Y-125460476D01*
X80971390Y-125460476D02*
X81019009Y-125508095D01*
X81019009Y-125508095D02*
X81066628Y-125603333D01*
X81066628Y-125603333D02*
X81066628Y-125984285D01*
X81542819Y-124460476D02*
X81542819Y-125031904D01*
X81542819Y-124746190D02*
X80542819Y-124746190D01*
X80542819Y-124746190D02*
X80685676Y-124841428D01*
X80685676Y-124841428D02*
X80780914Y-124936666D01*
X80780914Y-124936666D02*
X80828533Y-125031904D01*
X81542819Y-123508095D02*
X81542819Y-124079523D01*
X81542819Y-123793809D02*
X80542819Y-123793809D01*
X80542819Y-123793809D02*
X80685676Y-123889047D01*
X80685676Y-123889047D02*
X80780914Y-123984285D01*
X80780914Y-123984285D02*
X80828533Y-124079523D01*
X127478333Y-118934819D02*
X127145000Y-118458628D01*
X126906905Y-118934819D02*
X126906905Y-117934819D01*
X126906905Y-117934819D02*
X127287857Y-117934819D01*
X127287857Y-117934819D02*
X127383095Y-117982438D01*
X127383095Y-117982438D02*
X127430714Y-118030057D01*
X127430714Y-118030057D02*
X127478333Y-118125295D01*
X127478333Y-118125295D02*
X127478333Y-118268152D01*
X127478333Y-118268152D02*
X127430714Y-118363390D01*
X127430714Y-118363390D02*
X127383095Y-118411009D01*
X127383095Y-118411009D02*
X127287857Y-118458628D01*
X127287857Y-118458628D02*
X126906905Y-118458628D01*
X127954524Y-118934819D02*
X128145000Y-118934819D01*
X128145000Y-118934819D02*
X128240238Y-118887200D01*
X128240238Y-118887200D02*
X128287857Y-118839580D01*
X128287857Y-118839580D02*
X128383095Y-118696723D01*
X128383095Y-118696723D02*
X128430714Y-118506247D01*
X128430714Y-118506247D02*
X128430714Y-118125295D01*
X128430714Y-118125295D02*
X128383095Y-118030057D01*
X128383095Y-118030057D02*
X128335476Y-117982438D01*
X128335476Y-117982438D02*
X128240238Y-117934819D01*
X128240238Y-117934819D02*
X128049762Y-117934819D01*
X128049762Y-117934819D02*
X127954524Y-117982438D01*
X127954524Y-117982438D02*
X127906905Y-118030057D01*
X127906905Y-118030057D02*
X127859286Y-118125295D01*
X127859286Y-118125295D02*
X127859286Y-118363390D01*
X127859286Y-118363390D02*
X127906905Y-118458628D01*
X127906905Y-118458628D02*
X127954524Y-118506247D01*
X127954524Y-118506247D02*
X128049762Y-118553866D01*
X128049762Y-118553866D02*
X128240238Y-118553866D01*
X128240238Y-118553866D02*
X128335476Y-118506247D01*
X128335476Y-118506247D02*
X128383095Y-118458628D01*
X128383095Y-118458628D02*
X128430714Y-118363390D01*
X73154667Y-128807200D02*
X73297524Y-128854819D01*
X73297524Y-128854819D02*
X73535619Y-128854819D01*
X73535619Y-128854819D02*
X73630857Y-128807200D01*
X73630857Y-128807200D02*
X73678476Y-128759580D01*
X73678476Y-128759580D02*
X73726095Y-128664342D01*
X73726095Y-128664342D02*
X73726095Y-128569104D01*
X73726095Y-128569104D02*
X73678476Y-128473866D01*
X73678476Y-128473866D02*
X73630857Y-128426247D01*
X73630857Y-128426247D02*
X73535619Y-128378628D01*
X73535619Y-128378628D02*
X73345143Y-128331009D01*
X73345143Y-128331009D02*
X73249905Y-128283390D01*
X73249905Y-128283390D02*
X73202286Y-128235771D01*
X73202286Y-128235771D02*
X73154667Y-128140533D01*
X73154667Y-128140533D02*
X73154667Y-128045295D01*
X73154667Y-128045295D02*
X73202286Y-127950057D01*
X73202286Y-127950057D02*
X73249905Y-127902438D01*
X73249905Y-127902438D02*
X73345143Y-127854819D01*
X73345143Y-127854819D02*
X73583238Y-127854819D01*
X73583238Y-127854819D02*
X73726095Y-127902438D01*
X74059429Y-127854819D02*
X74297524Y-128854819D01*
X74297524Y-128854819D02*
X74488000Y-128140533D01*
X74488000Y-128140533D02*
X74678476Y-128854819D01*
X74678476Y-128854819D02*
X74916572Y-127854819D01*
X75821333Y-128854819D02*
X75249905Y-128854819D01*
X75535619Y-128854819D02*
X75535619Y-127854819D01*
X75535619Y-127854819D02*
X75440381Y-127997676D01*
X75440381Y-127997676D02*
X75345143Y-128092914D01*
X75345143Y-128092914D02*
X75249905Y-128140533D01*
X156486666Y-51637712D02*
X156486666Y-52351997D01*
X156486666Y-52351997D02*
X156439047Y-52494854D01*
X156439047Y-52494854D02*
X156343809Y-52590093D01*
X156343809Y-52590093D02*
X156200952Y-52637712D01*
X156200952Y-52637712D02*
X156105714Y-52637712D01*
X157391428Y-51971045D02*
X157391428Y-52637712D01*
X157153333Y-51590093D02*
X156915238Y-52304378D01*
X156915238Y-52304378D02*
X157534285Y-52304378D01*
X110425522Y-128807200D02*
X110568379Y-128854819D01*
X110568379Y-128854819D02*
X110806474Y-128854819D01*
X110806474Y-128854819D02*
X110901712Y-128807200D01*
X110901712Y-128807200D02*
X110949331Y-128759580D01*
X110949331Y-128759580D02*
X110996950Y-128664342D01*
X110996950Y-128664342D02*
X110996950Y-128569104D01*
X110996950Y-128569104D02*
X110949331Y-128473866D01*
X110949331Y-128473866D02*
X110901712Y-128426247D01*
X110901712Y-128426247D02*
X110806474Y-128378628D01*
X110806474Y-128378628D02*
X110615998Y-128331009D01*
X110615998Y-128331009D02*
X110520760Y-128283390D01*
X110520760Y-128283390D02*
X110473141Y-128235771D01*
X110473141Y-128235771D02*
X110425522Y-128140533D01*
X110425522Y-128140533D02*
X110425522Y-128045295D01*
X110425522Y-128045295D02*
X110473141Y-127950057D01*
X110473141Y-127950057D02*
X110520760Y-127902438D01*
X110520760Y-127902438D02*
X110615998Y-127854819D01*
X110615998Y-127854819D02*
X110854093Y-127854819D01*
X110854093Y-127854819D02*
X110996950Y-127902438D01*
X111330284Y-127854819D02*
X111568379Y-128854819D01*
X111568379Y-128854819D02*
X111758855Y-128140533D01*
X111758855Y-128140533D02*
X111949331Y-128854819D01*
X111949331Y-128854819D02*
X112187427Y-127854819D01*
X112996950Y-128188152D02*
X112996950Y-128854819D01*
X112758855Y-127807200D02*
X112520760Y-128521485D01*
X112520760Y-128521485D02*
X113139807Y-128521485D01*
X93953104Y-125412857D02*
X93476913Y-125746190D01*
X93953104Y-125984285D02*
X92953104Y-125984285D01*
X92953104Y-125984285D02*
X92953104Y-125603333D01*
X92953104Y-125603333D02*
X93000723Y-125508095D01*
X93000723Y-125508095D02*
X93048342Y-125460476D01*
X93048342Y-125460476D02*
X93143580Y-125412857D01*
X93143580Y-125412857D02*
X93286437Y-125412857D01*
X93286437Y-125412857D02*
X93381675Y-125460476D01*
X93381675Y-125460476D02*
X93429294Y-125508095D01*
X93429294Y-125508095D02*
X93476913Y-125603333D01*
X93476913Y-125603333D02*
X93476913Y-125984285D01*
X93953104Y-124460476D02*
X93953104Y-125031904D01*
X93953104Y-124746190D02*
X92953104Y-124746190D01*
X92953104Y-124746190D02*
X93095961Y-124841428D01*
X93095961Y-124841428D02*
X93191199Y-124936666D01*
X93191199Y-124936666D02*
X93238818Y-125031904D01*
X93048342Y-124079523D02*
X93000723Y-124031904D01*
X93000723Y-124031904D02*
X92953104Y-123936666D01*
X92953104Y-123936666D02*
X92953104Y-123698571D01*
X92953104Y-123698571D02*
X93000723Y-123603333D01*
X93000723Y-123603333D02*
X93048342Y-123555714D01*
X93048342Y-123555714D02*
X93143580Y-123508095D01*
X93143580Y-123508095D02*
X93238818Y-123508095D01*
X93238818Y-123508095D02*
X93381675Y-123555714D01*
X93381675Y-123555714D02*
X93953104Y-124127142D01*
X93953104Y-124127142D02*
X93953104Y-123508095D01*
X106363389Y-125412857D02*
X105887198Y-125746190D01*
X106363389Y-125984285D02*
X105363389Y-125984285D01*
X105363389Y-125984285D02*
X105363389Y-125603333D01*
X105363389Y-125603333D02*
X105411008Y-125508095D01*
X105411008Y-125508095D02*
X105458627Y-125460476D01*
X105458627Y-125460476D02*
X105553865Y-125412857D01*
X105553865Y-125412857D02*
X105696722Y-125412857D01*
X105696722Y-125412857D02*
X105791960Y-125460476D01*
X105791960Y-125460476D02*
X105839579Y-125508095D01*
X105839579Y-125508095D02*
X105887198Y-125603333D01*
X105887198Y-125603333D02*
X105887198Y-125984285D01*
X106363389Y-124460476D02*
X106363389Y-125031904D01*
X106363389Y-124746190D02*
X105363389Y-124746190D01*
X105363389Y-124746190D02*
X105506246Y-124841428D01*
X105506246Y-124841428D02*
X105601484Y-124936666D01*
X105601484Y-124936666D02*
X105649103Y-125031904D01*
X105363389Y-124127142D02*
X105363389Y-123508095D01*
X105363389Y-123508095D02*
X105744341Y-123841428D01*
X105744341Y-123841428D02*
X105744341Y-123698571D01*
X105744341Y-123698571D02*
X105791960Y-123603333D01*
X105791960Y-123603333D02*
X105839579Y-123555714D01*
X105839579Y-123555714D02*
X105934817Y-123508095D01*
X105934817Y-123508095D02*
X106172912Y-123508095D01*
X106172912Y-123508095D02*
X106268150Y-123555714D01*
X106268150Y-123555714D02*
X106315770Y-123603333D01*
X106315770Y-123603333D02*
X106363389Y-123698571D01*
X106363389Y-123698571D02*
X106363389Y-123984285D01*
X106363389Y-123984285D02*
X106315770Y-124079523D01*
X106315770Y-124079523D02*
X106268150Y-124127142D01*
X90353333Y-118934819D02*
X90020000Y-118458628D01*
X89781905Y-118934819D02*
X89781905Y-117934819D01*
X89781905Y-117934819D02*
X90162857Y-117934819D01*
X90162857Y-117934819D02*
X90258095Y-117982438D01*
X90258095Y-117982438D02*
X90305714Y-118030057D01*
X90305714Y-118030057D02*
X90353333Y-118125295D01*
X90353333Y-118125295D02*
X90353333Y-118268152D01*
X90353333Y-118268152D02*
X90305714Y-118363390D01*
X90305714Y-118363390D02*
X90258095Y-118411009D01*
X90258095Y-118411009D02*
X90162857Y-118458628D01*
X90162857Y-118458628D02*
X89781905Y-118458628D01*
X91210476Y-117934819D02*
X91020000Y-117934819D01*
X91020000Y-117934819D02*
X90924762Y-117982438D01*
X90924762Y-117982438D02*
X90877143Y-118030057D01*
X90877143Y-118030057D02*
X90781905Y-118172914D01*
X90781905Y-118172914D02*
X90734286Y-118363390D01*
X90734286Y-118363390D02*
X90734286Y-118744342D01*
X90734286Y-118744342D02*
X90781905Y-118839580D01*
X90781905Y-118839580D02*
X90829524Y-118887200D01*
X90829524Y-118887200D02*
X90924762Y-118934819D01*
X90924762Y-118934819D02*
X91115238Y-118934819D01*
X91115238Y-118934819D02*
X91210476Y-118887200D01*
X91210476Y-118887200D02*
X91258095Y-118839580D01*
X91258095Y-118839580D02*
X91305714Y-118744342D01*
X91305714Y-118744342D02*
X91305714Y-118506247D01*
X91305714Y-118506247D02*
X91258095Y-118411009D01*
X91258095Y-118411009D02*
X91210476Y-118363390D01*
X91210476Y-118363390D02*
X91115238Y-118315771D01*
X91115238Y-118315771D02*
X90924762Y-118315771D01*
X90924762Y-118315771D02*
X90829524Y-118363390D01*
X90829524Y-118363390D02*
X90781905Y-118411009D01*
X90781905Y-118411009D02*
X90734286Y-118506247D01*
X143594244Y-125412857D02*
X143118053Y-125746190D01*
X143594244Y-125984285D02*
X142594244Y-125984285D01*
X142594244Y-125984285D02*
X142594244Y-125603333D01*
X142594244Y-125603333D02*
X142641863Y-125508095D01*
X142641863Y-125508095D02*
X142689482Y-125460476D01*
X142689482Y-125460476D02*
X142784720Y-125412857D01*
X142784720Y-125412857D02*
X142927577Y-125412857D01*
X142927577Y-125412857D02*
X143022815Y-125460476D01*
X143022815Y-125460476D02*
X143070434Y-125508095D01*
X143070434Y-125508095D02*
X143118053Y-125603333D01*
X143118053Y-125603333D02*
X143118053Y-125984285D01*
X143594244Y-124460476D02*
X143594244Y-125031904D01*
X143594244Y-124746190D02*
X142594244Y-124746190D01*
X142594244Y-124746190D02*
X142737101Y-124841428D01*
X142737101Y-124841428D02*
X142832339Y-124936666D01*
X142832339Y-124936666D02*
X142879958Y-125031904D01*
X142594244Y-123603333D02*
X142594244Y-123793809D01*
X142594244Y-123793809D02*
X142641863Y-123889047D01*
X142641863Y-123889047D02*
X142689482Y-123936666D01*
X142689482Y-123936666D02*
X142832339Y-124031904D01*
X142832339Y-124031904D02*
X143022815Y-124079523D01*
X143022815Y-124079523D02*
X143403767Y-124079523D01*
X143403767Y-124079523D02*
X143499005Y-124031904D01*
X143499005Y-124031904D02*
X143546625Y-123984285D01*
X143546625Y-123984285D02*
X143594244Y-123889047D01*
X143594244Y-123889047D02*
X143594244Y-123698571D01*
X143594244Y-123698571D02*
X143546625Y-123603333D01*
X143546625Y-123603333D02*
X143499005Y-123555714D01*
X143499005Y-123555714D02*
X143403767Y-123508095D01*
X143403767Y-123508095D02*
X143165672Y-123508095D01*
X143165672Y-123508095D02*
X143070434Y-123555714D01*
X143070434Y-123555714D02*
X143022815Y-123603333D01*
X143022815Y-123603333D02*
X142975196Y-123698571D01*
X142975196Y-123698571D02*
X142975196Y-123889047D01*
X142975196Y-123889047D02*
X143022815Y-123984285D01*
X143022815Y-123984285D02*
X143070434Y-124031904D01*
X143070434Y-124031904D02*
X143165672Y-124079523D01*
X115758095Y-68829819D02*
X115758095Y-69639342D01*
X115758095Y-69639342D02*
X115805714Y-69734580D01*
X115805714Y-69734580D02*
X115853333Y-69782200D01*
X115853333Y-69782200D02*
X115948571Y-69829819D01*
X115948571Y-69829819D02*
X116139047Y-69829819D01*
X116139047Y-69829819D02*
X116234285Y-69782200D01*
X116234285Y-69782200D02*
X116281904Y-69734580D01*
X116281904Y-69734580D02*
X116329523Y-69639342D01*
X116329523Y-69639342D02*
X116329523Y-68829819D01*
X117234285Y-69163152D02*
X117234285Y-69829819D01*
X116996190Y-68782200D02*
X116758095Y-69496485D01*
X116758095Y-69496485D02*
X117377142Y-69496485D01*
X164717142Y-118574819D02*
X164383809Y-118098628D01*
X164145714Y-118574819D02*
X164145714Y-117574819D01*
X164145714Y-117574819D02*
X164526666Y-117574819D01*
X164526666Y-117574819D02*
X164621904Y-117622438D01*
X164621904Y-117622438D02*
X164669523Y-117670057D01*
X164669523Y-117670057D02*
X164717142Y-117765295D01*
X164717142Y-117765295D02*
X164717142Y-117908152D01*
X164717142Y-117908152D02*
X164669523Y-118003390D01*
X164669523Y-118003390D02*
X164621904Y-118051009D01*
X164621904Y-118051009D02*
X164526666Y-118098628D01*
X164526666Y-118098628D02*
X164145714Y-118098628D01*
X165098095Y-117670057D02*
X165145714Y-117622438D01*
X165145714Y-117622438D02*
X165240952Y-117574819D01*
X165240952Y-117574819D02*
X165479047Y-117574819D01*
X165479047Y-117574819D02*
X165574285Y-117622438D01*
X165574285Y-117622438D02*
X165621904Y-117670057D01*
X165621904Y-117670057D02*
X165669523Y-117765295D01*
X165669523Y-117765295D02*
X165669523Y-117860533D01*
X165669523Y-117860533D02*
X165621904Y-118003390D01*
X165621904Y-118003390D02*
X165050476Y-118574819D01*
X165050476Y-118574819D02*
X165669523Y-118574819D01*
X166288571Y-117574819D02*
X166383809Y-117574819D01*
X166383809Y-117574819D02*
X166479047Y-117622438D01*
X166479047Y-117622438D02*
X166526666Y-117670057D01*
X166526666Y-117670057D02*
X166574285Y-117765295D01*
X166574285Y-117765295D02*
X166621904Y-117955771D01*
X166621904Y-117955771D02*
X166621904Y-118193866D01*
X166621904Y-118193866D02*
X166574285Y-118384342D01*
X166574285Y-118384342D02*
X166526666Y-118479580D01*
X166526666Y-118479580D02*
X166479047Y-118527200D01*
X166479047Y-118527200D02*
X166383809Y-118574819D01*
X166383809Y-118574819D02*
X166288571Y-118574819D01*
X166288571Y-118574819D02*
X166193333Y-118527200D01*
X166193333Y-118527200D02*
X166145714Y-118479580D01*
X166145714Y-118479580D02*
X166098095Y-118384342D01*
X166098095Y-118384342D02*
X166050476Y-118193866D01*
X166050476Y-118193866D02*
X166050476Y-117955771D01*
X166050476Y-117955771D02*
X166098095Y-117765295D01*
X166098095Y-117765295D02*
X166145714Y-117670057D01*
X166145714Y-117670057D02*
X166193333Y-117622438D01*
X166193333Y-117622438D02*
X166288571Y-117574819D01*
X145158333Y-59934819D02*
X144825000Y-59458628D01*
X144586905Y-59934819D02*
X144586905Y-58934819D01*
X144586905Y-58934819D02*
X144967857Y-58934819D01*
X144967857Y-58934819D02*
X145063095Y-58982438D01*
X145063095Y-58982438D02*
X145110714Y-59030057D01*
X145110714Y-59030057D02*
X145158333Y-59125295D01*
X145158333Y-59125295D02*
X145158333Y-59268152D01*
X145158333Y-59268152D02*
X145110714Y-59363390D01*
X145110714Y-59363390D02*
X145063095Y-59411009D01*
X145063095Y-59411009D02*
X144967857Y-59458628D01*
X144967857Y-59458628D02*
X144586905Y-59458628D01*
X146110714Y-59934819D02*
X145539286Y-59934819D01*
X145825000Y-59934819D02*
X145825000Y-58934819D01*
X145825000Y-58934819D02*
X145729762Y-59077676D01*
X145729762Y-59077676D02*
X145634524Y-59172914D01*
X145634524Y-59172914D02*
X145539286Y-59220533D01*
X142700832Y-88747319D02*
X142367499Y-88271128D01*
X142129404Y-88747319D02*
X142129404Y-87747319D01*
X142129404Y-87747319D02*
X142510356Y-87747319D01*
X142510356Y-87747319D02*
X142605594Y-87794938D01*
X142605594Y-87794938D02*
X142653213Y-87842557D01*
X142653213Y-87842557D02*
X142700832Y-87937795D01*
X142700832Y-87937795D02*
X142700832Y-88080652D01*
X142700832Y-88080652D02*
X142653213Y-88175890D01*
X142653213Y-88175890D02*
X142605594Y-88223509D01*
X142605594Y-88223509D02*
X142510356Y-88271128D01*
X142510356Y-88271128D02*
X142129404Y-88271128D01*
X142986547Y-87747319D02*
X143319880Y-88747319D01*
X143319880Y-88747319D02*
X143653213Y-87747319D01*
X144415118Y-88080652D02*
X144415118Y-88747319D01*
X144177023Y-87699700D02*
X143938928Y-88413985D01*
X143938928Y-88413985D02*
X144557975Y-88413985D01*
X102578333Y-118934819D02*
X102245000Y-118458628D01*
X102006905Y-118934819D02*
X102006905Y-117934819D01*
X102006905Y-117934819D02*
X102387857Y-117934819D01*
X102387857Y-117934819D02*
X102483095Y-117982438D01*
X102483095Y-117982438D02*
X102530714Y-118030057D01*
X102530714Y-118030057D02*
X102578333Y-118125295D01*
X102578333Y-118125295D02*
X102578333Y-118268152D01*
X102578333Y-118268152D02*
X102530714Y-118363390D01*
X102530714Y-118363390D02*
X102483095Y-118411009D01*
X102483095Y-118411009D02*
X102387857Y-118458628D01*
X102387857Y-118458628D02*
X102006905Y-118458628D01*
X102911667Y-117934819D02*
X103578333Y-117934819D01*
X103578333Y-117934819D02*
X103149762Y-118934819D01*
X140811905Y-61189819D02*
X140811905Y-60189819D01*
X140811905Y-60189819D02*
X141050000Y-60189819D01*
X141050000Y-60189819D02*
X141192857Y-60237438D01*
X141192857Y-60237438D02*
X141288095Y-60332676D01*
X141288095Y-60332676D02*
X141335714Y-60427914D01*
X141335714Y-60427914D02*
X141383333Y-60618390D01*
X141383333Y-60618390D02*
X141383333Y-60761247D01*
X141383333Y-60761247D02*
X141335714Y-60951723D01*
X141335714Y-60951723D02*
X141288095Y-61046961D01*
X141288095Y-61046961D02*
X141192857Y-61142200D01*
X141192857Y-61142200D02*
X141050000Y-61189819D01*
X141050000Y-61189819D02*
X140811905Y-61189819D01*
X142335714Y-61189819D02*
X141764286Y-61189819D01*
X142050000Y-61189819D02*
X142050000Y-60189819D01*
X142050000Y-60189819D02*
X141954762Y-60332676D01*
X141954762Y-60332676D02*
X141859524Y-60427914D01*
X141859524Y-60427914D02*
X141764286Y-60475533D01*
X163883333Y-58279819D02*
X163550000Y-57803628D01*
X163311905Y-58279819D02*
X163311905Y-57279819D01*
X163311905Y-57279819D02*
X163692857Y-57279819D01*
X163692857Y-57279819D02*
X163788095Y-57327438D01*
X163788095Y-57327438D02*
X163835714Y-57375057D01*
X163835714Y-57375057D02*
X163883333Y-57470295D01*
X163883333Y-57470295D02*
X163883333Y-57613152D01*
X163883333Y-57613152D02*
X163835714Y-57708390D01*
X163835714Y-57708390D02*
X163788095Y-57756009D01*
X163788095Y-57756009D02*
X163692857Y-57803628D01*
X163692857Y-57803628D02*
X163311905Y-57803628D01*
X164216667Y-57279819D02*
X164835714Y-57279819D01*
X164835714Y-57279819D02*
X164502381Y-57660771D01*
X164502381Y-57660771D02*
X164645238Y-57660771D01*
X164645238Y-57660771D02*
X164740476Y-57708390D01*
X164740476Y-57708390D02*
X164788095Y-57756009D01*
X164788095Y-57756009D02*
X164835714Y-57851247D01*
X164835714Y-57851247D02*
X164835714Y-58089342D01*
X164835714Y-58089342D02*
X164788095Y-58184580D01*
X164788095Y-58184580D02*
X164740476Y-58232200D01*
X164740476Y-58232200D02*
X164645238Y-58279819D01*
X164645238Y-58279819D02*
X164359524Y-58279819D01*
X164359524Y-58279819D02*
X164264286Y-58232200D01*
X164264286Y-58232200D02*
X164216667Y-58184580D01*
X160205714Y-118654819D02*
X160205714Y-117654819D01*
X160205714Y-117654819D02*
X160443809Y-117654819D01*
X160443809Y-117654819D02*
X160586666Y-117702438D01*
X160586666Y-117702438D02*
X160681904Y-117797676D01*
X160681904Y-117797676D02*
X160729523Y-117892914D01*
X160729523Y-117892914D02*
X160777142Y-118083390D01*
X160777142Y-118083390D02*
X160777142Y-118226247D01*
X160777142Y-118226247D02*
X160729523Y-118416723D01*
X160729523Y-118416723D02*
X160681904Y-118511961D01*
X160681904Y-118511961D02*
X160586666Y-118607200D01*
X160586666Y-118607200D02*
X160443809Y-118654819D01*
X160443809Y-118654819D02*
X160205714Y-118654819D01*
X161729523Y-118654819D02*
X161158095Y-118654819D01*
X161443809Y-118654819D02*
X161443809Y-117654819D01*
X161443809Y-117654819D02*
X161348571Y-117797676D01*
X161348571Y-117797676D02*
X161253333Y-117892914D01*
X161253333Y-117892914D02*
X161158095Y-117940533D01*
X162348571Y-117654819D02*
X162443809Y-117654819D01*
X162443809Y-117654819D02*
X162539047Y-117702438D01*
X162539047Y-117702438D02*
X162586666Y-117750057D01*
X162586666Y-117750057D02*
X162634285Y-117845295D01*
X162634285Y-117845295D02*
X162681904Y-118035771D01*
X162681904Y-118035771D02*
X162681904Y-118273866D01*
X162681904Y-118273866D02*
X162634285Y-118464342D01*
X162634285Y-118464342D02*
X162586666Y-118559580D01*
X162586666Y-118559580D02*
X162539047Y-118607200D01*
X162539047Y-118607200D02*
X162443809Y-118654819D01*
X162443809Y-118654819D02*
X162348571Y-118654819D01*
X162348571Y-118654819D02*
X162253333Y-118607200D01*
X162253333Y-118607200D02*
X162205714Y-118559580D01*
X162205714Y-118559580D02*
X162158095Y-118464342D01*
X162158095Y-118464342D02*
X162110476Y-118273866D01*
X162110476Y-118273866D02*
X162110476Y-118035771D01*
X162110476Y-118035771D02*
X162158095Y-117845295D01*
X162158095Y-117845295D02*
X162205714Y-117750057D01*
X162205714Y-117750057D02*
X162253333Y-117702438D01*
X162253333Y-117702438D02*
X162348571Y-117654819D01*
X85604952Y-128807200D02*
X85747809Y-128854819D01*
X85747809Y-128854819D02*
X85985904Y-128854819D01*
X85985904Y-128854819D02*
X86081142Y-128807200D01*
X86081142Y-128807200D02*
X86128761Y-128759580D01*
X86128761Y-128759580D02*
X86176380Y-128664342D01*
X86176380Y-128664342D02*
X86176380Y-128569104D01*
X86176380Y-128569104D02*
X86128761Y-128473866D01*
X86128761Y-128473866D02*
X86081142Y-128426247D01*
X86081142Y-128426247D02*
X85985904Y-128378628D01*
X85985904Y-128378628D02*
X85795428Y-128331009D01*
X85795428Y-128331009D02*
X85700190Y-128283390D01*
X85700190Y-128283390D02*
X85652571Y-128235771D01*
X85652571Y-128235771D02*
X85604952Y-128140533D01*
X85604952Y-128140533D02*
X85604952Y-128045295D01*
X85604952Y-128045295D02*
X85652571Y-127950057D01*
X85652571Y-127950057D02*
X85700190Y-127902438D01*
X85700190Y-127902438D02*
X85795428Y-127854819D01*
X85795428Y-127854819D02*
X86033523Y-127854819D01*
X86033523Y-127854819D02*
X86176380Y-127902438D01*
X86509714Y-127854819D02*
X86747809Y-128854819D01*
X86747809Y-128854819D02*
X86938285Y-128140533D01*
X86938285Y-128140533D02*
X87128761Y-128854819D01*
X87128761Y-128854819D02*
X87366857Y-127854819D01*
X87700190Y-127950057D02*
X87747809Y-127902438D01*
X87747809Y-127902438D02*
X87843047Y-127854819D01*
X87843047Y-127854819D02*
X88081142Y-127854819D01*
X88081142Y-127854819D02*
X88176380Y-127902438D01*
X88176380Y-127902438D02*
X88223999Y-127950057D01*
X88223999Y-127950057D02*
X88271618Y-128045295D01*
X88271618Y-128045295D02*
X88271618Y-128140533D01*
X88271618Y-128140533D02*
X88223999Y-128283390D01*
X88223999Y-128283390D02*
X87652571Y-128854819D01*
X87652571Y-128854819D02*
X88271618Y-128854819D01*
X156004529Y-125477567D02*
X155528338Y-125810900D01*
X156004529Y-126048995D02*
X155004529Y-126048995D01*
X155004529Y-126048995D02*
X155004529Y-125668043D01*
X155004529Y-125668043D02*
X155052148Y-125572805D01*
X155052148Y-125572805D02*
X155099767Y-125525186D01*
X155099767Y-125525186D02*
X155195005Y-125477567D01*
X155195005Y-125477567D02*
X155337862Y-125477567D01*
X155337862Y-125477567D02*
X155433100Y-125525186D01*
X155433100Y-125525186D02*
X155480719Y-125572805D01*
X155480719Y-125572805D02*
X155528338Y-125668043D01*
X155528338Y-125668043D02*
X155528338Y-126048995D01*
X156004529Y-124525186D02*
X156004529Y-125096614D01*
X156004529Y-124810900D02*
X155004529Y-124810900D01*
X155004529Y-124810900D02*
X155147386Y-124906138D01*
X155147386Y-124906138D02*
X155242624Y-125001376D01*
X155242624Y-125001376D02*
X155290243Y-125096614D01*
X155004529Y-124191852D02*
X155004529Y-123525186D01*
X155004529Y-123525186D02*
X156004529Y-123953757D01*
X160066667Y-128807200D02*
X160209524Y-128854819D01*
X160209524Y-128854819D02*
X160447619Y-128854819D01*
X160447619Y-128854819D02*
X160542857Y-128807200D01*
X160542857Y-128807200D02*
X160590476Y-128759580D01*
X160590476Y-128759580D02*
X160638095Y-128664342D01*
X160638095Y-128664342D02*
X160638095Y-128569104D01*
X160638095Y-128569104D02*
X160590476Y-128473866D01*
X160590476Y-128473866D02*
X160542857Y-128426247D01*
X160542857Y-128426247D02*
X160447619Y-128378628D01*
X160447619Y-128378628D02*
X160257143Y-128331009D01*
X160257143Y-128331009D02*
X160161905Y-128283390D01*
X160161905Y-128283390D02*
X160114286Y-128235771D01*
X160114286Y-128235771D02*
X160066667Y-128140533D01*
X160066667Y-128140533D02*
X160066667Y-128045295D01*
X160066667Y-128045295D02*
X160114286Y-127950057D01*
X160114286Y-127950057D02*
X160161905Y-127902438D01*
X160161905Y-127902438D02*
X160257143Y-127854819D01*
X160257143Y-127854819D02*
X160495238Y-127854819D01*
X160495238Y-127854819D02*
X160638095Y-127902438D01*
X160971429Y-127854819D02*
X161209524Y-128854819D01*
X161209524Y-128854819D02*
X161400000Y-128140533D01*
X161400000Y-128140533D02*
X161590476Y-128854819D01*
X161590476Y-128854819D02*
X161828572Y-127854819D01*
X162352381Y-128283390D02*
X162257143Y-128235771D01*
X162257143Y-128235771D02*
X162209524Y-128188152D01*
X162209524Y-128188152D02*
X162161905Y-128092914D01*
X162161905Y-128092914D02*
X162161905Y-128045295D01*
X162161905Y-128045295D02*
X162209524Y-127950057D01*
X162209524Y-127950057D02*
X162257143Y-127902438D01*
X162257143Y-127902438D02*
X162352381Y-127854819D01*
X162352381Y-127854819D02*
X162542857Y-127854819D01*
X162542857Y-127854819D02*
X162638095Y-127902438D01*
X162638095Y-127902438D02*
X162685714Y-127950057D01*
X162685714Y-127950057D02*
X162733333Y-128045295D01*
X162733333Y-128045295D02*
X162733333Y-128092914D01*
X162733333Y-128092914D02*
X162685714Y-128188152D01*
X162685714Y-128188152D02*
X162638095Y-128235771D01*
X162638095Y-128235771D02*
X162542857Y-128283390D01*
X162542857Y-128283390D02*
X162352381Y-128283390D01*
X162352381Y-128283390D02*
X162257143Y-128331009D01*
X162257143Y-128331009D02*
X162209524Y-128378628D01*
X162209524Y-128378628D02*
X162161905Y-128473866D01*
X162161905Y-128473866D02*
X162161905Y-128664342D01*
X162161905Y-128664342D02*
X162209524Y-128759580D01*
X162209524Y-128759580D02*
X162257143Y-128807200D01*
X162257143Y-128807200D02*
X162352381Y-128854819D01*
X162352381Y-128854819D02*
X162542857Y-128854819D01*
X162542857Y-128854819D02*
X162638095Y-128807200D01*
X162638095Y-128807200D02*
X162685714Y-128759580D01*
X162685714Y-128759580D02*
X162733333Y-128664342D01*
X162733333Y-128664342D02*
X162733333Y-128473866D01*
X162733333Y-128473866D02*
X162685714Y-128378628D01*
X162685714Y-128378628D02*
X162638095Y-128331009D01*
X162638095Y-128331009D02*
X162542857Y-128283390D01*
X82956667Y-101067200D02*
X83099524Y-101114819D01*
X83099524Y-101114819D02*
X83337619Y-101114819D01*
X83337619Y-101114819D02*
X83432857Y-101067200D01*
X83432857Y-101067200D02*
X83480476Y-101019580D01*
X83480476Y-101019580D02*
X83528095Y-100924342D01*
X83528095Y-100924342D02*
X83528095Y-100829104D01*
X83528095Y-100829104D02*
X83480476Y-100733866D01*
X83480476Y-100733866D02*
X83432857Y-100686247D01*
X83432857Y-100686247D02*
X83337619Y-100638628D01*
X83337619Y-100638628D02*
X83147143Y-100591009D01*
X83147143Y-100591009D02*
X83051905Y-100543390D01*
X83051905Y-100543390D02*
X83004286Y-100495771D01*
X83004286Y-100495771D02*
X82956667Y-100400533D01*
X82956667Y-100400533D02*
X82956667Y-100305295D01*
X82956667Y-100305295D02*
X83004286Y-100210057D01*
X83004286Y-100210057D02*
X83051905Y-100162438D01*
X83051905Y-100162438D02*
X83147143Y-100114819D01*
X83147143Y-100114819D02*
X83385238Y-100114819D01*
X83385238Y-100114819D02*
X83528095Y-100162438D01*
X83861429Y-100114819D02*
X84099524Y-101114819D01*
X84099524Y-101114819D02*
X84290000Y-100400533D01*
X84290000Y-100400533D02*
X84480476Y-101114819D01*
X84480476Y-101114819D02*
X84718572Y-100114819D01*
X85147143Y-101114819D02*
X85337619Y-101114819D01*
X85337619Y-101114819D02*
X85432857Y-101067200D01*
X85432857Y-101067200D02*
X85480476Y-101019580D01*
X85480476Y-101019580D02*
X85575714Y-100876723D01*
X85575714Y-100876723D02*
X85623333Y-100686247D01*
X85623333Y-100686247D02*
X85623333Y-100305295D01*
X85623333Y-100305295D02*
X85575714Y-100210057D01*
X85575714Y-100210057D02*
X85528095Y-100162438D01*
X85528095Y-100162438D02*
X85432857Y-100114819D01*
X85432857Y-100114819D02*
X85242381Y-100114819D01*
X85242381Y-100114819D02*
X85147143Y-100162438D01*
X85147143Y-100162438D02*
X85099524Y-100210057D01*
X85099524Y-100210057D02*
X85051905Y-100305295D01*
X85051905Y-100305295D02*
X85051905Y-100543390D01*
X85051905Y-100543390D02*
X85099524Y-100638628D01*
X85099524Y-100638628D02*
X85147143Y-100686247D01*
X85147143Y-100686247D02*
X85242381Y-100733866D01*
X85242381Y-100733866D02*
X85432857Y-100733866D01*
X85432857Y-100733866D02*
X85528095Y-100686247D01*
X85528095Y-100686247D02*
X85575714Y-100638628D01*
X85575714Y-100638628D02*
X85623333Y-100543390D01*
X142650832Y-105909819D02*
X142317499Y-105433628D01*
X142079404Y-105909819D02*
X142079404Y-104909819D01*
X142079404Y-104909819D02*
X142460356Y-104909819D01*
X142460356Y-104909819D02*
X142555594Y-104957438D01*
X142555594Y-104957438D02*
X142603213Y-105005057D01*
X142603213Y-105005057D02*
X142650832Y-105100295D01*
X142650832Y-105100295D02*
X142650832Y-105243152D01*
X142650832Y-105243152D02*
X142603213Y-105338390D01*
X142603213Y-105338390D02*
X142555594Y-105386009D01*
X142555594Y-105386009D02*
X142460356Y-105433628D01*
X142460356Y-105433628D02*
X142079404Y-105433628D01*
X142936547Y-104909819D02*
X143269880Y-105909819D01*
X143269880Y-105909819D02*
X143603213Y-104909819D01*
X143841309Y-104909819D02*
X144507975Y-104909819D01*
X144507975Y-104909819D02*
X144079404Y-105909819D01*
X159706666Y-88842319D02*
X159373333Y-88366128D01*
X159135238Y-88842319D02*
X159135238Y-87842319D01*
X159135238Y-87842319D02*
X159516190Y-87842319D01*
X159516190Y-87842319D02*
X159611428Y-87889938D01*
X159611428Y-87889938D02*
X159659047Y-87937557D01*
X159659047Y-87937557D02*
X159706666Y-88032795D01*
X159706666Y-88032795D02*
X159706666Y-88175652D01*
X159706666Y-88175652D02*
X159659047Y-88270890D01*
X159659047Y-88270890D02*
X159611428Y-88318509D01*
X159611428Y-88318509D02*
X159516190Y-88366128D01*
X159516190Y-88366128D02*
X159135238Y-88366128D01*
X159992381Y-87842319D02*
X160325714Y-88842319D01*
X160325714Y-88842319D02*
X160659047Y-87842319D01*
X161468571Y-87842319D02*
X160992381Y-87842319D01*
X160992381Y-87842319D02*
X160944762Y-88318509D01*
X160944762Y-88318509D02*
X160992381Y-88270890D01*
X160992381Y-88270890D02*
X161087619Y-88223271D01*
X161087619Y-88223271D02*
X161325714Y-88223271D01*
X161325714Y-88223271D02*
X161420952Y-88270890D01*
X161420952Y-88270890D02*
X161468571Y-88318509D01*
X161468571Y-88318509D02*
X161516190Y-88413747D01*
X161516190Y-88413747D02*
X161516190Y-88651842D01*
X161516190Y-88651842D02*
X161468571Y-88747080D01*
X161468571Y-88747080D02*
X161420952Y-88794700D01*
X161420952Y-88794700D02*
X161325714Y-88842319D01*
X161325714Y-88842319D02*
X161087619Y-88842319D01*
X161087619Y-88842319D02*
X160992381Y-88794700D01*
X160992381Y-88794700D02*
X160944762Y-88747080D01*
X139352142Y-118539819D02*
X139018809Y-118063628D01*
X138780714Y-118539819D02*
X138780714Y-117539819D01*
X138780714Y-117539819D02*
X139161666Y-117539819D01*
X139161666Y-117539819D02*
X139256904Y-117587438D01*
X139256904Y-117587438D02*
X139304523Y-117635057D01*
X139304523Y-117635057D02*
X139352142Y-117730295D01*
X139352142Y-117730295D02*
X139352142Y-117873152D01*
X139352142Y-117873152D02*
X139304523Y-117968390D01*
X139304523Y-117968390D02*
X139256904Y-118016009D01*
X139256904Y-118016009D02*
X139161666Y-118063628D01*
X139161666Y-118063628D02*
X138780714Y-118063628D01*
X140304523Y-118539819D02*
X139733095Y-118539819D01*
X140018809Y-118539819D02*
X140018809Y-117539819D01*
X140018809Y-117539819D02*
X139923571Y-117682676D01*
X139923571Y-117682676D02*
X139828333Y-117777914D01*
X139828333Y-117777914D02*
X139733095Y-117825533D01*
X140923571Y-117539819D02*
X141018809Y-117539819D01*
X141018809Y-117539819D02*
X141114047Y-117587438D01*
X141114047Y-117587438D02*
X141161666Y-117635057D01*
X141161666Y-117635057D02*
X141209285Y-117730295D01*
X141209285Y-117730295D02*
X141256904Y-117920771D01*
X141256904Y-117920771D02*
X141256904Y-118158866D01*
X141256904Y-118158866D02*
X141209285Y-118349342D01*
X141209285Y-118349342D02*
X141161666Y-118444580D01*
X141161666Y-118444580D02*
X141114047Y-118492200D01*
X141114047Y-118492200D02*
X141018809Y-118539819D01*
X141018809Y-118539819D02*
X140923571Y-118539819D01*
X140923571Y-118539819D02*
X140828333Y-118492200D01*
X140828333Y-118492200D02*
X140780714Y-118444580D01*
X140780714Y-118444580D02*
X140733095Y-118349342D01*
X140733095Y-118349342D02*
X140685476Y-118158866D01*
X140685476Y-118158866D02*
X140685476Y-117920771D01*
X140685476Y-117920771D02*
X140733095Y-117730295D01*
X140733095Y-117730295D02*
X140780714Y-117635057D01*
X140780714Y-117635057D02*
X140828333Y-117587438D01*
X140828333Y-117587438D02*
X140923571Y-117539819D01*
%TO.C,J2*%
X115188595Y-45682893D02*
X117188595Y-45682893D01*
X115188595Y-46182893D02*
X115188595Y-45682893D01*
X115188595Y-56682893D02*
X115188595Y-46182893D01*
X117188595Y-45682893D02*
X125188595Y-45682893D01*
X127188595Y-45682893D02*
X125188595Y-45682893D01*
X127188595Y-46182893D02*
X127188595Y-45682893D01*
X127188595Y-46182893D02*
X127188595Y-56682893D01*
X127188595Y-56682893D02*
X115188595Y-56682893D01*
X124188595Y-45682893D02*
X118188595Y-45682893D01*
X118188595Y-42682893D01*
X124188595Y-42682893D01*
X124188595Y-45682893D01*
G36*
X124188595Y-45682893D02*
G01*
X118188595Y-45682893D01*
X118188595Y-42682893D01*
X124188595Y-42682893D01*
X124188595Y-45682893D01*
G37*
D11*
%TO.C,RV6*%
X121500237Y-99680000D02*
X121500237Y-104400000D01*
X121500237Y-99680000D02*
X122990237Y-99680000D01*
X121500237Y-108210000D02*
X121500237Y-111270000D01*
X121500237Y-111270000D02*
X131240237Y-111270000D01*
X124710237Y-99680000D02*
X125540237Y-99680000D01*
X127160237Y-99680000D02*
X127690237Y-99680000D01*
X130060237Y-99680000D02*
X131240237Y-99680000D01*
X131240237Y-108210000D02*
X131240237Y-111270000D01*
X131250237Y-99680000D02*
X131250237Y-104400000D01*
%TO.C,RV2*%
X155500000Y-65205000D02*
X155500000Y-69925000D01*
X155500000Y-65205000D02*
X156990000Y-65205000D01*
X155500000Y-73735000D02*
X155500000Y-76795000D01*
X155500000Y-76795000D02*
X165240000Y-76795000D01*
X158710000Y-65205000D02*
X159540000Y-65205000D01*
X161160000Y-65205000D02*
X161690000Y-65205000D01*
X164060000Y-65205000D02*
X165240000Y-65205000D01*
X165240000Y-73735000D02*
X165240000Y-76795000D01*
X165250000Y-65205000D02*
X165250000Y-69925000D01*
D10*
%TO.C,J1*%
X98872893Y-45682893D02*
X100872893Y-45682893D01*
X98872893Y-46182893D02*
X98872893Y-45682893D01*
X98872893Y-56682893D02*
X98872893Y-46182893D01*
X100872893Y-45682893D02*
X108872893Y-45682893D01*
X110872893Y-45682893D02*
X108872893Y-45682893D01*
X110872893Y-46182893D02*
X110872893Y-45682893D01*
X110872893Y-46182893D02*
X110872893Y-56682893D01*
X110872893Y-56682893D02*
X98872893Y-56682893D01*
X107872893Y-45682893D02*
X101872893Y-45682893D01*
X101872893Y-42682893D01*
X107872893Y-42682893D01*
X107872893Y-45682893D01*
G36*
X107872893Y-45682893D02*
G01*
X101872893Y-45682893D01*
X101872893Y-42682893D01*
X107872893Y-42682893D01*
X107872893Y-45682893D01*
G37*
D11*
%TO.C,U1*%
X73010000Y-66690000D02*
X71680000Y-66690000D01*
X73010000Y-68020000D02*
X73010000Y-66690000D01*
X73030000Y-69120000D02*
X73030000Y-84420000D01*
X77280000Y-57305000D02*
X92580000Y-57305000D01*
X70130000Y-57305000D02*
X114630000Y-57305000D01*
X114630000Y-94305000D01*
X70130000Y-94305000D01*
X70130000Y-57305000D01*
X74980000Y-57805000D02*
X109980000Y-57805000D01*
X109980000Y-93805000D01*
X74980000Y-93805000D01*
X74980000Y-57805000D01*
X74130000Y-59805000D02*
G75*
G02*
X71130000Y-59805000I-1500000J0D01*
G01*
X71130000Y-59805000D02*
G75*
G02*
X74130000Y-59805000I1500000J0D01*
G01*
X73630000Y-59805000D02*
G75*
G02*
X71630000Y-59805000I-1000000J0D01*
G01*
X71630000Y-59805000D02*
G75*
G02*
X73630000Y-59805000I1000000J0D01*
G01*
X73630000Y-91805000D02*
G75*
G02*
X71630000Y-91805000I-1000000J0D01*
G01*
X71630000Y-91805000D02*
G75*
G02*
X73630000Y-91805000I1000000J0D01*
G01*
X74130000Y-91805000D02*
G75*
G02*
X71130000Y-91805000I-1500000J0D01*
G01*
X71130000Y-91805000D02*
G75*
G02*
X74130000Y-91805000I1500000J0D01*
G01*
X113130000Y-59805000D02*
G75*
G02*
X111130000Y-59805000I-1000000J0D01*
G01*
X111130000Y-59805000D02*
G75*
G02*
X113130000Y-59805000I1000000J0D01*
G01*
X113630000Y-59805000D02*
G75*
G02*
X110630000Y-59805000I-1500000J0D01*
G01*
X110630000Y-59805000D02*
G75*
G02*
X113630000Y-59805000I1500000J0D01*
G01*
X113130000Y-91805000D02*
G75*
G02*
X111130000Y-91805000I-1000000J0D01*
G01*
X111130000Y-91805000D02*
G75*
G02*
X113130000Y-91805000I1000000J0D01*
G01*
X113630000Y-91805000D02*
G75*
G02*
X110630000Y-91805000I-1500000J0D01*
G01*
X110630000Y-91805000D02*
G75*
G02*
X113630000Y-91805000I1500000J0D01*
G01*
%TO.C,R15*%
X128576640Y-124532742D02*
X128576640Y-125007258D01*
X129621640Y-124532742D02*
X129621640Y-125007258D01*
%TO.C,R2*%
X150542742Y-57267500D02*
X151017258Y-57267500D01*
X150542742Y-58312500D02*
X151017258Y-58312500D01*
%TO.C,D3*%
X73023000Y-119290000D02*
X73023000Y-120760000D01*
X73023000Y-120760000D02*
X75308000Y-120760000D01*
X75308000Y-119290000D02*
X73023000Y-119290000D01*
%TO.C,SW5*%
X121419140Y-123400000D02*
X121419140Y-125400000D01*
X122419140Y-122100000D02*
X122869140Y-121650000D01*
X122419140Y-126700000D02*
X122869140Y-127150000D01*
X122869140Y-121650000D02*
X125469140Y-121650000D01*
X122869140Y-127150000D02*
X125469140Y-127150000D01*
X125919140Y-122100000D02*
X125469140Y-121650000D01*
X125919140Y-126700000D02*
X125469140Y-127150000D01*
X126919140Y-123400000D02*
X126919140Y-125400000D01*
%TO.C,R5*%
X78210258Y-119502500D02*
X77735742Y-119502500D01*
X78210258Y-120547500D02*
X77735742Y-120547500D01*
%TO.C,R14*%
X116166355Y-124532742D02*
X116166355Y-125007258D01*
X117211355Y-124532742D02*
X117211355Y-125007258D01*
D12*
%TO.C,G\u002A\u002A\u002A*%
G36*
X84050786Y-52742775D02*
G01*
X84049370Y-52760454D01*
X84047733Y-52784248D01*
X84046092Y-52810868D01*
X84044820Y-52833897D01*
X84041753Y-52893252D01*
X83980045Y-52896188D01*
X83952793Y-52897436D01*
X83919655Y-52898877D01*
X83884152Y-52900363D01*
X83849805Y-52901745D01*
X83837154Y-52902237D01*
X83755970Y-52905349D01*
X83755970Y-53267044D01*
X83755970Y-53628739D01*
X83650078Y-53628739D01*
X83544186Y-53628739D01*
X83544186Y-53266353D01*
X83544186Y-52903966D01*
X83395937Y-52903966D01*
X83247688Y-52903966D01*
X83247688Y-52807487D01*
X83247688Y-52711007D01*
X83650686Y-52711007D01*
X84053685Y-52711007D01*
X84050786Y-52742775D01*
G37*
G36*
X86011932Y-52822782D02*
G01*
X86012583Y-52849963D01*
X86013309Y-52885118D01*
X86014086Y-52926810D01*
X86014890Y-52973602D01*
X86015698Y-53024056D01*
X86016486Y-53076734D01*
X86017230Y-53130199D01*
X86017907Y-53183013D01*
X86017983Y-53189215D01*
X86021053Y-53443872D01*
X86148629Y-53446867D01*
X86191202Y-53447864D01*
X86239859Y-53448999D01*
X86291271Y-53450195D01*
X86342111Y-53451374D01*
X86389051Y-53452460D01*
X86409157Y-53452923D01*
X86542111Y-53455984D01*
X86542111Y-53542362D01*
X86542111Y-53628739D01*
X86170312Y-53628739D01*
X85798513Y-53628739D01*
X85798513Y-53169873D01*
X85798513Y-52711007D01*
X85903733Y-52711007D01*
X86008953Y-52711007D01*
X86011932Y-52822782D01*
G37*
G36*
X80795696Y-53169873D02*
G01*
X80795696Y-53628739D01*
X80690226Y-53628739D01*
X80584757Y-53628739D01*
X80580931Y-53587559D01*
X80580199Y-53574698D01*
X80579549Y-53553358D01*
X80578980Y-53524469D01*
X80578492Y-53488963D01*
X80578084Y-53447773D01*
X80577757Y-53401831D01*
X80577511Y-53352068D01*
X80577345Y-53299417D01*
X80577259Y-53244809D01*
X80577253Y-53189177D01*
X80577327Y-53133453D01*
X80577481Y-53078567D01*
X80577714Y-53025453D01*
X80578027Y-52975043D01*
X80578419Y-52928268D01*
X80578890Y-52886060D01*
X80579440Y-52849351D01*
X80580070Y-52819074D01*
X80580778Y-52796160D01*
X80581054Y-52789838D01*
X80584914Y-52711007D01*
X80690305Y-52711007D01*
X80795696Y-52711007D01*
X80795696Y-53169873D01*
G37*
G36*
X85390239Y-52707932D02*
G01*
X85404295Y-52709153D01*
X85425121Y-52710555D01*
X85450082Y-52711978D01*
X85476543Y-52713261D01*
X85480836Y-52713447D01*
X85505837Y-52714634D01*
X85528358Y-52715934D01*
X85546273Y-52717207D01*
X85557455Y-52718315D01*
X85558988Y-52718557D01*
X85571252Y-52720869D01*
X85574337Y-53079501D01*
X85574884Y-53139696D01*
X85575481Y-53199326D01*
X85576115Y-53257389D01*
X85576773Y-53312884D01*
X85577441Y-53364812D01*
X85578105Y-53412170D01*
X85578753Y-53453957D01*
X85579371Y-53489174D01*
X85579947Y-53516819D01*
X85580386Y-53533436D01*
X85583349Y-53628739D01*
X85474440Y-53628739D01*
X85365531Y-53628739D01*
X85365531Y-53166978D01*
X85365531Y-52705216D01*
X85390239Y-52707932D01*
G37*
G36*
X83463046Y-50282586D02*
G01*
X83488474Y-50291180D01*
X83516369Y-50308347D01*
X83541699Y-50330707D01*
X83561580Y-50355562D01*
X83566705Y-50364327D01*
X83573466Y-50378771D01*
X83577299Y-50392279D01*
X83578948Y-50408527D01*
X83579193Y-50426089D01*
X83576588Y-50459393D01*
X83568450Y-50487221D01*
X83553791Y-50512339D01*
X83544112Y-50524287D01*
X83520820Y-50544340D01*
X83492318Y-50558814D01*
X83461127Y-50567000D01*
X83429766Y-50568189D01*
X83405350Y-50563333D01*
X83379376Y-50553047D01*
X83359155Y-50540590D01*
X83341027Y-50523671D01*
X83339754Y-50522273D01*
X83318078Y-50492314D01*
X83305599Y-50460961D01*
X83302297Y-50428736D01*
X83308152Y-50396162D01*
X83323146Y-50363761D01*
X83346800Y-50332553D01*
X83375092Y-50306593D01*
X83404179Y-50289529D01*
X83433637Y-50281486D01*
X83463046Y-50282586D01*
G37*
G36*
X81780782Y-50283517D02*
G01*
X81819910Y-50290262D01*
X81855386Y-50304795D01*
X81885994Y-50326376D01*
X81910520Y-50354260D01*
X81918837Y-50367899D01*
X81925430Y-50387584D01*
X81927995Y-50412398D01*
X81926615Y-50439005D01*
X81921376Y-50464067D01*
X81916046Y-50477736D01*
X81896973Y-50507403D01*
X81872227Y-50532026D01*
X81843396Y-50550804D01*
X81812069Y-50562938D01*
X81779833Y-50567624D01*
X81748278Y-50564063D01*
X81746084Y-50563470D01*
X81718581Y-50551395D01*
X81692543Y-50532118D01*
X81670216Y-50507817D01*
X81653842Y-50480670D01*
X81649554Y-50469780D01*
X81644234Y-50442729D01*
X81644358Y-50413173D01*
X81649676Y-50385110D01*
X81655844Y-50369475D01*
X81670342Y-50346704D01*
X81689696Y-50323858D01*
X81710906Y-50304182D01*
X81725924Y-50293636D01*
X81738273Y-50287097D01*
X81749313Y-50283686D01*
X81762650Y-50282739D01*
X81780782Y-50283517D01*
G37*
G36*
X82364950Y-52792191D02*
G01*
X82366133Y-52824149D01*
X82367504Y-52862128D01*
X82368943Y-52902744D01*
X82370330Y-52942610D01*
X82371339Y-52972208D01*
X82374666Y-53071040D01*
X82589532Y-53072264D01*
X82804398Y-53073488D01*
X82807019Y-53051086D01*
X82807830Y-53040329D01*
X82808748Y-53021696D01*
X82809720Y-52996720D01*
X82810690Y-52966937D01*
X82811603Y-52933880D01*
X82812301Y-52903966D01*
X82813136Y-52868496D01*
X82814088Y-52834223D01*
X82815099Y-52802860D01*
X82816110Y-52776119D01*
X82817062Y-52755713D01*
X82817740Y-52745128D01*
X82820519Y-52711007D01*
X82925858Y-52711007D01*
X83031197Y-52711007D01*
X83031197Y-53169873D01*
X83031197Y-53628739D01*
X82925858Y-53628739D01*
X82820519Y-53628739D01*
X82817740Y-53594618D01*
X82816876Y-53580486D01*
X82815907Y-53558655D01*
X82814892Y-53530837D01*
X82813888Y-53498745D01*
X82812955Y-53464091D01*
X82812301Y-53435780D01*
X82811481Y-53401138D01*
X82810558Y-53368450D01*
X82809586Y-53339251D01*
X82808620Y-53315075D01*
X82807715Y-53297456D01*
X82807026Y-53288708D01*
X82804411Y-53266353D01*
X82589062Y-53266353D01*
X82373712Y-53266353D01*
X82370599Y-53380481D01*
X82369542Y-53417333D01*
X82368352Y-53455635D01*
X82367115Y-53492882D01*
X82365914Y-53526570D01*
X82364833Y-53554194D01*
X82364511Y-53561674D01*
X82361538Y-53628739D01*
X82256327Y-53628739D01*
X82151116Y-53628739D01*
X82151116Y-53169873D01*
X82151116Y-52711007D01*
X82256502Y-52711007D01*
X82361888Y-52711007D01*
X82364950Y-52792191D01*
G37*
G36*
X86969817Y-52708884D02*
G01*
X86969867Y-52708920D01*
X86970242Y-52713821D01*
X86970725Y-52727413D01*
X86971302Y-52748975D01*
X86971959Y-52777785D01*
X86972682Y-52813123D01*
X86973458Y-52854268D01*
X86974272Y-52900497D01*
X86975111Y-52951091D01*
X86975959Y-53005329D01*
X86976804Y-53062488D01*
X86976987Y-53075294D01*
X86977834Y-53133005D01*
X86978697Y-53187959D01*
X86979563Y-53239432D01*
X86980415Y-53286705D01*
X86981238Y-53329054D01*
X86982019Y-53365757D01*
X86982743Y-53396093D01*
X86983394Y-53419340D01*
X86983958Y-53434776D01*
X86984419Y-53441680D01*
X86984505Y-53441981D01*
X86989421Y-53442449D01*
X87002687Y-53443089D01*
X87023239Y-53443872D01*
X87050017Y-53444772D01*
X87081959Y-53445760D01*
X87118002Y-53446809D01*
X87157086Y-53447891D01*
X87198148Y-53448980D01*
X87240127Y-53450048D01*
X87281962Y-53451067D01*
X87322589Y-53452009D01*
X87360949Y-53452848D01*
X87395978Y-53453555D01*
X87426615Y-53454104D01*
X87451799Y-53454467D01*
X87470468Y-53454616D01*
X87472785Y-53454618D01*
X87502200Y-53454605D01*
X87502200Y-53541672D01*
X87502200Y-53628739D01*
X87130401Y-53628739D01*
X86758601Y-53628739D01*
X86758605Y-53559321D01*
X86758673Y-53535446D01*
X86758866Y-53504864D01*
X86759173Y-53468381D01*
X86759582Y-53426802D01*
X86760081Y-53380932D01*
X86760659Y-53331577D01*
X86761303Y-53279542D01*
X86762003Y-53225633D01*
X86762746Y-53170656D01*
X86763522Y-53115415D01*
X86764317Y-53060717D01*
X86765120Y-53007367D01*
X86765920Y-52956170D01*
X86766705Y-52907933D01*
X86767463Y-52863459D01*
X86768183Y-52823555D01*
X86768853Y-52789027D01*
X86769460Y-52760680D01*
X86769994Y-52739319D01*
X86770443Y-52725750D01*
X86770794Y-52720778D01*
X86770797Y-52720774D01*
X86775974Y-52719803D01*
X86788826Y-52718508D01*
X86807655Y-52716988D01*
X86830764Y-52715344D01*
X86856456Y-52713679D01*
X86883034Y-52712093D01*
X86908802Y-52710687D01*
X86932061Y-52709562D01*
X86951114Y-52708819D01*
X86964265Y-52708559D01*
X86969817Y-52708884D01*
G37*
G36*
X84481865Y-52895730D02*
G01*
X84483097Y-53080453D01*
X84697730Y-53081677D01*
X84912364Y-53082900D01*
X84915356Y-53011082D01*
X84916416Y-52983951D01*
X84917629Y-52950152D01*
X84918903Y-52912424D01*
X84920146Y-52873508D01*
X84921265Y-52836144D01*
X84921445Y-52829842D01*
X84924542Y-52720420D01*
X85032085Y-52720420D01*
X85139628Y-52720420D01*
X85139603Y-52766306D01*
X85139660Y-52777989D01*
X85139830Y-52798299D01*
X85140106Y-52826451D01*
X85140478Y-52861661D01*
X85140938Y-52903145D01*
X85141476Y-52950118D01*
X85142084Y-53001795D01*
X85142752Y-53057391D01*
X85143472Y-53116122D01*
X85144235Y-53177204D01*
X85144751Y-53217965D01*
X85145510Y-53278963D01*
X85146198Y-53337265D01*
X85146810Y-53392184D01*
X85147340Y-53443032D01*
X85147782Y-53489123D01*
X85148130Y-53529771D01*
X85148377Y-53564289D01*
X85148519Y-53591989D01*
X85148548Y-53612186D01*
X85148460Y-53624192D01*
X85148306Y-53627427D01*
X85143353Y-53628234D01*
X85130330Y-53628500D01*
X85110560Y-53628250D01*
X85085370Y-53627510D01*
X85056083Y-53626304D01*
X85036600Y-53625341D01*
X85005481Y-53623658D01*
X84977681Y-53622057D01*
X84954517Y-53620623D01*
X84937307Y-53619439D01*
X84927368Y-53618589D01*
X84925435Y-53618269D01*
X84924935Y-53613429D01*
X84924024Y-53600323D01*
X84922770Y-53580084D01*
X84921238Y-53553845D01*
X84919497Y-53522739D01*
X84917614Y-53487901D01*
X84916602Y-53468724D01*
X84914580Y-53430882D01*
X84912577Y-53394840D01*
X84910675Y-53362005D01*
X84908961Y-53333790D01*
X84907517Y-53311603D01*
X84906428Y-53296855D01*
X84906117Y-53293414D01*
X84903388Y-53266353D01*
X84697472Y-53266353D01*
X84491556Y-53266353D01*
X84488442Y-53380481D01*
X84487385Y-53417333D01*
X84486196Y-53455635D01*
X84484958Y-53492882D01*
X84483757Y-53526570D01*
X84482676Y-53554194D01*
X84482355Y-53561674D01*
X84479381Y-53628739D01*
X84374170Y-53628739D01*
X84268959Y-53628739D01*
X84268959Y-53169873D01*
X84268959Y-52711007D01*
X84374797Y-52711007D01*
X84480634Y-52711007D01*
X84481865Y-52895730D01*
G37*
G36*
X79749496Y-52710015D02*
G01*
X79751690Y-52710273D01*
X79754554Y-52714719D01*
X79761852Y-52726615D01*
X79773204Y-52745327D01*
X79788226Y-52770219D01*
X79806536Y-52800654D01*
X79827754Y-52835996D01*
X79851496Y-52875611D01*
X79877380Y-52918862D01*
X79905025Y-52965113D01*
X79934048Y-53013728D01*
X79934547Y-53014565D01*
X79963559Y-53063175D01*
X79991168Y-53109407D01*
X80016997Y-53152627D01*
X80040666Y-53192204D01*
X80061796Y-53227504D01*
X80080009Y-53257895D01*
X80094926Y-53282744D01*
X80106168Y-53301420D01*
X80113357Y-53313290D01*
X80116112Y-53317721D01*
X80116120Y-53317730D01*
X80119644Y-53317730D01*
X80120079Y-53312799D01*
X80120744Y-53299293D01*
X80121611Y-53278048D01*
X80122651Y-53249899D01*
X80123834Y-53215679D01*
X80125132Y-53176225D01*
X80126516Y-53132370D01*
X80127957Y-53084950D01*
X80129195Y-53042802D01*
X80130690Y-52992180D01*
X80132180Y-52943752D01*
X80133634Y-52898448D01*
X80135018Y-52857198D01*
X80136299Y-52820931D01*
X80137445Y-52790576D01*
X80138424Y-52767064D01*
X80139203Y-52751324D01*
X80139641Y-52745128D01*
X80142195Y-52720420D01*
X80247092Y-52720420D01*
X80351989Y-52720420D01*
X80354965Y-52829842D01*
X80355511Y-52853197D01*
X80356112Y-52884883D01*
X80356756Y-52923817D01*
X80357427Y-52968917D01*
X80358111Y-53019102D01*
X80358794Y-53073287D01*
X80359461Y-53130393D01*
X80360098Y-53189336D01*
X80360691Y-53249035D01*
X80361013Y-53284071D01*
X80364084Y-53628879D01*
X80221372Y-53627633D01*
X80078660Y-53626386D01*
X79894775Y-53321004D01*
X79710890Y-53015623D01*
X79707922Y-53045685D01*
X79707293Y-53056166D01*
X79706593Y-53075050D01*
X79705845Y-53101326D01*
X79705070Y-53133985D01*
X79704290Y-53172015D01*
X79703526Y-53214407D01*
X79702800Y-53260151D01*
X79702134Y-53308237D01*
X79701922Y-53325182D01*
X79701288Y-53373719D01*
X79700596Y-53420165D01*
X79699867Y-53463524D01*
X79699121Y-53502800D01*
X79698380Y-53537000D01*
X79697663Y-53565127D01*
X79696992Y-53586186D01*
X79696387Y-53599184D01*
X79696192Y-53601678D01*
X79693493Y-53628739D01*
X79587391Y-53628739D01*
X79481288Y-53628739D01*
X79484298Y-53429897D01*
X79484985Y-53383371D01*
X79485750Y-53329456D01*
X79486568Y-53270175D01*
X79487411Y-53207553D01*
X79488253Y-53143613D01*
X79489065Y-53080377D01*
X79489822Y-53019870D01*
X79490358Y-52975737D01*
X79490940Y-52927685D01*
X79491505Y-52882566D01*
X79492038Y-52841239D01*
X79492530Y-52804560D01*
X79492967Y-52773387D01*
X79493338Y-52748577D01*
X79493631Y-52730987D01*
X79493834Y-52721475D01*
X79493903Y-52719996D01*
X79499034Y-52719285D01*
X79512060Y-52718365D01*
X79531493Y-52717292D01*
X79555848Y-52716123D01*
X79583637Y-52714913D01*
X79613376Y-52713718D01*
X79643577Y-52712595D01*
X79672754Y-52711600D01*
X79699421Y-52710788D01*
X79722091Y-52710216D01*
X79739279Y-52709940D01*
X79749496Y-52710015D01*
G37*
G36*
X78599448Y-52834039D02*
G01*
X78600706Y-52880305D01*
X78602109Y-52917982D01*
X78603733Y-52947893D01*
X78605652Y-52970863D01*
X78607943Y-52987714D01*
X78610679Y-52999269D01*
X78613937Y-53006353D01*
X78615346Y-53008063D01*
X78620678Y-53008690D01*
X78630458Y-53004027D01*
X78644948Y-52993847D01*
X78664411Y-52977924D01*
X78689110Y-52956031D01*
X78719305Y-52927939D01*
X78755261Y-52893423D01*
X78797240Y-52852255D01*
X78809884Y-52839728D01*
X78939562Y-52711007D01*
X79042847Y-52711119D01*
X79086833Y-52711467D01*
X79121992Y-52712433D01*
X79148891Y-52714062D01*
X79168097Y-52716399D01*
X79180177Y-52719488D01*
X79184820Y-52722242D01*
X79185000Y-52724580D01*
X79182669Y-52729180D01*
X79177493Y-52736398D01*
X79169141Y-52746586D01*
X79157279Y-52760100D01*
X79141574Y-52777292D01*
X79121693Y-52798517D01*
X79097303Y-52824128D01*
X79068072Y-52854481D01*
X79033666Y-52889928D01*
X78993752Y-52930825D01*
X78947997Y-52977524D01*
X78896069Y-53030380D01*
X78871873Y-53054973D01*
X78808943Y-53118913D01*
X78885886Y-53205575D01*
X78943145Y-53270132D01*
X78994357Y-53328017D01*
X79039787Y-53379542D01*
X79079701Y-53425021D01*
X79114364Y-53464764D01*
X79144040Y-53499084D01*
X79168994Y-53528293D01*
X79189491Y-53552702D01*
X79205797Y-53572623D01*
X79218176Y-53588369D01*
X79226893Y-53600252D01*
X79232213Y-53608582D01*
X79234402Y-53613673D01*
X79234120Y-53615581D01*
X79227570Y-53619660D01*
X79216424Y-53622861D01*
X79199803Y-53625259D01*
X79176829Y-53626932D01*
X79146622Y-53627956D01*
X79108305Y-53628409D01*
X79087303Y-53628446D01*
X78981410Y-53628378D01*
X78869863Y-53500312D01*
X78829524Y-53454112D01*
X78794786Y-53414597D01*
X78765173Y-53381261D01*
X78740211Y-53353599D01*
X78719425Y-53331107D01*
X78702340Y-53313278D01*
X78688482Y-53299608D01*
X78677374Y-53289591D01*
X78668544Y-53282724D01*
X78661515Y-53278500D01*
X78661151Y-53278325D01*
X78649867Y-53273446D01*
X78642890Y-53273128D01*
X78636088Y-53277759D01*
X78632572Y-53281008D01*
X78623097Y-53294254D01*
X78615202Y-53314893D01*
X78608842Y-53343248D01*
X78603974Y-53379643D01*
X78600554Y-53424399D01*
X78598539Y-53477840D01*
X78597886Y-53538142D01*
X78597845Y-53628739D01*
X78491953Y-53628739D01*
X78386061Y-53628739D01*
X78386172Y-53509905D01*
X78386299Y-53458679D01*
X78386579Y-53404313D01*
X78386998Y-53347558D01*
X78387542Y-53289166D01*
X78388198Y-53229887D01*
X78388953Y-53170473D01*
X78389792Y-53111676D01*
X78390702Y-53054247D01*
X78391670Y-52998937D01*
X78392682Y-52946498D01*
X78393723Y-52897681D01*
X78394782Y-52853237D01*
X78395844Y-52813918D01*
X78396895Y-52780475D01*
X78397921Y-52753660D01*
X78398911Y-52734223D01*
X78399848Y-52722917D01*
X78400472Y-52720239D01*
X78406760Y-52718943D01*
X78420712Y-52717468D01*
X78440585Y-52715953D01*
X78464636Y-52714541D01*
X78479397Y-52713843D01*
X78506727Y-52712547D01*
X78532496Y-52711123D01*
X78554430Y-52709709D01*
X78570252Y-52708447D01*
X78574759Y-52707967D01*
X78596383Y-52705282D01*
X78599448Y-52834039D01*
G37*
G36*
X81498989Y-52712442D02*
G01*
X81501644Y-52712501D01*
X81541052Y-52713633D01*
X81572787Y-52715110D01*
X81598586Y-52717078D01*
X81620186Y-52719677D01*
X81639325Y-52723053D01*
X81645187Y-52724314D01*
X81706184Y-52741478D01*
X81759626Y-52764072D01*
X81805820Y-52792354D01*
X81845078Y-52826587D01*
X81877709Y-52867028D01*
X81904023Y-52913939D01*
X81920413Y-52955342D01*
X81926340Y-52974937D01*
X81928789Y-52990090D01*
X81926910Y-53001365D01*
X81919854Y-53009324D01*
X81906772Y-53014531D01*
X81886815Y-53017549D01*
X81859133Y-53018941D01*
X81824027Y-53019271D01*
X81790511Y-53019085D01*
X81764959Y-53018205D01*
X81745922Y-53016146D01*
X81731954Y-53012425D01*
X81721606Y-53006558D01*
X81713431Y-52998061D01*
X81705982Y-52986450D01*
X81701542Y-52978320D01*
X81688151Y-52955512D01*
X81674693Y-52938923D01*
X81658420Y-52925748D01*
X81638894Y-52914387D01*
X81613760Y-52902821D01*
X81588325Y-52894890D01*
X81560091Y-52890101D01*
X81526562Y-52887958D01*
X81503997Y-52887733D01*
X81450151Y-52891236D01*
X81400942Y-52901096D01*
X81357204Y-52917026D01*
X81319770Y-52938737D01*
X81294998Y-52959998D01*
X81275006Y-52986413D01*
X81258497Y-53020436D01*
X81245850Y-53060790D01*
X81237441Y-53106199D01*
X81233649Y-53155386D01*
X81233465Y-53168282D01*
X81236345Y-53222598D01*
X81244915Y-53273304D01*
X81258800Y-53319378D01*
X81277625Y-53359796D01*
X81301015Y-53393535D01*
X81324499Y-53416432D01*
X81353121Y-53433887D01*
X81388701Y-53446883D01*
X81429760Y-53455132D01*
X81474818Y-53458347D01*
X81522396Y-53456242D01*
X81527150Y-53455738D01*
X81571624Y-53448695D01*
X81610238Y-53438354D01*
X81642363Y-53425071D01*
X81667369Y-53409204D01*
X81684626Y-53391108D01*
X81693503Y-53371142D01*
X81694603Y-53360813D01*
X81693832Y-53352869D01*
X81690660Y-53347009D01*
X81683801Y-53342832D01*
X81671967Y-53339938D01*
X81653870Y-53337928D01*
X81628225Y-53336402D01*
X81613970Y-53335771D01*
X81586636Y-53334130D01*
X81563999Y-53331787D01*
X81547823Y-53328958D01*
X81541437Y-53326879D01*
X81530098Y-53317115D01*
X81521573Y-53299956D01*
X81515621Y-53274760D01*
X81512676Y-53249886D01*
X81511829Y-53227823D01*
X81513806Y-53209451D01*
X81519333Y-53194445D01*
X81529137Y-53182475D01*
X81543944Y-53173215D01*
X81564478Y-53166336D01*
X81591466Y-53161511D01*
X81625633Y-53158413D01*
X81667706Y-53156714D01*
X81718410Y-53156086D01*
X81720488Y-53156078D01*
X81755129Y-53156174D01*
X81790609Y-53156631D01*
X81824440Y-53157393D01*
X81854129Y-53158401D01*
X81877187Y-53159599D01*
X81879326Y-53159748D01*
X81934625Y-53163742D01*
X81934621Y-53227990D01*
X81933296Y-53290972D01*
X81929249Y-53345581D01*
X81922356Y-53392489D01*
X81912498Y-53432368D01*
X81899552Y-53465892D01*
X81887664Y-53487391D01*
X81859687Y-53522454D01*
X81823659Y-53553389D01*
X81780070Y-53580016D01*
X81729412Y-53602159D01*
X81672176Y-53619638D01*
X81608854Y-53632276D01*
X81539937Y-53639895D01*
X81465917Y-53642317D01*
X81460223Y-53642284D01*
X81432834Y-53641790D01*
X81406189Y-53640838D01*
X81382957Y-53639555D01*
X81365807Y-53638066D01*
X81362807Y-53637680D01*
X81329470Y-53630968D01*
X81292087Y-53620232D01*
X81254426Y-53606695D01*
X81220254Y-53591582D01*
X81218864Y-53590887D01*
X81171683Y-53562917D01*
X81131250Y-53529647D01*
X81097299Y-53490648D01*
X81069566Y-53445490D01*
X81047788Y-53393745D01*
X81031700Y-53334983D01*
X81021149Y-53269744D01*
X81019287Y-53246667D01*
X81018075Y-53216399D01*
X81017563Y-53181142D01*
X81017798Y-53143100D01*
X81018089Y-53128555D01*
X81019116Y-53092865D01*
X81020394Y-53064782D01*
X81022091Y-53042501D01*
X81024375Y-53024215D01*
X81027415Y-53008120D01*
X81030468Y-52995739D01*
X81050036Y-52939675D01*
X81077066Y-52888362D01*
X81110917Y-52842500D01*
X81150949Y-52802787D01*
X81196521Y-52769922D01*
X81246994Y-52744604D01*
X81267545Y-52737034D01*
X81298813Y-52727746D01*
X81330711Y-52720775D01*
X81364958Y-52715939D01*
X81403274Y-52713058D01*
X81447378Y-52711952D01*
X81498989Y-52712442D01*
G37*
G36*
X83349616Y-47321703D02*
G01*
X83357276Y-47333914D01*
X83368914Y-47353899D01*
X83384368Y-47381359D01*
X83403478Y-47415994D01*
X83426084Y-47457503D01*
X83452025Y-47505588D01*
X83481141Y-47559948D01*
X83513270Y-47620284D01*
X83548254Y-47686295D01*
X83585929Y-47757683D01*
X83626138Y-47834147D01*
X83668718Y-47915388D01*
X83713509Y-48001105D01*
X83760351Y-48090999D01*
X83760745Y-48091756D01*
X83781723Y-48132182D01*
X83804277Y-48175849D01*
X83828028Y-48222007D01*
X83852595Y-48269904D01*
X83877597Y-48318789D01*
X83902654Y-48367910D01*
X83927385Y-48416517D01*
X83951410Y-48463858D01*
X83974349Y-48509183D01*
X83995821Y-48551740D01*
X84015445Y-48590777D01*
X84032842Y-48625544D01*
X84047630Y-48655290D01*
X84059429Y-48679263D01*
X84067859Y-48696712D01*
X84072540Y-48706886D01*
X84073328Y-48708913D01*
X84072776Y-48719046D01*
X84067583Y-48736855D01*
X84057884Y-48761902D01*
X84055416Y-48767742D01*
X84041348Y-48800188D01*
X84023635Y-48840328D01*
X84002652Y-48887347D01*
X83978775Y-48940430D01*
X83952380Y-48998762D01*
X83923844Y-49061526D01*
X83893543Y-49127908D01*
X83861853Y-49197092D01*
X83829151Y-49268262D01*
X83795811Y-49340604D01*
X83762212Y-49413302D01*
X83728729Y-49485540D01*
X83695737Y-49556504D01*
X83663614Y-49625377D01*
X83632736Y-49691344D01*
X83603478Y-49753591D01*
X83576218Y-49811301D01*
X83551330Y-49863659D01*
X83529192Y-49909850D01*
X83513821Y-49941593D01*
X83496012Y-49978125D01*
X83481561Y-50007157D01*
X83469627Y-50029612D01*
X83459369Y-50046415D01*
X83449945Y-50058489D01*
X83440513Y-50066758D01*
X83430233Y-50072146D01*
X83418263Y-50075576D01*
X83403760Y-50077972D01*
X83387710Y-50080025D01*
X83336751Y-50091107D01*
X83287845Y-50110691D01*
X83242195Y-50137906D01*
X83201006Y-50171881D01*
X83165481Y-50211742D01*
X83136825Y-50256618D01*
X83132751Y-50264626D01*
X83116171Y-50301655D01*
X83104846Y-50335561D01*
X83097713Y-50370195D01*
X83094017Y-50404921D01*
X83094630Y-50460481D01*
X83104136Y-50515122D01*
X83122021Y-50567641D01*
X83147769Y-50616833D01*
X83180866Y-50661494D01*
X83220111Y-50699851D01*
X83244563Y-50717255D01*
X83275005Y-50734597D01*
X83308137Y-50750285D01*
X83340664Y-50762729D01*
X83363922Y-50769254D01*
X83397593Y-50774325D01*
X83436031Y-50776365D01*
X83475160Y-50775374D01*
X83510907Y-50771354D01*
X83522079Y-50769185D01*
X83550702Y-50760890D01*
X83582320Y-50748572D01*
X83613860Y-50733678D01*
X83642254Y-50717657D01*
X83664197Y-50702149D01*
X83700524Y-50666366D01*
X83732398Y-50623670D01*
X83758673Y-50575960D01*
X83778201Y-50525137D01*
X83784014Y-50503744D01*
X83791233Y-50460875D01*
X83793638Y-50415382D01*
X83791219Y-50370898D01*
X83784498Y-50333097D01*
X83779209Y-50313859D01*
X83773517Y-50297165D01*
X83766396Y-50280850D01*
X83756818Y-50262751D01*
X83743757Y-50240705D01*
X83730662Y-50219648D01*
X83719277Y-50200539D01*
X83709772Y-50182718D01*
X83703415Y-50168664D01*
X83701589Y-50162810D01*
X83701265Y-50155699D01*
X83702918Y-50146049D01*
X83706965Y-50132619D01*
X83713822Y-50114170D01*
X83723905Y-50089462D01*
X83735011Y-50063341D01*
X83753133Y-50021609D01*
X83774772Y-49972556D01*
X83799975Y-49916077D01*
X83828789Y-49852068D01*
X83861263Y-49780427D01*
X83897443Y-49701048D01*
X83937377Y-49613828D01*
X83981113Y-49518664D01*
X84028698Y-49415450D01*
X84080179Y-49304085D01*
X84135604Y-49184462D01*
X84195021Y-49056479D01*
X84213581Y-49016547D01*
X84257783Y-48921513D01*
X84298211Y-48834685D01*
X84335033Y-48755720D01*
X84368412Y-48684275D01*
X84398515Y-48620007D01*
X84425506Y-48562573D01*
X84449551Y-48511629D01*
X84470815Y-48466832D01*
X84489463Y-48427840D01*
X84505661Y-48394310D01*
X84519573Y-48365897D01*
X84531365Y-48342259D01*
X84541203Y-48323053D01*
X84549251Y-48307935D01*
X84555675Y-48296563D01*
X84560640Y-48288593D01*
X84564311Y-48283683D01*
X84566853Y-48281489D01*
X84567683Y-48281297D01*
X84571037Y-48285548D01*
X84576766Y-48296915D01*
X84584062Y-48313657D01*
X84591955Y-48333609D01*
X84602474Y-48361990D01*
X84615689Y-48398625D01*
X84631420Y-48442977D01*
X84649486Y-48494505D01*
X84669709Y-48552670D01*
X84691906Y-48616933D01*
X84715898Y-48686754D01*
X84741503Y-48761595D01*
X84768543Y-48840915D01*
X84796836Y-48924176D01*
X84826203Y-49010837D01*
X84856461Y-49100361D01*
X84887432Y-49192207D01*
X84918935Y-49285835D01*
X84950790Y-49380708D01*
X84982815Y-49476285D01*
X85014831Y-49572026D01*
X85046658Y-49667394D01*
X85078114Y-49761848D01*
X85109020Y-49854848D01*
X85139195Y-49945857D01*
X85168459Y-50034333D01*
X85196631Y-50119739D01*
X85223531Y-50201534D01*
X85248978Y-50279179D01*
X85272793Y-50352136D01*
X85294795Y-50419863D01*
X85314803Y-50481823D01*
X85332637Y-50537476D01*
X85348116Y-50586283D01*
X85361061Y-50627703D01*
X85371291Y-50661199D01*
X85377529Y-50682382D01*
X85390296Y-50726889D01*
X85379627Y-50734151D01*
X85369260Y-50740767D01*
X85351166Y-50751794D01*
X85325788Y-50766974D01*
X85293574Y-50786051D01*
X85254970Y-50808767D01*
X85210420Y-50834866D01*
X85160371Y-50864091D01*
X85105268Y-50896184D01*
X85045558Y-50930889D01*
X84981685Y-50967949D01*
X84914096Y-51007107D01*
X84843237Y-51048105D01*
X84769552Y-51090687D01*
X84693489Y-51134596D01*
X84615493Y-51179575D01*
X84536008Y-51225366D01*
X84455482Y-51271714D01*
X84374361Y-51318360D01*
X84293088Y-51365049D01*
X84212112Y-51411522D01*
X84131876Y-51457524D01*
X84052827Y-51502796D01*
X83975412Y-51547082D01*
X83900074Y-51590125D01*
X83827261Y-51631669D01*
X83757418Y-51671455D01*
X83690991Y-51709228D01*
X83628425Y-51744730D01*
X83570167Y-51777703D01*
X83537127Y-51796358D01*
X83486199Y-51825078D01*
X83442837Y-51849515D01*
X83406410Y-51870014D01*
X83376285Y-51886920D01*
X83351833Y-51900576D01*
X83332421Y-51911328D01*
X83317418Y-51919520D01*
X83306194Y-51925496D01*
X83298117Y-51929601D01*
X83292555Y-51932180D01*
X83288878Y-51933577D01*
X83286454Y-51934137D01*
X83284652Y-51934203D01*
X83284574Y-51934200D01*
X83278463Y-51932659D01*
X83264809Y-51928486D01*
X83244966Y-51922120D01*
X83220289Y-51913998D01*
X83192133Y-51904558D01*
X83177093Y-51899453D01*
X83132769Y-51884190D01*
X83080108Y-51865779D01*
X83019584Y-51844391D01*
X82951666Y-51820202D01*
X82876826Y-51793383D01*
X82795536Y-51764108D01*
X82708266Y-51732551D01*
X82615488Y-51698883D01*
X82517673Y-51663279D01*
X82415293Y-51625912D01*
X82308818Y-51586954D01*
X82198720Y-51546579D01*
X82085471Y-51504960D01*
X81969541Y-51462270D01*
X81851402Y-51418682D01*
X81731525Y-51374369D01*
X81610381Y-51329506D01*
X81488442Y-51284263D01*
X81366179Y-51238816D01*
X81244063Y-51193336D01*
X81122566Y-51147998D01*
X81002158Y-51102974D01*
X80883311Y-51058437D01*
X80766497Y-51014560D01*
X80684049Y-50983527D01*
X80639599Y-50966751D01*
X80603155Y-50952903D01*
X80573901Y-50941631D01*
X80551020Y-50932583D01*
X80533697Y-50925405D01*
X80521114Y-50919746D01*
X80512457Y-50915253D01*
X80506908Y-50911574D01*
X80503650Y-50908356D01*
X80501869Y-50905247D01*
X80501691Y-50904801D01*
X80501057Y-50903527D01*
X80500370Y-50902491D01*
X80499757Y-50901454D01*
X80499343Y-50900179D01*
X80499257Y-50898427D01*
X80499624Y-50895961D01*
X80500572Y-50892541D01*
X80502227Y-50887931D01*
X80504715Y-50881892D01*
X80508164Y-50874185D01*
X80512701Y-50864574D01*
X80518451Y-50852818D01*
X80525542Y-50838682D01*
X80534101Y-50821925D01*
X80544253Y-50802311D01*
X80556126Y-50779600D01*
X80569847Y-50753556D01*
X80585542Y-50723939D01*
X80603338Y-50690512D01*
X80623362Y-50653036D01*
X80645740Y-50611274D01*
X80670600Y-50564987D01*
X80698067Y-50513937D01*
X80728268Y-50457886D01*
X80761331Y-50396596D01*
X80797382Y-50329829D01*
X80836547Y-50257347D01*
X80878954Y-50178910D01*
X80924729Y-50094283D01*
X80973999Y-50003225D01*
X81026890Y-49905500D01*
X81083530Y-49800868D01*
X81144045Y-49689092D01*
X81208561Y-49569934D01*
X81277206Y-49443156D01*
X81350105Y-49308519D01*
X81408811Y-49200094D01*
X81469277Y-49088430D01*
X81526701Y-48982413D01*
X81580991Y-48882211D01*
X81632056Y-48787993D01*
X81679802Y-48699930D01*
X81724138Y-48618191D01*
X81764972Y-48542944D01*
X81802212Y-48474361D01*
X81835765Y-48412610D01*
X81865540Y-48357860D01*
X81891445Y-48310282D01*
X81913386Y-48270044D01*
X81931273Y-48237317D01*
X81945014Y-48212270D01*
X81954515Y-48195071D01*
X81959686Y-48185892D01*
X81960650Y-48184323D01*
X81963717Y-48187451D01*
X81971217Y-48197905D01*
X81982702Y-48214964D01*
X81997724Y-48237906D01*
X82015836Y-48266007D01*
X82036591Y-48298547D01*
X82059541Y-48334802D01*
X82084239Y-48374052D01*
X82110237Y-48415573D01*
X82137087Y-48458644D01*
X82164342Y-48502542D01*
X82191555Y-48546545D01*
X82218278Y-48589932D01*
X82244063Y-48631980D01*
X82268463Y-48671966D01*
X82291031Y-48709170D01*
X82311319Y-48742868D01*
X82328879Y-48772338D01*
X82343264Y-48796859D01*
X82354027Y-48815708D01*
X82360720Y-48828164D01*
X82362900Y-48833422D01*
X82360966Y-48838344D01*
X82355312Y-48851331D01*
X82346157Y-48871898D01*
X82333721Y-48899563D01*
X82318226Y-48933842D01*
X82299890Y-48974252D01*
X82278935Y-49020310D01*
X82255580Y-49071531D01*
X82230045Y-49127432D01*
X82202552Y-49187530D01*
X82173319Y-49251342D01*
X82142568Y-49318384D01*
X82110518Y-49388172D01*
X82080055Y-49454428D01*
X81797210Y-50069287D01*
X81749436Y-50077625D01*
X81700685Y-50087630D01*
X81659208Y-50099690D01*
X81622945Y-50114662D01*
X81589834Y-50133405D01*
X81557814Y-50156777D01*
X81556254Y-50158042D01*
X81520371Y-50192452D01*
X81489014Y-50232831D01*
X81463062Y-50277407D01*
X81443393Y-50324410D01*
X81430884Y-50372068D01*
X81426413Y-50418612D01*
X81426412Y-50419959D01*
X81430963Y-50468127D01*
X81443944Y-50517284D01*
X81464682Y-50566026D01*
X81492506Y-50612950D01*
X81526740Y-50656652D01*
X81552686Y-50683205D01*
X81592612Y-50716898D01*
X81632263Y-50742418D01*
X81673622Y-50760732D01*
X81718672Y-50772805D01*
X81745570Y-50777113D01*
X81797607Y-50779314D01*
X81850792Y-50773252D01*
X81902873Y-50759445D01*
X81951602Y-50738408D01*
X81975542Y-50724346D01*
X82012616Y-50695486D01*
X82046900Y-50659751D01*
X82076183Y-50619663D01*
X82091724Y-50591986D01*
X82108242Y-50555046D01*
X82119370Y-50520783D01*
X82125882Y-50485773D01*
X82128552Y-50446594D01*
X82128716Y-50428443D01*
X82127829Y-50396870D01*
X82125076Y-50368685D01*
X82119893Y-50341912D01*
X82111719Y-50314577D01*
X82099991Y-50284707D01*
X82084147Y-50250327D01*
X82069718Y-50221365D01*
X82030203Y-50143710D01*
X82276708Y-49609543D01*
X82364780Y-49418742D01*
X82449128Y-49236105D01*
X82529745Y-49061648D01*
X82606621Y-48895389D01*
X82679749Y-48737348D01*
X82749121Y-48587541D01*
X82814727Y-48445986D01*
X82876559Y-48312702D01*
X82934610Y-48187705D01*
X82988871Y-48071015D01*
X83039333Y-47962649D01*
X83085988Y-47862624D01*
X83128828Y-47770960D01*
X83167845Y-47687672D01*
X83203029Y-47612780D01*
X83234374Y-47546302D01*
X83261869Y-47488255D01*
X83285508Y-47438656D01*
X83305282Y-47397525D01*
X83321182Y-47364879D01*
X83333200Y-47340735D01*
X83341328Y-47325112D01*
X83345557Y-47318027D01*
X83346094Y-47317566D01*
X83349616Y-47321703D01*
G37*
D11*
%TO.C,RV1*%
X138496071Y-65205000D02*
X138496071Y-69925000D01*
X138496071Y-65205000D02*
X139986071Y-65205000D01*
X138496071Y-73735000D02*
X138496071Y-76795000D01*
X138496071Y-76795000D02*
X148236071Y-76795000D01*
X141706071Y-65205000D02*
X142536071Y-65205000D01*
X144156071Y-65205000D02*
X144686071Y-65205000D01*
X147056071Y-65205000D02*
X148236071Y-65205000D01*
X148236071Y-73735000D02*
X148236071Y-76795000D01*
X148246071Y-65205000D02*
X148246071Y-69925000D01*
%TO.C,D6*%
X110293855Y-119290000D02*
X110293855Y-120760000D01*
X110293855Y-120760000D02*
X112578855Y-120760000D01*
X112578855Y-119290000D02*
X110293855Y-119290000D01*
D12*
%TO.C,kibuzzard-6692AA29*%
G36*
X112980043Y-53456123D02*
G01*
X113040701Y-53477868D01*
X113092203Y-53540815D01*
X113108226Y-53660987D01*
X113092203Y-53778870D01*
X113039557Y-53841817D01*
X112976609Y-53863562D01*
X112899928Y-53866996D01*
X112823247Y-53863562D01*
X112761445Y-53841817D01*
X112709943Y-53777725D01*
X112693920Y-53658698D01*
X112709943Y-53540815D01*
X112762589Y-53477868D01*
X112825536Y-53456123D01*
X112902217Y-53452690D01*
X112980043Y-53456123D01*
G37*
G36*
X114252718Y-53456123D02*
G01*
X114313376Y-53477868D01*
X114364878Y-53540815D01*
X114380901Y-53660987D01*
X114364878Y-53778870D01*
X114313376Y-53841817D01*
X114251574Y-53863562D01*
X114172604Y-53866996D01*
X113426395Y-53866996D01*
X113349714Y-53863562D01*
X113287911Y-53841817D01*
X113236409Y-53777725D01*
X113220386Y-53658698D01*
X113236409Y-53540815D01*
X113289056Y-53477868D01*
X113352003Y-53456123D01*
X113430973Y-53452690D01*
X114174893Y-53452690D01*
X114252718Y-53456123D01*
G37*
G36*
X114303076Y-53995179D02*
G01*
X114358011Y-54039814D01*
X114377468Y-54094750D01*
X114380901Y-54159986D01*
X114380901Y-54926795D01*
X114364878Y-55045823D01*
X114312232Y-55109914D01*
X114249285Y-55131660D01*
X114170315Y-55135093D01*
X112986910Y-55135093D01*
X112910229Y-55131660D01*
X112847282Y-55109914D01*
X112794635Y-55045823D01*
X112778612Y-54924506D01*
X112794635Y-54805479D01*
X112847282Y-54741388D01*
X112910229Y-54719642D01*
X112989199Y-54716209D01*
X114023820Y-54716209D01*
X114023820Y-54157697D01*
X114027253Y-54092461D01*
X114045565Y-54039814D01*
X114099356Y-53995179D01*
X114202361Y-53981445D01*
X114303076Y-53995179D01*
G37*
G36*
X114237840Y-47433805D02*
G01*
X114290486Y-47446395D01*
X114337411Y-47478441D01*
X114366023Y-47540243D01*
X114378612Y-47640959D01*
X114351717Y-47777725D01*
X114271030Y-47840100D01*
X114350000Y-47951688D01*
X114376323Y-48075866D01*
X114357757Y-48215748D01*
X114302058Y-48339353D01*
X114209227Y-48446681D01*
X114089183Y-48529339D01*
X113951844Y-48578933D01*
X113797210Y-48595465D01*
X113424106Y-48595465D01*
X113345136Y-48592031D01*
X113283333Y-48570286D01*
X113231831Y-48506195D01*
X113215808Y-48387167D01*
X113231831Y-48268140D01*
X113284478Y-48204049D01*
X113347425Y-48182303D01*
X113426395Y-48178870D01*
X113797210Y-48178870D01*
X113918526Y-48135379D01*
X113962017Y-48014063D01*
X113917382Y-47893891D01*
X113797210Y-47849256D01*
X113421817Y-47849256D01*
X113345136Y-47845823D01*
X113283333Y-47824077D01*
X113231831Y-47761130D01*
X113215808Y-47640959D01*
X113231831Y-47521931D01*
X113284478Y-47457840D01*
X113347425Y-47436094D01*
X113424106Y-47432661D01*
X114177182Y-47432661D01*
X114237840Y-47433805D01*
G37*
G36*
X114249285Y-52144535D02*
G01*
X114311087Y-52166280D01*
X114362589Y-52229227D01*
X114378612Y-52349399D01*
X114362589Y-52470715D01*
X114309943Y-52534807D01*
X114246996Y-52556552D01*
X114170315Y-52559986D01*
X113797210Y-52559986D01*
X113675894Y-52602332D01*
X113632403Y-52722504D01*
X113677039Y-52843820D01*
X113797210Y-52889599D01*
X114172604Y-52889599D01*
X114249285Y-52893033D01*
X114311087Y-52914778D01*
X114362589Y-52978870D01*
X114378612Y-53097897D01*
X114362589Y-53215780D01*
X114311087Y-53278727D01*
X114249285Y-53300472D01*
X114170315Y-53303906D01*
X113417239Y-53303906D01*
X113341702Y-53299328D01*
X113282189Y-53277582D01*
X113232976Y-53214635D01*
X113218097Y-53095608D01*
X113231831Y-52988026D01*
X113269599Y-52926223D01*
X113313090Y-52901044D01*
X113360014Y-52894177D01*
X113261588Y-52771717D01*
X113218097Y-52605765D01*
X113236155Y-52468935D01*
X113290327Y-52354486D01*
X113380615Y-52262418D01*
X113499134Y-52195020D01*
X113637999Y-52154581D01*
X113797210Y-52141102D01*
X114172604Y-52141102D01*
X114249285Y-52144535D01*
G37*
G36*
X113768884Y-50902475D02*
G01*
X113853290Y-50949685D01*
X113905651Y-51022647D01*
X113923104Y-51115637D01*
X113923104Y-51603190D01*
X114010086Y-51534521D01*
X114042132Y-51399471D01*
X114012375Y-51214063D01*
X113982618Y-51108770D01*
X114010086Y-51033233D01*
X114092489Y-50971431D01*
X114197783Y-50941674D01*
X114288913Y-50971431D01*
X114354006Y-51060701D01*
X114393062Y-51209485D01*
X114406080Y-51417783D01*
X114392060Y-51571144D01*
X114350000Y-51706195D01*
X114285050Y-51818069D01*
X114202361Y-51901903D01*
X114108512Y-51963133D01*
X114010086Y-52007196D01*
X113908226Y-52033805D01*
X113804077Y-52042675D01*
X113635074Y-52023219D01*
X113488197Y-51964850D01*
X113363448Y-51867568D01*
X113268709Y-51739512D01*
X113211866Y-51588821D01*
X113193418Y-51420072D01*
X113561445Y-51420072D01*
X113606080Y-51549399D01*
X113707940Y-51603190D01*
X113707940Y-51346824D01*
X113653004Y-51285021D01*
X113585479Y-51321645D01*
X113561445Y-51420072D01*
X113193418Y-51420072D01*
X113192918Y-51415494D01*
X113209450Y-51257935D01*
X113259045Y-51127082D01*
X113341702Y-51022933D01*
X113494492Y-50920787D01*
X113655293Y-50886738D01*
X113768884Y-50902475D01*
G37*
G36*
X113544278Y-46422074D02*
G01*
X113607225Y-46472432D01*
X113631259Y-46535379D01*
X113636981Y-46613205D01*
X113634692Y-46732232D01*
X113900215Y-46732232D01*
X113968884Y-46719642D01*
X113987196Y-46670429D01*
X113991774Y-46585737D01*
X114013519Y-46523934D01*
X114069599Y-46478155D01*
X114174893Y-46464421D01*
X114292775Y-46481588D01*
X114355722Y-46535379D01*
X114377468Y-46598326D01*
X114380901Y-46672718D01*
X114368439Y-46820358D01*
X114331052Y-46939766D01*
X114268741Y-47030944D01*
X114180234Y-47095163D01*
X114064258Y-47133694D01*
X113920815Y-47146538D01*
X113630114Y-47146538D01*
X113630114Y-47203763D01*
X113579757Y-47310200D01*
X113428684Y-47341102D01*
X113281044Y-47304478D01*
X113231831Y-47194607D01*
X113231831Y-47146538D01*
X113032690Y-47146538D01*
X112956009Y-47143104D01*
X112896495Y-47121359D01*
X112848426Y-47058412D01*
X112833548Y-46938240D01*
X112849571Y-46822647D01*
X112901073Y-46759700D01*
X112965165Y-46736810D01*
X113041845Y-46732232D01*
X113224964Y-46732232D01*
X113220386Y-46610916D01*
X113221531Y-46550258D01*
X113234120Y-46496466D01*
X113266166Y-46447253D01*
X113329113Y-46417496D01*
X113430973Y-46404907D01*
X113544278Y-46422074D01*
G37*
G36*
X114391202Y-49638956D02*
G01*
X114346567Y-49786881D01*
X114272175Y-49922790D01*
X114168026Y-50046681D01*
X114042847Y-50149828D01*
X113905365Y-50223505D01*
X113755579Y-50267711D01*
X113593491Y-50282446D01*
X113426109Y-50268140D01*
X113271888Y-50225222D01*
X113130830Y-50153691D01*
X113002933Y-50053548D01*
X112896781Y-49932947D01*
X112820959Y-49800043D01*
X112775465Y-49654835D01*
X112760300Y-49497325D01*
X112761151Y-49488169D01*
X113179185Y-49488169D01*
X113208655Y-49632375D01*
X113297067Y-49753691D01*
X113427825Y-49836094D01*
X113584335Y-49863562D01*
X113737697Y-49835808D01*
X113868169Y-49752546D01*
X113957439Y-49631516D01*
X113987196Y-49490458D01*
X113958298Y-49344821D01*
X113871602Y-49223791D01*
X113741989Y-49142246D01*
X113584335Y-49115064D01*
X113427825Y-49142532D01*
X113297067Y-49224936D01*
X113208655Y-49345680D01*
X113179185Y-49488169D01*
X112761151Y-49488169D01*
X112775250Y-49336524D01*
X112820100Y-49188312D01*
X112894850Y-49052690D01*
X112999499Y-48929657D01*
X113125751Y-48827511D01*
X113265308Y-48754549D01*
X113418169Y-48710773D01*
X113584335Y-48696180D01*
X113747639Y-48710558D01*
X113898784Y-48753691D01*
X114037768Y-48825579D01*
X114164592Y-48926223D01*
X114270243Y-49047039D01*
X114345708Y-49179442D01*
X114390987Y-49323433D01*
X114406080Y-49479013D01*
X114405015Y-49490458D01*
X114391202Y-49638956D01*
G37*
D11*
%TO.C,SW3*%
X96598570Y-123400000D02*
X96598570Y-125400000D01*
X97598570Y-122100000D02*
X98048570Y-121650000D01*
X97598570Y-126700000D02*
X98048570Y-127150000D01*
X98048570Y-121650000D02*
X100648570Y-121650000D01*
X98048570Y-127150000D02*
X100648570Y-127150000D01*
X101098570Y-122100000D02*
X100648570Y-121650000D01*
X101098570Y-126700000D02*
X100648570Y-127150000D01*
X102098570Y-123400000D02*
X102098570Y-125400000D01*
%TO.C,R8*%
X115562258Y-119502500D02*
X115087742Y-119502500D01*
X115562258Y-120547500D02*
X115087742Y-120547500D01*
%TO.C,D8*%
X135100000Y-118895000D02*
X135100000Y-120365000D01*
X135100000Y-120365000D02*
X137385000Y-120365000D01*
X137385000Y-118895000D02*
X135100000Y-118895000D01*
%TO.C,SW7*%
X146239710Y-123400000D02*
X146239710Y-125400000D01*
X147239710Y-122100000D02*
X147689710Y-121650000D01*
X147239710Y-126700000D02*
X147689710Y-127150000D01*
X147689710Y-121650000D02*
X150289710Y-121650000D01*
X147689710Y-127150000D02*
X150289710Y-127150000D01*
X150739710Y-122100000D02*
X150289710Y-121650000D01*
X150739710Y-126700000D02*
X150289710Y-127150000D01*
X151739710Y-123400000D02*
X151739710Y-125400000D01*
%TO.C,RV3*%
X121500237Y-82442500D02*
X121500237Y-87162500D01*
X121500237Y-82442500D02*
X122990237Y-82442500D01*
X121500237Y-90972500D02*
X121500237Y-94032500D01*
X121500237Y-94032500D02*
X131240237Y-94032500D01*
X124710237Y-82442500D02*
X125540237Y-82442500D01*
X127160237Y-82442500D02*
X127690237Y-82442500D01*
X130060237Y-82442500D02*
X131240237Y-82442500D01*
X131240237Y-90972500D02*
X131240237Y-94032500D01*
X131250237Y-82442500D02*
X131250237Y-87162500D01*
%TO.C,R4*%
X123982500Y-59327258D02*
X123982500Y-58852742D01*
X125027500Y-59327258D02*
X125027500Y-58852742D01*
%TO.C,R18*%
X165807500Y-124532742D02*
X165807500Y-125007258D01*
X166852500Y-124532742D02*
X166852500Y-125007258D01*
D10*
%TO.C,J3*%
X135504297Y-45682893D02*
X137504297Y-45682893D01*
X135504297Y-46182893D02*
X135504297Y-45682893D01*
X135504297Y-56682893D02*
X135504297Y-46182893D01*
X137504297Y-45682893D02*
X145504297Y-45682893D01*
X147504297Y-45682893D02*
X145504297Y-45682893D01*
X147504297Y-46182893D02*
X147504297Y-45682893D01*
X147504297Y-46182893D02*
X147504297Y-56682893D01*
X147504297Y-56682893D02*
X135504297Y-56682893D01*
X144504297Y-45682893D02*
X138504297Y-45682893D01*
X138504297Y-42682893D01*
X144504297Y-42682893D01*
X144504297Y-45682893D01*
G36*
X144504297Y-45682893D02*
G01*
X138504297Y-45682893D01*
X138504297Y-42682893D01*
X144504297Y-42682893D01*
X144504297Y-45682893D01*
G37*
D11*
%TO.C,RV8*%
X155491905Y-99680000D02*
X155491905Y-104400000D01*
X155491905Y-99680000D02*
X156981905Y-99680000D01*
X155491905Y-108210000D02*
X155491905Y-111270000D01*
X155491905Y-111270000D02*
X165231905Y-111270000D01*
X158701905Y-99680000D02*
X159531905Y-99680000D01*
X161151905Y-99680000D02*
X161681905Y-99680000D01*
X164051905Y-99680000D02*
X165231905Y-99680000D01*
X165231905Y-108210000D02*
X165231905Y-111270000D01*
X165241905Y-99680000D02*
X165241905Y-104400000D01*
%TO.C,D9*%
X147524710Y-118895000D02*
X147524710Y-120365000D01*
X147524710Y-120365000D02*
X149809710Y-120365000D01*
X149809710Y-118895000D02*
X147524710Y-118895000D01*
D12*
%TO.C,kibuzzard-6692AA0C*%
G36*
X96770043Y-51325079D02*
G01*
X96830701Y-51346824D01*
X96882203Y-51409771D01*
X96898226Y-51529943D01*
X96882203Y-51647826D01*
X96829557Y-51710773D01*
X96766609Y-51732518D01*
X96689928Y-51735952D01*
X96613247Y-51732518D01*
X96551445Y-51710773D01*
X96499943Y-51646681D01*
X96483920Y-51527654D01*
X96499943Y-51409771D01*
X96552589Y-51346824D01*
X96615536Y-51325079D01*
X96692217Y-51321645D01*
X96770043Y-51325079D01*
G37*
G36*
X98041574Y-47703906D02*
G01*
X98103376Y-47725651D01*
X98154878Y-47789743D01*
X98170901Y-47911059D01*
X98154878Y-48030086D01*
X98102232Y-48094178D01*
X98039285Y-48115923D01*
X97960315Y-48119356D01*
X96776910Y-48119356D01*
X96700229Y-48115923D01*
X96637282Y-48094178D01*
X96584635Y-48030086D01*
X96568612Y-47908770D01*
X96584635Y-47789743D01*
X96637282Y-47725651D01*
X96700229Y-47703906D01*
X96779199Y-47700472D01*
X97962604Y-47700472D01*
X98041574Y-47703906D01*
G37*
G36*
X98042718Y-51325079D02*
G01*
X98103376Y-51346824D01*
X98154878Y-51409771D01*
X98170901Y-51529943D01*
X98154878Y-51647826D01*
X98103376Y-51710773D01*
X98041574Y-51732518D01*
X97962604Y-51735952D01*
X97216395Y-51735952D01*
X97139714Y-51732518D01*
X97077911Y-51710773D01*
X97026409Y-51646681D01*
X97010386Y-51527654D01*
X97026409Y-51409771D01*
X97079056Y-51346824D01*
X97142003Y-51325079D01*
X97220973Y-51321645D01*
X97964893Y-51321645D01*
X98042718Y-51325079D01*
G37*
G36*
X98093076Y-51864135D02*
G01*
X98148011Y-51908770D01*
X98167468Y-51963705D01*
X98170901Y-52028942D01*
X98170901Y-52795751D01*
X98154878Y-52914778D01*
X98102232Y-52978870D01*
X98039285Y-53000615D01*
X97960315Y-53004049D01*
X96776910Y-53004049D01*
X96700229Y-53000615D01*
X96637282Y-52978870D01*
X96584635Y-52914778D01*
X96568612Y-52793462D01*
X96584635Y-52674435D01*
X96637282Y-52610344D01*
X96700229Y-52588598D01*
X96779199Y-52585165D01*
X97813820Y-52585165D01*
X97813820Y-52026653D01*
X97817253Y-51961416D01*
X97835565Y-51908770D01*
X97889356Y-51864135D01*
X97992361Y-51850401D01*
X98093076Y-51864135D01*
G37*
G36*
X98039285Y-46408341D02*
G01*
X98101087Y-46430086D01*
X98152589Y-46493033D01*
X98168612Y-46613205D01*
X98152589Y-46734521D01*
X98099943Y-46798612D01*
X98036996Y-46820358D01*
X97960315Y-46823791D01*
X97587210Y-46823791D01*
X97465894Y-46866138D01*
X97422403Y-46986309D01*
X97467039Y-47107625D01*
X97587210Y-47153405D01*
X97962604Y-47153405D01*
X98039285Y-47156839D01*
X98101087Y-47178584D01*
X98152589Y-47242675D01*
X98168612Y-47361703D01*
X98152589Y-47479585D01*
X98101087Y-47542532D01*
X98039285Y-47564278D01*
X97960315Y-47567711D01*
X97207239Y-47567711D01*
X97131702Y-47563133D01*
X97072189Y-47541388D01*
X97022976Y-47478441D01*
X97008097Y-47359414D01*
X97021831Y-47251831D01*
X97059599Y-47190029D01*
X97103090Y-47164850D01*
X97150014Y-47157983D01*
X97051588Y-47035522D01*
X97008097Y-46869571D01*
X97026155Y-46732741D01*
X97080327Y-46618291D01*
X97170615Y-46526223D01*
X97289134Y-46458825D01*
X97427999Y-46418387D01*
X97587210Y-46404907D01*
X97962604Y-46404907D01*
X98039285Y-46408341D01*
G37*
G36*
X98039285Y-50013491D02*
G01*
X98101087Y-50035236D01*
X98152589Y-50098183D01*
X98168612Y-50218355D01*
X98152589Y-50339671D01*
X98099943Y-50403763D01*
X98036996Y-50425508D01*
X97960315Y-50428942D01*
X97587210Y-50428942D01*
X97465894Y-50471288D01*
X97422403Y-50591459D01*
X97467039Y-50712776D01*
X97587210Y-50758555D01*
X97962604Y-50758555D01*
X98039285Y-50761989D01*
X98101087Y-50783734D01*
X98152589Y-50847826D01*
X98168612Y-50966853D01*
X98152589Y-51084736D01*
X98101087Y-51147683D01*
X98039285Y-51169428D01*
X97960315Y-51172861D01*
X97207239Y-51172861D01*
X97131702Y-51168283D01*
X97072189Y-51146538D01*
X97022976Y-51083591D01*
X97008097Y-50964564D01*
X97021831Y-50856982D01*
X97059599Y-50795179D01*
X97103090Y-50770000D01*
X97150014Y-50763133D01*
X97051588Y-50640673D01*
X97008097Y-50474721D01*
X97026155Y-50337891D01*
X97080327Y-50223442D01*
X97170615Y-50131374D01*
X97289134Y-50063976D01*
X97427999Y-50023537D01*
X97587210Y-50010057D01*
X97962604Y-50010057D01*
X98039285Y-50013491D01*
G37*
G36*
X97558884Y-48771431D02*
G01*
X97643290Y-48818641D01*
X97695651Y-48891602D01*
X97713104Y-48984592D01*
X97713104Y-49472146D01*
X97800086Y-49403477D01*
X97832132Y-49268426D01*
X97802375Y-49083019D01*
X97772618Y-48977725D01*
X97800086Y-48902189D01*
X97882489Y-48840386D01*
X97987783Y-48810630D01*
X98078913Y-48840386D01*
X98144006Y-48929657D01*
X98183062Y-49078441D01*
X98196080Y-49286738D01*
X98182060Y-49440100D01*
X98140000Y-49575150D01*
X98075050Y-49687024D01*
X97992361Y-49770859D01*
X97898512Y-49832089D01*
X97800086Y-49876152D01*
X97698226Y-49902761D01*
X97594077Y-49911631D01*
X97425074Y-49892175D01*
X97278197Y-49833806D01*
X97153448Y-49736524D01*
X97058709Y-49608468D01*
X97001866Y-49457776D01*
X96983418Y-49289027D01*
X97351445Y-49289027D01*
X97396080Y-49418355D01*
X97497940Y-49472146D01*
X97497940Y-49215780D01*
X97443004Y-49153977D01*
X97375479Y-49190601D01*
X97351445Y-49289027D01*
X96983418Y-49289027D01*
X96982918Y-49284449D01*
X96999450Y-49126891D01*
X97049045Y-48996037D01*
X97131702Y-48891889D01*
X97284492Y-48789743D01*
X97445293Y-48755694D01*
X97558884Y-48771431D01*
G37*
D11*
%TO.C,R19*%
X152662258Y-119107500D02*
X152187742Y-119107500D01*
X152662258Y-120152500D02*
X152187742Y-120152500D01*
%TO.C,D7*%
X122704140Y-119290000D02*
X122704140Y-120760000D01*
X122704140Y-120760000D02*
X124989140Y-120760000D01*
X124989140Y-119290000D02*
X122704140Y-119290000D01*
%TO.C,D5*%
X97883570Y-119290000D02*
X97883570Y-120760000D01*
X97883570Y-120760000D02*
X100168570Y-120760000D01*
X100168570Y-119290000D02*
X97883570Y-119290000D01*
%TO.C,U2*%
X128465000Y-56940000D02*
X128465000Y-64680000D01*
X128465000Y-64680000D02*
X130115000Y-64680000D01*
X132115000Y-64680000D02*
X133765000Y-64680000D01*
X133765000Y-56940000D02*
X128465000Y-56940000D01*
X133765000Y-64680000D02*
X133765000Y-56940000D01*
X130115000Y-64680000D02*
G75*
G02*
X132115000Y-64680000I1000000J0D01*
G01*
%TO.C,U3*%
X94655000Y-101885000D02*
X94655000Y-107185000D01*
X94655000Y-107185000D02*
X115095000Y-107185000D01*
X115095000Y-101885000D02*
X94655000Y-101885000D01*
X115095000Y-103535000D02*
X115095000Y-101885000D01*
X115095000Y-107185000D02*
X115095000Y-105535000D01*
X115095000Y-105535000D02*
G75*
G02*
X115095000Y-103535000I0J1000000D01*
G01*
%TO.C,SW6*%
X133815000Y-123400000D02*
X133815000Y-125400000D01*
X134815000Y-122100000D02*
X135265000Y-121650000D01*
X134815000Y-126700000D02*
X135265000Y-127150000D01*
X135265000Y-121650000D02*
X137865000Y-121650000D01*
X135265000Y-127150000D02*
X137865000Y-127150000D01*
X138315000Y-122100000D02*
X137865000Y-121650000D01*
X138315000Y-126700000D02*
X137865000Y-127150000D01*
X139315000Y-123400000D02*
X139315000Y-125400000D01*
%TO.C,C1*%
X139850580Y-57280000D02*
X139569420Y-57280000D01*
X139850580Y-58300000D02*
X139569420Y-58300000D01*
%TO.C,D4*%
X85473285Y-119290000D02*
X85473285Y-120760000D01*
X85473285Y-120760000D02*
X87758285Y-120760000D01*
X87758285Y-119290000D02*
X85473285Y-119290000D01*
%TO.C,R11*%
X78935500Y-124532742D02*
X78935500Y-125007258D01*
X79980500Y-124532742D02*
X79980500Y-125007258D01*
%TO.C,R9*%
X127937258Y-119502500D02*
X127462742Y-119502500D01*
X127937258Y-120547500D02*
X127462742Y-120547500D01*
%TO.C,SW1*%
X71738000Y-123400000D02*
X71738000Y-125400000D01*
X72738000Y-122100000D02*
X73188000Y-121650000D01*
X72738000Y-126700000D02*
X73188000Y-127150000D01*
X73188000Y-121650000D02*
X75788000Y-121650000D01*
X73188000Y-127150000D02*
X75788000Y-127150000D01*
X76238000Y-122100000D02*
X75788000Y-121650000D01*
X76238000Y-126700000D02*
X75788000Y-127150000D01*
X77238000Y-123400000D02*
X77238000Y-125400000D01*
D10*
%TO.C,J4*%
X150820000Y-45682893D02*
X152820000Y-45682893D01*
X150820000Y-46182893D02*
X150820000Y-45682893D01*
X150820000Y-56682893D02*
X150820000Y-46182893D01*
X152820000Y-45682893D02*
X160820000Y-45682893D01*
X162820000Y-45682893D02*
X160820000Y-45682893D01*
X162820000Y-46182893D02*
X162820000Y-45682893D01*
X162820000Y-46182893D02*
X162820000Y-56682893D01*
X162820000Y-56682893D02*
X150820000Y-56682893D01*
X159820000Y-45682893D02*
X153820000Y-45682893D01*
X153820000Y-42682893D01*
X159820000Y-42682893D01*
X159820000Y-45682893D01*
G36*
X159820000Y-45682893D02*
G01*
X153820000Y-45682893D01*
X153820000Y-42682893D01*
X159820000Y-42682893D01*
X159820000Y-45682893D01*
G37*
D11*
%TO.C,SW4*%
X109008855Y-123400000D02*
X109008855Y-125400000D01*
X110008855Y-122100000D02*
X110458855Y-121650000D01*
X110008855Y-126700000D02*
X110458855Y-127150000D01*
X110458855Y-121650000D02*
X113058855Y-121650000D01*
X110458855Y-127150000D02*
X113058855Y-127150000D01*
X113508855Y-122100000D02*
X113058855Y-121650000D01*
X113508855Y-126700000D02*
X113058855Y-127150000D01*
X114508855Y-123400000D02*
X114508855Y-125400000D01*
%TO.C,R12*%
X91345785Y-124532742D02*
X91345785Y-125007258D01*
X92390785Y-124532742D02*
X92390785Y-125007258D01*
%TO.C,R13*%
X103756070Y-124532742D02*
X103756070Y-125007258D01*
X104801070Y-124532742D02*
X104801070Y-125007258D01*
%TO.C,R6*%
X90812258Y-119502500D02*
X90337742Y-119502500D01*
X90812258Y-120547500D02*
X90337742Y-120547500D01*
%TO.C,R16*%
X140986925Y-124532742D02*
X140986925Y-125007258D01*
X142031925Y-124532742D02*
X142031925Y-125007258D01*
%TO.C,U4*%
X115330000Y-68385000D02*
X115330000Y-73685000D01*
X115330000Y-73685000D02*
X135770000Y-73685000D01*
X135770000Y-68385000D02*
X115330000Y-68385000D01*
X135770000Y-70035000D02*
X135770000Y-68385000D01*
X135770000Y-73685000D02*
X135770000Y-72035000D01*
X135770000Y-72035000D02*
G75*
G02*
X135770000Y-70035000I0J1000000D01*
G01*
%TO.C,R20*%
X165582258Y-119107500D02*
X165107742Y-119107500D01*
X165582258Y-120152500D02*
X165107742Y-120152500D01*
%TO.C,R1*%
X145362258Y-57267500D02*
X144887742Y-57267500D01*
X145362258Y-58312500D02*
X144887742Y-58312500D01*
%TO.C,RV4*%
X138496071Y-82442500D02*
X138496071Y-87162500D01*
X138496071Y-82442500D02*
X139986071Y-82442500D01*
X138496071Y-90972500D02*
X138496071Y-94032500D01*
X138496071Y-94032500D02*
X148236071Y-94032500D01*
X141706071Y-82442500D02*
X142536071Y-82442500D01*
X144156071Y-82442500D02*
X144686071Y-82442500D01*
X147056071Y-82442500D02*
X148236071Y-82442500D01*
X148236071Y-90972500D02*
X148236071Y-94032500D01*
X148246071Y-82442500D02*
X148246071Y-87162500D01*
%TO.C,R7*%
X103037258Y-119502500D02*
X102562742Y-119502500D01*
X103037258Y-120547500D02*
X102562742Y-120547500D01*
%TO.C,D1*%
X140110000Y-59960000D02*
X137450000Y-59960000D01*
X140110000Y-61660000D02*
X137450000Y-61660000D01*
X140110000Y-61660000D02*
X140110000Y-59960000D01*
%TO.C,R3*%
X160937742Y-57267500D02*
X161412258Y-57267500D01*
X160937742Y-58312500D02*
X161412258Y-58312500D01*
%TO.C,D10*%
X159935000Y-118895000D02*
X159935000Y-120365000D01*
X159935000Y-120365000D02*
X162220000Y-120365000D01*
X162220000Y-118895000D02*
X159935000Y-118895000D01*
%TO.C,SW2*%
X84188285Y-123400000D02*
X84188285Y-125400000D01*
X85188285Y-122100000D02*
X85638285Y-121650000D01*
X85188285Y-126700000D02*
X85638285Y-127150000D01*
X85638285Y-121650000D02*
X88238285Y-121650000D01*
X85638285Y-127150000D02*
X88238285Y-127150000D01*
X88688285Y-122100000D02*
X88238285Y-121650000D01*
X88688285Y-126700000D02*
X88238285Y-127150000D01*
X89688285Y-123400000D02*
X89688285Y-125400000D01*
D12*
%TO.C,kibuzzard-6692AA45*%
G36*
X134781817Y-47614693D02*
G01*
X134843619Y-47636438D01*
X134895122Y-47700530D01*
X134911144Y-47821846D01*
X134895122Y-47940873D01*
X134842475Y-48004964D01*
X134779528Y-48026710D01*
X134700558Y-48030143D01*
X133517153Y-48030143D01*
X133440472Y-48026710D01*
X133377525Y-48004964D01*
X133324878Y-47940873D01*
X133308856Y-47819557D01*
X133324878Y-47700530D01*
X133377525Y-47636438D01*
X133440472Y-47614693D01*
X133519442Y-47611259D01*
X134702847Y-47611259D01*
X134781817Y-47614693D01*
G37*
G36*
X134781817Y-48699671D02*
G01*
X134843619Y-48721416D01*
X134895122Y-48785508D01*
X134911144Y-48906824D01*
X134895122Y-49025851D01*
X134842475Y-49089943D01*
X134779528Y-49111688D01*
X134700558Y-49115122D01*
X133517153Y-49115122D01*
X133440472Y-49111688D01*
X133377525Y-49089943D01*
X133324878Y-49025851D01*
X133308856Y-48904535D01*
X133324878Y-48785508D01*
X133377525Y-48721416D01*
X133440472Y-48699671D01*
X133519442Y-48696238D01*
X134702847Y-48696238D01*
X134781817Y-48699671D01*
G37*
G36*
X134781817Y-50746023D02*
G01*
X134843619Y-50767768D01*
X134895122Y-50831860D01*
X134911144Y-50953176D01*
X134895122Y-51072203D01*
X134842475Y-51136295D01*
X134779528Y-51158040D01*
X134700558Y-51161474D01*
X133517153Y-51161474D01*
X133440472Y-51158040D01*
X133377525Y-51136295D01*
X133324878Y-51072203D01*
X133308856Y-50950887D01*
X133324878Y-50831860D01*
X133377525Y-50767768D01*
X133440472Y-50746023D01*
X133519442Y-50742590D01*
X134702847Y-50742590D01*
X134781817Y-50746023D01*
G37*
G36*
X134779528Y-46319127D02*
G01*
X134841330Y-46340873D01*
X134892833Y-46403820D01*
X134908856Y-46523992D01*
X134892833Y-46645308D01*
X134840186Y-46709399D01*
X134777239Y-46731145D01*
X134700558Y-46734578D01*
X134327454Y-46734578D01*
X134206137Y-46776924D01*
X134162647Y-46897096D01*
X134207282Y-47018412D01*
X134327454Y-47064192D01*
X134702847Y-47064192D01*
X134779528Y-47067625D01*
X134841330Y-47089371D01*
X134892833Y-47153462D01*
X134908856Y-47272489D01*
X134892833Y-47390372D01*
X134841330Y-47453319D01*
X134779528Y-47475065D01*
X134700558Y-47478498D01*
X133947482Y-47478498D01*
X133871946Y-47473920D01*
X133812432Y-47452175D01*
X133763219Y-47389228D01*
X133748340Y-47270200D01*
X133762074Y-47162618D01*
X133799843Y-47100816D01*
X133843333Y-47075637D01*
X133890258Y-47068770D01*
X133791831Y-46946309D01*
X133748340Y-46780358D01*
X133766398Y-46643527D01*
X133820571Y-46529078D01*
X133910858Y-46437010D01*
X134029377Y-46369612D01*
X134168242Y-46329174D01*
X134327454Y-46315694D01*
X134702847Y-46315694D01*
X134779528Y-46319127D01*
G37*
G36*
X134908856Y-50406109D02*
G01*
X134892833Y-50521703D01*
X134843619Y-50584650D01*
X134779528Y-50608684D01*
X134698269Y-50614406D01*
X133514864Y-50614406D01*
X133438183Y-50610973D01*
X133375236Y-50589228D01*
X133323734Y-50525136D01*
X133308856Y-50403820D01*
X133308856Y-50012404D01*
X133727740Y-50012404D01*
X133727740Y-50195522D01*
X134489971Y-50195522D01*
X134489971Y-50010115D01*
X134462217Y-49865336D01*
X134378956Y-49742303D01*
X134256209Y-49658183D01*
X134110000Y-49630143D01*
X133963505Y-49658183D01*
X133839900Y-49742303D01*
X133755780Y-49865909D01*
X133727740Y-50012404D01*
X133308856Y-50012404D01*
X133308856Y-50010115D01*
X133323448Y-49852175D01*
X133367225Y-49705680D01*
X133440186Y-49570630D01*
X133542332Y-49447024D01*
X133664793Y-49343877D01*
X133798698Y-49270200D01*
X133944049Y-49225994D01*
X134100844Y-49211259D01*
X134261860Y-49225994D01*
X134410715Y-49270200D01*
X134547411Y-49343877D01*
X134671946Y-49447024D01*
X134775594Y-49571059D01*
X134849628Y-49707396D01*
X134894049Y-49856037D01*
X134908856Y-50016982D01*
X134908856Y-50195522D01*
X134908856Y-50406109D01*
G37*
G36*
X134780672Y-51294235D02*
G01*
X134842475Y-51317125D01*
X134892833Y-51380072D01*
X134908856Y-51500243D01*
X134892833Y-51619271D01*
X134840186Y-51683362D01*
X134777239Y-51705107D01*
X134698269Y-51708541D01*
X134048197Y-51708541D01*
X134412146Y-51976352D01*
X134430458Y-51990086D01*
X134455637Y-52011831D01*
X134478526Y-52041588D01*
X134499127Y-52089657D01*
X134505994Y-52152604D01*
X134482532Y-52255608D01*
X134412146Y-52331145D01*
X134050486Y-52596667D01*
X134702847Y-52596667D01*
X134779528Y-52600100D01*
X134841330Y-52621846D01*
X134892833Y-52685937D01*
X134908856Y-52807253D01*
X134892833Y-52925136D01*
X134841330Y-52986939D01*
X134778383Y-53008684D01*
X134698269Y-53013262D01*
X133517153Y-53013262D01*
X133440472Y-53009829D01*
X133378670Y-52988083D01*
X133327167Y-52923992D01*
X133311144Y-52802675D01*
X133314578Y-52742017D01*
X133320300Y-52700816D01*
X133330601Y-52671059D01*
X133342046Y-52651602D01*
X133359213Y-52634435D01*
X133375236Y-52619557D01*
X133974950Y-52152604D01*
X133377525Y-51687940D01*
X133324878Y-51619271D01*
X133311144Y-51497954D01*
X133327167Y-51378927D01*
X133378670Y-51315980D01*
X133441617Y-51294235D01*
X133521731Y-51289657D01*
X134702847Y-51289657D01*
X134780672Y-51294235D01*
G37*
%TO.C,kibuzzard-6692AA51*%
G36*
X150028383Y-50830715D02*
G01*
X150090186Y-50852461D01*
X150141688Y-50916552D01*
X150157711Y-51037868D01*
X150141688Y-51156896D01*
X150089041Y-51220987D01*
X150026094Y-51242732D01*
X149947124Y-51246166D01*
X148763720Y-51246166D01*
X148687039Y-51242732D01*
X148624092Y-51220987D01*
X148571445Y-51156896D01*
X148555422Y-51035579D01*
X148571445Y-50916552D01*
X148624092Y-50852461D01*
X148687039Y-50830715D01*
X148766009Y-50827282D01*
X149949413Y-50827282D01*
X150028383Y-50830715D01*
G37*
G36*
X150028383Y-52877067D02*
G01*
X150090186Y-52898813D01*
X150141688Y-52962904D01*
X150157711Y-53084220D01*
X150141688Y-53203247D01*
X150089041Y-53267339D01*
X150026094Y-53289084D01*
X149947124Y-53292518D01*
X148763720Y-53292518D01*
X148687039Y-53289084D01*
X148624092Y-53267339D01*
X148571445Y-53203247D01*
X148555422Y-53081931D01*
X148571445Y-52962904D01*
X148624092Y-52898813D01*
X148687039Y-52877067D01*
X148766009Y-52873634D01*
X149949413Y-52873634D01*
X150028383Y-52877067D01*
G37*
G36*
X150014649Y-47344592D02*
G01*
X150067296Y-47357182D01*
X150114220Y-47389227D01*
X150142833Y-47451030D01*
X150155422Y-47551745D01*
X150128526Y-47688512D01*
X150047840Y-47750887D01*
X150126810Y-47862475D01*
X150153133Y-47986652D01*
X150134567Y-48126535D01*
X150078868Y-48250140D01*
X149986037Y-48357468D01*
X149865993Y-48440126D01*
X149728654Y-48489720D01*
X149574020Y-48506252D01*
X149200916Y-48506252D01*
X149121946Y-48502818D01*
X149060143Y-48481073D01*
X149008641Y-48416981D01*
X148992618Y-48297954D01*
X149008641Y-48178927D01*
X149061288Y-48114835D01*
X149124235Y-48093090D01*
X149203205Y-48089657D01*
X149574020Y-48089657D01*
X149695336Y-48046166D01*
X149738827Y-47924850D01*
X149694192Y-47804678D01*
X149574020Y-47760043D01*
X149198627Y-47760043D01*
X149121946Y-47756609D01*
X149060143Y-47734864D01*
X149008641Y-47671917D01*
X148992618Y-47551745D01*
X149008641Y-47432718D01*
X149061288Y-47368627D01*
X149124235Y-47346881D01*
X149200916Y-47343448D01*
X149953991Y-47343448D01*
X150014649Y-47344592D01*
G37*
G36*
X150155422Y-52537153D02*
G01*
X150139399Y-52652747D01*
X150090186Y-52715694D01*
X150026094Y-52739728D01*
X149944835Y-52745451D01*
X148761431Y-52745451D01*
X148684750Y-52742017D01*
X148621803Y-52720272D01*
X148570300Y-52656180D01*
X148555422Y-52534864D01*
X148555422Y-52143448D01*
X148974306Y-52143448D01*
X148974306Y-52326567D01*
X149736538Y-52326567D01*
X149736538Y-52141159D01*
X149708784Y-51996381D01*
X149625522Y-51873348D01*
X149502775Y-51789227D01*
X149356567Y-51761187D01*
X149210072Y-51789227D01*
X149086466Y-51873348D01*
X149002346Y-51996953D01*
X148974306Y-52143448D01*
X148555422Y-52143448D01*
X148555422Y-52141159D01*
X148570014Y-51983219D01*
X148613791Y-51836724D01*
X148686753Y-51701674D01*
X148788898Y-51578069D01*
X148911359Y-51474921D01*
X149045265Y-51401245D01*
X149190615Y-51357039D01*
X149347411Y-51342303D01*
X149508426Y-51357039D01*
X149657282Y-51401245D01*
X149793977Y-51474921D01*
X149918512Y-51578069D01*
X150022160Y-51702103D01*
X150096195Y-51838441D01*
X150140615Y-51987082D01*
X150155422Y-52148026D01*
X150155422Y-52326567D01*
X150155422Y-52537153D01*
G37*
G36*
X149321087Y-46332861D02*
G01*
X149384034Y-46383219D01*
X149408069Y-46446166D01*
X149413791Y-46523991D01*
X149411502Y-46643019D01*
X149677024Y-46643019D01*
X149745694Y-46630429D01*
X149764006Y-46581216D01*
X149768584Y-46496524D01*
X149790329Y-46434721D01*
X149846409Y-46388941D01*
X149951702Y-46375207D01*
X150069585Y-46392375D01*
X150132532Y-46446166D01*
X150154278Y-46509113D01*
X150157711Y-46583505D01*
X150145249Y-46731144D01*
X150107862Y-46850553D01*
X150045551Y-46941731D01*
X149957043Y-47005950D01*
X149841068Y-47044481D01*
X149697625Y-47057325D01*
X149406924Y-47057325D01*
X149406924Y-47114549D01*
X149356567Y-47220987D01*
X149205494Y-47251888D01*
X149057854Y-47215265D01*
X149008641Y-47105393D01*
X149008641Y-47057325D01*
X148809499Y-47057325D01*
X148732818Y-47053891D01*
X148673305Y-47032146D01*
X148625236Y-46969199D01*
X148610358Y-46849027D01*
X148626381Y-46733433D01*
X148677883Y-46670486D01*
X148741974Y-46647597D01*
X148818655Y-46643019D01*
X149001774Y-46643019D01*
X148997196Y-46521702D01*
X148998340Y-46461044D01*
X149010930Y-46407253D01*
X149042976Y-46358040D01*
X149105923Y-46328283D01*
X149207783Y-46315694D01*
X149321087Y-46332861D01*
G37*
G36*
X150027239Y-53425279D02*
G01*
X150089041Y-53448169D01*
X150139399Y-53511116D01*
X150155422Y-53631288D01*
X150139399Y-53750315D01*
X150086753Y-53814406D01*
X150023805Y-53836152D01*
X149944835Y-53839585D01*
X149294764Y-53839585D01*
X149658712Y-54107396D01*
X149677024Y-54121130D01*
X149702203Y-54142876D01*
X149725093Y-54172632D01*
X149745694Y-54220701D01*
X149752561Y-54283648D01*
X149729099Y-54386652D01*
X149658712Y-54462189D01*
X149297053Y-54727711D01*
X149949413Y-54727711D01*
X150026094Y-54731144D01*
X150087897Y-54752890D01*
X150139399Y-54816981D01*
X150155422Y-54938298D01*
X150139399Y-55056180D01*
X150087897Y-55117983D01*
X150024950Y-55139728D01*
X149944835Y-55144306D01*
X148763720Y-55144306D01*
X148687039Y-55140873D01*
X148625236Y-55119127D01*
X148573734Y-55055036D01*
X148557711Y-54933720D01*
X148561144Y-54873062D01*
X148566867Y-54831860D01*
X148577167Y-54802103D01*
X148588612Y-54782647D01*
X148605780Y-54765479D01*
X148621803Y-54750601D01*
X149221516Y-54283648D01*
X148624092Y-53818984D01*
X148571445Y-53750315D01*
X148557711Y-53628999D01*
X148573734Y-53509971D01*
X148625236Y-53447024D01*
X148688183Y-53425279D01*
X148768298Y-53420701D01*
X149949413Y-53420701D01*
X150027239Y-53425279D01*
G37*
G36*
X150168011Y-49549742D02*
G01*
X150123376Y-49697668D01*
X150048984Y-49833577D01*
X149944835Y-49957468D01*
X149819657Y-50060615D01*
X149682175Y-50134292D01*
X149532389Y-50178498D01*
X149370300Y-50193233D01*
X149202918Y-50178927D01*
X149048698Y-50136009D01*
X148907639Y-50064478D01*
X148779742Y-49964335D01*
X148673591Y-49843734D01*
X148597768Y-49710830D01*
X148552275Y-49565622D01*
X148537110Y-49408112D01*
X148537961Y-49398956D01*
X148955994Y-49398956D01*
X148985465Y-49543162D01*
X149073877Y-49664478D01*
X149204635Y-49746881D01*
X149361144Y-49774349D01*
X149514506Y-49746595D01*
X149644979Y-49663333D01*
X149734249Y-49542303D01*
X149764006Y-49401245D01*
X149735107Y-49255608D01*
X149648412Y-49134578D01*
X149518798Y-49053033D01*
X149361144Y-49025851D01*
X149204635Y-49053319D01*
X149073877Y-49135722D01*
X148985465Y-49256466D01*
X148955994Y-49398956D01*
X148537961Y-49398956D01*
X148552060Y-49247310D01*
X148596910Y-49099099D01*
X148671660Y-48963476D01*
X148776309Y-48840443D01*
X148902561Y-48738298D01*
X149042117Y-48665336D01*
X149194979Y-48621559D01*
X149361144Y-48606967D01*
X149524449Y-48621345D01*
X149675594Y-48664478D01*
X149814578Y-48736366D01*
X149941402Y-48837010D01*
X150047053Y-48957825D01*
X150122518Y-49090229D01*
X150167797Y-49234220D01*
X150182890Y-49389800D01*
X150181825Y-49401245D01*
X150168011Y-49549742D01*
G37*
D11*
%TO.C,R17*%
X153397210Y-124532742D02*
X153397210Y-125007258D01*
X154442210Y-124532742D02*
X154442210Y-125007258D01*
%TO.C,SW8*%
X158650000Y-123400000D02*
X158650000Y-125400000D01*
X159650000Y-122100000D02*
X160100000Y-121650000D01*
X159650000Y-126700000D02*
X160100000Y-127150000D01*
X160100000Y-121650000D02*
X162700000Y-121650000D01*
X160100000Y-127150000D02*
X162700000Y-127150000D01*
X163150000Y-122100000D02*
X162700000Y-121650000D01*
X163150000Y-126700000D02*
X162700000Y-127150000D01*
X164150000Y-123400000D02*
X164150000Y-125400000D01*
%TO.C,SW9*%
X74350000Y-98625000D02*
X78450000Y-98625000D01*
X74350000Y-101025000D02*
X74350000Y-98625000D01*
X74350000Y-105825000D02*
X74350000Y-103225000D01*
X74350000Y-110425000D02*
X74350000Y-108025000D01*
X78450000Y-110425000D02*
X74350000Y-110425000D01*
X80450000Y-105025000D02*
X80450000Y-104025000D01*
X80950000Y-104525000D02*
X79950000Y-104525000D01*
X82450000Y-98625000D02*
X86550000Y-98625000D01*
X82450000Y-110425000D02*
X86550000Y-110425000D01*
X86550000Y-110425000D02*
X86550000Y-98625000D01*
X87650000Y-108625000D02*
X87950000Y-108325000D01*
X87950000Y-108325000D02*
X88250000Y-108625000D01*
X88250000Y-108625000D02*
X87650000Y-108625000D01*
X83450000Y-104525000D02*
G75*
G02*
X77450000Y-104525000I-3000000J0D01*
G01*
X77450000Y-104525000D02*
G75*
G02*
X83450000Y-104525000I3000000J0D01*
G01*
%TO.C,RV7*%
X138496071Y-99680000D02*
X138496071Y-104400000D01*
X138496071Y-99680000D02*
X139986071Y-99680000D01*
X138496071Y-108210000D02*
X138496071Y-111270000D01*
X138496071Y-111270000D02*
X148236071Y-111270000D01*
X141706071Y-99680000D02*
X142536071Y-99680000D01*
X144156071Y-99680000D02*
X144686071Y-99680000D01*
X147056071Y-99680000D02*
X148236071Y-99680000D01*
X148236071Y-108210000D02*
X148236071Y-111270000D01*
X148246071Y-99680000D02*
X148246071Y-104400000D01*
%TO.C,RV5*%
X155491905Y-82442500D02*
X155491905Y-87162500D01*
X155491905Y-82442500D02*
X156981905Y-82442500D01*
X155491905Y-90972500D02*
X155491905Y-94032500D01*
X155491905Y-94032500D02*
X165231905Y-94032500D01*
X158701905Y-82442500D02*
X159531905Y-82442500D01*
X161151905Y-82442500D02*
X161681905Y-82442500D01*
X164051905Y-82442500D02*
X165231905Y-82442500D01*
X165231905Y-90972500D02*
X165231905Y-94032500D01*
X165241905Y-82442500D02*
X165241905Y-87162500D01*
%TO.C,R10*%
X140287258Y-119107500D02*
X139812742Y-119107500D01*
X140287258Y-120152500D02*
X139812742Y-120152500D01*
%TD*%
%LPC*%
D13*
%TO.C,J2*%
X126188595Y-46682893D03*
X116188595Y-46682893D03*
X126188595Y-49182893D03*
X116188595Y-49182893D03*
X121188595Y-54182893D03*
D14*
X126188595Y-54182893D03*
X123688595Y-54182893D03*
D15*
X121188595Y-49182893D03*
D14*
X116188595Y-54182893D03*
X118688595Y-54182893D03*
%TD*%
D16*
%TO.C,RV6*%
X131170237Y-106300000D03*
D17*
X121582237Y-106312000D03*
D18*
X128870237Y-98800000D03*
D19*
X126370237Y-98800000D03*
X123870237Y-98800000D03*
%TD*%
D16*
%TO.C,RV2*%
X165170000Y-71825000D03*
D17*
X155582000Y-71837000D03*
D18*
X162870000Y-64325000D03*
D19*
X160370000Y-64325000D03*
X157870000Y-64325000D03*
%TD*%
D13*
%TO.C,J1*%
X109872893Y-46682893D03*
X99872893Y-46682893D03*
X109872893Y-49182893D03*
X99872893Y-49182893D03*
X104872893Y-54182893D03*
D14*
X109872893Y-54182893D03*
X107372893Y-54182893D03*
D15*
X104872893Y-49182893D03*
D14*
X99872893Y-54182893D03*
X102372893Y-54182893D03*
%TD*%
D20*
%TO.C,U1*%
X72630000Y-59805000D03*
X72630000Y-91805000D03*
X112130000Y-59805000D03*
X112130000Y-91805000D03*
D21*
X71830000Y-68020000D03*
D22*
X71830000Y-70560000D03*
X71830000Y-73100000D03*
X71830000Y-75640000D03*
X71830000Y-78180000D03*
X71830000Y-80720000D03*
X71830000Y-83260000D03*
%TD*%
D23*
%TO.C,R15*%
X129099140Y-123945000D03*
X129099140Y-125595000D03*
%TD*%
D24*
%TO.C,R2*%
X149955000Y-57790000D03*
X151605000Y-57790000D03*
%TD*%
D25*
%TO.C,D3*%
X73720500Y-120025000D03*
X75295500Y-120025000D03*
%TD*%
D26*
%TO.C,SW5*%
X121169140Y-122525000D03*
X127169140Y-122525000D03*
X121169140Y-126275000D03*
X127169140Y-126275000D03*
%TD*%
D27*
%TO.C,R5*%
X78798000Y-120025000D03*
X77148000Y-120025000D03*
%TD*%
D23*
%TO.C,R14*%
X116688855Y-123945000D03*
X116688855Y-125595000D03*
%TD*%
D16*
%TO.C,RV1*%
X148166071Y-71825000D03*
D17*
X138578071Y-71837000D03*
D18*
X145866071Y-64325000D03*
D19*
X143366071Y-64325000D03*
X140866071Y-64325000D03*
%TD*%
D25*
%TO.C,D6*%
X110991355Y-120025000D03*
X112566355Y-120025000D03*
%TD*%
D26*
%TO.C,SW3*%
X96348570Y-122525000D03*
X102348570Y-122525000D03*
X96348570Y-126275000D03*
X102348570Y-126275000D03*
%TD*%
D27*
%TO.C,R8*%
X116150000Y-120025000D03*
X114500000Y-120025000D03*
%TD*%
D25*
%TO.C,D8*%
X135797500Y-119630000D03*
X137372500Y-119630000D03*
%TD*%
D26*
%TO.C,SW7*%
X145989710Y-122525000D03*
X151989710Y-122525000D03*
X145989710Y-126275000D03*
X151989710Y-126275000D03*
%TD*%
D16*
%TO.C,RV3*%
X131170237Y-89062500D03*
D17*
X121582237Y-89074500D03*
D18*
X128870237Y-81562500D03*
D19*
X126370237Y-81562500D03*
X123870237Y-81562500D03*
%TD*%
D28*
%TO.C,H4*%
X165930000Y-132590000D03*
%TD*%
D29*
%TO.C,R4*%
X124505000Y-59915000D03*
X124505000Y-58265000D03*
%TD*%
D28*
%TO.C,H1*%
X72000000Y-48710000D03*
%TD*%
D23*
%TO.C,R18*%
X166330000Y-123945000D03*
X166330000Y-125595000D03*
%TD*%
D13*
%TO.C,J3*%
X146504297Y-46682893D03*
X136504297Y-46682893D03*
X146504297Y-49182893D03*
X136504297Y-49182893D03*
X141504297Y-54182893D03*
D14*
X146504297Y-54182893D03*
X144004297Y-54182893D03*
D15*
X141504297Y-49182893D03*
D14*
X136504297Y-54182893D03*
X139004297Y-54182893D03*
%TD*%
D16*
%TO.C,RV8*%
X165161905Y-106300000D03*
D17*
X155573905Y-106312000D03*
D18*
X162861905Y-98800000D03*
D19*
X160361905Y-98800000D03*
X157861905Y-98800000D03*
%TD*%
D25*
%TO.C,D9*%
X148222210Y-119630000D03*
X149797210Y-119630000D03*
%TD*%
D28*
%TO.C,H3*%
X71930000Y-132590000D03*
%TD*%
D27*
%TO.C,R19*%
X153250000Y-119630000D03*
X151600000Y-119630000D03*
%TD*%
D25*
%TO.C,D7*%
X123401640Y-120025000D03*
X124976640Y-120025000D03*
%TD*%
%TO.C,D5*%
X98581070Y-120025000D03*
X100156070Y-120025000D03*
%TD*%
D30*
%TO.C,U2*%
X134925000Y-63350000D03*
D31*
X134925000Y-60810000D03*
X134925000Y-58270000D03*
X127305000Y-58270000D03*
X127305000Y-60810000D03*
X127305000Y-63350000D03*
%TD*%
D30*
%TO.C,U3*%
X113765000Y-100725000D03*
D31*
X111225000Y-100725000D03*
X108685000Y-100725000D03*
X106145000Y-100725000D03*
X103605000Y-100725000D03*
X101065000Y-100725000D03*
X98525000Y-100725000D03*
X95985000Y-100725000D03*
X95985000Y-108345000D03*
X98525000Y-108345000D03*
X101065000Y-108345000D03*
X103605000Y-108345000D03*
X106145000Y-108345000D03*
X108685000Y-108345000D03*
X111225000Y-108345000D03*
X113765000Y-108345000D03*
%TD*%
D26*
%TO.C,SW6*%
X133565000Y-122525000D03*
X139565000Y-122525000D03*
X133565000Y-126275000D03*
X139565000Y-126275000D03*
%TD*%
D32*
%TO.C,C1*%
X140485000Y-57790000D03*
X138935000Y-57790000D03*
%TD*%
D25*
%TO.C,D4*%
X86170785Y-120025000D03*
X87745785Y-120025000D03*
%TD*%
D23*
%TO.C,R11*%
X79458000Y-123945000D03*
X79458000Y-125595000D03*
%TD*%
D27*
%TO.C,R9*%
X128525000Y-120025000D03*
X126875000Y-120025000D03*
%TD*%
D26*
%TO.C,SW1*%
X71488000Y-122525000D03*
X77488000Y-122525000D03*
X71488000Y-126275000D03*
X77488000Y-126275000D03*
%TD*%
D13*
%TO.C,J4*%
X161820000Y-46682893D03*
X151820000Y-46682893D03*
X161820000Y-49182893D03*
X151820000Y-49182893D03*
X156820000Y-54182893D03*
D14*
X161820000Y-54182893D03*
X159320000Y-54182893D03*
D15*
X156820000Y-49182893D03*
D14*
X151820000Y-54182893D03*
X154320000Y-54182893D03*
%TD*%
D26*
%TO.C,SW4*%
X108758855Y-122525000D03*
X114758855Y-122525000D03*
X108758855Y-126275000D03*
X114758855Y-126275000D03*
%TD*%
D23*
%TO.C,R12*%
X91868285Y-123945000D03*
X91868285Y-125595000D03*
%TD*%
%TO.C,R13*%
X104278570Y-123945000D03*
X104278570Y-125595000D03*
%TD*%
D27*
%TO.C,R6*%
X91400000Y-120025000D03*
X89750000Y-120025000D03*
%TD*%
D23*
%TO.C,R16*%
X141509425Y-123945000D03*
X141509425Y-125595000D03*
%TD*%
D30*
%TO.C,U4*%
X134440000Y-67225000D03*
D31*
X131900000Y-67225000D03*
X129360000Y-67225000D03*
X126820000Y-67225000D03*
X124280000Y-67225000D03*
X121740000Y-67225000D03*
X119200000Y-67225000D03*
X116660000Y-67225000D03*
X116660000Y-74845000D03*
X119200000Y-74845000D03*
X121740000Y-74845000D03*
X124280000Y-74845000D03*
X126820000Y-74845000D03*
X129360000Y-74845000D03*
X131900000Y-74845000D03*
X134440000Y-74845000D03*
%TD*%
D27*
%TO.C,R20*%
X166170000Y-119630000D03*
X164520000Y-119630000D03*
%TD*%
%TO.C,R1*%
X145950000Y-57790000D03*
X144300000Y-57790000D03*
%TD*%
D16*
%TO.C,RV4*%
X148166071Y-89062500D03*
D17*
X138578071Y-89074500D03*
D18*
X145866071Y-81562500D03*
D19*
X143366071Y-81562500D03*
X140866071Y-81562500D03*
%TD*%
D27*
%TO.C,R7*%
X103625000Y-120025000D03*
X101975000Y-120025000D03*
%TD*%
D33*
%TO.C,D1*%
X139550000Y-60810000D03*
X137450000Y-60810000D03*
%TD*%
D24*
%TO.C,R3*%
X160350000Y-57790000D03*
X162000000Y-57790000D03*
%TD*%
D25*
%TO.C,D10*%
X160632500Y-119630000D03*
X162207500Y-119630000D03*
%TD*%
D26*
%TO.C,SW2*%
X83938285Y-122525000D03*
X89938285Y-122525000D03*
X83938285Y-126275000D03*
X89938285Y-126275000D03*
%TD*%
D23*
%TO.C,R17*%
X153919710Y-123945000D03*
X153919710Y-125595000D03*
%TD*%
D26*
%TO.C,SW8*%
X158400000Y-122525000D03*
X164400000Y-122525000D03*
X158400000Y-126275000D03*
X164400000Y-126275000D03*
%TD*%
D34*
%TO.C,SW9*%
X87950000Y-107025000D03*
D35*
X87950000Y-102025000D03*
X87950000Y-104525000D03*
D36*
X80450000Y-110125000D03*
X80450000Y-98925000D03*
D35*
X73450000Y-102025000D03*
X73450000Y-107025000D03*
%TD*%
D16*
%TO.C,RV7*%
X148166071Y-106300000D03*
D17*
X138578071Y-106312000D03*
D18*
X145866071Y-98800000D03*
D19*
X143366071Y-98800000D03*
X140866071Y-98800000D03*
%TD*%
D28*
%TO.C,H2*%
X165930000Y-48590000D03*
%TD*%
D16*
%TO.C,RV5*%
X165161905Y-89062500D03*
D17*
X155573905Y-89074500D03*
D18*
X162861905Y-81562500D03*
D19*
X160361905Y-81562500D03*
X157861905Y-81562500D03*
%TD*%
D27*
%TO.C,R10*%
X140875000Y-119630000D03*
X139225000Y-119630000D03*
%TD*%
D21*
%TO.C,A1*%
X75250000Y-63425000D03*
D37*
X77790000Y-63425000D03*
X80330000Y-63425000D03*
X82870000Y-63425000D03*
X85410000Y-63425000D03*
X87950000Y-63425000D03*
X90490000Y-63425000D03*
X93030000Y-63425000D03*
X95570000Y-63425000D03*
X98110000Y-63425000D03*
X100650000Y-63425000D03*
X103190000Y-63425000D03*
X105730000Y-63425000D03*
X108270000Y-63425000D03*
X110810000Y-63425000D03*
X113350000Y-63425000D03*
X115890000Y-63425000D03*
X118430000Y-63425000D03*
X120970000Y-63425000D03*
X123510000Y-63425000D03*
X123510000Y-78665000D03*
X120970000Y-78665000D03*
X118430000Y-78665000D03*
X115890000Y-78665000D03*
X113350000Y-78665000D03*
X110810000Y-78665000D03*
X108270000Y-78665000D03*
X105730000Y-78665000D03*
X103190000Y-78665000D03*
X100650000Y-78665000D03*
X98110000Y-78665000D03*
X95570000Y-78665000D03*
X93030000Y-78665000D03*
X90490000Y-78665000D03*
X87950000Y-78665000D03*
X85410000Y-78665000D03*
X82870000Y-78665000D03*
X80330000Y-78665000D03*
X77790000Y-78665000D03*
X75250000Y-78665000D03*
%TD*%
%LPD*%
M02*
