%TF.GenerationSoftware,KiCad,Pcbnew,9.0.5*%
%TF.CreationDate,2025-10-31T17:46:48-05:00*%
%TF.ProjectId,wah,7761682e-6b69-4636-9164-5f7063625858,0.3*%
%TF.SameCoordinates,Original*%
%TF.FileFunction,Copper,L2,Inr*%
%TF.FilePolarity,Positive*%
%FSLAX46Y46*%
G04 Gerber Fmt 4.6, Leading zero omitted, Abs format (unit mm)*
G04 Created by KiCad (PCBNEW 9.0.5) date 2025-10-31 17:46:48*
%MOMM*%
%LPD*%
G01*
G04 APERTURE LIST*
G04 Aperture macros list*
%AMRoundRect*
0 Rectangle with rounded corners*
0 $1 Rounding radius*
0 $2 $3 $4 $5 $6 $7 $8 $9 X,Y pos of 4 corners*
0 Add a 4 corners polygon primitive as box body*
4,1,4,$2,$3,$4,$5,$6,$7,$8,$9,$2,$3,0*
0 Add four circle primitives for the rounded corners*
1,1,$1+$1,$2,$3*
1,1,$1+$1,$4,$5*
1,1,$1+$1,$6,$7*
1,1,$1+$1,$8,$9*
0 Add four rect primitives between the rounded corners*
20,1,$1+$1,$2,$3,$4,$5,0*
20,1,$1+$1,$4,$5,$6,$7,0*
20,1,$1+$1,$6,$7,$8,$9,0*
20,1,$1+$1,$8,$9,$2,$3,0*%
G04 Aperture macros list end*
%TA.AperFunction,ComponentPad*%
%ADD10RoundRect,0.250000X-0.550000X-0.550000X0.550000X-0.550000X0.550000X0.550000X-0.550000X0.550000X0*%
%TD*%
%TA.AperFunction,ComponentPad*%
%ADD11C,1.600000*%
%TD*%
%TA.AperFunction,ComponentPad*%
%ADD12R,1.800000X1.800000*%
%TD*%
%TA.AperFunction,ComponentPad*%
%ADD13O,1.800000X1.800000*%
%TD*%
%TA.AperFunction,ComponentPad*%
%ADD14O,3.580000X2.720000*%
%TD*%
%TA.AperFunction,ComponentPad*%
%ADD15O,3.580000X2.696000*%
%TD*%
%TA.AperFunction,ComponentPad*%
%ADD16C,1.800000*%
%TD*%
%TA.AperFunction,ComponentPad*%
%ADD17R,1.500000X1.500000*%
%TD*%
%TA.AperFunction,ComponentPad*%
%ADD18C,1.500000*%
%TD*%
%TA.AperFunction,ComponentPad*%
%ADD19C,3.000000*%
%TD*%
%TA.AperFunction,ComponentPad*%
%ADD20O,2.300000X4.500000*%
%TD*%
%TA.AperFunction,ComponentPad*%
%ADD21O,4.000000X2.300000*%
%TD*%
%TA.AperFunction,ComponentPad*%
%ADD22O,3.000000X3.500000*%
%TD*%
%TA.AperFunction,ComponentPad*%
%ADD23R,1.600000X1.600000*%
%TD*%
%TA.AperFunction,ComponentPad*%
%ADD24O,1.600000X1.600000*%
%TD*%
%TA.AperFunction,ComponentPad*%
%ADD25R,1.700000X1.700000*%
%TD*%
%TA.AperFunction,ComponentPad*%
%ADD26C,1.700000*%
%TD*%
%TA.AperFunction,Conductor*%
%ADD27C,0.500000*%
%TD*%
%TA.AperFunction,Conductor*%
%ADD28C,1.000000*%
%TD*%
G04 APERTURE END LIST*
D10*
%TO.N,/VREF*%
%TO.C,C13*%
X47700000Y-75035000D03*
D11*
%TO.N,GND*%
X50200000Y-75035000D03*
%TD*%
D10*
%TO.N,+9V*%
%TO.C,C3*%
X47700000Y-83335000D03*
D11*
%TO.N,GND*%
X50200000Y-83335000D03*
%TD*%
D12*
%TO.N,+9V*%
%TO.C,D1*%
X61885000Y-48270000D03*
D13*
%TO.N,Net-(D1-A)*%
X61885000Y-55890000D03*
%TD*%
D11*
%TO.N,/AUDIO_OUT*%
%TO.C,C11*%
X92685000Y-79020000D03*
%TO.N,Net-(C11-Pad2)*%
X87685000Y-79020000D03*
%TD*%
D14*
%TO.N,*%
%TO.C,RV2*%
X48447000Y-45031600D03*
D15*
X48435000Y-35443600D03*
D12*
%TO.N,GND*%
X55947000Y-42731600D03*
D16*
%TO.N,/POT2*%
X55947000Y-40231600D03*
%TO.N,VDD*%
X55947000Y-37731600D03*
%TD*%
D11*
%TO.N,Net-(C6-Pad1)*%
%TO.C,C6*%
X88685000Y-56370000D03*
%TO.N,/AUDIO_IN*%
X93685000Y-56370000D03*
%TD*%
D17*
%TO.N,GND*%
%TO.C,GND1*%
X137385000Y-78370000D03*
%TD*%
D11*
%TO.N,GND*%
%TO.C,R6*%
X59785000Y-36360000D03*
%TO.N,/VREF*%
X59785000Y-43980000D03*
%TD*%
D17*
%TO.N,Net-(U1C-V+)*%
%TO.C,U2*%
X59645000Y-61830000D03*
D18*
%TO.N,GND*%
X62185000Y-61830000D03*
%TO.N,+9V*%
X64725000Y-61830000D03*
%TD*%
D17*
%TO.N,Net-(U1C-V+)*%
%TO.C,TP_5V1*%
X128685000Y-78370000D03*
%TD*%
D19*
%TO.N,GND*%
%TO.C,J3*%
X121515000Y-80570000D03*
%TO.N,N/C*%
X105285000Y-80570000D03*
%TO.N,Net-(J3-PadT)*%
X121515000Y-67870000D03*
%TO.N,N/C*%
X105285000Y-67870000D03*
%TD*%
D11*
%TO.N,+9V*%
%TO.C,C5*%
X63900000Y-75101667D03*
%TO.N,GND*%
X58900000Y-75101667D03*
%TD*%
%TO.N,/VREF*%
%TO.C,R2*%
X87375000Y-38246800D03*
%TO.N,Net-(U1B-+)*%
X94995000Y-38246800D03*
%TD*%
D20*
%TO.N,GND*%
%TO.C,J1*%
X56585000Y-65270000D03*
%TO.N,Net-(D1-A)*%
X50585000Y-65270000D03*
D21*
%TO.N,unconnected-(J1-Pad3)*%
X54085000Y-69920000D03*
%TD*%
D14*
%TO.N,*%
%TO.C,RV1*%
X48447000Y-58352000D03*
D15*
X48435000Y-48764000D03*
D12*
%TO.N,GND*%
X55947000Y-56052000D03*
D16*
%TO.N,/POT1*%
X55947000Y-53552000D03*
%TO.N,VDD*%
X55947000Y-51052000D03*
%TD*%
D11*
%TO.N,Net-(U1C-V+)*%
%TO.C,C8*%
X63900000Y-84035000D03*
%TO.N,GND*%
X58900000Y-84035000D03*
%TD*%
%TO.N,Net-(C11-Pad2)*%
%TO.C,R7*%
X99885000Y-81370000D03*
%TO.N,Net-(U1A-+)*%
X99885000Y-73750000D03*
%TD*%
%TO.N,/FX_IN*%
%TO.C,R1*%
X87375000Y-42654533D03*
%TO.N,Net-(C1-Pad1)*%
X94995000Y-42654533D03*
%TD*%
%TO.N,Net-(R9-Pad1)*%
%TO.C,R9*%
X126285000Y-48390000D03*
%TO.N,Net-(D2-A)*%
X126285000Y-40770000D03*
%TD*%
%TO.N,Net-(U1C-V+)*%
%TO.C,R5*%
X63885000Y-43980000D03*
%TO.N,/VREF*%
X63885000Y-36360000D03*
%TD*%
D17*
%TO.N,/VREF*%
%TO.C,TP_VREF1*%
X128685000Y-83570000D03*
%TD*%
D12*
%TO.N,GND*%
%TO.C,D2*%
X133470000Y-40770000D03*
D16*
%TO.N,Net-(D2-A)*%
X130930000Y-40770000D03*
%TD*%
D11*
%TO.N,+9V*%
%TO.C,C4*%
X63900000Y-70635000D03*
%TO.N,GND*%
X58900000Y-70635000D03*
%TD*%
D22*
%TO.N,Net-(SW1-A-Pad1)*%
%TO.C,SW1*%
X127835000Y-65650000D03*
%TO.N,Net-(J2-PadT)*%
X132535000Y-65650000D03*
%TO.N,/FX_IN*%
X137235000Y-65650000D03*
%TO.N,Net-(SW1-A-Pad1)*%
X127835000Y-60350000D03*
%TO.N,Net-(J3-PadT)*%
X132535000Y-60350000D03*
%TO.N,/FX_OUT*%
X137235000Y-60350000D03*
%TO.N,unconnected-(SW1-A-Pad7)*%
X127835000Y-55050000D03*
%TO.N,+9V*%
X132535000Y-55050000D03*
%TO.N,Net-(R9-Pad1)*%
X137235000Y-55050000D03*
%TD*%
D19*
%TO.N,GND*%
%TO.C,J2*%
X105285000Y-40470000D03*
%TO.N,N/C*%
X121515000Y-40470000D03*
%TO.N,Net-(J2-PadT)*%
X105285000Y-53170000D03*
%TO.N,N/C*%
X121515000Y-53170000D03*
%TD*%
D11*
%TO.N,Net-(U1B--)*%
%TO.C,R3*%
X94995000Y-51470000D03*
%TO.N,Net-(C6-Pad1)*%
X87375000Y-51470000D03*
%TD*%
%TO.N,Net-(U1C-V+)*%
%TO.C,C7*%
X63900000Y-79568333D03*
%TO.N,GND*%
X58900000Y-79568333D03*
%TD*%
%TO.N,/VREF*%
%TO.C,R8*%
X99885000Y-61870000D03*
%TO.N,Net-(U1A-+)*%
X99885000Y-69490000D03*
%TD*%
%TO.N,Net-(C1-Pad1)*%
%TO.C,C1*%
X99885000Y-48513600D03*
%TO.N,GND*%
X99885000Y-53513600D03*
%TD*%
%TO.N,Net-(C1-Pad1)*%
%TO.C,C2*%
X99885000Y-43070000D03*
%TO.N,Net-(U1B-+)*%
X99885000Y-38070000D03*
%TD*%
D23*
%TO.N,/FX_OUT*%
%TO.C,U1*%
X94985000Y-69090000D03*
D24*
X94985000Y-66550000D03*
%TO.N,Net-(U1A-+)*%
X94985000Y-64010000D03*
%TO.N,GND*%
X94985000Y-61470000D03*
%TO.N,Net-(U1B-+)*%
X87365000Y-61470000D03*
%TO.N,Net-(U1B--)*%
X87365000Y-64010000D03*
X87365000Y-66550000D03*
%TO.N,Net-(U1C-V+)*%
X87365000Y-69090000D03*
%TD*%
D11*
%TO.N,/AUDIO_OUT*%
%TO.C,C9*%
X92685000Y-84370000D03*
%TO.N,GND*%
X87685000Y-84370000D03*
%TD*%
%TO.N,/AUDIO_IN*%
%TO.C,R4*%
X87375000Y-47062267D03*
%TO.N,GND*%
X94995000Y-47062267D03*
%TD*%
D25*
%TO.N,unconnected-(A1-USB_ID-Pad1)*%
%TO.C,A1*%
X83252000Y-83411600D03*
D26*
%TO.N,unconnected-(A1-SD_DATA_3-Pad2)*%
X83252000Y-80871600D03*
%TO.N,unconnected-(A1-SD_DATA_2-Pad3)*%
X83252000Y-78331600D03*
%TO.N,unconnected-(A1-SD_DATA_1-Pad4)*%
X83252000Y-75791600D03*
%TO.N,unconnected-(A1-SD_DATA_0-Pad5)*%
X83252000Y-73251600D03*
%TO.N,unconnected-(A1-SD_CMD-Pad6)*%
X83252000Y-70711600D03*
%TO.N,unconnected-(A1-SD_CLK-Pad7)*%
X83252000Y-68171600D03*
%TO.N,unconnected-(A1-SPI1_CS-Pad8)*%
X83252000Y-65631600D03*
%TO.N,unconnected-(A1-SPI1_SCK-Pad9)*%
X83252000Y-63091600D03*
%TO.N,unconnected-(A1-SPI1_POCI-Pad10)*%
X83252000Y-60551600D03*
%TO.N,unconnected-(A1-SPI1_PICO-Pad11)*%
X83252000Y-58011600D03*
%TO.N,unconnected-(A1-I2C1_SCL-Pad12)*%
X83252000Y-55471600D03*
%TO.N,unconnected-(A1-I2C1_SDA-Pad13)*%
X83252000Y-52931600D03*
%TO.N,unconnected-(A1-USART1_TX-Pad14)*%
X83252000Y-50391600D03*
%TO.N,unconnected-(A1-USART1_RX-Pad15)*%
X83252000Y-47851600D03*
%TO.N,/AUDIO_IN*%
X83252000Y-45311600D03*
%TO.N,unconnected-(A1-AUDIO_IN_2-Pad17)*%
X83252000Y-42771600D03*
%TO.N,/AUDIO_OUT*%
X83252000Y-40231600D03*
%TO.N,unconnected-(A1-AUDIO_OUT_2-Pad19)*%
X83252000Y-37691600D03*
%TO.N,GND*%
X83252000Y-35151600D03*
%TO.N,VDD*%
X68012000Y-35151600D03*
%TO.N,unconnected-(A1-ADC_0-Pad22)*%
X68012000Y-37691600D03*
%TO.N,/POT2*%
X68012000Y-40231600D03*
%TO.N,/POT1*%
X68012000Y-42771600D03*
%TO.N,unconnected-(A1-ADC_3-Pad25)*%
X68012000Y-45311600D03*
%TO.N,unconnected-(A1-ADC_4-Pad26)*%
X68012000Y-47851600D03*
%TO.N,unconnected-(A1-ADC_5-Pad27)*%
X68012000Y-50391600D03*
%TO.N,unconnected-(A1-ADC_6-Pad28)*%
X68012000Y-52931600D03*
%TO.N,unconnected-(A1-DAC_OUT2-Pad29)*%
X68012000Y-55471600D03*
%TO.N,unconnected-(A1-DAC_OUT1-Pad30)*%
X68012000Y-58011600D03*
%TO.N,unconnected-(A1-SAI2_MCLK-Pad31)*%
X68012000Y-60551600D03*
%TO.N,unconnected-(A1-SAI2_SD_B-Pad32)*%
X68012000Y-63091600D03*
%TO.N,unconnected-(A1-SAI2_SD_A-Pad33)*%
X68012000Y-65631600D03*
%TO.N,unconnected-(A1-SAI2_FS-Pad34)*%
X68012000Y-68171600D03*
%TO.N,unconnected-(A1-SAI2_SCK-Pad35)*%
X68012000Y-70711600D03*
%TO.N,unconnected-(A1-USB_D_--Pad36)*%
X68012000Y-73251600D03*
%TO.N,unconnected-(A1-USB_D_+-Pad37)*%
X68012000Y-75791600D03*
%TO.N,unconnected-(A1-3V3_D-Pad38)*%
X68012000Y-78331600D03*
%TO.N,+9V*%
X68012000Y-80871600D03*
%TO.N,GND*%
X68012000Y-83411600D03*
%TD*%
D17*
%TO.N,/FX_IN*%
%TO.C,TP_IN1*%
X133035000Y-83570000D03*
%TD*%
D11*
%TO.N,Net-(U1A-+)*%
%TO.C,C12*%
X92685000Y-73670000D03*
%TO.N,GND*%
X87685000Y-73670000D03*
%TD*%
D17*
%TO.N,GND*%
%TO.C,GND2*%
X137385000Y-83570000D03*
%TD*%
%TO.N,/FX_OUT*%
%TO.C,TP_OUT1*%
X133035000Y-78370000D03*
%TD*%
D27*
%TO.N,/POT1*%
X55947000Y-53552000D02*
X59305000Y-53552000D01*
X66711000Y-44072600D02*
X68012000Y-42771600D01*
X66711000Y-46146000D02*
X66711000Y-44072600D01*
X59305000Y-53552000D02*
X66711000Y-46146000D01*
%TO.N,/POT2*%
X55947000Y-40231600D02*
X68012000Y-40231600D01*
D28*
%TO.N,/FX_OUT*%
X97565000Y-63970000D02*
X125754316Y-63970000D01*
X134784000Y-62801000D02*
X137235000Y-60350000D01*
X94985000Y-66550000D02*
X97565000Y-63970000D01*
X125754316Y-63970000D02*
X126923316Y-62801000D01*
X94985000Y-69090000D02*
X94985000Y-66550000D01*
X134784000Y-76621000D02*
X133035000Y-78370000D01*
X126923316Y-62801000D02*
X134784000Y-62801000D01*
X134784000Y-62801000D02*
X134784000Y-76621000D01*
%TO.N,Net-(D2-A)*%
X126285000Y-40770000D02*
X130930000Y-40770000D01*
%TO.N,/AUDIO_OUT*%
X92685000Y-76549265D02*
X92685000Y-79020000D01*
X83252000Y-40231600D02*
X84803000Y-41782600D01*
X84803000Y-41782600D02*
X84803000Y-68667265D01*
X84803000Y-68667265D02*
X92685000Y-76549265D01*
%TO.N,Net-(C1-Pad1)*%
X99469533Y-42654533D02*
X99885000Y-43070000D01*
X99885000Y-43070000D02*
X99885000Y-48513600D01*
X94995000Y-42654533D02*
X99469533Y-42654533D01*
%TO.N,Net-(U1B-+)*%
X99708200Y-38246800D02*
X99885000Y-38070000D01*
X90785000Y-58050000D02*
X87365000Y-61470000D01*
X90785000Y-42456800D02*
X90785000Y-58050000D01*
X94995000Y-38246800D02*
X99708200Y-38246800D01*
X94995000Y-38246800D02*
X90785000Y-42456800D01*
%TO.N,Net-(U1C-V+)*%
X110785000Y-74870000D02*
X125185000Y-74870000D01*
X89845000Y-71570000D02*
X107485000Y-71570000D01*
X107485000Y-71570000D02*
X110785000Y-74870000D01*
X125185000Y-74870000D02*
X128685000Y-78370000D01*
X87365000Y-69090000D02*
X89845000Y-71570000D01*
%TO.N,Net-(C11-Pad2)*%
X87685000Y-79020000D02*
X90035000Y-81370000D01*
X90035000Y-81370000D02*
X99885000Y-81370000D01*
%TO.N,Net-(U1B--)*%
X92184000Y-54281000D02*
X92184000Y-59191000D01*
X87365000Y-64010000D02*
X87365000Y-66550000D01*
X94995000Y-51470000D02*
X92184000Y-54281000D01*
X92184000Y-59191000D02*
X87365000Y-64010000D01*
%TO.N,Net-(R9-Pad1)*%
X130575000Y-48390000D02*
X137235000Y-55050000D01*
X126285000Y-48390000D02*
X130575000Y-48390000D01*
%TD*%
%TA.AperFunction,Conductor*%
%TO.N,+9V*%
G36*
X47472682Y-33454585D02*
G01*
X47518437Y-33507389D01*
X47528381Y-33576547D01*
X47499356Y-33640103D01*
X47440578Y-33677877D01*
X47437759Y-33678668D01*
X47416439Y-33684380D01*
X47397543Y-33689444D01*
X47173684Y-33782169D01*
X47173667Y-33782177D01*
X46963825Y-33903330D01*
X46771585Y-34050840D01*
X46771578Y-34050846D01*
X46600246Y-34222178D01*
X46600240Y-34222185D01*
X46452730Y-34414425D01*
X46331577Y-34624267D01*
X46331569Y-34624284D01*
X46238844Y-34848143D01*
X46176130Y-35082199D01*
X46176128Y-35082210D01*
X46144500Y-35322435D01*
X46144500Y-35564764D01*
X46159460Y-35678390D01*
X46176129Y-35804998D01*
X46191075Y-35860776D01*
X46238844Y-36039056D01*
X46331569Y-36262915D01*
X46331577Y-36262932D01*
X46452730Y-36472774D01*
X46600240Y-36665014D01*
X46600246Y-36665021D01*
X46771578Y-36836353D01*
X46771585Y-36836359D01*
X46963825Y-36983869D01*
X47173667Y-37105022D01*
X47173672Y-37105024D01*
X47173675Y-37105026D01*
X47173679Y-37105027D01*
X47173684Y-37105030D01*
X47244679Y-37134437D01*
X47397544Y-37197756D01*
X47631602Y-37260471D01*
X47871843Y-37292100D01*
X47871850Y-37292100D01*
X48998150Y-37292100D01*
X48998157Y-37292100D01*
X49238398Y-37260471D01*
X49472456Y-37197756D01*
X49696325Y-37105026D01*
X49906175Y-36983869D01*
X50098416Y-36836358D01*
X50269758Y-36665016D01*
X50417269Y-36472775D01*
X50538426Y-36262925D01*
X50540612Y-36257648D01*
X58484500Y-36257648D01*
X58484500Y-36462351D01*
X58516522Y-36664534D01*
X58579781Y-36859223D01*
X58624150Y-36946300D01*
X58672698Y-37041581D01*
X58672715Y-37041613D01*
X58793028Y-37207213D01*
X58937786Y-37351971D01*
X59092749Y-37464556D01*
X59103390Y-37472287D01*
X59219607Y-37531503D01*
X59285776Y-37565218D01*
X59285778Y-37565218D01*
X59285781Y-37565220D01*
X59347621Y-37585313D01*
X59480465Y-37628477D01*
X59581557Y-37644488D01*
X59682648Y-37660500D01*
X59682649Y-37660500D01*
X59887351Y-37660500D01*
X59887352Y-37660500D01*
X60089534Y-37628477D01*
X60284219Y-37565220D01*
X60466610Y-37472287D01*
X60566682Y-37399581D01*
X60632213Y-37351971D01*
X60632215Y-37351968D01*
X60632219Y-37351966D01*
X60776966Y-37207219D01*
X60776968Y-37207215D01*
X60776971Y-37207213D01*
X60851216Y-37105022D01*
X60897287Y-37041610D01*
X60990220Y-36859219D01*
X61053477Y-36664534D01*
X61085500Y-36462352D01*
X61085500Y-36257648D01*
X62584500Y-36257648D01*
X62584500Y-36462351D01*
X62616522Y-36664534D01*
X62679781Y-36859223D01*
X62724150Y-36946300D01*
X62772698Y-37041581D01*
X62772715Y-37041613D01*
X62893028Y-37207213D01*
X63037786Y-37351971D01*
X63192749Y-37464556D01*
X63203390Y-37472287D01*
X63319607Y-37531503D01*
X63385776Y-37565218D01*
X63385778Y-37565218D01*
X63385781Y-37565220D01*
X63447621Y-37585313D01*
X63580465Y-37628477D01*
X63681557Y-37644488D01*
X63782648Y-37660500D01*
X63782649Y-37660500D01*
X63987351Y-37660500D01*
X63987352Y-37660500D01*
X64189534Y-37628477D01*
X64384219Y-37565220D01*
X64566610Y-37472287D01*
X64666682Y-37399581D01*
X64732213Y-37351971D01*
X64732215Y-37351968D01*
X64732219Y-37351966D01*
X64876966Y-37207219D01*
X64876968Y-37207215D01*
X64876971Y-37207213D01*
X64951216Y-37105022D01*
X64997287Y-37041610D01*
X65090220Y-36859219D01*
X65153477Y-36664534D01*
X65185500Y-36462352D01*
X65185500Y-36257648D01*
X65173472Y-36181709D01*
X65153477Y-36055465D01*
X65090218Y-35860776D01*
X65056503Y-35794607D01*
X64997287Y-35678390D01*
X64914734Y-35564764D01*
X64876971Y-35512786D01*
X64732213Y-35368028D01*
X64566613Y-35247715D01*
X64566612Y-35247714D01*
X64566610Y-35247713D01*
X64509653Y-35218691D01*
X64384223Y-35154781D01*
X64189534Y-35091522D01*
X64014995Y-35063878D01*
X63987352Y-35059500D01*
X63782648Y-35059500D01*
X63758329Y-35063351D01*
X63580465Y-35091522D01*
X63385776Y-35154781D01*
X63203386Y-35247715D01*
X63037786Y-35368028D01*
X62893028Y-35512786D01*
X62772715Y-35678386D01*
X62679781Y-35860776D01*
X62616522Y-36055465D01*
X62584500Y-36257648D01*
X61085500Y-36257648D01*
X61073472Y-36181709D01*
X61053477Y-36055465D01*
X60990218Y-35860776D01*
X60956503Y-35794607D01*
X60897287Y-35678390D01*
X60814734Y-35564764D01*
X60776971Y-35512786D01*
X60632213Y-35368028D01*
X60466613Y-35247715D01*
X60466612Y-35247714D01*
X60466610Y-35247713D01*
X60409653Y-35218691D01*
X60284223Y-35154781D01*
X60089534Y-35091522D01*
X59914995Y-35063878D01*
X59887352Y-35059500D01*
X59682648Y-35059500D01*
X59658329Y-35063351D01*
X59480465Y-35091522D01*
X59285776Y-35154781D01*
X59103386Y-35247715D01*
X58937786Y-35368028D01*
X58793028Y-35512786D01*
X58672715Y-35678386D01*
X58579781Y-35860776D01*
X58516522Y-36055465D01*
X58484500Y-36257648D01*
X50540612Y-36257648D01*
X50631156Y-36039056D01*
X50693871Y-35804998D01*
X50725500Y-35564757D01*
X50725500Y-35322443D01*
X50693871Y-35082202D01*
X50631156Y-34848144D01*
X50538426Y-34624275D01*
X50538424Y-34624272D01*
X50538422Y-34624267D01*
X50417269Y-34414425D01*
X50269759Y-34222185D01*
X50269753Y-34222178D01*
X50098421Y-34050846D01*
X50098414Y-34050840D01*
X49906174Y-33903330D01*
X49696332Y-33782177D01*
X49696315Y-33782169D01*
X49472456Y-33689444D01*
X49432263Y-33678674D01*
X49372603Y-33642310D01*
X49342074Y-33579463D01*
X49350369Y-33510087D01*
X49394854Y-33456210D01*
X49461406Y-33434935D01*
X49464357Y-33434900D01*
X141180500Y-33434900D01*
X141247539Y-33454585D01*
X141293294Y-33507389D01*
X141304500Y-33558900D01*
X141304500Y-87355500D01*
X141284815Y-87422539D01*
X141232011Y-87468294D01*
X141180500Y-87479500D01*
X42789500Y-87479500D01*
X42722461Y-87459815D01*
X42676706Y-87407011D01*
X42665500Y-87355500D01*
X42665500Y-82735013D01*
X46400000Y-82735013D01*
X46400000Y-83085000D01*
X47384314Y-83085000D01*
X47379920Y-83089394D01*
X47327259Y-83180606D01*
X47300000Y-83282339D01*
X47300000Y-83387661D01*
X47327259Y-83489394D01*
X47379920Y-83580606D01*
X47384314Y-83585000D01*
X46400001Y-83585000D01*
X46400001Y-83934986D01*
X46410494Y-84037697D01*
X46465641Y-84204119D01*
X46465643Y-84204124D01*
X46557684Y-84353345D01*
X46681654Y-84477315D01*
X46830875Y-84569356D01*
X46830880Y-84569358D01*
X46997302Y-84624505D01*
X46997309Y-84624506D01*
X47100019Y-84634999D01*
X47449999Y-84634999D01*
X47450000Y-84634998D01*
X47450000Y-83650686D01*
X47454394Y-83655080D01*
X47545606Y-83707741D01*
X47647339Y-83735000D01*
X47752661Y-83735000D01*
X47854394Y-83707741D01*
X47945606Y-83655080D01*
X47950000Y-83650686D01*
X47950000Y-84634999D01*
X48299972Y-84634999D01*
X48299986Y-84634998D01*
X48402697Y-84624505D01*
X48569119Y-84569358D01*
X48569124Y-84569356D01*
X48718345Y-84477315D01*
X48842315Y-84353345D01*
X48934356Y-84204124D01*
X48934359Y-84204117D01*
X48949063Y-84159743D01*
X48988835Y-84102298D01*
X49053350Y-84075474D01*
X49122126Y-84087788D01*
X49167087Y-84125860D01*
X49191704Y-84159743D01*
X49208034Y-84182219D01*
X49352786Y-84326971D01*
X49491132Y-84427483D01*
X49518390Y-84447287D01*
X49629554Y-84503928D01*
X49700776Y-84540218D01*
X49700778Y-84540218D01*
X49700781Y-84540220D01*
X49790459Y-84569358D01*
X49895465Y-84603477D01*
X49994382Y-84619144D01*
X50097648Y-84635500D01*
X50097649Y-84635500D01*
X50302351Y-84635500D01*
X50302352Y-84635500D01*
X50504534Y-84603477D01*
X50699219Y-84540220D01*
X50881610Y-84447287D01*
X50974590Y-84379732D01*
X51047213Y-84326971D01*
X51047215Y-84326968D01*
X51047219Y-84326966D01*
X51191966Y-84182219D01*
X51191968Y-84182215D01*
X51191971Y-84182213D01*
X51312284Y-84016614D01*
X51312283Y-84016614D01*
X51312287Y-84016610D01*
X51355068Y-83932648D01*
X57599500Y-83932648D01*
X57599500Y-84137351D01*
X57631522Y-84339534D01*
X57694781Y-84534223D01*
X57746130Y-84634999D01*
X57781999Y-84705396D01*
X57787715Y-84716613D01*
X57908028Y-84882213D01*
X58052786Y-85026971D01*
X58207749Y-85139556D01*
X58218390Y-85147287D01*
X58334607Y-85206503D01*
X58400776Y-85240218D01*
X58400778Y-85240218D01*
X58400781Y-85240220D01*
X58505137Y-85274127D01*
X58595465Y-85303477D01*
X58696557Y-85319488D01*
X58797648Y-85335500D01*
X58797649Y-85335500D01*
X59002351Y-85335500D01*
X59002352Y-85335500D01*
X59204534Y-85303477D01*
X59399219Y-85240220D01*
X59581610Y-85147287D01*
X59674590Y-85079732D01*
X59747213Y-85026971D01*
X59747215Y-85026968D01*
X59747219Y-85026966D01*
X59891966Y-84882219D01*
X59891968Y-84882215D01*
X59891971Y-84882213D01*
X59978004Y-84763797D01*
X60012287Y-84716610D01*
X60105220Y-84534219D01*
X60168477Y-84339534D01*
X60200500Y-84137352D01*
X60200500Y-83932648D01*
X62599500Y-83932648D01*
X62599500Y-84137351D01*
X62631522Y-84339534D01*
X62694781Y-84534223D01*
X62746130Y-84634999D01*
X62781999Y-84705396D01*
X62787715Y-84716613D01*
X62908028Y-84882213D01*
X63052786Y-85026971D01*
X63207749Y-85139556D01*
X63218390Y-85147287D01*
X63334607Y-85206503D01*
X63400776Y-85240218D01*
X63400778Y-85240218D01*
X63400781Y-85240220D01*
X63505137Y-85274127D01*
X63595465Y-85303477D01*
X63696557Y-85319488D01*
X63797648Y-85335500D01*
X63797649Y-85335500D01*
X64002351Y-85335500D01*
X64002352Y-85335500D01*
X64204534Y-85303477D01*
X64399219Y-85240220D01*
X64581610Y-85147287D01*
X64674590Y-85079732D01*
X64747213Y-85026971D01*
X64747215Y-85026968D01*
X64747219Y-85026966D01*
X64891966Y-84882219D01*
X64891968Y-84882215D01*
X64891971Y-84882213D01*
X64978004Y-84763797D01*
X65012287Y-84716610D01*
X65105220Y-84534219D01*
X65168477Y-84339534D01*
X65200500Y-84137352D01*
X65200500Y-83932648D01*
X65168477Y-83730466D01*
X65167623Y-83727839D01*
X65121212Y-83585000D01*
X65105220Y-83535781D01*
X65105218Y-83535778D01*
X65105218Y-83535776D01*
X65013992Y-83356736D01*
X65013991Y-83356734D01*
X65012286Y-83353388D01*
X64891971Y-83187786D01*
X64747213Y-83043028D01*
X64581613Y-82922715D01*
X64581612Y-82922714D01*
X64581610Y-82922713D01*
X64523658Y-82893185D01*
X64399223Y-82829781D01*
X64204534Y-82766522D01*
X64029995Y-82738878D01*
X64002352Y-82734500D01*
X63797648Y-82734500D01*
X63773329Y-82738351D01*
X63595465Y-82766522D01*
X63400776Y-82829781D01*
X63218386Y-82922715D01*
X63052786Y-83043028D01*
X62908028Y-83187786D01*
X62787715Y-83353386D01*
X62694781Y-83535776D01*
X62631522Y-83730465D01*
X62599500Y-83932648D01*
X60200500Y-83932648D01*
X60168477Y-83730466D01*
X60167623Y-83727839D01*
X60121212Y-83585000D01*
X60105220Y-83535781D01*
X60105218Y-83535778D01*
X60105218Y-83535776D01*
X60055067Y-83437351D01*
X60012287Y-83353390D01*
X60004556Y-83342749D01*
X59891971Y-83187786D01*
X59747213Y-83043028D01*
X59581613Y-82922715D01*
X59581612Y-82922714D01*
X59581610Y-82922713D01*
X59523658Y-82893185D01*
X59399223Y-82829781D01*
X59204534Y-82766522D01*
X59029995Y-82738878D01*
X59002352Y-82734500D01*
X58797648Y-82734500D01*
X58773329Y-82738351D01*
X58595465Y-82766522D01*
X58400776Y-82829781D01*
X58218386Y-82922715D01*
X58052786Y-83043028D01*
X57908028Y-83187786D01*
X57787715Y-83353386D01*
X57694781Y-83535776D01*
X57631522Y-83730465D01*
X57599500Y-83932648D01*
X51355068Y-83932648D01*
X51405220Y-83834219D01*
X51468477Y-83639534D01*
X51500500Y-83437352D01*
X51500500Y-83232648D01*
X51478755Y-83095357D01*
X51468477Y-83030465D01*
X51433466Y-82922713D01*
X51405220Y-82835781D01*
X51405218Y-82835778D01*
X51405218Y-82835776D01*
X51353876Y-82735013D01*
X51312287Y-82653390D01*
X51263910Y-82586804D01*
X51191971Y-82487786D01*
X51047213Y-82343028D01*
X50881613Y-82222715D01*
X50881612Y-82222714D01*
X50881610Y-82222713D01*
X50822675Y-82192684D01*
X50699223Y-82129781D01*
X50504534Y-82066522D01*
X50329995Y-82038878D01*
X50302352Y-82034500D01*
X50097648Y-82034500D01*
X50073329Y-82038351D01*
X49895465Y-82066522D01*
X49700776Y-82129781D01*
X49518386Y-82222715D01*
X49352786Y-82343028D01*
X49208032Y-82487782D01*
X49167087Y-82544139D01*
X49111757Y-82586804D01*
X49042144Y-82592783D01*
X48980349Y-82560177D01*
X48949063Y-82510256D01*
X48934359Y-82465882D01*
X48934356Y-82465875D01*
X48842315Y-82316654D01*
X48718345Y-82192684D01*
X48569124Y-82100643D01*
X48569119Y-82100641D01*
X48402697Y-82045494D01*
X48402690Y-82045493D01*
X48299986Y-82035000D01*
X47950000Y-82035000D01*
X47950000Y-83019314D01*
X47945606Y-83014920D01*
X47854394Y-82962259D01*
X47752661Y-82935000D01*
X47647339Y-82935000D01*
X47545606Y-82962259D01*
X47454394Y-83014920D01*
X47450000Y-83019314D01*
X47450000Y-82035000D01*
X47100028Y-82035000D01*
X47100012Y-82035001D01*
X46997302Y-82045494D01*
X46830880Y-82100641D01*
X46830875Y-82100643D01*
X46681654Y-82192684D01*
X46557684Y-82316654D01*
X46465643Y-82465875D01*
X46465641Y-82465880D01*
X46410494Y-82632302D01*
X46410493Y-82632309D01*
X46400000Y-82735013D01*
X42665500Y-82735013D01*
X42665500Y-79465981D01*
X57599500Y-79465981D01*
X57599500Y-79670685D01*
X57603878Y-79698328D01*
X57631522Y-79872867D01*
X57694781Y-80067556D01*
X57787715Y-80249946D01*
X57908028Y-80415546D01*
X58052786Y-80560304D01*
X58189056Y-80659308D01*
X58218390Y-80680620D01*
X58334607Y-80739836D01*
X58400776Y-80773551D01*
X58400778Y-80773551D01*
X58400781Y-80773553D01*
X58479687Y-80799191D01*
X58595465Y-80836810D01*
X58696557Y-80852821D01*
X58797648Y-80868833D01*
X58797649Y-80868833D01*
X59002351Y-80868833D01*
X59002352Y-80868833D01*
X59204534Y-80836810D01*
X59399219Y-80773553D01*
X59581610Y-80680620D01*
X59674590Y-80613065D01*
X59747213Y-80560304D01*
X59747215Y-80560301D01*
X59747219Y-80560299D01*
X59891966Y-80415552D01*
X59891968Y-80415548D01*
X59891971Y-80415546D01*
X59945510Y-80341854D01*
X60012287Y-80249943D01*
X60105220Y-80067552D01*
X60168477Y-79872867D01*
X60200500Y-79670685D01*
X60200500Y-79465981D01*
X62599500Y-79465981D01*
X62599500Y-79670685D01*
X62603878Y-79698328D01*
X62631522Y-79872867D01*
X62694781Y-80067556D01*
X62787715Y-80249946D01*
X62908028Y-80415546D01*
X63052786Y-80560304D01*
X63189056Y-80659308D01*
X63218390Y-80680620D01*
X63334607Y-80739836D01*
X63400776Y-80773551D01*
X63400778Y-80773551D01*
X63400781Y-80773553D01*
X63479687Y-80799191D01*
X63595465Y-80836810D01*
X63696557Y-80852821D01*
X63797648Y-80868833D01*
X63797649Y-80868833D01*
X64002351Y-80868833D01*
X64002352Y-80868833D01*
X64204534Y-80836810D01*
X64399219Y-80773553D01*
X64581610Y-80680620D01*
X64610944Y-80659308D01*
X64747213Y-80560304D01*
X64747215Y-80560301D01*
X64747219Y-80560299D01*
X64891966Y-80415552D01*
X64891968Y-80415548D01*
X64891971Y-80415546D01*
X64945510Y-80341854D01*
X65012287Y-80249943D01*
X65105220Y-80067552D01*
X65168477Y-79872867D01*
X65200500Y-79670685D01*
X65200500Y-79465981D01*
X65168477Y-79263799D01*
X65105220Y-79069114D01*
X65105218Y-79069111D01*
X65105218Y-79069109D01*
X65035253Y-78931797D01*
X65012287Y-78886723D01*
X64985615Y-78850012D01*
X64891971Y-78721119D01*
X64747213Y-78576361D01*
X64581613Y-78456048D01*
X64581612Y-78456047D01*
X64581610Y-78456046D01*
X64524653Y-78427024D01*
X64399223Y-78363114D01*
X64204534Y-78299855D01*
X64029995Y-78272211D01*
X64002352Y-78267833D01*
X63797648Y-78267833D01*
X63773329Y-78271684D01*
X63595465Y-78299855D01*
X63400776Y-78363114D01*
X63218386Y-78456048D01*
X63052786Y-78576361D01*
X62908028Y-78721119D01*
X62787715Y-78886719D01*
X62694781Y-79069109D01*
X62631522Y-79263798D01*
X62615916Y-79362335D01*
X62599500Y-79465981D01*
X60200500Y-79465981D01*
X60168477Y-79263799D01*
X60105220Y-79069114D01*
X60105218Y-79069111D01*
X60105218Y-79069109D01*
X60035253Y-78931797D01*
X60012287Y-78886723D01*
X59985615Y-78850012D01*
X59891971Y-78721119D01*
X59747213Y-78576361D01*
X59581613Y-78456048D01*
X59581612Y-78456047D01*
X59581610Y-78456046D01*
X59524653Y-78427024D01*
X59399223Y-78363114D01*
X59204534Y-78299855D01*
X59029995Y-78272211D01*
X59002352Y-78267833D01*
X58797648Y-78267833D01*
X58773329Y-78271684D01*
X58595465Y-78299855D01*
X58400776Y-78363114D01*
X58218386Y-78456048D01*
X58052786Y-78576361D01*
X57908028Y-78721119D01*
X57787715Y-78886719D01*
X57694781Y-79069109D01*
X57631522Y-79263798D01*
X57615916Y-79362335D01*
X57599500Y-79465981D01*
X42665500Y-79465981D01*
X42665500Y-74434983D01*
X46399500Y-74434983D01*
X46399500Y-75635001D01*
X46399501Y-75635018D01*
X46410000Y-75737796D01*
X46410001Y-75737799D01*
X46465185Y-75904331D01*
X46465187Y-75904336D01*
X46469596Y-75911484D01*
X46557288Y-76053656D01*
X46681344Y-76177712D01*
X46830666Y-76269814D01*
X46997203Y-76324999D01*
X47099991Y-76335500D01*
X48300008Y-76335499D01*
X48402797Y-76324999D01*
X48569334Y-76269814D01*
X48718656Y-76177712D01*
X48842712Y-76053656D01*
X48934814Y-75904334D01*
X48949426Y-75860237D01*
X48989195Y-75802796D01*
X49053711Y-75775972D01*
X49122487Y-75788286D01*
X49167448Y-75826358D01*
X49208032Y-75882217D01*
X49352786Y-76026971D01*
X49507749Y-76139556D01*
X49518390Y-76147287D01*
X49634607Y-76206503D01*
X49700776Y-76240218D01*
X49700778Y-76240218D01*
X49700781Y-76240220D01*
X49753745Y-76257429D01*
X49895465Y-76303477D01*
X49936738Y-76310014D01*
X50097648Y-76335500D01*
X50097649Y-76335500D01*
X50302351Y-76335500D01*
X50302352Y-76335500D01*
X50504534Y-76303477D01*
X50699219Y-76240220D01*
X50881610Y-76147287D01*
X51010482Y-76053657D01*
X51047213Y-76026971D01*
X51047215Y-76026968D01*
X51047219Y-76026966D01*
X51191966Y-75882219D01*
X51191968Y-75882215D01*
X51191971Y-75882213D01*
X51264040Y-75783017D01*
X51312287Y-75716610D01*
X51405220Y-75534219D01*
X51468477Y-75339534D01*
X51500500Y-75137352D01*
X51500500Y-74999315D01*
X57599500Y-74999315D01*
X57599500Y-75204018D01*
X57631522Y-75406201D01*
X57694781Y-75600890D01*
X57753744Y-75716610D01*
X57787585Y-75783026D01*
X57787715Y-75783280D01*
X57908028Y-75948880D01*
X58052786Y-76093638D01*
X58173226Y-76181141D01*
X58218390Y-76213954D01*
X58328017Y-76269812D01*
X58400776Y-76306885D01*
X58400778Y-76306885D01*
X58400781Y-76306887D01*
X58469343Y-76329164D01*
X58595465Y-76370144D01*
X58696557Y-76386155D01*
X58797648Y-76402167D01*
X58797649Y-76402167D01*
X59002351Y-76402167D01*
X59002352Y-76402167D01*
X59204534Y-76370144D01*
X59399219Y-76306887D01*
X59581610Y-76213954D01*
X59674590Y-76146399D01*
X59747213Y-76093638D01*
X59747215Y-76093635D01*
X59747219Y-76093633D01*
X59891966Y-75948886D01*
X59891968Y-75948882D01*
X59891971Y-75948880D01*
X59976851Y-75832051D01*
X60012287Y-75783277D01*
X60105220Y-75600886D01*
X60168477Y-75406201D01*
X60200500Y-75204019D01*
X60200500Y-74999349D01*
X62600000Y-74999349D01*
X62600000Y-75203984D01*
X62632009Y-75406084D01*
X62695244Y-75600698D01*
X62788141Y-75783017D01*
X62788147Y-75783026D01*
X62820523Y-75827588D01*
X62820524Y-75827589D01*
X63500000Y-75148113D01*
X63500000Y-75154328D01*
X63527259Y-75256061D01*
X63579920Y-75347273D01*
X63654394Y-75421747D01*
X63745606Y-75474408D01*
X63847339Y-75501667D01*
X63853553Y-75501667D01*
X63174076Y-76181141D01*
X63218650Y-76213526D01*
X63400968Y-76306422D01*
X63595582Y-76369657D01*
X63797683Y-76401667D01*
X64002317Y-76401667D01*
X64204417Y-76369657D01*
X64399031Y-76306422D01*
X64581349Y-76213526D01*
X64625921Y-76181141D01*
X63946447Y-75501667D01*
X63952661Y-75501667D01*
X64054394Y-75474408D01*
X64145606Y-75421747D01*
X64220080Y-75347273D01*
X64272741Y-75256061D01*
X64300000Y-75154328D01*
X64300000Y-75148114D01*
X64979474Y-75827588D01*
X65011859Y-75783016D01*
X65104755Y-75600698D01*
X65167990Y-75406084D01*
X65200000Y-75203984D01*
X65200000Y-74999349D01*
X65167990Y-74797249D01*
X65104755Y-74602635D01*
X65011859Y-74420317D01*
X64979474Y-74375744D01*
X64979474Y-74375743D01*
X64300000Y-75055218D01*
X64300000Y-75049006D01*
X64272741Y-74947273D01*
X64220080Y-74856061D01*
X64145606Y-74781587D01*
X64054394Y-74728926D01*
X63952661Y-74701667D01*
X63946446Y-74701667D01*
X64625922Y-74022191D01*
X64625921Y-74022190D01*
X64581359Y-73989814D01*
X64581350Y-73989808D01*
X64399031Y-73896911D01*
X64204417Y-73833676D01*
X64002317Y-73801667D01*
X63797683Y-73801667D01*
X63595582Y-73833676D01*
X63400968Y-73896911D01*
X63218644Y-73989810D01*
X63174077Y-74022190D01*
X63174077Y-74022191D01*
X63853554Y-74701667D01*
X63847339Y-74701667D01*
X63745606Y-74728926D01*
X63654394Y-74781587D01*
X63579920Y-74856061D01*
X63527259Y-74947273D01*
X63500000Y-75049006D01*
X63500000Y-75055220D01*
X62820524Y-74375744D01*
X62820523Y-74375744D01*
X62788143Y-74420311D01*
X62695244Y-74602635D01*
X62632009Y-74797249D01*
X62600000Y-74999349D01*
X60200500Y-74999349D01*
X60200500Y-74999315D01*
X60178796Y-74862284D01*
X60168477Y-74797132D01*
X60124560Y-74661971D01*
X60105220Y-74602448D01*
X60105218Y-74602445D01*
X60105218Y-74602443D01*
X60064026Y-74521600D01*
X60012287Y-74420057D01*
X59980092Y-74375744D01*
X59891971Y-74254453D01*
X59747213Y-74109695D01*
X59581613Y-73989382D01*
X59581612Y-73989381D01*
X59581610Y-73989380D01*
X59522802Y-73959416D01*
X59399223Y-73896448D01*
X59204534Y-73833189D01*
X59029995Y-73805545D01*
X59002352Y-73801167D01*
X58797648Y-73801167D01*
X58773329Y-73805018D01*
X58595465Y-73833189D01*
X58400776Y-73896448D01*
X58218386Y-73989382D01*
X58052786Y-74109695D01*
X57908028Y-74254453D01*
X57787715Y-74420053D01*
X57694781Y-74602443D01*
X57631522Y-74797132D01*
X57599500Y-74999315D01*
X51500500Y-74999315D01*
X51500500Y-74932648D01*
X51470299Y-74741971D01*
X51468477Y-74730465D01*
X51437962Y-74636551D01*
X51405220Y-74535781D01*
X51405218Y-74535778D01*
X51405218Y-74535776D01*
X51353865Y-74434991D01*
X51312287Y-74353390D01*
X51263549Y-74286307D01*
X51191971Y-74187786D01*
X51047213Y-74043028D01*
X50881613Y-73922715D01*
X50881612Y-73922714D01*
X50881610Y-73922713D01*
X50814903Y-73888724D01*
X50699223Y-73829781D01*
X50504534Y-73766522D01*
X50329995Y-73738878D01*
X50302352Y-73734500D01*
X50097648Y-73734500D01*
X50073329Y-73738351D01*
X49895465Y-73766522D01*
X49700776Y-73829781D01*
X49518386Y-73922715D01*
X49352786Y-74043028D01*
X49208032Y-74187782D01*
X49208031Y-74187784D01*
X49167447Y-74243642D01*
X49112117Y-74286307D01*
X49042503Y-74292285D01*
X48980709Y-74259678D01*
X48949425Y-74209760D01*
X48934814Y-74165666D01*
X48842712Y-74016344D01*
X48718656Y-73892288D01*
X48571735Y-73801667D01*
X48569336Y-73800187D01*
X48569331Y-73800185D01*
X48567862Y-73799698D01*
X48402797Y-73745001D01*
X48402795Y-73745000D01*
X48300010Y-73734500D01*
X47099998Y-73734500D01*
X47099981Y-73734501D01*
X46997203Y-73745000D01*
X46997200Y-73745001D01*
X46830668Y-73800185D01*
X46830663Y-73800187D01*
X46681342Y-73892289D01*
X46557289Y-74016342D01*
X46465187Y-74165663D01*
X46465185Y-74165668D01*
X46464007Y-74169223D01*
X46410001Y-74332203D01*
X46410001Y-74332204D01*
X46410000Y-74332204D01*
X46399500Y-74434983D01*
X42665500Y-74434983D01*
X42665500Y-69790097D01*
X51584500Y-69790097D01*
X51584500Y-70049902D01*
X51625140Y-70306493D01*
X51705422Y-70553576D01*
X51771557Y-70683371D01*
X51823366Y-70785051D01*
X51976069Y-70995229D01*
X52159771Y-71178931D01*
X52369949Y-71331634D01*
X52517445Y-71406787D01*
X52601423Y-71449577D01*
X52601425Y-71449577D01*
X52601428Y-71449579D01*
X52848507Y-71529860D01*
X52980706Y-71550797D01*
X53105098Y-71570500D01*
X53105103Y-71570500D01*
X55064902Y-71570500D01*
X55178298Y-71552539D01*
X55321493Y-71529860D01*
X55568572Y-71449579D01*
X55800051Y-71331634D01*
X56010229Y-71178931D01*
X56193931Y-70995229D01*
X56346634Y-70785051D01*
X56464579Y-70553572D01*
X56471378Y-70532648D01*
X57599500Y-70532648D01*
X57599500Y-70737351D01*
X57631522Y-70939534D01*
X57694781Y-71134223D01*
X57743589Y-71230012D01*
X57787585Y-71316359D01*
X57787715Y-71316613D01*
X57908028Y-71482213D01*
X58052786Y-71626971D01*
X58173226Y-71714474D01*
X58218390Y-71747287D01*
X58334607Y-71806503D01*
X58400776Y-71840218D01*
X58400778Y-71840218D01*
X58400781Y-71840220D01*
X58482118Y-71866648D01*
X58595465Y-71903477D01*
X58694047Y-71919091D01*
X58797648Y-71935500D01*
X58797649Y-71935500D01*
X59002351Y-71935500D01*
X59002352Y-71935500D01*
X59204534Y-71903477D01*
X59399219Y-71840220D01*
X59581610Y-71747287D01*
X59674590Y-71679732D01*
X59747213Y-71626971D01*
X59747215Y-71626968D01*
X59747219Y-71626966D01*
X59891966Y-71482219D01*
X59891968Y-71482215D01*
X59891971Y-71482213D01*
X59944732Y-71409590D01*
X60012287Y-71316610D01*
X60105220Y-71134219D01*
X60168477Y-70939534D01*
X60200500Y-70737352D01*
X60200500Y-70532682D01*
X62600000Y-70532682D01*
X62600000Y-70737317D01*
X62632009Y-70939417D01*
X62695244Y-71134031D01*
X62788141Y-71316350D01*
X62788147Y-71316359D01*
X62820523Y-71360921D01*
X62820524Y-71360922D01*
X63500000Y-70681446D01*
X63500000Y-70687661D01*
X63527259Y-70789394D01*
X63579920Y-70880606D01*
X63654394Y-70955080D01*
X63745606Y-71007741D01*
X63847339Y-71035000D01*
X63853553Y-71035000D01*
X63174076Y-71714474D01*
X63218650Y-71746859D01*
X63400968Y-71839755D01*
X63595582Y-71902990D01*
X63797683Y-71935000D01*
X64002317Y-71935000D01*
X64204417Y-71902990D01*
X64399031Y-71839755D01*
X64581349Y-71746859D01*
X64625921Y-71714474D01*
X63946447Y-71035000D01*
X63952661Y-71035000D01*
X64054394Y-71007741D01*
X64145606Y-70955080D01*
X64220080Y-70880606D01*
X64272741Y-70789394D01*
X64300000Y-70687661D01*
X64300000Y-70681447D01*
X64979474Y-71360921D01*
X65011859Y-71316349D01*
X65104755Y-71134031D01*
X65167990Y-70939417D01*
X65200000Y-70737317D01*
X65200000Y-70532682D01*
X65167990Y-70330582D01*
X65104755Y-70135968D01*
X65011859Y-69953650D01*
X64979474Y-69909077D01*
X64979474Y-69909076D01*
X64300000Y-70588551D01*
X64300000Y-70582339D01*
X64272741Y-70480606D01*
X64220080Y-70389394D01*
X64145606Y-70314920D01*
X64054394Y-70262259D01*
X63952661Y-70235000D01*
X63946446Y-70235000D01*
X64625922Y-69555524D01*
X64625921Y-69555523D01*
X64581359Y-69523147D01*
X64581350Y-69523141D01*
X64399031Y-69430244D01*
X64204417Y-69367009D01*
X64002317Y-69335000D01*
X63797683Y-69335000D01*
X63595582Y-69367009D01*
X63400968Y-69430244D01*
X63218644Y-69523143D01*
X63174077Y-69555523D01*
X63174077Y-69555524D01*
X63853554Y-70235000D01*
X63847339Y-70235000D01*
X63745606Y-70262259D01*
X63654394Y-70314920D01*
X63579920Y-70389394D01*
X63527259Y-70480606D01*
X63500000Y-70582339D01*
X63500000Y-70588553D01*
X62820524Y-69909077D01*
X62820523Y-69909077D01*
X62788143Y-69953644D01*
X62695244Y-70135968D01*
X62632009Y-70330582D01*
X62600000Y-70532682D01*
X60200500Y-70532682D01*
X60200500Y-70532648D01*
X60177986Y-70390500D01*
X60168477Y-70330465D01*
X60137458Y-70235000D01*
X60105220Y-70135781D01*
X60105218Y-70135778D01*
X60105218Y-70135776D01*
X60037964Y-70003784D01*
X60012287Y-69953390D01*
X59980092Y-69909077D01*
X59891971Y-69787786D01*
X59747213Y-69643028D01*
X59581613Y-69522715D01*
X59581612Y-69522714D01*
X59581610Y-69522713D01*
X59524653Y-69493691D01*
X59399223Y-69429781D01*
X59204534Y-69366522D01*
X59029995Y-69338878D01*
X59002352Y-69334500D01*
X58797648Y-69334500D01*
X58773329Y-69338351D01*
X58595465Y-69366522D01*
X58400776Y-69429781D01*
X58218386Y-69522715D01*
X58052786Y-69643028D01*
X57908028Y-69787786D01*
X57787715Y-69953386D01*
X57694781Y-70135776D01*
X57631522Y-70330465D01*
X57599500Y-70532648D01*
X56471378Y-70532648D01*
X56544860Y-70306493D01*
X56571898Y-70135781D01*
X56585500Y-70049902D01*
X56585500Y-69790097D01*
X56554180Y-69592352D01*
X56544860Y-69533507D01*
X56464579Y-69286428D01*
X56464577Y-69286425D01*
X56464577Y-69286423D01*
X56413136Y-69185466D01*
X56346634Y-69054949D01*
X56193931Y-68844771D01*
X56010229Y-68661069D01*
X55913479Y-68590776D01*
X55800054Y-68508368D01*
X55800053Y-68508367D01*
X55800051Y-68508366D01*
X55727764Y-68471534D01*
X55568576Y-68390422D01*
X55321493Y-68310140D01*
X55064902Y-68269500D01*
X55064897Y-68269500D01*
X53105103Y-68269500D01*
X53105098Y-68269500D01*
X52848506Y-68310140D01*
X52601423Y-68390422D01*
X52369945Y-68508368D01*
X52159774Y-68661066D01*
X52159768Y-68661071D01*
X51976071Y-68844768D01*
X51976066Y-68844774D01*
X51823368Y-69054945D01*
X51705422Y-69286423D01*
X51625140Y-69533506D01*
X51584500Y-69790097D01*
X42665500Y-69790097D01*
X42665500Y-64040097D01*
X48934500Y-64040097D01*
X48934500Y-66499902D01*
X48975140Y-66756493D01*
X49055422Y-67003576D01*
X49078679Y-67049219D01*
X49173366Y-67235051D01*
X49326069Y-67445229D01*
X49509771Y-67628931D01*
X49719949Y-67781634D01*
X49805670Y-67825311D01*
X49951423Y-67899577D01*
X49951425Y-67899577D01*
X49951428Y-67899579D01*
X50198507Y-67979860D01*
X50330706Y-68000797D01*
X50455098Y-68020500D01*
X50455103Y-68020500D01*
X50714902Y-68020500D01*
X50828298Y-68002539D01*
X50971493Y-67979860D01*
X51218572Y-67899579D01*
X51450051Y-67781634D01*
X51660229Y-67628931D01*
X51843931Y-67445229D01*
X51996634Y-67235051D01*
X52114579Y-67003572D01*
X52194860Y-66756493D01*
X52227858Y-66548148D01*
X52235500Y-66499902D01*
X52235500Y-64040097D01*
X54934500Y-64040097D01*
X54934500Y-66499902D01*
X54975140Y-66756493D01*
X55055422Y-67003576D01*
X55078679Y-67049219D01*
X55173366Y-67235051D01*
X55326069Y-67445229D01*
X55509771Y-67628931D01*
X55719949Y-67781634D01*
X55805670Y-67825311D01*
X55951423Y-67899577D01*
X55951425Y-67899577D01*
X55951428Y-67899579D01*
X56198507Y-67979860D01*
X56330706Y-68000797D01*
X56455098Y-68020500D01*
X56455103Y-68020500D01*
X56714902Y-68020500D01*
X56828298Y-68002539D01*
X56971493Y-67979860D01*
X57218572Y-67899579D01*
X57450051Y-67781634D01*
X57660229Y-67628931D01*
X57843931Y-67445229D01*
X57996634Y-67235051D01*
X58114579Y-67003572D01*
X58194860Y-66756493D01*
X58227858Y-66548148D01*
X58235500Y-66499902D01*
X58235500Y-64040097D01*
X58210486Y-63882166D01*
X58194860Y-63783507D01*
X58114579Y-63536428D01*
X58114577Y-63536425D01*
X58114577Y-63536423D01*
X58071787Y-63452445D01*
X57996634Y-63304949D01*
X57843931Y-63094771D01*
X57660229Y-62911069D01*
X57608763Y-62873677D01*
X57450054Y-62758368D01*
X57450053Y-62758367D01*
X57450051Y-62758366D01*
X57369284Y-62717213D01*
X57218576Y-62640422D01*
X56971493Y-62560140D01*
X56714902Y-62519500D01*
X56714897Y-62519500D01*
X56455103Y-62519500D01*
X56455098Y-62519500D01*
X56198506Y-62560140D01*
X55951423Y-62640422D01*
X55719945Y-62758368D01*
X55509774Y-62911066D01*
X55509768Y-62911071D01*
X55326071Y-63094768D01*
X55326066Y-63094774D01*
X55173368Y-63304945D01*
X55055422Y-63536423D01*
X54975140Y-63783506D01*
X54934500Y-64040097D01*
X52235500Y-64040097D01*
X52210486Y-63882166D01*
X52194860Y-63783507D01*
X52114579Y-63536428D01*
X52114577Y-63536425D01*
X52114577Y-63536423D01*
X52071787Y-63452445D01*
X51996634Y-63304949D01*
X51843931Y-63094771D01*
X51660229Y-62911069D01*
X51608763Y-62873677D01*
X51450054Y-62758368D01*
X51450053Y-62758367D01*
X51450051Y-62758366D01*
X51369284Y-62717213D01*
X51218576Y-62640422D01*
X50971493Y-62560140D01*
X50714902Y-62519500D01*
X50714897Y-62519500D01*
X50455103Y-62519500D01*
X50455098Y-62519500D01*
X50198506Y-62560140D01*
X49951423Y-62640422D01*
X49719945Y-62758368D01*
X49509774Y-62911066D01*
X49509768Y-62911071D01*
X49326071Y-63094768D01*
X49326066Y-63094774D01*
X49173368Y-63304945D01*
X49055422Y-63536423D01*
X48975140Y-63783506D01*
X48934500Y-64040097D01*
X42665500Y-64040097D01*
X42665500Y-61032135D01*
X58394500Y-61032135D01*
X58394500Y-62627870D01*
X58394501Y-62627876D01*
X58400908Y-62687483D01*
X58451202Y-62822328D01*
X58451206Y-62822335D01*
X58537452Y-62937544D01*
X58537455Y-62937547D01*
X58652664Y-63023793D01*
X58652671Y-63023797D01*
X58787517Y-63074091D01*
X58787516Y-63074091D01*
X58794444Y-63074835D01*
X58847127Y-63080500D01*
X60442872Y-63080499D01*
X60502483Y-63074091D01*
X60637331Y-63023796D01*
X60752546Y-62937546D01*
X60838796Y-62822331D01*
X60889091Y-62687483D01*
X60895500Y-62627873D01*
X60895499Y-62564265D01*
X60915183Y-62497229D01*
X60967986Y-62451473D01*
X61037144Y-62441529D01*
X61100700Y-62470553D01*
X61119816Y-62491381D01*
X61218980Y-62627865D01*
X61231172Y-62644646D01*
X61370354Y-62783828D01*
X61529595Y-62899524D01*
X61595651Y-62933181D01*
X61704970Y-62988882D01*
X61704972Y-62988882D01*
X61704975Y-62988884D01*
X61794689Y-63018034D01*
X61892173Y-63049709D01*
X62086578Y-63080500D01*
X62086583Y-63080500D01*
X62283422Y-63080500D01*
X62477826Y-63049709D01*
X62479328Y-63049221D01*
X62665025Y-62988884D01*
X62840405Y-62899524D01*
X62999646Y-62783828D01*
X63138828Y-62644646D01*
X63254524Y-62485405D01*
X63343884Y-62310025D01*
X63343884Y-62310022D01*
X63344795Y-62308236D01*
X63392769Y-62257440D01*
X63460590Y-62240644D01*
X63526725Y-62263181D01*
X63565765Y-62308235D01*
X63655905Y-62485145D01*
X63681319Y-62520125D01*
X63681320Y-62520125D01*
X64325000Y-61876445D01*
X64325000Y-61882661D01*
X64352259Y-61984394D01*
X64404920Y-62075606D01*
X64479394Y-62150080D01*
X64570606Y-62202741D01*
X64672339Y-62230000D01*
X64678553Y-62230000D01*
X64034873Y-62873677D01*
X64034873Y-62873678D01*
X64069858Y-62899096D01*
X64245164Y-62988418D01*
X64432294Y-63049221D01*
X64626618Y-63080000D01*
X64823382Y-63080000D01*
X65017705Y-63049221D01*
X65204835Y-62988418D01*
X65380143Y-62899095D01*
X65415125Y-62873678D01*
X65415126Y-62873678D01*
X64771448Y-62230000D01*
X64777661Y-62230000D01*
X64879394Y-62202741D01*
X64970606Y-62150080D01*
X65045080Y-62075606D01*
X65097741Y-61984394D01*
X65125000Y-61882661D01*
X65125000Y-61876448D01*
X65768678Y-62520126D01*
X65768678Y-62520125D01*
X65794095Y-62485143D01*
X65883418Y-62309835D01*
X65944221Y-62122705D01*
X65975000Y-61928382D01*
X65975000Y-61731617D01*
X65944221Y-61537294D01*
X65883418Y-61350164D01*
X65794096Y-61174858D01*
X65768678Y-61139873D01*
X65768677Y-61139873D01*
X65125000Y-61783551D01*
X65125000Y-61777339D01*
X65097741Y-61675606D01*
X65045080Y-61584394D01*
X64970606Y-61509920D01*
X64879394Y-61457259D01*
X64777661Y-61430000D01*
X64771447Y-61430000D01*
X65415125Y-60786320D01*
X65415125Y-60786319D01*
X65380145Y-60760905D01*
X65204835Y-60671581D01*
X65017705Y-60610778D01*
X64823382Y-60580000D01*
X64626618Y-60580000D01*
X64432294Y-60610778D01*
X64245161Y-60671582D01*
X64069863Y-60760899D01*
X64069859Y-60760902D01*
X64034873Y-60786320D01*
X64034872Y-60786320D01*
X64678554Y-61430000D01*
X64672339Y-61430000D01*
X64570606Y-61457259D01*
X64479394Y-61509920D01*
X64404920Y-61584394D01*
X64352259Y-61675606D01*
X64325000Y-61777339D01*
X64325000Y-61783552D01*
X63681320Y-61139872D01*
X63681320Y-61139873D01*
X63655902Y-61174859D01*
X63565765Y-61351764D01*
X63517790Y-61402560D01*
X63449969Y-61419355D01*
X63383835Y-61396818D01*
X63344795Y-61351763D01*
X63254525Y-61174596D01*
X63217633Y-61123819D01*
X63138828Y-61015354D01*
X62999646Y-60876172D01*
X62840405Y-60760476D01*
X62834982Y-60757713D01*
X62665029Y-60671117D01*
X62477826Y-60610290D01*
X62283422Y-60579500D01*
X62283417Y-60579500D01*
X62086583Y-60579500D01*
X62086578Y-60579500D01*
X61892173Y-60610290D01*
X61704970Y-60671117D01*
X61529594Y-60760476D01*
X61438741Y-60826485D01*
X61370354Y-60876172D01*
X61370352Y-60876174D01*
X61370351Y-60876174D01*
X61231173Y-61015352D01*
X61119817Y-61168620D01*
X61064486Y-61211285D01*
X60994873Y-61217264D01*
X60933078Y-61184658D01*
X60898721Y-61123819D01*
X60895499Y-61095734D01*
X60895499Y-61032129D01*
X60895498Y-61032123D01*
X60895497Y-61032116D01*
X60889091Y-60972517D01*
X60882569Y-60955031D01*
X60838797Y-60837671D01*
X60838793Y-60837664D01*
X60752547Y-60722455D01*
X60752544Y-60722452D01*
X60637335Y-60636206D01*
X60637328Y-60636202D01*
X60502482Y-60585908D01*
X60502483Y-60585908D01*
X60442883Y-60579501D01*
X60442881Y-60579500D01*
X60442873Y-60579500D01*
X60442864Y-60579500D01*
X58847129Y-60579500D01*
X58847123Y-60579501D01*
X58787516Y-60585908D01*
X58652671Y-60636202D01*
X58652664Y-60636206D01*
X58537455Y-60722452D01*
X58537452Y-60722455D01*
X58451206Y-60837664D01*
X58451202Y-60837671D01*
X58400908Y-60972517D01*
X58396303Y-61015354D01*
X58394501Y-61032123D01*
X58394500Y-61032135D01*
X42665500Y-61032135D01*
X42665500Y-58230048D01*
X46156500Y-58230048D01*
X46156500Y-58473951D01*
X46172137Y-58592718D01*
X46188334Y-58715744D01*
X46251456Y-58951320D01*
X46251459Y-58951330D01*
X46344786Y-59176640D01*
X46344791Y-59176651D01*
X46466727Y-59387848D01*
X46466738Y-59387864D01*
X46615199Y-59581343D01*
X46615205Y-59581350D01*
X46787649Y-59753794D01*
X46787655Y-59753799D01*
X46981144Y-59902268D01*
X46981151Y-59902272D01*
X47192348Y-60024208D01*
X47192353Y-60024210D01*
X47192356Y-60024212D01*
X47417679Y-60117544D01*
X47653256Y-60180666D01*
X47895056Y-60212500D01*
X47895063Y-60212500D01*
X48998937Y-60212500D01*
X48998944Y-60212500D01*
X49240744Y-60180666D01*
X49476321Y-60117544D01*
X49701644Y-60024212D01*
X49912856Y-59902268D01*
X50106345Y-59753799D01*
X50278799Y-59581345D01*
X50427268Y-59387856D01*
X50549212Y-59176644D01*
X50642544Y-58951321D01*
X50705666Y-58715744D01*
X50737500Y-58473944D01*
X50737500Y-58230056D01*
X50705666Y-57988256D01*
X50642544Y-57752679D01*
X50611791Y-57678436D01*
X50595239Y-57638475D01*
X50549212Y-57527356D01*
X50549210Y-57527353D01*
X50549208Y-57527348D01*
X50427272Y-57316151D01*
X50427268Y-57316144D01*
X50384518Y-57260431D01*
X50278800Y-57122656D01*
X50278794Y-57122649D01*
X50106350Y-56950205D01*
X50106343Y-56950199D01*
X49912864Y-56801738D01*
X49912862Y-56801736D01*
X49912856Y-56801732D01*
X49912851Y-56801729D01*
X49912848Y-56801727D01*
X49701651Y-56679791D01*
X49701640Y-56679786D01*
X49476330Y-56586459D01*
X49476323Y-56586457D01*
X49476321Y-56586456D01*
X49240744Y-56523334D01*
X49200333Y-56518013D01*
X48998951Y-56491500D01*
X48998944Y-56491500D01*
X47895056Y-56491500D01*
X47895048Y-56491500D01*
X47664896Y-56521801D01*
X47653256Y-56523334D01*
X47417679Y-56586456D01*
X47417669Y-56586459D01*
X47192359Y-56679786D01*
X47192348Y-56679791D01*
X46981151Y-56801727D01*
X46981135Y-56801738D01*
X46787656Y-56950199D01*
X46787649Y-56950205D01*
X46615205Y-57122649D01*
X46615199Y-57122656D01*
X46466738Y-57316135D01*
X46466727Y-57316151D01*
X46344791Y-57527348D01*
X46344786Y-57527359D01*
X46251459Y-57752669D01*
X46251456Y-57752679D01*
X46188335Y-57988253D01*
X46188333Y-57988264D01*
X46156500Y-58230048D01*
X42665500Y-58230048D01*
X42665500Y-48642835D01*
X46144500Y-48642835D01*
X46144500Y-48885164D01*
X46169048Y-49071613D01*
X46176129Y-49125398D01*
X46206091Y-49237219D01*
X46238844Y-49359456D01*
X46331569Y-49583315D01*
X46331577Y-49583332D01*
X46452730Y-49793174D01*
X46600240Y-49985414D01*
X46600246Y-49985421D01*
X46771578Y-50156753D01*
X46771585Y-50156759D01*
X46963825Y-50304269D01*
X47173667Y-50425422D01*
X47173672Y-50425424D01*
X47173675Y-50425426D01*
X47173679Y-50425427D01*
X47173684Y-50425430D01*
X47244679Y-50454837D01*
X47397544Y-50518156D01*
X47631602Y-50580871D01*
X47871843Y-50612500D01*
X47871850Y-50612500D01*
X48998150Y-50612500D01*
X48998157Y-50612500D01*
X49238398Y-50580871D01*
X49472456Y-50518156D01*
X49696325Y-50425426D01*
X49906175Y-50304269D01*
X50098416Y-50156758D01*
X50269758Y-49985416D01*
X50417269Y-49793175D01*
X50538426Y-49583325D01*
X50631156Y-49359456D01*
X50693871Y-49125398D01*
X50725500Y-48885157D01*
X50725500Y-48642843D01*
X50704545Y-48483681D01*
X50704316Y-48481943D01*
X50693871Y-48402602D01*
X50631156Y-48168544D01*
X50567297Y-48014376D01*
X50538430Y-47944684D01*
X50538422Y-47944667D01*
X50417269Y-47734825D01*
X50269759Y-47542585D01*
X50269753Y-47542578D01*
X50098421Y-47371246D01*
X50098414Y-47371240D01*
X49906174Y-47223730D01*
X49696332Y-47102577D01*
X49696321Y-47102572D01*
X49494211Y-47018855D01*
X49439808Y-46975014D01*
X49417743Y-46908720D01*
X49435022Y-46841020D01*
X49486160Y-46793410D01*
X49494205Y-46789736D01*
X49601702Y-46745209D01*
X49701635Y-46703816D01*
X49701638Y-46703814D01*
X49701644Y-46703812D01*
X49912856Y-46581868D01*
X50106345Y-46433399D01*
X50278799Y-46260945D01*
X50427268Y-46067456D01*
X50549212Y-45856244D01*
X50642544Y-45630921D01*
X50705666Y-45395344D01*
X50737500Y-45153544D01*
X50737500Y-44909656D01*
X50705666Y-44667856D01*
X50642544Y-44432279D01*
X50549212Y-44206956D01*
X50549210Y-44206953D01*
X50549208Y-44206948D01*
X50427272Y-43995751D01*
X50427268Y-43995744D01*
X50278799Y-43802255D01*
X50278794Y-43802249D01*
X50106350Y-43629805D01*
X50106343Y-43629799D01*
X49912864Y-43481338D01*
X49912862Y-43481336D01*
X49912856Y-43481332D01*
X49912851Y-43481329D01*
X49912848Y-43481327D01*
X49701651Y-43359391D01*
X49701640Y-43359386D01*
X49476330Y-43266059D01*
X49476323Y-43266057D01*
X49476321Y-43266056D01*
X49240744Y-43202934D01*
X49200333Y-43197613D01*
X48998951Y-43171100D01*
X48998944Y-43171100D01*
X47895056Y-43171100D01*
X47895048Y-43171100D01*
X47664896Y-43201401D01*
X47653256Y-43202934D01*
X47417679Y-43266056D01*
X47417669Y-43266059D01*
X47192359Y-43359386D01*
X47192348Y-43359391D01*
X46981151Y-43481327D01*
X46981135Y-43481338D01*
X46787656Y-43629799D01*
X46787649Y-43629805D01*
X46615205Y-43802249D01*
X46615199Y-43802256D01*
X46466738Y-43995735D01*
X46466727Y-43995751D01*
X46344791Y-44206948D01*
X46344786Y-44206959D01*
X46251459Y-44432269D01*
X46251456Y-44432279D01*
X46188335Y-44667853D01*
X46188333Y-44667864D01*
X46156500Y-44909648D01*
X46156500Y-45153551D01*
X46168998Y-45248477D01*
X46188334Y-45395344D01*
X46251456Y-45630920D01*
X46251459Y-45630930D01*
X46344786Y-45856240D01*
X46344791Y-45856251D01*
X46466727Y-46067448D01*
X46466738Y-46067464D01*
X46615199Y-46260943D01*
X46615205Y-46260950D01*
X46787649Y-46433394D01*
X46787656Y-46433400D01*
X46830990Y-46466651D01*
X46981144Y-46581868D01*
X46981151Y-46581872D01*
X47192348Y-46703808D01*
X47192353Y-46703810D01*
X47192356Y-46703812D01*
X47192366Y-46703816D01*
X47387788Y-46784763D01*
X47442191Y-46828604D01*
X47464256Y-46894898D01*
X47446977Y-46962598D01*
X47395839Y-47010208D01*
X47387788Y-47013885D01*
X47173678Y-47102572D01*
X47173667Y-47102577D01*
X46963825Y-47223730D01*
X46771585Y-47371240D01*
X46771578Y-47371246D01*
X46600246Y-47542578D01*
X46600240Y-47542585D01*
X46452730Y-47734825D01*
X46331577Y-47944667D01*
X46331569Y-47944684D01*
X46238844Y-48168543D01*
X46203038Y-48302174D01*
X46184862Y-48370012D01*
X46176130Y-48402599D01*
X46176128Y-48402610D01*
X46144500Y-48642835D01*
X42665500Y-48642835D01*
X42665500Y-37621378D01*
X54546500Y-37621378D01*
X54546500Y-37841821D01*
X54580985Y-38059552D01*
X54649103Y-38269203D01*
X54649104Y-38269206D01*
X54749187Y-38465625D01*
X54878752Y-38643958D01*
X54878756Y-38643963D01*
X55034636Y-38799843D01*
X55034641Y-38799847D01*
X55146727Y-38881282D01*
X55189393Y-38936611D01*
X55195372Y-39006225D01*
X55162767Y-39068020D01*
X55146727Y-39081918D01*
X55034641Y-39163352D01*
X55034636Y-39163356D01*
X54878756Y-39319236D01*
X54878752Y-39319241D01*
X54749187Y-39497574D01*
X54649104Y-39693993D01*
X54649103Y-39693996D01*
X54580985Y-39903647D01*
X54546500Y-40121378D01*
X54546500Y-40341821D01*
X54580985Y-40559552D01*
X54649103Y-40769203D01*
X54649104Y-40769206D01*
X54701661Y-40872352D01*
X54735834Y-40939420D01*
X54749187Y-40965625D01*
X54878752Y-41143958D01*
X54878756Y-41143963D01*
X54899794Y-41165001D01*
X54933279Y-41226324D01*
X54928295Y-41296016D01*
X54886423Y-41351949D01*
X54855448Y-41368863D01*
X54804674Y-41387801D01*
X54804664Y-41387806D01*
X54689455Y-41474052D01*
X54689452Y-41474055D01*
X54603206Y-41589264D01*
X54603202Y-41589271D01*
X54552908Y-41724117D01*
X54547922Y-41770500D01*
X54546501Y-41783723D01*
X54546500Y-41783735D01*
X54546500Y-43679470D01*
X54546501Y-43679476D01*
X54552908Y-43739083D01*
X54603202Y-43873928D01*
X54603206Y-43873935D01*
X54689452Y-43989144D01*
X54689455Y-43989147D01*
X54804664Y-44075393D01*
X54804671Y-44075397D01*
X54939517Y-44125691D01*
X54939516Y-44125691D01*
X54946444Y-44126435D01*
X54999127Y-44132100D01*
X56894872Y-44132099D01*
X56954483Y-44125691D01*
X57089331Y-44075396D01*
X57204546Y-43989146D01*
X57288013Y-43877648D01*
X58484500Y-43877648D01*
X58484500Y-44082351D01*
X58516522Y-44284534D01*
X58579781Y-44479223D01*
X58672715Y-44661613D01*
X58793028Y-44827213D01*
X58937786Y-44971971D01*
X59092749Y-45084556D01*
X59103390Y-45092287D01*
X59219607Y-45151503D01*
X59285776Y-45185218D01*
X59285778Y-45185218D01*
X59285781Y-45185220D01*
X59347621Y-45205313D01*
X59480465Y-45248477D01*
X59581557Y-45264488D01*
X59682648Y-45280500D01*
X59682649Y-45280500D01*
X59887351Y-45280500D01*
X59887352Y-45280500D01*
X60089534Y-45248477D01*
X60284219Y-45185220D01*
X60466610Y-45092287D01*
X60600024Y-44995357D01*
X60632213Y-44971971D01*
X60632215Y-44971968D01*
X60632219Y-44971966D01*
X60776966Y-44827219D01*
X60776968Y-44827215D01*
X60776971Y-44827213D01*
X60829732Y-44754590D01*
X60897287Y-44661610D01*
X60990220Y-44479219D01*
X61053477Y-44284534D01*
X61085500Y-44082352D01*
X61085500Y-43877648D01*
X62584500Y-43877648D01*
X62584500Y-44082351D01*
X62616522Y-44284534D01*
X62679781Y-44479223D01*
X62772715Y-44661613D01*
X62893028Y-44827213D01*
X63037786Y-44971971D01*
X63192749Y-45084556D01*
X63203390Y-45092287D01*
X63319607Y-45151503D01*
X63385776Y-45185218D01*
X63385778Y-45185218D01*
X63385781Y-45185220D01*
X63447621Y-45205313D01*
X63580465Y-45248477D01*
X63681557Y-45264488D01*
X63782648Y-45280500D01*
X63782649Y-45280500D01*
X63987351Y-45280500D01*
X63987352Y-45280500D01*
X64189534Y-45248477D01*
X64384219Y-45185220D01*
X64566610Y-45092287D01*
X64700024Y-44995357D01*
X64732213Y-44971971D01*
X64732215Y-44971968D01*
X64732219Y-44971966D01*
X64876966Y-44827219D01*
X64876968Y-44827215D01*
X64876971Y-44827213D01*
X64929732Y-44754590D01*
X64997287Y-44661610D01*
X65090220Y-44479219D01*
X65153477Y-44284534D01*
X65185500Y-44082352D01*
X65185500Y-43877648D01*
X65173472Y-43801709D01*
X65153477Y-43675465D01*
X65124127Y-43585137D01*
X65090220Y-43480781D01*
X65090218Y-43480778D01*
X65090218Y-43480776D01*
X65036084Y-43374534D01*
X64997287Y-43298390D01*
X64989556Y-43287749D01*
X64876971Y-43132786D01*
X64732213Y-42988028D01*
X64566613Y-42867715D01*
X64566612Y-42867714D01*
X64566610Y-42867713D01*
X64502211Y-42834900D01*
X64384223Y-42774781D01*
X64189534Y-42711522D01*
X64014995Y-42683878D01*
X63987352Y-42679500D01*
X63782648Y-42679500D01*
X63758329Y-42683351D01*
X63580465Y-42711522D01*
X63385776Y-42774781D01*
X63203386Y-42867715D01*
X63037786Y-42988028D01*
X62893028Y-43132786D01*
X62772715Y-43298386D01*
X62679781Y-43480776D01*
X62616522Y-43675465D01*
X62584500Y-43877648D01*
X61085500Y-43877648D01*
X61073472Y-43801709D01*
X61053477Y-43675465D01*
X61024127Y-43585137D01*
X60990220Y-43480781D01*
X60990218Y-43480778D01*
X60990218Y-43480776D01*
X60936084Y-43374534D01*
X60897287Y-43298390D01*
X60889556Y-43287749D01*
X60776971Y-43132786D01*
X60632213Y-42988028D01*
X60466613Y-42867715D01*
X60466612Y-42867714D01*
X60466610Y-42867713D01*
X60402211Y-42834900D01*
X60284223Y-42774781D01*
X60089534Y-42711522D01*
X59914995Y-42683878D01*
X59887352Y-42679500D01*
X59682648Y-42679500D01*
X59658329Y-42683351D01*
X59480465Y-42711522D01*
X59285776Y-42774781D01*
X59103386Y-42867715D01*
X58937786Y-42988028D01*
X58793028Y-43132786D01*
X58672715Y-43298386D01*
X58579781Y-43480776D01*
X58516522Y-43675465D01*
X58484500Y-43877648D01*
X57288013Y-43877648D01*
X57290796Y-43873931D01*
X57298347Y-43853687D01*
X57307389Y-43829444D01*
X57307389Y-43829443D01*
X57330747Y-43766817D01*
X57341091Y-43739083D01*
X57347500Y-43679473D01*
X57347499Y-41783728D01*
X57341091Y-41724117D01*
X57338762Y-41717873D01*
X57290797Y-41589271D01*
X57290793Y-41589264D01*
X57204547Y-41474055D01*
X57204544Y-41474052D01*
X57089335Y-41387806D01*
X57089329Y-41387803D01*
X57038552Y-41368864D01*
X57016489Y-41352347D01*
X56992555Y-41338682D01*
X56988916Y-41331706D01*
X56982619Y-41326992D01*
X56972988Y-41301172D01*
X56960241Y-41276734D01*
X56960951Y-41268898D01*
X56958202Y-41261527D01*
X56964060Y-41234598D01*
X56966548Y-41207149D01*
X56971759Y-41199207D01*
X56973054Y-41193255D01*
X56984048Y-41176499D01*
X56988762Y-41170444D01*
X57015242Y-41143965D01*
X57096933Y-41031525D01*
X57098186Y-41029917D01*
X57124947Y-41010665D01*
X57151035Y-40990549D01*
X57153576Y-40990071D01*
X57154905Y-40989116D01*
X57160122Y-40988842D01*
X57196024Y-40982100D01*
X66824779Y-40982100D01*
X66891818Y-41001785D01*
X66925097Y-41033215D01*
X66981892Y-41111388D01*
X67132213Y-41261709D01*
X67304182Y-41386650D01*
X67312946Y-41391116D01*
X67363742Y-41439091D01*
X67380536Y-41506912D01*
X67357998Y-41573047D01*
X67312946Y-41612084D01*
X67304182Y-41616549D01*
X67132213Y-41741490D01*
X66981890Y-41891813D01*
X66856951Y-42063779D01*
X66760444Y-42253185D01*
X66694753Y-42455360D01*
X66661500Y-42665313D01*
X66661500Y-42877892D01*
X66676616Y-42973328D01*
X66667662Y-43042621D01*
X66641824Y-43080407D01*
X66128047Y-43594184D01*
X66093092Y-43646498D01*
X66093093Y-43646499D01*
X66045914Y-43717108D01*
X65989343Y-43853682D01*
X65989340Y-43853692D01*
X65960500Y-43998679D01*
X65960500Y-45783770D01*
X65940815Y-45850809D01*
X65924181Y-45871451D01*
X63311951Y-48483681D01*
X63250628Y-48517166D01*
X63224270Y-48520000D01*
X62260278Y-48520000D01*
X62304333Y-48443694D01*
X62335000Y-48329244D01*
X62335000Y-48210756D01*
X62304333Y-48096306D01*
X62260278Y-48020000D01*
X63285000Y-48020000D01*
X63285000Y-47322172D01*
X63284999Y-47322155D01*
X63278598Y-47262627D01*
X63278596Y-47262620D01*
X63228354Y-47127913D01*
X63228350Y-47127906D01*
X63142190Y-47012812D01*
X63142187Y-47012809D01*
X63027093Y-46926649D01*
X63027086Y-46926645D01*
X62892379Y-46876403D01*
X62892372Y-46876401D01*
X62832844Y-46870000D01*
X62135000Y-46870000D01*
X62135000Y-47894722D01*
X62058694Y-47850667D01*
X61944244Y-47820000D01*
X61825756Y-47820000D01*
X61711306Y-47850667D01*
X61635000Y-47894722D01*
X61635000Y-46870000D01*
X60937155Y-46870000D01*
X60877627Y-46876401D01*
X60877620Y-46876403D01*
X60742913Y-46926645D01*
X60742906Y-46926649D01*
X60627812Y-47012809D01*
X60627809Y-47012812D01*
X60541649Y-47127906D01*
X60541645Y-47127913D01*
X60491403Y-47262620D01*
X60491401Y-47262627D01*
X60485000Y-47322155D01*
X60485000Y-48020000D01*
X61509722Y-48020000D01*
X61465667Y-48096306D01*
X61435000Y-48210756D01*
X61435000Y-48329244D01*
X61465667Y-48443694D01*
X61509722Y-48520000D01*
X60485000Y-48520000D01*
X60485000Y-49217844D01*
X60491401Y-49277372D01*
X60491403Y-49277379D01*
X60541645Y-49412086D01*
X60541649Y-49412093D01*
X60627809Y-49527187D01*
X60627812Y-49527190D01*
X60742906Y-49613350D01*
X60742913Y-49613354D01*
X60877620Y-49663596D01*
X60877627Y-49663598D01*
X60937155Y-49669999D01*
X60937172Y-49670000D01*
X61635000Y-49670000D01*
X61635000Y-48645277D01*
X61711306Y-48689333D01*
X61825756Y-48720000D01*
X61944244Y-48720000D01*
X62058694Y-48689333D01*
X62135000Y-48645277D01*
X62135000Y-49609270D01*
X62115315Y-49676309D01*
X62098681Y-49696951D01*
X59030451Y-52765181D01*
X58969128Y-52798666D01*
X58942770Y-52801500D01*
X57196024Y-52801500D01*
X57128985Y-52781815D01*
X57095705Y-52750384D01*
X57015245Y-52639638D01*
X56859365Y-52483758D01*
X56859357Y-52483752D01*
X56747270Y-52402317D01*
X56704606Y-52346989D01*
X56698627Y-52277376D01*
X56731232Y-52215580D01*
X56747265Y-52201686D01*
X56859365Y-52120242D01*
X57015242Y-51964365D01*
X57144815Y-51786022D01*
X57244895Y-51589606D01*
X57313015Y-51379951D01*
X57347500Y-51162222D01*
X57347500Y-50941778D01*
X57313015Y-50724049D01*
X57266494Y-50580869D01*
X57244896Y-50514396D01*
X57244895Y-50514393D01*
X57165061Y-50357713D01*
X57144815Y-50317978D01*
X57060206Y-50201523D01*
X57015247Y-50139641D01*
X57015243Y-50139636D01*
X56859363Y-49983756D01*
X56859358Y-49983752D01*
X56681025Y-49854187D01*
X56681024Y-49854186D01*
X56681022Y-49854185D01*
X56602352Y-49814100D01*
X56484606Y-49754104D01*
X56484603Y-49754103D01*
X56274952Y-49685985D01*
X56166086Y-49668742D01*
X56057222Y-49651500D01*
X55836778Y-49651500D01*
X55792727Y-49658477D01*
X55619047Y-49685985D01*
X55409396Y-49754103D01*
X55409393Y-49754104D01*
X55212974Y-49854187D01*
X55034641Y-49983752D01*
X55034636Y-49983756D01*
X54878756Y-50139636D01*
X54878752Y-50139641D01*
X54749187Y-50317974D01*
X54649104Y-50514393D01*
X54649103Y-50514396D01*
X54580985Y-50724047D01*
X54546500Y-50941778D01*
X54546500Y-51162221D01*
X54580985Y-51379952D01*
X54649103Y-51589603D01*
X54649104Y-51589606D01*
X54695185Y-51680043D01*
X54744359Y-51776551D01*
X54749187Y-51786025D01*
X54878752Y-51964358D01*
X54878756Y-51964363D01*
X55034636Y-52120243D01*
X55034641Y-52120247D01*
X55146727Y-52201682D01*
X55189393Y-52257011D01*
X55195372Y-52326625D01*
X55162767Y-52388420D01*
X55146727Y-52402318D01*
X55034641Y-52483752D01*
X55034636Y-52483756D01*
X54878756Y-52639636D01*
X54878752Y-52639641D01*
X54749187Y-52817974D01*
X54649104Y-53014393D01*
X54649103Y-53014396D01*
X54580985Y-53224047D01*
X54568779Y-53301113D01*
X54546500Y-53441778D01*
X54546500Y-53662222D01*
X54560249Y-53749031D01*
X54580985Y-53879952D01*
X54649103Y-54089603D01*
X54649104Y-54089606D01*
X54669766Y-54130156D01*
X54748054Y-54283803D01*
X54749187Y-54286025D01*
X54878752Y-54464358D01*
X54878756Y-54464363D01*
X54899794Y-54485401D01*
X54933279Y-54546724D01*
X54928295Y-54616416D01*
X54886423Y-54672349D01*
X54855448Y-54689263D01*
X54804674Y-54708201D01*
X54804664Y-54708206D01*
X54689455Y-54794452D01*
X54689452Y-54794455D01*
X54603206Y-54909664D01*
X54603202Y-54909671D01*
X54552908Y-55044517D01*
X54549269Y-55078369D01*
X54546501Y-55104123D01*
X54546500Y-55104135D01*
X54546500Y-56999870D01*
X54546501Y-56999876D01*
X54552908Y-57059483D01*
X54603202Y-57194328D01*
X54603206Y-57194335D01*
X54689452Y-57309544D01*
X54689455Y-57309547D01*
X54804664Y-57395793D01*
X54804671Y-57395797D01*
X54939517Y-57446091D01*
X54939516Y-57446091D01*
X54946444Y-57446835D01*
X54999127Y-57452500D01*
X56894872Y-57452499D01*
X56954483Y-57446091D01*
X57089331Y-57395796D01*
X57204546Y-57309546D01*
X57290796Y-57194331D01*
X57341091Y-57059483D01*
X57347500Y-56999873D01*
X57347499Y-55779778D01*
X60484500Y-55779778D01*
X60484500Y-56000221D01*
X60518985Y-56217952D01*
X60587103Y-56427603D01*
X60587104Y-56427606D01*
X60635881Y-56523333D01*
X60686083Y-56621860D01*
X60687187Y-56624025D01*
X60816752Y-56802358D01*
X60816756Y-56802363D01*
X60972636Y-56958243D01*
X60972641Y-56958247D01*
X61029949Y-56999883D01*
X61150978Y-57087815D01*
X61279375Y-57153237D01*
X61347393Y-57187895D01*
X61347396Y-57187896D01*
X61379716Y-57198397D01*
X61557049Y-57256015D01*
X61774778Y-57290500D01*
X61774779Y-57290500D01*
X61995221Y-57290500D01*
X61995222Y-57290500D01*
X62212951Y-57256015D01*
X62422606Y-57187895D01*
X62619022Y-57087815D01*
X62797365Y-56958242D01*
X62953242Y-56802365D01*
X63082815Y-56624022D01*
X63182895Y-56427606D01*
X63251015Y-56217951D01*
X63285500Y-56000222D01*
X63285500Y-55779778D01*
X63251015Y-55562049D01*
X63204417Y-55418634D01*
X63182896Y-55352396D01*
X63182895Y-55352393D01*
X63090214Y-55170500D01*
X63082815Y-55155978D01*
X63026429Y-55078369D01*
X62953247Y-54977641D01*
X62953243Y-54977636D01*
X62797363Y-54821756D01*
X62797358Y-54821752D01*
X62619025Y-54692187D01*
X62619024Y-54692186D01*
X62619022Y-54692185D01*
X62551752Y-54657909D01*
X62422606Y-54592104D01*
X62422603Y-54592103D01*
X62212952Y-54523985D01*
X62010122Y-54491860D01*
X61995222Y-54489500D01*
X61774778Y-54489500D01*
X61759878Y-54491860D01*
X61557047Y-54523985D01*
X61347396Y-54592103D01*
X61347393Y-54592104D01*
X61150974Y-54692187D01*
X60972641Y-54821752D01*
X60972636Y-54821756D01*
X60816756Y-54977636D01*
X60816752Y-54977641D01*
X60687187Y-55155974D01*
X60587104Y-55352393D01*
X60587103Y-55352396D01*
X60518985Y-55562047D01*
X60484500Y-55779778D01*
X57347499Y-55779778D01*
X57347499Y-55104128D01*
X57341091Y-55044517D01*
X57331643Y-55019186D01*
X57290797Y-54909671D01*
X57290793Y-54909664D01*
X57204547Y-54794455D01*
X57204544Y-54794452D01*
X57089335Y-54708206D01*
X57089329Y-54708203D01*
X57038552Y-54689264D01*
X57016489Y-54672747D01*
X56992555Y-54659082D01*
X56988916Y-54652106D01*
X56982619Y-54647392D01*
X56972988Y-54621572D01*
X56960241Y-54597134D01*
X56960951Y-54589298D01*
X56958202Y-54581927D01*
X56964060Y-54554998D01*
X56966548Y-54527549D01*
X56971759Y-54519607D01*
X56973054Y-54513655D01*
X56984048Y-54496899D01*
X56988762Y-54490844D01*
X57015242Y-54464365D01*
X57096933Y-54351925D01*
X57098186Y-54350317D01*
X57124947Y-54331065D01*
X57151035Y-54310949D01*
X57153576Y-54310471D01*
X57154905Y-54309516D01*
X57160122Y-54309242D01*
X57196024Y-54302500D01*
X59378920Y-54302500D01*
X59476462Y-54283096D01*
X59523913Y-54273658D01*
X59629547Y-54229902D01*
X59660488Y-54217087D01*
X59660488Y-54217086D01*
X59660495Y-54217084D01*
X59660501Y-54217080D01*
X59712314Y-54182460D01*
X59712315Y-54182459D01*
X59735740Y-54166807D01*
X59783416Y-54134952D01*
X66483566Y-47434800D01*
X66544889Y-47401316D01*
X66614581Y-47406300D01*
X66670514Y-47448172D01*
X66694931Y-47513636D01*
X66693720Y-47541879D01*
X66661500Y-47745312D01*
X66661500Y-47957886D01*
X66683423Y-48096306D01*
X66694754Y-48167843D01*
X66733681Y-48287648D01*
X66760444Y-48370014D01*
X66856951Y-48559420D01*
X66981890Y-48731386D01*
X67132213Y-48881709D01*
X67304182Y-49006650D01*
X67312946Y-49011116D01*
X67363742Y-49059091D01*
X67380536Y-49126912D01*
X67357998Y-49193047D01*
X67312946Y-49232084D01*
X67304182Y-49236549D01*
X67132213Y-49361490D01*
X66981890Y-49511813D01*
X66856951Y-49683779D01*
X66760444Y-49873185D01*
X66694753Y-50075360D01*
X66684573Y-50139635D01*
X66661500Y-50285313D01*
X66661500Y-50497887D01*
X66694754Y-50707843D01*
X66720925Y-50788390D01*
X66760444Y-50910014D01*
X66856951Y-51099420D01*
X66981890Y-51271386D01*
X67132213Y-51421709D01*
X67304182Y-51546650D01*
X67312946Y-51551116D01*
X67363742Y-51599091D01*
X67380536Y-51666912D01*
X67357998Y-51733047D01*
X67312946Y-51772084D01*
X67304182Y-51776549D01*
X67132213Y-51901490D01*
X66981890Y-52051813D01*
X66856951Y-52223779D01*
X66760444Y-52413185D01*
X66694753Y-52615360D01*
X66661500Y-52825313D01*
X66661500Y-53037886D01*
X66676576Y-53133076D01*
X66694754Y-53247843D01*
X66717775Y-53318695D01*
X66760444Y-53450014D01*
X66856951Y-53639420D01*
X66981890Y-53811386D01*
X67132213Y-53961709D01*
X67304182Y-54086650D01*
X67312946Y-54091116D01*
X67363742Y-54139091D01*
X67380536Y-54206912D01*
X67357998Y-54273047D01*
X67312946Y-54312084D01*
X67304182Y-54316549D01*
X67132213Y-54441490D01*
X66981890Y-54591813D01*
X66856951Y-54763779D01*
X66760444Y-54953185D01*
X66694753Y-55155360D01*
X66661500Y-55365313D01*
X66661500Y-55577886D01*
X66693476Y-55779778D01*
X66694754Y-55787843D01*
X66721702Y-55870781D01*
X66760444Y-55990014D01*
X66856951Y-56179420D01*
X66981890Y-56351386D01*
X67132213Y-56501709D01*
X67304182Y-56626650D01*
X67312946Y-56631116D01*
X67363742Y-56679091D01*
X67380536Y-56746912D01*
X67357998Y-56813047D01*
X67312946Y-56852084D01*
X67304182Y-56856549D01*
X67132213Y-56981490D01*
X66981890Y-57131813D01*
X66856951Y-57303779D01*
X66760444Y-57493185D01*
X66694753Y-57695360D01*
X66685675Y-57752679D01*
X66661500Y-57905313D01*
X66661500Y-58117887D01*
X66694754Y-58327843D01*
X66742225Y-58473944D01*
X66760444Y-58530014D01*
X66856951Y-58719420D01*
X66981890Y-58891386D01*
X67132213Y-59041709D01*
X67304182Y-59166650D01*
X67312946Y-59171116D01*
X67363742Y-59219091D01*
X67380536Y-59286912D01*
X67357998Y-59353047D01*
X67312946Y-59392084D01*
X67304182Y-59396549D01*
X67132213Y-59521490D01*
X66981890Y-59671813D01*
X66856951Y-59843779D01*
X66760444Y-60033185D01*
X66694753Y-60235360D01*
X66675374Y-60357715D01*
X66661500Y-60445313D01*
X66661500Y-60657887D01*
X66663669Y-60671581D01*
X66677816Y-60760905D01*
X66694754Y-60867843D01*
X66748133Y-61032127D01*
X66760444Y-61070014D01*
X66856951Y-61259420D01*
X66981890Y-61431386D01*
X67132213Y-61581709D01*
X67304182Y-61706650D01*
X67312946Y-61711116D01*
X67363742Y-61759091D01*
X67380536Y-61826912D01*
X67357998Y-61893047D01*
X67312946Y-61932084D01*
X67304182Y-61936549D01*
X67132213Y-62061490D01*
X66981890Y-62211813D01*
X66856951Y-62383779D01*
X66760444Y-62573185D01*
X66694753Y-62775360D01*
X66661500Y-62985313D01*
X66661500Y-63197886D01*
X66693432Y-63399500D01*
X66694754Y-63407843D01*
X66757824Y-63601953D01*
X66760444Y-63610014D01*
X66856951Y-63799420D01*
X66981890Y-63971386D01*
X67132213Y-64121709D01*
X67304182Y-64246650D01*
X67312946Y-64251116D01*
X67363742Y-64299091D01*
X67380536Y-64366912D01*
X67357998Y-64433047D01*
X67312946Y-64472084D01*
X67304182Y-64476549D01*
X67132213Y-64601490D01*
X66981890Y-64751813D01*
X66856951Y-64923779D01*
X66760444Y-65113185D01*
X66694753Y-65315360D01*
X66661500Y-65525313D01*
X66661500Y-65737886D01*
X66682345Y-65869500D01*
X66694754Y-65947843D01*
X66735081Y-66071957D01*
X66760444Y-66150014D01*
X66856951Y-66339420D01*
X66981890Y-66511386D01*
X67132213Y-66661709D01*
X67304182Y-66786650D01*
X67312946Y-66791116D01*
X67363742Y-66839091D01*
X67380536Y-66906912D01*
X67357998Y-66973047D01*
X67312946Y-67012084D01*
X67304182Y-67016549D01*
X67132213Y-67141490D01*
X66981890Y-67291813D01*
X66856951Y-67463779D01*
X66760444Y-67653185D01*
X66694753Y-67855360D01*
X66671668Y-68001113D01*
X66661500Y-68065313D01*
X66661500Y-68277887D01*
X66694754Y-68487843D01*
X66751039Y-68661071D01*
X66760444Y-68690014D01*
X66856951Y-68879420D01*
X66981890Y-69051386D01*
X67132213Y-69201709D01*
X67304182Y-69326650D01*
X67312946Y-69331116D01*
X67363742Y-69379091D01*
X67380536Y-69446912D01*
X67357998Y-69513047D01*
X67312946Y-69552084D01*
X67304182Y-69556549D01*
X67132213Y-69681490D01*
X66981890Y-69831813D01*
X66856951Y-70003779D01*
X66760444Y-70193185D01*
X66694753Y-70395360D01*
X66661500Y-70605313D01*
X66661500Y-70817886D01*
X66689588Y-70995231D01*
X66694754Y-71027843D01*
X66743846Y-71178933D01*
X66760444Y-71230014D01*
X66856951Y-71419420D01*
X66981890Y-71591386D01*
X67132213Y-71741709D01*
X67304182Y-71866650D01*
X67312946Y-71871116D01*
X67363742Y-71919091D01*
X67380536Y-71986912D01*
X67357998Y-72053047D01*
X67312946Y-72092084D01*
X67304182Y-72096549D01*
X67132213Y-72221490D01*
X66981890Y-72371813D01*
X66856951Y-72543779D01*
X66760444Y-72733185D01*
X66694753Y-72935360D01*
X66686355Y-72988386D01*
X66661500Y-73145313D01*
X66661500Y-73357887D01*
X66694754Y-73567843D01*
X66759309Y-73766523D01*
X66760444Y-73770014D01*
X66856951Y-73959420D01*
X66981890Y-74131386D01*
X67132213Y-74281709D01*
X67304182Y-74406650D01*
X67312946Y-74411116D01*
X67363742Y-74459091D01*
X67380536Y-74526912D01*
X67357998Y-74593047D01*
X67312946Y-74632084D01*
X67304182Y-74636549D01*
X67132213Y-74761490D01*
X66981890Y-74911813D01*
X66856951Y-75083779D01*
X66760444Y-75273185D01*
X66694753Y-75475360D01*
X66669467Y-75635009D01*
X66661500Y-75685313D01*
X66661500Y-75897887D01*
X66663654Y-75911484D01*
X66689608Y-76075357D01*
X66694754Y-76107843D01*
X66747381Y-76269812D01*
X66760444Y-76310014D01*
X66856951Y-76499420D01*
X66981890Y-76671386D01*
X67132213Y-76821709D01*
X67304182Y-76946650D01*
X67312946Y-76951116D01*
X67363742Y-76999091D01*
X67380536Y-77066912D01*
X67357998Y-77133047D01*
X67312946Y-77172084D01*
X67304182Y-77176549D01*
X67132213Y-77301490D01*
X66981890Y-77451813D01*
X66856951Y-77623779D01*
X66760444Y-77813185D01*
X66694753Y-78015360D01*
X66667960Y-78184527D01*
X66661500Y-78225313D01*
X66661500Y-78437887D01*
X66671037Y-78498101D01*
X66684924Y-78585783D01*
X66694754Y-78647843D01*
X66735081Y-78771957D01*
X66760444Y-78850014D01*
X66856951Y-79039420D01*
X66981890Y-79211386D01*
X67132213Y-79361709D01*
X67304179Y-79486648D01*
X67304181Y-79486649D01*
X67304184Y-79486651D01*
X67313493Y-79491394D01*
X67364290Y-79539366D01*
X67381087Y-79607187D01*
X67358552Y-79673322D01*
X67313505Y-79712360D01*
X67304446Y-79716976D01*
X67304440Y-79716980D01*
X67250282Y-79756327D01*
X67250282Y-79756328D01*
X67841766Y-80347812D01*
X67799708Y-80359082D01*
X67674292Y-80431490D01*
X67571890Y-80533892D01*
X67499482Y-80659308D01*
X67488212Y-80701366D01*
X66896728Y-80109882D01*
X66896727Y-80109882D01*
X66857380Y-80164039D01*
X66760904Y-80353382D01*
X66695242Y-80555469D01*
X66695242Y-80555472D01*
X66662000Y-80765353D01*
X66662000Y-80977846D01*
X66695242Y-81187727D01*
X66695242Y-81187730D01*
X66760904Y-81389817D01*
X66857375Y-81579150D01*
X66896728Y-81633316D01*
X67488212Y-81041833D01*
X67499482Y-81083892D01*
X67571890Y-81209308D01*
X67674292Y-81311710D01*
X67799708Y-81384118D01*
X67841765Y-81395387D01*
X67250282Y-81986869D01*
X67250282Y-81986870D01*
X67304452Y-82026226D01*
X67304451Y-82026226D01*
X67313495Y-82030834D01*
X67364292Y-82078808D01*
X67381087Y-82146629D01*
X67358550Y-82212764D01*
X67313499Y-82251802D01*
X67304182Y-82256549D01*
X67132213Y-82381490D01*
X66981890Y-82531813D01*
X66856951Y-82703779D01*
X66760444Y-82893185D01*
X66694753Y-83095360D01*
X66661500Y-83305313D01*
X66661500Y-83517886D01*
X66688504Y-83688386D01*
X66694754Y-83727843D01*
X66697079Y-83735000D01*
X66760444Y-83930014D01*
X66856951Y-84119420D01*
X66981890Y-84291386D01*
X67132213Y-84441709D01*
X67304179Y-84566648D01*
X67304181Y-84566649D01*
X67304184Y-84566651D01*
X67493588Y-84663157D01*
X67695757Y-84728846D01*
X67905713Y-84762100D01*
X67905714Y-84762100D01*
X68118286Y-84762100D01*
X68118287Y-84762100D01*
X68328243Y-84728846D01*
X68530412Y-84663157D01*
X68719816Y-84566651D01*
X68806138Y-84503935D01*
X68891786Y-84441709D01*
X68891788Y-84441706D01*
X68891792Y-84441704D01*
X69042104Y-84291392D01*
X69042106Y-84291388D01*
X69042109Y-84291386D01*
X69167048Y-84119420D01*
X69167047Y-84119420D01*
X69167051Y-84119416D01*
X69263557Y-83930012D01*
X69329246Y-83727843D01*
X69362500Y-83517887D01*
X69362500Y-83305313D01*
X69329246Y-83095357D01*
X69263557Y-82893188D01*
X69167051Y-82703784D01*
X69167049Y-82703781D01*
X69167048Y-82703779D01*
X69042109Y-82531813D01*
X68891786Y-82381490D01*
X68719817Y-82256549D01*
X68710504Y-82251804D01*
X68659707Y-82203830D01*
X68642912Y-82136009D01*
X68665449Y-82069874D01*
X68710507Y-82030832D01*
X68719555Y-82026222D01*
X68773716Y-81986870D01*
X68773717Y-81986870D01*
X68182233Y-81395387D01*
X68224292Y-81384118D01*
X68349708Y-81311710D01*
X68452110Y-81209308D01*
X68524518Y-81083892D01*
X68535787Y-81041834D01*
X69127270Y-81633317D01*
X69127270Y-81633316D01*
X69166622Y-81579154D01*
X69263095Y-81389817D01*
X69328757Y-81187730D01*
X69328757Y-81187727D01*
X69362000Y-80977846D01*
X69362000Y-80765353D01*
X69328757Y-80555472D01*
X69328757Y-80555469D01*
X69263095Y-80353382D01*
X69166624Y-80164049D01*
X69127270Y-80109882D01*
X69127269Y-80109882D01*
X68535787Y-80701365D01*
X68524518Y-80659308D01*
X68452110Y-80533892D01*
X68349708Y-80431490D01*
X68224292Y-80359082D01*
X68182233Y-80347812D01*
X68773716Y-79756328D01*
X68719547Y-79716973D01*
X68719547Y-79716972D01*
X68710500Y-79712363D01*
X68659706Y-79664388D01*
X68642912Y-79596566D01*
X68665451Y-79530432D01*
X68710508Y-79491393D01*
X68719816Y-79486651D01*
X68799007Y-79429115D01*
X68891786Y-79361709D01*
X68891788Y-79361706D01*
X68891792Y-79361704D01*
X69042104Y-79211392D01*
X69042106Y-79211388D01*
X69042109Y-79211386D01*
X69167048Y-79039420D01*
X69167047Y-79039420D01*
X69167051Y-79039416D01*
X69263557Y-78850012D01*
X69329246Y-78647843D01*
X69362500Y-78437887D01*
X69362500Y-78225313D01*
X69329246Y-78015357D01*
X69263557Y-77813188D01*
X69167051Y-77623784D01*
X69167049Y-77623781D01*
X69167048Y-77623779D01*
X69042109Y-77451813D01*
X68891786Y-77301490D01*
X68719820Y-77176551D01*
X68719115Y-77176191D01*
X68711054Y-77172085D01*
X68660259Y-77124112D01*
X68643463Y-77056292D01*
X68665999Y-76990156D01*
X68711054Y-76951115D01*
X68719816Y-76946651D01*
X68766371Y-76912827D01*
X68891786Y-76821709D01*
X68891788Y-76821706D01*
X68891792Y-76821704D01*
X69042104Y-76671392D01*
X69042106Y-76671388D01*
X69042109Y-76671386D01*
X69167048Y-76499420D01*
X69167047Y-76499420D01*
X69167051Y-76499416D01*
X69263557Y-76310012D01*
X69329246Y-76107843D01*
X69362500Y-75897887D01*
X69362500Y-75685313D01*
X69329246Y-75475357D01*
X69263557Y-75273188D01*
X69167051Y-75083784D01*
X69167049Y-75083781D01*
X69167048Y-75083779D01*
X69042109Y-74911813D01*
X68891786Y-74761490D01*
X68719820Y-74636551D01*
X68719115Y-74636191D01*
X68711054Y-74632085D01*
X68660259Y-74584112D01*
X68643463Y-74516292D01*
X68665999Y-74450156D01*
X68711054Y-74411115D01*
X68719816Y-74406651D01*
X68793124Y-74353390D01*
X68891786Y-74281709D01*
X68891788Y-74281706D01*
X68891792Y-74281704D01*
X69042104Y-74131392D01*
X69042106Y-74131388D01*
X69042109Y-74131386D01*
X69167048Y-73959420D01*
X69167047Y-73959420D01*
X69167051Y-73959416D01*
X69263557Y-73770012D01*
X69329246Y-73567843D01*
X69362500Y-73357887D01*
X69362500Y-73145313D01*
X69329246Y-72935357D01*
X69263557Y-72733188D01*
X69167051Y-72543784D01*
X69167049Y-72543781D01*
X69167048Y-72543779D01*
X69042109Y-72371813D01*
X68891786Y-72221490D01*
X68719820Y-72096551D01*
X68719115Y-72096191D01*
X68711054Y-72092085D01*
X68660259Y-72044112D01*
X68643463Y-71976292D01*
X68665999Y-71910156D01*
X68711054Y-71871115D01*
X68719816Y-71866651D01*
X68756198Y-71840218D01*
X68891786Y-71741709D01*
X68891788Y-71741706D01*
X68891792Y-71741704D01*
X69042104Y-71591392D01*
X69042106Y-71591388D01*
X69042109Y-71591386D01*
X69167048Y-71419420D01*
X69167047Y-71419420D01*
X69167051Y-71419416D01*
X69263557Y-71230012D01*
X69329246Y-71027843D01*
X69362500Y-70817887D01*
X69362500Y-70605313D01*
X69329246Y-70395357D01*
X69263557Y-70193188D01*
X69167051Y-70003784D01*
X69167049Y-70003781D01*
X69167048Y-70003779D01*
X69042109Y-69831813D01*
X68891786Y-69681490D01*
X68719820Y-69556551D01*
X68717802Y-69555523D01*
X68711054Y-69552085D01*
X68660259Y-69504112D01*
X68643463Y-69436292D01*
X68665999Y-69370156D01*
X68711054Y-69331115D01*
X68719816Y-69326651D01*
X68775179Y-69286428D01*
X68891786Y-69201709D01*
X68891788Y-69201706D01*
X68891792Y-69201704D01*
X69042104Y-69051392D01*
X69042106Y-69051388D01*
X69042109Y-69051386D01*
X69167048Y-68879420D01*
X69167047Y-68879420D01*
X69167051Y-68879416D01*
X69263557Y-68690012D01*
X69329246Y-68487843D01*
X69362500Y-68277887D01*
X69362500Y-68065313D01*
X69329246Y-67855357D01*
X69263557Y-67653188D01*
X69167051Y-67463784D01*
X69167049Y-67463781D01*
X69167048Y-67463779D01*
X69042109Y-67291813D01*
X68891786Y-67141490D01*
X68719820Y-67016551D01*
X68719115Y-67016191D01*
X68711054Y-67012085D01*
X68660259Y-66964112D01*
X68643463Y-66896292D01*
X68665999Y-66830156D01*
X68711054Y-66791115D01*
X68719816Y-66786651D01*
X68830156Y-66706485D01*
X68891786Y-66661709D01*
X68891788Y-66661706D01*
X68891792Y-66661704D01*
X69042104Y-66511392D01*
X69042106Y-66511388D01*
X69042109Y-66511386D01*
X69167048Y-66339420D01*
X69167047Y-66339420D01*
X69167051Y-66339416D01*
X69263557Y-66150012D01*
X69329246Y-65947843D01*
X69362500Y-65737887D01*
X69362500Y-65525313D01*
X69329246Y-65315357D01*
X69263557Y-65113188D01*
X69167051Y-64923784D01*
X69167049Y-64923781D01*
X69167048Y-64923779D01*
X69042109Y-64751813D01*
X68891786Y-64601490D01*
X68719820Y-64476551D01*
X68719115Y-64476191D01*
X68711054Y-64472085D01*
X68660259Y-64424112D01*
X68643463Y-64356292D01*
X68665999Y-64290156D01*
X68711054Y-64251115D01*
X68719816Y-64246651D01*
X68830156Y-64166485D01*
X68891786Y-64121709D01*
X68891788Y-64121706D01*
X68891792Y-64121704D01*
X69042104Y-63971392D01*
X69042106Y-63971388D01*
X69042109Y-63971386D01*
X69167048Y-63799420D01*
X69167047Y-63799420D01*
X69167051Y-63799416D01*
X69263557Y-63610012D01*
X69329246Y-63407843D01*
X69362500Y-63197887D01*
X69362500Y-62985313D01*
X69329246Y-62775357D01*
X69263557Y-62573188D01*
X69167051Y-62383784D01*
X69167049Y-62383781D01*
X69167048Y-62383779D01*
X69042109Y-62211813D01*
X68891786Y-62061490D01*
X68719820Y-61936551D01*
X68715985Y-61934597D01*
X68711054Y-61932085D01*
X68660259Y-61884112D01*
X68643463Y-61816292D01*
X68665999Y-61750156D01*
X68711054Y-61711115D01*
X68719816Y-61706651D01*
X68752245Y-61683090D01*
X68891786Y-61581709D01*
X68891788Y-61581706D01*
X68891792Y-61581704D01*
X69042104Y-61431392D01*
X69042106Y-61431388D01*
X69042109Y-61431386D01*
X69167048Y-61259420D01*
X69167047Y-61259420D01*
X69167051Y-61259416D01*
X69263557Y-61070012D01*
X69329246Y-60867843D01*
X69362500Y-60657887D01*
X69362500Y-60445313D01*
X69329246Y-60235357D01*
X69263557Y-60033188D01*
X69167051Y-59843784D01*
X69167049Y-59843781D01*
X69167048Y-59843779D01*
X69042109Y-59671813D01*
X68891786Y-59521490D01*
X68719820Y-59396551D01*
X68719115Y-59396191D01*
X68711054Y-59392085D01*
X68660259Y-59344112D01*
X68643463Y-59276292D01*
X68665999Y-59210156D01*
X68711054Y-59171115D01*
X68719816Y-59166651D01*
X68821932Y-59092460D01*
X68891786Y-59041709D01*
X68891788Y-59041706D01*
X68891792Y-59041704D01*
X69042104Y-58891392D01*
X69042106Y-58891388D01*
X69042109Y-58891386D01*
X69167048Y-58719420D01*
X69167047Y-58719420D01*
X69167051Y-58719416D01*
X69263557Y-58530012D01*
X69329246Y-58327843D01*
X69362500Y-58117887D01*
X69362500Y-57905313D01*
X69329246Y-57695357D01*
X69263557Y-57493188D01*
X69167051Y-57303784D01*
X69167049Y-57303781D01*
X69167048Y-57303779D01*
X69042109Y-57131813D01*
X68891786Y-56981490D01*
X68719820Y-56856551D01*
X68719115Y-56856191D01*
X68711054Y-56852085D01*
X68660259Y-56804112D01*
X68643463Y-56736292D01*
X68665999Y-56670156D01*
X68711054Y-56631115D01*
X68719816Y-56626651D01*
X68775140Y-56586456D01*
X68891786Y-56501709D01*
X68891788Y-56501706D01*
X68891792Y-56501704D01*
X69042104Y-56351392D01*
X69042106Y-56351388D01*
X69042109Y-56351386D01*
X69167048Y-56179420D01*
X69167047Y-56179420D01*
X69167051Y-56179416D01*
X69263557Y-55990012D01*
X69329246Y-55787843D01*
X69362500Y-55577887D01*
X69362500Y-55365313D01*
X69329246Y-55155357D01*
X69263557Y-54953188D01*
X69167051Y-54763784D01*
X69167049Y-54763781D01*
X69167048Y-54763779D01*
X69042109Y-54591813D01*
X68891786Y-54441490D01*
X68719820Y-54316551D01*
X68719115Y-54316191D01*
X68711054Y-54312085D01*
X68660259Y-54264112D01*
X68643463Y-54196292D01*
X68665999Y-54130156D01*
X68711054Y-54091115D01*
X68719816Y-54086651D01*
X68761040Y-54056700D01*
X68891786Y-53961709D01*
X68891788Y-53961706D01*
X68891792Y-53961704D01*
X69042104Y-53811392D01*
X69042106Y-53811388D01*
X69042109Y-53811386D01*
X69167048Y-53639420D01*
X69167047Y-53639420D01*
X69167051Y-53639416D01*
X69263557Y-53450012D01*
X69329246Y-53247843D01*
X69362500Y-53037887D01*
X69362500Y-52825313D01*
X69329246Y-52615357D01*
X69263557Y-52413188D01*
X69167051Y-52223784D01*
X69167049Y-52223781D01*
X69167048Y-52223779D01*
X69042109Y-52051813D01*
X68891786Y-51901490D01*
X68719820Y-51776551D01*
X68715861Y-51774534D01*
X68711054Y-51772085D01*
X68660259Y-51724112D01*
X68643463Y-51656292D01*
X68665999Y-51590156D01*
X68711054Y-51551115D01*
X68719816Y-51546651D01*
X68779794Y-51503075D01*
X68891786Y-51421709D01*
X68891788Y-51421706D01*
X68891792Y-51421704D01*
X69042104Y-51271392D01*
X69042106Y-51271388D01*
X69042109Y-51271386D01*
X69167048Y-51099420D01*
X69167047Y-51099420D01*
X69167051Y-51099416D01*
X69263557Y-50910012D01*
X69329246Y-50707843D01*
X69362500Y-50497887D01*
X69362500Y-50285313D01*
X69329246Y-50075357D01*
X69263557Y-49873188D01*
X69167051Y-49683784D01*
X69167049Y-49683781D01*
X69167048Y-49683779D01*
X69042109Y-49511813D01*
X68891786Y-49361490D01*
X68719820Y-49236551D01*
X68719115Y-49236191D01*
X68711054Y-49232085D01*
X68660259Y-49184112D01*
X68643463Y-49116292D01*
X68665999Y-49050156D01*
X68711054Y-49011115D01*
X68719816Y-49006651D01*
X68741789Y-48990686D01*
X68891786Y-48881709D01*
X68891788Y-48881706D01*
X68891792Y-48881704D01*
X69042104Y-48731392D01*
X69042106Y-48731388D01*
X69042109Y-48731386D01*
X69167048Y-48559420D01*
X69167047Y-48559420D01*
X69167051Y-48559416D01*
X69263557Y-48370012D01*
X69329246Y-48167843D01*
X69362500Y-47957887D01*
X69362500Y-47745313D01*
X69329246Y-47535357D01*
X69263557Y-47333188D01*
X69167051Y-47143784D01*
X69167049Y-47143781D01*
X69167048Y-47143779D01*
X69042109Y-46971813D01*
X68891786Y-46821490D01*
X68719820Y-46696551D01*
X68719115Y-46696191D01*
X68711054Y-46692085D01*
X68660259Y-46644112D01*
X68643463Y-46576292D01*
X68665999Y-46510156D01*
X68711054Y-46471115D01*
X68719816Y-46466651D01*
X68741789Y-46450686D01*
X68891786Y-46341709D01*
X68891788Y-46341706D01*
X68891792Y-46341704D01*
X69042104Y-46191392D01*
X69042106Y-46191388D01*
X69042109Y-46191386D01*
X69167048Y-46019420D01*
X69167047Y-46019420D01*
X69167051Y-46019416D01*
X69263557Y-45830012D01*
X69329246Y-45627843D01*
X69362500Y-45417887D01*
X69362500Y-45205313D01*
X69329246Y-44995357D01*
X69263557Y-44793188D01*
X69167051Y-44603784D01*
X69167049Y-44603781D01*
X69167048Y-44603779D01*
X69042109Y-44431813D01*
X68891786Y-44281490D01*
X68719820Y-44156551D01*
X68719115Y-44156191D01*
X68711054Y-44152085D01*
X68660259Y-44104112D01*
X68643463Y-44036292D01*
X68665999Y-43970156D01*
X68711054Y-43931115D01*
X68719816Y-43926651D01*
X68785785Y-43878722D01*
X68891786Y-43801709D01*
X68891788Y-43801706D01*
X68891792Y-43801704D01*
X69042104Y-43651392D01*
X69042106Y-43651388D01*
X69042109Y-43651386D01*
X69167048Y-43479420D01*
X69167047Y-43479420D01*
X69167051Y-43479416D01*
X69263557Y-43290012D01*
X69329246Y-43087843D01*
X69362500Y-42877887D01*
X69362500Y-42665313D01*
X69329246Y-42455357D01*
X69263557Y-42253188D01*
X69167051Y-42063784D01*
X69167049Y-42063781D01*
X69167048Y-42063779D01*
X69042109Y-41891813D01*
X68891786Y-41741490D01*
X68719820Y-41616551D01*
X68719115Y-41616191D01*
X68711054Y-41612085D01*
X68660259Y-41564112D01*
X68643463Y-41496292D01*
X68665999Y-41430156D01*
X68711054Y-41391115D01*
X68719816Y-41386651D01*
X68761040Y-41356700D01*
X68891786Y-41261709D01*
X68891788Y-41261706D01*
X68891792Y-41261704D01*
X69042104Y-41111392D01*
X69042106Y-41111388D01*
X69042109Y-41111386D01*
X69167048Y-40939420D01*
X69167047Y-40939420D01*
X69167051Y-40939416D01*
X69263557Y-40750012D01*
X69329246Y-40547843D01*
X69362500Y-40337887D01*
X69362500Y-40125313D01*
X69329246Y-39915357D01*
X69263557Y-39713188D01*
X69167051Y-39523784D01*
X69167049Y-39523781D01*
X69167048Y-39523779D01*
X69042109Y-39351813D01*
X68891786Y-39201490D01*
X68719820Y-39076551D01*
X68719115Y-39076191D01*
X68711054Y-39072085D01*
X68660259Y-39024112D01*
X68643463Y-38956292D01*
X68665999Y-38890156D01*
X68711054Y-38851115D01*
X68719816Y-38846651D01*
X68858320Y-38746023D01*
X68891786Y-38721709D01*
X68891788Y-38721706D01*
X68891792Y-38721704D01*
X69042104Y-38571392D01*
X69042106Y-38571388D01*
X69042109Y-38571386D01*
X69167048Y-38399420D01*
X69167047Y-38399420D01*
X69167051Y-38399416D01*
X69263557Y-38210012D01*
X69329246Y-38007843D01*
X69362500Y-37797887D01*
X69362500Y-37585313D01*
X69329246Y-37375357D01*
X69263557Y-37173188D01*
X69167051Y-36983784D01*
X69167049Y-36983781D01*
X69167048Y-36983779D01*
X69042109Y-36811813D01*
X68891786Y-36661490D01*
X68719820Y-36536551D01*
X68714391Y-36533785D01*
X68711054Y-36532085D01*
X68660259Y-36484112D01*
X68643463Y-36416292D01*
X68665999Y-36350156D01*
X68711054Y-36311115D01*
X68719816Y-36306651D01*
X68741789Y-36290686D01*
X68891786Y-36181709D01*
X68891788Y-36181706D01*
X68891792Y-36181704D01*
X69042104Y-36031392D01*
X69042106Y-36031388D01*
X69042109Y-36031386D01*
X69167048Y-35859420D01*
X69167047Y-35859420D01*
X69167051Y-35859416D01*
X69263557Y-35670012D01*
X69329246Y-35467843D01*
X69362500Y-35257887D01*
X69362500Y-35045313D01*
X81901500Y-35045313D01*
X81901500Y-35257887D01*
X81934754Y-35467843D01*
X81966243Y-35564757D01*
X82000444Y-35670014D01*
X82096951Y-35859420D01*
X82221890Y-36031386D01*
X82372213Y-36181709D01*
X82544182Y-36306650D01*
X82552946Y-36311116D01*
X82603742Y-36359091D01*
X82620536Y-36426912D01*
X82597998Y-36493047D01*
X82552946Y-36532084D01*
X82544182Y-36536549D01*
X82372213Y-36661490D01*
X82221890Y-36811813D01*
X82096951Y-36983779D01*
X82000444Y-37173185D01*
X81934753Y-37375360D01*
X81901500Y-37585313D01*
X81901500Y-37797886D01*
X81928387Y-37967648D01*
X81934754Y-38007843D01*
X81988206Y-38172352D01*
X82000444Y-38210014D01*
X82096951Y-38399420D01*
X82221890Y-38571386D01*
X82372213Y-38721709D01*
X82544182Y-38846650D01*
X82552946Y-38851116D01*
X82603742Y-38899091D01*
X82620536Y-38966912D01*
X82597998Y-39033047D01*
X82552946Y-39072084D01*
X82544182Y-39076549D01*
X82372213Y-39201490D01*
X82221890Y-39351813D01*
X82096951Y-39523779D01*
X82000444Y-39713185D01*
X81934753Y-39915360D01*
X81901500Y-40125313D01*
X81901500Y-40337886D01*
X81921706Y-40465465D01*
X81934754Y-40547843D01*
X81973681Y-40667648D01*
X82000444Y-40750014D01*
X82096951Y-40939420D01*
X82221890Y-41111386D01*
X82372213Y-41261709D01*
X82544182Y-41386650D01*
X82552946Y-41391116D01*
X82603742Y-41439091D01*
X82620536Y-41506912D01*
X82597998Y-41573047D01*
X82552946Y-41612084D01*
X82544182Y-41616549D01*
X82372213Y-41741490D01*
X82221890Y-41891813D01*
X82096951Y-42063779D01*
X82000444Y-42253185D01*
X81934753Y-42455360D01*
X81901500Y-42665313D01*
X81901500Y-42877887D01*
X81934754Y-43087843D01*
X81992660Y-43266059D01*
X82000444Y-43290014D01*
X82096951Y-43479420D01*
X82221890Y-43651386D01*
X82372213Y-43801709D01*
X82544182Y-43926650D01*
X82552946Y-43931116D01*
X82603742Y-43979091D01*
X82620536Y-44046912D01*
X82597998Y-44113047D01*
X82552946Y-44152084D01*
X82544182Y-44156549D01*
X82372213Y-44281490D01*
X82221890Y-44431813D01*
X82096951Y-44603779D01*
X82000444Y-44793185D01*
X81934753Y-44995360D01*
X81909699Y-45153544D01*
X81901500Y-45205313D01*
X81901500Y-45417887D01*
X81934754Y-45627843D01*
X81988673Y-45793789D01*
X82000444Y-45830014D01*
X82096951Y-46019420D01*
X82221890Y-46191386D01*
X82372213Y-46341709D01*
X82544182Y-46466650D01*
X82552946Y-46471116D01*
X82603742Y-46519091D01*
X82620536Y-46586912D01*
X82597998Y-46653047D01*
X82552946Y-46692084D01*
X82544182Y-46696549D01*
X82372213Y-46821490D01*
X82221890Y-46971813D01*
X82096951Y-47143779D01*
X82000444Y-47333185D01*
X81934753Y-47535360D01*
X81901500Y-47745313D01*
X81901500Y-47957886D01*
X81923423Y-48096306D01*
X81934754Y-48167843D01*
X81973681Y-48287648D01*
X82000444Y-48370014D01*
X82096951Y-48559420D01*
X82221890Y-48731386D01*
X82372213Y-48881709D01*
X82544182Y-49006650D01*
X82552946Y-49011116D01*
X82603742Y-49059091D01*
X82620536Y-49126912D01*
X82597998Y-49193047D01*
X82552946Y-49232084D01*
X82544182Y-49236549D01*
X82372213Y-49361490D01*
X82221890Y-49511813D01*
X82096951Y-49683779D01*
X82000444Y-49873185D01*
X81934753Y-50075360D01*
X81924573Y-50139635D01*
X81901500Y-50285313D01*
X81901500Y-50497887D01*
X81934754Y-50707843D01*
X81960925Y-50788390D01*
X82000444Y-50910014D01*
X82096951Y-51099420D01*
X82221890Y-51271386D01*
X82372213Y-51421709D01*
X82544182Y-51546650D01*
X82552946Y-51551116D01*
X82603742Y-51599091D01*
X82620536Y-51666912D01*
X82597998Y-51733047D01*
X82552946Y-51772084D01*
X82544182Y-51776549D01*
X82372213Y-51901490D01*
X82221890Y-52051813D01*
X82096951Y-52223779D01*
X82000444Y-52413185D01*
X81934753Y-52615360D01*
X81901500Y-52825313D01*
X81901500Y-53037886D01*
X81916576Y-53133076D01*
X81934754Y-53247843D01*
X81957775Y-53318695D01*
X82000444Y-53450014D01*
X82096951Y-53639420D01*
X82221890Y-53811386D01*
X82372213Y-53961709D01*
X82544182Y-54086650D01*
X82552946Y-54091116D01*
X82603742Y-54139091D01*
X82620536Y-54206912D01*
X82597998Y-54273047D01*
X82552946Y-54312084D01*
X82544182Y-54316549D01*
X82372213Y-54441490D01*
X82221890Y-54591813D01*
X82096951Y-54763779D01*
X82000444Y-54953185D01*
X81934753Y-55155360D01*
X81901500Y-55365313D01*
X81901500Y-55577886D01*
X81933476Y-55779778D01*
X81934754Y-55787843D01*
X81961702Y-55870781D01*
X82000444Y-55990014D01*
X82096951Y-56179420D01*
X82221890Y-56351386D01*
X82372213Y-56501709D01*
X82544182Y-56626650D01*
X82552946Y-56631116D01*
X82603742Y-56679091D01*
X82620536Y-56746912D01*
X82597998Y-56813047D01*
X82552946Y-56852084D01*
X82544182Y-56856549D01*
X82372213Y-56981490D01*
X82221890Y-57131813D01*
X82096951Y-57303779D01*
X82000444Y-57493185D01*
X81934753Y-57695360D01*
X81925675Y-57752679D01*
X81901500Y-57905313D01*
X81901500Y-58117887D01*
X81934754Y-58327843D01*
X81982225Y-58473944D01*
X82000444Y-58530014D01*
X82096951Y-58719420D01*
X82221890Y-58891386D01*
X82372213Y-59041709D01*
X82544182Y-59166650D01*
X82552946Y-59171116D01*
X82603742Y-59219091D01*
X82620536Y-59286912D01*
X82597998Y-59353047D01*
X82552946Y-59392084D01*
X82544182Y-59396549D01*
X82372213Y-59521490D01*
X82221890Y-59671813D01*
X82096951Y-59843779D01*
X82000444Y-60033185D01*
X81934753Y-60235360D01*
X81915374Y-60357715D01*
X81901500Y-60445313D01*
X81901500Y-60657887D01*
X81903669Y-60671581D01*
X81917816Y-60760905D01*
X81934754Y-60867843D01*
X81988133Y-61032127D01*
X82000444Y-61070014D01*
X82096951Y-61259420D01*
X82221890Y-61431386D01*
X82372213Y-61581709D01*
X82544182Y-61706650D01*
X82552946Y-61711116D01*
X82603742Y-61759091D01*
X82620536Y-61826912D01*
X82597998Y-61893047D01*
X82552946Y-61932084D01*
X82544182Y-61936549D01*
X82372213Y-62061490D01*
X82221890Y-62211813D01*
X82096951Y-62383779D01*
X82000444Y-62573185D01*
X81934753Y-62775360D01*
X81901500Y-62985313D01*
X81901500Y-63197886D01*
X81933432Y-63399500D01*
X81934754Y-63407843D01*
X81997824Y-63601953D01*
X82000444Y-63610014D01*
X82096951Y-63799420D01*
X82221890Y-63971386D01*
X82372213Y-64121709D01*
X82544182Y-64246650D01*
X82552946Y-64251116D01*
X82603742Y-64299091D01*
X82620536Y-64366912D01*
X82597998Y-64433047D01*
X82552946Y-64472084D01*
X82544182Y-64476549D01*
X82372213Y-64601490D01*
X82221890Y-64751813D01*
X82096951Y-64923779D01*
X82000444Y-65113185D01*
X81934753Y-65315360D01*
X81901500Y-65525313D01*
X81901500Y-65737886D01*
X81922345Y-65869500D01*
X81934754Y-65947843D01*
X81975081Y-66071957D01*
X82000444Y-66150014D01*
X82096951Y-66339420D01*
X82221890Y-66511386D01*
X82372213Y-66661709D01*
X82544182Y-66786650D01*
X82552946Y-66791116D01*
X82603742Y-66839091D01*
X82620536Y-66906912D01*
X82597998Y-66973047D01*
X82552946Y-67012084D01*
X82544182Y-67016549D01*
X82372213Y-67141490D01*
X82221890Y-67291813D01*
X82096951Y-67463779D01*
X82000444Y-67653185D01*
X81934753Y-67855360D01*
X81911668Y-68001113D01*
X81901500Y-68065313D01*
X81901500Y-68277887D01*
X81934754Y-68487843D01*
X81991039Y-68661071D01*
X82000444Y-68690014D01*
X82096951Y-68879420D01*
X82221890Y-69051386D01*
X82372213Y-69201709D01*
X82544182Y-69326650D01*
X82552946Y-69331116D01*
X82603742Y-69379091D01*
X82620536Y-69446912D01*
X82597998Y-69513047D01*
X82552946Y-69552084D01*
X82544182Y-69556549D01*
X82372213Y-69681490D01*
X82221890Y-69831813D01*
X82096951Y-70003779D01*
X82000444Y-70193185D01*
X81934753Y-70395360D01*
X81901500Y-70605313D01*
X81901500Y-70817886D01*
X81929588Y-70995231D01*
X81934754Y-71027843D01*
X81983846Y-71178933D01*
X82000444Y-71230014D01*
X82096951Y-71419420D01*
X82221890Y-71591386D01*
X82372213Y-71741709D01*
X82544182Y-71866650D01*
X82552946Y-71871116D01*
X82603742Y-71919091D01*
X82620536Y-71986912D01*
X82597998Y-72053047D01*
X82552946Y-72092084D01*
X82544182Y-72096549D01*
X82372213Y-72221490D01*
X82221890Y-72371813D01*
X82096951Y-72543779D01*
X82000444Y-72733185D01*
X81934753Y-72935360D01*
X81926355Y-72988386D01*
X81901500Y-73145313D01*
X81901500Y-73357887D01*
X81934754Y-73567843D01*
X81999309Y-73766523D01*
X82000444Y-73770014D01*
X82096951Y-73959420D01*
X82221890Y-74131386D01*
X82372213Y-74281709D01*
X82544182Y-74406650D01*
X82552946Y-74411116D01*
X82603742Y-74459091D01*
X82620536Y-74526912D01*
X82597998Y-74593047D01*
X82552946Y-74632084D01*
X82544182Y-74636549D01*
X82372213Y-74761490D01*
X82221890Y-74911813D01*
X82096951Y-75083779D01*
X82000444Y-75273185D01*
X81934753Y-75475360D01*
X81909467Y-75635009D01*
X81901500Y-75685313D01*
X81901500Y-75897887D01*
X81903654Y-75911484D01*
X81929608Y-76075357D01*
X81934754Y-76107843D01*
X81987381Y-76269812D01*
X82000444Y-76310014D01*
X82096951Y-76499420D01*
X82221890Y-76671386D01*
X82372213Y-76821709D01*
X82544182Y-76946650D01*
X82552946Y-76951116D01*
X82603742Y-76999091D01*
X82620536Y-77066912D01*
X82597998Y-77133047D01*
X82552946Y-77172084D01*
X82544182Y-77176549D01*
X82372213Y-77301490D01*
X82221890Y-77451813D01*
X82096951Y-77623779D01*
X82000444Y-77813185D01*
X81934753Y-78015360D01*
X81907960Y-78184527D01*
X81901500Y-78225313D01*
X81901500Y-78437887D01*
X81911037Y-78498101D01*
X81924924Y-78585783D01*
X81934754Y-78647843D01*
X81975081Y-78771957D01*
X82000444Y-78850014D01*
X82096951Y-79039420D01*
X82221890Y-79211386D01*
X82372213Y-79361709D01*
X82544182Y-79486650D01*
X82552946Y-79491116D01*
X82603742Y-79539091D01*
X82620536Y-79606912D01*
X82597998Y-79673047D01*
X82552946Y-79712084D01*
X82544182Y-79716549D01*
X82372213Y-79841490D01*
X82221890Y-79991813D01*
X82096951Y-80163779D01*
X82000444Y-80353185D01*
X81934753Y-80555360D01*
X81901500Y-80765313D01*
X81901500Y-80977886D01*
X81934735Y-81187727D01*
X81934754Y-81187843D01*
X81960684Y-81267648D01*
X82000444Y-81390014D01*
X82096951Y-81579420D01*
X82221890Y-81751386D01*
X82335430Y-81864926D01*
X82368915Y-81926249D01*
X82363931Y-81995941D01*
X82322059Y-82051874D01*
X82291083Y-82068789D01*
X82159669Y-82117803D01*
X82159664Y-82117806D01*
X82044455Y-82204052D01*
X82044452Y-82204055D01*
X81958206Y-82319264D01*
X81958202Y-82319271D01*
X81907908Y-82454117D01*
X81904289Y-82487782D01*
X81901501Y-82513723D01*
X81901500Y-82513735D01*
X81901500Y-84309470D01*
X81901501Y-84309476D01*
X81907908Y-84369083D01*
X81958202Y-84503928D01*
X81958206Y-84503935D01*
X82044452Y-84619144D01*
X82044455Y-84619147D01*
X82159664Y-84705393D01*
X82159671Y-84705397D01*
X82294517Y-84755691D01*
X82294516Y-84755691D01*
X82301444Y-84756435D01*
X82354127Y-84762100D01*
X84149872Y-84762099D01*
X84209483Y-84755691D01*
X84344331Y-84705396D01*
X84459546Y-84619146D01*
X84545796Y-84503931D01*
X84596091Y-84369083D01*
X84602500Y-84309473D01*
X84602500Y-84267648D01*
X86384500Y-84267648D01*
X86384500Y-84472351D01*
X86416522Y-84674534D01*
X86479781Y-84869223D01*
X86543691Y-84994653D01*
X86560156Y-85026966D01*
X86572715Y-85051613D01*
X86693028Y-85217213D01*
X86837786Y-85361971D01*
X86992749Y-85474556D01*
X87003390Y-85482287D01*
X87119607Y-85541503D01*
X87185776Y-85575218D01*
X87185778Y-85575218D01*
X87185781Y-85575220D01*
X87290137Y-85609127D01*
X87380465Y-85638477D01*
X87481557Y-85654488D01*
X87582648Y-85670500D01*
X87582649Y-85670500D01*
X87787351Y-85670500D01*
X87787352Y-85670500D01*
X87989534Y-85638477D01*
X88184219Y-85575220D01*
X88366610Y-85482287D01*
X88459590Y-85414732D01*
X88532213Y-85361971D01*
X88532215Y-85361968D01*
X88532219Y-85361966D01*
X88676966Y-85217219D01*
X88676968Y-85217215D01*
X88676971Y-85217213D01*
X88729732Y-85144590D01*
X88797287Y-85051610D01*
X88890220Y-84869219D01*
X88953477Y-84674534D01*
X88985500Y-84472352D01*
X88985500Y-84267648D01*
X91384500Y-84267648D01*
X91384500Y-84472351D01*
X91416522Y-84674534D01*
X91479781Y-84869223D01*
X91543691Y-84994653D01*
X91560156Y-85026966D01*
X91572715Y-85051613D01*
X91693028Y-85217213D01*
X91837786Y-85361971D01*
X91992749Y-85474556D01*
X92003390Y-85482287D01*
X92119607Y-85541503D01*
X92185776Y-85575218D01*
X92185778Y-85575218D01*
X92185781Y-85575220D01*
X92290137Y-85609127D01*
X92380465Y-85638477D01*
X92481557Y-85654488D01*
X92582648Y-85670500D01*
X92582649Y-85670500D01*
X92787351Y-85670500D01*
X92787352Y-85670500D01*
X92989534Y-85638477D01*
X93184219Y-85575220D01*
X93366610Y-85482287D01*
X93459590Y-85414732D01*
X93532213Y-85361971D01*
X93532215Y-85361968D01*
X93532219Y-85361966D01*
X93676966Y-85217219D01*
X93676968Y-85217215D01*
X93676971Y-85217213D01*
X93729732Y-85144590D01*
X93797287Y-85051610D01*
X93890220Y-84869219D01*
X93953477Y-84674534D01*
X93985500Y-84472352D01*
X93985500Y-84267648D01*
X93953477Y-84065466D01*
X93944454Y-84037697D01*
X93890218Y-83870776D01*
X93856503Y-83804607D01*
X93797287Y-83688390D01*
X93773086Y-83655080D01*
X93676971Y-83522786D01*
X93532213Y-83378028D01*
X93366613Y-83257715D01*
X93366612Y-83257714D01*
X93366610Y-83257713D01*
X93309653Y-83228691D01*
X93184223Y-83164781D01*
X92989534Y-83101522D01*
X92814995Y-83073878D01*
X92787352Y-83069500D01*
X92582648Y-83069500D01*
X92558329Y-83073351D01*
X92380465Y-83101522D01*
X92185776Y-83164781D01*
X92003386Y-83257715D01*
X91837786Y-83378028D01*
X91693028Y-83522786D01*
X91572715Y-83688386D01*
X91479781Y-83870776D01*
X91416522Y-84065465D01*
X91384500Y-84267648D01*
X88985500Y-84267648D01*
X88953477Y-84065466D01*
X88944454Y-84037697D01*
X88890218Y-83870776D01*
X88856503Y-83804607D01*
X88797287Y-83688390D01*
X88773086Y-83655080D01*
X88676971Y-83522786D01*
X88532213Y-83378028D01*
X88366613Y-83257715D01*
X88366612Y-83257714D01*
X88366610Y-83257713D01*
X88309653Y-83228691D01*
X88184223Y-83164781D01*
X87989534Y-83101522D01*
X87814995Y-83073878D01*
X87787352Y-83069500D01*
X87582648Y-83069500D01*
X87558329Y-83073351D01*
X87380465Y-83101522D01*
X87185776Y-83164781D01*
X87003386Y-83257715D01*
X86837786Y-83378028D01*
X86693028Y-83522786D01*
X86572715Y-83688386D01*
X86479781Y-83870776D01*
X86416522Y-84065465D01*
X86384500Y-84267648D01*
X84602500Y-84267648D01*
X84602499Y-82772135D01*
X127434500Y-82772135D01*
X127434500Y-84367870D01*
X127434501Y-84367876D01*
X127440908Y-84427483D01*
X127491202Y-84562328D01*
X127491206Y-84562335D01*
X127577452Y-84677544D01*
X127577455Y-84677547D01*
X127692664Y-84763793D01*
X127692671Y-84763797D01*
X127827517Y-84814091D01*
X127827516Y-84814091D01*
X127834444Y-84814835D01*
X127887127Y-84820500D01*
X129482872Y-84820499D01*
X129542483Y-84814091D01*
X129677331Y-84763796D01*
X129792546Y-84677546D01*
X129878796Y-84562331D01*
X129929091Y-84427483D01*
X129935500Y-84367873D01*
X129935499Y-82772135D01*
X131784500Y-82772135D01*
X131784500Y-84367870D01*
X131784501Y-84367876D01*
X131790908Y-84427483D01*
X131841202Y-84562328D01*
X131841206Y-84562335D01*
X131927452Y-84677544D01*
X131927455Y-84677547D01*
X132042664Y-84763793D01*
X132042671Y-84763797D01*
X132177517Y-84814091D01*
X132177516Y-84814091D01*
X132184444Y-84814835D01*
X132237127Y-84820500D01*
X133832872Y-84820499D01*
X133892483Y-84814091D01*
X134027331Y-84763796D01*
X134142546Y-84677546D01*
X134228796Y-84562331D01*
X134279091Y-84427483D01*
X134285500Y-84367873D01*
X134285499Y-82772135D01*
X136134500Y-82772135D01*
X136134500Y-84367870D01*
X136134501Y-84367876D01*
X136140908Y-84427483D01*
X136191202Y-84562328D01*
X136191206Y-84562335D01*
X136277452Y-84677544D01*
X136277455Y-84677547D01*
X136392664Y-84763793D01*
X136392671Y-84763797D01*
X136527517Y-84814091D01*
X136527516Y-84814091D01*
X136534444Y-84814835D01*
X136587127Y-84820500D01*
X138182872Y-84820499D01*
X138242483Y-84814091D01*
X138377331Y-84763796D01*
X138492546Y-84677546D01*
X138578796Y-84562331D01*
X138629091Y-84427483D01*
X138635500Y-84367873D01*
X138635499Y-82772128D01*
X138629091Y-82712517D01*
X138599175Y-82632309D01*
X138578797Y-82577671D01*
X138578793Y-82577664D01*
X138492547Y-82462455D01*
X138492544Y-82462452D01*
X138377335Y-82376206D01*
X138377328Y-82376202D01*
X138242482Y-82325908D01*
X138242483Y-82325908D01*
X138182883Y-82319501D01*
X138182881Y-82319500D01*
X138182873Y-82319500D01*
X138182864Y-82319500D01*
X136587129Y-82319500D01*
X136587123Y-82319501D01*
X136527516Y-82325908D01*
X136392671Y-82376202D01*
X136392664Y-82376206D01*
X136277455Y-82462452D01*
X136277452Y-82462455D01*
X136191206Y-82577664D01*
X136191202Y-82577671D01*
X136140908Y-82712517D01*
X136134501Y-82772116D01*
X136134501Y-82772123D01*
X136134500Y-82772135D01*
X134285499Y-82772135D01*
X134285499Y-82772128D01*
X134279091Y-82712517D01*
X134249175Y-82632309D01*
X134228797Y-82577671D01*
X134228793Y-82577664D01*
X134142547Y-82462455D01*
X134142544Y-82462452D01*
X134027335Y-82376206D01*
X134027328Y-82376202D01*
X133892482Y-82325908D01*
X133892483Y-82325908D01*
X133832883Y-82319501D01*
X133832881Y-82319500D01*
X133832873Y-82319500D01*
X133832864Y-82319500D01*
X132237129Y-82319500D01*
X132237123Y-82319501D01*
X132177516Y-82325908D01*
X132042671Y-82376202D01*
X132042664Y-82376206D01*
X131927455Y-82462452D01*
X131927452Y-82462455D01*
X131841206Y-82577664D01*
X131841202Y-82577671D01*
X131790908Y-82712517D01*
X131784501Y-82772116D01*
X131784501Y-82772123D01*
X131784500Y-82772135D01*
X129935499Y-82772135D01*
X129935499Y-82772128D01*
X129929091Y-82712517D01*
X129899175Y-82632309D01*
X129878797Y-82577671D01*
X129878793Y-82577664D01*
X129792547Y-82462455D01*
X129792544Y-82462452D01*
X129677335Y-82376206D01*
X129677328Y-82376202D01*
X129542482Y-82325908D01*
X129542483Y-82325908D01*
X129482883Y-82319501D01*
X129482881Y-82319500D01*
X129482873Y-82319500D01*
X129482864Y-82319500D01*
X127887129Y-82319500D01*
X127887123Y-82319501D01*
X127827516Y-82325908D01*
X127692671Y-82376202D01*
X127692664Y-82376206D01*
X127577455Y-82462452D01*
X127577452Y-82462455D01*
X127491206Y-82577664D01*
X127491202Y-82577671D01*
X127440908Y-82712517D01*
X127434501Y-82772116D01*
X127434501Y-82772123D01*
X127434500Y-82772135D01*
X84602499Y-82772135D01*
X84602499Y-82513728D01*
X84596091Y-82454117D01*
X84567031Y-82376204D01*
X84545797Y-82319271D01*
X84545793Y-82319264D01*
X84459547Y-82204055D01*
X84459544Y-82204052D01*
X84344335Y-82117806D01*
X84344328Y-82117802D01*
X84212917Y-82068789D01*
X84156983Y-82026918D01*
X84132566Y-81961453D01*
X84147418Y-81893180D01*
X84168563Y-81864932D01*
X84282104Y-81751392D01*
X84407051Y-81579416D01*
X84503557Y-81390012D01*
X84569246Y-81187843D01*
X84602500Y-80977887D01*
X84602500Y-80765313D01*
X84569246Y-80555357D01*
X84503557Y-80353188D01*
X84407051Y-80163784D01*
X84407049Y-80163781D01*
X84407048Y-80163779D01*
X84282109Y-79991813D01*
X84131786Y-79841490D01*
X83959820Y-79716551D01*
X83951600Y-79712363D01*
X83951054Y-79712085D01*
X83900259Y-79664112D01*
X83883463Y-79596292D01*
X83905999Y-79530156D01*
X83951054Y-79491115D01*
X83959816Y-79486651D01*
X84001734Y-79456196D01*
X84131786Y-79361709D01*
X84131788Y-79361706D01*
X84131792Y-79361704D01*
X84282104Y-79211392D01*
X84282106Y-79211388D01*
X84282109Y-79211386D01*
X84407048Y-79039420D01*
X84407047Y-79039420D01*
X84407051Y-79039416D01*
X84503557Y-78850012D01*
X84569246Y-78647843D01*
X84602500Y-78437887D01*
X84602500Y-78225313D01*
X84569246Y-78015357D01*
X84503557Y-77813188D01*
X84407051Y-77623784D01*
X84407049Y-77623781D01*
X84407048Y-77623779D01*
X84282109Y-77451813D01*
X84131786Y-77301490D01*
X83959820Y-77176551D01*
X83959115Y-77176191D01*
X83951054Y-77172085D01*
X83900259Y-77124112D01*
X83883463Y-77056292D01*
X83905999Y-76990156D01*
X83951054Y-76951115D01*
X83959816Y-76946651D01*
X84006371Y-76912827D01*
X84131786Y-76821709D01*
X84131788Y-76821706D01*
X84131792Y-76821704D01*
X84282104Y-76671392D01*
X84282106Y-76671388D01*
X84282109Y-76671386D01*
X84407048Y-76499420D01*
X84407047Y-76499420D01*
X84407051Y-76499416D01*
X84503557Y-76310012D01*
X84569246Y-76107843D01*
X84602500Y-75897887D01*
X84602500Y-75685313D01*
X84569246Y-75475357D01*
X84503557Y-75273188D01*
X84407051Y-75083784D01*
X84407049Y-75083781D01*
X84407048Y-75083779D01*
X84282109Y-74911813D01*
X84131786Y-74761490D01*
X83959820Y-74636551D01*
X83959115Y-74636191D01*
X83951054Y-74632085D01*
X83900259Y-74584112D01*
X83883463Y-74516292D01*
X83905999Y-74450156D01*
X83951054Y-74411115D01*
X83959816Y-74406651D01*
X84033124Y-74353390D01*
X84131786Y-74281709D01*
X84131788Y-74281706D01*
X84131792Y-74281704D01*
X84282104Y-74131392D01*
X84282106Y-74131388D01*
X84282109Y-74131386D01*
X84407048Y-73959420D01*
X84407047Y-73959420D01*
X84407051Y-73959416D01*
X84503557Y-73770012D01*
X84569246Y-73567843D01*
X84602500Y-73357887D01*
X84602500Y-73145313D01*
X84569246Y-72935357D01*
X84503557Y-72733188D01*
X84407051Y-72543784D01*
X84407049Y-72543781D01*
X84407048Y-72543779D01*
X84282109Y-72371813D01*
X84131786Y-72221490D01*
X83959820Y-72096551D01*
X83959115Y-72096191D01*
X83951054Y-72092085D01*
X83900259Y-72044112D01*
X83883463Y-71976292D01*
X83905999Y-71910156D01*
X83951054Y-71871115D01*
X83959816Y-71866651D01*
X83996198Y-71840218D01*
X84131786Y-71741709D01*
X84131788Y-71741706D01*
X84131792Y-71741704D01*
X84282104Y-71591392D01*
X84282106Y-71591388D01*
X84282109Y-71591386D01*
X84407048Y-71419420D01*
X84407047Y-71419420D01*
X84407051Y-71419416D01*
X84503557Y-71230012D01*
X84569246Y-71027843D01*
X84602500Y-70817887D01*
X84602500Y-70605313D01*
X84569246Y-70395357D01*
X84503557Y-70193188D01*
X84432599Y-70053926D01*
X84419704Y-69985258D01*
X84445980Y-69920517D01*
X84503087Y-69880260D01*
X84572892Y-69877268D01*
X84630766Y-69909951D01*
X87064974Y-72344159D01*
X87098459Y-72405482D01*
X87093475Y-72475174D01*
X87051603Y-72531107D01*
X87033592Y-72542323D01*
X87003386Y-72557714D01*
X86837786Y-72678028D01*
X86693028Y-72822786D01*
X86572715Y-72988386D01*
X86479781Y-73170776D01*
X86416522Y-73365465D01*
X86384500Y-73567648D01*
X86384500Y-73772351D01*
X86416522Y-73974534D01*
X86479781Y-74169223D01*
X86572715Y-74351613D01*
X86693028Y-74517213D01*
X86837786Y-74661971D01*
X86947892Y-74741966D01*
X87003390Y-74782287D01*
X87119607Y-74841503D01*
X87185776Y-74875218D01*
X87185778Y-74875218D01*
X87185781Y-74875220D01*
X87290137Y-74909127D01*
X87380465Y-74938477D01*
X87481557Y-74954488D01*
X87582648Y-74970500D01*
X87582649Y-74970500D01*
X87787351Y-74970500D01*
X87787352Y-74970500D01*
X87989534Y-74938477D01*
X88184219Y-74875220D01*
X88366610Y-74782287D01*
X88477575Y-74701667D01*
X88532213Y-74661971D01*
X88532215Y-74661968D01*
X88532219Y-74661966D01*
X88676966Y-74517219D01*
X88676968Y-74517215D01*
X88676971Y-74517213D01*
X88797284Y-74351614D01*
X88797285Y-74351613D01*
X88797287Y-74351610D01*
X88812674Y-74321410D01*
X88860649Y-74270615D01*
X88928469Y-74253820D01*
X88994604Y-74276357D01*
X89010840Y-74290025D01*
X91648181Y-76927366D01*
X91681666Y-76988689D01*
X91684500Y-77015047D01*
X91684500Y-78144237D01*
X91664815Y-78211276D01*
X91660818Y-78217122D01*
X91572715Y-78338386D01*
X91479781Y-78520776D01*
X91416522Y-78715465D01*
X91384500Y-78917648D01*
X91384500Y-79122351D01*
X91416522Y-79324534D01*
X91479781Y-79519223D01*
X91519190Y-79596566D01*
X91558159Y-79673047D01*
X91572715Y-79701613D01*
X91693028Y-79867213D01*
X91837786Y-80011971D01*
X92003388Y-80132286D01*
X92008745Y-80135016D01*
X92059541Y-80182991D01*
X92076335Y-80250812D01*
X92053797Y-80316947D01*
X91999081Y-80360398D01*
X91952449Y-80369500D01*
X90500782Y-80369500D01*
X90433743Y-80349815D01*
X90413101Y-80333181D01*
X89011717Y-78931797D01*
X88978232Y-78870474D01*
X88976925Y-78863513D01*
X88953477Y-78715466D01*
X88953477Y-78715465D01*
X88894652Y-78534421D01*
X88890220Y-78520781D01*
X88890218Y-78520778D01*
X88890218Y-78520776D01*
X88847983Y-78437886D01*
X88797287Y-78338390D01*
X88746025Y-78267833D01*
X88676971Y-78172786D01*
X88532213Y-78028028D01*
X88366613Y-77907715D01*
X88366612Y-77907714D01*
X88366610Y-77907713D01*
X88309653Y-77878691D01*
X88184223Y-77814781D01*
X87989534Y-77751522D01*
X87814995Y-77723878D01*
X87787352Y-77719500D01*
X87582648Y-77719500D01*
X87558329Y-77723351D01*
X87380465Y-77751522D01*
X87185776Y-77814781D01*
X87003386Y-77907715D01*
X86837786Y-78028028D01*
X86693028Y-78172786D01*
X86572715Y-78338386D01*
X86479781Y-78520776D01*
X86416522Y-78715465D01*
X86384500Y-78917648D01*
X86384500Y-79122351D01*
X86416522Y-79324534D01*
X86479781Y-79519223D01*
X86519190Y-79596566D01*
X86558159Y-79673047D01*
X86572715Y-79701613D01*
X86693028Y-79867213D01*
X86837786Y-80011971D01*
X86972552Y-80109882D01*
X87003390Y-80132287D01*
X87094842Y-80178884D01*
X87185776Y-80225218D01*
X87185778Y-80225218D01*
X87185781Y-80225220D01*
X87261871Y-80249943D01*
X87380465Y-80288477D01*
X87434348Y-80297011D01*
X87528513Y-80311925D01*
X87591648Y-80341854D01*
X87596797Y-80346717D01*
X89254735Y-82004655D01*
X89254764Y-82004686D01*
X89397214Y-82147136D01*
X89397218Y-82147139D01*
X89561079Y-82256628D01*
X89561092Y-82256635D01*
X89689833Y-82309961D01*
X89728333Y-82325908D01*
X89743164Y-82332051D01*
X89839812Y-82351275D01*
X89888135Y-82360887D01*
X89936458Y-82370500D01*
X89936459Y-82370500D01*
X89936460Y-82370500D01*
X90133540Y-82370500D01*
X99009238Y-82370500D01*
X99076277Y-82390185D01*
X99082119Y-82394179D01*
X99203390Y-82482287D01*
X99319607Y-82541503D01*
X99385776Y-82575218D01*
X99385778Y-82575218D01*
X99385781Y-82575220D01*
X99490137Y-82609127D01*
X99580465Y-82638477D01*
X99630066Y-82646333D01*
X99782648Y-82670500D01*
X99782649Y-82670500D01*
X99987351Y-82670500D01*
X99987352Y-82670500D01*
X100189534Y-82638477D01*
X100384219Y-82575220D01*
X100566610Y-82482287D01*
X100693379Y-82390185D01*
X100732213Y-82361971D01*
X100732215Y-82361968D01*
X100732219Y-82361966D01*
X100876966Y-82217219D01*
X100876968Y-82217215D01*
X100876971Y-82217213D01*
X100949193Y-82117806D01*
X100997287Y-82051610D01*
X101090220Y-81869219D01*
X101153477Y-81674534D01*
X101185500Y-81472352D01*
X101185500Y-81267648D01*
X101172842Y-81187727D01*
X101153477Y-81065465D01*
X101090486Y-80871600D01*
X101090220Y-80870781D01*
X101090218Y-80870778D01*
X101090218Y-80870776D01*
X101040679Y-80773551D01*
X100997287Y-80688390D01*
X100976158Y-80659308D01*
X100876971Y-80522786D01*
X100793057Y-80438872D01*
X103284500Y-80438872D01*
X103284500Y-80701127D01*
X103306945Y-80871600D01*
X103318730Y-80961116D01*
X103351628Y-81083892D01*
X103386602Y-81214418D01*
X103386605Y-81214428D01*
X103486953Y-81456690D01*
X103486958Y-81456700D01*
X103618075Y-81683803D01*
X103777718Y-81891851D01*
X103777726Y-81891860D01*
X103963140Y-82077274D01*
X103963148Y-82077281D01*
X103963149Y-82077282D01*
X104011554Y-82114424D01*
X104171196Y-82236924D01*
X104398299Y-82368041D01*
X104398309Y-82368046D01*
X104640571Y-82468394D01*
X104640581Y-82468398D01*
X104893884Y-82536270D01*
X105153880Y-82570500D01*
X105153887Y-82570500D01*
X105416113Y-82570500D01*
X105416120Y-82570500D01*
X105676116Y-82536270D01*
X105929419Y-82468398D01*
X106151995Y-82376204D01*
X106171690Y-82368046D01*
X106171691Y-82368045D01*
X106171697Y-82368043D01*
X106398803Y-82236924D01*
X106606851Y-82077282D01*
X106606855Y-82077277D01*
X106606860Y-82077274D01*
X106792274Y-81891860D01*
X106792277Y-81891855D01*
X106792282Y-81891851D01*
X106951924Y-81683803D01*
X107083043Y-81456697D01*
X107183398Y-81214419D01*
X107251270Y-80961116D01*
X107285500Y-80701120D01*
X107285500Y-80438880D01*
X107285499Y-80438872D01*
X119514500Y-80438872D01*
X119514500Y-80701127D01*
X119536945Y-80871600D01*
X119548730Y-80961116D01*
X119581628Y-81083892D01*
X119616602Y-81214418D01*
X119616605Y-81214428D01*
X119716953Y-81456690D01*
X119716958Y-81456700D01*
X119848075Y-81683803D01*
X120007718Y-81891851D01*
X120007726Y-81891860D01*
X120193140Y-82077274D01*
X120193148Y-82077281D01*
X120193149Y-82077282D01*
X120241554Y-82114424D01*
X120401196Y-82236924D01*
X120628299Y-82368041D01*
X120628309Y-82368046D01*
X120870571Y-82468394D01*
X120870581Y-82468398D01*
X121123884Y-82536270D01*
X121383880Y-82570500D01*
X121383887Y-82570500D01*
X121646113Y-82570500D01*
X121646120Y-82570500D01*
X121906116Y-82536270D01*
X122159419Y-82468398D01*
X122381995Y-82376204D01*
X122401690Y-82368046D01*
X122401691Y-82368045D01*
X122401697Y-82368043D01*
X122628803Y-82236924D01*
X122836851Y-82077282D01*
X122836855Y-82077277D01*
X122836860Y-82077274D01*
X123022274Y-81891860D01*
X123022277Y-81891855D01*
X123022282Y-81891851D01*
X123181924Y-81683803D01*
X123313043Y-81456697D01*
X123413398Y-81214419D01*
X123481270Y-80961116D01*
X123515500Y-80701120D01*
X123515500Y-80438880D01*
X123481270Y-80178884D01*
X123413398Y-79925581D01*
X123378569Y-79841496D01*
X123313046Y-79683309D01*
X123313041Y-79683299D01*
X123181924Y-79456196D01*
X123022281Y-79248148D01*
X123022274Y-79248140D01*
X122836860Y-79062726D01*
X122836851Y-79062718D01*
X122628803Y-78903075D01*
X122401700Y-78771958D01*
X122401690Y-78771953D01*
X122159428Y-78671605D01*
X122159421Y-78671603D01*
X122159419Y-78671602D01*
X121906116Y-78603730D01*
X121848339Y-78596123D01*
X121646127Y-78569500D01*
X121646120Y-78569500D01*
X121383880Y-78569500D01*
X121383872Y-78569500D01*
X121152772Y-78599926D01*
X121123884Y-78603730D01*
X120870581Y-78671602D01*
X120870571Y-78671605D01*
X120628309Y-78771953D01*
X120628299Y-78771958D01*
X120401196Y-78903075D01*
X120193148Y-79062718D01*
X120007718Y-79248148D01*
X119848075Y-79456196D01*
X119716958Y-79683299D01*
X119716953Y-79683309D01*
X119616605Y-79925571D01*
X119616602Y-79925581D01*
X119552778Y-80163779D01*
X119548730Y-80178885D01*
X119514500Y-80438872D01*
X107285499Y-80438872D01*
X107251270Y-80178884D01*
X107183398Y-79925581D01*
X107148569Y-79841496D01*
X107083046Y-79683309D01*
X107083041Y-79683299D01*
X106951924Y-79456196D01*
X106792281Y-79248148D01*
X106792274Y-79248140D01*
X106606860Y-79062726D01*
X106606851Y-79062718D01*
X106398803Y-78903075D01*
X106171700Y-78771958D01*
X106171690Y-78771953D01*
X105929428Y-78671605D01*
X105929421Y-78671603D01*
X105929419Y-78671602D01*
X105676116Y-78603730D01*
X105618339Y-78596123D01*
X105416127Y-78569500D01*
X105416120Y-78569500D01*
X105153880Y-78569500D01*
X105153872Y-78569500D01*
X104922772Y-78599926D01*
X104893884Y-78603730D01*
X104640581Y-78671602D01*
X104640571Y-78671605D01*
X104398309Y-78771953D01*
X104398299Y-78771958D01*
X104171196Y-78903075D01*
X103963148Y-79062718D01*
X103777718Y-79248148D01*
X103618075Y-79456196D01*
X103486958Y-79683299D01*
X103486953Y-79683309D01*
X103386605Y-79925571D01*
X103386602Y-79925581D01*
X103322778Y-80163779D01*
X103318730Y-80178885D01*
X103284500Y-80438872D01*
X100793057Y-80438872D01*
X100732213Y-80378028D01*
X100566613Y-80257715D01*
X100566612Y-80257714D01*
X100566610Y-80257713D01*
X100502835Y-80225218D01*
X100384223Y-80164781D01*
X100189534Y-80101522D01*
X100014995Y-80073878D01*
X99987352Y-80069500D01*
X99782648Y-80069500D01*
X99758329Y-80073351D01*
X99580465Y-80101522D01*
X99385776Y-80164781D01*
X99203386Y-80257715D01*
X99082123Y-80345818D01*
X99016317Y-80369298D01*
X99009238Y-80369500D01*
X93417551Y-80369500D01*
X93350512Y-80349815D01*
X93304757Y-80297011D01*
X93294813Y-80227853D01*
X93323838Y-80164297D01*
X93361255Y-80135016D01*
X93363923Y-80133655D01*
X93366610Y-80132287D01*
X93453030Y-80069500D01*
X93532213Y-80011971D01*
X93532215Y-80011968D01*
X93532219Y-80011966D01*
X93676966Y-79867219D01*
X93676968Y-79867215D01*
X93676971Y-79867213D01*
X93757533Y-79756327D01*
X93797287Y-79701610D01*
X93890220Y-79519219D01*
X93953477Y-79324534D01*
X93985500Y-79122352D01*
X93985500Y-78917648D01*
X93962425Y-78771958D01*
X93953477Y-78715465D01*
X93894652Y-78534421D01*
X93890220Y-78520781D01*
X93890218Y-78520778D01*
X93890218Y-78520776D01*
X93847983Y-78437886D01*
X93797287Y-78338390D01*
X93746025Y-78267833D01*
X93709182Y-78217122D01*
X93685702Y-78151316D01*
X93685500Y-78144237D01*
X93685500Y-76450721D01*
X93675742Y-76401667D01*
X93661320Y-76329164D01*
X93647051Y-76257429D01*
X93614031Y-76177712D01*
X93601429Y-76147287D01*
X93571635Y-76075357D01*
X93571628Y-76075344D01*
X93462140Y-75911484D01*
X93394516Y-75843860D01*
X93322782Y-75772126D01*
X93322781Y-75772125D01*
X92729636Y-75178980D01*
X92696151Y-75117657D01*
X92701135Y-75047965D01*
X92743007Y-74992032D01*
X92797917Y-74968826D01*
X92989534Y-74938477D01*
X93184219Y-74875220D01*
X93366610Y-74782287D01*
X93477575Y-74701667D01*
X93532213Y-74661971D01*
X93532215Y-74661968D01*
X93532219Y-74661966D01*
X93676966Y-74517219D01*
X93676968Y-74517215D01*
X93676971Y-74517213D01*
X93747558Y-74420057D01*
X93797287Y-74351610D01*
X93890220Y-74169219D01*
X93953477Y-73974534D01*
X93985500Y-73772352D01*
X93985500Y-73567648D01*
X93953477Y-73365466D01*
X93953476Y-73365464D01*
X93924127Y-73275137D01*
X93890220Y-73170781D01*
X93890218Y-73170778D01*
X93890218Y-73170776D01*
X93838047Y-73068386D01*
X93797287Y-72988390D01*
X93735090Y-72902782D01*
X93676971Y-72822786D01*
X93636366Y-72782181D01*
X93602881Y-72720858D01*
X93607865Y-72651166D01*
X93649737Y-72595233D01*
X93715201Y-72570816D01*
X93724047Y-72570500D01*
X98925953Y-72570500D01*
X98992992Y-72590185D01*
X99038747Y-72642989D01*
X99048691Y-72712147D01*
X99019666Y-72775703D01*
X99013634Y-72782181D01*
X98893032Y-72902782D01*
X98893028Y-72902786D01*
X98772715Y-73068386D01*
X98679781Y-73250776D01*
X98616522Y-73445465D01*
X98584500Y-73647648D01*
X98584500Y-73852351D01*
X98616522Y-74054534D01*
X98679781Y-74249223D01*
X98722063Y-74332204D01*
X98766826Y-74420057D01*
X98772715Y-74431613D01*
X98893028Y-74597213D01*
X99037786Y-74741971D01*
X99192749Y-74854556D01*
X99203390Y-74862287D01*
X99300590Y-74911813D01*
X99385776Y-74955218D01*
X99385778Y-74955218D01*
X99385781Y-74955220D01*
X99490137Y-74989127D01*
X99580465Y-75018477D01*
X99681557Y-75034488D01*
X99782648Y-75050500D01*
X99782649Y-75050500D01*
X99987351Y-75050500D01*
X99987352Y-75050500D01*
X100189534Y-75018477D01*
X100384219Y-74955220D01*
X100566610Y-74862287D01*
X100659590Y-74794732D01*
X100732213Y-74741971D01*
X100732215Y-74741968D01*
X100732219Y-74741966D01*
X100876966Y-74597219D01*
X100876968Y-74597215D01*
X100876971Y-74597213D01*
X100945305Y-74503157D01*
X100997287Y-74431610D01*
X101090220Y-74249219D01*
X101153477Y-74054534D01*
X101185500Y-73852352D01*
X101185500Y-73647648D01*
X101153477Y-73445466D01*
X101090220Y-73250781D01*
X101090218Y-73250778D01*
X101090218Y-73250776D01*
X101036481Y-73145313D01*
X100997287Y-73068390D01*
X100989556Y-73057749D01*
X100876971Y-72902786D01*
X100756366Y-72782181D01*
X100722881Y-72720858D01*
X100727865Y-72651166D01*
X100769737Y-72595233D01*
X100835201Y-72570816D01*
X100844047Y-72570500D01*
X107019218Y-72570500D01*
X107086257Y-72590185D01*
X107106898Y-72606818D01*
X110007860Y-75507781D01*
X110007861Y-75507782D01*
X110100777Y-75600698D01*
X110147219Y-75647140D01*
X110311079Y-75756628D01*
X110311086Y-75756632D01*
X110418517Y-75801131D01*
X110493164Y-75832051D01*
X110552532Y-75843860D01*
X110603406Y-75853979D01*
X110686456Y-75870500D01*
X110686459Y-75870500D01*
X110686460Y-75870500D01*
X110883540Y-75870500D01*
X124719218Y-75870500D01*
X124786257Y-75890185D01*
X124806899Y-75906819D01*
X127398181Y-78498102D01*
X127431666Y-78559425D01*
X127434500Y-78585783D01*
X127434500Y-79167870D01*
X127434501Y-79167876D01*
X127440908Y-79227483D01*
X127491202Y-79362328D01*
X127491206Y-79362335D01*
X127577452Y-79477544D01*
X127577455Y-79477547D01*
X127692664Y-79563793D01*
X127692671Y-79563797D01*
X127827517Y-79614091D01*
X127827516Y-79614091D01*
X127834444Y-79614835D01*
X127887127Y-79620500D01*
X129482872Y-79620499D01*
X129542483Y-79614091D01*
X129677331Y-79563796D01*
X129792546Y-79477546D01*
X129878796Y-79362331D01*
X129929091Y-79227483D01*
X129935500Y-79167873D01*
X129935499Y-77572128D01*
X129929091Y-77512517D01*
X129878796Y-77377669D01*
X129878795Y-77377668D01*
X129878793Y-77377664D01*
X129792547Y-77262455D01*
X129792544Y-77262452D01*
X129677335Y-77176206D01*
X129677328Y-77176202D01*
X129542482Y-77125908D01*
X129542483Y-77125908D01*
X129482883Y-77119501D01*
X129482881Y-77119500D01*
X129482873Y-77119500D01*
X129482865Y-77119500D01*
X128900783Y-77119500D01*
X128833744Y-77099815D01*
X128813102Y-77083181D01*
X125969209Y-74239289D01*
X125969206Y-74239285D01*
X125969206Y-74239286D01*
X125962139Y-74232219D01*
X125962139Y-74232218D01*
X125822782Y-74092861D01*
X125822781Y-74092860D01*
X125822780Y-74092859D01*
X125658920Y-73983371D01*
X125658907Y-73983364D01*
X125516878Y-73924535D01*
X125516877Y-73924534D01*
X125508959Y-73921255D01*
X125476836Y-73907949D01*
X125380188Y-73888724D01*
X125376624Y-73888015D01*
X125283544Y-73869500D01*
X125283541Y-73869500D01*
X111250783Y-73869500D01*
X111183744Y-73849815D01*
X111163102Y-73833181D01*
X108269209Y-70939289D01*
X108269206Y-70939285D01*
X108269206Y-70939286D01*
X108262139Y-70932219D01*
X108262139Y-70932218D01*
X108122782Y-70792861D01*
X108122781Y-70792860D01*
X108122780Y-70792859D01*
X107958920Y-70683371D01*
X107958907Y-70683364D01*
X107812799Y-70622845D01*
X107812795Y-70622844D01*
X107804635Y-70619464D01*
X107776836Y-70607949D01*
X107680188Y-70588724D01*
X107676888Y-70588067D01*
X107676878Y-70588065D01*
X107583544Y-70569500D01*
X107583541Y-70569500D01*
X100944047Y-70569500D01*
X100877008Y-70549815D01*
X100831253Y-70497011D01*
X100821309Y-70427853D01*
X100850334Y-70364297D01*
X100856366Y-70357819D01*
X100876966Y-70337219D01*
X100876968Y-70337215D01*
X100876971Y-70337213D01*
X100951232Y-70235000D01*
X100997287Y-70171610D01*
X101090220Y-69989219D01*
X101153477Y-69794534D01*
X101185500Y-69592352D01*
X101185500Y-69387648D01*
X101183857Y-69377274D01*
X101153477Y-69185465D01*
X101090218Y-68990776D01*
X101056503Y-68924607D01*
X100997287Y-68808390D01*
X100980631Y-68785465D01*
X100876971Y-68642786D01*
X100732213Y-68498028D01*
X100566613Y-68377715D01*
X100566612Y-68377714D01*
X100566610Y-68377713D01*
X100509653Y-68348691D01*
X100384223Y-68284781D01*
X100189534Y-68221522D01*
X100014995Y-68193878D01*
X99987352Y-68189500D01*
X99782648Y-68189500D01*
X99758329Y-68193351D01*
X99580465Y-68221522D01*
X99385776Y-68284781D01*
X99203386Y-68377715D01*
X99037786Y-68498028D01*
X98893028Y-68642786D01*
X98772715Y-68808386D01*
X98679781Y-68990776D01*
X98616522Y-69185465D01*
X98584500Y-69387648D01*
X98584500Y-69592351D01*
X98616522Y-69794534D01*
X98679781Y-69989223D01*
X98712750Y-70053927D01*
X98754552Y-70135968D01*
X98772715Y-70171613D01*
X98893028Y-70337213D01*
X98913634Y-70357819D01*
X98947119Y-70419142D01*
X98942135Y-70488834D01*
X98900263Y-70544767D01*
X98834799Y-70569184D01*
X98825953Y-70569500D01*
X96081499Y-70569500D01*
X96014460Y-70549815D01*
X95968705Y-70497011D01*
X95958761Y-70427853D01*
X95987786Y-70364297D01*
X96022072Y-70336668D01*
X96027325Y-70333797D01*
X96027331Y-70333796D01*
X96142546Y-70247546D01*
X96228796Y-70132331D01*
X96279091Y-69997483D01*
X96285500Y-69937873D01*
X96285499Y-68242128D01*
X96279091Y-68182517D01*
X96228796Y-68047669D01*
X96228795Y-68047668D01*
X96228793Y-68047664D01*
X96142547Y-67932455D01*
X96139915Y-67930485D01*
X96098628Y-67899577D01*
X96035188Y-67852085D01*
X96032451Y-67848429D01*
X96028297Y-67846532D01*
X96011705Y-67820714D01*
X95993318Y-67796151D01*
X95992302Y-67790523D01*
X95990523Y-67787754D01*
X95985500Y-67752819D01*
X95985500Y-67738872D01*
X103284500Y-67738872D01*
X103284500Y-68001127D01*
X103297259Y-68098034D01*
X103318730Y-68261116D01*
X103384980Y-68508366D01*
X103386602Y-68514418D01*
X103386605Y-68514428D01*
X103486953Y-68756690D01*
X103486958Y-68756700D01*
X103618075Y-68983803D01*
X103777718Y-69191851D01*
X103777726Y-69191860D01*
X103963140Y-69377274D01*
X103963148Y-69377281D01*
X104171196Y-69536924D01*
X104398299Y-69668041D01*
X104398309Y-69668046D01*
X104640571Y-69768394D01*
X104640581Y-69768398D01*
X104893884Y-69836270D01*
X105153880Y-69870500D01*
X105153887Y-69870500D01*
X105416113Y-69870500D01*
X105416120Y-69870500D01*
X105676116Y-69836270D01*
X105929419Y-69768398D01*
X106171697Y-69668043D01*
X106398803Y-69536924D01*
X106606851Y-69377282D01*
X106606855Y-69377277D01*
X106606860Y-69377274D01*
X106792274Y-69191860D01*
X106792277Y-69191855D01*
X106792282Y-69191851D01*
X106951924Y-68983803D01*
X107083043Y-68756697D01*
X107183398Y-68514419D01*
X107251270Y-68261116D01*
X107285500Y-68001120D01*
X107285500Y-67738880D01*
X107285499Y-67738872D01*
X119514500Y-67738872D01*
X119514500Y-68001127D01*
X119527259Y-68098034D01*
X119548730Y-68261116D01*
X119614980Y-68508366D01*
X119616602Y-68514418D01*
X119616605Y-68514428D01*
X119716953Y-68756690D01*
X119716958Y-68756700D01*
X119848075Y-68983803D01*
X120007718Y-69191851D01*
X120007726Y-69191860D01*
X120193140Y-69377274D01*
X120193148Y-69377281D01*
X120401196Y-69536924D01*
X120628299Y-69668041D01*
X120628309Y-69668046D01*
X120870571Y-69768394D01*
X120870581Y-69768398D01*
X121123884Y-69836270D01*
X121383880Y-69870500D01*
X121383887Y-69870500D01*
X121646113Y-69870500D01*
X121646120Y-69870500D01*
X121906116Y-69836270D01*
X122159419Y-69768398D01*
X122401697Y-69668043D01*
X122628803Y-69536924D01*
X122836851Y-69377282D01*
X122836855Y-69377277D01*
X122836860Y-69377274D01*
X123022274Y-69191860D01*
X123022277Y-69191855D01*
X123022282Y-69191851D01*
X123181924Y-68983803D01*
X123313043Y-68756697D01*
X123413398Y-68514419D01*
X123481270Y-68261116D01*
X123515500Y-68001120D01*
X123515500Y-67738880D01*
X123481270Y-67478884D01*
X123413398Y-67225581D01*
X123378569Y-67141496D01*
X123313046Y-66983309D01*
X123313041Y-66983299D01*
X123181924Y-66756196D01*
X123022281Y-66548148D01*
X123022274Y-66548140D01*
X122836860Y-66362726D01*
X122836851Y-66362718D01*
X122628803Y-66203075D01*
X122401700Y-66071958D01*
X122401690Y-66071953D01*
X122159428Y-65971605D01*
X122159421Y-65971603D01*
X122159419Y-65971602D01*
X121906116Y-65903730D01*
X121848339Y-65896123D01*
X121646127Y-65869500D01*
X121646120Y-65869500D01*
X121383880Y-65869500D01*
X121383872Y-65869500D01*
X121152772Y-65899926D01*
X121123884Y-65903730D01*
X120870581Y-65971602D01*
X120870571Y-65971605D01*
X120628309Y-66071953D01*
X120628299Y-66071958D01*
X120401196Y-66203075D01*
X120193148Y-66362718D01*
X120007718Y-66548148D01*
X119848075Y-66756196D01*
X119716958Y-66983299D01*
X119716953Y-66983309D01*
X119616605Y-67225571D01*
X119616602Y-67225581D01*
X119552778Y-67463779D01*
X119548730Y-67478885D01*
X119514500Y-67738872D01*
X107285499Y-67738872D01*
X107251270Y-67478884D01*
X107183398Y-67225581D01*
X107148569Y-67141496D01*
X107083046Y-66983309D01*
X107083041Y-66983299D01*
X106951924Y-66756196D01*
X106792281Y-66548148D01*
X106792274Y-66548140D01*
X106606860Y-66362726D01*
X106606851Y-66362718D01*
X106398803Y-66203075D01*
X106171700Y-66071958D01*
X106171690Y-66071953D01*
X105929428Y-65971605D01*
X105929421Y-65971603D01*
X105929419Y-65971602D01*
X105676116Y-65903730D01*
X105618339Y-65896123D01*
X105416127Y-65869500D01*
X105416120Y-65869500D01*
X105153880Y-65869500D01*
X105153872Y-65869500D01*
X104922772Y-65899926D01*
X104893884Y-65903730D01*
X104640581Y-65971602D01*
X104640571Y-65971605D01*
X104398309Y-66071953D01*
X104398299Y-66071958D01*
X104171196Y-66203075D01*
X103963148Y-66362718D01*
X103777718Y-66548148D01*
X103618075Y-66756196D01*
X103486958Y-66983299D01*
X103486953Y-66983309D01*
X103386605Y-67225571D01*
X103386602Y-67225581D01*
X103322778Y-67463779D01*
X103318730Y-67478885D01*
X103284500Y-67738872D01*
X95985500Y-67738872D01*
X95985500Y-67425761D01*
X96005185Y-67358722D01*
X96009165Y-67352899D01*
X96097287Y-67231610D01*
X96190220Y-67049219D01*
X96253477Y-66854534D01*
X96276925Y-66706483D01*
X96306854Y-66643350D01*
X96311699Y-66638219D01*
X97943101Y-65006819D01*
X98004424Y-64973334D01*
X98030782Y-64970500D01*
X125732388Y-64970500D01*
X125799427Y-64990185D01*
X125845182Y-65042989D01*
X125855327Y-65110686D01*
X125834500Y-65268872D01*
X125834500Y-66031127D01*
X125850153Y-66150014D01*
X125868730Y-66291116D01*
X125936602Y-66544418D01*
X125936605Y-66544428D01*
X126036953Y-66786690D01*
X126036958Y-66786700D01*
X126168075Y-67013803D01*
X126327718Y-67221851D01*
X126327726Y-67221860D01*
X126513140Y-67407274D01*
X126513148Y-67407281D01*
X126513149Y-67407282D01*
X126537231Y-67425761D01*
X126721196Y-67566924D01*
X126948299Y-67698041D01*
X126948309Y-67698046D01*
X127150109Y-67781634D01*
X127190581Y-67798398D01*
X127443884Y-67866270D01*
X127703880Y-67900500D01*
X127703887Y-67900500D01*
X127966113Y-67900500D01*
X127966120Y-67900500D01*
X128226116Y-67866270D01*
X128479419Y-67798398D01*
X128721697Y-67698043D01*
X128948803Y-67566924D01*
X129156851Y-67407282D01*
X129156855Y-67407277D01*
X129156860Y-67407274D01*
X129342274Y-67221860D01*
X129342277Y-67221855D01*
X129342282Y-67221851D01*
X129501924Y-67013803D01*
X129633043Y-66786697D01*
X129633063Y-66786650D01*
X129731853Y-66548148D01*
X129733398Y-66544419D01*
X129801270Y-66291116D01*
X129835500Y-66031120D01*
X129835500Y-65268880D01*
X129801270Y-65008884D01*
X129733398Y-64755581D01*
X129706902Y-64691613D01*
X129633046Y-64513309D01*
X129633041Y-64513299D01*
X129501924Y-64286196D01*
X129368526Y-64112351D01*
X129342282Y-64078149D01*
X129342281Y-64078148D01*
X129342274Y-64078140D01*
X129277315Y-64013181D01*
X129243830Y-63951858D01*
X129248814Y-63882166D01*
X129290686Y-63826233D01*
X129356150Y-63801816D01*
X129364996Y-63801500D01*
X131005004Y-63801500D01*
X131072043Y-63821185D01*
X131117798Y-63873989D01*
X131127742Y-63943147D01*
X131098717Y-64006703D01*
X131092685Y-64013181D01*
X131027718Y-64078148D01*
X130868075Y-64286196D01*
X130736958Y-64513299D01*
X130736953Y-64513309D01*
X130636605Y-64755571D01*
X130636602Y-64755581D01*
X130569284Y-65006819D01*
X130568730Y-65008885D01*
X130534500Y-65268872D01*
X130534500Y-66031127D01*
X130550153Y-66150014D01*
X130568730Y-66291116D01*
X130636602Y-66544418D01*
X130636605Y-66544428D01*
X130736953Y-66786690D01*
X130736958Y-66786700D01*
X130868075Y-67013803D01*
X131027718Y-67221851D01*
X131027726Y-67221860D01*
X131213140Y-67407274D01*
X131213148Y-67407281D01*
X131213149Y-67407282D01*
X131237231Y-67425761D01*
X131421196Y-67566924D01*
X131648299Y-67698041D01*
X131648309Y-67698046D01*
X131850109Y-67781634D01*
X131890581Y-67798398D01*
X132143884Y-67866270D01*
X132403880Y-67900500D01*
X132403887Y-67900500D01*
X132666113Y-67900500D01*
X132666120Y-67900500D01*
X132926116Y-67866270D01*
X133179419Y-67798398D01*
X133421697Y-67698043D01*
X133597501Y-67596542D01*
X133665400Y-67580070D01*
X133731427Y-67602923D01*
X133774618Y-67657844D01*
X133783500Y-67703930D01*
X133783500Y-76155217D01*
X133763815Y-76222256D01*
X133747181Y-76242898D01*
X132906897Y-77083181D01*
X132845574Y-77116666D01*
X132819216Y-77119500D01*
X132237129Y-77119500D01*
X132237123Y-77119501D01*
X132177516Y-77125908D01*
X132042671Y-77176202D01*
X132042664Y-77176206D01*
X131927455Y-77262452D01*
X131927452Y-77262455D01*
X131841206Y-77377664D01*
X131841202Y-77377671D01*
X131790908Y-77512517D01*
X131784501Y-77572116D01*
X131784501Y-77572123D01*
X131784500Y-77572135D01*
X131784500Y-79167870D01*
X131784501Y-79167876D01*
X131790908Y-79227483D01*
X131841202Y-79362328D01*
X131841206Y-79362335D01*
X131927452Y-79477544D01*
X131927455Y-79477547D01*
X132042664Y-79563793D01*
X132042671Y-79563797D01*
X132177517Y-79614091D01*
X132177516Y-79614091D01*
X132184444Y-79614835D01*
X132237127Y-79620500D01*
X133832872Y-79620499D01*
X133892483Y-79614091D01*
X134027331Y-79563796D01*
X134142546Y-79477546D01*
X134228796Y-79362331D01*
X134279091Y-79227483D01*
X134285500Y-79167873D01*
X134285499Y-78585781D01*
X134305183Y-78518743D01*
X134321818Y-78498101D01*
X135247786Y-77572135D01*
X136134500Y-77572135D01*
X136134500Y-79167870D01*
X136134501Y-79167876D01*
X136140908Y-79227483D01*
X136191202Y-79362328D01*
X136191206Y-79362335D01*
X136277452Y-79477544D01*
X136277455Y-79477547D01*
X136392664Y-79563793D01*
X136392671Y-79563797D01*
X136527517Y-79614091D01*
X136527516Y-79614091D01*
X136534444Y-79614835D01*
X136587127Y-79620500D01*
X138182872Y-79620499D01*
X138242483Y-79614091D01*
X138377331Y-79563796D01*
X138492546Y-79477546D01*
X138578796Y-79362331D01*
X138629091Y-79227483D01*
X138635500Y-79167873D01*
X138635499Y-77572128D01*
X138629091Y-77512517D01*
X138578796Y-77377669D01*
X138578795Y-77377668D01*
X138578793Y-77377664D01*
X138492547Y-77262455D01*
X138492544Y-77262452D01*
X138377335Y-77176206D01*
X138377328Y-77176202D01*
X138242482Y-77125908D01*
X138242483Y-77125908D01*
X138182883Y-77119501D01*
X138182881Y-77119500D01*
X138182873Y-77119500D01*
X138182864Y-77119500D01*
X136587129Y-77119500D01*
X136587123Y-77119501D01*
X136527516Y-77125908D01*
X136392671Y-77176202D01*
X136392664Y-77176206D01*
X136277455Y-77262452D01*
X136277452Y-77262455D01*
X136191206Y-77377664D01*
X136191202Y-77377671D01*
X136140908Y-77512517D01*
X136134501Y-77572116D01*
X136134501Y-77572123D01*
X136134500Y-77572135D01*
X135247786Y-77572135D01*
X135338796Y-77481125D01*
X135561137Y-77258784D01*
X135561137Y-77258783D01*
X135561140Y-77258781D01*
X135670632Y-77094914D01*
X135746052Y-76912835D01*
X135784501Y-76719540D01*
X135784501Y-76522459D01*
X135784501Y-76517349D01*
X135784500Y-76517323D01*
X135784500Y-67560013D01*
X135804185Y-67492974D01*
X135856989Y-67447219D01*
X135926147Y-67437275D01*
X135983986Y-67461637D01*
X136006462Y-67478884D01*
X136121196Y-67566924D01*
X136348299Y-67698041D01*
X136348309Y-67698046D01*
X136550109Y-67781634D01*
X136590581Y-67798398D01*
X136843884Y-67866270D01*
X137103880Y-67900500D01*
X137103887Y-67900500D01*
X137366113Y-67900500D01*
X137366120Y-67900500D01*
X137626116Y-67866270D01*
X137879419Y-67798398D01*
X138121697Y-67698043D01*
X138348803Y-67566924D01*
X138556851Y-67407282D01*
X138556855Y-67407277D01*
X138556860Y-67407274D01*
X138742274Y-67221860D01*
X138742277Y-67221855D01*
X138742282Y-67221851D01*
X138901924Y-67013803D01*
X139033043Y-66786697D01*
X139033063Y-66786650D01*
X139131853Y-66548148D01*
X139133398Y-66544419D01*
X139201270Y-66291116D01*
X139235500Y-66031120D01*
X139235500Y-65268880D01*
X139201270Y-65008884D01*
X139133398Y-64755581D01*
X139106902Y-64691613D01*
X139033046Y-64513309D01*
X139033041Y-64513299D01*
X138901924Y-64286196D01*
X138768526Y-64112351D01*
X138742282Y-64078149D01*
X138742281Y-64078148D01*
X138742274Y-64078140D01*
X138556860Y-63892726D01*
X138556851Y-63892718D01*
X138348803Y-63733075D01*
X138121700Y-63601958D01*
X138121690Y-63601953D01*
X137879428Y-63501605D01*
X137879421Y-63501603D01*
X137879419Y-63501602D01*
X137626116Y-63433730D01*
X137568339Y-63426123D01*
X137366127Y-63399500D01*
X137366120Y-63399500D01*
X137103880Y-63399500D01*
X137103872Y-63399500D01*
X136872772Y-63429926D01*
X136843884Y-63433730D01*
X136590581Y-63501602D01*
X136590571Y-63501605D01*
X136348309Y-63601953D01*
X136348299Y-63601958D01*
X136121201Y-63733072D01*
X136034736Y-63799420D01*
X135999794Y-63826233D01*
X135983987Y-63838362D01*
X135918818Y-63863556D01*
X135850373Y-63849518D01*
X135800383Y-63800704D01*
X135784500Y-63739986D01*
X135784500Y-63266782D01*
X135804185Y-63199743D01*
X135820819Y-63179101D01*
X136137954Y-62861966D01*
X136469721Y-62530198D01*
X136531042Y-62496715D01*
X136589493Y-62498106D01*
X136590577Y-62498396D01*
X136590581Y-62498398D01*
X136843884Y-62566270D01*
X137103880Y-62600500D01*
X137103887Y-62600500D01*
X137366113Y-62600500D01*
X137366120Y-62600500D01*
X137626116Y-62566270D01*
X137879419Y-62498398D01*
X138121697Y-62398043D01*
X138348803Y-62266924D01*
X138556851Y-62107282D01*
X138556855Y-62107277D01*
X138556860Y-62107274D01*
X138742274Y-61921860D01*
X138742277Y-61921855D01*
X138742282Y-61921851D01*
X138901924Y-61713803D01*
X139033043Y-61486697D01*
X139133398Y-61244419D01*
X139201270Y-60991116D01*
X139235500Y-60731120D01*
X139235500Y-59968880D01*
X139201270Y-59708884D01*
X139133398Y-59455581D01*
X139108946Y-59396549D01*
X139033046Y-59213309D01*
X139033041Y-59213299D01*
X138901924Y-58986196D01*
X138742281Y-58778148D01*
X138742274Y-58778140D01*
X138556860Y-58592726D01*
X138556851Y-58592718D01*
X138348803Y-58433075D01*
X138121700Y-58301958D01*
X138121690Y-58301953D01*
X137879428Y-58201605D01*
X137879421Y-58201603D01*
X137879419Y-58201602D01*
X137626116Y-58133730D01*
X137568339Y-58126123D01*
X137366127Y-58099500D01*
X137366120Y-58099500D01*
X137103880Y-58099500D01*
X137103872Y-58099500D01*
X136872772Y-58129926D01*
X136843884Y-58133730D01*
X136590581Y-58201602D01*
X136590571Y-58201605D01*
X136348309Y-58301953D01*
X136348299Y-58301958D01*
X136121196Y-58433075D01*
X135913148Y-58592718D01*
X135727718Y-58778148D01*
X135568075Y-58986196D01*
X135436958Y-59213299D01*
X135436953Y-59213309D01*
X135336605Y-59455571D01*
X135336602Y-59455581D01*
X135278665Y-59671808D01*
X135268730Y-59708885D01*
X135234500Y-59968872D01*
X135234500Y-60731113D01*
X135234501Y-60731130D01*
X135250304Y-60851165D01*
X135239538Y-60920200D01*
X135215046Y-60955031D01*
X134520474Y-61649605D01*
X134459151Y-61683090D01*
X134389460Y-61678106D01*
X134333526Y-61636235D01*
X134309109Y-61570770D01*
X134323961Y-61502497D01*
X134325386Y-61499958D01*
X134333043Y-61486697D01*
X134433398Y-61244419D01*
X134501270Y-60991116D01*
X134535500Y-60731120D01*
X134535500Y-59968880D01*
X134501270Y-59708884D01*
X134433398Y-59455581D01*
X134408946Y-59396549D01*
X134333046Y-59213309D01*
X134333041Y-59213299D01*
X134201924Y-58986196D01*
X134042281Y-58778148D01*
X134042274Y-58778140D01*
X133856860Y-58592726D01*
X133856851Y-58592718D01*
X133648803Y-58433075D01*
X133421700Y-58301958D01*
X133421690Y-58301953D01*
X133179428Y-58201605D01*
X133179421Y-58201603D01*
X133179419Y-58201602D01*
X132926116Y-58133730D01*
X132868339Y-58126123D01*
X132666127Y-58099500D01*
X132666120Y-58099500D01*
X132403880Y-58099500D01*
X132403872Y-58099500D01*
X132172772Y-58129926D01*
X132143884Y-58133730D01*
X131890581Y-58201602D01*
X131890571Y-58201605D01*
X131648309Y-58301953D01*
X131648299Y-58301958D01*
X131421196Y-58433075D01*
X131213148Y-58592718D01*
X131027718Y-58778148D01*
X130868075Y-58986196D01*
X130736958Y-59213299D01*
X130736953Y-59213309D01*
X130636605Y-59455571D01*
X130636602Y-59455581D01*
X130578665Y-59671808D01*
X130568730Y-59708885D01*
X130534500Y-59968872D01*
X130534500Y-60731127D01*
X130559393Y-60920200D01*
X130568730Y-60991116D01*
X130617964Y-61174859D01*
X130636602Y-61244418D01*
X130636605Y-61244428D01*
X130736953Y-61486690D01*
X130736956Y-61486695D01*
X130736957Y-61486697D01*
X130746079Y-61502497D01*
X130810744Y-61614501D01*
X130827216Y-61682401D01*
X130804363Y-61748428D01*
X130749441Y-61791618D01*
X130703356Y-61800500D01*
X129666644Y-61800500D01*
X129599605Y-61780815D01*
X129553850Y-61728011D01*
X129543906Y-61658853D01*
X129559256Y-61614501D01*
X129583591Y-61572351D01*
X129633043Y-61486697D01*
X129733398Y-61244419D01*
X129801270Y-60991116D01*
X129835500Y-60731120D01*
X129835500Y-59968880D01*
X129801270Y-59708884D01*
X129733398Y-59455581D01*
X129708946Y-59396549D01*
X129633046Y-59213309D01*
X129633041Y-59213299D01*
X129501924Y-58986196D01*
X129342281Y-58778148D01*
X129342274Y-58778140D01*
X129156860Y-58592726D01*
X129156851Y-58592718D01*
X128948803Y-58433075D01*
X128721700Y-58301958D01*
X128721690Y-58301953D01*
X128479428Y-58201605D01*
X128479421Y-58201603D01*
X128479419Y-58201602D01*
X128226116Y-58133730D01*
X128168339Y-58126123D01*
X127966127Y-58099500D01*
X127966120Y-58099500D01*
X127703880Y-58099500D01*
X127703872Y-58099500D01*
X127472772Y-58129926D01*
X127443884Y-58133730D01*
X127190581Y-58201602D01*
X127190571Y-58201605D01*
X126948309Y-58301953D01*
X126948299Y-58301958D01*
X126721196Y-58433075D01*
X126513148Y-58592718D01*
X126327718Y-58778148D01*
X126168075Y-58986196D01*
X126036958Y-59213299D01*
X126036953Y-59213309D01*
X125936605Y-59455571D01*
X125936602Y-59455581D01*
X125878665Y-59671808D01*
X125868730Y-59708885D01*
X125834500Y-59968872D01*
X125834500Y-60731127D01*
X125859393Y-60920200D01*
X125868730Y-60991116D01*
X125917964Y-61174859D01*
X125936602Y-61244418D01*
X125936605Y-61244428D01*
X126036953Y-61486690D01*
X126036958Y-61486700D01*
X126168075Y-61713803D01*
X126287492Y-61869428D01*
X126312687Y-61934597D01*
X126298649Y-62003042D01*
X126276798Y-62032596D01*
X125376215Y-62933181D01*
X125314892Y-62966666D01*
X125288534Y-62969500D01*
X100924047Y-62969500D01*
X100857008Y-62949815D01*
X100811253Y-62897011D01*
X100801309Y-62827853D01*
X100830334Y-62764297D01*
X100836366Y-62757819D01*
X100855708Y-62738477D01*
X100876966Y-62717219D01*
X100876968Y-62717215D01*
X100876971Y-62717213D01*
X100941885Y-62627865D01*
X100997287Y-62551610D01*
X101090220Y-62369219D01*
X101153477Y-62174534D01*
X101185500Y-61972352D01*
X101185500Y-61767648D01*
X101184145Y-61759091D01*
X101153477Y-61565465D01*
X101109461Y-61430000D01*
X101090220Y-61370781D01*
X101090218Y-61370778D01*
X101090218Y-61370776D01*
X101056503Y-61304607D01*
X100997287Y-61188390D01*
X100950374Y-61123819D01*
X100876971Y-61022786D01*
X100732213Y-60878028D01*
X100566613Y-60757715D01*
X100566612Y-60757714D01*
X100566610Y-60757713D01*
X100509653Y-60728691D01*
X100384223Y-60664781D01*
X100189534Y-60601522D01*
X100014995Y-60573878D01*
X99987352Y-60569500D01*
X99782648Y-60569500D01*
X99758329Y-60573351D01*
X99580465Y-60601522D01*
X99385776Y-60664781D01*
X99203386Y-60757715D01*
X99037786Y-60878028D01*
X98893028Y-61022786D01*
X98772715Y-61188386D01*
X98679781Y-61370776D01*
X98616522Y-61565465D01*
X98584500Y-61767648D01*
X98584500Y-61972351D01*
X98616522Y-62174534D01*
X98679781Y-62369223D01*
X98772715Y-62551613D01*
X98893028Y-62717213D01*
X98933634Y-62757819D01*
X98967119Y-62819142D01*
X98962135Y-62888834D01*
X98920263Y-62944767D01*
X98854799Y-62969184D01*
X98845953Y-62969500D01*
X97466458Y-62969500D01*
X97445031Y-62973762D01*
X97402175Y-62982287D01*
X97273167Y-63007947D01*
X97273159Y-63007950D01*
X97219834Y-63030037D01*
X97219834Y-63030038D01*
X97174315Y-63048892D01*
X97091089Y-63083366D01*
X97091079Y-63083371D01*
X96927219Y-63192859D01*
X96857540Y-63262538D01*
X96787861Y-63332218D01*
X96787858Y-63332221D01*
X96436076Y-63684002D01*
X96374753Y-63717487D01*
X96305061Y-63712503D01*
X96249128Y-63670631D01*
X96230464Y-63634639D01*
X96219845Y-63601957D01*
X96190220Y-63510781D01*
X96097287Y-63328390D01*
X96052527Y-63266782D01*
X95976971Y-63162786D01*
X95832213Y-63018028D01*
X95666614Y-62897715D01*
X95649184Y-62888834D01*
X95573917Y-62850483D01*
X95523123Y-62802511D01*
X95506328Y-62734690D01*
X95528865Y-62668555D01*
X95573917Y-62629516D01*
X95666610Y-62582287D01*
X95697093Y-62560140D01*
X95832213Y-62461971D01*
X95832215Y-62461968D01*
X95832219Y-62461966D01*
X95976966Y-62317219D01*
X95976968Y-62317215D01*
X95976971Y-62317213D01*
X96074079Y-62183553D01*
X96097287Y-62151610D01*
X96190220Y-61969219D01*
X96253477Y-61774534D01*
X96285500Y-61572352D01*
X96285500Y-61367648D01*
X96268358Y-61259420D01*
X96253477Y-61165465D01*
X96210153Y-61032128D01*
X96190220Y-60970781D01*
X96190218Y-60970778D01*
X96190218Y-60970776D01*
X96137768Y-60867839D01*
X96097287Y-60788390D01*
X96077314Y-60760899D01*
X95976971Y-60622786D01*
X95832213Y-60478028D01*
X95666613Y-60357715D01*
X95666612Y-60357714D01*
X95666610Y-60357713D01*
X95609653Y-60328691D01*
X95484223Y-60264781D01*
X95289534Y-60201522D01*
X95101690Y-60171771D01*
X95087352Y-60169500D01*
X94882648Y-60169500D01*
X94868310Y-60171771D01*
X94680465Y-60201522D01*
X94485776Y-60264781D01*
X94303386Y-60357715D01*
X94137786Y-60478028D01*
X93993028Y-60622786D01*
X93872715Y-60788386D01*
X93779781Y-60970776D01*
X93716522Y-61165465D01*
X93684500Y-61367648D01*
X93684500Y-61572351D01*
X93716522Y-61774534D01*
X93779781Y-61969223D01*
X93833987Y-62075606D01*
X93871933Y-62150080D01*
X93872715Y-62151613D01*
X93993028Y-62317213D01*
X94137786Y-62461971D01*
X94272907Y-62560140D01*
X94303390Y-62582287D01*
X94392857Y-62627873D01*
X94396080Y-62629515D01*
X94446876Y-62677490D01*
X94463671Y-62745311D01*
X94441134Y-62811446D01*
X94396080Y-62850485D01*
X94303386Y-62897715D01*
X94137786Y-63018028D01*
X93993028Y-63162786D01*
X93872715Y-63328386D01*
X93779781Y-63510776D01*
X93716522Y-63705465D01*
X93684500Y-63907648D01*
X93684500Y-64112351D01*
X93716522Y-64314534D01*
X93779781Y-64509223D01*
X93872715Y-64691613D01*
X93993028Y-64857213D01*
X94137786Y-65001971D01*
X94287422Y-65110686D01*
X94303390Y-65122287D01*
X94394840Y-65168883D01*
X94396080Y-65169515D01*
X94446876Y-65217490D01*
X94463671Y-65285311D01*
X94441134Y-65351446D01*
X94396080Y-65390485D01*
X94303386Y-65437715D01*
X94137786Y-65558028D01*
X93993028Y-65702786D01*
X93872715Y-65868386D01*
X93779781Y-66050776D01*
X93716522Y-66245465D01*
X93684500Y-66447648D01*
X93684500Y-66652351D01*
X93716522Y-66854534D01*
X93779781Y-67049223D01*
X93867745Y-67221860D01*
X93872713Y-67231610D01*
X93960819Y-67352877D01*
X93984298Y-67418681D01*
X93984500Y-67425761D01*
X93984500Y-67752819D01*
X93964815Y-67819858D01*
X93934812Y-67852085D01*
X93827452Y-67932455D01*
X93741206Y-68047664D01*
X93741202Y-68047671D01*
X93690908Y-68182517D01*
X93686715Y-68221522D01*
X93684501Y-68242123D01*
X93684500Y-68242135D01*
X93684500Y-69937870D01*
X93684501Y-69937876D01*
X93690908Y-69997483D01*
X93741202Y-70132328D01*
X93741206Y-70132335D01*
X93827452Y-70247544D01*
X93827455Y-70247547D01*
X93942666Y-70333794D01*
X93942669Y-70333796D01*
X93942671Y-70333796D01*
X93947928Y-70336668D01*
X93997333Y-70386073D01*
X94012185Y-70454346D01*
X93987768Y-70519810D01*
X93931835Y-70561682D01*
X93888501Y-70569500D01*
X90310783Y-70569500D01*
X90243744Y-70549815D01*
X90223102Y-70533181D01*
X88691717Y-69001797D01*
X88658232Y-68940474D01*
X88656925Y-68933513D01*
X88633477Y-68785466D01*
X88633477Y-68785465D01*
X88602462Y-68690012D01*
X88570220Y-68590781D01*
X88570218Y-68590778D01*
X88570218Y-68590776D01*
X88531316Y-68514428D01*
X88477287Y-68408390D01*
X88464232Y-68390421D01*
X88356971Y-68242786D01*
X88212213Y-68098028D01*
X88046614Y-67977715D01*
X88040006Y-67974348D01*
X87953917Y-67930483D01*
X87903123Y-67882511D01*
X87886328Y-67814690D01*
X87908865Y-67748555D01*
X87953917Y-67709516D01*
X88046610Y-67662287D01*
X88092525Y-67628928D01*
X88212213Y-67541971D01*
X88212215Y-67541968D01*
X88212219Y-67541966D01*
X88356966Y-67397219D01*
X88356968Y-67397215D01*
X88356971Y-67397213D01*
X88443123Y-67278633D01*
X88477287Y-67231610D01*
X88570220Y-67049219D01*
X88633477Y-66854534D01*
X88665500Y-66652352D01*
X88665500Y-66447648D01*
X88633477Y-66245465D01*
X88577101Y-66071958D01*
X88570220Y-66050781D01*
X88570218Y-66050778D01*
X88570218Y-66050776D01*
X88517768Y-65947839D01*
X88477287Y-65868390D01*
X88464654Y-65851003D01*
X88389182Y-65747122D01*
X88365702Y-65681316D01*
X88365500Y-65674237D01*
X88365500Y-64885761D01*
X88385185Y-64818722D01*
X88389165Y-64812899D01*
X88477287Y-64691610D01*
X88570220Y-64509219D01*
X88633477Y-64314534D01*
X88656925Y-64166483D01*
X88686854Y-64103350D01*
X88691699Y-64098219D01*
X92821778Y-59968141D01*
X92821782Y-59968139D01*
X92961139Y-59828782D01*
X93070632Y-59664914D01*
X93130037Y-59521496D01*
X93130040Y-59521490D01*
X93132994Y-59514355D01*
X93146051Y-59482836D01*
X93184500Y-59289540D01*
X93184500Y-59092460D01*
X93184500Y-57745475D01*
X93204185Y-57678436D01*
X93256989Y-57632681D01*
X93326147Y-57622737D01*
X93346820Y-57627545D01*
X93380458Y-57638475D01*
X93380461Y-57638475D01*
X93380466Y-57638477D01*
X93582648Y-57670500D01*
X93582649Y-57670500D01*
X93787351Y-57670500D01*
X93787352Y-57670500D01*
X93989534Y-57638477D01*
X94184219Y-57575220D01*
X94366610Y-57482287D01*
X94485334Y-57396030D01*
X94532213Y-57361971D01*
X94532215Y-57361968D01*
X94532219Y-57361966D01*
X94676966Y-57217219D01*
X94676968Y-57217215D01*
X94676971Y-57217213D01*
X94729732Y-57144590D01*
X94797287Y-57051610D01*
X94890220Y-56869219D01*
X94953477Y-56674534D01*
X94985500Y-56472352D01*
X94985500Y-56267648D01*
X94953477Y-56065466D01*
X94890220Y-55870781D01*
X94890218Y-55870778D01*
X94890218Y-55870776D01*
X94847959Y-55787839D01*
X94797287Y-55688390D01*
X94717003Y-55577887D01*
X94676971Y-55522786D01*
X94532213Y-55378028D01*
X94366613Y-55257715D01*
X94366612Y-55257714D01*
X94366610Y-55257713D01*
X94309653Y-55228691D01*
X94184223Y-55164781D01*
X93989534Y-55101522D01*
X93814995Y-55073878D01*
X93787352Y-55069500D01*
X93582648Y-55069500D01*
X93526652Y-55078369D01*
X93380464Y-55101523D01*
X93380457Y-55101524D01*
X93346817Y-55112455D01*
X93318698Y-55113258D01*
X93290853Y-55117262D01*
X93284241Y-55114242D01*
X93276976Y-55114450D01*
X93252887Y-55099923D01*
X93227297Y-55088237D01*
X93223366Y-55082121D01*
X93217144Y-55078369D01*
X93204733Y-55053126D01*
X93189523Y-55029459D01*
X93188046Y-55019186D01*
X93186316Y-55015668D01*
X93184500Y-54994524D01*
X93184500Y-54746782D01*
X93204185Y-54679743D01*
X93220819Y-54659101D01*
X93867101Y-54012819D01*
X94468672Y-53411248D01*
X98584500Y-53411248D01*
X98584500Y-53615951D01*
X98616522Y-53818134D01*
X98679781Y-54012823D01*
X98772715Y-54195213D01*
X98893028Y-54360813D01*
X99037786Y-54505571D01*
X99190354Y-54616416D01*
X99203390Y-54625887D01*
X99287845Y-54668919D01*
X99385776Y-54718818D01*
X99385778Y-54718818D01*
X99385781Y-54718820D01*
X99471839Y-54746782D01*
X99580465Y-54782077D01*
X99658597Y-54794452D01*
X99782648Y-54814100D01*
X99782649Y-54814100D01*
X99987351Y-54814100D01*
X99987352Y-54814100D01*
X100189534Y-54782077D01*
X100384219Y-54718820D01*
X100566610Y-54625887D01*
X100672667Y-54548833D01*
X100732213Y-54505571D01*
X100732215Y-54505568D01*
X100732219Y-54505566D01*
X100876966Y-54360819D01*
X100876968Y-54360815D01*
X100876971Y-54360813D01*
X100940293Y-54273656D01*
X100997287Y-54195210D01*
X101090220Y-54012819D01*
X101153477Y-53818134D01*
X101185500Y-53615952D01*
X101185500Y-53411248D01*
X101153477Y-53209066D01*
X101153476Y-53209062D01*
X101153476Y-53209061D01*
X101109312Y-53073139D01*
X101098180Y-53038880D01*
X101098177Y-53038872D01*
X103284500Y-53038872D01*
X103284500Y-53301127D01*
X103307850Y-53478480D01*
X103318730Y-53561116D01*
X103385791Y-53811392D01*
X103386602Y-53814418D01*
X103386605Y-53814428D01*
X103486953Y-54056690D01*
X103486958Y-54056700D01*
X103618075Y-54283803D01*
X103777718Y-54491851D01*
X103777726Y-54491860D01*
X103963140Y-54677274D01*
X103963148Y-54677281D01*
X103963149Y-54677282D01*
X103986787Y-54695420D01*
X104171196Y-54836924D01*
X104398299Y-54968041D01*
X104398309Y-54968046D01*
X104582927Y-55044517D01*
X104640581Y-55068398D01*
X104893884Y-55136270D01*
X105153880Y-55170500D01*
X105153887Y-55170500D01*
X105416113Y-55170500D01*
X105416120Y-55170500D01*
X105676116Y-55136270D01*
X105929419Y-55068398D01*
X106107766Y-54994524D01*
X106171690Y-54968046D01*
X106171691Y-54968045D01*
X106171697Y-54968043D01*
X106398803Y-54836924D01*
X106606851Y-54677282D01*
X106606855Y-54677277D01*
X106606860Y-54677274D01*
X106792274Y-54491860D01*
X106792277Y-54491855D01*
X106792282Y-54491851D01*
X106951924Y-54283803D01*
X107083043Y-54056697D01*
X107183398Y-53814419D01*
X107251270Y-53561116D01*
X107285500Y-53301120D01*
X107285500Y-53038880D01*
X107285499Y-53038872D01*
X119514500Y-53038872D01*
X119514500Y-53301127D01*
X119537850Y-53478480D01*
X119548730Y-53561116D01*
X119615791Y-53811392D01*
X119616602Y-53814418D01*
X119616605Y-53814428D01*
X119716953Y-54056690D01*
X119716958Y-54056700D01*
X119848075Y-54283803D01*
X120007718Y-54491851D01*
X120007726Y-54491860D01*
X120193140Y-54677274D01*
X120193148Y-54677281D01*
X120193149Y-54677282D01*
X120216787Y-54695420D01*
X120401196Y-54836924D01*
X120628299Y-54968041D01*
X120628309Y-54968046D01*
X120812927Y-55044517D01*
X120870581Y-55068398D01*
X121123884Y-55136270D01*
X121383880Y-55170500D01*
X121383887Y-55170500D01*
X121646113Y-55170500D01*
X121646120Y-55170500D01*
X121906116Y-55136270D01*
X122159419Y-55068398D01*
X122337766Y-54994524D01*
X122401690Y-54968046D01*
X122401691Y-54968045D01*
X122401697Y-54968043D01*
X122628803Y-54836924D01*
X122836851Y-54677282D01*
X122836855Y-54677277D01*
X122836860Y-54677274D01*
X122845262Y-54668872D01*
X125834500Y-54668872D01*
X125834500Y-55431127D01*
X125861123Y-55633339D01*
X125868730Y-55691116D01*
X125916870Y-55870776D01*
X125936602Y-55944418D01*
X125936605Y-55944428D01*
X126036953Y-56186690D01*
X126036958Y-56186700D01*
X126168075Y-56413803D01*
X126327718Y-56621851D01*
X126327726Y-56621860D01*
X126513140Y-56807274D01*
X126513148Y-56807281D01*
X126721196Y-56966924D01*
X126948299Y-57098041D01*
X126948309Y-57098046D01*
X127190571Y-57198394D01*
X127190581Y-57198398D01*
X127443884Y-57266270D01*
X127703880Y-57300500D01*
X127703887Y-57300500D01*
X127966113Y-57300500D01*
X127966120Y-57300500D01*
X128226116Y-57266270D01*
X128479419Y-57198398D01*
X128721697Y-57098043D01*
X128948803Y-56966924D01*
X129156851Y-56807282D01*
X129156855Y-56807277D01*
X129156860Y-56807274D01*
X129342274Y-56621860D01*
X129342277Y-56621855D01*
X129342282Y-56621851D01*
X129501924Y-56413803D01*
X129633043Y-56186697D01*
X129733398Y-55944419D01*
X129801270Y-55691116D01*
X129835500Y-55431120D01*
X129835500Y-54668880D01*
X129801270Y-54408884D01*
X129733398Y-54155581D01*
X129724853Y-54134952D01*
X129633046Y-53913309D01*
X129633041Y-53913299D01*
X129501924Y-53686196D01*
X129342536Y-53478480D01*
X129342282Y-53478149D01*
X129342281Y-53478148D01*
X129342274Y-53478140D01*
X129156860Y-53292726D01*
X129156851Y-53292718D01*
X128948803Y-53133075D01*
X128721700Y-53001958D01*
X128721690Y-53001953D01*
X128479428Y-52901605D01*
X128479421Y-52901603D01*
X128479419Y-52901602D01*
X128226116Y-52833730D01*
X128162184Y-52825313D01*
X127966127Y-52799500D01*
X127966120Y-52799500D01*
X127703880Y-52799500D01*
X127703872Y-52799500D01*
X127472772Y-52829926D01*
X127443884Y-52833730D01*
X127195701Y-52900230D01*
X127190581Y-52901602D01*
X127190571Y-52901605D01*
X126948309Y-53001953D01*
X126948299Y-53001958D01*
X126721196Y-53133075D01*
X126513148Y-53292718D01*
X126327718Y-53478148D01*
X126168075Y-53686196D01*
X126036958Y-53913299D01*
X126036953Y-53913309D01*
X125936605Y-54155571D01*
X125936602Y-54155581D01*
X125868730Y-54408884D01*
X125868716Y-54408990D01*
X125834500Y-54668872D01*
X122845262Y-54668872D01*
X123022274Y-54491860D01*
X123022277Y-54491855D01*
X123022282Y-54491851D01*
X123181924Y-54283803D01*
X123313043Y-54056697D01*
X123413398Y-53814419D01*
X123481270Y-53561116D01*
X123515500Y-53301120D01*
X123515500Y-53038880D01*
X123481270Y-52778884D01*
X123413398Y-52525581D01*
X123411761Y-52521628D01*
X123313046Y-52283309D01*
X123313041Y-52283299D01*
X123181924Y-52056196D01*
X123022281Y-51848148D01*
X123022274Y-51848140D01*
X122836860Y-51662726D01*
X122836851Y-51662718D01*
X122628803Y-51503075D01*
X122401700Y-51371958D01*
X122401690Y-51371953D01*
X122159428Y-51271605D01*
X122159421Y-51271603D01*
X122159419Y-51271602D01*
X121906116Y-51203730D01*
X121848339Y-51196123D01*
X121646127Y-51169500D01*
X121646120Y-51169500D01*
X121383880Y-51169500D01*
X121383872Y-51169500D01*
X121152772Y-51199926D01*
X121123884Y-51203730D01*
X120871387Y-51271386D01*
X120870581Y-51271602D01*
X120870571Y-51271605D01*
X120628309Y-51371953D01*
X120628299Y-51371958D01*
X120401196Y-51503075D01*
X120193148Y-51662718D01*
X120007718Y-51848148D01*
X119848075Y-52056196D01*
X119716958Y-52283299D01*
X119716953Y-52283309D01*
X119616605Y-52525571D01*
X119616602Y-52525581D01*
X119550977Y-52770500D01*
X119548730Y-52778885D01*
X119514500Y-53038872D01*
X107285499Y-53038872D01*
X107251270Y-52778884D01*
X107183398Y-52525581D01*
X107181761Y-52521628D01*
X107083046Y-52283309D01*
X107083041Y-52283299D01*
X106951924Y-52056196D01*
X106792281Y-51848148D01*
X106792274Y-51848140D01*
X106606860Y-51662726D01*
X106606851Y-51662718D01*
X106398803Y-51503075D01*
X106171700Y-51371958D01*
X106171690Y-51371953D01*
X105929428Y-51271605D01*
X105929421Y-51271603D01*
X105929419Y-51271602D01*
X105676116Y-51203730D01*
X105618339Y-51196123D01*
X105416127Y-51169500D01*
X105416120Y-51169500D01*
X105153880Y-51169500D01*
X105153872Y-51169500D01*
X104922772Y-51199926D01*
X104893884Y-51203730D01*
X104641387Y-51271386D01*
X104640581Y-51271602D01*
X104640571Y-51271605D01*
X104398309Y-51371953D01*
X104398299Y-51371958D01*
X104171196Y-51503075D01*
X103963148Y-51662718D01*
X103777718Y-51848148D01*
X103618075Y-52056196D01*
X103486958Y-52283299D01*
X103486953Y-52283309D01*
X103386605Y-52525571D01*
X103386602Y-52525581D01*
X103320977Y-52770500D01*
X103318730Y-52778885D01*
X103284500Y-53038872D01*
X101098177Y-53038872D01*
X101090220Y-53014381D01*
X100997287Y-52831990D01*
X100960833Y-52781815D01*
X100876971Y-52666386D01*
X100732213Y-52521628D01*
X100566613Y-52401315D01*
X100566612Y-52401314D01*
X100566610Y-52401313D01*
X100509653Y-52372291D01*
X100384223Y-52308381D01*
X100189534Y-52245122D01*
X100014995Y-52217478D01*
X99987352Y-52213100D01*
X99782648Y-52213100D01*
X99758329Y-52216951D01*
X99580465Y-52245122D01*
X99385776Y-52308381D01*
X99203386Y-52401315D01*
X99037786Y-52521628D01*
X98893028Y-52666386D01*
X98772715Y-52831986D01*
X98679781Y-53014376D01*
X98616522Y-53209065D01*
X98584500Y-53411248D01*
X94468672Y-53411248D01*
X95083204Y-52796715D01*
X95144525Y-52763232D01*
X95151475Y-52761926D01*
X95299534Y-52738477D01*
X95494219Y-52675220D01*
X95676610Y-52582287D01*
X95812225Y-52483758D01*
X95842213Y-52461971D01*
X95842215Y-52461968D01*
X95842219Y-52461966D01*
X95986966Y-52317219D01*
X95986968Y-52317215D01*
X95986971Y-52317213D01*
X96054850Y-52223784D01*
X96107287Y-52151610D01*
X96200220Y-51969219D01*
X96263477Y-51774534D01*
X96295500Y-51572352D01*
X96295500Y-51367648D01*
X96263477Y-51165466D01*
X96200220Y-50970781D01*
X96200218Y-50970778D01*
X96200218Y-50970776D01*
X96166503Y-50904607D01*
X96107287Y-50788390D01*
X96060541Y-50724049D01*
X95986971Y-50622786D01*
X95842213Y-50478028D01*
X95676613Y-50357715D01*
X95676612Y-50357714D01*
X95676610Y-50357713D01*
X95598618Y-50317974D01*
X95494223Y-50264781D01*
X95299534Y-50201522D01*
X95124995Y-50173878D01*
X95097352Y-50169500D01*
X94892648Y-50169500D01*
X94868329Y-50173351D01*
X94690465Y-50201522D01*
X94495776Y-50264781D01*
X94313386Y-50357715D01*
X94147786Y-50478028D01*
X94003028Y-50622786D01*
X93882715Y-50788386D01*
X93789781Y-50970778D01*
X93726522Y-51165468D01*
X93703073Y-51313514D01*
X93673143Y-51376649D01*
X93668281Y-51381796D01*
X91997181Y-53052897D01*
X91935858Y-53086382D01*
X91866166Y-53081398D01*
X91810233Y-53039526D01*
X91785816Y-52974062D01*
X91785500Y-52965216D01*
X91785500Y-46959915D01*
X93694500Y-46959915D01*
X93694500Y-47164618D01*
X93726522Y-47366801D01*
X93789781Y-47561490D01*
X93849212Y-47678127D01*
X93864631Y-47708390D01*
X93882715Y-47743880D01*
X94003028Y-47909480D01*
X94147786Y-48054238D01*
X94302749Y-48166823D01*
X94313390Y-48174554D01*
X94429607Y-48233770D01*
X94495776Y-48267485D01*
X94495778Y-48267485D01*
X94495781Y-48267487D01*
X94600137Y-48301394D01*
X94690465Y-48330744D01*
X94791557Y-48346755D01*
X94892648Y-48362767D01*
X94892649Y-48362767D01*
X95097351Y-48362767D01*
X95097352Y-48362767D01*
X95299534Y-48330744D01*
X95494219Y-48267487D01*
X95676610Y-48174554D01*
X95799230Y-48085466D01*
X95842213Y-48054238D01*
X95842215Y-48054235D01*
X95842219Y-48054233D01*
X95986966Y-47909486D01*
X95986968Y-47909482D01*
X95986971Y-47909480D01*
X96051981Y-47820000D01*
X96107287Y-47743877D01*
X96200220Y-47561486D01*
X96263477Y-47366801D01*
X96295500Y-47164619D01*
X96295500Y-46959915D01*
X96282273Y-46876403D01*
X96263477Y-46757732D01*
X96220159Y-46624415D01*
X96200220Y-46563048D01*
X96200218Y-46563045D01*
X96200218Y-46563043D01*
X96151103Y-46466651D01*
X96107287Y-46380657D01*
X96078986Y-46341704D01*
X95986971Y-46215053D01*
X95842213Y-46070295D01*
X95676613Y-45949982D01*
X95676612Y-45949981D01*
X95676610Y-45949980D01*
X95619653Y-45920958D01*
X95494223Y-45857048D01*
X95299534Y-45793789D01*
X95124995Y-45766145D01*
X95097352Y-45761767D01*
X94892648Y-45761767D01*
X94868329Y-45765618D01*
X94690465Y-45793789D01*
X94495776Y-45857048D01*
X94313386Y-45949982D01*
X94147786Y-46070295D01*
X94003028Y-46215053D01*
X93882715Y-46380653D01*
X93789781Y-46563043D01*
X93726522Y-46757732D01*
X93694500Y-46959915D01*
X91785500Y-46959915D01*
X91785500Y-42922581D01*
X91805185Y-42855542D01*
X91821814Y-42834905D01*
X92104538Y-42552181D01*
X93694500Y-42552181D01*
X93694500Y-42756885D01*
X93698878Y-42784528D01*
X93726522Y-42959067D01*
X93789781Y-43153756D01*
X93882715Y-43336146D01*
X94003028Y-43501746D01*
X94147786Y-43646504D01*
X94275213Y-43739083D01*
X94313390Y-43766820D01*
X94429607Y-43826036D01*
X94495776Y-43859751D01*
X94495778Y-43859751D01*
X94495781Y-43859753D01*
X94554162Y-43878722D01*
X94690465Y-43923010D01*
X94741644Y-43931116D01*
X94892648Y-43955033D01*
X94892649Y-43955033D01*
X95097351Y-43955033D01*
X95097352Y-43955033D01*
X95299534Y-43923010D01*
X95494219Y-43859753D01*
X95676610Y-43766820D01*
X95797877Y-43678714D01*
X95863683Y-43655235D01*
X95870762Y-43655033D01*
X98647517Y-43655033D01*
X98654743Y-43657154D01*
X98662168Y-43655902D01*
X98687805Y-43666863D01*
X98714556Y-43674718D01*
X98721088Y-43681092D01*
X98726412Y-43683369D01*
X98737210Y-43696826D01*
X98750168Y-43709472D01*
X98754498Y-43715862D01*
X98772713Y-43751610D01*
X98862018Y-43874528D01*
X98863151Y-43876200D01*
X98873207Y-43907598D01*
X98884298Y-43938681D01*
X98884408Y-43942571D01*
X98884463Y-43942740D01*
X98884418Y-43942906D01*
X98884500Y-43945761D01*
X98884500Y-47637837D01*
X98864815Y-47704876D01*
X98860818Y-47710722D01*
X98772715Y-47831986D01*
X98679781Y-48014376D01*
X98616522Y-48209065D01*
X98584500Y-48411248D01*
X98584500Y-48615951D01*
X98616522Y-48818134D01*
X98679781Y-49012823D01*
X98732502Y-49116292D01*
X98767058Y-49184112D01*
X98772715Y-49195213D01*
X98893028Y-49360813D01*
X99037786Y-49505571D01*
X99161177Y-49595218D01*
X99203390Y-49625887D01*
X99289965Y-49669999D01*
X99385776Y-49718818D01*
X99385778Y-49718818D01*
X99385781Y-49718820D01*
X99490137Y-49752727D01*
X99580465Y-49782077D01*
X99650535Y-49793175D01*
X99782648Y-49814100D01*
X99782649Y-49814100D01*
X99987351Y-49814100D01*
X99987352Y-49814100D01*
X100189534Y-49782077D01*
X100384219Y-49718820D01*
X100566610Y-49625887D01*
X100702456Y-49527190D01*
X100732213Y-49505571D01*
X100732215Y-49505568D01*
X100732219Y-49505566D01*
X100876966Y-49360819D01*
X100876968Y-49360815D01*
X100876971Y-49360813D01*
X100937593Y-49277372D01*
X100997287Y-49195210D01*
X101090220Y-49012819D01*
X101153477Y-48818134D01*
X101185500Y-48615952D01*
X101185500Y-48411248D01*
X101165923Y-48287648D01*
X124984500Y-48287648D01*
X124984500Y-48492351D01*
X125016522Y-48694534D01*
X125079781Y-48889223D01*
X125139613Y-49006648D01*
X125166334Y-49059091D01*
X125172715Y-49071613D01*
X125293028Y-49237213D01*
X125437786Y-49381971D01*
X125592749Y-49494556D01*
X125603390Y-49502287D01*
X125719607Y-49561503D01*
X125785776Y-49595218D01*
X125785778Y-49595218D01*
X125785781Y-49595220D01*
X125841592Y-49613354D01*
X125980465Y-49658477D01*
X126012798Y-49663598D01*
X126182648Y-49690500D01*
X126182649Y-49690500D01*
X126387351Y-49690500D01*
X126387352Y-49690500D01*
X126589534Y-49658477D01*
X126784219Y-49595220D01*
X126966610Y-49502287D01*
X127087877Y-49414181D01*
X127153683Y-49390702D01*
X127160762Y-49390500D01*
X130109218Y-49390500D01*
X130176257Y-49410185D01*
X130196898Y-49426818D01*
X133585969Y-52815890D01*
X133619454Y-52877212D01*
X133614470Y-52946904D01*
X133572598Y-53002837D01*
X133507134Y-53027254D01*
X133438861Y-53012402D01*
X133436291Y-53010959D01*
X133421480Y-53002408D01*
X133421471Y-53002404D01*
X133179255Y-52902075D01*
X132926016Y-52834221D01*
X132785000Y-52815654D01*
X132785000Y-53801517D01*
X132766591Y-53790889D01*
X132613991Y-53750000D01*
X132456009Y-53750000D01*
X132303409Y-53790889D01*
X132285000Y-53801517D01*
X132285000Y-52815654D01*
X132284999Y-52815654D01*
X132143983Y-52834221D01*
X131890744Y-52902075D01*
X131648528Y-53002404D01*
X131648517Y-53002409D01*
X131421471Y-53133496D01*
X131213480Y-53293092D01*
X131213473Y-53293098D01*
X131028098Y-53478473D01*
X131028092Y-53478480D01*
X130868496Y-53686471D01*
X130737409Y-53913517D01*
X130737404Y-53913528D01*
X130637075Y-54155744D01*
X130569222Y-54408979D01*
X130569220Y-54408990D01*
X130535000Y-54668905D01*
X130535000Y-54800000D01*
X131935000Y-54800000D01*
X131935000Y-55300000D01*
X130535000Y-55300000D01*
X130535000Y-55431094D01*
X130569220Y-55691009D01*
X130569222Y-55691020D01*
X130637075Y-55944255D01*
X130737404Y-56186471D01*
X130737409Y-56186482D01*
X130868496Y-56413528D01*
X131028092Y-56621519D01*
X131028098Y-56621526D01*
X131213473Y-56806901D01*
X131213480Y-56806907D01*
X131421471Y-56966503D01*
X131648517Y-57097590D01*
X131648528Y-57097595D01*
X131890744Y-57197924D01*
X132143979Y-57265777D01*
X132143992Y-57265780D01*
X132285000Y-57284343D01*
X132285000Y-56298482D01*
X132303409Y-56309111D01*
X132456009Y-56350000D01*
X132613991Y-56350000D01*
X132766591Y-56309111D01*
X132785000Y-56298482D01*
X132785000Y-57284342D01*
X132926007Y-57265780D01*
X132926020Y-57265777D01*
X133179255Y-57197924D01*
X133421471Y-57097595D01*
X133421482Y-57097590D01*
X133648528Y-56966503D01*
X133856519Y-56806907D01*
X133856526Y-56806901D01*
X134041901Y-56621526D01*
X134041907Y-56621519D01*
X134201503Y-56413528D01*
X134332590Y-56186482D01*
X134332595Y-56186471D01*
X134432924Y-55944255D01*
X134500777Y-55691020D01*
X134500779Y-55691009D01*
X134534999Y-55431094D01*
X134535000Y-55431080D01*
X134535000Y-55300000D01*
X133135000Y-55300000D01*
X133135000Y-54800000D01*
X134535000Y-54800000D01*
X134535000Y-54668919D01*
X134534999Y-54668905D01*
X134500779Y-54408990D01*
X134500777Y-54408979D01*
X134432924Y-54155744D01*
X134332595Y-53913528D01*
X134332588Y-53913513D01*
X134324043Y-53898713D01*
X134307569Y-53830813D01*
X134330421Y-53764786D01*
X134385341Y-53721595D01*
X134454895Y-53714953D01*
X134516998Y-53746968D01*
X134519110Y-53749031D01*
X135215046Y-54444967D01*
X135248531Y-54506290D01*
X135250304Y-54548833D01*
X135234501Y-54668869D01*
X135234500Y-54668886D01*
X135234500Y-55431127D01*
X135261123Y-55633339D01*
X135268730Y-55691116D01*
X135316870Y-55870776D01*
X135336602Y-55944418D01*
X135336605Y-55944428D01*
X135436953Y-56186690D01*
X135436958Y-56186700D01*
X135568075Y-56413803D01*
X135727718Y-56621851D01*
X135727726Y-56621860D01*
X135913140Y-56807274D01*
X135913148Y-56807281D01*
X136121196Y-56966924D01*
X136348299Y-57098041D01*
X136348309Y-57098046D01*
X136590571Y-57198394D01*
X136590581Y-57198398D01*
X136843884Y-57266270D01*
X137103880Y-57300500D01*
X137103887Y-57300500D01*
X137366113Y-57300500D01*
X137366120Y-57300500D01*
X137626116Y-57266270D01*
X137879419Y-57198398D01*
X138121697Y-57098043D01*
X138348803Y-56966924D01*
X138556851Y-56807282D01*
X138556855Y-56807277D01*
X138556860Y-56807274D01*
X138742274Y-56621860D01*
X138742277Y-56621855D01*
X138742282Y-56621851D01*
X138901924Y-56413803D01*
X139033043Y-56186697D01*
X139133398Y-55944419D01*
X139201270Y-55691116D01*
X139235500Y-55431120D01*
X139235500Y-54668880D01*
X139201270Y-54408884D01*
X139133398Y-54155581D01*
X139124853Y-54134952D01*
X139033046Y-53913309D01*
X139033041Y-53913299D01*
X138901924Y-53686196D01*
X138742536Y-53478480D01*
X138742282Y-53478149D01*
X138742281Y-53478148D01*
X138742274Y-53478140D01*
X138556860Y-53292726D01*
X138556851Y-53292718D01*
X138348803Y-53133075D01*
X138121700Y-53001958D01*
X138121690Y-53001953D01*
X137879428Y-52901605D01*
X137879421Y-52901603D01*
X137879419Y-52901602D01*
X137626116Y-52833730D01*
X137562184Y-52825313D01*
X137366127Y-52799500D01*
X137366120Y-52799500D01*
X137103880Y-52799500D01*
X137103872Y-52799500D01*
X136843884Y-52833730D01*
X136589494Y-52901893D01*
X136519644Y-52900230D01*
X136469720Y-52869799D01*
X131359209Y-47759289D01*
X131359206Y-47759285D01*
X131359206Y-47759286D01*
X131352139Y-47752219D01*
X131352139Y-47752218D01*
X131212782Y-47612861D01*
X131212781Y-47612860D01*
X131212780Y-47612859D01*
X131048920Y-47503371D01*
X131048911Y-47503366D01*
X130927832Y-47453214D01*
X130927833Y-47453214D01*
X130920165Y-47450038D01*
X130866836Y-47427949D01*
X130732928Y-47401313D01*
X130729113Y-47400554D01*
X130729105Y-47400552D01*
X130673543Y-47389500D01*
X130673541Y-47389500D01*
X127160762Y-47389500D01*
X127093723Y-47369815D01*
X127087877Y-47365818D01*
X126966613Y-47277715D01*
X126966612Y-47277714D01*
X126966610Y-47277713D01*
X126860663Y-47223730D01*
X126784223Y-47184781D01*
X126589534Y-47121522D01*
X126414995Y-47093878D01*
X126387352Y-47089500D01*
X126182648Y-47089500D01*
X126158329Y-47093351D01*
X125980465Y-47121522D01*
X125785776Y-47184781D01*
X125603386Y-47277715D01*
X125437786Y-47398028D01*
X125293028Y-47542786D01*
X125172715Y-47708386D01*
X125079781Y-47890776D01*
X125016522Y-48085465D01*
X124984500Y-48287648D01*
X101165923Y-48287648D01*
X101153477Y-48209066D01*
X101090220Y-48014381D01*
X101090218Y-48014378D01*
X101090218Y-48014376D01*
X101036770Y-47909480D01*
X100997287Y-47831990D01*
X100944465Y-47759286D01*
X100909182Y-47710722D01*
X100885702Y-47644916D01*
X100885500Y-47637837D01*
X100885500Y-43945761D01*
X100905185Y-43878722D01*
X100909165Y-43872899D01*
X100997287Y-43751610D01*
X101090220Y-43569219D01*
X101153477Y-43374534D01*
X101185500Y-43172352D01*
X101185500Y-42967648D01*
X101167744Y-42855542D01*
X101153477Y-42765465D01*
X101090218Y-42570776D01*
X101039124Y-42470500D01*
X100997287Y-42388390D01*
X100969394Y-42349998D01*
X100876971Y-42222786D01*
X100732213Y-42078028D01*
X100566613Y-41957715D01*
X100566612Y-41957714D01*
X100566610Y-41957713D01*
X100477543Y-41912331D01*
X100384223Y-41864781D01*
X100189534Y-41801522D01*
X100014995Y-41773878D01*
X99987352Y-41769500D01*
X99987351Y-41769500D01*
X99971973Y-41769500D01*
X99963796Y-41767873D01*
X99958718Y-41768790D01*
X99924520Y-41760061D01*
X99879700Y-41741496D01*
X99814698Y-41714571D01*
X99788033Y-41703526D01*
X99761370Y-41692482D01*
X99761366Y-41692481D01*
X99650858Y-41670500D01*
X99568076Y-41654033D01*
X99568074Y-41654033D01*
X95870762Y-41654033D01*
X95803723Y-41634348D01*
X95797877Y-41630351D01*
X95676613Y-41542248D01*
X95676612Y-41542247D01*
X95676610Y-41542246D01*
X95596838Y-41501600D01*
X95494223Y-41449314D01*
X95299534Y-41386055D01*
X95124995Y-41358411D01*
X95097352Y-41354033D01*
X94892648Y-41354033D01*
X94868329Y-41357884D01*
X94690465Y-41386055D01*
X94495776Y-41449314D01*
X94313386Y-41542248D01*
X94147786Y-41662561D01*
X94003028Y-41807319D01*
X93882715Y-41972919D01*
X93789781Y-42155309D01*
X93726522Y-42349998D01*
X93709835Y-42455360D01*
X93694500Y-42552181D01*
X92104538Y-42552181D01*
X94317846Y-40338872D01*
X103284500Y-40338872D01*
X103284500Y-40601127D01*
X103311123Y-40803339D01*
X103318730Y-40861116D01*
X103385790Y-41111388D01*
X103386602Y-41114418D01*
X103386605Y-41114428D01*
X103486953Y-41356690D01*
X103486958Y-41356700D01*
X103618075Y-41583803D01*
X103777718Y-41791851D01*
X103777726Y-41791860D01*
X103963140Y-41977274D01*
X103963148Y-41977281D01*
X104171196Y-42136924D01*
X104398299Y-42268041D01*
X104398309Y-42268046D01*
X104616096Y-42358256D01*
X104640581Y-42368398D01*
X104893884Y-42436270D01*
X105153880Y-42470500D01*
X105153887Y-42470500D01*
X105416113Y-42470500D01*
X105416120Y-42470500D01*
X105676116Y-42436270D01*
X105929419Y-42368398D01*
X106171697Y-42268043D01*
X106398803Y-42136924D01*
X106606851Y-41977282D01*
X106606855Y-41977277D01*
X106606860Y-41977274D01*
X106792274Y-41791860D01*
X106792277Y-41791855D01*
X106792282Y-41791851D01*
X106951924Y-41583803D01*
X107083043Y-41356697D01*
X107084147Y-41354033D01*
X107144988Y-41207149D01*
X107183398Y-41114419D01*
X107251270Y-40861116D01*
X107285500Y-40601120D01*
X107285500Y-40338880D01*
X107285499Y-40338872D01*
X119514500Y-40338872D01*
X119514500Y-40601127D01*
X119541123Y-40803339D01*
X119548730Y-40861116D01*
X119615790Y-41111388D01*
X119616602Y-41114418D01*
X119616605Y-41114428D01*
X119716953Y-41356690D01*
X119716958Y-41356700D01*
X119848075Y-41583803D01*
X120007718Y-41791851D01*
X120007726Y-41791860D01*
X120193140Y-41977274D01*
X120193148Y-41977281D01*
X120401196Y-42136924D01*
X120628299Y-42268041D01*
X120628309Y-42268046D01*
X120846096Y-42358256D01*
X120870581Y-42368398D01*
X121123884Y-42436270D01*
X121383880Y-42470500D01*
X121383887Y-42470500D01*
X121646113Y-42470500D01*
X121646120Y-42470500D01*
X121906116Y-42436270D01*
X122159419Y-42368398D01*
X122401697Y-42268043D01*
X122628803Y-42136924D01*
X122836851Y-41977282D01*
X122836855Y-41977277D01*
X122836860Y-41977274D01*
X123022274Y-41791860D01*
X123022277Y-41791855D01*
X123022282Y-41791851D01*
X123181924Y-41583803D01*
X123313043Y-41356697D01*
X123314147Y-41354033D01*
X123374988Y-41207149D01*
X123413398Y-41114419D01*
X123481270Y-40861116D01*
X123506741Y-40667648D01*
X124984500Y-40667648D01*
X124984500Y-40872351D01*
X125016522Y-41074534D01*
X125079781Y-41269223D01*
X125139613Y-41386648D01*
X125171543Y-41449314D01*
X125172715Y-41451613D01*
X125293028Y-41617213D01*
X125437786Y-41761971D01*
X125579293Y-41864780D01*
X125603390Y-41882287D01*
X125719607Y-41941503D01*
X125785776Y-41975218D01*
X125785778Y-41975218D01*
X125785781Y-41975220D01*
X125890137Y-42009127D01*
X125980465Y-42038477D01*
X126081557Y-42054488D01*
X126182648Y-42070500D01*
X126182649Y-42070500D01*
X126387351Y-42070500D01*
X126387352Y-42070500D01*
X126589534Y-42038477D01*
X126784219Y-41975220D01*
X126966610Y-41882287D01*
X127087877Y-41794181D01*
X127153683Y-41770702D01*
X127160762Y-41770500D01*
X129898531Y-41770500D01*
X129965570Y-41790185D01*
X129986212Y-41806819D01*
X130017636Y-41838243D01*
X130017641Y-41838247D01*
X130119606Y-41912328D01*
X130195978Y-41967815D01*
X130324375Y-42033237D01*
X130392393Y-42067895D01*
X130392396Y-42067896D01*
X130497221Y-42101955D01*
X130602049Y-42136015D01*
X130819778Y-42170500D01*
X130819779Y-42170500D01*
X131040221Y-42170500D01*
X131040222Y-42170500D01*
X131257951Y-42136015D01*
X131467606Y-42067895D01*
X131664022Y-41967815D01*
X131842365Y-41838242D01*
X131892536Y-41788070D01*
X131953857Y-41754586D01*
X132023548Y-41759570D01*
X132079482Y-41801441D01*
X132096398Y-41832419D01*
X132126202Y-41912328D01*
X132126206Y-41912335D01*
X132212452Y-42027544D01*
X132212455Y-42027547D01*
X132327664Y-42113793D01*
X132327671Y-42113797D01*
X132462517Y-42164091D01*
X132462516Y-42164091D01*
X132469444Y-42164835D01*
X132522127Y-42170500D01*
X134417872Y-42170499D01*
X134477483Y-42164091D01*
X134612331Y-42113796D01*
X134727546Y-42027546D01*
X134813796Y-41912331D01*
X134864091Y-41777483D01*
X134870500Y-41717873D01*
X134870499Y-39822128D01*
X134864091Y-39762517D01*
X134859353Y-39749815D01*
X134813797Y-39627671D01*
X134813793Y-39627664D01*
X134727547Y-39512455D01*
X134727544Y-39512452D01*
X134612335Y-39426206D01*
X134612328Y-39426202D01*
X134477482Y-39375908D01*
X134477483Y-39375908D01*
X134417883Y-39369501D01*
X134417881Y-39369500D01*
X134417873Y-39369500D01*
X134417864Y-39369500D01*
X132522129Y-39369500D01*
X132522123Y-39369501D01*
X132462516Y-39375908D01*
X132327671Y-39426202D01*
X132327664Y-39426206D01*
X132212455Y-39512452D01*
X132212452Y-39512455D01*
X132126206Y-39627664D01*
X132126203Y-39627669D01*
X132096398Y-39707581D01*
X132054526Y-39763514D01*
X131989062Y-39787931D01*
X131920789Y-39773079D01*
X131892535Y-39751928D01*
X131842363Y-39701756D01*
X131842358Y-39701752D01*
X131664025Y-39572187D01*
X131664024Y-39572186D01*
X131664022Y-39572185D01*
X131569021Y-39523779D01*
X131467606Y-39472104D01*
X131467603Y-39472103D01*
X131257952Y-39403985D01*
X131149086Y-39386742D01*
X131040222Y-39369500D01*
X130819778Y-39369500D01*
X130747201Y-39380995D01*
X130602047Y-39403985D01*
X130392396Y-39472103D01*
X130392393Y-39472104D01*
X130195974Y-39572187D01*
X130017641Y-39701752D01*
X130017636Y-39701756D01*
X129986212Y-39733181D01*
X129924889Y-39766666D01*
X129898531Y-39769500D01*
X127160762Y-39769500D01*
X127093723Y-39749815D01*
X127087877Y-39745818D01*
X126966613Y-39657715D01*
X126966612Y-39657714D01*
X126966610Y-39657713D01*
X126907636Y-39627664D01*
X126784223Y-39564781D01*
X126589534Y-39501522D01*
X126403799Y-39472105D01*
X126387352Y-39469500D01*
X126182648Y-39469500D01*
X126166201Y-39472105D01*
X125980465Y-39501522D01*
X125785776Y-39564781D01*
X125603386Y-39657715D01*
X125437786Y-39778028D01*
X125293028Y-39922786D01*
X125172715Y-40088386D01*
X125079781Y-40270776D01*
X125016522Y-40465465D01*
X124984500Y-40667648D01*
X123506741Y-40667648D01*
X123515500Y-40601120D01*
X123515500Y-40338880D01*
X123481270Y-40078884D01*
X123413398Y-39825581D01*
X123397803Y-39787931D01*
X123313046Y-39583309D01*
X123313041Y-39583299D01*
X123181924Y-39356196D01*
X123022281Y-39148148D01*
X123022274Y-39148140D01*
X122836860Y-38962726D01*
X122836851Y-38962718D01*
X122628803Y-38803075D01*
X122401700Y-38671958D01*
X122401690Y-38671953D01*
X122159428Y-38571605D01*
X122159421Y-38571603D01*
X122159419Y-38571602D01*
X121906116Y-38503730D01*
X121848339Y-38496123D01*
X121646127Y-38469500D01*
X121646120Y-38469500D01*
X121383880Y-38469500D01*
X121383872Y-38469500D01*
X121152772Y-38499926D01*
X121123884Y-38503730D01*
X120946223Y-38551334D01*
X120870581Y-38571602D01*
X120870571Y-38571605D01*
X120628309Y-38671953D01*
X120628299Y-38671958D01*
X120401196Y-38803075D01*
X120193148Y-38962718D01*
X120007718Y-39148148D01*
X119848075Y-39356196D01*
X119716958Y-39583299D01*
X119716953Y-39583309D01*
X119616605Y-39825571D01*
X119616602Y-39825581D01*
X119548730Y-40078884D01*
X119544926Y-40107772D01*
X119514500Y-40338872D01*
X107285499Y-40338872D01*
X107251270Y-40078884D01*
X107183398Y-39825581D01*
X107167803Y-39787931D01*
X107083046Y-39583309D01*
X107083041Y-39583299D01*
X106951924Y-39356196D01*
X106792281Y-39148148D01*
X106792274Y-39148140D01*
X106606860Y-38962726D01*
X106606851Y-38962718D01*
X106398803Y-38803075D01*
X106171700Y-38671958D01*
X106171690Y-38671953D01*
X105929428Y-38571605D01*
X105929421Y-38571603D01*
X105929419Y-38571602D01*
X105676116Y-38503730D01*
X105618339Y-38496123D01*
X105416127Y-38469500D01*
X105416120Y-38469500D01*
X105153880Y-38469500D01*
X105153872Y-38469500D01*
X104922772Y-38499926D01*
X104893884Y-38503730D01*
X104716223Y-38551334D01*
X104640581Y-38571602D01*
X104640571Y-38571605D01*
X104398309Y-38671953D01*
X104398299Y-38671958D01*
X104171196Y-38803075D01*
X103963148Y-38962718D01*
X103777718Y-39148148D01*
X103618075Y-39356196D01*
X103486958Y-39583299D01*
X103486953Y-39583309D01*
X103386605Y-39825571D01*
X103386602Y-39825581D01*
X103318730Y-40078884D01*
X103314926Y-40107772D01*
X103284500Y-40338872D01*
X94317846Y-40338872D01*
X95083203Y-39573515D01*
X95144524Y-39540032D01*
X95151473Y-39538727D01*
X95299534Y-39515277D01*
X95494219Y-39452020D01*
X95676610Y-39359087D01*
X95797877Y-39270981D01*
X95863683Y-39247502D01*
X95870762Y-39247300D01*
X99301215Y-39247300D01*
X99357511Y-39260816D01*
X99385774Y-39275217D01*
X99385777Y-39275217D01*
X99385781Y-39275220D01*
X99520245Y-39318910D01*
X99580465Y-39338477D01*
X99664633Y-39351808D01*
X99782648Y-39370500D01*
X99782649Y-39370500D01*
X99987351Y-39370500D01*
X99987352Y-39370500D01*
X100189534Y-39338477D01*
X100384219Y-39275220D01*
X100566610Y-39182287D01*
X100659590Y-39114732D01*
X100732213Y-39061971D01*
X100732215Y-39061968D01*
X100732219Y-39061966D01*
X100876966Y-38917219D01*
X100876968Y-38917215D01*
X100876971Y-38917213D01*
X100959895Y-38803076D01*
X100997287Y-38751610D01*
X101090220Y-38569219D01*
X101153477Y-38374534D01*
X101185500Y-38172352D01*
X101185500Y-37967648D01*
X101153477Y-37765466D01*
X101090220Y-37570781D01*
X101090218Y-37570778D01*
X101090218Y-37570776D01*
X101056503Y-37504607D01*
X100997287Y-37388390D01*
X100970824Y-37351966D01*
X100876971Y-37222786D01*
X100732213Y-37078028D01*
X100566613Y-36957715D01*
X100566612Y-36957714D01*
X100566610Y-36957713D01*
X100509653Y-36928691D01*
X100384223Y-36864781D01*
X100189534Y-36801522D01*
X100014995Y-36773878D01*
X99987352Y-36769500D01*
X99782648Y-36769500D01*
X99758329Y-36773351D01*
X99580465Y-36801522D01*
X99385776Y-36864781D01*
X99203386Y-36957715D01*
X99037788Y-37078027D01*
X98905833Y-37209982D01*
X98844510Y-37243466D01*
X98818152Y-37246300D01*
X95870762Y-37246300D01*
X95803723Y-37226615D01*
X95797877Y-37222618D01*
X95676613Y-37134515D01*
X95676612Y-37134514D01*
X95676610Y-37134513D01*
X95618731Y-37105022D01*
X95494223Y-37041581D01*
X95299534Y-36978322D01*
X95124995Y-36950678D01*
X95097352Y-36946300D01*
X94892648Y-36946300D01*
X94868329Y-36950151D01*
X94690465Y-36978322D01*
X94495776Y-37041581D01*
X94313386Y-37134515D01*
X94147786Y-37254828D01*
X94003028Y-37399586D01*
X93882715Y-37565186D01*
X93789781Y-37747578D01*
X93726522Y-37942268D01*
X93703073Y-38090315D01*
X93673143Y-38153449D01*
X93668281Y-38158597D01*
X91904098Y-39922781D01*
X90147221Y-41679658D01*
X90147218Y-41679661D01*
X90112308Y-41714571D01*
X90007859Y-41819019D01*
X89898371Y-41982879D01*
X89898364Y-41982892D01*
X89862355Y-42069828D01*
X89862352Y-42069835D01*
X89860447Y-42074436D01*
X89822949Y-42164964D01*
X89810413Y-42227986D01*
X89809010Y-42235037D01*
X89809008Y-42235045D01*
X89784500Y-42358256D01*
X89784500Y-55330953D01*
X89764815Y-55397992D01*
X89712011Y-55443747D01*
X89642853Y-55453691D01*
X89579297Y-55424666D01*
X89572819Y-55418634D01*
X89532213Y-55378028D01*
X89366613Y-55257715D01*
X89366612Y-55257714D01*
X89366610Y-55257713D01*
X89309653Y-55228691D01*
X89184223Y-55164781D01*
X88989534Y-55101522D01*
X88814995Y-55073878D01*
X88787352Y-55069500D01*
X88582648Y-55069500D01*
X88558329Y-55073351D01*
X88380465Y-55101522D01*
X88185776Y-55164781D01*
X88003386Y-55257715D01*
X87837786Y-55378028D01*
X87693028Y-55522786D01*
X87572715Y-55688386D01*
X87479781Y-55870776D01*
X87416522Y-56065465D01*
X87384500Y-56267648D01*
X87384500Y-56472351D01*
X87416522Y-56674534D01*
X87479781Y-56869223D01*
X87572715Y-57051613D01*
X87693028Y-57217213D01*
X87837786Y-57361971D01*
X87962390Y-57452499D01*
X88003390Y-57482287D01*
X88091843Y-57527356D01*
X88185776Y-57575218D01*
X88185778Y-57575218D01*
X88185781Y-57575220D01*
X88290137Y-57609127D01*
X88380465Y-57638477D01*
X88461148Y-57651256D01*
X88582648Y-57670500D01*
X88582649Y-57670500D01*
X88787351Y-57670500D01*
X88787352Y-57670500D01*
X88989534Y-57638477D01*
X89184219Y-57575220D01*
X89366610Y-57482287D01*
X89485334Y-57396030D01*
X89532213Y-57361971D01*
X89532215Y-57361968D01*
X89532219Y-57361966D01*
X89572819Y-57321366D01*
X89592255Y-57310753D01*
X89608989Y-57296253D01*
X89622320Y-57294336D01*
X89634142Y-57287881D01*
X89656228Y-57289460D01*
X89678147Y-57286309D01*
X89690398Y-57291904D01*
X89703834Y-57292865D01*
X89721560Y-57306135D01*
X89741703Y-57315334D01*
X89748985Y-57326665D01*
X89759767Y-57334737D01*
X89767504Y-57355482D01*
X89779477Y-57374112D01*
X89782628Y-57396030D01*
X89784184Y-57400201D01*
X89784500Y-57409047D01*
X89784500Y-57584217D01*
X89764815Y-57651256D01*
X89748181Y-57671898D01*
X87276797Y-60143281D01*
X87215474Y-60176766D01*
X87208515Y-60178073D01*
X87060468Y-60201522D01*
X86865778Y-60264781D01*
X86683386Y-60357715D01*
X86517786Y-60478028D01*
X86373028Y-60622786D01*
X86252715Y-60788386D01*
X86159781Y-60970776D01*
X86096522Y-61165465D01*
X86064500Y-61367648D01*
X86064500Y-61572351D01*
X86096522Y-61774534D01*
X86159781Y-61969223D01*
X86213987Y-62075606D01*
X86251933Y-62150080D01*
X86252715Y-62151613D01*
X86373028Y-62317213D01*
X86517786Y-62461971D01*
X86652907Y-62560140D01*
X86683390Y-62582287D01*
X86772857Y-62627873D01*
X86776080Y-62629515D01*
X86826876Y-62677490D01*
X86843671Y-62745311D01*
X86821134Y-62811446D01*
X86776080Y-62850485D01*
X86683386Y-62897715D01*
X86517786Y-63018028D01*
X86373028Y-63162786D01*
X86252715Y-63328386D01*
X86159781Y-63510776D01*
X86096522Y-63705465D01*
X86064500Y-63907648D01*
X86064500Y-64112351D01*
X86096522Y-64314534D01*
X86159781Y-64509223D01*
X86252713Y-64691610D01*
X86340819Y-64812877D01*
X86364298Y-64878681D01*
X86364500Y-64885761D01*
X86364500Y-65674237D01*
X86344815Y-65741276D01*
X86340818Y-65747122D01*
X86252715Y-65868386D01*
X86159781Y-66050776D01*
X86096522Y-66245465D01*
X86064500Y-66447648D01*
X86064500Y-66652351D01*
X86096522Y-66854534D01*
X86159781Y-67049223D01*
X86223691Y-67174653D01*
X86247745Y-67221860D01*
X86252715Y-67231613D01*
X86373028Y-67397213D01*
X86517786Y-67541971D01*
X86670862Y-67653185D01*
X86683390Y-67662287D01*
X86753565Y-67698043D01*
X86776080Y-67709515D01*
X86826876Y-67757490D01*
X86843671Y-67825311D01*
X86821134Y-67891446D01*
X86776080Y-67930485D01*
X86683386Y-67977715D01*
X86517786Y-68098028D01*
X86373028Y-68242786D01*
X86252713Y-68408388D01*
X86231070Y-68450865D01*
X86183095Y-68501660D01*
X86115274Y-68518455D01*
X86049140Y-68495917D01*
X86032905Y-68482250D01*
X85959045Y-68408390D01*
X85839819Y-68289163D01*
X85806334Y-68227840D01*
X85803500Y-68201482D01*
X85803500Y-51367648D01*
X86074500Y-51367648D01*
X86074500Y-51572351D01*
X86106522Y-51774534D01*
X86169781Y-51969223D01*
X86262715Y-52151613D01*
X86383028Y-52317213D01*
X86527786Y-52461971D01*
X86682749Y-52574556D01*
X86693390Y-52582287D01*
X86805942Y-52639635D01*
X86875776Y-52675218D01*
X86875778Y-52675218D01*
X86875781Y-52675220D01*
X86980137Y-52709127D01*
X87070465Y-52738477D01*
X87171557Y-52754488D01*
X87272648Y-52770500D01*
X87272649Y-52770500D01*
X87477351Y-52770500D01*
X87477352Y-52770500D01*
X87679534Y-52738477D01*
X87874219Y-52675220D01*
X88056610Y-52582287D01*
X88192225Y-52483758D01*
X88222213Y-52461971D01*
X88222215Y-52461968D01*
X88222219Y-52461966D01*
X88366966Y-52317219D01*
X88366968Y-52317215D01*
X88366971Y-52317213D01*
X88434850Y-52223784D01*
X88487287Y-52151610D01*
X88580220Y-51969219D01*
X88643477Y-51774534D01*
X88675500Y-51572352D01*
X88675500Y-51367648D01*
X88643477Y-51165466D01*
X88580220Y-50970781D01*
X88580218Y-50970778D01*
X88580218Y-50970776D01*
X88546503Y-50904607D01*
X88487287Y-50788390D01*
X88440541Y-50724049D01*
X88366971Y-50622786D01*
X88222213Y-50478028D01*
X88056613Y-50357715D01*
X88056612Y-50357714D01*
X88056610Y-50357713D01*
X87978618Y-50317974D01*
X87874223Y-50264781D01*
X87679534Y-50201522D01*
X87504995Y-50173878D01*
X87477352Y-50169500D01*
X87272648Y-50169500D01*
X87248329Y-50173351D01*
X87070465Y-50201522D01*
X86875776Y-50264781D01*
X86693386Y-50357715D01*
X86527786Y-50478028D01*
X86383028Y-50622786D01*
X86262715Y-50788386D01*
X86169781Y-50970776D01*
X86106522Y-51165465D01*
X86074500Y-51367648D01*
X85803500Y-51367648D01*
X85803500Y-46959915D01*
X86074500Y-46959915D01*
X86074500Y-47164618D01*
X86106522Y-47366801D01*
X86169781Y-47561490D01*
X86229212Y-47678127D01*
X86244631Y-47708390D01*
X86262715Y-47743880D01*
X86383028Y-47909480D01*
X86527786Y-48054238D01*
X86682749Y-48166823D01*
X86693390Y-48174554D01*
X86809607Y-48233770D01*
X86875776Y-48267485D01*
X86875778Y-48267485D01*
X86875781Y-48267487D01*
X86980137Y-48301394D01*
X87070465Y-48330744D01*
X87171557Y-48346755D01*
X87272648Y-48362767D01*
X87272649Y-48362767D01*
X87477351Y-48362767D01*
X87477352Y-48362767D01*
X87679534Y-48330744D01*
X87874219Y-48267487D01*
X88056610Y-48174554D01*
X88179230Y-48085466D01*
X88222213Y-48054238D01*
X88222215Y-48054235D01*
X88222219Y-48054233D01*
X88366966Y-47909486D01*
X88366968Y-47909482D01*
X88366971Y-47909480D01*
X88431981Y-47820000D01*
X88487287Y-47743877D01*
X88580220Y-47561486D01*
X88643477Y-47366801D01*
X88675500Y-47164619D01*
X88675500Y-46959915D01*
X88662273Y-46876403D01*
X88643477Y-46757732D01*
X88600159Y-46624415D01*
X88580220Y-46563048D01*
X88580218Y-46563045D01*
X88580218Y-46563043D01*
X88531103Y-46466651D01*
X88487287Y-46380657D01*
X88458986Y-46341704D01*
X88366971Y-46215053D01*
X88222213Y-46070295D01*
X88056613Y-45949982D01*
X88056612Y-45949981D01*
X88056610Y-45949980D01*
X87999653Y-45920958D01*
X87874223Y-45857048D01*
X87679534Y-45793789D01*
X87504995Y-45766145D01*
X87477352Y-45761767D01*
X87272648Y-45761767D01*
X87248329Y-45765618D01*
X87070465Y-45793789D01*
X86875776Y-45857048D01*
X86693386Y-45949982D01*
X86527786Y-46070295D01*
X86383028Y-46215053D01*
X86262715Y-46380653D01*
X86169781Y-46563043D01*
X86106522Y-46757732D01*
X86074500Y-46959915D01*
X85803500Y-46959915D01*
X85803500Y-42552181D01*
X86074500Y-42552181D01*
X86074500Y-42756885D01*
X86078878Y-42784528D01*
X86106522Y-42959067D01*
X86169781Y-43153756D01*
X86262715Y-43336146D01*
X86383028Y-43501746D01*
X86527786Y-43646504D01*
X86655213Y-43739083D01*
X86693390Y-43766820D01*
X86809607Y-43826036D01*
X86875776Y-43859751D01*
X86875778Y-43859751D01*
X86875781Y-43859753D01*
X86934162Y-43878722D01*
X87070465Y-43923010D01*
X87121644Y-43931116D01*
X87272648Y-43955033D01*
X87272649Y-43955033D01*
X87477351Y-43955033D01*
X87477352Y-43955033D01*
X87679534Y-43923010D01*
X87874219Y-43859753D01*
X88056610Y-43766820D01*
X88152949Y-43696826D01*
X88222213Y-43646504D01*
X88222219Y-43646499D01*
X88274534Y-43594184D01*
X88366966Y-43501752D01*
X88366968Y-43501748D01*
X88366971Y-43501746D01*
X88419732Y-43429123D01*
X88487287Y-43336143D01*
X88580220Y-43153752D01*
X88643477Y-42959067D01*
X88675500Y-42756885D01*
X88675500Y-42552181D01*
X88643477Y-42349999D01*
X88580220Y-42155314D01*
X88580218Y-42155311D01*
X88580218Y-42155309D01*
X88540841Y-42078028D01*
X88487287Y-41972923D01*
X88428358Y-41891813D01*
X88366971Y-41807319D01*
X88222213Y-41662561D01*
X88056613Y-41542248D01*
X88056612Y-41542247D01*
X88056610Y-41542246D01*
X87976838Y-41501600D01*
X87874223Y-41449314D01*
X87679534Y-41386055D01*
X87504995Y-41358411D01*
X87477352Y-41354033D01*
X87272648Y-41354033D01*
X87248329Y-41357884D01*
X87070465Y-41386055D01*
X86875776Y-41449314D01*
X86693386Y-41542248D01*
X86527786Y-41662561D01*
X86383028Y-41807319D01*
X86262715Y-41972919D01*
X86169781Y-42155309D01*
X86106522Y-42349998D01*
X86089835Y-42455360D01*
X86074500Y-42552181D01*
X85803500Y-42552181D01*
X85803500Y-41684056D01*
X85790071Y-41616549D01*
X85770875Y-41520043D01*
X85765051Y-41490764D01*
X85736195Y-41421100D01*
X85734685Y-41417454D01*
X85689635Y-41308692D01*
X85689628Y-41308679D01*
X85580139Y-41144818D01*
X85580136Y-41144814D01*
X85437686Y-41002364D01*
X85437655Y-41002335D01*
X84638423Y-40203103D01*
X84604938Y-40141780D01*
X84602657Y-40126308D01*
X84602500Y-40125316D01*
X84602500Y-40125313D01*
X84569246Y-39915357D01*
X84503557Y-39713188D01*
X84407051Y-39523784D01*
X84407049Y-39523781D01*
X84407048Y-39523779D01*
X84282109Y-39351813D01*
X84131786Y-39201490D01*
X83959820Y-39076551D01*
X83959115Y-39076191D01*
X83951054Y-39072085D01*
X83900259Y-39024112D01*
X83883463Y-38956292D01*
X83905999Y-38890156D01*
X83951054Y-38851115D01*
X83959816Y-38846651D01*
X84098320Y-38746023D01*
X84131786Y-38721709D01*
X84131788Y-38721706D01*
X84131792Y-38721704D01*
X84282104Y-38571392D01*
X84282106Y-38571388D01*
X84282109Y-38571386D01*
X84407048Y-38399420D01*
X84407047Y-38399420D01*
X84407051Y-38399416D01*
X84503557Y-38210012D01*
X84524860Y-38144448D01*
X86074500Y-38144448D01*
X86074500Y-38349151D01*
X86106522Y-38551334D01*
X86169781Y-38746023D01*
X86223330Y-38851116D01*
X86245781Y-38895180D01*
X86262715Y-38928413D01*
X86383028Y-39094013D01*
X86527786Y-39238771D01*
X86682749Y-39351356D01*
X86693390Y-39359087D01*
X86809607Y-39418303D01*
X86875776Y-39452018D01*
X86875778Y-39452018D01*
X86875781Y-39452020D01*
X86939277Y-39472651D01*
X87070465Y-39515277D01*
X87124176Y-39523784D01*
X87272648Y-39547300D01*
X87272649Y-39547300D01*
X87477351Y-39547300D01*
X87477352Y-39547300D01*
X87679534Y-39515277D01*
X87874219Y-39452020D01*
X88056610Y-39359087D01*
X88191870Y-39260816D01*
X88222213Y-39238771D01*
X88222215Y-39238768D01*
X88222219Y-39238766D01*
X88366966Y-39094019D01*
X88366968Y-39094015D01*
X88366971Y-39094013D01*
X88419732Y-39021390D01*
X88487287Y-38928410D01*
X88580220Y-38746019D01*
X88643477Y-38551334D01*
X88675500Y-38349152D01*
X88675500Y-38144448D01*
X88643477Y-37942266D01*
X88580220Y-37747581D01*
X88580218Y-37747578D01*
X88580218Y-37747576D01*
X88515916Y-37621378D01*
X88487287Y-37565190D01*
X88419790Y-37472287D01*
X88366971Y-37399586D01*
X88222213Y-37254828D01*
X88056613Y-37134515D01*
X88056612Y-37134514D01*
X88056610Y-37134513D01*
X87998731Y-37105022D01*
X87874223Y-37041581D01*
X87679534Y-36978322D01*
X87504995Y-36950678D01*
X87477352Y-36946300D01*
X87272648Y-36946300D01*
X87248329Y-36950151D01*
X87070465Y-36978322D01*
X86875776Y-37041581D01*
X86693386Y-37134515D01*
X86527786Y-37254828D01*
X86383028Y-37399586D01*
X86262715Y-37565186D01*
X86169781Y-37747576D01*
X86106522Y-37942265D01*
X86074500Y-38144448D01*
X84524860Y-38144448D01*
X84569246Y-38007843D01*
X84602500Y-37797887D01*
X84602500Y-37585313D01*
X84569246Y-37375357D01*
X84503557Y-37173188D01*
X84407051Y-36983784D01*
X84407049Y-36983781D01*
X84407048Y-36983779D01*
X84282109Y-36811813D01*
X84131786Y-36661490D01*
X83959820Y-36536551D01*
X83954391Y-36533785D01*
X83951054Y-36532085D01*
X83900259Y-36484112D01*
X83883463Y-36416292D01*
X83905999Y-36350156D01*
X83951054Y-36311115D01*
X83959816Y-36306651D01*
X83981789Y-36290686D01*
X84131786Y-36181709D01*
X84131788Y-36181706D01*
X84131792Y-36181704D01*
X84282104Y-36031392D01*
X84282106Y-36031388D01*
X84282109Y-36031386D01*
X84407048Y-35859420D01*
X84407047Y-35859420D01*
X84407051Y-35859416D01*
X84503557Y-35670012D01*
X84569246Y-35467843D01*
X84602500Y-35257887D01*
X84602500Y-35045313D01*
X84569246Y-34835357D01*
X84503557Y-34633188D01*
X84407051Y-34443784D01*
X84407049Y-34443781D01*
X84407048Y-34443779D01*
X84282109Y-34271813D01*
X84131786Y-34121490D01*
X83959820Y-33996551D01*
X83770414Y-33900044D01*
X83770413Y-33900043D01*
X83770412Y-33900043D01*
X83568243Y-33834354D01*
X83568241Y-33834353D01*
X83568240Y-33834353D01*
X83406957Y-33808808D01*
X83358287Y-33801100D01*
X83145713Y-33801100D01*
X83097042Y-33808808D01*
X82935760Y-33834353D01*
X82733585Y-33900044D01*
X82544179Y-33996551D01*
X82372213Y-34121490D01*
X82221890Y-34271813D01*
X82096951Y-34443779D01*
X82000444Y-34633185D01*
X81934753Y-34835360D01*
X81901500Y-35045313D01*
X69362500Y-35045313D01*
X69329246Y-34835357D01*
X69263557Y-34633188D01*
X69167051Y-34443784D01*
X69167049Y-34443781D01*
X69167048Y-34443779D01*
X69042109Y-34271813D01*
X68891786Y-34121490D01*
X68719820Y-33996551D01*
X68530414Y-33900044D01*
X68530413Y-33900043D01*
X68530412Y-33900043D01*
X68328243Y-33834354D01*
X68328241Y-33834353D01*
X68328240Y-33834353D01*
X68166957Y-33808808D01*
X68118287Y-33801100D01*
X67905713Y-33801100D01*
X67857042Y-33808808D01*
X67695760Y-33834353D01*
X67493585Y-33900044D01*
X67304179Y-33996551D01*
X67132213Y-34121490D01*
X66981890Y-34271813D01*
X66856951Y-34443779D01*
X66760444Y-34633185D01*
X66694753Y-34835360D01*
X66661500Y-35045313D01*
X66661500Y-35257887D01*
X66694754Y-35467843D01*
X66726243Y-35564757D01*
X66760444Y-35670014D01*
X66856951Y-35859420D01*
X66981890Y-36031386D01*
X67132213Y-36181709D01*
X67304182Y-36306650D01*
X67312946Y-36311116D01*
X67363742Y-36359091D01*
X67380536Y-36426912D01*
X67357998Y-36493047D01*
X67312946Y-36532084D01*
X67304182Y-36536549D01*
X67132213Y-36661490D01*
X66981890Y-36811813D01*
X66856951Y-36983779D01*
X66760444Y-37173185D01*
X66694753Y-37375360D01*
X66661500Y-37585313D01*
X66661500Y-37797886D01*
X66688387Y-37967648D01*
X66694754Y-38007843D01*
X66748206Y-38172352D01*
X66760444Y-38210014D01*
X66856951Y-38399420D01*
X66981890Y-38571386D01*
X67132213Y-38721709D01*
X67304182Y-38846650D01*
X67312946Y-38851116D01*
X67363742Y-38899091D01*
X67380536Y-38966912D01*
X67357998Y-39033047D01*
X67312946Y-39072084D01*
X67304182Y-39076549D01*
X67132213Y-39201490D01*
X66981892Y-39351811D01*
X66925097Y-39429985D01*
X66869767Y-39472651D01*
X66824779Y-39481100D01*
X57196024Y-39481100D01*
X57128985Y-39461415D01*
X57095705Y-39429984D01*
X57092957Y-39426202D01*
X57051762Y-39369501D01*
X57015245Y-39319238D01*
X56859365Y-39163358D01*
X56838419Y-39148140D01*
X56747270Y-39081917D01*
X56704606Y-39026589D01*
X56698627Y-38956976D01*
X56731232Y-38895180D01*
X56747265Y-38881286D01*
X56859365Y-38799842D01*
X57015242Y-38643965D01*
X57144815Y-38465622D01*
X57244895Y-38269206D01*
X57313015Y-38059551D01*
X57347500Y-37841822D01*
X57347500Y-37621378D01*
X57313015Y-37403649D01*
X57254250Y-37222786D01*
X57244896Y-37193996D01*
X57244895Y-37193993D01*
X57199561Y-37105022D01*
X57144815Y-36997578D01*
X57048333Y-36864781D01*
X57015247Y-36819241D01*
X57015243Y-36819236D01*
X56859363Y-36663356D01*
X56859358Y-36663352D01*
X56681025Y-36533787D01*
X56681024Y-36533786D01*
X56681022Y-36533785D01*
X56601070Y-36493047D01*
X56484606Y-36433704D01*
X56484603Y-36433703D01*
X56290716Y-36370707D01*
X56274952Y-36365585D01*
X56166086Y-36348342D01*
X56057222Y-36331100D01*
X55836778Y-36331100D01*
X55764201Y-36342595D01*
X55619047Y-36365585D01*
X55409396Y-36433703D01*
X55409393Y-36433704D01*
X55212974Y-36533787D01*
X55034641Y-36663352D01*
X55034636Y-36663356D01*
X54878756Y-36819236D01*
X54878752Y-36819241D01*
X54749187Y-36997574D01*
X54649104Y-37193993D01*
X54649103Y-37193996D01*
X54580985Y-37403647D01*
X54546500Y-37621378D01*
X42665500Y-37621378D01*
X42665500Y-33558900D01*
X42685185Y-33491861D01*
X42737989Y-33446106D01*
X42789500Y-33434900D01*
X47405643Y-33434900D01*
X47472682Y-33454585D01*
G37*
%TD.AperFunction*%
%TD*%
M02*
